<svg width="1068" height="639" viewBox="0 0 1068 639" fill="none" xmlns="http://www.w3.org/2000/svg">
<path d="M110 2.50007C84.4 2.50007 78.6667 23.1667 79 33.5001L79 598C79 603.2 80.3333 608.167 81 610H2V623L3 625.5C7.8 634.3 55 637.167 78 637.5H972.5C1040.1 637.5 1063 629.5 1066 625.5V609.5H987L989 601V34.0001C989 8.00006 970.667 2.16673 961.5 2.50007H110Z" fill="white"/>
<path d="M80.9258 609.775C79.758 606.481 79.3189 603.077 79.3189 599.6C79.3189 597.336 79.3189 595.07 79.3189 592.806C79.3189 588.481 79.3189 584.155 79.3189 579.831C79.3189 573.664 79.3189 567.497 79.3189 561.328C79.3189 553.538 79.3189 545.747 79.3189 537.956C79.3189 528.718 79.3189 519.481 79.3189 510.243C79.3189 499.855 79.3189 489.467 79.3189 479.081C79.3189 467.726 79.3189 456.371 79.3189 445.015C79.3189 432.857 79.3189 420.701 79.3189 408.544C79.3189 395.907 79.3189 383.27 79.3189 370.633C79.3189 357.684 79.3189 344.736 79.3189 331.787C79.3189 318.745 79.3189 305.705 79.3189 292.663C79.3189 279.692 79.3189 266.723 79.3189 253.753C79.3189 241.183 79.3189 228.611 79.3189 216.041C79.3189 204.033 79.3189 192.027 79.3189 180.018C79.3189 168.793 79.3189 157.566 79.3189 146.341C79.3189 136.073 79.3189 125.807 79.3189 115.539C79.3189 106.537 79.3189 97.5346 79.3189 88.5324C79.3189 80.9675 79.3189 73.4027 79.3189 65.8379C79.3189 59.9084 79.3189 53.9775 79.3189 48.048C79.3189 44.022 79.3189 39.9959 79.3189 35.9699C79.3189 34.0375 79.3144 32.1052 79.3189 30.1714C79.3281 25.8712 80.1772 21.6579 82.0433 17.7658C84.7752 12.0709 89.451 7.41594 95.1558 4.6979C98.993 2.87065 103.157 2.01946 107.395 2.00271C108.723 1.99814 110.049 2.00271 111.377 2.00271C114.171 2.00271 116.967 2.00271 119.762 2.00271C123.947 2.00271 128.131 2.00271 132.316 2.00271C137.757 2.00271 143.198 2.00271 148.639 2.00271C155.254 2.00271 161.868 2.00271 168.483 2.00271C176.208 2.00271 183.931 2.00271 191.656 2.00271C200.327 2.00271 208.997 2.00271 217.669 2.00271C227.218 2.00271 236.768 2.00271 246.318 2.00271C256.648 2.00271 266.978 2.00271 277.31 2.00271C288.323 2.00271 299.337 2.00271 310.351 2.00271C322 2.00271 333.648 2.00271 345.297 2.00271C357.383 2.00271 369.471 2.00271 381.559 2.00271C394.034 2.00271 406.511 2.00271 418.986 2.00271C431.808 2.00271 444.628 2.00271 457.449 2.00271C470.409 2.00271 483.369 2.00271 496.328 2.00271C509.382 2.00271 522.435 2.00271 535.49 2.00271C548.54 2.00271 561.59 2.00271 574.64 2.00271C587.643 2.00271 600.645 2.00271 613.648 2.00271C626.396 2.00271 639.144 2.00271 651.891 2.00271C664.34 2.00271 676.791 2.00271 689.241 2.00271C701.295 2.00271 713.348 2.00271 725.402 2.00271C737.01 2.00271 748.617 2.00271 760.224 2.00271C771.189 2.00271 782.155 2.00271 793.119 2.00271C803.395 2.00271 813.668 2.00271 823.944 2.00271C833.469 2.00271 842.993 2.00271 852.518 2.00271C861.115 2.00271 869.71 2.00271 878.307 2.00271C885.919 2.00271 893.529 2.00271 901.141 2.00271C907.669 2.00271 914.199 2.00271 920.727 2.00271C926.075 2.00271 931.423 2.00271 936.771 2.00271C940.856 2.00271 944.94 2.00271 949.023 2.00271C951.709 2.00271 954.396 2.00271 957.083 2.00271C958.295 2.00271 959.507 1.99662 960.719 2.00271C965.401 2.02859 969.997 3.11429 974.126 5.3481C979.684 8.35698 984.11 13.2479 986.544 19.0769C988.049 22.6811 988.677 26.4879 988.682 30.3769C988.683 32.4768 988.682 34.575 988.682 36.6749C988.682 40.873 988.682 45.0711 988.682 49.2692C988.682 55.3113 988.682 61.3535 988.682 67.3971C988.682 75.0792 988.682 82.7613 988.682 90.4418C988.682 99.5446 988.682 108.647 988.682 117.75C988.682 128.102 988.682 138.451 988.682 148.803C988.682 160.095 988.682 171.389 988.682 182.682C988.682 194.74 988.682 206.797 988.682 218.855C988.682 231.514 988.682 244.172 988.682 256.83C988.682 269.764 988.682 282.696 988.682 295.63C988.682 308.672 988.682 321.714 988.682 334.756C988.682 347.689 988.682 360.621 988.682 373.554C988.682 386.159 988.682 398.762 988.682 411.367C988.682 423.474 988.682 435.581 988.682 447.69C988.682 458.979 988.682 470.269 988.682 481.558C988.682 491.864 988.682 502.168 988.682 512.474C988.682 521.612 988.682 530.751 988.682 539.889C988.682 547.563 988.682 555.239 988.682 562.915C988.682 568.95 988.682 574.986 988.682 581.02C988.682 585.209 988.682 589.4 988.682 593.589C988.682 595.679 988.685 597.768 988.682 599.859C988.677 603.249 988.209 606.568 987.075 609.777" stroke="#171952" stroke-width="2.75844" stroke-miterlimit="10" stroke-linecap="round" stroke-linejoin="round"/>
<path d="M533.983 637.361C532.441 637.361 530.899 637.361 529.357 637.361C524.989 637.361 520.619 637.361 516.252 637.361C509.443 637.361 502.635 637.361 495.828 637.361C486.968 637.361 478.107 637.361 469.247 637.361C458.666 637.361 448.087 637.361 437.506 637.361C425.697 637.361 413.886 637.361 402.077 637.361C389.376 637.361 376.678 637.361 363.977 637.361C350.774 637.361 337.572 637.361 324.369 637.361C311.05 637.361 297.733 637.361 284.413 637.361C271.365 637.361 258.319 637.361 245.271 637.361C232.882 637.361 220.492 637.361 208.103 637.361C196.76 637.361 185.414 637.361 174.07 637.361C164.113 637.361 154.158 637.361 144.201 637.361C136.118 637.361 128.033 637.361 119.95 637.361C114.074 637.361 108.198 637.361 102.322 637.361C99.04 637.361 95.7579 637.361 92.4776 637.361C88.6411 637.361 84.8045 637.361 80.9698 637.301C72.0059 637.159 63.0475 636.94 54.1033 636.416C45.6868 635.924 37.272 635.191 28.9607 633.947C21.3197 632.803 13.2473 631.291 6.47274 627.954C5.22657 627.34 4.0232 626.649 2.93035 625.849C2.01401 625.179 2.20655 624.776 2.20655 623.722C2.20655 621.177 2.20655 618.633 2.20655 616.089C2.20655 614.823 2.20655 613.559 2.20655 612.294C2.20655 611.784 1.92309 610.541 2.20655 610.08C2.48466 609.629 3.22808 609.815 3.99824 609.815C5.87016 609.815 7.7403 609.815 9.61222 609.815C12.6929 609.815 15.7717 609.815 18.8524 609.815C23.074 609.815 27.2938 609.815 31.5154 609.815C36.8103 609.815 42.1052 609.815 47.4 609.815C53.7021 609.815 60.0043 609.815 66.3064 609.815C73.548 609.815 80.7897 609.815 88.0314 609.815C96.1448 609.815 104.258 609.815 112.372 609.815C121.335 609.815 130.299 609.815 139.263 609.815C148.922 609.815 158.583 609.815 168.242 609.815C178.572 609.815 188.903 609.815 199.232 609.815C210.166 609.815 221.098 609.815 232.032 609.815C243.5 609.815 254.969 609.815 266.438 609.815C278.375 609.815 290.313 609.815 302.25 609.815C314.589 609.815 326.927 609.815 339.266 609.815C351.938 609.815 364.612 609.815 377.284 609.815C390.223 609.815 403.163 609.815 416.102 609.815C429.305 609.815 442.507 609.815 455.71 609.815C468.981 609.815 482.252 609.815 495.525 609.815C508.86 609.815 522.197 609.815 535.532 609.815C548.866 609.815 562.199 609.815 575.533 609.815C588.796 609.815 602.06 609.815 615.324 609.815C628.451 609.815 641.577 609.815 654.704 609.815C667.626 609.815 680.549 609.815 693.471 609.815C706.121 609.815 718.772 609.815 731.422 609.815C743.734 609.815 756.046 609.815 768.358 609.815C780.32 609.815 792.283 609.815 804.244 609.815C815.673 609.815 827.102 609.815 838.534 609.815C849.423 609.815 860.312 609.815 871.201 609.815C881.483 609.815 891.762 609.815 902.043 609.815C911.649 609.815 921.254 609.815 930.86 609.815C939.722 609.815 948.586 609.815 957.448 609.815C965.501 609.815 973.554 609.815 981.607 609.815C988.783 609.815 995.958 609.815 1003.13 609.815C1009.39 609.815 1015.65 609.815 1021.91 609.815C1027.12 609.815 1032.34 609.815 1037.55 609.815C1041.69 609.815 1045.82 609.815 1049.96 609.815C1052.95 609.815 1055.94 609.815 1058.93 609.815C1060.7 609.815 1062.48 609.815 1064.25 609.815C1065.89 609.815 1065.76 609.555 1065.76 611.181C1065.76 613.685 1065.76 616.188 1065.76 618.692C1065.76 619.98 1065.76 621.268 1065.76 622.557C1065.76 623.276 1065.98 624.279 1065.76 624.976C1065.28 626.541 1061.77 627.864 1060.18 628.567C1053.07 631.706 1044.91 633.109 1037.07 634.227C1028.62 635.43 1020.07 636.075 1011.52 636.546C1003.07 637.012 994.596 637.224 986.13 637.314C982.432 637.354 978.735 637.361 975.037 637.361C971.541 637.361 968.045 637.361 964.549 637.361C958.488 637.361 952.428 637.361 946.367 637.361C938.128 637.361 929.89 637.361 921.652 637.361C911.622 637.361 901.594 637.361 891.564 637.361C880.131 637.361 868.698 637.361 857.265 637.361C844.816 637.361 832.365 637.361 819.916 637.361C806.772 637.361 793.627 637.361 780.484 637.361C767.162 637.361 753.837 637.361 740.514 637.361C727.338 637.361 714.16 637.361 700.983 637.361C688.338 637.361 675.694 637.361 663.049 637.361C651.324 637.361 639.598 637.361 627.875 637.361C617.456 637.361 607.038 637.361 596.619 637.361C587.894 637.361 579.169 637.361 570.444 637.361C563.8 637.361 557.156 637.361 550.511 637.361C546.334 637.361 542.157 637.361 537.98 637.361C536.645 637.361 535.315 637.361 533.983 637.361Z" stroke="#171952" stroke-width="2.75844" stroke-miterlimit="10" stroke-linecap="round" stroke-linejoin="round"/>
<path d="M460.321 609.777C460.703 612.423 462.233 614.897 465.352 616.121C467.431 616.937 469.746 617.101 472.027 617.11C487.028 617.161 502.031 617.11 517.031 617.11C526.382 617.11 535.732 617.11 545.083 617.11C561.351 617.11 577.618 617.11 593.886 617.11C599.879 617.11 606.059 616.447 607.494 610.771C607.578 610.442 607.641 610.11 607.689 609.777" stroke="#171952" stroke-width="2.75844" stroke-miterlimit="10" stroke-linecap="round" stroke-linejoin="round"/>
<path d="M1064.85 625.408H3.15625" stroke="#171952" stroke-width="2.75844" stroke-miterlimit="10" stroke-linecap="round" stroke-linejoin="round"/>
<mask id="mask0_277_41871" style="mask-type:alpha" maskUnits="userSpaceOnUse" x="98" y="30" width="872" height="545">
<rect x="98.626" y="30.5039" width="870.748" height="544.332" rx="0.919481" fill="#C4C4C4"/>
</mask>
<g mask="url(#mask0_277_41871)">
<rect x="98.626" y="574.836" width="544.332" height="870.748" transform="rotate(-90 98.626 574.836)" fill="#E3F0FC"/>
</g>
<rect x="98.626" y="30.5039" width="870.748" height="544.332" rx="0.919481" stroke="#171952" stroke-width="2.75844"/>
<path d="M537.218 16.2362C537.192 13.2515 533.33 11.8674 531.461 14.2282C529.658 16.5088 531.702 19.9342 534.564 19.4178C536.081 19.1437 537.217 17.7793 537.218 16.2362Z" stroke="#171952" stroke-width="2.75844" stroke-miterlimit="10" stroke-linecap="round" stroke-linejoin="round"/>
</svg>
