<svg width="838" height="639" viewBox="0 0 838 639" fill="none" xmlns="http://www.w3.org/2000/svg">
<path d="M-120 2.49994C-145.6 2.49994 -151.333 23.1666 -151 33.4999L-151 598C-151 603.2 -149.667 608.167 -149 610H-228V623L-227 625.5C-222.2 634.3 -175 637.167 -152 637.5H742.5C810.1 637.5 833 629.5 836 625.5V609.5H757L759 601V33.9999C759 7.99994 740.667 2.16661 731.5 2.49994H-120Z" fill="white"/>
<path d="M-149.074 609.775C-150.242 606.481 -150.681 603.077 -150.681 599.6C-150.681 597.336 -150.681 595.07 -150.681 592.806C-150.681 588.481 -150.681 584.155 -150.681 579.831C-150.681 573.664 -150.681 567.497 -150.681 561.328C-150.681 553.538 -150.681 545.747 -150.681 537.956C-150.681 528.718 -150.681 519.481 -150.681 510.243C-150.681 499.855 -150.681 489.467 -150.681 479.081C-150.681 467.726 -150.681 456.371 -150.681 445.015C-150.681 432.857 -150.681 420.701 -150.681 408.544C-150.681 395.907 -150.681 383.27 -150.681 370.633C-150.681 357.684 -150.681 344.736 -150.681 331.787C-150.681 318.745 -150.681 305.705 -150.681 292.663C-150.681 279.692 -150.681 266.723 -150.681 253.753C-150.681 241.183 -150.681 228.611 -150.681 216.041C-150.681 204.033 -150.681 192.027 -150.681 180.018C-150.681 168.793 -150.681 157.566 -150.681 146.341C-150.681 136.073 -150.681 125.807 -150.681 115.539C-150.681 106.537 -150.681 97.5346 -150.681 88.5324C-150.681 80.9675 -150.681 73.4027 -150.681 65.8379C-150.681 59.9084 -150.681 53.9775 -150.681 48.048C-150.681 44.022 -150.681 39.9959 -150.681 35.9699C-150.681 34.0375 -150.686 32.1052 -150.681 30.1714C-150.672 25.8712 -149.823 21.6579 -147.957 17.7658C-145.225 12.0709 -140.549 7.41594 -134.844 4.6979C-131.007 2.87065 -126.843 2.01946 -122.605 2.00271C-121.277 1.99814 -119.951 2.00271 -118.623 2.00271C-115.829 2.00271 -113.033 2.00271 -110.238 2.00271C-106.053 2.00271 -101.869 2.00271 -97.6837 2.00271C-92.2427 2.00271 -86.8016 2.00271 -81.3605 2.00271C-74.7456 2.00271 -68.1322 2.00271 -61.5172 2.00271C-53.7924 2.00271 -46.0691 2.00271 -38.3443 2.00271C-29.6728 2.00271 -21.0027 2.00271 -12.3312 2.00271C-2.78152 2.00271 6.76817 2.00271 16.3178 2.00271C26.6481 2.00271 36.9783 2.00271 47.3101 2.00271C58.3233 2.00271 69.3365 2.00271 80.3513 2.00271C92.0002 2.00271 103.648 2.00271 115.297 2.00271C127.383 2.00271 139.471 2.00271 151.559 2.00271C164.034 2.00271 176.511 2.00271 188.986 2.00271C201.808 2.00271 214.628 2.00271 227.449 2.00271C240.409 2.00271 253.369 2.00271 266.328 2.00271C279.382 2.00271 292.435 2.00271 305.49 2.00271C318.54 2.00271 331.59 2.00271 344.64 2.00271C357.643 2.00271 370.645 2.00271 383.648 2.00271C396.396 2.00271 409.144 2.00271 421.891 2.00271C434.34 2.00271 446.791 2.00271 459.241 2.00271C471.295 2.00271 483.348 2.00271 495.402 2.00271C507.01 2.00271 518.617 2.00271 530.224 2.00271C541.189 2.00271 552.155 2.00271 563.119 2.00271C573.395 2.00271 583.668 2.00271 593.944 2.00271C603.469 2.00271 612.993 2.00271 622.518 2.00271C631.115 2.00271 639.71 2.00271 648.307 2.00271C655.919 2.00271 663.529 2.00271 671.141 2.00271C677.669 2.00271 684.199 2.00271 690.727 2.00271C696.075 2.00271 701.423 2.00271 706.771 2.00271C710.856 2.00271 714.94 2.00271 719.023 2.00271C721.709 2.00271 724.396 2.00271 727.083 2.00271C728.295 2.00271 729.507 1.99662 730.719 2.00271C735.401 2.02859 739.997 3.11429 744.126 5.3481C749.684 8.35698 754.11 13.2479 756.544 19.0769C758.049 22.6811 758.677 26.4879 758.682 30.3769C758.683 32.4768 758.682 34.575 758.682 36.6749C758.682 40.873 758.682 45.0711 758.682 49.2692C758.682 55.3113 758.682 61.3535 758.682 67.3971C758.682 75.0792 758.682 82.7613 758.682 90.4418C758.682 99.5446 758.682 108.647 758.682 117.75C758.682 128.102 758.682 138.451 758.682 148.803C758.682 160.095 758.682 171.389 758.682 182.682C758.682 194.74 758.682 206.797 758.682 218.855C758.682 231.514 758.682 244.172 758.682 256.83C758.682 269.764 758.682 282.696 758.682 295.63C758.682 308.672 758.682 321.714 758.682 334.756C758.682 347.689 758.682 360.621 758.682 373.554C758.682 386.159 758.682 398.762 758.682 411.367C758.682 423.474 758.682 435.581 758.682 447.69C758.682 458.979 758.682 470.269 758.682 481.558C758.682 491.864 758.682 502.168 758.682 512.474C758.682 521.612 758.682 530.751 758.682 539.889C758.682 547.563 758.682 555.239 758.682 562.915C758.682 568.95 758.682 574.986 758.682 581.02C758.682 585.209 758.682 589.4 758.682 593.589C758.682 595.679 758.685 597.768 758.682 599.859C758.677 603.249 758.209 606.568 757.075 609.777" stroke="#171952" stroke-width="2.75844" stroke-miterlimit="10" stroke-linecap="round" stroke-linejoin="round"/>
<path d="M303.983 637.361C302.441 637.361 300.899 637.361 299.357 637.361C294.989 637.361 290.619 637.361 286.252 637.361C279.443 637.361 272.635 637.361 265.828 637.361C256.968 637.361 248.107 637.361 239.247 637.361C228.666 637.361 218.087 637.361 207.506 637.361C195.697 637.361 183.886 637.361 172.077 637.361C159.376 637.361 146.678 637.361 133.977 637.361C120.774 637.361 107.572 637.361 94.3692 637.361C81.05 637.361 67.7327 637.361 54.4135 637.361C41.3654 637.361 28.319 637.361 15.2708 637.361C2.88229 637.361 -9.50806 637.361 -21.8966 637.361C-33.2404 637.361 -44.586 637.361 -55.9299 637.361C-65.8867 637.361 -75.8417 637.361 -85.7985 637.361C-93.8817 637.361 -101.967 637.361 -110.05 637.361C-115.926 637.361 -121.802 637.361 -127.678 637.361C-130.96 637.361 -134.242 637.361 -137.522 637.361C-141.359 637.361 -145.195 637.361 -149.03 637.301C-157.994 637.159 -166.952 636.94 -175.897 636.416C-184.313 635.924 -192.728 635.191 -201.039 633.947C-208.68 632.803 -216.753 631.291 -223.527 627.954C-224.773 627.34 -225.977 626.649 -227.07 625.849C-227.986 625.179 -227.793 624.776 -227.793 623.722C-227.793 621.177 -227.793 618.633 -227.793 616.089C-227.793 614.823 -227.793 613.559 -227.793 612.294C-227.793 611.784 -228.077 610.541 -227.793 610.08C-227.515 609.629 -226.772 609.815 -226.002 609.815C-224.13 609.815 -222.26 609.815 -220.388 609.815C-217.307 609.815 -214.228 609.815 -211.148 609.815C-206.926 609.815 -202.706 609.815 -198.484 609.815C-193.19 609.815 -187.895 609.815 -182.6 609.815C-176.298 609.815 -169.996 609.815 -163.694 609.815C-156.452 609.815 -149.21 609.815 -141.969 609.815C-133.855 609.815 -125.742 609.815 -117.628 609.815C-108.664 609.815 -99.7007 609.815 -90.7369 609.815C-81.0778 609.815 -71.4169 609.815 -61.7578 609.815C-51.4283 609.815 -41.0971 609.815 -30.7677 609.815C-19.8339 609.815 -8.9019 609.815 2.03188 609.815C13.5005 609.815 24.9691 609.815 36.4377 609.815C48.3752 609.815 60.3128 609.815 72.2502 609.815C84.5889 609.815 96.9275 609.815 109.266 609.815C121.938 609.815 134.612 609.815 147.284 609.815C160.223 609.815 173.163 609.815 186.102 609.815C199.305 609.815 212.507 609.815 225.71 609.815C238.981 609.815 252.252 609.815 265.525 609.815C278.86 609.815 292.197 609.815 305.532 609.815C318.866 609.815 332.199 609.815 345.533 609.815C358.796 609.815 372.06 609.815 385.324 609.815C398.451 609.815 411.577 609.815 424.704 609.815C437.626 609.815 450.549 609.815 463.471 609.815C476.121 609.815 488.772 609.815 501.422 609.815C513.734 609.815 526.046 609.815 538.358 609.815C550.321 609.815 562.283 609.815 574.244 609.815C585.673 609.815 597.102 609.815 608.534 609.815C619.423 609.815 630.312 609.815 641.201 609.815C651.483 609.815 661.762 609.815 672.043 609.815C681.649 609.815 691.255 609.815 700.86 609.815C709.722 609.815 718.586 609.815 727.449 609.815C735.501 609.815 743.554 609.815 751.607 609.815C758.783 609.815 765.958 609.815 773.134 609.815C779.393 609.815 785.651 609.815 791.91 609.815C797.125 609.815 802.34 609.815 807.554 609.815C811.69 609.815 815.824 609.815 819.96 609.815C822.95 609.815 825.938 609.815 828.926 609.815C830.702 609.815 832.476 609.815 834.251 609.815C835.888 609.815 835.765 609.555 835.765 611.181C835.765 613.685 835.765 616.188 835.765 618.692C835.765 619.98 835.765 621.268 835.765 622.557C835.765 623.276 835.981 624.279 835.765 624.976C835.282 626.541 831.775 627.864 830.179 628.567C823.066 631.706 814.913 633.109 807.067 634.227C798.619 635.43 790.067 636.075 781.524 636.546C773.073 637.012 764.596 637.224 756.13 637.314C752.432 637.354 748.735 637.361 745.037 637.361C741.541 637.361 738.045 637.361 734.549 637.361C728.488 637.361 722.428 637.361 716.367 637.361C708.129 637.361 699.89 637.361 691.652 637.361C681.622 637.361 671.594 637.361 661.564 637.361C650.131 637.361 638.698 637.361 627.265 637.361C614.816 637.361 602.365 637.361 589.916 637.361C576.772 637.361 563.627 637.361 550.485 637.361C537.162 637.361 523.837 637.361 510.515 637.361C497.338 637.361 484.16 637.361 470.983 637.361C458.338 637.361 445.694 637.361 433.049 637.361C421.324 637.361 409.599 637.361 397.875 637.361C387.456 637.361 377.038 637.361 366.619 637.361C357.894 637.361 349.169 637.361 340.445 637.361C333.8 637.361 327.156 637.361 320.511 637.361C316.334 637.361 312.157 637.361 307.98 637.361C306.645 637.361 305.315 637.361 303.983 637.361Z" stroke="#171952" stroke-width="2.75844" stroke-miterlimit="10" stroke-linecap="round" stroke-linejoin="round"/>
<path d="M230.321 609.777C230.703 612.423 232.233 614.897 235.352 616.121C237.431 616.937 239.746 617.101 242.027 617.11C257.028 617.161 272.031 617.11 287.031 617.11C296.382 617.11 305.732 617.11 315.083 617.11C331.351 617.11 347.618 617.11 363.886 617.11C369.879 617.11 376.059 616.447 377.494 610.771C377.578 610.442 377.641 610.11 377.689 609.777" stroke="#171952" stroke-width="2.75844" stroke-miterlimit="10" stroke-linecap="round" stroke-linejoin="round"/>
<path d="M834.854 625.408H-226.844" stroke="#171952" stroke-width="2.75844" stroke-miterlimit="10" stroke-linecap="round" stroke-linejoin="round"/>
<mask id="mask0_277_42597" style="mask-type:alpha" maskUnits="userSpaceOnUse" x="-132" y="30" width="872" height="545">
<rect x="-131.374" y="30.5039" width="870.748" height="544.332" rx="0.919481" fill="#C4C4C4"/>
</mask>
<g mask="url(#mask0_277_42597)">
<rect x="-131.374" y="574.836" width="544.332" height="870.748" transform="rotate(-90 -131.374 574.836)" fill="#E3F0FC"/>
</g>
<rect x="-131.374" y="30.5039" width="870.748" height="544.332" rx="0.919481" stroke="#171952" stroke-width="2.75844"/>
<path d="M307.218 16.2362C307.192 13.2515 303.33 11.8674 301.461 14.2282C299.658 16.5088 301.702 19.9342 304.564 19.4178C306.081 19.1437 307.217 17.7793 307.218 16.2362Z" stroke="#171952" stroke-width="2.75844" stroke-miterlimit="10" stroke-linecap="round" stroke-linejoin="round"/>
</svg>
