<svg width="598" height="255" viewBox="0 0 598 255" fill="none" xmlns="http://www.w3.org/2000/svg">
<rect x="369" y="27.0924" width="226.562" height="456.227" rx="33.1049" fill="white"/>
<path d="M371.071 450.113C371.097 454.942 372.125 459.721 374.161 464.106C376.346 468.811 379.638 472.973 383.707 476.188C387.701 479.343 392.425 481.555 397.404 482.604C400.058 483.163 402.733 483.319 405.435 483.319C408.361 483.319 411.287 483.319 414.213 483.319C419.428 483.319 424.644 483.319 429.859 483.319C436.67 483.319 443.481 483.319 450.292 483.319C458.042 483.319 465.793 483.319 473.542 483.319C481.585 483.319 489.627 483.319 497.671 483.319C505.312 483.319 512.954 483.319 520.595 483.319C527.13 483.319 533.665 483.319 540.2 483.319C545.029 483.319 549.859 483.319 554.689 483.319C557.1 483.319 559.511 483.319 561.923 483.319C565.352 483.319 568.743 482.883 572.03 481.882C576.933 480.39 581.473 477.753 585.192 474.224C588.929 470.679 591.815 466.276 593.571 461.432C594.895 457.781 595.551 453.921 595.559 450.039C595.561 449.148 595.559 448.256 595.559 447.365C595.559 445.272 595.559 443.178 595.559 441.085C595.559 437.89 595.559 434.695 595.559 431.5C595.559 427.318 595.559 423.137 595.559 418.956C595.559 413.929 595.559 408.902 595.559 403.875C595.559 398.058 595.559 392.241 595.559 386.424C595.559 379.953 595.559 373.483 595.559 367.013C595.559 360 595.559 352.988 595.559 345.975C595.559 338.573 595.559 331.17 595.559 323.768C595.559 316.006 595.559 308.244 595.559 300.482C595.559 292.51 595.559 284.538 595.559 276.567C595.559 268.519 595.559 260.472 595.559 252.424C595.559 244.389 595.559 236.354 595.559 228.319C595.559 220.386 595.559 212.453 595.559 204.519C595.559 196.821 595.559 189.122 595.559 181.423C595.559 174.11 595.559 166.796 595.559 159.483C595.559 152.585 595.559 145.687 595.559 138.789C595.559 132.459 595.559 126.129 595.559 119.798C595.559 114.147 595.559 108.496 595.559 102.845C595.559 98.0078 595.559 93.1711 595.559 88.3336C595.559 84.3688 595.559 80.404 595.559 76.4385C595.559 73.4855 595.559 70.5324 595.559 67.5793C595.559 65.7526 595.559 63.9266 595.559 62.0999C595.559 61.334 595.567 60.5674 595.555 59.8014C595.483 54.9614 594.341 50.1518 592.228 45.7967C589.95 41.1024 586.56 36.968 582.4 33.8201C578.398 30.7929 573.721 28.6925 568.8 27.7205C566.221 27.211 563.628 27.0924 561.01 27.0924C557.984 27.0924 554.958 27.0924 551.932 27.0924C546.642 27.0924 541.353 27.0924 536.063 27.0924C529.224 27.0924 522.384 27.0924 515.545 27.0924C507.752 27.0924 499.959 27.0924 492.166 27.0924C484.126 27.0924 476.086 27.0924 468.047 27.0924C460.434 27.0924 452.821 27.0924 445.209 27.0924C438.728 27.0924 432.247 27.0924 425.766 27.0924C421.017 27.0924 416.267 27.0924 411.518 27.0924C409.212 27.0924 406.907 27.0924 404.601 27.0924C401.017 27.0924 397.466 27.5953 394.051 28.7011C389.189 30.2754 384.72 32.976 381.063 36.5473C377.355 40.1689 374.52 44.6664 372.848 49.574C371.66 53.0625 371.077 56.7205 371.07 60.4037C371.068 61.3393 371.07 62.2742 371.07 63.2097C371.07 65.3511 371.07 67.4925 371.07 69.634C371.07 72.8686 371.07 76.1039 371.07 79.3386C371.07 83.5559 371.07 87.7725 371.07 91.9897C371.07 97.0478 371.07 102.106 371.07 107.164C371.07 113.008 371.07 118.852 371.07 124.696C371.07 131.189 371.07 137.682 371.07 144.176C371.07 151.187 371.07 158.198 371.07 165.21C371.07 172.646 371.07 180.082 371.07 187.518C371.07 195.291 371.07 203.063 371.07 210.835C371.07 218.813 371.07 226.79 371.07 234.767C371.07 242.794 371.07 250.821 371.07 258.848C371.07 266.903 371.07 274.957 371.07 283.012C371.07 290.938 371.07 298.864 371.07 306.791C371.07 314.478 371.07 322.166 371.07 329.853C371.07 337.151 371.07 344.45 371.07 351.748C371.07 358.626 371.07 365.505 371.07 372.383C371.07 378.689 371.07 384.996 371.07 391.302C371.07 396.911 371.07 402.519 371.07 408.129C371.07 412.947 371.07 417.766 371.07 422.586C371.07 426.514 371.07 430.442 371.07 434.371C371.07 437.283 371.07 440.195 371.07 443.107C371.07 444.885 371.07 446.663 371.07 448.441C371.071 448.998 371.071 449.556 371.071 450.113Z" stroke="#171952" stroke-width="3.10359" stroke-miterlimit="10" stroke-linecap="round" stroke-linejoin="round"/>
<path d="M507.627 45.1956C507.626 43.6813 506.65 42.2944 505.224 41.7835C503.799 41.2732 502.162 41.7256 501.201 42.8956C500.241 44.0655 500.115 45.7589 500.893 47.0569C501.671 48.3556 503.222 49.0443 504.708 48.7502C506.187 48.4569 507.356 47.2359 507.585 45.7451C507.612 45.5633 507.627 45.3794 507.627 45.1956Z" stroke="#171952" stroke-width="3.10359" stroke-miterlimit="10" stroke-linecap="round" stroke-linejoin="round"/>
<path d="M493.774 45.1819C493.774 44.0309 493.079 42.9945 492.11 42.7003C491.719 42.5818 491.308 42.6147 490.908 42.6147C489.839 42.6147 488.77 42.6147 487.701 42.6147C484.495 42.6147 481.289 42.6147 478.083 42.6147C476.412 42.6147 474.522 42.6147 472.983 42.6284C470.759 42.9013 470.259 46.4957 472.314 47.5321C472.683 47.7178 473.059 47.7476 473.455 47.7491C474.32 47.753 475.187 47.7491 476.052 47.7491C479.203 47.7491 482.354 47.7491 485.505 47.7491C487.506 47.7491 489.52 47.8256 491.52 47.7491C492.479 47.7125 493.338 47.075 493.654 46.0089C493.734 45.7429 493.774 45.4624 493.774 45.1819Z" stroke="#171952" stroke-width="3.10359" stroke-miterlimit="10" stroke-linecap="round" stroke-linejoin="round"/>
<mask id="mask0_435_5487" style="mask-type:alpha" maskUnits="userSpaceOnUse" x="383" y="39" width="201" height="431">
<path d="M429.537 39.5185C423.751 39.5185 417.964 39.5185 412.178 39.5185C409.606 39.5185 407.033 39.5172 404.461 39.5185C402.672 39.5192 400.902 39.6965 399.164 40.1264C395.012 41.1529 391.226 43.4877 388.445 46.7293C385.665 49.9715 383.938 54.0637 383.564 58.3146C383.47 59.3808 383.484 60.4476 383.484 61.5165C383.484 63.1581 383.484 64.799 383.484 66.4407C383.484 69.169 383.484 71.898 383.484 74.6263C383.484 78.35 383.484 82.0738 383.484 85.7969C383.484 90.4043 383.484 95.0124 383.484 99.6197C383.484 104.991 383.484 110.362 383.484 115.733C383.484 121.775 383.484 127.818 383.484 133.86C383.484 140.488 383.484 147.117 383.484 153.746C383.484 160.84 383.484 167.934 383.484 175.029C383.484 182.463 383.484 189.897 383.484 197.331C383.484 205.02 383.484 212.709 383.484 220.398C383.484 228.282 383.484 236.167 383.484 244.051C383.484 251.938 383.484 259.826 383.484 267.714C383.484 275.544 383.484 283.375 383.484 291.205C383.484 298.874 383.484 306.544 383.484 314.213C383.484 321.658 383.484 329.103 383.484 336.547C383.484 343.581 383.484 350.614 383.484 357.647C383.484 364.207 383.484 370.767 383.484 377.328C383.484 383.311 383.484 389.293 383.484 395.276C383.484 400.606 383.484 405.935 383.484 411.265C383.484 415.777 383.484 420.29 383.484 424.802C383.484 428.425 383.484 432.048 383.484 435.671C383.484 438.306 383.484 440.942 383.484 443.578C383.484 445.11 383.484 446.642 383.484 448.175C383.484 449.565 383.507 450.945 383.715 452.326C384.348 456.524 386.3 460.48 389.249 463.542C392.211 466.617 396.122 468.728 400.325 469.514C402.337 469.891 404.349 469.87 406.382 469.87C409.703 469.87 413.023 469.87 416.343 469.87C421.748 469.87 427.153 469.87 432.557 469.87C439.435 469.87 446.313 469.87 453.191 469.87C460.894 469.87 468.596 469.87 476.299 469.87C484.167 469.87 492.037 469.87 499.906 469.87C507.33 469.87 514.755 469.87 522.179 469.87C528.559 469.87 534.939 469.87 541.32 469.87C545.95 469.87 550.581 469.87 555.212 469.87C557.501 469.87 559.79 469.87 562.079 469.87C565.223 469.87 568.298 469.285 571.161 467.965C575.058 466.17 578.337 463.152 580.456 459.431C582.229 456.317 583.134 452.783 583.146 449.207C583.149 448.38 583.146 447.552 583.146 446.725C583.146 444.739 583.146 442.752 583.146 440.766C583.146 437.704 583.146 434.642 583.146 431.581C583.146 427.582 583.146 423.584 583.146 419.586C583.146 414.74 583.146 409.895 583.146 405.05C583.146 399.445 583.146 393.84 583.146 388.236C583.146 381.988 583.146 375.741 583.146 369.493C583.146 362.728 583.146 355.962 583.146 349.196C583.146 342 583.146 334.803 583.146 327.607C583.146 320.062 583.146 312.518 583.146 304.972C583.146 297.203 583.146 289.434 583.146 281.665C583.146 273.799 583.146 265.933 583.146 258.067C583.146 250.186 583.146 242.305 583.146 234.424C583.146 226.589 583.146 218.754 583.146 210.919C583.146 203.321 583.146 195.724 583.146 188.126C583.146 180.826 583.146 173.525 583.146 166.225C583.146 159.326 583.146 152.428 583.146 145.528C583.146 139.101 583.146 132.672 583.146 126.245C583.146 120.464 583.146 114.683 583.146 108.902C583.146 103.834 583.146 98.7672 583.146 93.6994C583.146 89.4492 583.146 85.199 583.146 80.9487C583.146 77.604 583.146 74.2592 583.146 70.9145C583.146 68.6167 583.146 66.319 583.146 64.0212C583.146 62.8532 583.146 61.6851 583.146 60.5164C583.146 58.044 582.795 55.6094 581.969 53.2713C580.541 49.2334 577.843 45.6922 574.325 43.2383C570.86 40.8215 566.706 39.5364 562.483 39.5179C556.657 39.4928 550.831 39.5179 545.005 39.5179C542.453 39.5179 539.901 39.5152 537.349 39.5179C536.388 39.5192 535.485 39.7163 534.865 40.5107C533.851 41.807 533.973 43.784 533.615 45.3079C533.128 47.3827 532.312 49.4404 530.904 51.0714C528.573 53.7707 525.136 53.9901 521.745 53.9901C515.559 53.9901 509.373 53.9901 503.186 53.9901C496.907 53.9901 490.629 53.9901 484.35 53.9901C481.162 53.9901 477.974 53.9901 474.786 53.9901C467.302 53.9901 459.818 53.9901 452.333 53.9901C449.796 53.9901 447.26 53.9901 444.723 53.9901C443.319 53.9901 442.077 54.3322 440.698 54.0147C436.468 53.0405 434.057 49.5422 433.065 45.5176C432.516 43.284 432.757 39.5146 429.537 39.5185Z" fill="#C4C4C4"/>
</mask>
<g mask="url(#mask0_435_5487)">
<rect x="383.483" y="39.5067" width="199.664" height="430.364" rx="2.06906" fill="#E3F0FC"/>
</g>
<path d="M429.537 39.5185C423.751 39.5185 417.964 39.5185 412.178 39.5185C409.606 39.5185 407.033 39.5172 404.461 39.5185C402.672 39.5192 400.902 39.6965 399.164 40.1264C395.012 41.1529 391.226 43.4877 388.445 46.7293C385.665 49.9715 383.938 54.0637 383.564 58.3146C383.47 59.3808 383.484 60.4476 383.484 61.5165C383.484 63.1581 383.484 64.799 383.484 66.4407C383.484 69.169 383.484 71.898 383.484 74.6263C383.484 78.35 383.484 82.0738 383.484 85.7969C383.484 90.4043 383.484 95.0124 383.484 99.6197C383.484 104.991 383.484 110.362 383.484 115.733C383.484 121.775 383.484 127.818 383.484 133.86C383.484 140.488 383.484 147.117 383.484 153.746C383.484 160.84 383.484 167.934 383.484 175.029C383.484 182.463 383.484 189.897 383.484 197.331C383.484 205.02 383.484 212.709 383.484 220.398C383.484 228.282 383.484 236.167 383.484 244.051C383.484 251.938 383.484 259.826 383.484 267.714C383.484 275.544 383.484 283.375 383.484 291.205C383.484 298.874 383.484 306.544 383.484 314.213C383.484 321.658 383.484 329.103 383.484 336.547C383.484 343.581 383.484 350.614 383.484 357.647C383.484 364.207 383.484 370.767 383.484 377.328C383.484 383.311 383.484 389.293 383.484 395.276C383.484 400.606 383.484 405.935 383.484 411.265C383.484 415.777 383.484 420.29 383.484 424.802C383.484 428.425 383.484 432.048 383.484 435.671C383.484 438.306 383.484 440.942 383.484 443.578C383.484 445.11 383.484 446.642 383.484 448.175C383.484 449.565 383.507 450.945 383.715 452.326C384.348 456.524 386.3 460.48 389.249 463.542C392.211 466.617 396.122 468.728 400.325 469.514C402.337 469.891 404.349 469.87 406.382 469.87C409.703 469.87 413.023 469.87 416.343 469.87C421.748 469.87 427.153 469.87 432.557 469.87C439.435 469.87 446.313 469.87 453.191 469.87C460.894 469.87 468.596 469.87 476.299 469.87C484.167 469.87 492.037 469.87 499.906 469.87C507.33 469.87 514.754 469.87 522.179 469.87C528.559 469.87 534.939 469.87 541.32 469.87C545.95 469.87 550.581 469.87 555.212 469.87C557.501 469.87 559.79 469.87 562.079 469.87C565.223 469.87 568.298 469.285 571.161 467.965C575.058 466.17 578.337 463.152 580.456 459.431C582.229 456.317 583.134 452.783 583.146 449.207C583.149 448.38 583.146 447.552 583.146 446.725C583.146 444.739 583.146 442.752 583.146 440.766C583.146 437.704 583.146 434.642 583.146 431.58C583.146 427.582 583.146 423.584 583.146 419.586C583.146 414.74 583.146 409.895 583.146 405.05C583.146 399.445 583.146 393.84 583.146 388.236C583.146 381.988 583.146 375.741 583.146 369.493C583.146 362.728 583.146 355.962 583.146 349.196C583.146 342 583.146 334.803 583.146 327.607C583.146 320.062 583.146 312.518 583.146 304.972C583.146 297.203 583.146 289.434 583.146 281.666C583.146 273.799 583.146 265.933 583.146 258.067C583.146 250.186 583.146 242.305 583.146 234.424C583.146 226.589 583.146 218.754 583.146 210.919C583.146 203.321 583.146 195.724 583.146 188.126C583.146 180.826 583.146 173.525 583.146 166.225C583.146 159.326 583.146 152.428 583.146 145.528C583.146 139.101 583.146 132.672 583.146 126.245C583.146 120.464 583.146 114.683 583.146 108.902C583.146 103.834 583.146 98.7672 583.146 93.6994C583.146 89.4492 583.146 85.199 583.146 80.9487C583.146 77.604 583.146 74.2592 583.146 70.9145C583.146 68.6167 583.146 66.319 583.146 64.0212C583.146 62.8532 583.146 61.6851 583.146 60.5164C583.146 58.044 582.795 55.6094 581.969 53.2713C580.541 49.2334 577.843 45.6922 574.325 43.2383C570.86 40.8215 566.706 39.5364 562.483 39.5179C556.657 39.4928 550.831 39.5179 545.005 39.5179C542.453 39.5179 539.901 39.5152 537.349 39.5179C536.388 39.5192 535.485 39.7163 534.865 40.5107C533.851 41.807 533.973 43.784 533.615 45.3079C533.128 47.3827 532.312 49.4404 530.904 51.0714C528.573 53.7707 525.136 53.9901 521.745 53.9901C515.559 53.9901 509.373 53.9901 503.186 53.9901C496.907 53.9901 490.629 53.9901 484.35 53.9901C481.162 53.9901 477.974 53.9901 474.786 53.9901C467.302 53.9901 459.818 53.9901 452.333 53.9901C449.796 53.9901 447.26 53.9901 444.723 53.9901C443.319 53.9901 442.077 54.3322 440.698 54.0147C436.468 53.0405 434.057 49.5422 433.065 45.5176C432.516 43.284 432.757 39.5146 429.537 39.5185Z" stroke="#171952" stroke-width="3.10359" stroke-miterlimit="10" stroke-linecap="round" stroke-linejoin="round"/>
<rect y="27.0924" width="226.562" height="456.227" rx="33.1049" fill="white"/>
<path d="M2.07064 450.113C2.09712 454.942 3.12536 459.721 5.16132 464.106C7.34624 468.811 10.6382 472.973 14.7075 476.188C18.7013 479.343 23.4247 481.555 28.4037 482.604C31.058 483.163 33.7329 483.319 36.4349 483.319C39.3607 483.319 42.2866 483.319 45.213 483.319C50.4284 483.319 55.6438 483.319 60.8591 483.319C67.6701 483.319 74.4811 483.319 81.2922 483.319C89.042 483.319 96.7926 483.319 104.542 483.319C112.585 483.319 120.627 483.319 128.671 483.319C136.312 483.319 143.954 483.319 151.595 483.319C158.13 483.319 164.665 483.319 171.2 483.319C176.029 483.319 180.859 483.319 185.689 483.319C188.1 483.319 190.511 483.319 192.923 483.319C196.352 483.319 199.743 482.883 203.03 481.882C207.933 480.39 212.473 477.753 216.192 474.224C219.929 470.679 222.815 466.276 224.571 461.432C225.895 457.781 226.551 453.921 226.559 450.039C226.561 449.148 226.559 448.256 226.559 447.365C226.559 445.272 226.559 443.178 226.559 441.085C226.559 437.89 226.559 434.695 226.559 431.5C226.559 427.318 226.559 423.137 226.559 418.956C226.559 413.929 226.559 408.902 226.559 403.875C226.559 398.058 226.559 392.241 226.559 386.424C226.559 379.953 226.559 373.483 226.559 367.013C226.559 360 226.559 352.988 226.559 345.975C226.559 338.573 226.559 331.17 226.559 323.768C226.559 316.006 226.559 308.244 226.559 300.482C226.559 292.51 226.559 284.538 226.559 276.567C226.559 268.519 226.559 260.472 226.559 252.424C226.559 244.389 226.559 236.354 226.559 228.319C226.559 220.386 226.559 212.453 226.559 204.519C226.559 196.821 226.559 189.122 226.559 181.423C226.559 174.11 226.559 166.796 226.559 159.483C226.559 152.585 226.559 145.687 226.559 138.789C226.559 132.459 226.559 126.129 226.559 119.798C226.559 114.147 226.559 108.496 226.559 102.845C226.559 98.0078 226.559 93.1711 226.559 88.3336C226.559 84.3688 226.559 80.404 226.559 76.4385C226.559 73.4855 226.559 70.5324 226.559 67.5793C226.559 65.7526 226.559 63.9266 226.559 62.0999C226.559 61.334 226.567 60.5674 226.555 59.8014C226.483 54.9614 225.341 50.1518 223.228 45.7967C220.95 41.1024 217.56 36.968 213.4 33.8201C209.398 30.7929 204.721 28.6925 199.8 27.7205C197.221 27.211 194.628 27.0924 192.01 27.0924C188.984 27.0924 185.958 27.0924 182.932 27.0924C177.642 27.0924 172.353 27.0924 167.063 27.0924C160.224 27.0924 153.384 27.0924 146.545 27.0924C138.752 27.0924 130.959 27.0924 123.166 27.0924C115.126 27.0924 107.086 27.0924 99.047 27.0924C91.4342 27.0924 83.8214 27.0924 76.2086 27.0924C69.7279 27.0924 63.2466 27.0924 56.766 27.0924C52.0168 27.0924 47.2669 27.0924 42.5176 27.0924C40.2122 27.0924 37.9068 27.0924 35.6013 27.0924C32.0174 27.0924 28.4659 27.5953 25.0508 28.7011C20.189 30.2754 15.7205 32.976 12.063 36.5473C8.35462 40.1689 5.52017 44.6664 3.84837 49.574C2.6599 53.0625 2.0766 56.7205 2.06997 60.4037C2.06799 61.3393 2.06997 62.2742 2.06997 63.2097C2.06997 65.3511 2.06997 67.4925 2.06997 69.634C2.06997 72.8686 2.06997 76.1039 2.06997 79.3386C2.06997 83.5559 2.06997 87.7725 2.06997 91.9897C2.06997 97.0478 2.06997 102.106 2.06997 107.164C2.06997 113.008 2.06997 118.852 2.06997 124.696C2.06997 131.189 2.06997 137.682 2.06997 144.176C2.06997 151.187 2.06997 158.198 2.06997 165.21C2.06997 172.646 2.06997 180.082 2.06997 187.518C2.06997 195.291 2.06997 203.063 2.06997 210.835C2.06997 218.813 2.06997 226.79 2.06997 234.767C2.06997 242.794 2.06997 250.821 2.06997 258.848C2.06997 266.903 2.06997 274.957 2.06997 283.012C2.06997 290.938 2.06997 298.864 2.06997 306.791C2.06997 314.478 2.06997 322.166 2.06997 329.853C2.06997 337.151 2.06997 344.45 2.06997 351.748C2.06997 358.626 2.06997 365.505 2.06997 372.383C2.06997 378.689 2.06997 384.996 2.06997 391.302C2.06997 396.911 2.06997 402.519 2.06997 408.129C2.06997 412.947 2.06997 417.766 2.06997 422.586C2.06997 426.514 2.06997 430.442 2.06997 434.371C2.06997 437.283 2.06997 440.195 2.06997 443.107C2.06997 444.885 2.06997 446.663 2.06997 448.441C2.07064 448.998 2.07064 449.556 2.07064 450.113Z" stroke="#171952" stroke-width="3.10359" stroke-miterlimit="10" stroke-linecap="round" stroke-linejoin="round"/>
<path d="M138.627 45.1956C138.626 43.6813 137.65 42.2944 136.224 41.7835C134.799 41.2732 133.162 41.7256 132.201 42.8956C131.241 44.0655 131.115 45.7589 131.893 47.0569C132.671 48.3556 134.222 49.0443 135.708 48.7502C137.187 48.4569 138.356 47.2359 138.585 45.7451C138.612 45.5633 138.627 45.3794 138.627 45.1956Z" stroke="#171952" stroke-width="3.10359" stroke-miterlimit="10" stroke-linecap="round" stroke-linejoin="round"/>
<path d="M124.774 45.1819C124.774 44.0309 124.079 42.9945 123.11 42.7003C122.719 42.5818 122.308 42.6147 121.908 42.6147C120.839 42.6147 119.77 42.6147 118.701 42.6147C115.495 42.6147 112.289 42.6147 109.083 42.6147C107.412 42.6147 105.522 42.6147 103.983 42.6284C101.759 42.9013 101.259 46.4957 103.314 47.5321C103.683 47.7178 104.059 47.7476 104.455 47.7491C105.32 47.753 106.187 47.7491 107.052 47.7491C110.203 47.7491 113.354 47.7491 116.505 47.7491C118.506 47.7491 120.52 47.8256 122.52 47.7491C123.479 47.7125 124.338 47.075 124.654 46.0089C124.734 45.7429 124.774 45.4624 124.774 45.1819Z" stroke="#171952" stroke-width="3.10359" stroke-miterlimit="10" stroke-linecap="round" stroke-linejoin="round"/>
<mask id="mask1_435_5487" style="mask-type:alpha" maskUnits="userSpaceOnUse" x="14" y="39" width="201" height="431">
<path d="M60.5367 39.5185C54.7506 39.5185 48.9644 39.5185 43.1782 39.5185C40.6057 39.5185 38.0332 39.5172 35.4607 39.5185C33.6719 39.5192 31.9023 39.6965 30.1639 40.1264C26.012 41.1529 22.2262 43.4877 19.4455 46.7293C16.6648 49.9715 14.9383 54.0637 14.5644 58.3146C14.4702 59.3808 14.4841 60.4476 14.4841 61.5165C14.4841 63.1581 14.4841 64.799 14.4841 66.4407C14.4841 69.169 14.4841 71.898 14.4841 74.6263C14.4841 78.35 14.4841 82.0738 14.4841 85.7969C14.4841 90.4043 14.4841 95.0124 14.4841 99.6197C14.4841 104.991 14.4841 110.362 14.4841 115.733C14.4841 121.775 14.4841 127.818 14.4841 133.86C14.4841 140.488 14.4841 147.117 14.4841 153.746C14.4841 160.84 14.4841 167.934 14.4841 175.029C14.4841 182.463 14.4841 189.897 14.4841 197.331C14.4841 205.02 14.4841 212.709 14.4841 220.398C14.4841 228.282 14.4841 236.167 14.4841 244.051C14.4841 251.938 14.4841 259.826 14.4841 267.714C14.4841 275.544 14.4841 283.375 14.4841 291.205C14.4841 298.874 14.4841 306.544 14.4841 314.213C14.4841 321.658 14.4841 329.103 14.4841 336.547C14.4841 343.581 14.4841 350.614 14.4841 357.647C14.4841 364.207 14.4841 370.767 14.4841 377.328C14.4841 383.311 14.4841 389.293 14.4841 395.276C14.4841 400.606 14.4841 405.935 14.4841 411.265C14.4841 415.777 14.4841 420.29 14.4841 424.802C14.4841 428.425 14.4841 432.048 14.4841 435.671C14.4841 438.306 14.4841 440.942 14.4841 443.578C14.4841 445.11 14.4841 446.642 14.4841 448.175C14.4841 449.565 14.5067 450.945 14.7149 452.326C15.348 456.524 17.3 460.48 20.2491 463.542C23.2114 466.617 27.1219 468.728 31.3248 469.514C33.3371 469.891 35.3487 469.87 37.3821 469.87C40.7025 469.87 44.0229 469.87 47.3433 469.87C52.7476 469.87 58.1525 469.87 63.5568 469.87C70.4349 469.87 77.3131 469.87 84.1912 469.87C91.8935 469.87 99.5965 469.87 107.299 469.87C115.167 469.87 123.037 469.87 130.906 469.87C138.33 469.87 145.755 469.87 153.179 469.87C159.559 469.87 165.939 469.87 172.32 469.87C176.95 469.87 181.581 469.87 186.212 469.87C188.501 469.87 190.79 469.87 193.079 469.87C196.223 469.87 199.298 469.285 202.161 467.965C206.058 466.17 209.337 463.152 211.456 459.431C213.229 456.317 214.134 452.783 214.146 449.207C214.149 448.38 214.146 447.552 214.146 446.725C214.146 444.739 214.146 442.752 214.146 440.766C214.146 437.704 214.146 434.642 214.146 431.581C214.146 427.582 214.146 423.584 214.146 419.586C214.146 414.74 214.146 409.895 214.146 405.05C214.146 399.445 214.146 393.84 214.146 388.236C214.146 381.988 214.146 375.741 214.146 369.493C214.146 362.728 214.146 355.962 214.146 349.196C214.146 342 214.146 334.803 214.146 327.607C214.146 320.062 214.146 312.518 214.146 304.972C214.146 297.203 214.146 289.434 214.146 281.665C214.146 273.799 214.146 265.933 214.146 258.067C214.146 250.186 214.146 242.305 214.146 234.424C214.146 226.589 214.146 218.754 214.146 210.919C214.146 203.321 214.146 195.724 214.146 188.126C214.146 180.826 214.146 173.525 214.146 166.225C214.146 159.326 214.146 152.428 214.146 145.528C214.146 139.101 214.146 132.672 214.146 126.245C214.146 120.464 214.146 114.683 214.146 108.902C214.146 103.834 214.146 98.7672 214.146 93.6994C214.146 89.4492 214.146 85.199 214.146 80.9487C214.146 77.604 214.146 74.2592 214.146 70.9145C214.146 68.6167 214.146 66.319 214.146 64.0212C214.146 62.8532 214.146 61.6851 214.146 60.5164C214.146 58.044 213.795 55.6094 212.969 53.2713C211.541 49.2334 208.843 45.6922 205.325 43.2383C201.86 40.8215 197.706 39.5364 193.483 39.5179C187.657 39.4928 181.831 39.5179 176.005 39.5179C173.453 39.5179 170.901 39.5152 168.349 39.5179C167.388 39.5192 166.485 39.7163 165.865 40.5107C164.851 41.807 164.973 43.784 164.615 45.3079C164.128 47.3827 163.312 49.4404 161.904 51.0714C159.573 53.7707 156.136 53.9901 152.745 53.9901C146.559 53.9901 140.373 53.9901 134.186 53.9901C127.907 53.9901 121.629 53.9901 115.35 53.9901C112.162 53.9901 108.974 53.9901 105.786 53.9901C98.3017 53.9901 90.8176 53.9901 83.3328 53.9901C80.7961 53.9901 78.26 53.9901 75.7233 53.9901C74.319 53.9901 73.0771 54.3322 71.698 54.0147C67.4679 53.0405 65.0565 49.5422 64.0653 45.5176C63.5163 43.284 63.757 39.5146 60.5367 39.5185Z" fill="#C4C4C4"/>
</mask>
<g mask="url(#mask1_435_5487)">
<rect x="14.4834" y="39.5067" width="199.664" height="430.364" rx="2.06906" fill="#E3F0FC"/>
</g>
<path d="M60.5367 39.5185C54.7506 39.5185 48.9644 39.5185 43.1782 39.5185C40.6057 39.5185 38.0332 39.5172 35.4607 39.5185C33.6719 39.5192 31.9023 39.6965 30.1639 40.1264C26.012 41.1529 22.2262 43.4877 19.4455 46.7293C16.6648 49.9715 14.9383 54.0637 14.5644 58.3146C14.4702 59.3808 14.4841 60.4476 14.4841 61.5165C14.4841 63.1581 14.4841 64.799 14.4841 66.4407C14.4841 69.169 14.4841 71.898 14.4841 74.6263C14.4841 78.35 14.4841 82.0738 14.4841 85.7969C14.4841 90.4043 14.4841 95.0124 14.4841 99.6197C14.4841 104.991 14.4841 110.362 14.4841 115.733C14.4841 121.775 14.4841 127.818 14.4841 133.86C14.4841 140.488 14.4841 147.117 14.4841 153.746C14.4841 160.84 14.4841 167.934 14.4841 175.029C14.4841 182.463 14.4841 189.897 14.4841 197.331C14.4841 205.02 14.4841 212.709 14.4841 220.398C14.4841 228.282 14.4841 236.167 14.4841 244.051C14.4841 251.938 14.4841 259.826 14.4841 267.714C14.4841 275.544 14.4841 283.375 14.4841 291.205C14.4841 298.874 14.4841 306.544 14.4841 314.213C14.4841 321.658 14.4841 329.103 14.4841 336.547C14.4841 343.581 14.4841 350.614 14.4841 357.647C14.4841 364.207 14.4841 370.767 14.4841 377.328C14.4841 383.311 14.4841 389.293 14.4841 395.276C14.4841 400.606 14.4841 405.935 14.4841 411.265C14.4841 415.777 14.4841 420.29 14.4841 424.802C14.4841 428.425 14.4841 432.048 14.4841 435.671C14.4841 438.306 14.4841 440.942 14.4841 443.578C14.4841 445.11 14.4841 446.642 14.4841 448.175C14.4841 449.565 14.5067 450.945 14.7149 452.326C15.348 456.524 17.3 460.48 20.2491 463.542C23.2114 466.617 27.1219 468.728 31.3248 469.514C33.3371 469.891 35.3487 469.87 37.3821 469.87C40.7025 469.87 44.0229 469.87 47.3433 469.87C52.7476 469.87 58.1525 469.87 63.5568 469.87C70.4349 469.87 77.3131 469.87 84.1912 469.87C91.8935 469.87 99.5965 469.87 107.299 469.87C115.167 469.87 123.037 469.87 130.906 469.87C138.33 469.87 145.754 469.87 153.179 469.87C159.559 469.87 165.939 469.87 172.32 469.87C176.95 469.87 181.581 469.87 186.212 469.87C188.501 469.87 190.79 469.87 193.079 469.87C196.223 469.87 199.298 469.285 202.161 467.965C206.058 466.17 209.337 463.152 211.456 459.431C213.229 456.317 214.134 452.783 214.146 449.207C214.149 448.38 214.146 447.552 214.146 446.725C214.146 444.739 214.146 442.752 214.146 440.766C214.146 437.704 214.146 434.642 214.146 431.58C214.146 427.582 214.146 423.584 214.146 419.586C214.146 414.74 214.146 409.895 214.146 405.05C214.146 399.445 214.146 393.84 214.146 388.236C214.146 381.988 214.146 375.741 214.146 369.493C214.146 362.728 214.146 355.962 214.146 349.196C214.146 342 214.146 334.803 214.146 327.607C214.146 320.062 214.146 312.518 214.146 304.972C214.146 297.203 214.146 289.434 214.146 281.666C214.146 273.799 214.146 265.933 214.146 258.067C214.146 250.186 214.146 242.305 214.146 234.424C214.146 226.589 214.146 218.754 214.146 210.919C214.146 203.321 214.146 195.724 214.146 188.126C214.146 180.826 214.146 173.525 214.146 166.225C214.146 159.326 214.146 152.428 214.146 145.528C214.146 139.101 214.146 132.672 214.146 126.245C214.146 120.464 214.146 114.683 214.146 108.902C214.146 103.834 214.146 98.7672 214.146 93.6994C214.146 89.4492 214.146 85.199 214.146 80.9487C214.146 77.604 214.146 74.2592 214.146 70.9145C214.146 68.6167 214.146 66.319 214.146 64.0212C214.146 62.8532 214.146 61.6851 214.146 60.5164C214.146 58.044 213.795 55.6094 212.969 53.2713C211.541 49.2334 208.843 45.6922 205.325 43.2383C201.86 40.8215 197.706 39.5364 193.483 39.5179C187.657 39.4928 181.831 39.5179 176.005 39.5179C173.453 39.5179 170.901 39.5152 168.349 39.5179C167.388 39.5192 166.485 39.7163 165.865 40.5107C164.851 41.807 164.973 43.784 164.615 45.3079C164.128 47.3827 163.312 49.4404 161.904 51.0714C159.573 53.7707 156.136 53.9901 152.745 53.9901C146.559 53.9901 140.373 53.9901 134.186 53.9901C127.907 53.9901 121.629 53.9901 115.35 53.9901C112.162 53.9901 108.974 53.9901 105.786 53.9901C98.3017 53.9901 90.8176 53.9901 83.3328 53.9901C80.796 53.9901 78.26 53.9901 75.7233 53.9901C74.319 53.9901 73.0771 54.3322 71.698 54.0147C67.4679 53.0405 65.0565 49.5422 64.0653 45.5176C63.5163 43.284 63.757 39.5146 60.5367 39.5185Z" stroke="#171952" stroke-width="3.10359" stroke-miterlimit="10" stroke-linecap="round" stroke-linejoin="round"/>
<rect x="172" y="2" width="251.483" height="506.412" rx="36.7464" fill="white"/>
<path d="M174.298 471.553C174.328 476.913 175.469 482.218 177.729 487.085C180.154 492.308 183.808 496.927 188.325 500.496C192.758 503.999 198.001 506.454 203.528 507.618C206.474 508.238 209.443 508.412 212.443 508.412C215.69 508.412 218.938 508.412 222.186 508.412C227.975 508.412 233.764 508.412 239.554 508.412C247.114 508.412 254.674 508.412 262.234 508.412C270.837 508.412 279.44 508.412 288.042 508.412C296.969 508.412 305.896 508.412 314.824 508.412C323.306 508.412 331.789 508.412 340.271 508.412C347.524 508.412 354.778 508.412 362.032 508.412C367.392 508.412 372.754 508.412 378.114 508.412C380.791 508.412 383.468 508.412 386.144 508.412C389.951 508.412 393.715 507.927 397.363 506.817C402.805 505.161 407.844 502.233 411.973 498.316C416.121 494.381 419.324 489.493 421.274 484.117C422.744 480.064 423.472 475.78 423.481 471.471C423.483 470.482 423.481 469.492 423.481 468.503C423.481 466.179 423.481 463.855 423.481 461.532C423.481 457.986 423.481 454.439 423.481 450.892C423.481 446.251 423.481 441.609 423.481 436.968C423.481 431.388 423.481 425.808 423.481 420.228C423.481 413.772 423.481 407.315 423.481 400.858C423.481 393.676 423.481 386.494 423.481 379.312C423.481 371.528 423.481 363.744 423.481 355.96C423.481 347.743 423.481 339.527 423.481 331.31C423.481 322.694 423.481 314.078 423.481 305.462C423.481 296.614 423.481 287.765 423.481 278.917C423.481 269.984 423.481 261.051 423.481 252.118C423.481 243.199 423.481 234.281 423.481 225.362C423.481 216.555 423.481 207.75 423.481 198.944C423.481 190.398 423.481 181.853 423.481 173.307C423.481 165.189 423.481 157.071 423.481 148.953C423.481 141.297 423.481 133.64 423.481 125.983C423.481 118.957 423.481 111.93 423.481 104.904C423.481 98.631 423.481 92.3576 423.481 86.0849C423.481 80.7161 423.481 75.3473 423.481 69.9778C423.481 65.5768 423.481 61.1759 423.481 56.7742C423.481 53.4963 423.481 50.2184 423.481 46.9405C423.481 44.9129 423.481 42.8859 423.481 40.8583C423.481 40.0081 423.489 39.1572 423.476 38.307C423.396 32.9346 422.128 27.5959 419.783 22.7618C417.255 17.5511 413.491 12.9619 408.873 9.46777C404.432 6.1075 399.241 3.77611 393.778 2.69721C390.915 2.13164 388.037 2 385.131 2C381.772 2 378.413 2 375.054 2C369.183 2 363.311 2 357.439 2C349.848 2 342.256 2 334.665 2C326.015 2 317.364 2 308.714 2C299.79 2 290.866 2 281.942 2C273.492 2 265.042 2 256.591 2C249.398 2 242.204 2 235.01 2C229.739 2 224.466 2 219.195 2C216.635 2 214.076 2 211.517 2C207.539 2 203.597 2.55821 199.806 3.78567C194.41 5.53311 189.45 8.53081 185.39 12.4949C181.274 16.5149 178.127 21.5071 176.272 26.9546C174.952 30.8268 174.305 34.8872 174.298 38.9756C174.295 40.014 174.298 41.0517 174.298 42.0902C174.298 44.4672 174.298 46.8441 174.298 49.2211C174.298 52.8116 174.298 56.4028 174.298 59.9933C174.298 64.6744 174.298 69.3548 174.298 74.036C174.298 79.6504 174.298 85.2649 174.298 90.8793C174.298 97.366 174.298 103.853 174.298 110.34C174.298 117.548 174.298 124.755 174.298 131.962C174.298 139.745 174.298 147.527 174.298 155.31C174.298 163.564 174.298 171.819 174.298 180.073C174.298 188.7 174.298 197.327 174.298 205.955C174.298 214.809 174.298 223.664 174.298 232.519C174.298 241.429 174.298 250.339 174.298 259.249C174.298 268.189 174.298 277.129 174.298 286.07C174.298 294.869 174.298 303.667 174.298 312.466C174.298 320.998 174.298 329.532 174.298 338.065C174.298 346.166 174.298 354.266 174.298 362.367C174.298 370.002 174.298 377.638 174.298 385.272C174.298 392.272 174.298 399.272 174.298 406.272C174.298 412.498 174.298 418.724 174.298 424.95C174.298 430.299 174.298 435.648 174.298 440.998C174.298 445.358 174.298 449.719 174.298 454.079C174.298 457.311 174.298 460.544 174.298 463.776C174.298 465.75 174.298 467.724 174.298 469.697C174.298 470.316 174.298 470.934 174.298 471.553Z" stroke="#171952" stroke-width="3.44498" stroke-miterlimit="10" stroke-linecap="round" stroke-linejoin="round"/>
<path d="M325.876 22.0946C325.876 20.4136 324.792 18.8741 323.209 18.3069C321.627 17.7405 319.81 18.2427 318.744 19.5414C317.677 20.8402 317.538 22.7199 318.401 24.1608C319.265 25.6024 320.987 26.3668 322.636 26.0404C324.278 25.7148 325.576 24.3595 325.83 22.7046C325.86 22.5028 325.876 22.2987 325.876 22.0946Z" stroke="#171952" stroke-width="3.44498" stroke-miterlimit="10" stroke-linecap="round" stroke-linejoin="round"/>
<path d="M310.499 22.0791C310.499 20.8015 309.728 19.6511 308.651 19.3245C308.218 19.193 307.762 19.2295 307.318 19.2295C306.131 19.2295 304.945 19.2295 303.758 19.2295C300.199 19.2295 296.641 19.2295 293.082 19.2295C291.227 19.2295 289.129 19.2296 287.421 19.2448C284.952 19.5476 284.398 23.5375 286.678 24.6878C287.088 24.894 287.505 24.9271 287.944 24.9288C288.905 24.933 289.867 24.9288 290.828 24.9288C294.325 24.9288 297.823 24.9288 301.32 24.9288C303.541 24.9288 305.777 25.0136 307.997 24.9288C309.062 24.8881 310.015 24.1805 310.366 22.9971C310.454 22.7018 310.499 22.3905 310.499 22.0791Z" stroke="#171952" stroke-width="3.44498" stroke-miterlimit="10" stroke-linecap="round" stroke-linejoin="round"/>
<mask id="mask2_435_5487" style="mask-type:alpha" maskUnits="userSpaceOnUse" x="188" y="15" width="222" height="479">
<path d="M239.196 15.7929C232.773 15.7929 226.351 15.7929 219.928 15.7929C217.072 15.7929 214.217 15.7914 211.361 15.7929C209.376 15.7937 207.412 15.9904 205.482 16.4676C200.873 17.607 196.671 20.1987 193.585 23.7968C190.498 27.3957 188.582 31.938 188.167 36.6565C188.062 37.84 188.077 39.0242 188.077 40.2106C188.077 42.0328 188.077 43.8543 188.077 45.6765C188.077 48.7049 188.077 51.7341 188.077 54.7625C188.077 58.8959 188.077 63.0293 188.077 67.1619C188.077 72.2761 188.077 77.391 188.077 82.5053C188.077 88.4674 188.077 94.4289 188.077 100.391C188.077 107.098 188.077 113.805 188.077 120.512C188.077 127.869 188.077 135.227 188.077 142.585C188.077 150.46 188.077 158.334 188.077 166.209C188.077 174.461 188.077 182.713 188.077 190.965C188.077 199.499 188.077 208.035 188.077 216.569C188.077 225.321 188.077 234.073 188.077 242.824C188.077 251.579 188.077 260.335 188.077 269.09C188.077 277.781 188.077 286.473 188.077 295.165C188.077 303.678 188.077 312.191 188.077 320.704C188.077 328.967 188.077 337.231 188.077 345.495C188.077 353.302 188.077 361.109 188.077 368.916C188.077 376.197 188.077 383.479 188.077 390.761C188.077 397.402 188.077 404.043 188.077 410.684C188.077 416.6 188.077 422.515 188.077 428.431C188.077 433.439 188.077 438.449 188.077 443.457C188.077 447.479 188.077 451.501 188.077 455.522C188.077 458.447 188.077 461.373 188.077 464.299C188.077 466 188.077 467.7 188.077 469.401C188.077 470.944 188.102 472.476 188.334 474.009C189.036 478.669 191.203 483.06 194.477 486.459C197.765 489.872 202.105 492.215 206.771 493.088C209.004 493.506 211.237 493.483 213.494 493.483C217.18 493.483 220.866 493.483 224.551 493.483C230.55 493.483 236.549 493.483 242.548 493.483C250.183 493.483 257.818 493.483 265.452 493.483C274.002 493.483 282.552 493.483 291.102 493.483C299.836 493.483 308.571 493.483 317.305 493.483C325.546 493.483 333.788 493.483 342.029 493.483C349.111 493.483 356.193 493.483 363.275 493.483C368.415 493.483 373.555 493.483 378.695 493.483C381.237 493.483 383.777 493.483 386.318 493.483C389.808 493.483 393.221 492.834 396.399 491.369C400.724 489.376 404.364 486.026 406.716 481.895C408.684 478.439 409.688 474.517 409.702 470.547C409.705 469.629 409.702 468.71 409.702 467.792C409.702 465.587 409.702 463.382 409.702 461.177C409.702 457.779 409.702 454.38 409.702 450.982C409.702 446.544 409.702 442.106 409.702 437.668C409.702 432.289 409.702 426.911 409.702 421.533C409.702 415.311 409.702 409.09 409.702 402.869C409.702 395.935 409.702 389 409.702 382.065C409.702 374.555 409.702 367.045 409.702 359.535C409.702 351.548 409.702 343.559 409.702 335.571C409.702 327.197 409.702 318.822 409.702 310.447C409.702 301.823 409.702 293.2 409.702 284.576C409.702 275.845 409.702 267.113 409.702 258.382C409.702 249.634 409.702 240.886 409.702 232.138C409.702 223.441 409.702 214.744 409.702 206.047C409.702 197.614 409.702 189.181 409.702 180.747C409.702 172.644 409.702 164.54 409.702 156.437C409.702 148.779 409.702 141.122 409.702 133.464C409.702 126.329 409.702 119.194 409.702 112.059C409.702 105.643 409.702 99.2252 409.702 92.8086C409.702 87.1834 409.702 81.5589 409.702 75.9337C409.702 71.216 409.702 66.4982 409.702 61.7804C409.702 58.0678 409.702 54.3551 409.702 50.6424C409.702 48.0919 409.702 45.5414 409.702 42.9909C409.702 41.6943 409.702 40.3978 409.702 39.1005C409.702 36.3562 409.313 33.6537 408.395 31.0585C406.81 26.5764 403.815 22.6456 399.911 19.9219C396.065 17.2392 391.454 15.8127 386.766 15.7922C380.3 15.7643 373.832 15.7922 367.365 15.7922C364.533 15.7922 361.7 15.7892 358.867 15.7922C357.801 15.7937 356.799 16.0124 356.11 16.8942C354.984 18.3331 355.121 20.5276 354.723 22.2191C354.182 24.5222 353.276 26.8062 351.713 28.6166C349.126 31.6128 345.311 31.8564 341.548 31.8564C334.68 31.8564 327.814 31.8564 320.947 31.8564C313.977 31.8564 307.008 31.8564 300.038 31.8564C296.5 31.8564 292.961 31.8564 289.422 31.8564C281.115 31.8564 272.808 31.8564 264.499 31.8564C261.684 31.8564 258.869 31.8564 256.053 31.8564C254.494 31.8564 253.116 32.2361 251.585 31.8837C246.889 30.8022 244.213 26.9192 243.113 22.4518C242.503 19.9725 242.77 15.7885 239.196 15.7929Z" fill="#C4C4C4"/>
</mask>
<g mask="url(#mask2_435_5487)">
<rect x="188.077" y="15.7798" width="221.627" height="477.704" rx="2.29665" fill="#E3F0FC"/>
</g>
<path d="M239.196 15.7929C232.773 15.7929 226.351 15.7929 219.928 15.7929C217.072 15.7929 214.217 15.7914 211.361 15.7929C209.376 15.7937 207.412 15.9904 205.482 16.4676C200.873 17.607 196.671 20.1987 193.585 23.7968C190.498 27.3957 188.582 31.938 188.167 36.6565C188.062 37.84 188.077 39.0242 188.077 40.2106C188.077 42.0328 188.077 43.8543 188.077 45.6765C188.077 48.7049 188.077 51.7341 188.077 54.7625C188.077 58.8959 188.077 63.0293 188.077 67.1619C188.077 72.2761 188.077 77.391 188.077 82.5053C188.077 88.4674 188.077 94.4289 188.077 100.391C188.077 107.098 188.077 113.805 188.077 120.512C188.077 127.869 188.077 135.227 188.077 142.585C188.077 150.46 188.077 158.334 188.077 166.209C188.077 174.461 188.077 182.713 188.077 190.965C188.077 199.499 188.077 208.035 188.077 216.569C188.077 225.321 188.077 234.073 188.077 242.824C188.077 251.579 188.077 260.335 188.077 269.09C188.077 277.781 188.077 286.473 188.077 295.165C188.077 303.678 188.077 312.191 188.077 320.704C188.077 328.967 188.077 337.231 188.077 345.495C188.077 353.302 188.077 361.109 188.077 368.916C188.077 376.197 188.077 383.479 188.077 390.761C188.077 397.402 188.077 404.043 188.077 410.684C188.077 416.6 188.077 422.515 188.077 428.431C188.077 433.439 188.077 438.449 188.077 443.457C188.077 447.479 188.077 451.501 188.077 455.522C188.077 458.447 188.077 461.373 188.077 464.299C188.077 466 188.077 467.7 188.077 469.401C188.077 470.944 188.102 472.476 188.334 474.009C189.036 478.669 191.203 483.06 194.477 486.459C197.765 489.872 202.105 492.215 206.771 493.088C209.004 493.506 211.237 493.483 213.494 493.483C217.18 493.483 220.866 493.483 224.551 493.483C230.55 493.483 236.549 493.483 242.548 493.483C250.183 493.483 257.818 493.483 265.452 493.483C274.002 493.483 282.552 493.483 291.102 493.483C299.836 493.483 308.571 493.483 317.305 493.483C325.546 493.483 333.788 493.483 342.029 493.483C349.111 493.483 356.193 493.483 363.275 493.483C368.415 493.483 373.555 493.483 378.695 493.483C381.237 493.483 383.777 493.483 386.318 493.483C389.808 493.483 393.221 492.834 396.399 491.369C400.724 489.376 404.364 486.026 406.716 481.895C408.684 478.439 409.688 474.517 409.702 470.547C409.705 469.629 409.702 468.71 409.702 467.792C409.702 465.587 409.702 463.382 409.702 461.177C409.702 457.779 409.702 454.38 409.702 450.982C409.702 446.544 409.702 442.106 409.702 437.668C409.702 432.289 409.702 426.911 409.702 421.533C409.702 415.311 409.702 409.09 409.702 402.869C409.702 395.935 409.702 389 409.702 382.065C409.702 374.555 409.702 367.045 409.702 359.535C409.702 351.548 409.702 343.559 409.702 335.571C409.702 327.197 409.702 318.822 409.702 310.447C409.702 301.823 409.702 293.2 409.702 284.576C409.702 275.845 409.702 267.113 409.702 258.382C409.702 249.634 409.702 240.886 409.702 232.138C409.702 223.441 409.702 214.744 409.702 206.047C409.702 197.614 409.702 189.181 409.702 180.747C409.702 172.644 409.702 164.54 409.702 156.437C409.702 148.779 409.702 141.122 409.702 133.464C409.702 126.329 409.702 119.194 409.702 112.059C409.702 105.643 409.702 99.2252 409.702 92.8086C409.702 87.1834 409.702 81.5589 409.702 75.9337C409.702 71.216 409.702 66.4982 409.702 61.7804C409.702 58.0678 409.702 54.3551 409.702 50.6424C409.702 48.0919 409.702 45.5414 409.702 42.9909C409.702 41.6943 409.702 40.3978 409.702 39.1005C409.702 36.3562 409.313 33.6537 408.395 31.0585C406.81 26.5764 403.815 22.6456 399.911 19.9219C396.065 17.2392 391.454 15.8127 386.766 15.7922C380.3 15.7643 373.832 15.7922 367.365 15.7922C364.533 15.7922 361.7 15.7892 358.867 15.7922C357.801 15.7937 356.799 16.0124 356.11 16.8942C354.984 18.3331 355.121 20.5276 354.723 22.2191C354.182 24.5222 353.276 26.8062 351.713 28.6166C349.126 31.6128 345.311 31.8564 341.548 31.8564C334.68 31.8564 327.814 31.8564 320.947 31.8564C313.977 31.8564 307.008 31.8564 300.038 31.8564C296.5 31.8564 292.961 31.8564 289.422 31.8564C281.115 31.8564 272.808 31.8564 264.499 31.8564C261.684 31.8564 258.869 31.8564 256.053 31.8564C254.494 31.8564 253.116 32.2361 251.585 31.8837C246.889 30.8022 244.213 26.9192 243.113 22.4518C242.503 19.9725 242.77 15.7885 239.196 15.7929Z" stroke="#171952" stroke-width="3.44498" stroke-miterlimit="10" stroke-linecap="round" stroke-linejoin="round"/>
</svg>
