<svg width="407" height="511" viewBox="0 0 407 511" fill="none" xmlns="http://www.w3.org/2000/svg">
<rect x="177.929" y="27.0924" width="226.562" height="456.227" rx="33.1049" fill="white"/>
<path d="M179.999 450.113C180.026 454.942 181.054 459.721 183.09 464.106C185.275 468.811 188.567 472.973 192.636 476.188C196.63 479.343 201.353 481.555 206.332 482.604C208.987 483.163 211.661 483.319 214.363 483.319C217.289 483.319 220.215 483.319 223.142 483.319C228.357 483.319 233.572 483.319 238.788 483.319C245.599 483.319 252.41 483.319 259.221 483.319C266.971 483.319 274.721 483.319 282.471 483.319C290.514 483.319 298.556 483.319 306.599 483.319C314.241 483.319 321.882 483.319 329.524 483.319C336.059 483.319 342.594 483.319 349.128 483.319C353.958 483.319 358.788 483.319 363.617 483.319C366.029 483.319 368.44 483.319 370.851 483.319C374.281 483.319 377.672 482.883 380.958 481.882C385.861 480.39 390.401 477.753 394.121 474.224C397.857 470.679 400.743 466.276 402.5 461.432C403.824 457.781 404.48 453.921 404.488 450.039C404.49 449.148 404.488 448.256 404.488 447.365C404.488 445.272 404.488 443.178 404.488 441.085C404.488 437.89 404.488 434.695 404.488 431.5C404.488 427.318 404.488 423.137 404.488 418.956C404.488 413.929 404.488 408.902 404.488 403.875C404.488 398.058 404.488 392.241 404.488 386.424C404.488 379.953 404.488 373.483 404.488 367.013C404.488 360 404.488 352.988 404.488 345.975C404.488 338.573 404.488 331.17 404.488 323.768C404.488 316.006 404.488 308.244 404.488 300.482C404.488 292.51 404.488 284.538 404.488 276.567C404.488 268.519 404.488 260.472 404.488 252.424C404.488 244.389 404.488 236.354 404.488 228.319C404.488 220.386 404.488 212.453 404.488 204.519C404.488 196.821 404.488 189.122 404.488 181.423C404.488 174.11 404.488 166.796 404.488 159.483C404.488 152.585 404.488 145.687 404.488 138.789C404.488 132.459 404.488 126.129 404.488 119.798C404.488 114.147 404.488 108.496 404.488 102.845C404.488 98.0078 404.488 93.1711 404.488 88.3336C404.488 84.3688 404.488 80.404 404.488 76.4385C404.488 73.4855 404.488 70.5324 404.488 67.5793C404.488 65.7526 404.488 63.9266 404.488 62.0999C404.488 61.334 404.495 60.5674 404.484 59.8014C404.411 54.9614 403.269 50.1518 401.156 45.7967C398.879 41.1024 395.488 36.968 391.328 33.8201C387.327 30.7929 382.65 28.6925 377.729 27.7205C375.15 27.211 372.556 27.0924 369.938 27.0924C366.913 27.0924 363.887 27.0924 360.86 27.0924C355.571 27.0924 350.281 27.0924 344.991 27.0924C338.152 27.0924 331.313 27.0924 324.474 27.0924C316.681 27.0924 308.887 27.0924 301.095 27.0924C293.055 27.0924 285.015 27.0924 276.976 27.0924C269.363 27.0924 261.75 27.0924 254.137 27.0924C247.656 27.0924 241.175 27.0924 234.695 27.0924C229.945 27.0924 225.195 27.0924 220.446 27.0924C218.141 27.0924 215.835 27.0924 213.53 27.0924C209.946 27.0924 206.394 27.5953 202.979 28.7011C198.118 30.2754 193.649 32.976 189.992 36.5473C186.283 40.1689 183.449 44.6664 181.777 49.574C180.588 53.0625 180.005 56.7205 179.999 60.4037C179.997 61.3393 179.999 62.2742 179.999 63.2097C179.999 65.3511 179.999 67.4925 179.999 69.634C179.999 72.8686 179.999 76.1039 179.999 79.3386C179.999 83.5559 179.999 87.7725 179.999 91.9897C179.999 97.0478 179.999 102.106 179.999 107.164C179.999 113.008 179.999 118.852 179.999 124.696C179.999 131.189 179.999 137.682 179.999 144.176C179.999 151.187 179.999 158.198 179.999 165.21C179.999 172.646 179.999 180.082 179.999 187.518C179.999 195.291 179.999 203.063 179.999 210.835C179.999 218.813 179.999 226.79 179.999 234.767C179.999 242.794 179.999 250.821 179.999 258.848C179.999 266.903 179.999 274.957 179.999 283.012C179.999 290.938 179.999 298.864 179.999 306.791C179.999 314.478 179.999 322.166 179.999 329.853C179.999 337.151 179.999 344.45 179.999 351.748C179.999 358.626 179.999 365.505 179.999 372.383C179.999 378.689 179.999 384.996 179.999 391.302C179.999 396.911 179.999 402.519 179.999 408.129C179.999 412.947 179.999 417.766 179.999 422.586C179.999 426.514 179.999 430.442 179.999 434.371C179.999 437.283 179.999 440.195 179.999 443.107C179.999 444.885 179.999 446.663 179.999 448.441C179.999 448.998 179.999 449.556 179.999 450.113Z" stroke="#171952" stroke-width="3.10359" stroke-miterlimit="10" stroke-linecap="round" stroke-linejoin="round"/>
<path d="M316.555 45.1956C316.555 43.6813 315.578 42.2944 314.153 41.7835C312.728 41.2732 311.091 41.7256 310.13 42.8956C309.169 44.0655 309.044 45.7589 309.821 47.0569C310.6 48.3556 312.151 49.0443 313.636 48.7502C315.115 48.4569 316.285 47.2359 316.513 45.7451C316.541 45.5633 316.555 45.3794 316.555 45.1956Z" stroke="#171952" stroke-width="3.10359" stroke-miterlimit="10" stroke-linecap="round" stroke-linejoin="round"/>
<path d="M302.702 45.1819C302.702 44.0309 302.008 42.9945 301.038 42.7003C300.648 42.5818 300.237 42.6147 299.837 42.6147C298.768 42.6147 297.699 42.6147 296.629 42.6147C293.423 42.6147 290.217 42.6147 287.011 42.6147C285.341 42.6147 283.45 42.6147 281.911 42.6284C279.687 42.9013 279.188 46.4957 281.242 47.5321C281.611 47.7178 281.987 47.7476 282.383 47.7491C283.249 47.753 284.115 47.7491 284.981 47.7491C288.132 47.7491 291.282 47.7491 294.433 47.7491C296.434 47.7491 298.448 47.8256 300.449 47.7491C301.408 47.7125 302.266 47.075 302.582 46.0089C302.662 45.7429 302.702 45.4624 302.702 45.1819Z" stroke="#171952" stroke-width="3.10359" stroke-miterlimit="10" stroke-linecap="round" stroke-linejoin="round"/>
<mask id="mask0_270_1517" style="mask-type:alpha" maskUnits="userSpaceOnUse" x="192" y="39" width="201" height="431">
<path d="M238.465 39.5185C232.679 39.5185 226.893 39.5185 221.107 39.5185C218.534 39.5185 215.962 39.5172 213.389 39.5185C211.6 39.5192 209.831 39.6965 208.092 40.1264C203.941 41.1529 200.155 43.4877 197.374 46.7293C194.593 49.9715 192.867 54.0637 192.493 58.3146C192.399 59.3808 192.413 60.4476 192.413 61.5165C192.413 63.1581 192.413 64.799 192.413 66.4407C192.413 69.169 192.413 71.898 192.413 74.6263C192.413 78.35 192.413 82.0738 192.413 85.7969C192.413 90.4043 192.413 95.0124 192.413 99.6197C192.413 104.991 192.413 110.362 192.413 115.733C192.413 121.775 192.413 127.818 192.413 133.86C192.413 140.488 192.413 147.117 192.413 153.746C192.413 160.84 192.413 167.934 192.413 175.029C192.413 182.463 192.413 189.897 192.413 197.331C192.413 205.02 192.413 212.709 192.413 220.398C192.413 228.282 192.413 236.167 192.413 244.051C192.413 251.938 192.413 259.826 192.413 267.714C192.413 275.544 192.413 283.375 192.413 291.205C192.413 298.874 192.413 306.544 192.413 314.213C192.413 321.658 192.413 329.103 192.413 336.547C192.413 343.581 192.413 350.614 192.413 357.647C192.413 364.207 192.413 370.767 192.413 377.328C192.413 383.311 192.413 389.293 192.413 395.276C192.413 400.606 192.413 405.935 192.413 411.265C192.413 415.777 192.413 420.29 192.413 424.802C192.413 428.425 192.413 432.048 192.413 435.671C192.413 438.306 192.413 440.942 192.413 443.578C192.413 445.11 192.413 446.642 192.413 448.175C192.413 449.565 192.435 450.945 192.643 452.326C193.277 456.524 195.229 460.48 198.178 463.542C201.14 466.617 205.05 468.728 209.253 469.514C211.266 469.891 213.277 469.87 215.311 469.87C218.631 469.87 221.951 469.87 225.272 469.87C230.676 469.87 236.081 469.87 241.485 469.87C248.363 469.87 255.242 469.87 262.12 469.87C269.822 469.87 277.525 469.87 285.227 469.87C293.096 469.87 300.965 469.87 308.834 469.87C316.259 469.87 323.683 469.87 331.108 469.87C337.488 469.87 343.868 469.87 350.248 469.87C354.879 469.87 359.51 469.87 364.14 469.87C366.43 469.87 368.719 469.87 371.008 469.87C374.152 469.87 377.226 469.285 380.09 467.965C383.987 466.17 387.265 463.152 389.384 459.431C391.157 456.317 392.062 452.783 392.075 449.207C392.077 448.38 392.075 447.552 392.075 446.725C392.075 444.739 392.075 442.752 392.075 440.766C392.075 437.704 392.075 434.642 392.075 431.581C392.075 427.582 392.075 423.584 392.075 419.586C392.075 414.74 392.075 409.895 392.075 405.05C392.075 399.445 392.075 393.84 392.075 388.236C392.075 381.988 392.075 375.741 392.075 369.493C392.075 362.728 392.075 355.962 392.075 349.196C392.075 342 392.075 334.803 392.075 327.607C392.075 320.062 392.075 312.518 392.075 304.972C392.075 297.203 392.075 289.434 392.075 281.665C392.075 273.799 392.075 265.933 392.075 258.067C392.075 250.186 392.075 242.305 392.075 234.424C392.075 226.589 392.075 218.754 392.075 210.919C392.075 203.321 392.075 195.724 392.075 188.126C392.075 180.826 392.075 173.525 392.075 166.225C392.075 159.326 392.075 152.428 392.075 145.528C392.075 139.101 392.075 132.672 392.075 126.245C392.075 120.464 392.075 114.683 392.075 108.902C392.075 103.834 392.075 98.7672 392.075 93.6994C392.075 89.4492 392.075 85.199 392.075 80.9487C392.075 77.604 392.075 74.2592 392.075 70.9145C392.075 68.6167 392.075 66.319 392.075 64.0212C392.075 62.8532 392.075 61.6851 392.075 60.5164C392.075 58.044 391.724 55.6094 390.897 53.2713C389.469 49.2334 386.771 45.6922 383.254 43.2383C379.789 40.8215 375.635 39.5364 371.412 39.5179C365.586 39.4928 359.759 39.5179 353.933 39.5179C351.381 39.5179 348.829 39.5152 346.277 39.5179C345.317 39.5192 344.414 39.7163 343.793 40.5107C342.779 41.807 342.902 43.784 342.544 45.3079C342.057 47.3827 341.24 49.4404 339.832 51.0714C337.502 53.7707 334.065 53.9901 330.674 53.9901C324.487 53.9901 318.301 53.9901 312.115 53.9901C305.836 53.9901 299.557 53.9901 293.278 53.9901C290.091 53.9901 286.902 53.9901 283.714 53.9901C276.23 53.9901 268.746 53.9901 261.261 53.9901C258.725 53.9901 256.189 53.9901 253.652 53.9901C252.248 53.9901 251.006 54.3322 249.627 54.0147C245.396 53.0405 242.985 49.5422 241.994 45.5176C241.445 43.284 241.686 39.5146 238.465 39.5185Z" fill="#C4C4C4"/>
</mask>
<g mask="url(#mask0_270_1517)">
<rect x="192.412" y="39.5067" width="199.664" height="430.364" rx="2.06906" fill="#E3F0FC"/>
</g>
<path d="M238.465 39.5185C232.679 39.5185 226.893 39.5185 221.107 39.5185C218.534 39.5185 215.962 39.5172 213.389 39.5185C211.6 39.5192 209.831 39.6965 208.092 40.1264C203.941 41.1529 200.155 43.4877 197.374 46.7293C194.593 49.9715 192.867 54.0637 192.493 58.3146C192.399 59.3808 192.413 60.4476 192.413 61.5165C192.413 63.1581 192.413 64.799 192.413 66.4407C192.413 69.169 192.413 71.898 192.413 74.6263C192.413 78.35 192.413 82.0738 192.413 85.7969C192.413 90.4043 192.413 95.0124 192.413 99.6197C192.413 104.991 192.413 110.362 192.413 115.733C192.413 121.775 192.413 127.818 192.413 133.86C192.413 140.488 192.413 147.117 192.413 153.746C192.413 160.84 192.413 167.934 192.413 175.029C192.413 182.463 192.413 189.897 192.413 197.331C192.413 205.02 192.413 212.709 192.413 220.398C192.413 228.282 192.413 236.167 192.413 244.051C192.413 251.938 192.413 259.826 192.413 267.714C192.413 275.544 192.413 283.375 192.413 291.205C192.413 298.874 192.413 306.544 192.413 314.213C192.413 321.658 192.413 329.103 192.413 336.547C192.413 343.581 192.413 350.614 192.413 357.647C192.413 364.207 192.413 370.767 192.413 377.328C192.413 383.311 192.413 389.293 192.413 395.276C192.413 400.606 192.413 405.935 192.413 411.265C192.413 415.777 192.413 420.29 192.413 424.802C192.413 428.425 192.413 432.048 192.413 435.671C192.413 438.306 192.413 440.942 192.413 443.578C192.413 445.11 192.413 446.642 192.413 448.175C192.413 449.565 192.435 450.945 192.643 452.326C193.277 456.524 195.229 460.48 198.178 463.542C201.14 466.617 205.05 468.728 209.253 469.514C211.266 469.891 213.277 469.87 215.311 469.87C218.631 469.87 221.951 469.87 225.272 469.87C230.676 469.87 236.081 469.87 241.485 469.87C248.363 469.87 255.242 469.87 262.12 469.87C269.822 469.87 277.525 469.87 285.227 469.87C293.096 469.87 300.965 469.87 308.834 469.87C316.259 469.87 323.683 469.87 331.108 469.87C337.488 469.87 343.868 469.87 350.248 469.87C354.879 469.87 359.51 469.87 364.14 469.87C366.43 469.87 368.719 469.87 371.008 469.87C374.152 469.87 377.226 469.285 380.09 467.965C383.987 466.17 387.265 463.152 389.384 459.431C391.157 456.317 392.062 452.783 392.075 449.207C392.077 448.38 392.075 447.552 392.075 446.725C392.075 444.739 392.075 442.752 392.075 440.766C392.075 437.704 392.075 434.642 392.075 431.58C392.075 427.582 392.075 423.584 392.075 419.586C392.075 414.74 392.075 409.895 392.075 405.05C392.075 399.445 392.075 393.84 392.075 388.236C392.075 381.988 392.075 375.741 392.075 369.493C392.075 362.728 392.075 355.962 392.075 349.196C392.075 342 392.075 334.803 392.075 327.607C392.075 320.062 392.075 312.518 392.075 304.972C392.075 297.203 392.075 289.434 392.075 281.666C392.075 273.799 392.075 265.933 392.075 258.067C392.075 250.186 392.075 242.305 392.075 234.424C392.075 226.589 392.075 218.754 392.075 210.919C392.075 203.321 392.075 195.724 392.075 188.126C392.075 180.826 392.075 173.525 392.075 166.225C392.075 159.326 392.075 152.428 392.075 145.528C392.075 139.101 392.075 132.672 392.075 126.245C392.075 120.464 392.075 114.683 392.075 108.902C392.075 103.834 392.075 98.7672 392.075 93.6994C392.075 89.4492 392.075 85.199 392.075 80.9487C392.075 77.604 392.075 74.2592 392.075 70.9145C392.075 68.6167 392.075 66.319 392.075 64.0212C392.075 62.8532 392.075 61.6851 392.075 60.5164C392.075 58.044 391.724 55.6094 390.897 53.2713C389.469 49.2334 386.771 45.6922 383.254 43.2383C379.789 40.8215 375.635 39.5364 371.412 39.5179C365.586 39.4928 359.759 39.5179 353.933 39.5179C351.381 39.5179 348.829 39.5152 346.277 39.5179C345.317 39.5192 344.414 39.7163 343.793 40.5107C342.779 41.807 342.902 43.784 342.544 45.3079C342.057 47.3827 341.24 49.4404 339.832 51.0714C337.502 53.7707 334.065 53.9901 330.674 53.9901C324.487 53.9901 318.301 53.9901 312.115 53.9901C305.836 53.9901 299.557 53.9901 293.278 53.9901C290.091 53.9901 286.902 53.9901 283.714 53.9901C276.23 53.9901 268.746 53.9901 261.261 53.9901C258.725 53.9901 256.189 53.9901 253.652 53.9901C252.248 53.9901 251.006 54.3322 249.627 54.0147C245.396 53.0405 242.985 49.5422 241.994 45.5176C241.445 43.284 241.686 39.5146 238.465 39.5185Z" stroke="#171952" stroke-width="3.10359" stroke-miterlimit="10" stroke-linecap="round" stroke-linejoin="round"/>
<rect y="2" width="251.483" height="506.412" rx="36.7464" fill="white"/>
<path d="M2.29841 471.553C2.3278 476.913 3.46915 482.218 5.72906 487.085C8.15433 492.308 11.8084 496.927 16.3253 500.496C20.7584 503.999 26.0014 506.454 31.5281 507.618C34.4744 508.238 37.4435 508.412 40.4428 508.412C43.6904 508.412 46.9381 508.412 50.1865 508.412C55.9755 508.412 61.7646 508.412 67.5536 508.412C75.1138 508.412 82.6741 508.412 90.2343 508.412C98.8366 508.412 107.44 508.412 116.042 508.412C124.969 508.412 133.896 508.412 142.824 508.412C151.306 508.412 159.789 508.412 168.271 508.412C175.524 508.412 182.778 508.412 190.032 508.412C195.393 508.412 200.754 508.412 206.114 508.412C208.791 508.412 211.468 508.412 214.144 508.412C217.951 508.412 221.715 507.927 225.363 506.817C230.805 505.161 235.845 502.233 239.973 498.316C244.121 494.381 247.324 489.493 249.274 484.117C250.744 480.064 251.472 475.78 251.481 471.471C251.483 470.482 251.481 469.492 251.481 468.503C251.481 466.179 251.481 463.855 251.481 461.532C251.481 457.986 251.481 454.439 251.481 450.892C251.481 446.251 251.481 441.609 251.481 436.968C251.481 431.388 251.481 425.808 251.481 420.228C251.481 413.772 251.481 407.315 251.481 400.858C251.481 393.676 251.481 386.494 251.481 379.312C251.481 371.528 251.481 363.744 251.481 355.96C251.481 347.743 251.481 339.527 251.481 331.31C251.481 322.694 251.481 314.078 251.481 305.462C251.481 296.614 251.481 287.765 251.481 278.917C251.481 269.984 251.481 261.051 251.481 252.118C251.481 243.199 251.481 234.281 251.481 225.362C251.481 216.555 251.481 207.75 251.481 198.944C251.481 190.398 251.481 181.853 251.481 173.307C251.481 165.189 251.481 157.071 251.481 148.953C251.481 141.297 251.481 133.64 251.481 125.983C251.481 118.957 251.481 111.93 251.481 104.904C251.481 98.631 251.481 92.3576 251.481 86.0849C251.481 80.7161 251.481 75.3473 251.481 69.9778C251.481 65.5768 251.481 61.1759 251.481 56.7742C251.481 53.4963 251.481 50.2184 251.481 46.9405C251.481 44.9129 251.481 42.8859 251.481 40.8583C251.481 40.0081 251.489 39.1572 251.477 38.307C251.396 32.9346 250.128 27.5959 247.783 22.7618C245.255 17.5511 241.491 12.9619 236.873 9.46777C232.432 6.1075 227.241 3.77611 221.778 2.69721C218.915 2.13164 216.037 2 213.131 2C209.772 2 206.414 2 203.054 2C197.183 2 191.311 2 185.439 2C177.848 2 170.256 2 162.665 2C154.015 2 145.364 2 136.714 2C127.79 2 118.866 2 109.942 2C101.492 2 93.0417 2 84.5915 2C77.398 2 70.2038 2 63.0103 2C57.7386 2 52.4662 2 47.1946 2C44.6355 2 42.0765 2 39.5175 2C35.5393 2 31.5971 2.55821 27.8064 3.78567C22.4098 5.53311 17.4497 8.53081 13.39 12.4949C9.27363 16.5149 6.12739 21.5071 4.27169 26.9546C2.95249 30.8268 2.30502 34.8872 2.29767 38.9756C2.29547 40.014 2.29767 41.0517 2.29767 42.0902C2.29767 44.4672 2.29767 46.8441 2.29767 49.2211C2.29767 52.8116 2.29767 56.4028 2.29767 59.9933C2.29767 64.6744 2.29767 69.3548 2.29767 74.036C2.29767 79.6504 2.29767 85.2649 2.29767 90.8793C2.29767 97.366 2.29767 103.853 2.29767 110.34C2.29767 117.548 2.29767 124.755 2.29767 131.962C2.29767 139.745 2.29767 147.527 2.29767 155.31C2.29767 163.564 2.29767 171.819 2.29767 180.073C2.29767 188.7 2.29767 197.327 2.29767 205.955C2.29767 214.809 2.29767 223.664 2.29767 232.519C2.29767 241.429 2.29767 250.339 2.29767 259.249C2.29767 268.189 2.29767 277.129 2.29767 286.07C2.29767 294.869 2.29767 303.667 2.29767 312.466C2.29767 320.998 2.29767 329.532 2.29767 338.065C2.29767 346.166 2.29767 354.266 2.29767 362.367C2.29767 370.002 2.29767 377.638 2.29767 385.272C2.29767 392.272 2.29767 399.272 2.29767 406.272C2.29767 412.498 2.29767 418.724 2.29767 424.95C2.29767 430.299 2.29767 435.648 2.29767 440.998C2.29767 445.358 2.29767 449.719 2.29767 454.079C2.29767 457.311 2.29767 460.544 2.29767 463.776C2.29767 465.75 2.29767 467.724 2.29767 469.697C2.29841 470.316 2.29841 470.934 2.29841 471.553Z" stroke="#171952" stroke-width="3.44498" stroke-miterlimit="10" stroke-linecap="round" stroke-linejoin="round"/>
<path d="M153.876 22.0946C153.876 20.4136 152.791 18.8741 151.209 18.3069C149.627 17.7405 147.81 18.2427 146.744 19.5414C145.677 20.8402 145.538 22.7199 146.401 24.1608C147.265 25.6024 148.987 26.3668 150.636 26.0404C152.278 25.7148 153.576 24.3595 153.83 22.7046C153.86 22.5028 153.876 22.2987 153.876 22.0946Z" stroke="#171952" stroke-width="3.44498" stroke-miterlimit="10" stroke-linecap="round" stroke-linejoin="round"/>
<path d="M138.499 22.0791C138.499 20.8015 137.728 19.6511 136.651 19.3245C136.218 19.193 135.762 19.2295 135.318 19.2295C134.131 19.2295 132.945 19.2295 131.758 19.2295C128.199 19.2295 124.641 19.2295 121.082 19.2295C119.227 19.2295 117.129 19.2296 115.421 19.2448C112.952 19.5476 112.398 23.5375 114.678 24.6878C115.088 24.894 115.505 24.9271 115.944 24.9288C116.905 24.933 117.867 24.9288 118.828 24.9288C122.325 24.9288 125.823 24.9288 129.32 24.9288C131.541 24.9288 133.777 25.0136 135.997 24.9288C137.062 24.8881 138.015 24.1805 138.366 22.9971C138.454 22.7018 138.499 22.3905 138.499 22.0791Z" stroke="#171952" stroke-width="3.44498" stroke-miterlimit="10" stroke-linecap="round" stroke-linejoin="round"/>
<mask id="mask1_270_1517" style="mask-type:alpha" maskUnits="userSpaceOnUse" x="16" y="15" width="222" height="479">
<path d="M67.1958 15.7929C60.7731 15.7929 54.3505 15.7929 47.9278 15.7929C45.0723 15.7929 42.2169 15.7914 39.3614 15.7929C37.3758 15.7937 35.4115 15.9904 33.4819 16.4676C28.8733 17.607 24.6711 20.1987 21.5845 23.7968C18.4979 27.3957 16.5815 31.938 16.1664 36.6565C16.0619 37.84 16.0774 39.0242 16.0774 40.2106C16.0774 42.0328 16.0774 43.8543 16.0774 45.6765C16.0774 48.7049 16.0774 51.7341 16.0774 54.7625C16.0774 58.8959 16.0774 63.0293 16.0774 67.1619C16.0774 72.2761 16.0774 77.391 16.0774 82.5053C16.0774 88.4674 16.0774 94.4289 16.0774 100.391C16.0774 107.098 16.0774 113.805 16.0774 120.512C16.0774 127.869 16.0774 135.227 16.0774 142.585C16.0774 150.46 16.0774 158.334 16.0774 166.209C16.0774 174.461 16.0774 182.713 16.0774 190.965C16.0774 199.499 16.0774 208.035 16.0774 216.569C16.0774 225.321 16.0774 234.073 16.0774 242.824C16.0774 251.579 16.0774 260.335 16.0774 269.09C16.0774 277.781 16.0774 286.473 16.0774 295.165C16.0774 303.678 16.0774 312.191 16.0774 320.704C16.0774 328.967 16.0774 337.231 16.0774 345.495C16.0774 353.302 16.0774 361.109 16.0774 368.916C16.0774 376.197 16.0774 383.479 16.0774 390.761C16.0774 397.402 16.0774 404.043 16.0774 410.684C16.0774 416.6 16.0774 422.515 16.0774 428.431C16.0774 433.439 16.0774 438.449 16.0774 443.457C16.0774 447.479 16.0774 451.501 16.0774 455.522C16.0774 458.447 16.0774 461.373 16.0774 464.299C16.0774 466 16.0774 467.7 16.0774 469.401C16.0774 470.944 16.1024 472.476 16.3335 474.009C17.0363 478.669 19.203 483.06 22.4765 486.459C25.7647 489.872 30.1053 492.215 34.7705 493.088C37.0041 493.506 39.237 493.483 41.4942 493.483C45.1798 493.483 48.8654 493.483 52.5511 493.483C58.5498 493.483 64.5493 493.483 70.548 493.483C78.1828 493.483 85.8175 493.483 93.4523 493.483C102.002 493.483 110.552 493.483 119.102 493.483C127.836 493.483 136.571 493.483 145.305 493.483C153.546 493.483 161.787 493.483 170.029 493.483C177.111 493.483 184.193 493.483 191.275 493.483C196.415 493.483 201.555 493.483 206.695 493.483C209.236 493.483 211.777 493.483 214.318 493.483C217.808 493.483 221.221 492.834 224.399 491.369C228.724 489.376 232.364 486.026 234.716 481.895C236.684 478.439 237.688 474.517 237.702 470.547C237.705 469.629 237.702 468.71 237.702 467.792C237.702 465.587 237.702 463.382 237.702 461.177C237.702 457.779 237.702 454.38 237.702 450.982C237.702 446.544 237.702 442.106 237.702 437.668C237.702 432.289 237.702 426.911 237.702 421.533C237.702 415.311 237.702 409.09 237.702 402.869C237.702 395.935 237.702 389 237.702 382.065C237.702 374.555 237.702 367.045 237.702 359.535C237.702 351.548 237.702 343.559 237.702 335.571C237.702 327.197 237.702 318.822 237.702 310.447C237.702 301.823 237.702 293.2 237.702 284.576C237.702 275.845 237.702 267.113 237.702 258.382C237.702 249.634 237.702 240.886 237.702 232.138C237.702 223.441 237.702 214.744 237.702 206.047C237.702 197.614 237.702 189.181 237.702 180.747C237.702 172.644 237.702 164.54 237.702 156.437C237.702 148.779 237.702 141.122 237.702 133.464C237.702 126.329 237.702 119.194 237.702 112.059C237.702 105.643 237.702 99.2252 237.702 92.8086C237.702 87.1834 237.702 81.5589 237.702 75.9337C237.702 71.216 237.702 66.4982 237.702 61.7804C237.702 58.0678 237.702 54.3551 237.702 50.6424C237.702 48.0919 237.702 45.5414 237.702 42.9909C237.702 41.6943 237.702 40.3978 237.702 39.1005C237.702 36.3562 237.313 33.6537 236.395 31.0585C234.81 26.5764 231.815 22.6456 227.911 19.9219C224.065 17.2392 219.454 15.8127 214.766 15.7922C208.3 15.7643 201.832 15.7922 195.365 15.7922C192.533 15.7922 189.7 15.7892 186.867 15.7922C185.801 15.7937 184.798 16.0124 184.11 16.8942C182.984 18.3331 183.12 20.5276 182.723 22.2191C182.182 24.5222 181.276 26.8062 179.713 28.6166C177.126 31.6128 173.311 31.8564 169.547 31.8564C162.68 31.8564 155.814 31.8564 148.947 31.8564C141.977 31.8564 135.008 31.8564 128.038 31.8564C124.5 31.8564 120.961 31.8564 117.422 31.8564C109.115 31.8564 100.807 31.8564 92.4994 31.8564C89.6836 31.8564 86.8686 31.8564 84.0528 31.8564C82.4941 31.8564 81.1155 32.2361 79.5847 31.8837C74.8894 30.8022 72.2127 26.9192 71.1125 22.4518C70.5031 19.9725 70.7703 15.7885 67.1958 15.7929Z" fill="#C4C4C4"/>
</mask>
<g mask="url(#mask1_270_1517)">
<rect x="16.0766" y="15.7798" width="221.627" height="477.704" rx="2.29665" fill="#E3F0FC"/>
</g>
<path d="M67.1957 15.7929C60.7731 15.7929 54.3505 15.7929 47.9278 15.7929C45.0723 15.7929 42.2169 15.7914 39.3614 15.7929C37.3758 15.7937 35.4115 15.9904 33.4819 16.4676C28.8733 17.607 24.6711 20.1987 21.5845 23.7968C18.4979 27.3957 16.5815 31.938 16.1664 36.6565C16.0619 37.84 16.0774 39.0242 16.0774 40.2106C16.0774 42.0328 16.0774 43.8543 16.0774 45.6765C16.0774 48.7049 16.0774 51.7341 16.0774 54.7625C16.0774 58.8959 16.0774 63.0293 16.0774 67.1619C16.0774 72.2761 16.0774 77.391 16.0774 82.5053C16.0774 88.4674 16.0774 94.4289 16.0774 100.391C16.0774 107.098 16.0774 113.805 16.0774 120.512C16.0774 127.869 16.0774 135.227 16.0774 142.585C16.0774 150.46 16.0774 158.334 16.0774 166.209C16.0774 174.461 16.0774 182.713 16.0774 190.965C16.0774 199.499 16.0774 208.035 16.0774 216.569C16.0774 225.321 16.0774 234.073 16.0774 242.824C16.0774 251.579 16.0774 260.335 16.0774 269.09C16.0774 277.781 16.0774 286.473 16.0774 295.165C16.0774 303.678 16.0774 312.191 16.0774 320.704C16.0774 328.967 16.0774 337.231 16.0774 345.495C16.0774 353.302 16.0774 361.109 16.0774 368.916C16.0774 376.197 16.0774 383.479 16.0774 390.761C16.0774 397.402 16.0774 404.043 16.0774 410.684C16.0774 416.6 16.0774 422.515 16.0774 428.431C16.0774 433.439 16.0774 438.449 16.0774 443.457C16.0774 447.479 16.0774 451.501 16.0774 455.522C16.0774 458.447 16.0774 461.373 16.0774 464.299C16.0774 466 16.0774 467.7 16.0774 469.401C16.0774 470.944 16.1024 472.476 16.3335 474.009C17.0363 478.669 19.203 483.06 22.4765 486.459C25.7647 489.872 30.1053 492.215 34.7705 493.088C37.0041 493.506 39.237 493.483 41.4942 493.483C45.1798 493.483 48.8654 493.483 52.5511 493.483C58.5498 493.483 64.5493 493.483 70.548 493.483C78.1828 493.483 85.8175 493.483 93.4523 493.483C102.002 493.483 110.552 493.483 119.102 493.483C127.836 493.483 136.571 493.483 145.305 493.483C153.546 493.483 161.787 493.483 170.029 493.483C177.111 493.483 184.193 493.483 191.275 493.483C196.415 493.483 201.555 493.483 206.695 493.483C209.236 493.483 211.777 493.483 214.318 493.483C217.808 493.483 221.221 492.834 224.399 491.369C228.724 489.376 232.364 486.026 234.716 481.895C236.684 478.439 237.688 474.517 237.702 470.547C237.705 469.629 237.702 468.71 237.702 467.792C237.702 465.587 237.702 463.382 237.702 461.177C237.702 457.779 237.702 454.38 237.702 450.982C237.702 446.544 237.702 442.106 237.702 437.668C237.702 432.289 237.702 426.911 237.702 421.533C237.702 415.311 237.702 409.09 237.702 402.869C237.702 395.935 237.702 389 237.702 382.065C237.702 374.555 237.702 367.045 237.702 359.535C237.702 351.548 237.702 343.559 237.702 335.571C237.702 327.197 237.702 318.822 237.702 310.447C237.702 301.823 237.702 293.2 237.702 284.576C237.702 275.845 237.702 267.113 237.702 258.382C237.702 249.634 237.702 240.886 237.702 232.138C237.702 223.441 237.702 214.744 237.702 206.047C237.702 197.614 237.702 189.181 237.702 180.747C237.702 172.644 237.702 164.54 237.702 156.437C237.702 148.779 237.702 141.122 237.702 133.464C237.702 126.329 237.702 119.194 237.702 112.059C237.702 105.643 237.702 99.2252 237.702 92.8086C237.702 87.1834 237.702 81.5589 237.702 75.9337C237.702 71.216 237.702 66.4982 237.702 61.7804C237.702 58.0678 237.702 54.3551 237.702 50.6424C237.702 48.0919 237.702 45.5414 237.702 42.9909C237.702 41.6943 237.702 40.3978 237.702 39.1005C237.702 36.3562 237.313 33.6537 236.395 31.0585C234.81 26.5764 231.815 22.6456 227.911 19.9219C224.065 17.2392 219.454 15.8127 214.766 15.7922C208.3 15.7643 201.832 15.7922 195.365 15.7922C192.533 15.7922 189.7 15.7892 186.867 15.7922C185.801 15.7937 184.798 16.0124 184.11 16.8942C182.984 18.3331 183.12 20.5276 182.723 22.2191C182.182 24.5222 181.276 26.8062 179.713 28.6166C177.126 31.6128 173.311 31.8564 169.547 31.8564C162.68 31.8564 155.814 31.8564 148.947 31.8564C141.977 31.8564 135.008 31.8564 128.038 31.8564C124.5 31.8564 120.961 31.8564 117.422 31.8564C109.115 31.8564 100.807 31.8564 92.4993 31.8564C89.6836 31.8564 86.8686 31.8564 84.0528 31.8564C82.4941 31.8564 81.1155 32.2361 79.5847 31.8837C74.8894 30.8022 72.2127 26.9192 71.1125 22.4518C70.5031 19.9725 70.7703 15.7885 67.1957 15.7929Z" stroke="#171952" stroke-width="3.44498" stroke-miterlimit="10" stroke-linecap="round" stroke-linejoin="round"/>
</svg>
