<svg width="166" height="50" viewBox="0 0 166 50" fill="none" xmlns="http://www.w3.org/2000/svg">
<rect width="166" height="50" rx="5" fill="#171952"/>
<path fill-rule="evenodd" clip-rule="evenodd" d="M61.8621 32.8876H55.9344L54.5109 37.1746H52.0001L57.6148 21.3139H60.2233L65.838 37.1746H63.2844L61.8621 32.8876ZM56.5483 30.9094H61.247L58.9307 23.952H58.8659L56.5483 30.9094ZM77.9638 31.3933C77.9638 34.9868 76.0779 37.2955 73.2321 37.2955C71.7611 37.374 70.3755 36.5882 69.6647 35.2724H69.6108V41H67.2835V25.6109H69.5363V27.5342H69.5791C70.3215 26.2266 71.7086 25.4412 73.1893 25.4899C76.0669 25.4899 77.9638 27.8099 77.9638 31.3933ZM75.5716 31.3933C75.5716 29.0522 74.3853 27.513 72.5754 27.513C70.7972 27.513 69.6011 29.0846 69.6011 31.3933C69.6011 33.7233 70.7972 35.2837 72.5754 35.2837C74.3854 35.2837 75.5716 33.7557 75.5716 31.3933ZM90.443 31.3933C90.443 34.9868 88.5571 37.2955 85.7113 37.2955C84.2403 37.374 82.8547 36.5882 82.1439 35.2724H82.09V41H79.7627V25.6109H82.0154V27.5342H82.0582C82.8006 26.2266 84.1877 25.4412 85.6684 25.4899C88.5461 25.4899 90.443 27.8099 90.443 31.3933ZM88.0508 31.3933C88.0508 29.0522 86.8645 27.513 85.0545 27.513C83.2763 27.513 82.0803 29.0846 82.0803 31.3933C82.0803 33.7233 83.2763 35.2837 85.0545 35.2837C86.8645 35.2837 88.0508 33.7557 88.0508 31.3933ZM98.6907 32.7554C98.8631 34.3282 100.361 35.3609 102.409 35.3609C104.37 35.3609 105.781 34.3282 105.781 32.91C105.781 31.6789 104.93 30.9418 102.915 30.4366L100.899 29.9414C98.0437 29.238 96.718 27.8759 96.718 25.6657C96.718 22.9291 99.0564 21.0494 102.377 21.0494C105.663 21.0494 107.916 22.9291 107.991 25.6657H105.642C105.501 24.0829 104.218 23.1275 102.344 23.1275C100.469 23.1275 99.186 24.0941 99.186 25.5011C99.186 26.6224 100.005 27.2822 102.01 27.7873L103.723 28.2164C106.914 28.986 108.24 30.2932 108.24 32.6131C108.24 35.5804 105.922 37.4389 102.236 37.4389C98.7873 37.4389 96.4587 35.6241 96.3083 32.7553L98.6907 32.7554ZM113.262 22.8743V25.6109H115.418V27.4905H113.262V33.8655C113.262 34.8558 113.694 35.3173 114.642 35.3173C114.898 35.3128 115.153 35.2944 115.407 35.2624V37.1309C114.981 37.2121 114.548 37.2488 114.115 37.2406C111.819 37.2406 110.924 36.3613 110.924 34.1186V27.4905H109.275V25.6109H110.924V22.8743H113.262ZM116.667 31.3933C116.667 27.755 118.768 25.4687 122.045 25.4687C125.332 25.4687 127.423 27.7549 127.423 31.3933C127.423 35.0417 125.343 37.318 122.045 37.318C118.747 37.318 116.667 35.0417 116.667 31.3933ZM125.052 31.3933C125.052 28.8975 123.93 27.4245 122.045 27.4245C120.159 27.4245 119.039 28.9087 119.039 31.3933C119.039 33.8992 120.159 35.361 122.045 35.361C123.93 35.361 125.052 33.8992 125.052 31.3933ZM129.342 25.6109H131.562V27.5791H131.616C131.925 26.3121 133.063 25.44 134.343 25.4899C134.611 25.4889 134.878 25.5186 135.14 25.5784V27.7986C134.802 27.6931 134.448 27.6446 134.094 27.6552C133.41 27.6269 132.748 27.905 132.282 28.4165C131.816 28.928 131.592 29.6217 131.669 30.3157V37.1745H129.342L129.342 25.6109ZM145.87 33.7782C145.557 35.8774 143.553 37.318 140.988 37.318C137.69 37.318 135.643 35.0641 135.643 31.4482C135.643 27.8211 137.701 25.4687 140.891 25.4687C144.027 25.4687 146 27.6664 146 31.1726V31.9858H137.992V32.1292C137.917 32.9901 138.209 33.8423 138.792 34.469C139.376 35.0956 140.195 35.4364 141.042 35.4046C142.172 35.5126 143.236 34.8511 143.661 33.7782L145.87 33.7782ZM138.003 30.3269L143.672 30.3269C143.714 29.5533 143.438 28.7969 142.91 28.2397C142.382 27.6826 141.65 27.3754 140.891 27.392C140.125 27.3874 139.389 27.6947 138.847 28.2459C138.305 28.797 138.001 29.5462 138.003 30.3269ZM56.2566 9.37551C57.2447 9.30319 58.2124 9.68657 58.8935 10.4201C59.5746 11.1537 59.8973 12.1601 59.7727 13.1623C59.7727 15.597 58.4825 16.9965 56.2566 16.9965H53.5575V9.37551H56.2566ZM54.7181 15.9188H56.127C56.8331 15.9618 57.5206 15.6781 57.9987 15.1464C58.4767 14.6146 58.6944 13.8915 58.5913 13.1778C58.6869 12.4671 58.4661 11.7499 57.9892 11.2226C57.5123 10.6952 56.8293 10.4127 56.127 10.4525H54.7181V15.9188ZM61.0837 14.1183C60.987 13.0874 61.4717 12.0898 62.3344 11.5437C63.1972 10.9977 64.2889 10.9977 65.1517 11.5437C66.0144 12.0898 66.4991 13.0874 66.4024 14.1183C66.5009 15.1503 66.0167 16.1499 65.1532 16.6971C64.2897 17.2443 63.1965 17.2443 62.3329 16.6971C61.4694 16.1499 60.9852 15.1503 61.0837 14.1183ZM65.2577 14.1183C65.2577 12.8716 64.7086 12.1426 63.7449 12.1426C62.7775 12.1426 62.2333 12.8716 62.2333 14.1183C62.2333 15.375 62.7776 16.0984 63.7449 16.0984C64.7086 16.0984 65.2577 15.37 65.2577 14.1183ZM73.4724 16.9964H72.3179L71.1524 12.7606H71.0644L69.9038 16.9964H68.7603L67.2059 11.2451H68.3347L69.3449 15.6337H69.4281L70.5874 11.2451H71.6551L72.8145 15.6337H72.9025L73.9078 11.2451H75.0207L73.4724 16.9964ZM76.328 11.2451H77.3994V12.1588H77.4825C77.7717 11.4861 78.4475 11.0746 79.1653 11.1341C79.7211 11.0915 80.2658 11.309 80.6455 11.7251C81.0252 12.1412 81.1988 12.7109 81.1172 13.2732V16.9964H80.0043V13.5583C80.0043 12.634 79.6105 12.1744 78.7874 12.1744C78.4104 12.1565 78.0446 12.3074 77.7858 12.5875C77.527 12.8676 77.401 13.2491 77.4409 13.6318V16.9964H76.328L76.328 11.2451ZM82.8905 9H84.0034V16.9964H82.8905V9ZM85.5505 14.1183C85.4538 13.0874 85.9386 12.0897 86.8014 11.5436C87.6642 10.9976 88.756 10.9976 89.6188 11.5436C90.4817 12.0897 90.9664 13.0874 90.8698 14.1183C90.9682 15.1503 90.4839 16.1499 89.6203 16.6971C88.7567 17.2443 87.6635 17.2443 86.7999 16.6971C85.9364 16.1499 85.452 15.1503 85.5505 14.1183ZM89.7245 14.1183C89.7245 12.8716 89.1753 12.1426 88.2116 12.1426C87.2443 12.1426 86.7001 12.8716 86.7001 14.1183C86.7001 15.375 87.2443 16.0984 88.2116 16.0984C89.1753 16.0984 89.7245 15.37 89.7245 14.1183ZM92.0414 15.37C92.0414 14.3347 92.7972 13.7379 94.1388 13.6531L95.6663 13.5633V13.0668C95.6663 12.4594 95.2725 12.1164 94.5118 12.1164C93.8905 12.1164 93.46 12.349 93.3365 12.7556H92.2591C92.3728 11.7678 93.2839 11.1342 94.5632 11.1342C95.9769 11.1342 96.7743 11.852 96.7743 13.0668V16.9964H95.703V16.1882H95.6149C95.2511 16.7784 94.604 17.1234 93.9211 17.0912C93.4424 17.142 92.9649 16.9839 92.6068 16.6559C92.2487 16.328 92.0433 15.8608 92.0414 15.37ZM95.6663 14.8785V14.3977L94.2892 14.4875C93.5126 14.5405 93.1604 14.8099 93.1604 15.3169C93.1604 15.8346 93.6007 16.1358 94.2061 16.1358C94.5645 16.1728 94.9223 16.0599 95.1975 15.8229C95.4728 15.5859 95.6419 15.2451 95.6663 14.8785ZM98.237 14.1183C98.237 12.301 99.153 11.1497 100.578 11.1497C101.297 11.1159 101.971 11.5091 102.307 12.1587H102.39V9H103.503V16.9964H102.437V16.0878H102.349C101.987 16.732 101.305 17.1185 100.578 17.0912C99.1432 17.0913 98.237 15.94 98.237 14.1183ZM99.3866 14.1183C99.3866 15.3382 99.9504 16.0722 100.893 16.0722C101.831 16.0722 102.411 15.3276 102.411 14.1233C102.411 12.9246 101.825 12.1694 100.893 12.1694C99.9565 12.1694 99.3866 12.9084 99.3866 14.1183ZM108.108 14.1183C108.011 13.0874 108.496 12.0898 109.358 11.5437C110.221 10.9977 111.313 10.9977 112.176 11.5437C113.038 12.0898 113.523 13.0874 113.426 14.1183C113.525 15.1503 113.041 16.1499 112.177 16.6971C111.313 17.2443 110.22 17.2443 109.357 16.6971C108.493 16.1499 108.009 15.1503 108.108 14.1183ZM112.282 14.1183C112.282 12.8716 111.732 12.1426 110.769 12.1426C109.801 12.1426 109.257 12.8716 109.257 14.1183C109.257 15.375 109.801 16.0984 110.769 16.0984C111.732 16.0984 112.282 15.37 112.282 14.1183ZM114.92 11.2451H115.991V12.1588H116.074C116.363 11.4861 117.039 11.0746 117.757 11.1341C118.313 11.0915 118.857 11.309 119.237 11.7251C119.617 12.1412 119.79 12.7109 119.709 13.2732V16.9964H118.596V13.5583C118.596 12.634 118.202 12.1744 117.379 12.1744C117.002 12.1565 116.636 12.3074 116.377 12.5875C116.118 12.8676 115.992 13.2491 116.032 13.6318V16.9964H114.92V11.2451ZM125.997 9.81325V11.2713H127.219V12.2274H125.997V15.1847C125.997 15.7872 126.241 16.051 126.795 16.051C126.936 16.0505 127.078 16.0418 127.219 16.0248V16.9702C127.019 17.0067 126.817 17.0261 126.614 17.0282C125.376 17.0282 124.883 16.5842 124.883 15.4753V12.2273H123.988V11.2713H124.883V9.81325H125.997ZM128.739 9H129.842V12.1694H129.93C130.233 11.4908 130.921 11.0788 131.65 11.1391C132.202 11.1084 132.74 11.3307 133.115 11.7453C133.491 12.16 133.665 12.7238 133.592 13.2832V16.9964H132.478V13.5632C132.478 12.6446 132.058 12.1793 131.272 12.1793C130.885 12.147 130.503 12.2905 130.23 12.5716C129.956 12.8528 129.818 13.2428 129.852 13.6374V16.9964H128.739L128.739 9ZM140.081 15.4435C139.769 16.5284 138.739 17.2293 137.637 17.1074C136.885 17.1277 136.163 16.8098 135.661 16.2381C135.16 15.6665 134.93 14.8988 135.032 14.1389C134.932 13.3768 135.161 12.6079 135.66 12.0314C136.159 11.455 136.879 11.1276 137.633 11.1341C139.202 11.1341 140.148 12.2274 140.148 14.0335V14.4295H136.166V14.4931C136.131 14.9199 136.274 15.342 136.56 15.6557C136.846 15.9694 137.248 16.1455 137.668 16.1407C138.212 16.2074 138.742 15.932 139.01 15.4435L140.081 15.4435ZM136.166 13.5901H139.014C139.043 13.1997 138.908 12.8154 138.644 12.5316C138.38 12.2479 138.01 12.0912 137.626 12.1002C137.238 12.0952 136.863 12.2506 136.588 12.5311C136.313 12.8116 136.161 13.1935 136.166 13.5901ZM39.3137 25.1667C39.3166 27.8461 40.9256 30.2643 43.4001 31.308C42.9242 32.8499 42.2068 34.3069 41.2746 35.6253C40.0226 37.493 38.7099 39.3178 36.6265 39.3515C34.602 39.3981 33.9217 38.1633 31.5997 38.1633C29.256 38.1633 28.5308 39.3178 26.5892 39.3981C24.605 39.4714 23.0886 37.4046 21.7911 35.5544C19.1978 31.7759 17.1784 24.9059 19.8857 20.2314C21.157 17.9531 23.534 16.5074 26.147 16.4232C28.1329 16.3825 29.9772 17.7608 31.1982 17.7608C32.3961 17.7608 34.6749 16.112 37.0255 16.358C39.2598 16.4278 41.3303 17.5441 42.6124 19.3702C40.5893 20.6107 39.3443 22.7983 39.3137 25.1667ZM35.4899 13.873C34.3878 15.2401 32.7178 16.0275 30.959 16.0095C30.8471 14.2954 31.4231 12.6072 32.56 11.3169C33.7113 10.009 35.3145 9.18179 37.05 9C37.1855 10.7649 36.6259 12.513 35.4899 13.873Z" fill="white"/>
</svg>
