<svg width="75" height="64" viewBox="0 0 75 64" fill="none" xmlns="http://www.w3.org/2000/svg">
<path opacity="0.1" d="M7.62939e-06 63.3689L1.87067 50.0404C5.61201 50.3522 8.65186 49.7286 10.9902 48.1697C13.3285 46.6888 14.9654 44.5063 15.9007 41.6224C16.7581 38.8164 16.914 35.5427 16.3684 31.8014H7.62939e-06V3.8147e-06H31.8014V31.8014C31.8014 43.0254 29.1902 51.5213 23.9679 57.2892C18.7457 63.1351 10.7564 65.1616 7.62939e-06 63.3689ZM42.3239 63.3689L44.1946 50.0404C47.9359 50.3522 50.9757 49.7286 53.3141 48.1697C55.6524 46.6888 57.2892 44.5063 58.2246 41.6224C59.082 38.8164 59.2378 35.5427 58.6922 31.8014H42.3239V3.8147e-06H74.1252V31.8014C74.1252 43.0254 71.5141 51.5213 66.2918 57.2892C61.0695 63.1351 53.0802 65.1616 42.3239 63.3689Z" fill="#171952"/>
</svg>
