<svg width="88" height="88" viewBox="0 0 88 88" fill="none" xmlns="http://www.w3.org/2000/svg">
<g clip-path="url(#clip0_98_889)">
<path d="M34.4316 3.17587C35.9026 3.31544 37.3859 3.31544 38.8569 3.17587C46.6205 2.37333 52.8313 -0.313081 60.9054 0.0358493C63.7721 0.0623181 66.5816 0.758402 69.0571 2.05821C74.7633 5.5475 72.9389 10.608 75.1515 15.3186C77.3726 18.683 79.7824 21.9432 82.3715 25.0879C87.0724 32.827 88.8439 41.7312 87.4181 50.4551C85.1666 66.3663 74.3752 76.3109 60.9443 84.6155C58.0363 86.2667 54.7761 87.3525 51.3732 87.8032C47.9704 88.2539 44.5001 88.0595 41.1859 87.2324C34.4975 85.8027 27.9121 84.0081 21.4664 81.8588C18.8998 80.7762 16.4449 79.4915 14.13 78.0202C11.6457 76.7641 9.16134 75.5428 6.63818 74.5309C-0.581928 71.251 -1.43594 69.9952 1.28131 63.54C2.7745 59.8197 3.13614 55.8083 2.32923 51.9204C-0.349199 33.3224 -4.50255 18.9476 12.9267 6.80487C15.3241 4.93643 18.1261 3.53392 21.156 2.68689C25.5761 2.09848 30.0799 2.26468 34.4316 3.17587Z" fill="#F6D3C7"/>
<mask id="mask0_98_889" style="mask-type:alpha" maskUnits="userSpaceOnUse" x="-1" y="0" width="89" height="89">
<path d="M34.4319 3.17599C35.9029 3.31557 37.3862 3.31557 38.8572 3.17599C46.6207 2.37346 52.8316 -0.312958 60.9057 0.0359713C63.7724 0.0624401 66.5818 0.758524 69.0573 2.05833C74.7635 5.54763 72.9391 10.6081 75.1517 15.3187C77.3729 18.6831 79.7826 21.9433 82.3718 25.088C87.0726 32.8272 88.8441 41.7313 87.4183 50.4553C85.1669 66.3664 74.3755 76.3111 60.9445 84.6156C58.0365 86.2668 54.7763 87.3526 51.3735 87.8033C47.9706 88.254 44.5004 88.0596 41.1861 87.2325C34.4978 85.8028 27.9124 84.0082 21.4666 81.8589C18.9 80.7764 16.4451 79.4916 14.1302 78.0203C11.6459 76.7642 9.16159 75.5429 6.63842 74.531C-0.581683 71.2511 -1.43569 69.9953 1.28155 63.5401C2.77475 59.8198 3.13639 55.8084 2.32947 51.9205C-0.348955 33.3225 -4.5023 18.9477 12.9269 6.805C15.3244 4.93655 18.1263 3.53404 21.1563 2.68702C25.5763 2.0986 30.0801 2.2648 34.4319 3.17599Z" fill="#FED9B3"/>
</mask>
<g mask="url(#mask0_98_889)">
<path d="M114.653 -11.6669C114.759 -11.854 114.831 -12.0547 114.868 -12.2615C114.868 -12.7985 113.977 -13.345 114.868 -13.882C114.868 -13.882 114.868 -14.2559 114.728 -14.3422C113.774 -15.1093 114.138 -16.0778 114.149 -16.9984C114.149 -18.1299 114.063 -19.2518 114.031 -20.3737C114.031 -20.5751 113.956 -20.9105 114.031 -20.9585C115.576 -21.6776 114.514 -22.6174 114.31 -23.5954L115.254 -23.7584C115.147 -24.0652 114.997 -24.4107 114.9 -24.7655C114.804 -25.1203 114.535 -25.7241 114.718 -25.8967C115.941 -26.8556 115.061 -28.7733 116.863 -29.4157C117.185 -29.5308 117.293 -30.3746 117.293 -30.8349C117.293 -32.0239 118.258 -32.59 119.599 -32.1777C119.782 -32.1202 120.179 -32.5898 120.533 -32.8679L119.653 -33.8942C120.243 -34.2106 120.801 -34.5558 121.412 -34.8531C122.024 -35.1503 122.904 -34.9874 122.571 -36.0901C122.496 -36.3586 123.472 -37.0487 124.095 -37.2789C124.717 -37.509 125.511 -38.7076 126.594 -37.7775C126.869 -38.0001 127.117 -38.2476 127.335 -38.5159C127.603 -38.9378 127.753 -39.4075 128 -39.839C128.047 -39.9064 128.11 -39.9644 128.184 -40.009C128.258 -40.0536 128.341 -40.0837 128.429 -40.098C130.382 -40.3089 130.382 -40.3569 131.583 -42.0157C132.063 -42.5552 132.61 -43.0441 133.214 -43.4733C134.566 -44.6431 135.982 -45.7652 137.259 -47.0022C138.332 -48.0761 139.308 -49.2746 140.327 -50.4253L140.091 -50.7132C140.52 -50.7132 140.949 -50.6553 141.582 -50.6266L141.829 -52.3238C143.945 -55.4949 145.785 -58.8065 147.333 -62.2293C148.406 -61.7978 149.318 -62.5651 149.221 -63.898C149.157 -64.7418 148.685 -65.5278 149.887 -66.247C150.326 -66.5059 150.026 -67.7526 150.101 -68.5389C150.1 -68.8014 150.194 -69.057 150.369 -69.2674C151.185 -69.977 150.959 -70.9264 151.217 -71.7606C151.507 -72.5836 151.899 -73.3748 152.386 -74.1195C152.451 -74.2345 152.976 -74.1195 153.459 -74.1195C152.182 -74.9537 152.622 -75.7303 153.33 -76.6221C154.363 -77.9499 155.052 -79.4668 155.347 -81.0621C155.561 -81.6641 155.895 -82.2263 156.334 -82.7209L157.654 -89.3274C156.174 -87.6206 155.508 -85.6839 153.588 -84.8017C152.891 -84.2072 152.225 -83.6795 151.625 -83.1138C151.105 -82.7315 150.693 -82.2453 150.423 -81.6946C150.354 -81.3052 150.17 -80.9397 149.888 -80.636C149.607 -80.3323 149.24 -80.1018 148.824 -79.9688C148.631 -79.9017 148.363 -79.7292 148.363 -79.6045C148.481 -78.886 148.481 -78.1557 148.363 -77.4372C147.977 -76.4783 147.054 -75.769 146.668 -74.8485C146.174 -73.717 144.308 -73.0646 145.262 -71.3481C145.354 -71.1611 145.401 -70.9591 145.399 -70.7549C145.397 -70.5507 145.347 -70.3492 145.251 -70.1636C145.156 -69.9779 145.018 -69.8121 144.846 -69.6776C144.674 -69.543 144.472 -69.4425 144.254 -69.3826C144.029 -69.3251 143.685 -69.0374 143.718 -68.9031C144.007 -67.3306 142.645 -66.199 142.376 -64.7703C142.151 -63.7976 141.79 -62.8541 141.304 -61.961C140.981 -61.513 140.623 -61.0867 140.231 -60.6856C139.997 -60.3792 139.863 -60.0205 139.844 -59.6499C139.844 -58.9595 140.145 -58.2211 138.825 -58.3745C138.597 -58.0942 138.463 -57.7616 138.439 -57.4156C138.439 -56.9841 138.739 -56.4087 137.774 -56.6389L137.441 -55.4885L137.924 -55.009C137.13 -54.8268 136.347 -54.6541 135.328 -54.4336L135.21 -53.139C134.201 -52.4869 133.064 -51.7388 131.905 -50.9909C131.845 -50.9537 131.795 -50.9053 131.758 -50.849C131.721 -50.7927 131.698 -50.73 131.69 -50.665C131.798 -49.3225 130.489 -48.8048 129.663 -48.0856C128.837 -47.3664 128.472 -45.9281 126.798 -46.1678C126.637 -44.7295 124.889 -44.6335 124.159 -43.6554C123.547 -42.8308 122.807 -42.0639 121.509 -42.2653C120.597 -42.4091 120.436 -41.8722 120.232 -41.3064L119.814 -39.9444C118.355 -40.7403 117.968 -40.568 117.25 -38.89C117.048 -38.4523 116.726 -38.0672 116.313 -37.7705C115.901 -37.4738 115.411 -37.275 114.889 -37.1927C115.125 -36.3489 114.793 -35.898 113.698 -35.524C112.814 -35.1618 112.111 -34.5197 111.724 -33.7214C111.038 -32.2447 110.759 -30.6148 110.136 -29.0997C109.9 -28.5244 109.182 -28.1405 108.602 -27.5364C109.364 -26.8555 109.128 -25.9637 108.42 -25.1007C108.048 -24.6536 107.821 -24.1241 107.762 -23.5697C107.704 -23.0152 107.816 -22.4572 108.087 -21.9558C108.152 -21.8023 107.926 -21.5627 107.883 -21.3518C107.67 -20.5135 107.508 -19.6652 107.401 -18.8108C107.401 -18.6478 107.926 -18.4365 108.28 -18.2063L107.658 -17.3242C108.549 -16.6338 108.559 -16.212 107.787 -15.2435C107.732 -15.1621 107.698 -15.071 107.687 -14.9766C107.676 -14.8822 107.688 -14.7869 107.723 -14.6971C108.302 -13.5369 108.913 -12.3858 109.503 -11.2352C109.666 -10.9732 109.775 -10.6876 109.825 -10.3915C109.922 -9.08736 109.933 -7.78319 110.051 -6.4791C110.112 -6.11879 110.295 -5.78399 110.576 -5.52021C110.795 -5.34687 110.972 -5.13562 111.097 -4.89889C111.221 -4.66217 111.29 -4.405 111.299 -4.14367C111.308 -3.88233 111.257 -3.62221 111.149 -3.37908C111.042 -3.13595 110.88 -2.91523 110.673 -2.73014C111.274 -0.706875 111.95 1.25915 110.866 3.33036C110.362 4.28926 110.19 5.45915 109.793 6.48516C109.289 7.70295 108.72 8.89196 108.119 10.0618C107.723 10.8097 107.122 11.481 106.746 12.2385C106.603 12.5852 106.534 12.9526 106.542 13.322C105.899 14.0028 105.233 14.4057 105.083 14.9139C104.804 15.8728 103.849 15.3165 103.227 15.7384L103.839 16.6973L102.412 18.6151L102.315 18.4713C101.768 18.9604 100.749 19.43 100.76 19.9574C100.76 21.2423 99.8047 21.6068 98.9464 22.1725C98.3349 22.5753 97.7341 23.0354 98.9464 23.7162C97.38 23.8888 98.3349 26.2573 96.275 25.8737C95.931 26.5419 95.5255 27.1834 95.0626 27.7915C94.4082 28.549 93.5499 29.1629 92.9169 29.9013C92.2839 30.6396 91.5436 31.608 90.8569 32.4614C90.7818 32.5573 90.6531 32.7297 90.5673 32.7105C89.076 32.49 88.7005 33.7366 88.4752 34.4078C88.3883 34.8446 88.1175 35.2352 87.7184 35.4992C87.3193 35.7631 86.8223 35.8804 86.3294 35.8269C85.9314 35.8995 85.548 36.0258 85.1922 36.201L85.514 36.9684C84.9132 37.9273 84.4412 38.6654 84.0013 39.3558C83.7438 39.701 83.2824 39.9312 83.0142 40.3147C82.0057 41.6188 81.0831 42.9899 80.0316 44.2748C79.3343 45.1378 78.4652 45.8954 77.4675 46.9118C77.2422 47.4775 76.9418 48.3887 76.5233 49.2613C76.3517 49.6065 75.8152 49.8174 75.6543 50.1626C75.1608 51.2365 73.9914 51.9843 73.9914 53.3651C73.9914 53.9309 73.0043 54.4871 72.3928 55.1392C73.1545 55.8296 72.6825 56.6447 72.3928 57.6324C72.1031 58.62 71.1268 59.7034 71.5345 61.0363C71.5829 61.8423 71.4961 62.6504 71.277 63.4335C71.2019 64.6801 71.2019 65.9366 71.1697 67.1928L71.1697 68.794C70.9444 68.8803 70.7083 68.9664 70.483 69.0623C70.8196 69.195 71.1397 69.3591 71.4379 69.5516C71.6847 69.7242 72.0387 70.0214 71.9958 70.2132C71.5238 72.4186 73.0687 74.116 73.7017 76.0625C73.9055 76.7913 73.9806 77.5486 74.163 78.287C74.163 78.4308 74.4527 78.5361 74.8175 78.8334C74.1309 79.7923 75.3003 79.706 76.1478 79.7923C75.8797 80.2343 75.7877 80.7451 75.8872 81.24C75.9866 81.7349 76.2715 82.1848 76.695 82.5159C77.1551 82.8128 77.5038 83.2271 77.6953 83.7046C77.8868 84.1822 77.9122 84.7006 77.7679 85.1912C77.5641 85.9583 78.079 86.8689 78.2185 87.7223C78.315 88.3648 78.2829 89.0168 78.3472 89.6401C78.3472 90.1388 78.5081 90.5993 78.594 91.1267C78.594 91.4335 78.8515 91.8075 78.7227 92.028C77.8429 93.4855 78.079 94.9909 78.3257 96.506C78.3257 96.669 78.0897 96.8512 78.079 97.0238C78.079 97.6854 77.1671 98.2511 77.9503 99.0661C78.1434 99.2675 77.6499 100.399 77.1671 100.667C75.7938 101.425 76.5234 101.895 77.1671 102.365L76.0942 106.382C76.0942 106.526 76.1479 106.785 76.0942 106.833C74.1094 107.955 74.6994 110.208 73.4442 111.675C73.176 111.982 73.648 112.893 73.3798 113.095C72.3069 113.862 72.3069 115.012 71.7705 115.895C71.1835 116.588 70.8132 117.409 70.6976 118.273C70.6338 118.678 70.4395 119.058 70.1385 119.366C69.8376 119.674 69.4429 119.897 69.0025 120.008C68.4553 120.804 68.0262 121.475 67.5541 122.118C66.7589 123.355 65.8473 124.529 64.829 125.628C64.2282 126.193 64.4857 127.66 62.6082 127.21L63.1231 128.015L58.1665 132.858L57.5442 132.589C57.4798 132.647 57.3725 132.704 57.3618 132.771C57.3242 133.147 57.1868 133.509 56.961 133.827C56.7352 134.146 56.4275 134.412 56.0636 134.603C53.9179 136.089 52.1798 138.026 50.0555 139.541C48.4784 140.653 47.6738 142.561 45.4529 143.022C45.0345 143.118 44.8414 143.875 44.3801 144.192C43.2106 145.083 41.9875 145.898 40.7644 146.733C39.5413 147.567 38.1252 148.651 36.709 149.418C35.6361 150.032 34.7456 151.537 32.8252 150.626C33.146 150.942 33.5059 151.225 33.8981 151.47C34.9709 151.987 37.1167 151.546 38.0608 150.846C38.8118 150.29 39.7452 149.888 40.5499 149.418C41.6871 148.689 42.7815 147.893 43.8973 147.135C44.2084 146.924 44.5517 146.58 44.895 146.56C46.6223 146.512 47.2124 144.988 48.5428 144.393C49.7727 143.678 50.9005 142.831 51.9009 141.871L53.6711 140.577C54.4865 140.692 54.98 140.279 55.1946 139.234C55.3029 138.959 55.483 138.712 55.72 138.511C55.957 138.311 56.244 138.165 56.5572 138.083C58.2952 137.805 58.542 136.166 59.926 135.466C61.0632 134.919 61.8142 133.711 62.6511 132.733C62.8764 132.483 62.6511 131.697 63.2841 132.531C63.2841 132.531 63.6167 132.455 63.6274 132.388C63.7669 131.764 63.8849 131.16 64.8397 131.266C64.6251 130.585 65.183 130.451 65.6551 130.086C66.6372 129.239 67.5281 128.311 68.3159 127.315C68.4768 127.133 68.3159 126.701 68.4554 126.519C70.1578 124.887 71.5041 122.984 72.4249 120.91C72.9682 120.053 73.6197 119.255 74.3668 118.531C75.0106 117.678 75.5363 116.748 76.1586 115.885C76.3088 115.684 76.6521 115.597 76.8345 115.492C76.7896 115.047 76.8332 114.6 76.9632 114.169C77.5641 113.114 78.3687 112.155 78.9373 111.091C79.1936 110.476 79.3385 109.828 79.3665 109.173C79.4318 107.962 79.5967 106.757 79.86 105.568C80.0102 105.069 80.9328 104.772 81.2225 104.609C81.099 103.911 81.0738 103.202 81.1474 102.499C81.7053 100.418 82.3813 98.3564 83.0035 96.2948C83.0358 96.1266 83.0358 95.955 83.0035 95.7868C82.805 94.0942 82.805 92.3876 83.0035 90.695C83.0886 89.5395 83.2533 88.39 83.497 87.2527C83.9476 86.0637 82.8104 85.9867 82.231 85.5072L82.6172 85.3827C82.2926 84.2565 81.8546 83.1589 81.3084 82.1034C80.7374 81.2131 80.3486 80.2389 80.1604 79.2267C79.6106 77.219 78.8934 75.2508 78.0146 73.3389C77.9395 73.1376 77.8859 72.9363 77.8323 72.735C77.5855 71.7761 77.2851 70.8652 77.1241 69.9159C77.0686 69.2424 77.0686 68.5662 77.1241 67.8927C75.2466 67.1927 77.4353 65.2269 76.4482 64.1433L78.3687 56.6641C79.1304 56.9326 79.8278 57.3349 79.5274 55.9637C79.3557 55.2349 79.978 54.3624 80.2999 53.4035C81.8126 53.346 81.2869 51.7831 81.9413 50.9393C83.0142 49.5298 82.9498 47.5542 84.763 46.3939C85.943 45.5039 87.0211 44.5116 87.9816 43.4311C88.1828 43.1613 88.3316 42.8631 88.4215 42.549C88.4831 42.3416 88.5808 42.1444 88.7112 41.9642C89.8913 40.8902 91.5328 39.9984 92.1444 38.7134C92.6164 37.7066 93.7966 37.3612 94.1185 36.1434C94.3559 35.5081 94.7945 34.9479 95.381 34.5309C95.9675 34.1139 96.6769 33.8583 97.423 33.7944C97.6795 33.7314 97.9132 33.61 98.1013 33.4419C98.2894 33.2738 98.4254 33.0648 98.4958 32.8355C98.5799 31.9427 98.9203 31.0845 99.4842 30.3437C100.048 29.6029 100.816 29.0045 101.714 28.6067C101.865 28.5299 101.929 28.0891 101.843 27.8781C101.575 27.2069 101.575 27.1494 102.251 27.1782C102.755 27.1442 103.235 26.9677 103.621 26.6748C104.006 26.3819 104.278 25.9875 104.397 25.5478C104.7 24.9526 105.093 24.3974 105.566 23.8983C106.124 23.1216 106.639 22.3354 107.197 21.5587L106.875 21.2904L108.066 21.2904C107.937 20.4562 107.776 19.6795 109.021 19.3726C109.225 19.3726 109.385 18.7493 109.364 18.4137C109.358 17.7702 109.571 17.1403 109.973 16.6064C110.375 16.0726 110.948 15.6596 111.617 15.4219C111.819 15.3045 111.979 15.1382 112.078 14.9424C111.209 14.137 112.272 13.5713 112.422 12.9193C112.651 12.343 112.981 11.8027 113.398 11.318C113.517 11.1626 113.608 10.9907 113.666 10.8095C114.042 9.3712 114.16 7.78929 116.638 7.48245C115.168 6.67698 115.308 6.04377 116.316 5.21912C116.501 5.07367 116.65 4.8963 116.756 4.69754C116.861 4.49878 116.92 4.2829 116.929 4.06311C116.938 3.84332 116.897 3.62445 116.808 3.41932C116.72 3.21419 116.585 3.02727 116.413 2.87011C116.341 2.80215 116.286 2.72227 116.249 2.63507C116.212 2.54787 116.195 2.45479 116.198 2.36164C116.476 1.63359 116.702 0.890728 116.874 0.137173C116.981 -0.706654 116.767 -1.58878 116.874 -2.4422C116.981 -3.2956 116.177 -4.22564 117.303 -4.98317C117.475 -5.10782 117.207 -5.94243 116.938 -6.32599C116.127 -7.50616 115.721 -8.87261 115.769 -10.2571C115.769 -10.7461 115.286 -11.2163 115.018 -11.7436L114.653 -11.6669Z" fill="#FAEFE4"/>
<path d="M35.4267 -23.8035C35.1269 -23.3816 34.902 -22.6721 34.3558 -22.4228C33.5974 -21.9774 32.6828 -21.7968 31.7855 -21.9147C31.618 -21.9917 31.4309 -22.0276 31.2429 -22.0192C31.0548 -22.0107 30.8726 -21.9581 30.7145 -21.8665C29.3223 -21.224 27.6837 -21.7705 26.3343 -21.2719C25.1228 -20.9161 23.8333 -20.8273 22.5753 -21.013C22.4253 -21.013 22.2754 -20.831 22.1148 -20.7447C21.0915 -20.1941 20.037 -19.6918 18.9554 -19.2394C18.6127 -19.1051 17.8845 -18.3664 17.5846 -19.3733C17.572 -19.391 17.5546 -19.4058 17.534 -19.4159C17.5134 -19.4259 17.4902 -19.4309 17.4668 -19.4309C15.946 -18.9898 14.436 -18.5487 12.8724 -18.0885C11.9835 -19.172 9.47744 -18.4527 8.58855 -17.4555C8.22442 -17.0431 7.67821 -16.4965 7.16415 -16.4965C5.69527 -16.3165 4.29403 -15.8304 3.07309 -15.0774C2.69165 -14.9322 2.27434 -14.8797 1.8629 -14.9243C1.47014 -14.9551 1.08019 -15.0095 0.695591 -15.0872L0.695591 -14.1859C-0.118339 -13.8982 -0.964412 -13.62 -1.79976 -13.3131C-1.9604 -13.2556 -2.1639 -13.0062 -2.21745 -13.035C-3.7275 -13.8501 -3.63108 -12.6038 -3.85598 -11.8654C-4.48785 -12.1243 -4.98051 -12.3158 -5.62309 -12.5748C-5.83728 -10.0241 -8.00059 -8.92134 -9.81051 -7.55969C-9.9176 -7.48298 -10.1104 -7.37735 -10.1854 -7.40611C-11.8668 -8.2979 -11.3848 -6.898 -11.5669 -6.32266C-11.9096 -5.24869 -12.006 -4.08841 -13.3018 -3.44594C-13.5267 -3.34045 -13.6124 -2.94725 -13.7195 -2.66917C-14.3849 -0.53881 -15.3266 1.51434 -16.5254 3.44856C-16.7396 3.7554 -16.6432 4.23484 -16.7075 4.62799C-16.7932 5.17457 -16.911 5.72135 -16.9752 6.27752C-17.0288 6.55354 -17.0288 6.8354 -16.9752 7.11141C-16.6734 8.09676 -16.4479 9.09997 -16.3005 10.1132C-16.3648 10.9214 -16.5373 11.7198 -16.8146 12.4912C-16.8681 12.6926 -16.9966 13.0377 -16.911 13.0952C-15.3045 14.1596 -17.4357 16.1635 -15.6365 17.1607C-16.3434 17.9183 -15.7222 18.6377 -15.4866 19.3281C-15.1439 20.287 -14.587 21.198 -14.2336 22.2048C-13.8266 23.3268 -13.5696 24.4967 -13.1626 25.6186C-12.7556 26.7405 -13.1626 28.1021 -11.9952 29.1569C-11.4383 29.6651 -11.5134 30.7197 -11.2349 31.506C-10.7101 32.9635 -10.0997 34.383 -9.60703 35.8501C-9.39714 36.5752 -9.26801 37.3173 -9.22149 38.0652C-9.09298 39.3214 -8.94303 40.5869 -8.93232 41.8526C-8.93232 42.8115 -9.20008 43.8568 -9.15724 44.8445C-9.09298 46.1199 -9.00729 46.1198 -10.0782 46.6472C-9.56419 48.4691 -11.4169 49.524 -11.8132 51.0966C-11.9627 51.4949 -12.1527 51.8803 -12.3808 52.2475C-13.6874 53.4174 -15.1225 54.7502 -16.6647 56.0255C-17.7356 56.8886 -19.2135 57.2624 -19.8775 58.509C-21.6018 58.2788 -22.0194 59.861 -23.2082 60.4268C-23.8936 60.7624 -24.5576 61.1269 -25.2216 61.5009C-26.3568 62.1433 -27.3635 63.083 -28.9378 62.6419C-29.5054 64.3871 -31.401 62.3544 -32.0222 63.4955C-32.654 63.2653 -33.1896 63.064 -33.8 62.8339L-34.4105 61.0308L-34.9352 61.0308C-35.0637 62.2965 -35.235 63.5531 -35.2993 64.8093C-35.3636 66.0654 -34.1534 65.4038 -33.6715 65.5093C-31.86 65.9126 -29.9596 65.8624 -28.1775 65.3651C-26.9673 65.0007 -25.7785 64.5788 -24.5576 64.224C-23.9258 64.0322 -23.251 63.927 -22.2658 63.716C-21.7517 63.3516 -20.8842 62.7569 -20.0061 62.1241C-19.4813 61.7597 -18.9351 61.3952 -18.3996 61.0692C-17.8641 60.7431 -17.4465 60.6569 -17.0074 60.4076C-15.6794 59.6309 -14.3407 58.8733 -13.0876 58.0103C-12.595 57.6747 -12.3594 57.0517 -11.9524 56.601C-11.5455 56.1503 -11.16 55.8815 -10.5816 55.3733C-10.9672 54.1651 -9.36069 54.6157 -8.5896 54.1363C-8.78237 53.5705 -9.38216 52.7365 -7.90424 52.8707C-7.90424 51.9118 -6.31922 51.6337 -6.83328 50.4734C-6.92967 50.2625 -6.43701 49.6967 -6.0836 49.5145C-5.21612 48.9775 -4.59496 48.4694 -5.40889 47.4913C-5.49699 47.3764 -5.55602 47.2453 -5.58191 47.1079C-5.60781 46.9704 -5.59996 46.8298 -5.55884 46.6954C-5.01011 45.7061 -4.52036 44.6915 -4.09163 43.6557C-4.01087 42.9357 -4.04692 42.209 -4.1987 41.4982C-4.1987 40.779 -4.71276 40.0021 -3.93096 39.4268C-4.24767 39.0756 -4.49076 38.6761 -4.64848 38.2473C-4.87338 37.0583 -4.64847 35.7156 -5.17324 34.68C-5.66049 33.6927 -5.93659 32.6326 -5.98718 31.5542C-6.08357 30.4323 -7.05817 29.5502 -6.82256 28.2748C-6.72617 27.6611 -7.66859 26.9132 -8.06484 26.1941C-8.17194 26.0214 -7.95776 25.7144 -7.94705 25.465C-7.93634 25.2157 -7.88281 24.7748 -8.03275 24.6981C-9.3179 24.0365 -8.92164 22.7132 -9.49995 21.8214C-9.66801 21.4021 -9.78641 20.9681 -9.85332 20.5268C-9.29643 20.0377 -8.88952 19.3951 -9.9819 18.6567C-10.2711 18.4649 -10.164 17.8513 -10.3781 17.4965C-10.6994 16.9403 -9.61778 15.9911 -10.9886 15.7322C-10.9886 15.7322 -11.0957 15.4062 -11.0529 15.272C-10.6566 14.2459 -11.3741 13.3541 -11.3955 12.3952C-11.3364 12.0631 -11.2247 11.7402 -11.0635 11.4363C-10.9888 11.2785 -10.9488 11.1091 -10.9457 10.9377C-11.1385 9.72946 -11.4063 8.5212 -11.5026 7.30338C-11.5026 6.94859 -11.085 6.56484 -10.8279 6.15251L-11.2135 4.97307L-10.0247 4.45522C-10.222 4.1514 -10.3835 3.83003 -10.5067 3.49631C-10.8922 1.91412 -9.43565 0.936029 -8.92159 -0.339316C-8.72459 -0.888053 -8.38504 -1.38707 -7.93077 -1.79547C-7.47651 -2.20387 -6.9205 -2.50973 -6.30845 -2.68836C-5.89078 -2.8322 -5.68733 -3.46513 -5.14115 -4.18432C-5.56953 -5.14323 -4.56283 -5.91992 -3.20271 -6.32266C-2.08089 -6.7651 -1.05771 -7.38574 -0.182606 -8.15433C0.588486 -8.7009 1.28464 -9.39104 2.4627 -9.065C2.62334 -9.065 2.89103 -9.40059 3.14806 -9.50606C3.62999 -9.70743 4.14408 -9.87073 4.64743 -10.0337C5.15078 -10.1968 5.47208 -10.2736 5.99685 -10.427C6.69016 -10.6259 7.35231 -10.9028 7.96737 -11.2516C8.28519 -11.5517 8.68914 -11.7675 9.13494 -11.8757C9.58075 -11.984 10.0513 -11.9806 10.4949 -11.8654C11.043 -11.8336 11.5925 -11.9019 12.1099 -12.0667C12.6274 -12.2316 13.1019 -12.4896 13.5043 -12.8243C14.2218 -13.3997 14.6287 -13.2558 15.3248 -13.064C15.974 -12.951 16.6342 -12.896 17.2954 -12.9006L17.4454 -13.5337C18.0451 -13.5912 18.6984 -13.5336 18.7626 -13.6774C19.5123 -15.4993 21.1723 -14.6366 22.5003 -14.7421C22.6181 -14.7421 22.7788 -14.5982 22.8752 -14.627C24.2246 -15.0201 25.5632 -15.4322 27.0304 -15.8733L27.748 -15.1256C28.4227 -15.4708 29.1188 -15.7969 29.7721 -16.1805C30.4254 -16.5641 30.843 -16.6983 31.3357 -15.9408C31.4719 -15.8158 31.6437 -15.7262 31.8324 -15.6823C32.0211 -15.6384 32.2197 -15.6415 32.4066 -15.6912C33.0704 -16.1187 33.7035 -16.5833 34.3023 -17.0818L34.9877 -16.2376L35.9194 -17.0912C37.1831 -16.7364 37.6758 -16.8801 39.1323 -18.1938C39.4429 -17.2349 39.807 -17.0435 40.9315 -17.6189C41.9372 -18.1173 43.0199 -18.4789 44.1444 -18.6925C44.9797 -18.8555 45.9757 -18.4435 46.9181 -18.7983C47.2628 -18.9718 47.649 -19.0685 48.0442 -19.0802C48.4394 -19.0918 48.8319 -19.018 49.1885 -18.8652C49.3045 -18.8515 49.4225 -18.8646 49.5312 -18.9032C49.6399 -18.9418 49.7358 -19.0046 49.8097 -19.0858C50.3987 -20.8789 52.1659 -20.2078 53.4617 -20.6009C54.7576 -20.9941 56.5996 -20.8312 57.7455 -22.1545C58.1525 -22.6339 59.2342 -22.605 59.8875 -22.9598C61.4404 -23.7749 62.9397 -24.6664 64.439 -25.5678C65.1566 -26.0089 65.8098 -26.5269 66.3988 -26.9776L67.3199 -26.4597C67.4591 -26.6994 67.5769 -26.9584 67.7375 -27.1981C67.9159 -27.5152 68.1471 -27.806 68.423 -28.061C68.8951 -28.4096 69.3924 -28.7299 69.9116 -29.0199C70.5863 -28.3487 70.5863 -28.3488 71.6144 -30.0556C72.1606 -29.9789 72.8246 -29.6913 73.0923 -29.8735C73.3601 -30.0557 73.4137 -30.7366 73.6064 -31.1681C73.7992 -31.5996 73.9277 -31.9258 74.2169 -32.0217C74.897 -32.1877 75.5871 -32.3186 76.2838 -32.4145C76.4873 -32.4624 76.8086 -32.7021 76.7979 -32.8364C76.6908 -34.7542 78.4257 -35.7131 79.486 -36.9309C79.5824 -37.046 79.9143 -36.979 80.1393 -37.0269C80.3828 -37.0723 80.6174 -37.15 80.8354 -37.2573C80.5462 -38.7627 81.8206 -38.2161 82.5917 -38.3599L85.1406 -42.1955L85.0121 -42.1955L86.897 -44.1134L87.7324 -43.8352C87.7582 -43.9653 87.7761 -44.0967 87.7859 -44.2285C87.7859 -46.2135 87.5931 -47.1049 89.9278 -49.1762C90.2812 -49.5022 90.0563 -50.3461 90.0991 -51.094C90.2277 -51.1707 90.5383 -51.3627 90.8167 -51.5449C90.8167 -52.1106 89.5958 -52.9833 91.3308 -53.0025C91.3192 -53.1173 91.3192 -53.2327 91.3308 -53.3475C91.6092 -55.0448 91.877 -56.7419 92.1875 -58.4296C92.1875 -58.6597 92.391 -58.9955 92.5945 -59.0626C94.0938 -59.5996 93.8582 -61.3256 93.6655 -61.7188C93.0764 -62.8215 93.5369 -63.771 93.569 -64.7491C93.7002 -65.3274 93.9315 -65.8837 94.2545 -66.3981C94.3425 -66.5269 94.4109 -66.6657 94.458 -66.8106C94.45 -67.6506 94.5073 -68.4902 94.6293 -69.3231C95.1113 -71.3464 95.6039 -73.3791 96.2893 -75.3448C96.7326 -76.1993 97.2978 -76.9986 97.9707 -77.7229C96.7713 -80.0243 96.7927 -80.3119 98.367 -81.0407C96.8784 -82.0475 98.292 -82.9588 98.6454 -83.7451C99.0631 -84.704 99.363 -85.9791 100.787 -86.3723C100.874 -86.3961 100.953 -86.4369 101.02 -86.4916C101.087 -86.5464 101.139 -86.6137 101.173 -86.6888C101.548 -89.1052 104.172 -90.39 104.761 -92.7489C103.882 -92.3174 102.994 -91.7901 102.051 -91.4449C101.312 -91.1477 100.477 -91.023 99.7271 -90.7449C98.7733 -90.5403 97.8813 -90.1508 97.1139 -89.6039C96.0375 -88.3417 95.064 -87.0119 94.2009 -85.6245C93.8336 -85.0272 93.4147 -84.4562 92.9479 -83.9174C92.8408 -82.8051 92.8837 -81.6926 91.727 -80.705C91.2856 -80.2577 90.9633 -79.7269 90.7846 -79.1519C90.7271 -78.3861 90.7703 -77.6168 90.9131 -76.86C90.9131 -76.5915 90.9131 -76.2078 90.7203 -76.0832C89.735 -75.4024 89.9278 -74.5201 90.0778 -73.6283C90.0778 -73.3502 90.3134 -72.986 90.1848 -72.8038C89.2424 -71.4997 89.5744 -69.9269 88.9532 -68.5365C88.7283 -68.0187 88.9532 -67.3382 88.889 -66.7629C88.7283 -66.0245 88.964 -64.9985 87.5824 -64.8451C87.5552 -64.3407 87.6351 -63.8361 87.818 -63.3585C87.5503 -62.4859 87.3254 -61.6037 87.0041 -60.7407C86.7899 -60.1461 86.4579 -59.5902 86.1902 -59.0148C86.0617 -58.7559 85.7832 -58.4203 85.8796 -58.2572C86.4043 -57.3463 85.7082 -57.2982 84.9586 -57.2024C85.4405 -56.3489 86.1902 -55.5624 85.5262 -54.5747L83.8341 -52.0819C83.8341 -52.0244 83.6627 -52.0051 83.6627 -51.9476L82.7952 -47.5847C80.5355 -47.7573 80.4712 -45.8587 79.5823 -44.708C78.6934 -43.5573 77.9652 -42.3681 77.1191 -41.2174C76.7174 -40.6431 76.2431 -40.1123 75.7055 -39.6353C75.0194 -39.1204 74.3045 -38.6369 73.5636 -38.1871C73.3065 -38.0145 73.0816 -37.8034 72.7711 -37.5541L72.3534 -38.197C71.1432 -37.4011 71.2825 -35.6748 69.6546 -35.0323C68.5301 -34.5816 67.5127 -33.9583 66.2382 -33.335L65.4029 -34.0448L64.9531 -32.3667C64.3618 -32.3718 63.7847 -32.2041 63.3093 -31.8892C62.8339 -31.5742 62.4861 -31.129 62.3185 -30.6212C62.291 -30.5634 62.2485 -30.5124 62.1945 -30.4723C62.1405 -30.4323 62.0765 -30.4047 62.0079 -30.3913C59.7482 -30.3434 58.538 -28.4737 56.5567 -27.9079C55.6893 -27.6682 54.8646 -27.3038 53.9543 -26.949L53.3546 -27.5338C53.1404 -27.1982 52.9905 -26.9106 52.7977 -26.6517C52.4336 -26.1722 52.198 -25.5874 51.3091 -26.249C50.613 -26.7668 48.9744 -25.7791 48.6959 -24.9544C47.9677 -24.9065 47.0788 -25.0789 46.7896 -24.7816C45.9114 -23.8227 45.2153 -24.2541 44.3157 -24.6473C44.0858 -24.681 43.8501 -24.662 43.6309 -24.5915C43.4117 -24.5211 43.2161 -24.4015 43.0627 -24.2446C42.5165 -23.0747 41.6062 -23.286 40.6209 -23.5928C40.5352 -23.5928 40.4174 -23.66 40.3531 -23.5928C39.3574 -23.1172 38.2646 -22.8268 37.1403 -22.7393C36.7547 -22.7393 36.2299 -22.2693 36.0693 -22.3844C35.9087 -22.4994 35.6838 -23.2665 35.4267 -23.8035Z" fill="#FAEFE4"/>
<path d="M-3.84272 97.2437C-3.27571 97.033 -2.43051 96.7458 -1.60673 96.401C-0.782959 96.0563 -0.108967 95.7019 0.661314 95.3859C1.02506 95.2326 1.45296 95.2132 1.8274 95.0791C2.53349 94.8301 3.21819 94.514 3.96707 94.265C4.36659 94.1826 4.75974 94.0775 5.14393 93.9494C6.10679 93.4514 7.02685 92.9054 7.95761 92.3787C8.0325 92.3308 8.15017 92.2638 8.15017 92.1968C8.15017 90.5784 9.8619 90.5303 10.8782 89.8312C11.1243 89.6588 10.9745 88.8737 11.1778 88.8258C12.7504 88.3183 12.5365 87.0638 12.8681 85.9529C13.0714 85.3017 13.8203 84.8134 14.2268 84.191C14.5788 83.6036 14.8861 82.9953 15.1469 82.371C15.7032 81.1452 16.2916 79.9196 16.7838 78.6746C16.8387 78.2643 16.8387 77.8495 16.7838 77.4392C16.8586 76.3666 16.88 75.2844 17.0084 74.2118C17.201 72.5934 17.4042 70.9655 17.6931 69.3567C17.8547 67.8095 17.7025 66.2489 17.2438 64.7503C17.0455 63.6199 16.9703 62.4751 17.0191 61.3316C17.0191 61.1114 17.4899 60.9007 17.8536 60.5942L16.7838 59.7895C16.9549 58.6786 17.1796 57.5773 17.2758 56.4569C17.3721 55.3364 17.3293 54.3502 17.2758 53.2968C17.2805 53.0697 17.2016 52.8475 17.0512 52.6646C15.9814 51.5729 16.6661 50.4815 17.0512 49.3993C17.0512 49.2365 17.34 49.0354 17.2866 48.9588C16.3023 47.417 17.4684 46.0857 17.7787 44.6971C17.9606 43.8639 17.9071 42.983 18.0462 42.1402C18.1531 41.5752 18.4955 41.0485 18.5811 40.4835C18.8378 38.8172 18.9234 37.1413 19.2551 35.4942C19.3835 34.8813 20.1323 34.383 20.4426 33.7701C20.6489 33.159 20.8203 32.539 20.9561 31.9123C21.1914 31.1941 21.5873 30.9548 21.9617 31.5677L24.2833 26.1089C24.7326 26.3866 25.0429 26.5688 25.5243 26.8561C25.4464 26.4955 25.4464 26.1248 25.5243 25.7643C25.6634 25.5057 26.0806 25.3619 26.3802 25.1704C26.6797 24.9789 26.8509 24.9886 26.9044 24.8449C27.2467 23.8873 28.5733 23.5999 28.7766 22.3741C28.8943 21.6942 30.2422 21.1769 31.0339 20.5832C31.1623 20.4874 31.28 20.3727 31.4084 20.2577L32.0717 20.8516C32.2215 20.6026 32.3926 20.3536 32.5317 20.095C32.6708 19.8365 32.7778 19.3001 32.9169 19.3001C34.1151 19.3001 34.7356 18.3425 35.6663 17.9786C36.8004 17.5381 38.3195 17.7773 39.3466 17.2314C41.2081 16.2738 43.2836 16.7335 45.2734 16.111C45.7121 17.0687 46.5359 17.0689 47.4131 16.523C48.055 16.1016 48.483 16.3219 49.157 16.523C51.184 16.9685 53.243 17.2885 55.3192 17.4806C55.8648 18.8309 55.8649 18.8308 57.0952 18.0455C57.5027 18.7299 58.0819 19.3207 58.7873 19.771C59.4926 20.2213 60.305 20.5187 61.1606 20.6407C61.3993 20.6793 61.6258 20.7645 61.8239 20.8899C62.4551 21.3496 63.0862 21.8474 63.6854 22.3358C64.2448 22.8737 64.8453 23.3764 65.4827 23.8396C66.285 24.3376 67.2158 24.6726 68.0717 25.1035C68.3231 25.2463 68.5563 25.4133 68.7671 25.6015C70.4253 26.3293 71.9766 26.9134 73.3995 27.6412C74.8224 28.369 76.1169 29.1737 77.6788 29.7866C76.2239 28.3693 74.7475 26.9901 73.3995 25.5248C72.9289 24.9555 72.6005 24.3024 72.4366 23.6095C71.5807 23.6095 71.0244 23.2839 70.9709 22.1731C70.9709 21.8475 69.9867 21.6176 69.6229 21.2154C68.4033 19.846 66.6595 19.1085 65.1403 18.0839C64.4668 17.518 63.851 16.8993 63.3002 16.2354C63.1238 16.1081 62.9296 16.0022 62.7225 15.9198C61.5778 15.326 60.08 15.2969 59.3098 14.0999C59.2456 13.9945 58.6143 14.1862 58.6143 14.033C58.133 13.638 57.5839 13.3147 56.9882 13.0753C55.9183 12.8264 55.0304 12.5489 54.9448 11.3901C54.9448 11.3422 54.8057 11.2461 54.7415 11.2461C53.1261 11.2461 51.532 11.2461 49.9059 11.2461C49.7989 11.2461 49.6812 11.4857 49.5956 11.4761C48.2797 11.3612 46.9745 11.2177 45.6586 11.0932C45.3359 11.0546 45.0106 11.0354 44.6851 11.0357C44.2332 11.0567 43.7831 11.1016 43.337 11.1699C42.8021 11.256 42.2672 11.3708 41.7323 11.457C41.1974 11.5432 40.6625 11.6197 40.1275 11.658C39.9243 11.658 39.6889 11.5049 39.5071 11.5528C37.6349 11.9742 35.7733 12.4048 33.9225 12.8645C33.6729 12.9251 33.454 13.0606 33.302 13.2479C33.2033 13.4431 33.0607 13.6179 32.8828 13.7613C32.705 13.9047 32.4959 14.0132 32.2688 14.0807C32.0416 14.1482 31.8013 14.1729 31.563 14.1532C31.3247 14.1334 31.0936 14.0698 30.8842 13.9661C30.1494 14.2761 29.4595 14.6652 28.8301 15.1248C28.1882 15.7186 27.7603 16.5231 27.1932 17.1552C26.8295 17.5382 26.6155 18.6874 25.6313 17.6148C25.4751 17.6095 25.3195 17.633 25.1741 17.684C25.0286 17.7351 24.8965 17.8124 24.7861 17.9113C24.0265 18.869 23.3846 19.9033 22.6464 20.861C22.3897 21.1866 21.8655 21.3401 21.2557 21.6849C21.1776 22.5082 20.909 23.3078 20.4669 24.0332C20.0249 24.7586 19.4191 25.3939 18.688 25.8985C18.3457 26.1666 18.2708 26.7123 18.0675 27.124C17.5112 28.2253 17.1689 29.4511 15.5748 29.997C17.1261 31.2036 15.211 32.1616 15.1897 33.3778L14.4087 33.5499C14.4071 33.9194 14.3677 34.288 14.291 34.6511C13.6578 35.9784 13.2468 37.3822 13.0714 38.817C12.9279 40.2915 12.4818 41.7298 11.7555 43.0595C11.5629 43.5001 11.9374 44.151 12.055 44.7064C12.2262 44.7064 12.3867 44.7064 12.5472 44.7064C12.1034 45.384 11.7446 46.1037 11.4773 46.8518C11.4632 47.2675 11.578 47.6787 11.809 48.0395C11.809 49.1887 11.7341 50.0314 11.809 50.9125C11.9374 52.1479 10.9959 53.498 12.2904 54.6089C12.2904 54.6089 12.2904 54.7717 12.2904 54.8483C11.3597 56.4189 12.2904 57.8647 12.5151 59.3873C12.6919 60.7554 12.6919 62.1375 12.5151 63.5055C12.4821 64.0159 12.4821 64.5276 12.5151 65.0379C11.5415 65.7465 11.5416 65.8901 12.7719 66.3402C12.023 67.5276 11.4024 68.7436 12.4509 69.663C12.4509 70.9749 12.4509 72.0095 12.4509 73.0437C12.4509 74.078 12.6862 75.3899 12.6434 76.5582C12.5082 77.097 12.2809 77.6139 11.9695 78.0906C11.2741 79.709 10.6857 81.3658 9.8833 82.9364C9.24587 84.0202 8.53116 85.0662 7.74363 86.0679C7.21807 86.8725 6.6467 87.6524 6.03185 88.4045C5.47573 89.0046 4.83987 89.5416 4.13828 90.0037C2.81733 90.899 1.44612 91.7331 0.030083 92.5031C-0.708528 92.7929 -1.47965 93.0114 -2.27009 93.1545C-2.81571 93.3173 -3.33987 93.4993 -3.88549 93.6908C-4.05666 93.7483 -4.18504 93.9302 -4.34551 93.9494C-6.64566 94.2463 -8.92442 94.6388 -11.2353 94.7728C-14.3057 95.0072 -17.3903 95.0552 -20.468 94.9164C-23.0211 94.6582 -25.5446 94.2033 -28.0104 93.5566C-29.2835 93.2789 -29.0801 92.2542 -28.8983 91.3827C-28.8983 91.1624 -28.7592 90.9517 -28.6308 90.5686C-30.1821 91.7944 -30.1821 93.6621 -28.6843 94.4474C-27.2448 95.3222 -25.6696 96.0029 -24.0091 96.4679C-22.169 96.8318 -20.3931 97.5786 -18.3283 97.253C-16.9268 97.0423 -15.3969 97.6648 -13.9206 97.7127C-12.6123 97.6961 -11.3072 97.5939 -10.0157 97.4064C-9.68405 97.4064 -9.30957 97.1956 -9.04211 97.2914C-8.34278 97.4966 -7.59704 97.5409 -6.87351 97.4204C-6.14998 97.2999 -5.47194 97.0187 -4.90185 96.6021C-4.91255 96.5925 -4.37764 96.9851 -3.84272 97.2437Z" fill="#FAEFE4"/>
<path d="M48.8232 95.3583L50.1026 96.3151C49.9306 96.8222 49.0275 97.1571 50.1026 97.8078C50.6616 98.1426 50.6186 99.3479 50.7584 100.171C50.8551 100.774 50.7584 101.396 50.7584 102.008C50.7584 102.621 50.8337 102.965 50.8767 103.434C50.9735 104.553 51.1454 105.673 51.1562 106.792C51.1056 107.425 50.9758 108.05 50.7691 108.658L50.1994 110.695C50.9197 111.356 50.2639 112.351 49.7908 113.355C49.3178 114.36 48.7157 115.566 48.0706 116.886C46.7375 116.886 47.3181 118.551 46.4365 119.211C45.7644 119.686 45.1959 120.266 44.7593 120.923C43.7595 121.966 42.9209 122.904 42.0071 123.794C41.4293 124.325 40.8114 124.821 40.1578 125.277C39.7063 125.593 39.0827 125.775 38.7602 126.167C38.2442 126.904 37.8034 127.573 36.6745 127.468C36.6745 127.468 36.5025 127.573 36.4918 127.65C36.2122 128.721 35.2876 129.104 34.234 129.372C33.176 129.598 32.2607 130.186 31.686 131.008C31.0732 131.812 29.6003 132.156 28.4607 132.606C27.4931 132.979 26.6868 133.821 25.4504 133.563C24.5795 134.921 22.9669 134.873 21.537 135.227C19.8383 135.658 18.2041 136.299 16.4947 136.672C15.5701 136.883 14.6778 137.629 13.6027 137.036C13.4952 136.978 13.2264 137.246 13.0114 137.294C10.9129 137.921 8.66627 138.046 6.49624 137.658C6.29197 137.61 6.14144 137.428 5.74365 137.476C6.08768 137.82 6.36721 138.308 6.81876 138.5C8.07316 139.277 9.59723 139.634 11.1192 139.504C13.9037 139.045 16.699 138.595 19.4943 138.174C19.6878 138.174 19.9136 138.308 20.1286 138.394C20.4079 138.242 20.7032 138.114 21.0102 138.012C23.0959 137.38 25.2138 136.845 27.2566 136.098C28.7402 135.572 30.1163 134.807 31.557 134.185C32.0838 133.945 32.6321 133.84 33.2234 133.611C33.8147 133.381 34.6103 133.85 34.3738 132.864C34.707 132.864 35.0296 132.864 35.4489 132.921C35.5564 132.711 35.6102 132.252 35.8789 132.109C37.1153 131.458 38.4484 130.932 39.674 130.262C40.3059 129.879 40.8836 129.429 41.3942 128.922C42.2651 128.157 43.7165 127.889 43.9422 126.569C43.9422 126.502 44.039 126.387 44.1142 126.377C46.673 125.832 46.716 123.028 49.006 122.11C49.823 121.785 50.0811 120.397 51.2314 119.957C51.511 119.852 51.3175 119.001 51.597 118.637C52.0808 118.034 52.9086 117.68 52.8549 116.723C52.8517 116.188 53.0035 115.661 53.2957 115.192C53.7042 114.513 54.2632 113.91 54.8653 113.116C54.6778 112.758 54.6195 112.357 54.6984 111.968C54.7774 111.579 54.9897 111.222 55.3061 110.944C55.7362 110.466 55.4244 109.347 55.2201 108.552C55.0911 108.007 54.704 107.595 55.4566 107.127C55.5734 107.015 55.6588 106.881 55.7056 106.735C55.7523 106.588 55.7591 106.434 55.7254 106.285C55.5118 105.988 55.4351 105.629 55.5112 105.284C55.5873 104.938 55.8104 104.632 56.1339 104.429C56.1339 103.204 56.1339 102.276 56.1339 101.348C56.1339 101.108 55.9619 100.869 55.9404 100.63C55.872 99.4523 55.7213 98.2796 55.4889 97.1187C54.9943 95.2625 54.2418 93.464 53.6827 91.627C53.4242 90.6161 53.2233 89.594 53.0807 88.5651C51.6615 87.6848 49.3715 83.5898 49.9521 82.3843C48.4792 81.3414 48.3932 79.801 48.0276 78.3563C47.864 77.9575 47.6664 77.5705 47.4363 77.1986C47.2849 76.836 47.1592 76.4652 47.06 76.0886C46.9257 75.4785 46.6391 74.9032 46.2215 74.4049L47.1138 73.2565C45.9527 73.0652 45.2646 72.7111 45.8344 71.7064C45.8344 71.6012 45.942 71.4004 45.8344 71.343C44.6088 70.2427 45.0603 68.712 44.598 67.4107C43.8205 65.3428 43.7717 63.1126 44.4583 61.0192C44.5525 60.5997 44.61 60.1741 44.6303 59.7467C44.942 59.7467 45.3183 59.8329 45.7054 59.8807C45.7054 59.7181 45.7054 59.4886 45.5979 59.3547C44.9098 58.5893 43.8025 57.8522 45.5979 57.0772C45.0926 55.6133 46.673 54.5131 46.458 53.1066C46.458 52.81 46.3505 52.5039 46.286 52.2073L45.8774 52.1307L47.2966 50.753L46.6193 49.3851C48.4147 48.9545 49.0598 47.8063 48.9845 46.2181C49.0105 46.1196 49.0593 46.0269 49.1278 45.9462C49.1963 45.8654 49.283 45.7982 49.3823 45.749C49.7589 45.5981 50.0837 45.361 50.3236 45.0618C50.5635 44.7626 50.7098 44.4122 50.7476 44.0462C50.8336 43.4051 52.0163 42.9075 52.6613 42.3143C53.3064 41.7211 54.145 40.8023 54.9621 40.1134C55.4676 39.7965 55.9954 39.509 56.5425 39.2524C57.008 38.8654 57.4999 38.5045 58.0154 38.1714C59.1254 37.7061 60.1837 37.1485 61.1762 36.5064C59.413 36.803 57.6713 37.2241 55.8867 37.3772C54.102 37.5303 52.6613 38.9845 50.7476 38.554C49.5112 39.5108 48.1136 40.4679 46.8557 41.4916C46.224 42.1508 45.6387 42.8442 45.1033 43.5678C44.813 43.8739 44.3723 44.0651 44.2648 44.3713L41.319 49.7869C40.5772 49.4137 40.1471 49.6334 40.1578 50.5997C40.1578 51.0207 39.7063 51.4418 39.7385 51.8532C39.8353 53.3649 38.5989 54.7811 39.3623 56.3503C39.4058 56.4886 39.4079 56.6347 39.3683 56.774C39.3287 56.9133 39.2488 57.0412 39.1365 57.1445C37.126 58.3787 38.9322 59.747 38.943 61.0291C38.9315 62.5615 39.0393 64.0929 39.2655 65.6121C39.459 66.6454 38.2872 67.5255 39.0182 68.5301C38.0936 69.0085 38.3839 69.3912 39.0182 70.0036C39.4698 70.4724 39.3192 71.4291 39.7923 71.8405C40.9319 72.7973 40.1148 73.9742 40.4159 75.0075C40.5019 75.3041 40.4158 75.8114 40.6094 75.8975C42.179 76.6629 42.0823 78.1841 42.7596 79.3705C43.2434 80.2699 43.8347 81.131 44.254 82.04C44.4787 82.6136 44.6337 83.2071 44.7163 83.8101C44.7163 84.0302 44.5658 84.4318 44.6518 84.4796C45.1048 84.745 45.4894 85.093 45.7804 85.5004C46.0713 85.9077 46.262 86.3654 46.3397 86.8431C46.8568 87.8741 47.5256 88.8393 48.3286 89.7134C48.5006 89.9526 48.7264 90.383 48.6189 90.517C47.8664 91.4259 48.834 91.9904 49.2425 92.4305C49.9736 93.5117 49.8768 94.3346 48.8232 95.3583Z" fill="#FAEFE4"/>
</g>
<path d="M44.3999 44.2933C45.1114 43.6775 45.682 42.9158 46.0731 42.06C46.4642 41.2042 46.6666 40.2742 46.6666 39.3333C46.6666 37.5652 45.9642 35.8695 44.714 34.6192C43.4637 33.369 41.768 32.6666 39.9999 32.6666C38.2318 32.6666 36.5361 33.369 35.2859 34.6192C34.0356 35.8695 33.3333 37.5652 33.3333 39.3333C33.3332 40.2742 33.5357 41.2042 33.9268 42.06C34.3179 42.9158 34.8885 43.6775 35.5999 44.2933C33.7334 45.1385 32.1499 46.5033 31.0386 48.2247C29.9272 49.946 29.3352 51.951 29.3333 54C29.3333 54.3536 29.4737 54.6927 29.7238 54.9428C29.9738 55.1928 30.313 55.3333 30.6666 55.3333C31.0202 55.3333 31.3593 55.1928 31.6094 54.9428C31.8594 54.6927 31.9999 54.3536 31.9999 54C31.9999 51.8782 32.8428 49.8434 34.3431 48.3431C35.8434 46.8428 37.8782 46 39.9999 46C42.1217 46 44.1565 46.8428 45.6568 48.3431C47.1571 49.8434 47.9999 51.8782 47.9999 54C47.9999 54.3536 48.1404 54.6927 48.3904 54.9428C48.6405 55.1928 48.9796 55.3333 49.3333 55.3333C49.6869 55.3333 50.026 55.1928 50.2761 54.9428C50.5261 54.6927 50.6666 54.3536 50.6666 54C50.6646 51.951 50.0726 49.946 48.9613 48.2247C47.85 46.5033 46.2664 45.1385 44.3999 44.2933ZM39.9999 43.3333C39.2088 43.3333 38.4354 43.0987 37.7776 42.6592C37.1198 42.2196 36.6072 41.5949 36.3044 40.864C36.0017 40.1331 35.9224 39.3289 36.0768 38.5529C36.2311 37.777 36.6121 37.0643 37.1715 36.5049C37.7309 35.9455 38.4436 35.5645 39.2196 35.4102C39.9955 35.2558 40.7997 35.335 41.5307 35.6378C42.2616 35.9405 42.8863 36.4532 43.3258 37.111C43.7653 37.7688 43.9999 38.5422 43.9999 39.3333C43.9999 40.3942 43.5785 41.4116 42.8283 42.1617C42.0782 42.9119 41.0608 43.3333 39.9999 43.3333ZM52.9866 43.76C53.8399 42.7991 54.3973 41.612 54.5917 40.3417C54.786 39.0715 54.6092 37.7721 54.0823 36.6C53.5554 35.4279 52.701 34.433 51.6219 33.7352C50.5428 33.0374 49.285 32.6663 47.9999 32.6666C47.6463 32.6666 47.3072 32.8071 47.0571 33.0572C46.8071 33.3072 46.6666 33.6463 46.6666 34C46.6666 34.3536 46.8071 34.6927 47.0571 34.9428C47.3072 35.1928 47.6463 35.3333 47.9999 35.3333C49.0608 35.3333 50.0782 35.7547 50.8283 36.5049C51.5785 37.255 51.9999 38.2724 51.9999 39.3333C51.998 40.0336 51.8123 40.7212 51.4613 41.3272C51.1104 41.9332 50.6064 42.4365 49.9999 42.7866C49.8022 42.9007 49.6371 43.0635 49.5204 43.2596C49.4037 43.4557 49.3392 43.6785 49.3333 43.9066C49.3277 44.133 49.3798 44.357 49.4848 44.5576C49.5898 44.7583 49.7441 44.9288 49.9333 45.0533L50.4533 45.4L50.6266 45.4933C52.2338 46.2556 53.5897 47.4613 54.5346 48.9684C55.4794 50.4755 55.974 52.2212 55.9599 54C55.9599 54.3536 56.1004 54.6927 56.3504 54.9428C56.6005 55.1928 56.9396 55.3333 57.2933 55.3333C57.6469 55.3333 57.986 55.1928 58.2361 54.9428C58.4861 54.6927 58.6266 54.3536 58.6266 54C58.6375 51.9539 58.125 49.939 57.1379 48.1467C56.1507 46.3545 54.7217 44.8444 52.9866 43.76Z" fill="#171952"/>
</g>
<defs>
<clipPath id="clip0_98_889">
<rect width="88" height="88" fill="white" transform="translate(88) rotate(90)"/>
</clipPath>
</defs>
</svg>
