<svg width="88" height="88" viewBox="0 0 88 88" fill="none" xmlns="http://www.w3.org/2000/svg">
<g clip-path="url(#clip0_98_916)">
<path d="M34.4316 3.17587C35.9026 3.31544 37.3859 3.31544 38.8569 3.17587C46.6205 2.37333 52.8313 -0.313081 60.9054 0.0358493C63.7721 0.0623181 66.5816 0.758402 69.0571 2.05821C74.7633 5.5475 72.9389 10.608 75.1515 15.3186C77.3726 18.683 79.7824 21.9432 82.3715 25.0879C87.0724 32.827 88.8439 41.7312 87.4181 50.4551C85.1666 66.3663 74.3752 76.3109 60.9443 84.6155C58.0363 86.2667 54.7761 87.3525 51.3732 87.8032C47.9704 88.2539 44.5001 88.0595 41.1859 87.2324C34.4975 85.8027 27.9121 84.0081 21.4664 81.8588C18.8998 80.7762 16.4449 79.4915 14.13 78.0202C11.6457 76.7641 9.16134 75.5428 6.63818 74.5309C-0.581928 71.251 -1.43594 69.9952 1.28131 63.54C2.7745 59.8197 3.13614 55.8083 2.32923 51.9204C-0.349199 33.3224 -4.50255 18.9476 12.9267 6.80487C15.3241 4.93643 18.1261 3.53392 21.156 2.68689C25.5761 2.09848 30.0799 2.26468 34.4316 3.17587Z" fill="#DDD5F6"/>
<mask id="mask0_98_916" style="mask-type:alpha" maskUnits="userSpaceOnUse" x="-1" y="0" width="89" height="89">
<path d="M34.4316 3.17599C35.9026 3.31557 37.3859 3.31557 38.8569 3.17599C46.6205 2.37346 52.8313 -0.312958 60.9054 0.0359713C63.7721 0.0624401 66.5816 0.758524 69.0571 2.05833C74.7633 5.54763 72.9389 10.6081 75.1515 15.3187C77.3726 18.6831 79.7824 21.9433 82.3715 25.088C87.0724 32.8272 88.8439 41.7313 87.4181 50.4553C85.1666 66.3664 74.3752 76.3111 60.9443 84.6156C58.0363 86.2668 54.7761 87.3526 51.3732 87.8033C47.9704 88.254 44.5001 88.0596 41.1859 87.2325C34.4975 85.8028 27.9121 84.0082 21.4664 81.8589C18.8998 80.7764 16.4449 79.4916 14.13 78.0203C11.6457 76.7642 9.16134 75.5429 6.63818 74.531C-0.581928 71.2511 -1.43594 69.9953 1.28131 63.5401C2.7745 59.8198 3.13614 55.8084 2.32923 51.9205C-0.349199 33.3225 -4.50255 18.9477 12.9267 6.805C15.3241 4.93655 18.1261 3.53404 21.156 2.68702C25.5761 2.0986 30.0799 2.2648 34.4316 3.17599Z" fill="#F9EFF1"/>
</mask>
<g mask="url(#mask0_98_916)">
<path d="M114.653 -11.6671C114.758 -11.8543 114.83 -12.0549 114.867 -12.2617C114.867 -12.7987 113.977 -13.3452 114.867 -13.8822C114.867 -13.8822 114.867 -14.2562 114.728 -14.3425C113.773 -15.1096 114.138 -16.0781 114.149 -16.9986C114.149 -18.1301 114.063 -19.252 114.031 -20.3739C114.031 -20.5753 113.955 -20.9108 114.031 -20.9587C115.575 -21.6779 114.513 -22.6176 114.31 -23.5957L115.254 -23.7586C115.146 -24.0655 114.996 -24.4109 114.9 -24.7657C114.803 -25.1205 114.535 -25.7243 114.717 -25.8969C115.94 -26.8558 115.061 -28.7735 116.863 -29.416C117.185 -29.5311 117.292 -30.3749 117.292 -30.8351C117.292 -32.0242 118.258 -32.5903 119.599 -32.178C119.781 -32.1204 120.178 -32.59 120.532 -32.8681L119.652 -33.8944C120.242 -34.2109 120.8 -34.5561 121.412 -34.8533C122.023 -35.1506 122.903 -34.9876 122.571 -36.0903C122.495 -36.3588 123.472 -37.049 124.094 -37.2791C124.716 -37.5092 125.51 -38.7079 126.594 -37.7778C126.869 -38.0003 127.117 -38.2478 127.334 -38.5161C127.602 -38.938 127.753 -39.4078 127.999 -39.8393C128.047 -39.9066 128.11 -39.9647 128.184 -40.0092C128.257 -40.0538 128.341 -40.0839 128.428 -40.0982C130.381 -40.3092 130.381 -40.3571 131.583 -42.016C132.063 -42.5554 132.61 -43.0444 133.214 -43.4735C134.565 -44.6434 135.982 -45.7654 137.258 -47.0024C138.331 -48.0764 139.307 -49.2748 140.327 -50.4255L140.091 -50.7134C140.52 -50.7134 140.949 -50.6556 141.582 -50.6268L141.829 -52.3241C143.944 -55.4952 145.784 -58.8068 147.333 -62.2295C148.405 -61.798 149.317 -62.5654 149.221 -63.8982C149.156 -64.7421 148.684 -65.5281 149.886 -66.2472C150.326 -66.5061 150.025 -67.7528 150.101 -68.5391C150.099 -68.8016 150.193 -69.0572 150.369 -69.2677C151.184 -69.9772 150.959 -70.9266 151.216 -71.7609C151.506 -72.5839 151.898 -73.3751 152.386 -74.1197C152.45 -74.2348 152.976 -74.1197 153.459 -74.1197C152.182 -74.954 152.622 -75.7305 153.33 -76.6223C154.362 -77.9502 155.051 -79.4671 155.347 -81.0623C155.56 -81.6644 155.895 -82.2265 156.334 -82.7212L157.654 -89.3276C156.173 -87.6208 155.508 -85.6841 153.587 -84.8019C152.89 -84.2074 152.225 -83.6798 151.624 -83.114C151.105 -82.7317 150.693 -82.2456 150.422 -81.6949C150.354 -81.3054 150.169 -80.94 149.888 -80.6363C149.607 -80.3326 149.239 -80.102 148.824 -79.9691C148.631 -79.9019 148.363 -79.7294 148.363 -79.6048C148.481 -78.8863 148.481 -78.156 148.363 -77.4374C147.976 -76.4786 147.054 -75.7693 146.667 -74.8487C146.174 -73.7172 144.307 -73.0648 145.262 -71.3484C145.354 -71.1613 145.4 -70.9594 145.398 -70.7552C145.396 -70.5509 145.346 -70.3495 145.251 -70.1638C145.156 -69.9782 145.017 -69.8124 144.846 -69.6778C144.674 -69.5432 144.472 -69.4427 144.253 -69.3828C144.028 -69.3253 143.685 -69.0376 143.717 -68.9034C144.007 -67.3308 142.644 -66.1993 142.376 -64.7705C142.15 -63.7978 141.79 -62.8544 141.303 -61.9612C140.981 -61.5133 140.622 -61.087 140.23 -60.6858C139.996 -60.3795 139.862 -60.0207 139.844 -59.6502C139.844 -58.9598 140.144 -58.2213 138.825 -58.3748C138.596 -58.0945 138.462 -57.7618 138.438 -57.4159C138.438 -56.9844 138.739 -56.409 137.773 -56.6391L137.441 -55.4887L137.923 -55.0093C137.13 -54.8271 136.346 -54.6544 135.327 -54.4338L135.209 -53.1392C134.201 -52.4872 133.063 -51.739 131.905 -50.9911C131.845 -50.9539 131.794 -50.9055 131.757 -50.8492C131.72 -50.7929 131.697 -50.7302 131.69 -50.6652C131.797 -49.3228 130.488 -48.805 129.662 -48.0859C128.836 -47.3667 128.471 -45.9283 126.798 -46.1681C126.637 -44.7297 124.888 -44.6337 124.158 -43.6557C123.547 -42.831 122.807 -42.0642 121.508 -42.2655C120.597 -42.4094 120.436 -41.8724 120.232 -41.3066L119.813 -39.9446C118.354 -40.7405 117.968 -40.5683 117.249 -38.8902C117.048 -38.4525 116.725 -38.0674 116.313 -37.7707C115.9 -37.474 115.41 -37.2752 114.889 -37.193C115.125 -36.3491 114.792 -35.8982 113.698 -35.5243C112.813 -35.162 112.11 -34.5199 111.724 -33.7216C111.037 -32.245 110.758 -30.615 110.136 -29.1C109.9 -28.5246 109.181 -28.1407 108.602 -27.5366C109.364 -26.8558 109.128 -25.964 108.419 -25.101C108.048 -24.6539 107.82 -24.1244 107.762 -23.5699C107.703 -23.0155 107.816 -22.4574 108.087 -21.956C108.151 -21.8026 107.926 -21.563 107.883 -21.352C107.669 -20.5137 107.508 -19.6655 107.4 -18.811C107.4 -18.648 107.926 -18.4367 108.28 -18.2066L107.658 -17.3245C108.548 -16.6341 108.559 -16.2122 107.786 -15.2438C107.732 -15.1623 107.698 -15.0713 107.687 -14.9769C107.675 -14.8825 107.688 -14.7872 107.722 -14.6974C108.301 -13.5371 108.913 -12.3861 109.503 -11.2354C109.665 -10.9735 109.775 -10.6878 109.825 -10.3917C109.921 -9.0876 109.932 -7.78344 110.05 -6.47934C110.111 -6.11904 110.295 -5.78424 110.576 -5.52045C110.795 -5.34712 110.972 -5.13586 111.096 -4.89914C111.22 -4.66241 111.289 -4.40525 111.298 -4.14391C111.307 -3.88257 111.256 -3.62246 111.149 -3.37932C111.041 -3.1362 110.879 -2.91548 110.672 -2.73039C111.273 -0.707119 111.949 1.25891 110.866 3.33012C110.361 4.28901 110.19 5.4589 109.793 6.48491C109.288 7.70271 108.72 8.89172 108.119 10.0616C107.722 10.8095 107.121 11.4807 106.746 12.2383C106.603 12.5849 106.534 12.9523 106.542 13.3217C105.898 14.0025 105.233 14.4054 105.083 14.9136C104.804 15.8725 103.849 15.3162 103.227 15.7381L103.838 16.697L102.411 18.6148L102.315 18.4711C101.768 18.9601 100.748 19.4298 100.759 19.9572C100.759 21.2421 99.8042 21.6065 98.9459 22.1723C98.3344 22.575 97.7336 23.0352 98.9459 23.716C97.3795 23.8886 98.3344 26.257 96.2745 25.8735C95.9305 26.5416 95.525 27.1831 95.0621 27.7913C94.4077 28.5488 93.5494 29.1627 92.9164 29.901C92.2834 30.6394 91.5431 31.6078 90.8564 32.4612C90.7813 32.5571 90.6526 32.7294 90.5668 32.7103C89.0755 32.4897 88.7 33.7363 88.4747 34.4075C88.3878 34.8444 88.117 35.235 87.7179 35.4989C87.3188 35.7629 86.8218 35.8801 86.3289 35.8267C85.9309 35.8993 85.5475 36.0255 85.1917 36.2008L85.5135 36.9682C84.9127 37.9271 84.4407 38.6652 84.0008 39.3556C83.7433 39.7008 83.2819 39.9309 83.0137 40.3145C82.0052 41.6186 81.0826 42.9897 80.0312 44.2746C79.3338 45.1376 78.4648 45.8951 77.467 46.9115C77.2417 47.4773 76.9413 48.3884 76.5228 49.261C76.3512 49.6062 75.8147 49.8171 75.6538 50.1623C75.1603 51.2363 73.9909 51.9841 73.9909 53.3649C73.9909 53.9306 73.0038 54.4869 72.3923 55.1389C73.154 55.8293 72.682 56.6445 72.3923 57.6321C72.1026 58.6198 71.1263 59.7032 71.534 61.036C71.5824 61.8421 71.4956 62.6501 71.2765 63.4333C71.2014 64.6798 71.2014 65.9364 71.1692 67.1925L71.1692 68.7938C70.9439 68.8801 70.7079 68.9662 70.4826 69.0621C70.8191 69.1947 71.1392 69.3589 71.4374 69.5513C71.6842 69.724 72.0383 70.0212 71.9953 70.2129C71.5233 72.4184 73.0682 74.1157 73.7012 76.0623C73.905 76.791 73.9801 77.5484 74.1625 78.2867C74.1625 78.4306 74.4522 78.5359 74.817 78.8331C74.1304 79.792 75.2998 79.7057 76.1474 79.792C75.8792 80.2341 75.7872 80.7448 75.8867 81.2397C75.9861 81.7347 76.271 82.1846 76.6945 82.5156C77.1547 82.8126 77.5034 83.2269 77.6949 83.7044C77.8864 84.1819 77.9117 84.7003 77.7674 85.191C77.5636 85.9581 78.0785 86.8687 78.218 87.7221C78.3146 88.3645 78.2824 89.0166 78.3467 89.6399C78.3467 90.1385 78.5076 90.5991 78.5935 91.1265C78.5935 91.4333 78.851 91.8072 78.7222 92.0278C77.8425 93.4853 78.0785 94.9907 78.3253 96.5057C78.3253 96.6687 78.0892 96.851 78.0785 97.0235C78.0785 97.6852 77.1666 98.2508 77.9498 99.0659C78.1429 99.2672 77.6494 100.399 77.1666 100.667C75.7933 101.425 76.5229 101.895 77.1666 102.364L76.0937 106.382C76.0937 106.526 76.1474 106.785 76.0937 106.833C74.1089 107.955 74.699 110.208 73.4437 111.675C73.1755 111.982 73.6475 112.893 73.3793 113.094C72.3065 113.861 72.3065 115.012 71.77 115.894C71.183 116.588 70.8128 117.409 70.6971 118.273C70.6333 118.678 70.439 119.057 70.138 119.366C69.8371 119.674 69.4424 119.897 69.002 120.008C68.4548 120.804 68.0257 121.475 67.5536 122.118C66.7584 123.355 65.8468 124.529 64.8286 125.627C64.2277 126.193 64.4852 127.66 62.6077 127.209L63.1227 128.015L58.166 132.858L57.5437 132.589C57.4793 132.646 57.3721 132.704 57.3613 132.771C57.3237 133.146 57.1863 133.509 56.9605 133.827C56.7347 134.146 56.427 134.412 56.0631 134.603C53.9174 136.089 52.1793 138.026 50.0551 139.541C48.4779 140.653 47.6733 142.561 45.4524 143.021C45.034 143.117 44.8409 143.875 44.3796 144.191C43.2101 145.083 41.987 145.898 40.7639 146.732C39.5408 147.567 38.1247 148.65 36.7085 149.418C35.6356 150.031 34.7451 151.537 32.8247 150.626C33.1455 150.942 33.5055 151.225 33.8976 151.469C34.9704 151.987 37.1162 151.546 38.0603 150.846C38.8113 150.29 39.7447 149.887 40.5494 149.418C41.6866 148.689 42.781 147.893 43.8968 147.135C44.2079 146.924 44.5512 146.579 44.8945 146.56C46.6219 146.512 47.2119 144.987 48.5423 144.393C49.7723 143.677 50.9 142.831 51.9004 141.871L53.6706 140.576C54.486 140.691 54.9795 140.279 55.1941 139.234C55.3024 138.959 55.4826 138.711 55.7195 138.511C55.9565 138.311 56.2435 138.164 56.5567 138.083C58.2947 137.805 58.5415 136.165 59.9255 135.465C61.0628 134.919 61.8137 133.711 62.6506 132.732C62.8759 132.483 62.6506 131.697 63.2836 132.531C63.2836 132.531 63.6162 132.455 63.6269 132.387C63.7664 131.764 63.8844 131.16 64.8392 131.266C64.6246 130.585 65.1826 130.451 65.6546 130.086C66.6367 129.239 67.5276 128.311 68.3154 127.315C68.4763 127.133 68.3154 126.701 68.4549 126.519C70.1573 124.886 71.5036 122.984 72.4245 120.91C72.9677 120.053 73.6192 119.255 74.3664 118.531C75.0101 117.678 75.5358 116.748 76.1581 115.885C76.3083 115.684 76.6516 115.597 76.834 115.492C76.7892 115.047 76.8327 114.599 76.9628 114.168C77.5636 113.114 78.3682 112.155 78.9368 111.09C79.1931 110.476 79.338 109.828 79.366 109.173C79.4313 107.962 79.5962 106.757 79.8595 105.567C80.0097 105.069 80.9324 104.772 81.222 104.609C81.0985 103.911 81.0733 103.202 81.1469 102.499C81.7048 100.418 82.3808 98.3562 83.003 96.2945C83.0353 96.1264 83.0353 95.9547 83.003 95.7865C82.8045 94.0939 82.8045 92.3874 83.003 90.6948C83.0881 89.5393 83.2529 88.3898 83.4965 87.2525C83.9471 86.0635 82.8099 85.9865 82.2305 85.507L82.6168 85.3824C82.2922 84.2562 81.8541 83.1587 81.3079 82.1031C80.7369 81.2128 80.3482 80.2387 80.1599 79.2264C79.6101 77.2188 78.8929 75.2506 78.0141 73.3387C77.939 73.1373 77.8854 72.9361 77.8318 72.7347C77.585 71.7758 77.2846 70.8649 77.1236 69.9156C77.0681 69.2421 77.0681 68.566 77.1236 67.8925C75.2461 67.1925 77.4348 65.2266 76.4477 64.1431L78.3682 56.6639C79.13 56.9324 79.8273 57.3347 79.5269 55.9634C79.3552 55.2347 79.9775 54.3622 80.2994 53.4033C81.8121 53.3457 81.2864 51.7829 81.9408 50.9391C83.0137 49.5295 82.9494 47.554 84.7625 46.3937C85.9425 45.5037 87.0206 44.5113 87.9811 43.4309C88.1823 43.1611 88.3311 42.8629 88.421 42.5488C88.4826 42.3414 88.5803 42.1441 88.7107 41.964C89.8908 40.89 91.5323 39.9981 92.1439 38.7132C92.6159 37.7064 93.7961 37.361 94.118 36.1432C94.3554 35.5078 94.794 34.9477 95.3805 34.5307C95.9671 34.1137 96.6764 33.858 97.4225 33.7942C97.679 33.7312 97.9127 33.6097 98.1008 33.4416C98.2889 33.2735 98.4249 33.0645 98.4953 32.8353C98.5794 31.9425 98.9198 31.0843 99.4837 30.3435C100.048 29.6027 100.816 29.0042 101.714 28.6064C101.864 28.5297 101.929 28.0888 101.843 27.8779C101.574 27.2067 101.574 27.1491 102.25 27.1779C102.755 27.1439 103.234 26.9675 103.62 26.6746C104.006 26.3817 104.277 25.9872 104.396 25.5476C104.699 24.9524 105.093 24.3972 105.566 23.8981C106.123 23.1214 106.638 22.3352 107.196 21.5585L106.874 21.2902L108.065 21.2902C107.937 20.4559 107.776 19.6792 109.02 19.3724C109.224 19.3724 109.385 18.7491 109.364 18.4135C109.358 17.77 109.57 17.1401 109.972 16.6062C110.374 16.0723 110.947 15.6593 111.617 15.4216C111.818 15.3043 111.978 15.1379 112.078 14.9422C111.209 14.1367 112.271 13.5711 112.421 12.9191C112.651 12.3428 112.98 11.8025 113.398 11.3178C113.517 11.1623 113.607 10.9905 113.666 10.8093C114.041 9.37096 114.159 7.78905 116.638 7.4822C115.168 6.67673 115.307 6.04353 116.316 5.21888C116.5 5.07343 116.65 4.89605 116.755 4.69729C116.861 4.49853 116.92 4.28266 116.929 4.06287C116.938 3.84307 116.897 3.62421 116.808 3.41908C116.719 3.21395 116.584 3.02703 116.412 2.86987C116.341 2.80191 116.285 2.72203 116.248 2.63483C116.212 2.54763 116.194 2.45455 116.198 2.36139C116.475 1.63334 116.701 0.890484 116.874 0.136928C116.981 -0.706898 116.766 -1.58902 116.874 -2.44244C116.981 -3.29585 116.176 -4.22589 117.303 -4.98341C117.474 -5.10807 117.206 -5.94268 116.938 -6.32624C116.127 -7.50641 115.72 -8.87285 115.769 -10.2573C115.769 -10.7464 115.286 -11.2165 115.018 -11.7439L114.653 -11.6671Z" fill="#EFEFFA"/>
<path d="M35.4263 -23.8036C35.1264 -23.3817 34.9015 -22.6722 34.3553 -22.4229C33.5969 -21.9775 32.6823 -21.7969 31.785 -21.9149C31.6175 -21.9919 31.4304 -22.0277 31.2424 -22.0193C31.0544 -22.0109 30.8721 -21.9582 30.714 -21.8666C29.3218 -21.2242 27.6833 -21.7706 26.3338 -21.272C25.1223 -20.9162 23.8328 -20.8274 22.5748 -21.0131C22.4248 -21.0131 22.2749 -20.8311 22.1143 -20.7448C21.091 -20.1942 20.0365 -19.6919 18.9549 -19.2395C18.6122 -19.1052 17.884 -18.3665 17.5841 -19.3734C17.5715 -19.3911 17.5541 -19.4059 17.5335 -19.416C17.5129 -19.426 17.4897 -19.4311 17.4663 -19.431C15.9455 -18.9899 14.4355 -18.5489 12.8719 -18.0886C11.983 -19.1722 9.47695 -18.4528 8.58806 -17.4556C8.22393 -17.0432 7.67772 -16.4967 7.16367 -16.4967C5.69478 -16.3166 4.29355 -15.8305 3.0726 -15.0775C2.69116 -14.9324 2.27385 -14.8798 1.86241 -14.9244C1.46965 -14.9553 1.0797 -15.0096 0.695103 -15.0873L0.695103 -14.186C-0.118827 -13.8983 -0.964901 -13.6201 -1.80025 -13.3133C-1.96089 -13.2557 -2.16439 -13.0064 -2.21794 -13.0351C-3.72799 -13.8502 -3.63157 -12.6039 -3.85647 -11.8655C-4.48834 -12.1244 -4.981 -12.316 -5.62358 -12.5749C-5.83777 -10.0242 -8.00108 -8.92146 -9.811 -7.55981C-9.91809 -7.4831 -10.1109 -7.37747 -10.1859 -7.40623C-11.8673 -8.29802 -11.3853 -6.89812 -11.5674 -6.32278C-11.9101 -5.24881 -12.0065 -4.08853 -13.3023 -3.44606C-13.5272 -3.34058 -13.6129 -2.94737 -13.72 -2.66929C-14.3854 -0.538932 -15.3271 1.51421 -16.5259 3.44843C-16.7401 3.75528 -16.6437 4.23472 -16.708 4.62787C-16.7936 5.17445 -16.9115 5.72123 -16.9757 6.2774C-17.0293 6.55341 -17.0293 6.83527 -16.9757 7.11129C-16.6739 8.09664 -16.4484 9.09985 -16.301 10.113C-16.3653 10.9213 -16.5378 11.7197 -16.815 12.4911C-16.8686 12.6925 -16.9971 13.0376 -16.9115 13.0951C-15.305 14.1595 -17.4362 16.1634 -15.637 17.1606C-16.3438 17.9182 -15.7227 18.6376 -15.4871 19.328C-15.1444 20.2869 -14.5875 21.1979 -14.2341 22.2047C-13.8271 23.3266 -13.5701 24.4966 -13.1631 25.6185C-12.7561 26.7404 -13.1631 28.102 -11.9957 29.1568C-11.4388 29.665 -11.5138 30.7195 -11.2354 31.5058C-10.7106 32.9634 -10.1002 34.3828 -9.60751 35.85C-9.39763 36.5751 -9.2685 37.3172 -9.22198 38.0651C-9.09347 39.3213 -8.94351 40.5867 -8.9328 41.8525C-8.9328 42.8114 -9.20057 43.8567 -9.15773 44.8444C-9.09347 46.1198 -9.00778 46.1196 -10.0787 46.647C-9.56468 48.469 -11.4174 49.5239 -11.8137 51.0965C-11.9632 51.4948 -12.1532 51.8802 -12.3813 52.2474C-13.6879 53.4172 -15.123 54.7501 -16.6652 56.0254C-17.7361 56.8884 -19.214 57.2623 -19.878 58.5088C-21.6023 58.2787 -22.0199 59.8609 -23.2087 60.4267C-23.8941 60.7623 -24.5581 61.1268 -25.2221 61.5007C-26.3573 62.1432 -27.364 63.0829 -28.9383 62.6418C-29.5059 64.387 -31.4015 62.3542 -32.0227 63.4953C-32.6545 63.2652 -33.19 63.0639 -33.8005 62.8338L-34.4109 61.0307L-34.9357 61.0307C-35.0642 62.2964 -35.2355 63.553 -35.2998 64.8092C-35.364 66.0653 -34.1539 65.4037 -33.672 65.5091C-31.8605 65.9124 -29.9601 65.8623 -28.178 65.3649C-26.9678 65.0005 -25.779 64.5787 -24.5581 64.2239C-23.9262 64.0321 -23.2515 63.9268 -22.2662 63.7159C-21.7522 63.3515 -20.8847 62.7568 -20.0065 62.1239C-19.4818 61.7596 -18.9356 61.3951 -18.4001 61.069C-17.8646 60.743 -17.447 60.6568 -17.0079 60.4075C-15.6799 59.6307 -14.3411 58.8732 -13.0881 58.0102C-12.5955 57.6746 -12.3599 57.0515 -11.9529 56.6009C-11.546 56.1502 -11.1604 55.8814 -10.5821 55.3732C-10.9677 54.165 -9.36118 54.6156 -8.59009 54.1362C-8.78286 53.5704 -9.38265 52.7363 -7.90473 52.8706C-7.90473 51.9117 -6.31971 51.6336 -6.83377 50.4733C-6.93016 50.2623 -6.4375 49.6966 -6.08408 49.5144C-5.21661 48.9774 -4.59545 48.4693 -5.40938 47.4912C-5.49748 47.3763 -5.55651 47.2452 -5.5824 47.1078C-5.60829 46.9703 -5.60045 46.8297 -5.55933 46.6953C-5.0106 45.7059 -4.52085 44.6913 -4.09212 43.6556C-4.01136 42.9356 -4.0474 42.2088 -4.19919 41.4981C-4.19919 40.7789 -4.71325 40.002 -3.93145 39.4267C-4.24816 39.0755 -4.49125 38.6759 -4.64897 38.2472C-4.87387 37.0582 -4.64896 35.7155 -5.17373 34.6799C-5.66098 33.6926 -5.93708 32.6325 -5.98767 31.5541C-6.08405 30.4322 -7.05866 29.55 -6.82305 28.2747C-6.72666 27.661 -7.66908 26.9131 -8.06533 26.1939C-8.17243 26.0213 -7.95825 25.7142 -7.94754 25.4649C-7.93683 25.2156 -7.8833 24.7747 -8.03323 24.698C-9.31839 24.0363 -8.92213 22.713 -9.50044 21.8213C-9.6685 21.402 -9.7869 20.968 -9.85381 20.5266C-9.29691 20.0376 -8.89001 19.3949 -9.98239 18.6566C-10.2715 18.4648 -10.1644 17.8511 -10.3786 17.4963C-10.6999 16.9402 -9.61826 15.991 -10.9891 15.7321C-10.9891 15.7321 -11.0962 15.4061 -11.0533 15.2718C-10.6571 14.2458 -11.3746 13.354 -11.396 12.3951C-11.3369 12.0629 -11.2251 11.74 -11.064 11.4362C-10.9893 11.2783 -10.9493 11.109 -10.9462 10.9376C-11.139 9.72933 -11.4067 8.52107 -11.5031 7.30326C-11.5031 6.94846 -11.0854 6.56471 -10.8284 6.15238L-11.2139 4.97295L-10.0252 4.45509C-10.2225 4.15128 -10.384 3.82991 -10.5071 3.49619C-10.8927 1.91399 -9.43614 0.935907 -8.92208 -0.339438C-8.72508 -0.888175 -8.38552 -1.38719 -7.93126 -1.79559C-7.477 -2.20399 -6.92099 -2.50985 -6.30894 -2.68848C-5.89127 -2.83232 -5.68782 -3.46525 -5.14163 -4.18444C-5.57002 -5.14335 -4.56332 -5.92004 -3.2032 -6.32278C-2.08138 -6.76522 -1.0582 -7.38586 -0.183094 -8.15445C0.587998 -8.70103 1.28415 -9.39116 2.46221 -9.06512C2.62285 -9.06512 2.89054 -9.40071 3.14757 -9.50619C3.6295 -9.70756 4.14359 -9.87086 4.64694 -10.0339C5.15029 -10.1969 5.47159 -10.2737 5.99636 -10.4272C6.68967 -10.626 7.35183 -10.903 7.96688 -11.2517C8.28471 -11.5518 8.68865 -11.7676 9.13445 -11.8758C9.58026 -11.9841 10.0508 -11.9808 10.4944 -11.8655C11.0425 -11.8337 11.592 -11.902 12.1095 -12.0669C12.6269 -12.2317 13.1014 -12.4897 13.5038 -12.8244C14.2213 -13.3998 14.6282 -13.2559 15.3244 -13.0642C15.9735 -12.9511 16.6337 -12.8961 17.295 -12.9008L17.4449 -13.5338C18.0446 -13.5913 18.6979 -13.5337 18.7622 -13.6775C19.5118 -15.4995 21.1718 -14.6368 22.4998 -14.7423C22.6176 -14.7423 22.7783 -14.5983 22.8747 -14.6271C24.2241 -15.0202 25.5627 -15.4324 27.0299 -15.8735L27.7475 -15.1257C28.4222 -15.4709 29.1184 -15.797 29.7716 -16.1806C30.4249 -16.5642 30.8426 -16.6984 31.3352 -15.9409C31.4714 -15.816 31.6432 -15.7264 31.8319 -15.6824C32.0206 -15.6385 32.2192 -15.6416 32.4062 -15.6913C33.0699 -16.1188 33.703 -16.5834 34.3018 -17.0819L34.9872 -16.2377L35.9189 -17.0913C37.1827 -16.7365 37.6753 -16.8802 39.1318 -18.1939C39.4424 -17.235 39.8065 -17.0436 40.931 -17.619C41.9367 -18.1174 43.0194 -18.479 44.1439 -18.6926C44.9792 -18.8556 45.9752 -18.4436 46.9176 -18.7984C47.2623 -18.9719 47.6485 -19.0686 48.0437 -19.0803C48.4389 -19.092 48.8314 -19.0182 49.188 -18.8654C49.304 -18.8516 49.422 -18.8647 49.5307 -18.9033C49.6394 -18.9419 49.7353 -19.0047 49.8092 -19.0859C50.3983 -20.8791 52.1654 -20.2079 53.4612 -20.601C54.7571 -20.9942 56.5991 -20.8313 57.7451 -22.1546C58.152 -22.634 59.2337 -22.6051 59.887 -22.9599C61.4399 -23.775 62.9392 -24.6665 64.4385 -25.5679C65.1561 -26.009 65.8093 -26.527 66.3984 -26.9777L67.3194 -26.4598C67.4587 -26.6996 67.5764 -26.9585 67.7371 -27.1982C67.9155 -27.5153 68.1466 -27.8062 68.4225 -28.0611C68.8946 -28.4097 69.3919 -28.7301 69.9111 -29.02C70.5858 -28.3488 70.5858 -28.3489 71.6139 -30.0557C72.1601 -29.979 72.8241 -29.6914 73.0918 -29.8736C73.3596 -30.0558 73.4132 -30.7367 73.6059 -31.1682C73.7987 -31.5997 73.9272 -31.9259 74.2164 -32.0218C74.8965 -32.1878 75.5866 -32.3187 76.2833 -32.4146C76.4868 -32.4626 76.8081 -32.7022 76.7974 -32.8365C76.6903 -34.7543 78.4252 -35.7132 79.4855 -36.931C79.5819 -37.0461 79.9139 -36.9791 80.1388 -37.027C80.3823 -37.0724 80.6169 -37.1502 80.8349 -37.2574C80.5458 -38.7629 81.8201 -38.2162 82.5912 -38.36L85.1401 -42.1957L85.0116 -42.1957L86.8965 -44.1135L87.7319 -43.8354C87.7577 -43.9654 87.7756 -44.0968 87.7854 -44.2287C87.7854 -46.2136 87.5926 -47.1051 89.9273 -49.1763C90.2808 -49.5023 90.0558 -50.3462 90.0987 -51.0941C90.2272 -51.1708 90.5378 -51.3628 90.8163 -51.545C90.8163 -52.1108 89.5953 -52.9834 91.3303 -53.0026C91.3187 -53.1174 91.3187 -53.2328 91.3303 -53.3477C91.6087 -55.0449 91.8765 -56.742 92.187 -58.4297C92.187 -58.6598 92.3905 -58.9956 92.594 -59.0627C94.0934 -59.5997 93.8577 -61.3257 93.665 -61.7189C93.0759 -62.8216 93.5364 -63.7711 93.5686 -64.7492C93.6997 -65.3276 93.931 -65.8838 94.254 -66.3983C94.342 -66.527 94.4104 -66.6658 94.4575 -66.8108C94.4495 -67.6507 94.5068 -68.4903 94.6289 -69.3232C95.1108 -71.3465 95.6034 -73.3792 96.2888 -75.3449C96.7321 -76.1994 97.2973 -76.9988 97.9702 -77.723C96.7708 -80.0244 96.7922 -80.312 98.3665 -81.0408C96.8779 -82.0476 98.2915 -82.9589 98.645 -83.7452C99.0626 -84.7041 99.3625 -85.9792 100.787 -86.3724C100.873 -86.3962 100.953 -86.437 101.019 -86.4918C101.086 -86.5465 101.138 -86.6139 101.172 -86.6889C101.547 -89.1053 104.171 -90.3901 104.76 -92.749C103.882 -92.3175 102.993 -91.7902 102.051 -91.445C101.312 -91.1478 100.476 -91.0231 99.7266 -90.7451C98.7728 -90.5404 97.8808 -90.1509 97.1134 -89.604C96.037 -88.3419 95.0635 -87.012 94.2005 -85.6246C93.8331 -85.0273 93.4142 -84.4564 92.9474 -83.9175C92.8403 -82.8052 92.8832 -81.6928 91.7265 -80.7051C91.2851 -80.2579 90.9628 -79.727 90.7841 -79.152C90.7267 -78.3862 90.7698 -77.6169 90.9126 -76.8601C90.9126 -76.5916 90.9126 -76.208 90.7198 -76.0833C89.7346 -75.4025 89.9274 -74.5202 90.0773 -73.6285C90.0773 -73.3504 90.3129 -72.9861 90.1844 -72.8039C89.2419 -71.4998 89.5739 -69.927 88.9527 -68.5366C88.7278 -68.0188 88.9527 -67.3383 88.8885 -66.763C88.7278 -66.0246 88.9635 -64.9986 87.5819 -64.8452C87.5547 -64.3409 87.6346 -63.8362 87.8175 -63.3586C87.5498 -62.486 87.3249 -61.6038 87.0036 -60.7408C86.7894 -60.1463 86.4574 -59.5903 86.1897 -59.0149C86.0612 -58.756 85.7827 -58.4204 85.8791 -58.2574C86.4039 -57.3464 85.7077 -57.2984 84.9581 -57.2025C85.44 -56.3491 86.1897 -55.5625 85.5257 -54.5748L83.8336 -52.0821C83.8336 -52.0245 83.6622 -52.0052 83.6622 -51.9477L82.7947 -47.5848C80.535 -47.7574 80.4707 -45.8588 79.5818 -44.7081C78.693 -43.5574 77.9647 -42.3683 77.1187 -41.2176C76.7169 -40.6432 76.2426 -40.1124 75.705 -39.6355C75.019 -39.1205 74.3041 -38.637 73.5631 -38.1873C73.306 -38.0147 73.0811 -37.8035 72.7706 -37.5542L72.3529 -38.1971C71.1427 -37.4012 71.282 -35.6749 69.6541 -35.0324C68.5296 -34.5817 67.5122 -33.9584 66.2378 -33.3351L65.4024 -34.045L64.9526 -32.3669C64.3613 -32.3719 63.7842 -32.2042 63.3088 -31.8893C62.8334 -31.5744 62.4856 -31.1291 62.318 -30.6213C62.2905 -30.5636 62.248 -30.5125 62.194 -30.4725C62.14 -30.4324 62.076 -30.4048 62.0075 -30.3915C59.7477 -30.3435 58.5375 -28.4738 56.5562 -27.908C55.6888 -27.6683 54.8641 -27.3039 53.9538 -26.9491L53.3541 -27.5339C53.1399 -27.1983 52.99 -26.9107 52.7972 -26.6518C52.4331 -26.1724 52.1975 -25.5875 51.3086 -26.2491C50.6125 -26.767 48.9739 -25.7792 48.6954 -24.9545C47.9672 -24.9066 47.0783 -25.079 46.7891 -24.7817C45.9109 -23.8228 45.2148 -24.2542 44.3152 -24.6474C44.0853 -24.6811 43.8497 -24.6621 43.6304 -24.5917C43.4112 -24.5212 43.2156 -24.4016 43.0622 -24.2447C42.516 -23.0748 41.6057 -23.2861 40.6204 -23.593C40.5347 -23.593 40.4169 -23.6601 40.3526 -23.593C39.357 -23.1173 38.2641 -22.8269 37.1398 -22.7394C36.7542 -22.7394 36.2295 -22.2694 36.0688 -22.3845C35.9082 -22.4996 35.6833 -23.2667 35.4263 -23.8036Z" fill="#EFEFFA"/>
<path d="M-3.84296 97.2434C-3.27595 97.0327 -2.43075 96.7455 -1.60698 96.4008C-0.783203 96.056 -0.109211 95.7016 0.66107 95.3856C1.02481 95.2324 1.45271 95.2129 1.82716 95.0789C2.53325 94.8299 3.21794 94.5138 3.96683 94.2648C4.36635 94.1824 4.75949 94.0772 5.14369 93.9491C6.10654 93.4512 7.0266 92.9052 7.95736 92.3785C8.03225 92.3306 8.14993 92.2636 8.14993 92.1966C8.14993 90.5781 9.86165 90.53 10.878 89.8309C11.1241 89.6586 10.9742 88.8735 11.1775 88.8256C12.7502 88.318 12.5362 87.0635 12.8679 85.9526C13.0711 85.3014 13.8201 84.8132 14.2266 84.1907C14.5785 83.6033 14.8859 82.9951 15.1466 82.3708C15.703 81.145 16.2914 79.9193 16.7835 78.6744C16.8385 78.2641 16.8385 77.8493 16.7835 77.439C16.8584 76.3664 16.8798 75.2841 17.0081 74.2116C17.2007 72.5931 17.404 70.9653 17.6928 69.3564C17.8545 67.8093 17.7023 66.2487 17.2435 64.7501C17.0453 63.6196 16.97 62.4748 17.0189 61.3314C17.0189 61.1111 17.4896 60.9004 17.8534 60.594L16.7835 59.7892C16.9547 58.6784 17.1793 57.5771 17.2756 56.4566C17.3719 55.3362 17.3291 54.35 17.2756 53.2966C17.2803 53.0695 17.2013 52.8472 17.051 52.6644C15.9811 51.5726 16.6658 50.4812 17.051 49.3991C17.051 49.2363 17.3398 49.0352 17.2863 48.9586C16.3021 47.4168 17.4682 46.0854 17.7785 44.6968C17.9603 43.8637 17.9068 42.9827 18.0459 42.14C18.1529 41.575 18.4952 41.0483 18.5808 40.4833C18.8376 38.8169 18.9232 37.1411 19.2548 35.4939C19.3832 34.881 20.1321 34.3828 20.4423 33.7699C20.6486 33.1588 20.82 32.5388 20.9558 31.9121C21.1912 31.1938 21.587 30.9545 21.9615 31.5674L24.283 26.1086C24.7323 26.3864 25.0426 26.5686 25.5241 26.8559C25.4461 26.4953 25.4461 26.1246 25.5241 25.764C25.6631 25.5054 26.0804 25.3617 26.3799 25.1702C26.6795 24.9786 26.8506 24.9883 26.9041 24.8447C27.2465 23.887 28.5731 23.5997 28.7763 22.3739C28.894 21.6939 30.242 21.1767 31.0337 20.583C31.1621 20.4872 31.2798 20.3724 31.4082 20.2575L32.0715 20.8514C32.2212 20.6024 32.3924 20.3533 32.5315 20.0948C32.6706 19.8362 32.7775 19.2998 32.9166 19.2998C34.1148 19.2998 34.7353 18.3423 35.6661 17.9784C36.8001 17.5379 38.3193 17.777 39.3463 17.2312C41.2078 16.2735 43.2833 16.7333 45.2732 16.1108C45.7118 17.0684 46.5356 17.0686 47.4129 16.5227C48.0548 16.1014 48.4827 16.3216 49.1567 16.5227C51.1838 16.9683 53.2428 17.2883 55.319 17.4804C55.8646 18.8307 55.8646 18.8305 57.0949 18.0453C57.5025 18.7296 58.0816 19.3204 58.787 19.7707C59.4924 20.221 60.3047 20.5185 61.1603 20.6405C61.3991 20.679 61.6255 20.7643 61.8236 20.8897C62.4548 21.3494 63.086 21.8471 63.6851 22.3355C64.2445 22.8734 64.8451 23.3761 65.4824 23.8394C66.2848 24.3373 67.2155 24.6723 68.0714 25.1033C68.3228 25.246 68.5561 25.4131 68.7668 25.6013C70.4251 26.3291 71.9764 26.9132 73.3992 27.641C74.8221 28.3688 76.1166 29.1734 77.6786 29.7863C76.2236 28.369 74.7472 26.9898 73.3992 25.5246C72.9287 24.9553 72.6003 24.3021 72.4364 23.6093C71.5805 23.6093 71.0242 23.2837 70.9707 22.1728C70.9707 21.8472 69.9864 21.6174 69.6227 21.2152C68.4031 19.8457 66.6592 19.1083 65.1401 18.0836C64.4665 17.5177 63.8507 16.899 63.3 16.2352C63.1236 16.1078 62.9293 16.002 62.7222 15.9195C61.5775 15.3258 60.0798 15.2967 59.3095 14.0996C59.2453 13.9943 58.6141 14.186 58.6141 14.0328C58.1327 13.6378 57.5837 13.3145 56.9879 13.0751C55.9181 12.8261 55.0302 12.5486 54.9446 11.3899C54.9446 11.342 54.8055 11.2458 54.7413 11.2458C53.1258 11.2458 51.5318 11.2458 49.9056 11.2458C49.7986 11.2458 49.681 11.4855 49.5954 11.4759C48.2795 11.361 46.9743 11.2174 45.6584 11.0929C45.3357 11.0544 45.0104 11.0352 44.6848 11.0354C44.2329 11.0564 43.7828 11.1013 43.3368 11.1696C42.8019 11.2558 42.267 11.3705 41.732 11.4567C41.1971 11.5429 40.6622 11.6195 40.1273 11.6578C39.924 11.6578 39.6887 11.5047 39.5068 11.5526C37.6346 11.9739 35.7731 12.4045 33.9223 12.8642C33.6727 12.9248 33.4537 13.0604 33.3017 13.2476C33.2031 13.4428 33.0604 13.6177 32.8826 13.7611C32.7048 13.9044 32.4957 14.013 32.2685 14.0804C32.0414 14.1479 31.8011 14.1727 31.5628 14.1529C31.3245 14.1332 31.0934 14.0696 30.884 13.9659C30.1491 14.2759 29.4593 14.665 28.8298 15.1246C28.1879 15.7184 27.76 16.5229 27.193 17.1549C26.8293 17.538 26.6153 18.6872 25.631 17.6146C25.4749 17.6093 25.3192 17.6327 25.1738 17.6838C25.0284 17.7349 24.8963 17.8121 24.7859 17.9111C24.0263 18.8687 23.3844 19.9031 22.6462 20.8607C22.3894 21.1863 21.8652 21.3399 21.2554 21.6846C21.1774 22.508 20.9087 23.3075 20.4667 24.0329C20.0247 24.7584 19.4189 25.3937 18.6878 25.8982C18.3454 26.1664 18.2705 26.712 18.0673 27.1238C17.511 28.2251 17.1687 29.4509 15.5746 29.9968C17.1259 31.2034 15.2108 32.1613 15.1894 33.3775L14.4084 33.5496C14.4069 33.9192 14.3675 34.2877 14.2908 34.6508C13.6575 35.9782 13.2466 37.382 13.0712 38.8167C12.9276 40.2912 12.4815 41.7296 11.7553 43.0593C11.5627 43.4998 11.9371 44.1508 12.0548 44.7062C12.226 44.7062 12.3865 44.7062 12.5469 44.7062C12.1031 45.3838 11.7443 46.1034 11.4771 46.8516C11.463 47.2672 11.5778 47.6785 11.8088 48.0393C11.8088 49.1885 11.7339 50.0312 11.8088 50.9122C11.9371 52.1476 10.9957 53.4978 12.2902 54.6087C12.2902 54.6087 12.2902 54.7715 12.2902 54.8481C11.3594 56.4186 12.2901 57.8644 12.5148 59.3871C12.6917 60.7552 12.6917 62.1372 12.5148 63.5053C12.4819 64.0156 12.4819 64.5273 12.5148 65.0376C11.5413 65.7463 11.5413 65.8898 12.7716 66.3399C12.0227 67.5274 11.4022 68.7434 12.4506 69.6627C12.4506 70.9747 12.4506 72.0092 12.4506 73.0435C12.4506 74.0777 12.686 75.3897 12.6432 76.558C12.508 77.0968 12.2807 77.6137 11.9693 78.0903C11.2739 79.7088 10.6854 81.3656 9.88306 82.9361C9.24562 84.02 8.53092 85.066 7.74338 86.0677C7.21783 86.8723 6.64646 87.6521 6.03161 88.4043C5.47549 89.0044 4.83962 89.5414 4.13804 90.0035C2.81708 90.8987 1.44588 91.7328 0.0298388 92.5028C-0.708772 92.7926 -1.47989 93.0111 -2.27034 93.1542C-2.81595 93.317 -3.34012 93.499 -3.88573 93.6906C-4.05691 93.748 -4.18528 93.93 -4.34576 93.9491C-6.6459 94.246 -8.92466 94.6385 -11.2355 94.7726C-14.3059 95.007 -17.3905 95.0549 -20.4682 94.9161C-23.0213 94.6579 -25.5449 94.203 -28.0106 93.5564C-29.2837 93.2786 -29.0804 92.2539 -28.8985 91.3825C-28.8985 91.1622 -28.7594 90.9514 -28.6311 90.5684C-30.1823 91.7942 -30.1823 93.6619 -28.6845 94.4471C-27.2451 95.3219 -25.6699 96.0026 -24.0094 96.4677C-22.1692 96.8316 -20.3933 97.5784 -18.3285 97.2528C-16.927 97.0421 -15.3972 97.6645 -13.9208 97.7124C-12.6126 97.6959 -11.3075 97.5936 -10.0159 97.4061C-9.68429 97.4061 -9.30981 97.1953 -9.04235 97.2911C-8.34303 97.4963 -7.59728 97.5407 -6.87375 97.4202C-6.15023 97.2997 -5.47218 97.0185 -4.90209 96.6019C-4.91279 96.5923 -4.37788 96.9848 -3.84296 97.2434Z" fill="#EFEFFA"/>
<path d="M48.8227 95.3583L50.1021 96.3151C49.9301 96.8222 49.027 97.1571 50.1021 97.8078C50.6612 98.1426 50.6181 99.3479 50.7579 100.171C50.8547 100.774 50.7579 101.396 50.7579 102.008C50.7579 102.621 50.8332 102.965 50.8762 103.434C50.973 104.553 51.1449 105.673 51.1557 106.792C51.1051 107.425 50.9753 108.05 50.7687 108.658L50.1989 110.695C50.9192 111.356 50.2634 112.351 49.7903 113.355C49.3173 114.36 48.7152 115.566 48.0701 116.886C46.737 116.886 47.3176 118.551 46.436 119.211C45.7639 119.686 45.1954 120.266 44.7588 120.923C43.759 121.966 42.9204 122.904 42.0066 123.794C41.4288 124.325 40.8109 124.821 40.1574 125.277C39.7058 125.593 39.0823 125.775 38.7597 126.167C38.2437 126.904 37.8029 127.573 36.674 127.468C36.674 127.468 36.502 127.573 36.4913 127.65C36.2117 128.721 35.2871 129.104 34.2335 129.372C33.1755 129.598 32.2602 130.186 31.6855 131.008C31.0727 131.812 29.5998 132.156 28.4602 132.606C27.4926 132.979 26.6863 133.821 25.4499 133.563C24.5791 134.921 22.9664 134.873 21.5365 135.227C19.8378 135.658 18.2037 136.299 16.4942 136.672C15.5696 136.883 14.6773 137.629 13.6022 137.036C13.4947 136.978 13.2259 137.246 13.0109 137.294C10.9124 137.921 8.66578 138.046 6.49575 137.658C6.29148 137.61 6.14095 137.428 5.74316 137.476C6.08719 137.82 6.36672 138.308 6.81827 138.5C8.07267 139.277 9.59674 139.634 11.1187 139.504C13.9032 139.045 16.6985 138.595 19.4938 138.174C19.6873 138.174 19.9131 138.308 20.1281 138.394C20.4075 138.242 20.7027 138.114 21.0097 138.012C23.0954 137.38 25.2134 136.845 27.2561 136.098C28.7397 135.572 30.1158 134.807 31.5565 134.185C32.0833 133.945 32.6316 133.84 33.2229 133.611C33.8142 133.381 34.6098 133.85 34.3733 132.864C34.7066 132.864 35.0291 132.864 35.4484 132.921C35.5559 132.711 35.6097 132.252 35.8784 132.109C37.1148 131.458 38.4479 130.932 39.6735 130.262C40.3055 129.879 40.8831 129.429 41.3938 128.922C42.2646 128.157 43.716 127.889 43.9417 126.569C43.9417 126.502 44.0385 126.387 44.1137 126.377C46.6725 125.832 46.7155 123.028 49.0055 122.11C49.8225 121.785 50.0806 120.397 51.2309 119.957C51.5105 119.852 51.317 119.001 51.5965 118.637C52.0803 118.034 52.9081 117.68 52.8544 116.723C52.8512 116.188 53.003 115.661 53.2952 115.192C53.7037 114.513 54.2628 113.91 54.8648 113.116C54.6773 112.758 54.619 112.357 54.6979 111.968C54.7769 111.579 54.9892 111.222 55.3056 110.944C55.7357 110.466 55.4239 109.347 55.2196 108.552C55.0906 108.007 54.7035 107.595 55.4561 107.127C55.5729 107.015 55.6583 106.881 55.7051 106.735C55.7518 106.588 55.7586 106.434 55.7249 106.285C55.5113 105.988 55.4346 105.629 55.5107 105.284C55.5868 104.938 55.8099 104.632 56.1334 104.429C56.1334 103.204 56.1334 102.276 56.1334 101.348C56.1334 101.108 55.9614 100.869 55.9399 100.63C55.8716 99.4523 55.7208 98.2796 55.4884 97.1187C54.9938 95.2625 54.2413 93.464 53.6822 91.627C53.4237 90.6161 53.2228 89.594 53.0802 88.5651C51.661 87.6848 49.371 83.5898 49.9516 82.3843C48.4787 81.3414 48.3927 79.801 48.0271 78.3563C47.8635 77.9575 47.6659 77.5705 47.4359 77.1986C47.2844 76.836 47.1587 76.4652 47.0595 76.0886C46.9252 75.4785 46.6386 74.9032 46.221 74.4049L47.1133 73.2565C45.9522 73.0652 45.2641 72.7111 45.834 71.7064C45.834 71.6012 45.9415 71.4004 45.834 71.343C44.6083 70.2427 45.0599 68.712 44.5976 67.4107C43.82 65.3428 43.7713 63.1126 44.4578 61.0192C44.552 60.5997 44.6095 60.1741 44.6298 59.7467C44.9416 59.7467 45.3178 59.8329 45.7049 59.8807C45.7049 59.7181 45.7049 59.4886 45.5974 59.3547C44.9093 58.5893 43.802 57.8522 45.5974 57.0772C45.0921 55.6133 46.6725 54.5131 46.4575 53.1066C46.4575 52.81 46.35 52.5039 46.2855 52.2073L45.8769 52.1307L47.2961 50.753L46.6188 49.3851C48.4142 48.9545 49.0593 47.8063 48.984 46.2181C49.01 46.1196 49.0588 46.0269 49.1273 45.9462C49.1958 45.8654 49.2825 45.7982 49.3818 45.749C49.7584 45.5981 50.0832 45.361 50.3231 45.0618C50.563 44.7626 50.7093 44.4122 50.7471 44.0462C50.8331 43.4051 52.0158 42.9075 52.6609 42.3143C53.3059 41.7211 54.1445 40.8023 54.9616 40.1134C55.4671 39.7965 55.995 39.509 56.542 39.2524C57.0075 38.8654 57.4994 38.5045 58.0149 38.1714C59.125 37.7061 60.1832 37.1485 61.1757 36.5064C59.4125 36.803 57.6709 37.2241 55.8862 37.3772C54.1015 37.5303 52.6608 38.9845 50.7471 38.554C49.5108 39.5108 48.1131 40.4679 46.8553 41.4916C46.2235 42.1508 45.6383 42.8442 45.1028 43.5678C44.8125 43.8739 44.3718 44.0651 44.2643 44.3713L41.3185 49.7869C40.5767 49.4137 40.1466 49.6334 40.1574 50.5997C40.1574 51.0207 39.7058 51.4418 39.738 51.8532C39.8348 53.3649 38.5985 54.7811 39.3618 56.3503C39.4054 56.4886 39.4074 56.6347 39.3678 56.774C39.3282 56.9133 39.2483 57.0412 39.136 57.1445C37.1255 58.3787 38.9317 59.747 38.9425 61.0291C38.931 62.5615 39.0388 64.0929 39.265 65.6121C39.4585 66.6454 38.2867 67.5255 39.0177 68.5301C38.0932 69.0085 38.3834 69.3912 39.0177 70.0036C39.4693 70.4724 39.3187 71.4291 39.7918 71.8405C40.9314 72.7973 40.1143 73.9742 40.4154 75.0075C40.5014 75.3041 40.4154 75.8114 40.6089 75.8975C42.1785 76.6629 42.0818 78.1841 42.7591 79.3705C43.2429 80.2699 43.8342 81.131 44.2535 82.04C44.4782 82.6136 44.6332 83.2071 44.7158 83.8101C44.7158 84.0302 44.5653 84.4318 44.6513 84.4796C45.1043 84.745 45.4889 85.093 45.7799 85.5004C46.0708 85.9077 46.2615 86.3654 46.3392 86.8431C46.8563 87.8741 47.5251 88.8393 48.3281 89.7134C48.5002 89.9526 48.726 90.383 48.6184 90.517C47.8659 91.4259 48.8335 91.9904 49.242 92.4305C49.9731 93.5117 49.8763 94.3346 48.8227 95.3583Z" fill="#EFEFFA"/>
</g>
<path d="M41.3332 45.3333H31.9998C31.6462 45.3333 31.3071 45.4738 31.057 45.7238C30.807 45.9739 30.6665 46.313 30.6665 46.6666V56C30.6665 56.3536 30.807 56.6927 31.057 56.9428C31.3071 57.1928 31.6462 57.3333 31.9998 57.3333H41.3332C41.6868 57.3333 42.0259 57.1928 42.276 56.9428C42.526 56.6927 42.6665 56.3536 42.6665 56V46.6666C42.6665 46.313 42.526 45.9739 42.276 45.7238C42.0259 45.4738 41.6868 45.3333 41.3332 45.3333ZM39.9998 54.6666H33.3332V48H39.9998V54.6666ZM55.9998 30.6666H46.6665C46.3129 30.6666 45.9737 30.8071 45.7237 31.0572C45.4736 31.3072 45.3332 31.6463 45.3332 32V41.3333C45.3332 41.6869 45.4736 42.0261 45.7237 42.2761C45.9737 42.5262 46.3129 42.6666 46.6665 42.6666H55.9998C56.3535 42.6666 56.6926 42.5262 56.9426 42.2761C57.1927 42.0261 57.3332 41.6869 57.3332 41.3333V32C57.3332 31.6463 57.1927 31.3072 56.9426 31.0572C56.6926 30.8071 56.3535 30.6666 55.9998 30.6666ZM54.6665 40H47.9998V33.3333H54.6665V40ZM55.9998 45.3333H46.6665C46.3129 45.3333 45.9737 45.4738 45.7237 45.7238C45.4736 45.9739 45.3332 46.313 45.3332 46.6666V56C45.3332 56.3536 45.4736 56.6927 45.7237 56.9428C45.9737 57.1928 46.3129 57.3333 46.6665 57.3333H55.9998C56.3535 57.3333 56.6926 57.1928 56.9426 56.9428C57.1927 56.6927 57.3332 56.3536 57.3332 56V46.6666C57.3332 46.313 57.1927 45.9739 56.9426 45.7238C56.6926 45.4738 56.3535 45.3333 55.9998 45.3333ZM54.6665 54.6666H47.9998V48H54.6665V54.6666ZM41.3332 30.6666H31.9998C31.6462 30.6666 31.3071 30.8071 31.057 31.0572C30.807 31.3072 30.6665 31.6463 30.6665 32V41.3333C30.6665 41.6869 30.807 42.0261 31.057 42.2761C31.3071 42.5262 31.6462 42.6666 31.9998 42.6666H41.3332C41.6868 42.6666 42.0259 42.5262 42.276 42.2761C42.526 42.0261 42.6665 41.6869 42.6665 41.3333V32C42.6665 31.6463 42.526 31.3072 42.276 31.0572C42.0259 30.8071 41.6868 30.6666 41.3332 30.6666ZM39.9998 40H33.3332V33.3333H39.9998V40Z" fill="#171952"/>
</g>
<defs>
<clipPath id="clip0_98_916">
<rect width="88" height="88" fill="white" transform="translate(88) rotate(90)"/>
</clipPath>
</defs>
</svg>
