<svg width="88" height="88" viewBox="0 0 88 88" fill="none" xmlns="http://www.w3.org/2000/svg">
<g clip-path="url(#clip0_98_871)">
<path d="M34.4316 3.17587C35.9026 3.31544 37.3859 3.31544 38.8569 3.17587C46.6205 2.37333 52.8313 -0.313081 60.9054 0.0358493C63.7721 0.0623181 66.5816 0.758402 69.0571 2.05821C74.7633 5.5475 72.9389 10.608 75.1515 15.3186C77.3726 18.683 79.7824 21.9432 82.3715 25.0879C87.0724 32.827 88.8439 41.7312 87.4181 50.4551C85.1666 66.3663 74.3752 76.3109 60.9443 84.6155C58.0363 86.2667 54.7761 87.3525 51.3732 87.8032C47.9704 88.2539 44.5001 88.0595 41.1859 87.2324C34.4975 85.8027 27.9121 84.0081 21.4664 81.8588C18.8998 80.7762 16.4449 79.4915 14.13 78.0202C11.6457 76.7641 9.16134 75.5428 6.63818 74.5309C-0.581928 71.251 -1.43594 69.9952 1.28131 63.54C2.7745 59.8197 3.13614 55.8083 2.32923 51.9204C-0.349199 33.3224 -4.50255 18.9476 12.9267 6.80487C15.3241 4.93643 18.1261 3.53392 21.156 2.68689C25.5761 2.09848 30.0799 2.26468 34.4316 3.17587Z" fill="#C5DAFA"/>
<mask id="mask0_98_871" style="mask-type:alpha" maskUnits="userSpaceOnUse" x="-1" y="0" width="89" height="89">
<path d="M34.5337 3.17111C36.0047 3.31068 37.488 3.31068 38.959 3.17111C46.7225 2.36857 52.9334 -0.317841 61.0075 0.0310885C63.8742 0.0575573 66.6836 0.753641 69.1591 2.05345C74.8653 5.54274 73.0409 10.6032 75.2535 15.3138C77.4747 18.6783 79.8844 21.9384 82.4736 25.0831C87.1744 32.8223 88.9459 41.7264 87.5201 50.4504C85.2687 66.3615 74.4773 76.3062 61.0463 84.6107C58.1383 86.2619 54.8781 87.3477 51.4753 87.7984C48.0724 88.2491 44.6022 88.0548 41.2879 87.2277C34.5996 85.7979 28.0142 84.0033 21.5684 81.854C19.0018 80.7715 16.5469 79.4867 14.232 78.0154C11.7477 76.7593 9.26339 75.5381 6.74023 74.5262C-0.479877 71.2462 -1.33389 69.9904 1.38336 63.5352C2.87655 59.8149 3.23819 55.8036 2.43128 51.9156C-0.247148 33.3177 -4.4005 18.9429 13.0287 6.80011C15.4262 4.93167 18.2281 3.52916 21.2581 2.68213C25.6781 2.09372 30.1819 2.25992 34.5337 3.17111Z" fill="#FED9B3"/>
</mask>
<g mask="url(#mask0_98_871)">
<path d="M114.755 -11.672C114.86 -11.8592 114.932 -12.0598 114.969 -12.2666C114.969 -12.8036 114.079 -13.3501 114.969 -13.8871C114.969 -13.8871 114.969 -14.261 114.83 -14.3473C113.875 -15.1145 114.24 -16.083 114.251 -17.0035C114.251 -18.135 114.165 -19.2569 114.133 -20.3788C114.133 -20.5802 114.057 -20.9157 114.133 -20.9636C115.678 -21.6828 114.615 -22.6225 114.412 -23.6006L115.356 -23.7635C115.248 -24.0703 115.098 -24.4158 115.002 -24.7706C114.905 -25.1254 114.637 -25.7292 114.819 -25.9018C116.042 -26.8607 115.163 -28.7784 116.965 -29.4209C117.287 -29.5359 117.394 -30.3798 117.394 -30.84C117.394 -32.029 118.36 -32.5952 119.701 -32.1828C119.883 -32.1253 120.28 -32.5949 120.634 -32.873L119.754 -33.8993C120.345 -34.2157 120.902 -34.5609 121.514 -34.8582C122.126 -35.1555 123.005 -34.9925 122.673 -36.0952C122.598 -36.3637 123.574 -37.0539 124.196 -37.284C124.818 -37.5141 125.612 -38.7128 126.696 -37.7826C126.971 -38.0052 127.219 -38.2527 127.436 -38.521C127.704 -38.9429 127.855 -39.4127 128.101 -39.8442C128.149 -39.9115 128.212 -39.9696 128.286 -40.0141C128.359 -40.0587 128.443 -40.0888 128.531 -40.1031C130.483 -40.314 130.483 -40.362 131.685 -42.0209C132.165 -42.5603 132.712 -43.0493 133.316 -43.4784C134.667 -44.6483 136.084 -45.7703 137.36 -47.0073C138.433 -48.0813 139.41 -49.2797 140.429 -50.4304L140.193 -50.7183C140.622 -50.7183 141.051 -50.6605 141.684 -50.6317L141.931 -52.329C144.046 -55.5001 145.886 -58.8117 147.435 -62.2344C148.508 -61.8029 149.419 -62.5703 149.323 -63.9031C149.259 -64.7469 148.786 -65.533 149.988 -66.2521C150.428 -66.511 150.128 -67.7577 150.203 -68.544C150.201 -68.8065 150.295 -69.0621 150.471 -69.2725C151.286 -69.9821 151.061 -70.9315 151.318 -71.7658C151.608 -72.5887 152 -73.38 152.488 -74.1246C152.552 -74.2397 153.078 -74.1246 153.561 -74.1246C152.284 -74.9588 152.724 -75.7354 153.432 -76.6272C154.464 -77.9551 155.153 -79.4719 155.449 -81.0672C155.662 -81.6693 155.997 -82.2314 156.436 -82.7261L157.756 -89.3325C156.275 -87.6257 155.61 -85.689 153.689 -84.8068C152.992 -84.2123 152.327 -83.6847 151.726 -83.1189C151.207 -82.7366 150.795 -82.2505 150.525 -81.6998C150.456 -81.3103 150.271 -80.9448 149.99 -80.6411C149.709 -80.3374 149.341 -80.1069 148.926 -79.9739C148.733 -79.9068 148.465 -79.7343 148.465 -79.6097C148.583 -78.8912 148.583 -78.1608 148.465 -77.4423C148.078 -76.4834 147.156 -75.7741 146.769 -74.8536C146.276 -73.7221 144.409 -73.0697 145.364 -71.3533C145.456 -71.1662 145.502 -70.9643 145.5 -70.76C145.498 -70.5558 145.448 -70.3543 145.353 -70.1687C145.258 -69.983 145.12 -69.8173 144.948 -69.6827C144.776 -69.5481 144.574 -69.4476 144.356 -69.3877C144.13 -69.3302 143.787 -69.0425 143.819 -68.9083C144.109 -67.3357 142.746 -66.2041 142.478 -64.7754C142.252 -63.8027 141.892 -62.8593 141.405 -61.9661C141.083 -61.5182 140.724 -61.0918 140.332 -60.6907C140.098 -60.3843 139.964 -60.0256 139.946 -59.655C139.946 -58.9646 140.246 -58.2262 138.927 -58.3796C138.699 -58.0994 138.565 -57.7667 138.54 -57.4208C138.54 -56.9892 138.841 -56.4139 137.875 -56.644L137.543 -55.4936L138.026 -55.0142C137.232 -54.832 136.448 -54.6593 135.429 -54.4387L135.311 -53.1441C134.303 -52.4921 133.165 -51.7439 132.007 -50.996C131.947 -50.9588 131.896 -50.9104 131.859 -50.8541C131.822 -50.7978 131.799 -50.7351 131.792 -50.6701C131.899 -49.3277 130.59 -48.8099 129.764 -48.0907C128.938 -47.3716 128.573 -45.9332 126.9 -46.173C126.739 -44.7346 124.99 -44.6386 124.261 -43.6605C123.649 -42.8359 122.909 -42.0691 121.61 -42.2704C120.699 -42.4143 120.538 -41.8773 120.334 -41.3115L119.915 -39.9495C118.456 -40.7454 118.07 -40.5732 117.351 -38.8951C117.15 -38.4574 116.828 -38.0723 116.415 -37.7756C116.002 -37.4789 115.512 -37.2801 114.991 -37.1978C115.227 -36.354 114.894 -35.9031 113.8 -35.5291C112.915 -35.1669 112.212 -34.5248 111.826 -33.7265C111.139 -32.2498 110.86 -30.6199 110.238 -29.1048C110.002 -28.5295 109.283 -28.1456 108.704 -27.5415C109.466 -26.8607 109.23 -25.9689 108.521 -25.1059C108.15 -24.6587 107.923 -24.1293 107.864 -23.5748C107.805 -23.0204 107.918 -22.4623 108.189 -21.9609C108.253 -21.8075 108.028 -21.5679 107.985 -21.3569C107.771 -20.5186 107.61 -19.6703 107.502 -18.8159C107.502 -18.6529 108.028 -18.4416 108.382 -18.2115L107.76 -17.3294C108.65 -16.639 108.661 -16.2171 107.888 -15.2486C107.834 -15.1672 107.8 -15.0762 107.789 -14.9818C107.778 -14.8874 107.79 -14.792 107.824 -14.7022C108.403 -13.542 109.015 -12.391 109.605 -11.2403C109.768 -10.9783 109.877 -10.6927 109.927 -10.3966C110.024 -9.09249 110.034 -7.78832 110.152 -6.48423C110.213 -6.12392 110.397 -5.78912 110.678 -5.52533C110.897 -5.352 111.074 -5.14074 111.198 -4.90402C111.322 -4.66729 111.391 -4.41013 111.4 -4.14879C111.409 -3.88746 111.358 -3.62734 111.251 -3.38421C111.143 -3.14108 110.981 -2.92036 110.774 -2.73527C111.375 -0.712002 112.051 1.25402 110.968 3.32524C110.463 4.28413 110.292 5.45402 109.895 6.48003C109.39 7.69783 108.822 8.88684 108.221 10.0567C107.824 10.8046 107.223 11.4759 106.848 12.2334C106.705 12.5801 106.636 12.9474 106.644 13.3168C106 13.9976 105.335 14.4005 105.185 14.9087C104.906 15.8676 103.951 15.3114 103.329 15.7333L103.94 16.6922L102.513 18.6099L102.417 18.4662C101.87 18.9552 100.85 19.4249 100.861 19.9523C100.861 21.2372 99.9063 21.6016 99.048 22.1674C98.4364 22.5701 97.8356 23.0303 99.048 23.7111C97.4816 23.8837 98.4365 26.2522 96.3765 25.8686C96.0325 26.5368 95.627 27.1782 95.1642 27.7864C94.5097 28.5439 93.6514 29.1578 93.0184 29.8961C92.3854 30.6345 91.6451 31.6029 90.9585 32.4563C90.8834 32.5522 90.7547 32.7246 90.6688 32.7054C89.1775 32.4848 88.802 33.7314 88.5767 34.4027C88.4898 34.8395 88.219 35.2301 87.8199 35.4941C87.4209 35.758 86.9238 35.8752 86.431 35.8218C86.0329 35.8944 85.6495 36.0206 85.2937 36.1959L85.6156 36.9633C85.0148 37.9222 84.5427 38.6603 84.1029 39.3507C83.8454 39.6959 83.384 39.926 83.1158 40.3096C82.1073 41.6137 81.1846 42.9848 80.1332 44.2697C79.4358 45.1327 78.5668 45.8902 77.569 46.9067C77.3437 47.4724 77.0433 48.3835 76.6249 49.2561C76.4532 49.6013 75.9168 49.8122 75.7559 50.1574C75.2623 51.2314 74.0929 51.9792 74.0929 53.36C74.0929 53.9257 73.1059 54.482 72.4944 55.134C73.2561 55.8244 72.784 56.6396 72.4944 57.6273C72.2047 58.6149 71.2284 59.6983 71.6361 61.0311C71.6845 61.8372 71.5976 62.6453 71.3785 63.4284C71.3034 64.6749 71.3034 65.9315 71.2713 67.1876L71.2713 68.7889C71.046 68.8752 70.8099 68.9613 70.5846 69.0572C70.9212 69.1898 71.2413 69.354 71.5395 69.5465C71.7862 69.7191 72.1403 70.0163 72.0974 70.208C71.6253 72.4135 73.1702 74.1108 73.8032 76.0574C74.0071 76.7861 74.0822 77.5435 74.2646 78.2818C74.2646 78.4257 74.5543 78.531 74.9191 78.8282C74.2324 79.7871 75.4018 79.7009 76.2494 79.7871C75.9812 80.2292 75.8893 80.7399 75.9887 81.2348C76.0882 81.7298 76.3731 82.1797 76.7966 82.5107C77.2567 82.8077 77.6054 83.222 77.7969 83.6995C77.9884 84.177 78.0137 84.6955 77.8695 85.1861C77.6656 85.9532 78.1806 86.8638 78.32 87.7172C78.4166 88.3597 78.3844 89.0117 78.4488 89.635C78.4488 90.1336 78.6097 90.5942 78.6955 91.1216C78.6955 91.4284 78.953 91.8023 78.8243 92.0229C77.9445 93.4804 78.1805 94.9858 78.4273 96.5008C78.4273 96.6638 78.1913 96.8461 78.1806 97.0187C78.1806 97.6803 77.2686 98.2459 78.0518 99.061C78.2449 99.2624 77.7514 100.394 77.2687 100.662C75.8954 101.42 76.6249 101.89 77.2687 102.36L76.1958 106.377C76.1958 106.521 76.2494 106.78 76.1958 106.828C74.211 107.95 74.801 110.203 73.5457 111.67C73.2775 111.977 73.7496 112.888 73.4814 113.089C72.4085 113.857 72.4085 115.007 71.8721 115.889C71.2851 116.583 70.9148 117.404 70.7992 118.268C70.7353 118.673 70.5411 119.053 70.2401 119.361C69.9391 119.669 69.5444 119.892 69.104 120.003C68.5569 120.799 68.1277 121.47 67.6557 122.113C66.8605 123.35 65.9488 124.524 64.9306 125.623C64.3298 126.188 64.5873 127.655 62.7097 127.205L63.2247 128.01L58.268 132.853L57.6457 132.584C57.5814 132.641 57.4741 132.699 57.4634 132.766C57.4257 133.142 57.2883 133.504 57.0626 133.822C56.8368 134.141 56.5291 134.407 56.1652 134.598C54.0194 136.084 52.2814 138.021 50.1571 139.536C48.58 140.648 47.7753 142.556 45.5545 143.017C45.1361 143.112 44.943 143.87 44.4816 144.187C43.3122 145.078 42.0891 145.893 40.866 146.728C39.6429 147.562 38.2267 148.646 36.8105 149.413C35.7377 150.026 34.8472 151.532 32.9267 150.621C33.2476 150.937 33.6075 151.22 33.9996 151.464C35.0725 151.982 37.2182 151.541 38.1624 150.841C38.9134 150.285 39.8468 149.883 40.6515 149.413C41.7887 148.684 42.883 147.888 43.9988 147.13C44.3099 146.919 44.6533 146.574 44.9966 146.555C46.7239 146.507 47.3139 144.982 48.6443 144.388C49.8743 143.673 51.002 142.826 52.0024 141.866L53.7727 140.572C54.5881 140.687 55.0816 140.274 55.2961 139.229C55.4045 138.954 55.5846 138.706 55.8216 138.506C56.0586 138.306 56.3456 138.159 56.6587 138.078C58.3968 137.8 58.6436 136.161 60.0276 135.461C61.1648 134.914 61.9158 133.706 62.7526 132.728C62.9779 132.478 62.7527 131.692 63.3857 132.526C63.3857 132.526 63.7183 132.45 63.729 132.383C63.8685 131.759 63.9864 131.155 64.9413 131.261C64.7267 130.58 65.2846 130.446 65.7567 130.081C66.7388 129.234 67.6296 128.306 68.4174 127.31C68.5784 127.128 68.4174 126.696 68.5569 126.514C70.2594 124.881 71.6056 122.979 72.5265 120.905C73.0697 120.048 73.7213 119.25 74.4684 118.526C75.1121 117.673 75.6379 116.743 76.2601 115.88C76.4103 115.679 76.7537 115.592 76.9361 115.487C76.8912 115.042 76.9348 114.594 77.0648 114.164C77.6656 113.109 78.4702 112.15 79.0389 111.086C79.2952 110.471 79.4401 109.823 79.468 109.168C79.5333 107.957 79.6982 106.752 79.9615 105.563C80.1117 105.064 81.0344 104.767 81.3241 104.604C81.2006 103.906 81.1753 103.197 81.249 102.494C81.8069 100.413 82.4828 98.3513 83.1051 96.2897C83.1373 96.1215 83.1373 95.9498 83.1051 95.7817C82.9065 94.0891 82.9065 92.3825 83.1051 90.6899C83.1901 89.5344 83.3549 88.3849 83.5986 87.2476C84.0492 86.0586 82.9119 85.9816 82.3326 85.5021L82.7188 85.3776C82.3942 84.2513 81.9562 83.1538 81.4099 82.0982C80.839 81.208 80.4502 80.2338 80.2619 79.2215C79.7122 77.2139 78.9949 75.2457 78.1162 73.3338C78.0411 73.1324 77.9875 72.9312 77.9338 72.7298C77.6871 71.7709 77.3866 70.86 77.2257 69.9107C77.1702 69.2372 77.1702 68.5611 77.2257 67.8876C75.3482 67.1876 77.5368 65.2217 76.5498 64.1382L78.4703 56.659C79.232 56.9275 79.9293 57.3298 79.6289 55.9586C79.4573 55.2298 80.0796 54.3573 80.4014 53.3984C81.9142 53.3409 81.3884 51.778 82.0429 50.9342C83.1158 49.5246 83.0514 47.5491 84.8646 46.3888C86.0445 45.4988 87.1227 44.5064 88.0832 43.426C88.2844 43.1562 88.4331 42.858 88.5231 42.5439C88.5847 42.3365 88.6824 42.1393 88.8127 41.9591C89.9929 40.8851 91.6344 39.9932 92.2459 38.7083C92.718 37.7015 93.8982 37.3561 94.2201 36.1383C94.4575 35.5029 94.896 34.9428 95.4826 34.5258C96.0691 34.1088 96.7785 33.8531 97.5245 33.7893C97.781 33.7263 98.0148 33.6048 98.2029 33.4367C98.391 33.2686 98.5269 33.0596 98.5974 32.8304C98.6815 31.9376 99.0219 31.0794 99.5857 30.3386C100.15 29.5978 100.918 28.9993 101.816 28.6015C101.966 28.5248 102.031 28.084 101.945 27.873C101.677 27.2018 101.677 27.1443 102.352 27.173C102.857 27.139 103.337 26.9626 103.722 26.6697C104.108 26.3768 104.379 25.9823 104.498 25.5427C104.801 24.9475 105.195 24.3923 105.668 23.8932C106.225 23.1165 106.74 22.3303 107.298 21.5536L106.977 21.2853L108.167 21.2853C108.039 20.4511 107.878 19.6744 109.122 19.3675C109.326 19.3675 109.487 18.7442 109.466 18.4086C109.46 17.7651 109.672 17.1352 110.074 16.6013C110.476 16.0675 111.05 15.6544 111.719 15.4168C111.92 15.2994 112.08 15.1331 112.18 14.9373C111.311 14.1318 112.373 13.5662 112.523 12.9142C112.753 12.3379 113.082 11.7976 113.5 11.3129C113.619 11.1575 113.71 10.9856 113.768 10.8044C114.143 9.36608 114.261 7.78417 116.74 7.47732C115.27 6.67185 115.409 6.03865 116.418 5.21399C116.602 5.06855 116.752 4.89117 116.857 4.69241C116.963 4.49365 117.022 4.27777 117.031 4.05799C117.04 3.83819 116.999 3.61933 116.91 3.4142C116.821 3.20906 116.686 3.02214 116.514 2.86499C116.443 2.79702 116.387 2.71714 116.351 2.62995C116.314 2.54274 116.296 2.44966 116.3 2.35651C116.577 1.62846 116.803 0.885601 116.976 0.132046C117.083 -0.711781 116.868 -1.59391 116.976 -2.44732C117.083 -3.30073 116.278 -4.23077 117.405 -4.98829C117.577 -5.11295 117.308 -5.94756 117.04 -6.33112C116.229 -7.51129 115.822 -8.87774 115.871 -10.2622C115.871 -10.7512 115.388 -11.2214 115.12 -11.7488L114.755 -11.672Z" fill="#E3F0FC"/>
<path d="M35.5283 -23.8085C35.2284 -23.3866 35.0035 -22.6771 34.4574 -22.4278C33.6989 -21.9824 32.7844 -21.8018 31.887 -21.9197C31.7196 -21.9967 31.5325 -22.0326 31.3444 -22.0242C31.1564 -22.0157 30.9741 -21.9631 30.8161 -21.8715C29.4238 -21.2291 27.7853 -21.7755 26.4359 -21.2769C25.2244 -20.9211 23.9349 -20.8323 22.6768 -21.018C22.5269 -21.018 22.377 -20.836 22.2163 -20.7497C21.1931 -20.1991 20.1385 -19.6968 19.057 -19.2444C18.7143 -19.1101 17.9861 -18.3714 17.6862 -19.3783C17.6736 -19.396 17.6561 -19.4108 17.6355 -19.4209C17.6149 -19.4309 17.5918 -19.4359 17.5683 -19.4359C16.0476 -18.9948 14.5375 -18.5538 12.9739 -18.0935C12.085 -19.177 9.579 -18.4577 8.69011 -17.4605C8.32598 -17.0481 7.77977 -16.5015 7.26572 -16.5015C5.79683 -16.3215 4.3956 -15.8354 3.17465 -15.0824C2.79321 -14.9372 2.3759 -14.8847 1.96446 -14.9293C1.57171 -14.9601 1.18175 -15.0145 0.797154 -15.0922L0.797154 -14.1909C-0.0167767 -13.9032 -0.86285 -13.625 -1.6982 -13.3181C-1.85884 -13.2606 -2.06234 -13.0113 -2.11589 -13.04C-3.62594 -13.8551 -3.52952 -12.6088 -3.75442 -11.8704C-4.38629 -12.1293 -4.87895 -12.3209 -5.52153 -12.5798C-5.73572 -10.0291 -7.89902 -8.92634 -9.70894 -7.5647C-9.81604 -7.48798 -10.0089 -7.38235 -10.0838 -7.41112C-11.7652 -8.3029 -11.2833 -6.90301 -11.4653 -6.32767C-11.808 -5.25369 -11.9044 -4.09341 -13.2003 -3.45094C-13.4252 -3.34546 -13.5109 -2.95225 -13.618 -2.67417C-14.2834 -0.543815 -15.2251 1.50933 -16.4239 3.44355C-16.6381 3.7504 -16.5417 4.22984 -16.6059 4.62299C-16.6916 5.16956 -16.8094 5.71635 -16.8737 6.27252C-16.9272 6.54853 -16.9272 6.83039 -16.8737 7.10641C-16.5718 8.09176 -16.3464 9.09496 -16.1989 10.1081C-16.2632 10.9164 -16.4358 11.7148 -16.713 12.4862C-16.7665 12.6876 -16.8951 13.0327 -16.8094 13.0902C-15.203 14.1546 -17.3342 16.1585 -15.535 17.1557C-16.2418 17.9133 -15.6206 18.6327 -15.385 19.3231C-15.0423 20.282 -14.4854 21.193 -14.132 22.1998C-13.725 23.3218 -13.468 24.4917 -13.061 25.6136C-12.6541 26.7355 -13.061 28.0971 -11.8937 29.1519C-11.3368 29.6601 -11.4118 30.7147 -11.1333 31.501C-10.6086 32.9585 -9.9981 34.3779 -9.50546 35.8451C-9.29558 36.5702 -9.16645 37.3123 -9.11993 38.0602C-8.99142 39.3164 -8.84146 40.5819 -8.83075 41.8476C-8.83075 42.8065 -9.09852 43.8518 -9.05568 44.8395C-8.99142 46.1149 -8.90573 46.1148 -9.97669 46.6422C-9.46263 48.4641 -11.3154 49.519 -11.7116 51.0916C-11.8611 51.4899 -12.0511 51.8753 -12.2793 52.2425C-13.5858 53.4124 -15.0209 54.7452 -16.5631 56.0205C-17.6341 56.8835 -19.112 57.2574 -19.776 58.504C-21.5002 58.2738 -21.9179 59.856 -23.1066 60.4218C-23.7921 60.7574 -24.4561 61.1219 -25.1201 61.4959C-26.2553 62.1383 -27.2619 63.078 -28.8362 62.6369C-29.4039 64.3821 -31.2995 62.3494 -31.9206 63.4905C-32.5525 63.2603 -33.088 63.059 -33.6984 62.8289L-34.3089 61.0258L-34.8336 61.0258C-34.9622 62.2915 -35.1335 63.5481 -35.1977 64.8043C-35.262 66.0604 -34.0519 65.3988 -33.5699 65.5043C-31.7584 65.9075 -29.858 65.8574 -28.0759 65.36C-26.8657 64.9957 -25.677 64.5738 -24.4561 64.219C-23.8242 64.0272 -23.1495 63.922 -22.1642 63.711C-21.6501 63.3466 -20.7827 62.7519 -19.9045 62.119C-19.3797 61.7547 -18.8335 61.3902 -18.2981 61.0642C-17.7626 60.7381 -17.3449 60.6519 -16.9058 60.4026C-15.5778 59.6259 -14.2391 58.8683 -12.9861 58.0053C-12.4934 57.6697 -12.2578 57.0467 -11.8509 56.596C-11.4439 56.1453 -11.0584 55.8765 -10.4801 55.3683C-10.8656 54.1601 -9.25913 54.6107 -8.48804 54.1313C-8.68081 53.5655 -9.2806 52.7314 -7.80268 52.8657C-7.80268 51.9068 -6.21766 51.6287 -6.73172 50.4684C-6.8281 50.2575 -6.33545 49.6917 -5.98203 49.5095C-5.11456 48.9725 -4.4934 48.4644 -5.30733 47.4863C-5.39542 47.3714 -5.45445 47.2403 -5.48035 47.1029C-5.50624 46.9654 -5.49839 46.8248 -5.45728 46.6904C-4.90855 45.7011 -4.41879 44.6865 -3.99007 43.6507C-3.90931 42.9307 -3.94535 42.204 -4.09714 41.4932C-4.09714 40.774 -4.6112 39.9971 -3.8294 39.4218C-4.14611 39.0706 -4.38919 38.6711 -4.54692 38.2423C-4.77182 37.0533 -4.54691 35.7106 -5.07168 34.675C-5.55893 33.6877 -5.83503 32.6276 -5.88562 31.5492C-5.982 30.4273 -6.95661 29.5452 -6.721 28.2698C-6.62461 27.6561 -7.56703 26.9082 -7.96328 26.189C-8.07037 26.0164 -7.8562 25.7094 -7.84549 25.46C-7.83478 25.2107 -7.78125 24.7698 -7.93118 24.6931C-9.21633 24.0314 -8.82008 22.7082 -9.39839 21.8164C-9.56645 21.3971 -9.68485 20.9631 -9.75176 20.5218C-9.19486 20.0327 -8.78796 19.3901 -9.88034 18.6517C-10.1695 18.4599 -10.0624 17.8462 -10.2766 17.4915C-10.5979 16.9353 -9.51621 15.9861 -10.887 15.7272C-10.887 15.7272 -10.9941 15.4012 -10.9513 15.267C-10.555 14.2409 -11.2725 13.3491 -11.2939 12.3902C-11.2349 12.0581 -11.1231 11.7352 -10.9619 11.4313C-10.8872 11.2734 -10.8472 11.1041 -10.8442 10.9327C-11.0369 9.72445 -11.3047 8.51619 -11.4011 7.29838C-11.4011 6.94358 -10.9834 6.55983 -10.7264 6.1475L-11.1119 4.96806L-9.92315 4.45021C-10.1205 4.14639 -10.282 3.82503 -10.4051 3.4913C-10.7906 1.90911 -9.33409 0.931024 -8.82003 -0.344321C-8.62303 -0.893058 -8.28347 -1.39207 -7.82921 -1.80047C-7.37495 -2.20888 -6.81894 -2.51473 -6.20689 -2.69337C-5.78922 -2.8372 -5.58577 -3.47014 -5.03958 -4.18932C-5.46797 -5.14823 -4.46127 -5.92493 -3.10115 -6.32767C-1.97933 -6.7701 -0.956146 -7.39075 -0.0810431 -8.15933C0.690048 -8.70591 1.3862 -9.39604 2.56426 -9.07001C2.7249 -9.07001 2.99259 -9.40559 3.24962 -9.51107C3.73155 -9.71244 4.24564 -9.87574 4.74899 -10.0387C5.25234 -10.2018 5.57364 -10.2786 6.09841 -10.4321C6.79173 -10.6309 7.45388 -10.9079 8.06894 -11.2566C8.38676 -11.5567 8.7907 -11.7725 9.2365 -11.8807C9.68231 -11.989 10.1528 -11.9856 10.5964 -11.8704C11.1445 -11.8386 11.6941 -11.9069 12.2115 -12.0717C12.729 -12.2366 13.2034 -12.4946 13.6058 -12.8293C14.3234 -13.4047 14.7303 -13.2608 15.4264 -13.069C16.0756 -12.956 16.7357 -12.901 17.397 -12.9056L17.547 -13.5387C18.1467 -13.5962 18.8 -13.5386 18.8642 -13.6824C19.6139 -15.5043 21.2739 -14.6417 22.6018 -14.7471C22.7197 -14.7471 22.8803 -14.6032 22.9767 -14.632C24.3261 -15.0251 25.6648 -15.4372 27.132 -15.8783L27.8496 -15.1306C28.5243 -15.4758 29.2204 -15.8019 29.8737 -16.1855C30.527 -16.5691 30.9446 -16.7033 31.4373 -15.9458C31.5735 -15.8209 31.7452 -15.7313 31.934 -15.6873C32.1227 -15.6434 32.3213 -15.6465 32.5082 -15.6962C33.1719 -16.1237 33.8051 -16.5883 34.4038 -17.0868L35.0892 -16.2426L36.021 -17.0962C37.2847 -16.7414 37.7773 -16.8851 39.2339 -18.1988C39.5444 -17.2399 39.9086 -17.0485 41.0331 -17.6239C42.0387 -18.1223 43.1215 -18.4839 44.2459 -18.6975C45.0813 -18.8605 46.0772 -18.4485 47.0197 -18.8033C47.3643 -18.9768 47.7506 -19.0735 48.1457 -19.0852C48.5409 -19.0968 48.9334 -19.023 49.2901 -18.8703C49.406 -18.8565 49.524 -18.8696 49.6327 -18.9082C49.7415 -18.9468 49.8374 -19.0096 49.9113 -19.0908C50.5003 -20.8839 52.2674 -20.2128 53.5633 -20.6059C54.8591 -20.9991 56.7012 -20.8362 57.8471 -22.1595C58.2541 -22.6389 59.3357 -22.61 59.989 -22.9648C61.5419 -23.7799 63.0413 -24.6714 64.5406 -25.5728C65.2581 -26.0139 65.9114 -26.5319 66.5004 -26.9826L67.4215 -26.4647C67.5607 -26.7044 67.6785 -26.9634 67.8391 -27.2031C68.0175 -27.5202 68.2486 -27.811 68.5245 -28.066C68.9967 -28.4146 69.494 -28.7349 70.0132 -29.0249C70.6879 -28.3537 70.6878 -28.3538 71.716 -30.0606C72.2622 -29.9839 72.9262 -29.6963 73.1939 -29.8785C73.4616 -30.0607 73.5152 -30.7416 73.708 -31.1731C73.9008 -31.6046 74.0293 -31.9308 74.3184 -32.0267C74.9986 -32.1927 75.6886 -32.3236 76.3854 -32.4195C76.5889 -32.4674 76.9101 -32.7071 76.8994 -32.8414C76.7923 -34.7592 78.5273 -35.7181 79.5875 -36.9359C79.6839 -37.051 80.0159 -36.984 80.2408 -37.0319C80.4843 -37.0773 80.719 -37.155 80.937 -37.2623C80.6478 -38.7678 81.9222 -38.2211 82.6933 -38.3649L85.2422 -42.2005L85.1137 -42.2005L86.9986 -44.1184L87.8339 -43.8402C87.8598 -43.9703 87.8777 -44.1017 87.8875 -44.2335C87.8875 -46.2185 87.6947 -47.1099 90.0294 -49.1812C90.3828 -49.5072 90.1579 -50.3511 90.2007 -51.099C90.3292 -51.1757 90.6399 -51.3677 90.9183 -51.5499C90.9183 -52.1157 89.6974 -52.9883 91.4323 -53.0075C91.4208 -53.1223 91.4208 -53.2377 91.4323 -53.3525C91.7108 -55.0498 91.9785 -56.7469 92.2891 -58.4346C92.2891 -58.6647 92.4926 -59.0005 92.6961 -59.0676C94.1954 -59.6046 93.9598 -61.3306 93.767 -61.7238C93.178 -62.8265 93.6385 -63.776 93.6706 -64.7541C93.8018 -65.3325 94.033 -65.8887 94.356 -66.4031C94.444 -66.5319 94.5125 -66.6707 94.5595 -66.8156C94.5516 -67.6556 94.6089 -68.4952 94.7309 -69.3281C95.2128 -71.3514 95.7055 -73.3841 96.3909 -75.3498C96.8341 -76.2043 97.3993 -77.0036 98.0723 -77.7279C96.8728 -80.0293 96.8942 -80.3169 98.4686 -81.0457C96.9799 -82.0525 98.3936 -82.9638 98.747 -83.7501C99.1647 -84.709 99.4646 -85.9841 100.889 -86.3773C100.975 -86.4011 101.055 -86.4419 101.121 -86.4967C101.188 -86.5514 101.24 -86.6187 101.274 -86.6938C101.649 -89.1102 104.273 -90.395 104.862 -92.7539C103.984 -92.3224 103.095 -91.7951 102.153 -91.4499C101.414 -91.1527 100.578 -91.028 99.8286 -90.7499C98.8748 -90.5453 97.9828 -90.1558 97.2155 -89.6089C96.139 -88.3467 95.1655 -87.0169 94.3025 -85.6295C93.9352 -85.0322 93.5162 -84.4612 93.0495 -83.9224C92.9424 -82.8101 92.9852 -81.6976 91.8286 -80.71C91.3871 -80.2627 91.0649 -79.7319 90.8861 -79.1569C90.8287 -78.3911 90.8718 -77.6218 91.0147 -76.865C91.0147 -76.5965 91.0147 -76.2129 90.8219 -76.0882C89.8366 -75.4074 90.0294 -74.5251 90.1793 -73.6333C90.1793 -73.3553 90.4149 -72.991 90.2864 -72.8088C89.344 -71.5047 89.6759 -69.9319 89.0548 -68.5415C88.8299 -68.0237 89.0548 -67.3432 88.9905 -66.7679C88.8299 -66.0295 89.0655 -65.0035 87.684 -64.8501C87.6568 -64.3457 87.7367 -63.8411 87.9196 -63.3635C87.6518 -62.4909 87.4269 -61.6087 87.1056 -60.7457C86.8914 -60.1512 86.5595 -59.5952 86.2918 -59.0198C86.1632 -58.7609 85.8847 -58.4253 85.9811 -58.2623C86.5059 -57.3513 85.8098 -57.3033 85.0601 -57.2074C85.5421 -56.3539 86.2918 -55.5674 85.6278 -54.5797L83.9356 -52.0869C83.9356 -52.0294 83.7642 -52.0101 83.7642 -51.9526L82.8968 -47.5897C80.6371 -47.7623 80.5728 -45.8637 79.6839 -44.713C78.795 -43.5623 78.0668 -42.3731 77.2207 -41.2224C76.819 -40.6481 76.3446 -40.1173 75.807 -39.6403C75.121 -39.1254 74.4061 -38.6419 73.6651 -38.1921C73.4081 -38.0195 73.1832 -37.8084 72.8726 -37.5591L72.4549 -38.202C71.2447 -37.4061 71.384 -35.6798 69.7562 -35.0373C68.6317 -34.5866 67.6142 -33.9633 66.3398 -33.34L65.5044 -34.0498L65.0546 -32.3717C64.4633 -32.3768 63.8863 -32.2091 63.4109 -31.8942C62.9355 -31.5793 62.5877 -31.134 62.4201 -30.6262C62.3926 -30.5685 62.3501 -30.5174 62.2961 -30.4773C62.242 -30.4373 62.178 -30.4097 62.1095 -30.3963C59.8498 -30.3484 58.6396 -28.4787 56.6583 -27.9129C55.7908 -27.6732 54.9662 -27.3088 54.0559 -26.954L53.4561 -27.5388C53.2419 -27.2032 53.0921 -26.9156 52.8993 -26.6567C52.5352 -26.1772 52.2995 -25.5924 51.4106 -26.254C50.7145 -26.7718 49.0759 -25.7841 48.7975 -24.9594C48.0692 -24.9115 47.1803 -25.0839 46.8912 -24.7866C46.013 -23.8277 45.3169 -24.2591 44.4173 -24.6523C44.1874 -24.686 43.9517 -24.667 43.7325 -24.5965C43.5132 -24.5261 43.3177 -24.4065 43.1643 -24.2496C42.6181 -23.0797 41.7077 -23.291 40.7224 -23.5978C40.6368 -23.5978 40.5189 -23.665 40.4547 -23.5978C39.459 -23.1222 38.3661 -22.8318 37.2418 -22.7443C36.8563 -22.7443 36.3315 -22.2743 36.1709 -22.3894C36.0102 -22.5044 35.7853 -23.2715 35.5283 -23.8085Z" fill="#E3F0FC"/>
<path d="M-3.74091 97.2385C-3.1739 97.0278 -2.3287 96.7407 -1.50493 96.3959C-0.681152 96.0511 -0.00716007 95.6968 0.763121 95.3807C1.12687 95.2275 1.55476 95.2081 1.92921 95.074C2.6353 94.825 3.31999 94.5089 4.06888 94.2599C4.4684 94.1775 4.86154 94.0723 5.24574 93.9443C6.20859 93.4463 7.12865 92.9003 8.05941 92.3736C8.1343 92.3257 8.25198 92.2587 8.25198 92.1917C8.25198 90.5732 9.9637 90.5252 10.98 89.8261C11.2261 89.6537 11.0763 88.8686 11.2796 88.8207C12.8522 88.3132 12.6383 87.0586 12.9699 85.9478C13.1732 85.2965 13.9221 84.8083 14.3286 84.1858C14.6806 83.5985 14.9879 82.9902 15.2487 82.3659C15.805 81.1401 16.3934 79.9144 16.8856 78.6695C16.9405 78.2592 16.9405 77.8444 16.8856 77.4341C16.9605 76.3615 16.9818 75.2792 17.1102 74.2067C17.3028 72.5882 17.506 70.9604 17.7949 69.3515C17.9565 67.8044 17.8043 66.2438 17.3456 64.7452C17.1473 63.6148 17.0721 62.4699 17.1209 61.3265C17.1209 61.1063 17.5917 60.8956 17.9554 60.5891L16.8856 59.7844C17.0567 58.6735 17.2814 57.5722 17.3776 56.4517C17.4739 55.3313 17.4311 54.3451 17.3776 53.2917C17.3823 53.0646 17.3034 52.8424 17.153 52.6595C16.0832 51.5677 16.7679 50.4763 17.153 49.3942C17.153 49.2314 17.4419 49.0303 17.3884 48.9537C16.4041 47.4119 17.5703 46.0806 17.8805 44.692C18.0624 43.8588 18.0089 42.9778 18.148 42.1351C18.255 41.5701 18.5973 41.0434 18.6829 40.4784C18.9396 38.8121 19.0252 37.1362 19.3569 35.489C19.4853 34.8761 20.2341 34.3779 20.5444 33.765C20.7507 33.1539 20.9221 32.5339 21.0579 31.9072C21.2933 31.1889 21.6891 30.9497 22.0635 31.5626L24.3851 26.1037C24.8344 26.3815 25.1447 26.5637 25.6261 26.851C25.5482 26.4904 25.5482 26.1197 25.6261 25.7591C25.7652 25.5006 26.1824 25.3568 26.482 25.1653C26.7815 24.9737 26.9527 24.9835 27.0062 24.8398C27.3485 23.8822 28.6751 23.5948 28.8784 22.369C28.9961 21.6891 30.3441 21.1718 31.1357 20.5781C31.2641 20.4823 31.3818 20.3675 31.5102 20.2526L32.1735 20.8465C32.3233 20.5975 32.4945 20.3485 32.6335 20.0899C32.7726 19.8313 32.8796 19.295 33.0187 19.295C34.2169 19.295 34.8374 18.3374 35.7681 17.9735C36.9022 17.533 38.4213 17.7721 39.4484 17.2263C41.3099 16.2686 43.3854 16.7284 45.3753 16.1059C45.8139 17.0636 46.6377 17.0637 47.5149 16.5179C48.1568 16.0965 48.5848 16.3168 49.2588 16.5179C51.2858 16.9634 53.3448 17.2834 55.421 17.4755C55.9667 18.8258 55.9667 18.8257 57.197 18.0404C57.6045 18.7247 58.1837 19.3156 58.8891 19.7658C59.5944 20.2161 60.4068 20.5136 61.2624 20.6356C61.5012 20.6741 61.7276 20.7594 61.9257 20.8848C62.5569 21.3445 63.1881 21.8422 63.7872 22.3307C64.3466 22.8686 64.9471 23.3712 65.5845 23.8345C66.3869 24.3324 67.3176 24.6675 68.1735 25.0984C68.4249 25.2412 68.6581 25.4082 68.8689 25.5964C70.5271 26.3242 72.0784 26.9083 73.5013 27.6361C74.9242 28.3639 76.2187 29.1686 77.7806 29.7815C76.3257 28.3641 74.8493 26.9849 73.5013 25.5197C73.0307 24.9504 72.7023 24.2972 72.5384 23.6044C71.6825 23.6044 71.1262 23.2788 71.0727 22.1679C71.0727 21.8423 70.0885 21.6125 69.7247 21.2103C68.5051 19.8408 66.7613 19.1034 65.2421 18.0787C64.5686 17.5128 63.9528 16.8941 63.402 16.2303C63.2256 16.1029 63.0314 15.9971 62.8243 15.9147C61.6796 15.3209 60.1819 15.2918 59.4116 14.0947C59.3474 13.9894 58.7161 14.1811 58.7161 14.0279C58.2348 13.6329 57.6857 13.3096 57.09 13.0702C56.0201 12.8212 55.1322 12.5437 55.0466 11.385C55.0466 11.3371 54.9075 11.2409 54.8433 11.2409C53.2279 11.2409 51.6338 11.2409 50.0077 11.2409C49.9007 11.2409 49.783 11.4806 49.6974 11.471C48.3815 11.3561 47.0763 11.2125 45.7604 11.088C45.4377 11.0495 45.1124 11.0303 44.7869 11.0305C44.335 11.0515 43.8849 11.0964 43.4389 11.1647C42.9039 11.2509 42.369 11.3656 41.8341 11.4518C41.2992 11.538 40.7643 11.6146 40.2293 11.6529C40.0261 11.6529 39.7908 11.4998 39.6089 11.5477C37.7367 11.9691 35.8751 12.3996 34.0243 12.8593C33.7747 12.9199 33.5558 13.0555 33.4038 13.2428C33.3051 13.4379 33.1625 13.6128 32.9846 13.7562C32.8068 13.8996 32.5977 14.0081 32.3706 14.0756C32.1434 14.143 31.9031 14.1678 31.6648 14.148C31.4265 14.1283 31.1954 14.0647 30.986 13.961C30.2512 14.271 29.5613 14.6601 28.9319 15.1197C28.29 15.7135 27.8621 16.518 27.2951 17.1501C26.9313 17.5331 26.7173 18.6823 25.7331 17.6097C25.5769 17.6044 25.4213 17.6278 25.2759 17.6789C25.1304 17.73 24.9984 17.8072 24.8879 17.9062C24.1283 18.8638 23.4864 19.8982 22.7483 20.8558C22.4915 21.1814 21.9673 21.335 21.3575 21.6797C21.2794 22.5031 21.0108 23.3026 20.5687 24.0281C20.1267 24.7535 19.5209 25.3888 18.7898 25.8933C18.4475 26.1615 18.3726 26.7071 18.1693 27.1189C17.613 28.2202 17.2707 29.446 15.6766 29.9919C17.2279 31.1985 15.3129 32.1564 15.2915 33.3727L14.5105 33.5447C14.5089 33.9143 14.4695 34.2828 14.3928 34.6459C13.7596 35.9733 13.3486 37.3771 13.1732 38.8118C13.0297 40.2864 12.5836 41.7247 11.8573 43.0544C11.6648 43.4949 12.0392 44.1459 12.1568 44.7013C12.328 44.7013 12.4885 44.7013 12.649 44.7013C12.2052 45.3789 11.8464 46.0985 11.5792 46.8467C11.565 47.2623 11.6798 47.6736 11.9108 48.0344C11.9108 49.1836 11.8359 50.0263 11.9108 50.9074C12.0392 52.1427 11.0977 53.4929 12.3922 54.6038C12.3922 54.6038 12.3922 54.7666 12.3922 54.8432C11.4615 56.4137 12.3922 57.8595 12.6169 59.3822C12.7938 60.7503 12.7938 62.1323 12.6169 63.5004C12.5839 64.0107 12.5839 64.5224 12.6169 65.0328C11.6433 65.7414 11.6434 65.8849 12.8737 66.335C12.1248 67.5225 11.5042 68.7385 12.5527 69.6578C12.5527 70.9698 12.5527 72.0043 12.5527 73.0386C12.5527 74.0729 12.788 75.3848 12.7452 76.5531C12.61 77.0919 12.3828 77.6088 12.0713 78.0855C11.3759 79.7039 10.7875 81.3607 9.98511 82.9312C9.34767 84.0151 8.63297 85.0611 7.84543 86.0628C7.31988 86.8674 6.74851 87.6472 6.13366 88.3994C5.57754 88.9995 4.94167 89.5365 4.24009 89.9986C2.91913 90.8938 1.54793 91.728 0.13189 92.498C-0.606722 92.7878 -1.37784 93.0062 -2.16829 93.1493C-2.7139 93.3121 -3.23807 93.4941 -3.78368 93.6857C-3.95486 93.7431 -4.08323 93.9251 -4.24371 93.9443C-6.54385 94.2411 -8.82261 94.6336 -11.1335 94.7677C-14.2039 95.0021 -17.2885 95.05 -20.3661 94.9113C-22.9193 94.6531 -25.4428 94.1982 -27.9085 93.5515C-29.1817 93.2738 -28.9783 92.249 -28.7965 91.3776C-28.7965 91.1573 -28.6574 90.9465 -28.529 90.5635C-30.0803 91.7893 -30.0803 93.657 -28.5825 94.4423C-27.143 95.317 -25.5678 95.9977 -23.9073 96.4628C-22.0672 96.8267 -20.2913 97.5735 -18.2265 97.2479C-16.825 97.0372 -15.2951 97.6597 -13.8188 97.7075C-12.5105 97.691 -11.2054 97.5888 -9.91389 97.4013C-9.58224 97.4013 -9.20776 97.1905 -8.9403 97.2862C-8.24098 97.4914 -7.49523 97.5358 -6.7717 97.4153C-6.04818 97.2948 -5.37013 97.0136 -4.80004 96.597C-4.81074 96.5874 -4.27583 96.98 -3.74091 97.2385Z" fill="#E3F0FC"/>
<path d="M48.9248 95.3534L50.2041 96.3102C50.0321 96.8173 49.129 97.1523 50.2041 97.8029C50.7632 98.1377 50.7202 99.343 50.8599 100.166C50.9567 100.769 50.8599 101.391 50.8599 102.003C50.8599 102.616 50.9353 102.96 50.9783 103.429C51.075 104.548 51.247 105.668 51.2577 106.787C51.2071 107.42 51.0773 108.045 50.8707 108.653L50.3009 110.69C51.0213 111.351 50.3654 112.346 49.8924 113.351C49.4193 114.355 48.8172 115.561 48.1722 116.881C46.839 116.881 47.4196 118.546 46.5381 119.206C45.8659 119.681 45.2974 120.261 44.8609 120.918C43.861 121.961 43.0225 122.899 42.1086 123.789C41.5308 124.32 40.913 124.816 40.2594 125.272C39.8079 125.588 39.1843 125.77 38.8618 126.162C38.3457 126.899 37.9049 127.568 36.7761 127.463C36.7761 127.463 36.6041 127.568 36.5933 127.645C36.3138 128.716 35.3892 129.099 34.3356 129.367C33.2776 129.593 32.3622 130.181 31.7876 131.003C31.1747 131.807 29.7018 132.152 28.5622 132.601C27.5946 132.974 26.7883 133.816 25.5519 133.558C24.6811 134.917 23.0684 134.869 21.6385 135.223C19.9399 135.653 18.3057 136.294 16.5963 136.668C15.6717 136.878 14.7793 137.624 13.7042 137.031C13.5967 136.974 13.328 137.241 13.1129 137.289C11.0144 137.916 8.76783 138.041 6.5978 137.653C6.39353 137.605 6.243 137.423 5.84521 137.471C6.18924 137.816 6.46877 138.303 6.92032 138.495C8.17472 139.272 9.69879 139.629 11.2207 139.5C14.0053 139.04 16.8006 138.59 19.5959 138.17C19.7894 138.17 20.0151 138.303 20.2302 138.39C20.5095 138.237 20.8047 138.109 21.1117 138.007C23.1975 137.375 25.3154 136.84 27.3581 136.093C28.8418 135.567 30.2179 134.802 31.6585 134.18C32.1853 133.941 32.7336 133.835 33.3249 133.606C33.9163 133.376 34.7118 133.845 34.4753 132.86C34.8086 132.86 35.1311 132.859 35.5504 132.917C35.6579 132.706 35.7117 132.247 35.9805 132.104C37.2169 131.453 38.55 130.927 39.7756 130.257C40.4075 129.874 40.9851 129.424 41.4958 128.917C42.3666 128.152 43.818 127.884 44.0438 126.564C44.0438 126.497 44.1405 126.382 44.2158 126.372C46.7745 125.827 46.8175 123.024 49.1075 122.105C49.9246 121.78 50.1826 120.392 51.333 119.952C51.6125 119.847 51.419 118.996 51.6986 118.632C52.1824 118.029 53.0102 117.675 52.9564 116.718C52.9532 116.183 53.1051 115.656 53.3972 115.188C53.8058 114.508 54.3648 113.906 54.9669 113.111C54.7793 112.753 54.7211 112.352 54.8 111.963C54.8789 111.574 55.0912 111.217 55.4077 110.939C55.8377 110.461 55.5259 109.342 55.3217 108.548C55.1927 108.002 54.8056 107.591 55.5582 107.122C55.675 107.011 55.7604 106.876 55.8071 106.73C55.8539 106.583 55.8606 106.429 55.8269 106.28C55.6134 105.983 55.5367 105.624 55.6128 105.279C55.6889 104.933 55.9119 104.627 56.2355 104.424C56.2355 103.199 56.2355 102.271 56.2355 101.343C56.2355 101.103 56.0635 100.864 56.042 100.625C55.9736 99.4474 55.8228 98.2748 55.5904 97.1138C55.0959 95.2576 54.3433 93.4591 53.7843 91.6221C53.5258 90.6112 53.3249 89.5891 53.1822 88.5602C51.7631 87.68 49.4731 83.585 50.0536 82.3794C48.5807 81.3365 48.4947 79.7961 48.1292 78.3514C47.9656 77.9526 47.7679 77.5656 47.5379 77.1937C47.3865 76.8311 47.2608 76.4603 47.1616 76.0837C47.0272 75.4736 46.7407 74.8984 46.323 74.4L47.2154 73.2517C46.0543 73.0603 45.3662 72.7062 45.936 71.7016C45.936 71.5963 46.0435 71.3955 45.936 71.3381C44.7104 70.2378 45.1619 68.7071 44.6996 67.4058C43.9221 65.3379 43.8733 63.1077 44.5598 61.0144C44.6541 60.5948 44.7115 60.1693 44.7318 59.7418C45.0436 59.7418 45.4199 59.828 45.8069 59.8759C45.8069 59.7132 45.807 59.4838 45.6994 59.3498C45.0114 58.5844 43.904 57.8473 45.6994 57.0723C45.1941 55.6084 46.7745 54.5082 46.5595 53.1017C46.5595 52.8051 46.452 52.499 46.3875 52.2024L45.979 52.1258L47.3981 50.7481L46.7208 49.3802C48.5162 48.9496 49.1613 47.8015 49.0861 46.2132C49.1121 46.1147 49.1609 46.022 49.2294 45.9413C49.2979 45.8606 49.3845 45.7934 49.4838 45.7441C49.8605 45.5932 50.1853 45.3561 50.4252 45.0569C50.665 44.7577 50.8114 44.4073 50.8492 44.0413C50.9352 43.4002 52.1178 42.9026 52.7629 42.3094C53.408 41.7162 54.2466 40.7974 55.0637 40.1086C55.5691 39.7916 56.097 39.5041 56.644 39.2475C57.1095 38.8605 57.6014 38.4996 58.1169 38.1665C59.227 37.7012 60.2853 37.1436 61.2777 36.5015C59.5146 36.7981 57.7729 37.2192 55.9882 37.3723C54.2036 37.5254 52.7629 38.9797 50.8492 38.5491C49.6128 39.5059 48.2152 40.463 46.9573 41.4867C46.3256 42.146 45.7403 42.8393 45.2049 43.5629C44.9146 43.8691 44.4738 44.0603 44.3663 44.3664L41.4205 49.782C40.6787 49.4088 40.2487 49.6285 40.2594 50.5949C40.2594 51.0159 39.8078 51.4369 39.8401 51.8483C39.9369 53.36 38.7005 54.7763 39.4638 56.3454C39.5074 56.4838 39.5095 56.6298 39.4699 56.7691C39.4303 56.9084 39.3503 57.0363 39.238 57.1396C37.2276 58.3738 39.0338 59.7421 39.0445 61.0242C39.0331 62.5566 39.1408 64.088 39.367 65.6072C39.5606 66.6405 38.3887 67.5206 39.1198 68.5252C38.1952 69.0036 38.4855 69.3864 39.1198 69.9987C39.5713 70.4675 39.4208 71.4242 39.8938 71.8356C41.0335 72.7924 40.2164 73.9693 40.5174 75.0026C40.6034 75.2993 40.5174 75.8065 40.7109 75.8926C42.2806 76.6581 42.1838 78.1792 42.8611 79.3656C43.3449 80.265 43.9363 81.1262 44.3556 82.0351C44.5802 82.6087 44.7352 83.2022 44.8178 83.8052C44.8178 84.0253 44.6673 84.4269 44.7533 84.4747C45.2063 84.7401 45.591 85.0881 45.8819 85.4955C46.1729 85.9028 46.3635 86.3605 46.4413 86.8382C46.9583 87.8692 47.6272 88.8344 48.4302 89.7085C48.6022 89.9477 48.828 90.3781 48.7205 90.5121C47.9679 91.421 48.9355 91.9855 49.3441 92.4256C50.0751 93.5068 49.9784 94.3297 48.9248 95.3534Z" fill="#E3F0FC"/>
</g>
<g clip-path="url(#clip1_98_871)">
<path d="M50.6667 56.84H34.6667C33.6058 56.84 32.5884 56.4185 31.8382 55.6684C31.0881 54.9182 30.6667 53.9008 30.6667 52.84V42.1733C30.6667 41.8197 30.5262 41.4805 30.2761 41.2305C30.0261 40.9804 29.687 40.84 29.3333 40.84C28.9797 40.84 28.6406 40.9804 28.3905 41.2305C28.1405 41.4805 28 41.8197 28 42.1733V52.84C28 54.6081 28.7024 56.3038 29.9526 57.554C31.2029 58.8043 32.8986 59.5066 34.6667 59.5066H50.6667C51.0203 59.5066 51.3594 59.3662 51.6095 59.1161C51.8595 58.8661 52 58.5269 52 58.1733C52 57.8197 51.8595 57.4805 51.6095 57.2305C51.3594 56.9804 51.0203 56.84 50.6667 56.84ZM56 32.84H37.3333C36.2725 32.84 35.2551 33.2614 34.5049 34.0115C33.7548 34.7617 33.3333 35.7791 33.3333 36.84V50.1733C33.3333 51.2342 33.7548 52.2516 34.5049 53.0017C35.2551 53.7519 36.2725 54.1733 37.3333 54.1733H56C57.0609 54.1733 58.0783 53.7519 58.8284 53.0017C59.5786 52.2516 60 51.2342 60 50.1733V36.84C60 35.7791 59.5786 34.7617 58.8284 34.0115C58.0783 33.2614 57.0609 32.84 56 32.84ZM55.4533 35.5066L47.6133 43.3466C47.4894 43.4716 47.3419 43.5708 47.1794 43.6385C47.017 43.7062 46.8427 43.741 46.6667 43.741C46.4907 43.741 46.3164 43.7062 46.1539 43.6385C45.9914 43.5708 45.844 43.4716 45.72 43.3466L37.88 35.5066H55.4533ZM57.3333 50.1733C57.3333 50.5269 57.1929 50.8661 56.9428 51.1161C56.6928 51.3662 56.3536 51.5066 56 51.5066H37.3333C36.9797 51.5066 36.6406 51.3662 36.3905 51.1161C36.1405 50.8661 36 50.5269 36 50.1733V37.3333L43.84 45.1733C44.59 45.9224 45.6067 46.3431 46.6667 46.3431C47.7267 46.3431 48.7433 45.9224 49.4933 45.1733L57.3333 37.3333V50.1733Z" fill="#171952"/>
</g>
</g>
<defs>
<clipPath id="clip0_98_871">
<rect width="88" height="88" fill="white" transform="translate(88) rotate(90)"/>
</clipPath>
<clipPath id="clip1_98_871">
<rect width="32" height="32" fill="white" transform="translate(28 28)"/>
</clipPath>
</defs>
</svg>
