<svg width="148" height="48" viewBox="0 0 148 48" fill="none" xmlns="http://www.w3.org/2000/svg">
<g clip-path="url(#clip0_186_448)">
<path d="M18.1109 0.00424194H19.4187C23.9587 0.102939 28.4248 1.92884 31.6325 5.16117C30.4481 6.37021 29.239 7.5299 28.0793 8.73894C26.2781 7.11044 24.1068 5.85205 21.7381 5.40791C18.2343 4.66768 14.4591 5.33389 11.5229 7.33251C8.31524 9.42982 6.1439 12.9829 5.67509 16.7828C5.15693 20.5333 6.21792 24.4811 8.66068 27.3927C11.0047 30.2302 14.5825 32.0068 18.2837 32.1302C21.7381 32.3276 25.3405 31.2666 27.8573 28.8485C29.8312 27.146 30.7442 24.5552 31.0403 22.0384C26.9443 22.0384 22.8484 22.0631 18.7525 22.0384V16.9555H35.9998C36.8881 22.4085 35.605 28.5524 31.4597 32.4509C28.6962 35.2145 24.8717 36.843 20.9732 37.1637C17.198 37.5338 13.2994 36.8183 9.94374 34.9924C5.92183 32.8457 2.71417 29.2186 1.13502 24.95C-0.345439 21.0267 -0.370114 16.5854 1.01165 12.6375C2.27004 9.03503 4.68812 5.85205 7.79708 3.63136C10.7827 1.43535 14.4098 0.226311 18.1109 0.00424194Z" fill="#3780FF"/>
<path d="M117.055 1.28731H122.335V36.5222C120.583 36.5222 118.807 36.5469 117.055 36.4975C117.08 24.7772 117.055 13.0323 117.055 1.28731Z" fill="#38B137"/>
<path d="M47.7448 13.5011C51.0018 12.8842 54.5302 13.5751 57.2197 15.5244C59.6625 17.2516 61.365 19.9657 61.8831 22.9267C62.5494 26.3564 61.7104 30.1069 59.4897 32.8211C57.0963 35.856 53.1731 37.4845 49.3486 37.2377C45.8448 37.0404 42.4398 35.2885 40.3671 32.4263C38.0231 29.268 37.4556 24.9253 38.7386 21.2241C40.0217 17.2516 43.6488 14.2166 47.7448 13.5011ZM48.485 18.1892C47.1526 18.5346 45.9189 19.2995 45.0306 20.3852C42.6372 23.2474 42.7852 27.9109 45.4254 30.5757C46.9305 32.1055 49.2005 32.8211 51.2979 32.4016C53.2471 32.0561 54.9497 30.7484 55.8873 29.0212C57.5158 26.085 57.047 22.0384 54.5549 19.7437C52.951 18.2632 50.607 17.6464 48.485 18.1892Z" fill="#FA3913"/>
<path d="M73.8995 13.5011C77.6253 12.7855 81.6966 13.8218 84.4848 16.4373C89.0249 20.5086 89.5183 28.1329 85.6445 32.821C83.3004 35.782 79.5006 37.4105 75.7501 37.2377C72.1723 37.139 68.6439 35.3625 66.5219 32.4263C64.1285 29.1939 63.6103 24.7526 64.9674 20.9774C66.3245 17.1282 69.8776 14.192 73.8995 13.5011ZM74.6397 18.1892C73.3073 18.5346 72.0736 19.2995 71.1853 20.3605C68.8166 23.1734 68.9153 27.7628 71.4568 30.4523C72.9619 32.0561 75.306 32.8457 77.4773 32.4016C79.4019 32.0315 81.1291 30.7484 82.0667 29.0212C83.6705 26.0603 83.2017 22.0137 80.6849 19.719C79.0811 18.2385 76.7371 17.6464 74.6397 18.1892Z" fill="#FCBD06"/>
<path d="M96.0817 14.9322C98.9193 13.1556 102.694 12.6622 105.754 14.192C106.716 14.6114 107.506 15.327 108.271 16.0425C108.296 15.3763 108.271 14.6855 108.296 13.9946C109.949 14.0192 111.602 13.9946 113.28 14.0192V35.782C113.255 39.0637 112.416 42.5427 110.047 44.9361C107.457 47.5763 103.484 48.3905 99.9062 47.8477C96.0817 47.2802 92.7507 44.492 91.2702 40.9636C92.7507 40.248 94.3052 39.6805 95.835 39.0143C96.6986 41.0376 98.4505 42.7648 100.646 43.1596C102.842 43.5544 105.384 43.0115 106.815 41.1856C108.345 39.3104 108.345 36.7443 108.271 34.4496C107.136 35.5599 105.828 36.5469 104.249 36.917C100.819 37.8793 97.044 36.6949 94.4039 34.3755C91.739 32.0562 90.1599 28.4784 90.3079 24.9253C90.382 20.9034 92.652 17.0295 96.0817 14.9322ZM101.189 18.0905C99.6842 18.3372 98.2777 19.1762 97.3154 20.3359C94.9961 23.0994 94.9961 27.5161 97.3401 30.2303C98.6725 31.8341 100.819 32.7224 102.892 32.5003C104.841 32.3029 106.642 31.0692 107.605 29.3667C109.233 26.4798 108.962 22.5566 106.766 20.0398C105.409 18.4853 103.237 17.7204 101.189 18.0905Z" fill="#3780FF"/>
<path d="M128.676 16.1906C131.637 13.4271 136.202 12.4894 140.002 13.9452C143.604 15.3023 145.899 18.732 147.059 22.2605C141.705 24.4812 136.375 26.6772 131.021 28.8979C131.761 30.3043 132.896 31.5873 134.426 32.1055C136.572 32.8704 139.138 32.599 140.94 31.1679C141.655 30.625 142.223 29.9095 142.766 29.2186C144.123 30.1316 145.48 31.0198 146.837 31.9328C144.912 34.8197 141.68 36.843 138.201 37.1637C134.352 37.6325 130.256 36.1521 127.764 33.1418C123.668 28.4044 124.062 20.4592 128.676 16.1906ZM131.317 20.7553C130.478 21.9644 130.132 23.4448 130.157 24.9006C133.735 23.4202 137.313 21.9397 140.89 20.4346C140.298 19.0528 138.867 18.2139 137.411 17.9918C135.067 17.5724 132.624 18.8307 131.317 20.7553Z" fill="#FA3913"/>
</g>
<defs>
<clipPath id="clip0_186_448">
<rect width="147.059" height="48" fill="white"/>
</clipPath>
</defs>
</svg>
