<svg width="110" height="32" viewBox="0 0 110 32" fill="none" xmlns="http://www.w3.org/2000/svg">
<g clip-path="url(#clip0_186_502)">
<path d="M0.0129395 5.95085H3.8445V14.4635H11.9255V5.95085H15.762V26.8467H11.9255V18.1553H3.8445V26.8467H0.0129395V5.95085ZM27.9003 20.0406C27.9003 21.7898 26.4752 23.2133 24.7264 23.2133C22.977 23.2133 21.5527 21.7898 21.5527 20.0406V11.0442H17.919V20.0406C17.919 23.7938 20.973 26.8467 24.7264 26.8467C28.479 26.8467 31.5327 23.7938 31.5327 20.0406V11.0442H27.9003V20.0406ZM41.6765 11.1496C39.8741 11.1496 38.6159 11.6726 37.4009 12.8653V5.95085H33.7554V18.7653C33.7554 23.5618 37.2234 26.8467 41.1196 26.8467C45.451 26.8467 49.2461 23.5032 49.2461 18.9984C49.2461 14.5506 45.7465 11.1496 41.6765 11.1496ZM41.7671 23.4742C39.2969 23.4742 37.408 21.4112 37.408 18.9984C37.408 16.5851 39.2969 14.5214 41.7671 14.5214C43.8602 14.5214 45.7502 16.5851 45.7502 18.9984C45.7502 21.4112 43.8602 23.4742 41.7671 23.4742ZM55.3688 12.068C55.3688 10.2355 56.5898 9.65449 57.9265 9.65449C59.0027 9.65449 60.4267 10.4684 61.3561 11.4569L63.7391 8.66655C62.5481 7.06799 60.1359 5.96308 58.1592 5.96308C54.2055 5.96308 51.3567 8.25961 51.3567 12.068C51.3567 19.1314 60.0486 16.8924 60.0486 20.8468C60.0486 22.0663 58.8572 23.1429 57.4917 23.1429C55.3398 23.1429 54.6418 22.0963 53.6539 20.9914L51.0082 23.7234C52.6952 25.7875 54.7874 26.8345 57.2876 26.8345C61.0372 26.8345 64.0604 24.509 64.0604 20.8749C64.0604 13.0267 55.3688 15.4688 55.3688 12.068ZM73.6573 10.9448C69.7616 10.9448 66.2932 14.2278 66.2932 19.0254V31.8729H69.9385V24.9256C71.1537 26.1174 72.4112 26.6413 74.2143 26.6413C78.2841 26.6413 81.7841 23.2407 81.7841 18.793C81.7841 14.2875 77.9879 10.9448 73.6573 10.9448ZM74.3051 23.2699C71.8351 23.2699 69.946 21.2041 69.946 18.793C69.946 16.3797 71.8351 14.316 74.3051 14.316C76.3977 14.316 78.288 16.3797 78.288 18.793C78.288 21.2041 76.3977 23.2699 74.3051 23.2699ZM108.617 23.4742C106.467 23.4742 105.857 22.5445 105.857 21.1195V14.812H109.199V11.6149H105.857V7.3996L102.166 9.0561V21.9044C102.166 25.1896 104.433 26.8467 107.541 26.8467C108.007 26.8467 108.647 26.8167 108.996 26.7306L109.897 23.4172C109.49 23.4453 109.025 23.4742 108.617 23.4742Z" fill="#45535E"/>
<path d="M99.0037 14.9979C98.3049 13.7955 97.3219 12.8316 96.0929 12.106C95.1745 11.5713 94.2222 11.232 93.149 11.0863V7.26588C94.2222 6.81022 94.8882 5.80168 94.8882 4.62509C94.8882 3.02138 93.6021 1.7218 91.9997 1.7218C90.396 1.7218 89.0874 3.02138 89.0874 4.62509C89.0874 5.80168 89.715 6.81022 90.7881 7.26588V11.088C89.9296 11.2121 89.0393 11.4797 88.2263 11.8909C86.5657 10.6298 81.1206 6.49236 77.9353 4.07585C78.0108 3.80348 78.069 3.52275 78.069 3.22656C78.069 1.45029 76.6305 0.0105591 74.8536 0.0105591C73.0767 0.0105591 71.6389 1.45029 71.6389 3.22656C71.6389 5.00262 73.0782 6.44278 74.8551 6.44278C75.4612 6.44278 76.0219 6.2655 76.5056 5.97403L77.1779 6.48399L86.4146 13.1392C85.9263 13.5876 85.4715 14.0975 85.1078 14.6697C84.3705 15.8362 83.92 17.1197 83.92 18.5197V18.8119C83.92 19.7946 84.1067 20.7225 84.4248 21.5941C84.7049 22.3552 85.1144 23.0471 85.6216 23.6728L82.556 26.7458C82.1118 26.5805 81.6293 26.5465 81.1662 26.6481C80.7032 26.7496 80.2792 26.9824 79.9448 27.3185C79.7134 27.5488 79.5299 27.8228 79.4051 28.1245C79.2803 28.4262 79.2166 28.7497 79.2177 29.0763C79.2179 29.7401 79.4765 30.3641 79.9461 30.8334C80.1763 31.0651 80.4502 31.2487 80.7518 31.3738C81.0535 31.4988 81.377 31.5628 81.7035 31.5619C82.0302 31.5627 82.3537 31.4988 82.6555 31.3737C82.9573 31.2487 83.2312 31.0651 83.4616 30.8334C83.6929 30.6031 83.8763 30.3293 84.0012 30.0277C84.126 29.7261 84.1899 29.4027 84.1891 29.0763C84.1891 28.8194 84.1494 28.5687 84.0747 28.3304L87.2433 25.1614C87.6777 25.4615 88.1469 25.7141 88.6513 25.932C89.6461 26.3621 90.7441 26.6241 91.9458 26.6241H92.166C93.4946 26.6241 94.7478 26.3121 95.9259 25.6738C97.1673 24.9992 98.139 24.0767 98.873 22.899C99.6109 21.7181 100.017 20.4134 100.017 18.978V18.9063C100.017 17.4942 99.6903 16.1915 99.0037 14.9979ZM95.1322 21.6456C94.2722 22.6013 93.2836 23.1901 92.166 23.1901H91.9819C91.3436 23.1901 90.7192 23.0137 90.108 22.6928C89.419 22.3395 88.8953 21.8356 88.4667 21.1975C88.0237 20.5712 87.7833 19.8874 87.7833 19.1623V18.9421C87.7833 18.2294 87.92 17.5535 88.2647 16.9152C88.6333 16.2174 89.131 15.6748 89.7929 15.2434C90.4428 14.815 91.1369 14.6049 91.91 14.6049H91.9819C92.6829 14.6049 93.3465 14.7431 93.9728 15.0636C94.6109 15.4053 95.1322 15.8721 95.5364 16.4861C95.9289 17.1004 96.1624 17.763 96.2376 18.4848C96.2494 18.6348 96.2554 18.7885 96.2554 18.9353C96.2554 19.9148 95.8811 20.8221 95.1322 21.6456Z" fill="#F8761F"/>
</g>
<defs>
<clipPath id="clip0_186_502">
<rect width="109.89" height="32" fill="white"/>
</clipPath>
</defs>
</svg>
