<svg width="188" height="40" viewBox="0 0 188 40" fill="none" xmlns="http://www.w3.org/2000/svg">
<g clip-path="url(#clip0_186_420)">
<path d="M187.266 18.0962V14.8028H183.176V9.6829L183.038 9.72529L179.197 10.9006L179.121 10.9236V14.803H173.058V12.6419C173.058 11.6356 173.283 10.8655 173.727 10.3519C174.167 9.84449 174.797 9.58653 175.6 9.58653C176.178 9.58653 176.776 9.72258 177.378 9.99086L177.528 10.0583V6.5899L177.457 6.56381C176.896 6.36201 176.132 6.26038 175.186 6.26038C173.993 6.26038 172.909 6.51997 171.964 7.03445C171.018 7.54965 170.274 8.28513 169.753 9.22024C169.234 10.1543 168.97 11.233 168.97 12.4268V14.8028H166.122V18.0962H168.97V31.9705H173.058V18.0962H179.121V26.9131C179.121 30.5443 180.834 32.3845 184.212 32.3845C184.767 32.3845 185.351 32.3194 185.948 32.1921C186.555 32.0613 186.968 31.9307 187.212 31.7912L187.266 31.7593V28.4355L187.099 28.5455C186.878 28.6933 186.601 28.8141 186.277 28.904C185.952 28.9954 185.68 29.0413 185.47 29.0413C184.679 29.0413 184.093 28.8281 183.73 28.4072C183.362 27.9826 183.176 27.2401 183.176 26.2013V18.0962H187.266ZM156.993 29.0418C155.509 29.0418 154.339 28.5498 153.515 27.5806C152.685 26.6066 152.265 25.2179 152.265 23.4534C152.265 21.633 152.685 20.2083 153.515 19.217C154.34 18.2322 155.499 17.7324 156.96 17.7324C158.377 17.7324 159.506 18.2098 160.314 19.152C161.126 20.099 161.539 21.5124 161.539 23.354C161.539 25.2182 161.151 26.6502 160.386 27.6082C159.627 28.5589 158.486 29.0418 156.993 29.0418ZM157.175 14.3893C154.344 14.3893 152.095 15.2188 150.492 16.8548C148.89 18.4909 148.078 20.7552 148.078 23.5851C148.078 26.2731 148.871 28.4351 150.435 30.0103C151.999 31.5859 154.127 32.3841 156.761 32.3841C159.505 32.3841 161.709 31.543 163.311 29.8844C164.913 28.2275 165.725 25.9847 165.725 23.2208C165.725 20.4909 164.963 18.3127 163.46 16.7481C161.957 15.1827 159.841 14.3893 157.175 14.3893ZM141.487 14.3893C139.561 14.3893 137.968 14.8818 136.751 15.853C135.527 16.8299 134.906 18.1112 134.906 19.6617C134.906 20.4677 135.04 21.1836 135.304 21.7908C135.569 22.4 135.98 22.9364 136.526 23.3866C137.067 23.8331 137.903 24.3009 139.01 24.7768C139.942 25.1599 140.636 25.484 141.077 25.7394C141.508 25.9898 141.814 26.2414 141.987 26.4865C142.155 26.7263 142.24 27.0546 142.24 27.4596C142.24 28.613 141.376 29.1742 139.599 29.1742C138.94 29.1742 138.188 29.0366 137.364 28.7652C136.546 28.4979 135.774 28.1065 135.075 27.6047L134.906 27.483V31.4189L134.968 31.4479C135.546 31.7149 136.276 31.9401 137.135 32.1173C137.993 32.2946 138.773 32.3848 139.45 32.3848C141.539 32.3848 143.222 31.8899 144.45 30.913C145.686 29.9293 146.312 28.6177 146.312 27.0136C146.312 25.8564 145.975 24.8641 145.31 24.0637C144.65 23.2699 143.505 22.5411 141.907 21.897C140.635 21.3861 139.819 20.962 139.483 20.6365C139.159 20.322 138.994 19.8773 138.994 19.3141C138.994 18.8148 139.197 18.4148 139.614 18.0909C140.035 17.7654 140.62 17.5998 141.354 17.5998C142.035 17.5998 142.732 17.7074 143.425 17.9183C144.118 18.1292 144.726 18.4116 145.234 18.757L145.401 18.8712V15.1376L145.337 15.1101C144.868 14.9092 144.251 14.7373 143.5 14.5978C142.753 14.4592 142.076 14.3893 141.487 14.3893ZM124.249 29.0418C122.765 29.0418 121.595 28.5498 120.771 27.5806C119.941 26.6066 119.522 25.2182 119.522 23.4534C119.522 21.633 119.942 20.2083 120.772 19.217C121.596 18.2322 122.754 17.7324 124.216 17.7324C125.633 17.7324 126.761 18.2098 127.57 19.152C128.382 20.099 128.794 21.5124 128.794 23.354C128.794 25.2182 128.406 26.6502 127.642 27.6082C126.883 28.5589 125.742 29.0418 124.249 29.0418ZM124.431 14.3893C121.599 14.3893 119.351 15.2188 117.748 16.8548C116.146 18.4909 115.333 20.7552 115.333 23.5851C115.333 26.2742 116.127 28.4351 117.691 30.0103C119.255 31.5859 121.383 32.3841 124.017 32.3841C126.761 32.3841 128.965 31.543 130.567 29.8844C132.169 28.2275 132.981 25.9847 132.981 23.2208C132.981 20.4909 132.219 18.3127 130.716 16.7481C129.212 15.1827 127.097 14.3893 124.431 14.3893ZM109.128 17.7759V14.8028H105.09V31.9702H109.128V23.1884C109.128 21.6952 109.466 20.4684 110.135 19.5418C110.794 18.6262 111.673 18.1623 112.746 18.1623C113.11 18.1623 113.518 18.2223 113.96 18.3409C114.398 18.4589 114.715 18.5869 114.902 18.7217L115.072 18.8447V14.7735L115.006 14.7454C114.63 14.5856 114.098 14.505 113.425 14.505C112.41 14.505 111.502 14.8311 110.724 15.4731C110.042 16.0374 109.548 16.8111 109.171 17.7759H109.128ZM97.8579 14.3893C96.0052 14.3893 94.3528 14.7865 92.9472 15.5697C91.5387 16.3546 90.4495 17.4752 89.7084 18.9002C88.9705 20.3217 88.5959 21.9821 88.5959 23.8339C88.5959 25.4559 88.9591 26.9444 89.677 28.2563C90.3953 29.5704 91.4119 30.5985 92.6988 31.3115C93.9839 32.0236 95.4692 32.3846 97.1137 32.3846C99.0328 32.3846 100.671 32.001 101.985 31.2443L102.038 31.2139V27.5142L101.868 27.6381C101.273 28.0716 100.608 28.4176 99.8928 28.6668C99.179 28.9159 98.5283 29.0418 97.9577 29.0418C96.3731 29.0418 95.1011 28.546 94.1778 27.5685C93.2524 26.5897 92.7832 25.2153 92.7832 23.4859C92.7832 21.7455 93.2725 20.3358 94.2368 19.2956C95.1982 18.2585 96.4726 17.7324 98.0243 17.7324C99.3517 17.7324 100.645 18.1819 101.869 19.0695L102.038 19.1925V15.2943L101.983 15.2635C101.523 15.0057 100.895 14.7929 100.115 14.6315C99.3388 14.4704 98.5794 14.3893 97.8579 14.3893ZM85.8147 14.803H81.7764V31.9702H85.8147V14.803ZM83.8369 7.48968C83.1722 7.48968 82.5925 7.71594 82.1163 8.1643C81.638 8.61392 81.3955 9.18002 81.3955 9.84812C81.3955 10.5057 81.6351 11.0615 82.1089 11.4991C82.5795 11.9355 83.161 12.1567 83.837 12.1567C84.5129 12.1567 85.0966 11.9355 85.5728 11.4999C86.0522 11.0615 86.2953 10.5059 86.2953 9.84812C86.2953 9.20339 86.0587 8.64309 85.5926 8.18241C85.1269 7.72265 84.5359 7.48968 83.8369 7.48968ZM73.7612 13.5364V31.9702H77.8824V8.01521H72.1784L64.9284 25.8082L57.8926 8.01521H51.9564V31.97H55.8293V13.5346H55.9622L63.3918 31.9702H66.3146L73.6282 13.5364H73.7612Z" fill="#706D6E"/>
<path d="M18.9971 19.0074H0V0.0102482H18.9971V19.0074Z" fill="#F1511B"/>
<path d="M39.9722 19.0074H20.9753V0.0102482H39.9722V19.0074Z" fill="#80CC28"/>
<path d="M18.9966 39.9898H0V20.9928H18.9966V39.9898Z" fill="#00ADEF"/>
<path d="M39.9722 39.9898H20.9753V20.9928H39.9722V39.9898Z" fill="#FBBC09"/>
</g>
<defs>
<clipPath id="clip0_186_420">
<rect width="187.266" height="40" fill="white"/>
</clipPath>
</defs>
</svg>
