<svg width="64" height="48" viewBox="0 0 64 48" fill="none" xmlns="http://www.w3.org/2000/svg">
<g clip-path="url(#clip0_186_500)">
<path d="M55.075 27.5749C52.8375 27.5876 50.9 28.1249 49.275 28.9251C48.675 27.7376 48.075 26.7 47.9751 25.9251C47.8626 25.0251 47.7251 24.475 47.8626 23.4001C48 22.325 48.625 20.8 48.625 20.675C48.6124 20.5625 48.4874 20.0125 47.2 20C45.9126 19.9875 44.8 20.25 44.675 20.5875C44.55 20.925 44.3 21.7 44.1375 22.5C43.9125 23.675 41.5625 27.8374 40.225 30.0249C39.7875 29.1749 39.4125 28.4249 39.3374 27.8248C39.225 26.9249 39.0874 26.3748 39.225 25.3C39.3625 24.2248 39.9875 22.7 39.9875 22.575C39.975 22.4625 39.85 21.9125 38.5626 21.9C37.275 21.8875 36.1626 22.15 36.0376 22.4875C35.9126 22.825 35.7751 23.625 35.5001 24.4C35.2375 25.175 32.1125 32.1249 31.3 33.9374C30.8875 34.8624 30.5251 35.5999 30.2625 36.0999C30 36.5999 30.25 36.1374 30.225 36.1874C30 36.6124 29.875 36.8499 29.875 36.8499V36.8626C29.7 37.1751 29.5125 37.4749 29.4249 37.4749C29.3624 37.4749 29.2374 36.6374 29.4499 35.4876C29.9124 33.0749 31.0374 29.3126 31.025 29.1751C31.025 29.1126 31.2374 28.4499 30.2999 28.1126C29.3874 27.7751 29.0625 28.3376 28.9874 28.3376C28.9124 28.3376 28.8499 28.5376 28.8499 28.5376C28.8499 28.5376 29.8624 24.3002 26.9124 24.3002C25.0624 24.3002 22.5124 26.3127 21.2499 28.1502C20.4499 28.5877 18.7499 29.5126 16.9499 30.5002C16.2624 30.8752 15.5499 31.2752 14.8749 31.6377L14.7375 31.4874C11.1625 27.6749 4.55005 24.975 4.82505 19.85C4.92505 17.9875 5.57505 13.075 17.5252 7.12499C27.3126 2.25 35.1501 3.58749 36.5125 6.56249C38.45 10.8125 32.325 18.7125 22.1501 19.85C18.2752 20.2875 16.2375 18.7875 15.7252 18.225C15.1877 17.6375 15.1127 17.6125 14.9127 17.725C14.5877 17.9 14.7877 18.425 14.9127 18.7375C15.2127 19.525 16.4627 20.925 18.5877 21.625C20.45 22.2375 25.0001 22.575 30.5001 20.45C36.6626 18.0625 41.4751 11.4375 40.0626 5.89999C38.6251 0.262501 29.2751 -1.5875 20.4377 1.55C15.175 3.42499 9.47504 6.34999 5.37505 10.1875C0.500053 14.7375 -0.274946 18.7125 0.0500537 20.3625C1.18768 26.25 9.30004 30.0874 12.55 32.9249C12.3875 33.0123 12.2375 33.0998 12.1 33.1749C10.475 33.9748 4.28755 37.2124 2.73755 40.6373C0.987552 44.5123 3.01255 47.2999 4.36255 47.6749C8.53754 48.8374 12.8125 46.7499 15.125 43.3124C17.4249 39.8749 17.15 35.4124 16.0875 33.3749L16.0499 33.2999L17.3249 32.5499C18.15 32.0624 18.9625 31.6124 19.6749 31.2248C19.275 32.3123 18.9874 33.5998 18.8375 35.4748C18.6625 37.6749 19.5625 40.5248 20.75 41.6498C21.275 42.1372 21.9 42.1498 22.2875 42.1498C23.6625 42.1498 24.2875 41.0122 24.975 39.6498C25.825 37.9873 26.575 36.0623 26.575 36.0623C26.575 36.0623 25.6375 41.2748 28.2 41.2748C29.1375 41.2748 30.075 40.0623 30.5 39.4373V39.4498C30.5 39.4498 30.525 39.4123 30.575 39.3248C30.6275 39.2473 30.6775 39.1681 30.725 39.0874V39.0624C31.1 38.4124 31.9375 36.9249 33.1875 34.4624C34.7999 31.2874 36.35 27.3125 36.35 27.3125C36.35 27.3125 36.5 28.2874 36.9625 29.8874C37.2374 30.8376 37.8374 31.8749 38.2999 32.8874C37.9249 33.4124 37.6999 33.7126 37.6999 33.7126L37.7124 33.7251C37.4125 34.1251 37.0749 34.5502 36.725 34.9751C35.45 36.5001 33.925 38.2377 33.725 38.7377C33.4875 39.3251 33.5375 39.7626 34 40.1127C34.3375 40.3627 34.9375 40.4126 35.575 40.3627C36.725 40.2876 37.525 40.0002 37.925 39.8251C38.55 39.6001 39.2625 39.2626 39.95 38.7626C41.2 37.8377 41.9625 36.5252 41.8875 34.7752C41.85 33.8127 41.5375 32.8627 41.15 31.9627C41.2625 31.8002 41.3751 31.6376 41.4875 31.4627C43.4625 28.5751 44.9875 25.4002 44.9875 25.4002C44.9875 25.4002 45.1375 26.3752 45.6 27.9752C45.8374 28.7877 46.3125 29.6753 46.7375 30.5503C44.8875 32.0628 43.725 33.8128 43.325 34.9628C42.5875 37.0878 43.1625 38.0503 44.25 38.2753C44.7374 38.3753 45.4375 38.1503 45.9624 37.9253C46.6124 37.7128 47.3999 37.3502 48.125 36.8128C49.375 35.8878 50.575 34.6003 50.5125 32.8628C50.475 32.0628 50.2625 31.2753 49.975 30.5253C51.55 29.8753 53.5874 29.5003 56.175 29.8128C61.7375 30.4628 62.8375 33.9378 62.6251 35.3878C62.4126 36.8379 61.2501 37.6378 60.8625 37.8878C60.475 38.1253 60.35 38.2129 60.3875 38.3878C60.4375 38.6504 60.6125 38.6378 60.95 38.5879C61.4125 38.5128 63.875 37.4004 63.975 34.7256C64.125 31.2876 60.8625 27.5376 55.075 27.5749ZM12.175 42.0374C10.3375 44.0499 7.75004 44.8124 6.65004 44.1624C5.46255 43.4749 5.92492 40.5124 8.18754 38.3749C9.56254 37.0749 11.35 35.8749 12.525 35.1374C12.7875 34.9749 13.1875 34.7376 13.6625 34.4499C13.7375 34.4001 13.7875 34.3749 13.7875 34.3749C13.875 34.3249 13.975 34.2624 14.075 34.1999C14.9125 37.2499 14.1125 39.9249 12.175 42.0374ZM25.6125 32.8999C24.975 34.4624 23.625 38.4749 22.8125 38.2499C22.1124 38.0624 21.6875 35.0249 22.6749 32.0249C23.1749 30.5123 24.2374 28.7124 24.8624 28.0123C25.875 26.8873 26.9749 26.5123 27.25 26.9748C27.575 27.5749 26.0125 31.9249 25.6125 32.8999ZM36.7 38.1999C36.425 38.3376 36.175 38.4374 36.0625 38.3626C35.975 38.3126 36.1749 38.1251 36.1749 38.1251C36.1749 38.1251 37.5624 36.6376 38.1124 35.9501C38.4249 35.5502 38.7999 35.0877 39.1999 34.5626V34.7126C39.2 36.5124 37.475 37.7124 36.7 38.1999ZM45.2499 36.2499C45.0499 36.0999 45.075 35.6374 45.7499 34.1874C46.0125 33.6124 46.6124 32.6499 47.6499 31.7374C47.7749 32.1124 47.85 32.4748 47.8374 32.8124C47.825 35.0624 46.225 35.8999 45.2499 36.2499Z" fill="#CF649A"/>
</g>
<defs>
<clipPath id="clip0_186_500">
<rect width="64" height="48" fill="white"/>
</clipPath>
</defs>
</svg>
