<svg width="161" height="48" viewBox="0 0 161 48" fill="none" xmlns="http://www.w3.org/2000/svg">
<g clip-path="url(#clip0_186_457)">
<path d="M56.9257 18.831C56.9257 14.0653 60.4004 10.7375 66.715 10.7375C70.568 10.7375 73.7208 11.9677 75.4289 13.1728C75.6733 13.3449 76.1094 13.7623 75.8479 14.5387C75.5128 15.3749 74.8982 16.6324 74.4573 17.4493C74.2006 17.9253 73.5452 17.8626 73.2094 17.6925C71.9927 17.0759 69.9971 16.0329 68.1639 15.8406C67.6997 15.79 67.2327 15.7699 66.7658 15.7801C65.1513 15.8161 63.8025 16.3767 63.3275 17.6085C63.2344 17.8416 63.1825 18.089 63.174 18.3399C63.1297 19.9631 65.3887 20.55 68.1253 21.0202C73.2129 21.8918 77.062 23.3834 77.062 28.62C77.062 33.067 73.5278 37.0859 66.6031 36.9627C62.0381 36.8704 58.7994 35.3279 57.064 33.8311C57.0048 33.7803 56.3442 33.1075 56.6983 32.2983C57.1036 31.2566 57.7876 30.0628 58.3244 29.4288C58.6229 29.0217 59.4105 28.957 59.8199 29.2108C61.2505 30.0997 63.6047 31.5251 66.3185 31.6197C66.5327 31.6271 66.7449 31.6284 66.9533 31.6229C69.3944 31.5637 70.8713 30.6381 70.8404 29.0789C70.814 27.7053 68.8785 26.9029 65.7965 26.322C60.8809 25.3961 56.9263 23.7758 56.9263 18.831H56.9257ZM101.583 25.6167C98.1166 25.6621 94.9384 26.6096 94.8467 29.3185C94.8458 31.4682 96.5896 32.5241 99.037 32.3858C101.385 32.1597 103.175 31.1415 103.964 29.7903C104.256 29.2896 104.3 27.4159 104.283 26.615C104.278 26.4446 103.941 26.122 103.793 26.0599C103.057 25.7496 102.512 25.6537 101.583 25.6161L101.583 25.6167ZM90.0489 14.7011C91.6698 13.2506 94.8837 10.9929 100.006 11.1119C106.765 11.2524 110.336 14.4213 110.669 22.0018C110.806 25.1279 110.579 33.8475 110.525 36.02C110.516 36.3317 110.411 36.5472 109.991 36.5552C108.878 36.5999 106.306 36.5822 105.125 36.5668C104.528 36.5378 104.459 36.242 104.451 35.9322C104.446 35.7296 104.429 35.1288 104.416 34.639C104.41 34.3792 104.166 34.3866 104.103 34.4531C102.518 36.1461 99.9209 36.9637 97.1595 36.9637C92.9624 36.9637 88.7782 34.4946 88.791 29.6051C88.8039 24.5975 92.3545 22.1275 96.2551 21.5451C98.7527 21.1733 101.568 21.5039 103.7 22.3511C103.837 22.4057 104.115 22.3266 104.117 22.1333C104.126 21.4952 104.095 20.2792 103.973 19.7029C103.66 18.2344 102.435 17.0528 99.861 16.7344C99.331 16.6691 98.7974 16.6475 98.2632 16.69C96.2174 16.8508 93.7555 18.446 92.736 19.0432C92.496 19.1835 92.1204 19.0809 91.9988 18.9242C91.4038 18.1556 89.9083 15.9075 89.7906 15.5482C89.6729 15.19 89.8388 14.8883 90.0482 14.6998L90.0489 14.7011ZM112.897 24.0228C112.857 17.0389 117.723 11.1473 125.625 11.0955C130.555 11.0633 134.137 13.2985 134.769 14.3528C134.897 14.6004 134.831 14.8072 134.742 15.0565C134.325 15.9377 133.27 17.6404 132.519 18.6052C132.199 19.0162 131.852 18.6641 131.448 18.3955C130.328 17.6494 128.2 16.7369 126.105 16.7369C122.305 16.7376 119.475 19.3433 119.506 24.1373C119.536 28.7377 122.246 31.2659 126.118 31.3576C128.142 31.4084 130.103 30.2451 131.158 29.2922C131.489 29.003 131.832 29.1478 132.21 29.4436C132.953 30.203 134.019 31.3753 134.61 32.1822C134.997 32.6305 134.707 33.0692 134.568 33.2455C132.965 35.2739 129.869 36.981 125.772 37.0042C117.193 37.0643 112.938 31.0324 112.898 24.0238L112.897 24.0228ZM153.848 36.6893C154.25 36.6591 158.547 36.066 159.866 35.764C160.194 35.6894 160.31 35.4141 160.127 35.1414C159.391 34.037 157.454 30.9006 155.426 28.0929C153.561 25.5112 151.595 23.2406 150.959 22.3671C150.804 22.1549 150.812 21.9458 150.981 21.7812C152.191 20.5976 157.25 15.6367 159.153 13.588C159.889 12.791 159.447 12.4482 158.821 12.262C157.613 11.9018 155.659 11.4528 154.547 11.2183C154.079 11.1193 153.514 11.154 153.104 11.5753C151.202 13.349 145.398 19.1751 143.665 20.9166C143.353 21.2309 143.171 21.1611 143.169 20.7121C143.155 17.3544 143.089 2.97886 142.969 0.614341C142.961 0.30173 142.585 0.0643778 142.373 0.0531212C141.283 -0.00380473 138.53 -0.0202073 137.446 0.0434725C137.142 0.0778854 136.851 0.387601 136.825 0.649397C136.575 4.43031 136.931 32.1851 137.08 36.0676C137.09 36.3484 137.299 36.5661 137.566 36.5819C138.648 36.6446 141.325 36.6404 142.575 36.617C143.19 36.617 143.265 36.1847 143.265 36.1847L143.358 28.7371C143.358 28.7371 143.421 28.4058 143.524 28.2964C143.964 27.8221 145.183 26.5157 145.703 26.0107C145.828 25.8895 146.024 25.8982 146.152 26.0696C146.769 26.9026 148.53 29.6106 150.162 32.0291C151.662 34.2508 153.062 36.2227 153.16 36.3619C153.386 36.6835 153.649 36.6964 153.848 36.6903V36.6893H153.848ZM80.7661 36.6636C81.144 36.6761 84.0112 36.6729 85.2816 36.6713C85.7093 36.6797 85.9316 36.3558 85.9457 36.0699C86.2155 30.6262 86.1001 4.70851 85.9296 0.615949C85.9155 0.262171 85.764 0.129344 85.5225 0.0971829C84.4322 -0.0488306 81.3337 -0.0147396 80.3406 0.245126C80.1463 0.295619 80.0318 0.443241 80.0257 0.632994C79.7826 11.182 79.9466 35.5026 79.9981 35.9631C80.0492 36.4243 80.2904 36.6475 80.7667 36.6636H80.7661Z" fill="#443642"/>
<path d="M4.0308 25.84C2.26384 25.8535 0.767044 24.8005 0.215151 23.1571C0.194677 23.095 0.17559 23.0325 0.157903 22.9696C-0.443518 20.8649 0.722661 18.6631 2.81284 17.9581L36.3381 6.72633C36.7361 6.61117 37.1481 6.55101 37.5625 6.54751C39.3764 6.53336 40.9143 7.60949 41.4797 9.28768L41.5299 9.44978C42.1571 11.6419 40.5988 13.5986 38.7319 14.2258C38.7306 14.2267 38.391 14.3416 5.39252 25.6081C4.95391 25.7576 4.49418 25.8359 4.0308 25.84Z" fill="#70CADB"/>
<path d="M9.61889 42.3276C7.8381 42.3405 6.33616 41.3023 5.7907 39.6823C5.76999 39.6207 5.75069 39.5586 5.7328 39.4961C5.12302 37.3664 6.28791 35.1414 8.38517 34.4355L41.9117 23.1008C42.3449 22.956 42.7923 22.8821 43.2422 22.8779C45.0278 22.8644 46.5967 23.9553 47.1502 25.5936L47.2016 25.7641C47.5255 26.8965 47.3341 28.1691 46.6902 29.1735C46.2104 29.9203 44.6969 30.5777 44.6969 30.5777L11.043 42.0848C10.584 42.2402 10.1034 42.3223 9.61889 42.3282V42.3276Z" fill="#E01765"/>
<path d="M37.5274 42.3993C36.6584 42.4077 35.8091 42.1408 35.1011 41.6368C34.393 41.1329 33.8627 40.4177 33.586 39.5939L22.397 6.35808L22.341 6.17155C21.7348 4.0521 22.9007 1.84131 24.9902 1.13697C25.4083 0.996421 25.8406 0.923092 26.2757 0.919233C26.9221 0.914409 27.5477 1.0601 28.1369 1.35116C28.6222 1.59118 29.0553 1.92478 29.4113 2.33279C29.7672 2.74079 30.039 3.21514 30.211 3.72855L41.399 36.9615L41.4315 37.0682C42.06 39.2687 40.8967 41.4808 38.8071 42.1852C38.3944 42.323 37.9626 42.3953 37.5274 42.3993Z" fill="#E8A723"/>
<path d="M20.8957 47.9974C20.0262 48.0056 19.1764 47.7385 18.4681 47.2341C17.7598 46.7297 17.2293 46.014 16.9527 45.1897L5.76659 11.9552C5.59326 11.4424 5.52277 10.9006 5.55914 10.3606C5.59551 9.82055 5.73803 9.29302 5.97855 8.80816C6.21906 8.32331 6.55285 7.89066 6.96079 7.53497C7.36873 7.17929 7.84282 6.90756 8.35592 6.73533C8.76927 6.59715 9.20174 6.52466 9.63756 6.52049C10.5067 6.51191 11.3563 6.77874 12.0644 7.28272C12.7726 7.7867 13.303 8.50196 13.5796 9.32595L24.7661 42.5617C24.9395 43.0747 25.01 43.6168 24.9735 44.1571C24.937 44.6974 24.7942 45.2251 24.5534 45.7101C24.3126 46.1951 23.9785 46.6278 23.5701 46.9834C23.1618 47.3391 22.6873 47.6106 22.1738 47.7825C21.7613 47.9208 21.3295 47.9932 20.8945 47.997H20.8957V47.9974Z" fill="#3EB890"/>
<path d="M32.0114 34.9147L39.8132 32.2472L37.2628 24.6731L29.452 27.3127L32.0114 34.9147Z" fill="#CC2027"/>
<path d="M15.4054 40.5925L23.2065 37.9253L20.6368 30.2934L12.828 32.9338L15.4054 40.5925Z" fill="#361238"/>
<path d="M26.4571 18.4171L34.2595 15.7531L31.739 8.26751L23.9221 10.8864L26.4571 18.4171Z" fill="#65863A"/>
<path d="M9.84917 24.0871L17.6516 21.4232L15.1002 13.8421L7.28333 16.4607L9.84917 24.0871Z" fill="#1A937D"/>
</g>
<defs>
<clipPath id="clip0_186_457">
<rect width="160.214" height="48" fill="white"/>
</clipPath>
</defs>
</svg>
