<svg width="161" height="48" viewBox="0 0 161 48" fill="none" xmlns="http://www.w3.org/2000/svg">
<g clip-path="url(#clip0_186_455)">
<path d="M23.9999 1.90735e-05C10.7454 1.90735e-05 0 10.7451 0 23.9996C0 37.2555 10.7454 48 23.9999 48C37.2549 48 47.9997 37.2555 47.9997 23.9996C47.9997 10.746 37.2555 0.00116455 23.9996 0.00116455L23.9999 1.90735e-05ZM35.006 34.6143C34.575 35.3213 33.6539 35.5428 32.9492 35.1121C27.3134 31.6676 20.2197 30.8895 11.8656 32.7979C11.0606 32.9825 10.2582 32.4778 10.0748 31.673C9.89048 30.868 10.3929 30.0655 11.1999 29.8821C20.3421 27.792 28.184 28.6916 34.5099 32.5571C35.215 32.9899 35.4385 33.9099 35.0057 34.6149L35.006 34.6143ZM37.9436 28.0804C37.4008 28.961 36.2492 29.2373 35.3697 28.6965C28.92 24.7318 19.0851 23.5835 11.4547 25.8997C10.4651 26.1986 9.4199 25.6409 9.11955 24.653C8.8215 23.6634 9.3795 22.6202 10.3674 22.3193C19.0834 19.6747 29.9188 20.9557 37.3271 25.5082C38.2069 26.0499 38.4849 27.202 37.9433 28.0806L37.9436 28.0804ZM38.1958 21.2756C30.4596 16.6812 17.6989 16.2588 10.3137 18.5002C9.12785 18.8599 7.87374 18.1904 7.51435 17.0045C7.15497 15.818 7.82387 14.5648 9.01063 14.2042C17.4882 11.6307 31.5813 12.1279 40.4867 17.4146C41.5534 18.0477 41.9034 19.4253 41.2711 20.4906C40.6406 21.5573 39.2593 21.9089 38.196 21.2756H38.1958ZM65.2957 22.156C61.1519 21.1678 60.4142 20.4743 60.4142 19.0169C60.4142 17.6402 61.7104 16.7136 63.638 16.7136C65.5066 16.7136 67.3594 17.4172 69.3019 18.8656C69.3606 18.9095 69.4343 18.9269 69.5068 18.9155C69.5793 18.9046 69.6435 18.8648 69.6859 18.8049L71.7093 15.9527C71.7924 15.8352 71.7697 15.6733 71.6577 15.5836C69.3457 13.7285 66.7424 12.8266 63.6994 12.8266C59.2251 12.8266 56.0999 15.5117 56.0999 19.3534C56.0999 23.4731 58.7958 24.9319 63.4546 26.0579C67.4199 26.9712 68.0891 27.7364 68.0891 29.1043C68.0891 30.6201 66.7358 31.5624 64.558 31.5624C62.1392 31.5624 60.1663 30.7476 57.9593 28.8364C57.9045 28.7891 57.8294 28.7676 57.7601 28.7716C57.687 28.7776 57.6202 28.8114 57.5738 28.8673L55.3052 31.5673C55.21 31.6793 55.2221 31.8467 55.3321 31.9436C57.9 34.236 61.0582 35.4469 64.4663 35.4469C69.2876 35.4469 72.4031 32.8125 72.4031 28.7352C72.4117 25.2933 70.3511 23.3874 65.3043 22.1597L65.2957 22.156ZM83.3107 18.0692C81.2209 18.0692 79.5068 18.8923 78.0933 20.5788V18.6805C78.0933 18.5306 77.9718 18.4085 77.8222 18.4085H74.1117C73.9618 18.4085 73.8406 18.5306 73.8406 18.6805V39.774C73.8406 39.9239 73.9618 40.046 74.1117 40.046H77.8222C77.9718 40.046 78.0933 39.9239 78.0933 39.774V33.1157C79.5071 34.7023 81.2214 35.4775 83.3107 35.4775C87.1937 35.4775 91.1245 32.4884 91.1245 26.7744C91.1303 21.0589 87.1983 18.0689 83.315 18.0689L83.3107 18.0692ZM86.8099 26.7744C86.8099 29.6841 85.0176 31.7146 82.4512 31.7146C79.914 31.7146 78.0002 29.5918 78.0002 26.7744C78.0002 23.9572 79.914 21.8341 82.4512 21.8341C84.976 21.8338 86.8102 23.911 86.8102 26.7741L86.8099 26.7744ZM101.2 18.0692C96.1989 18.0692 92.2812 21.9198 92.2812 26.8365C92.2812 31.6997 96.172 35.5099 101.138 35.5099C106.157 35.5099 110.086 31.6722 110.086 26.7743C110.086 21.8934 106.183 18.0698 101.199 18.0698L101.2 18.0692ZM101.2 31.7435C98.5397 31.7435 96.5345 29.6064 96.5345 26.7729C96.5345 23.9274 98.4704 21.8625 101.138 21.8625C103.815 21.8625 105.834 23.9996 105.834 26.8351C105.834 29.6801 103.885 31.7435 101.2 31.7435H101.2ZM120.765 18.4085H116.682V14.2341C116.682 14.0845 116.561 13.9624 116.411 13.9624H112.701C112.551 13.9624 112.429 14.0845 112.429 14.2341V18.4085H110.645C110.496 18.4085 110.375 18.5306 110.375 18.6805V21.8694C110.375 22.019 110.496 22.1413 110.645 22.1413H112.429V30.3925C112.429 33.727 114.089 35.4176 117.362 35.4176C118.693 35.4176 119.797 35.1428 120.838 34.5527C120.922 34.5054 120.975 34.4143 120.975 34.3174V31.2807C120.975 31.187 120.926 31.0984 120.846 31.0494C120.765 30.9987 120.664 30.9961 120.582 31.0371C119.867 31.3968 119.176 31.5627 118.404 31.5627C117.213 31.5627 116.682 31.0222 116.682 29.8108V22.1428H120.765C120.915 22.1428 121.036 22.0207 121.036 21.8708V18.6822C121.041 18.5324 120.921 18.4103 120.769 18.4103L120.765 18.4085ZM134.991 18.4249V17.9121C134.991 16.4038 135.57 15.7312 136.867 15.7312C137.64 15.7312 138.262 15.8848 138.957 16.1169C139.043 16.1439 139.133 16.1304 139.202 16.0791C139.274 16.0278 139.314 15.9456 139.314 15.8584V12.7317C139.314 12.6122 139.237 12.5065 139.122 12.4712C138.387 12.2525 137.447 12.0281 136.038 12.0281C132.611 12.0281 130.8 13.958 130.8 17.6072V18.3924H129.017C128.867 18.3924 128.745 18.5145 128.745 18.6641V21.8694C128.745 22.019 128.867 22.1413 129.017 22.1413H130.8V34.8685C130.8 35.0183 130.921 35.1404 131.07 35.1404H134.781C134.931 35.1404 135.053 35.0183 135.053 34.8685V22.1422H138.517L143.824 34.8662C143.221 36.2031 142.629 36.4691 141.82 36.4691C141.166 36.4691 140.478 36.2739 139.774 35.8887C139.708 35.8523 139.63 35.8463 139.558 35.8684C139.487 35.8933 139.428 35.9461 139.398 36.0148L138.14 38.7738C138.08 38.9042 138.132 39.0573 138.257 39.1249C139.57 39.8359 140.755 40.1394 142.22 40.1394C144.96 40.1394 146.474 38.8633 147.809 35.4299L154.246 18.7963C154.278 18.7126 154.269 18.618 154.217 18.5438C154.166 18.4701 154.084 18.4257 153.994 18.4257H150.131C150.016 18.4257 149.912 18.4994 149.874 18.608L145.917 29.9105L141.583 18.6005C141.544 18.4953 141.442 18.4257 141.33 18.4257H134.99L134.991 18.4249ZM126.743 18.4085H123.033C122.883 18.4085 122.761 18.5306 122.761 18.6805V34.8685C122.761 35.0184 122.883 35.1405 123.033 35.1405H126.743C126.893 35.1405 127.015 35.0184 127.015 34.8685V18.6816C127.015 18.6459 127.008 18.6104 126.995 18.5774C126.981 18.5443 126.961 18.5143 126.936 18.489C126.91 18.4638 126.88 18.4437 126.847 18.4301C126.814 18.4165 126.779 18.4095 126.743 18.4097L126.743 18.4085ZM124.909 11.0377C123.439 11.0377 122.246 12.2276 122.246 13.6976C122.246 15.1683 123.439 16.3597 124.909 16.3597C126.378 16.3597 127.57 15.1683 127.57 13.6976C127.57 12.2279 126.378 11.0377 124.911 11.0377H124.909ZM157.414 23.6133C155.946 23.6133 154.803 22.4339 154.803 21.0019C154.803 19.5698 155.961 18.377 157.428 18.377C158.896 18.377 160.039 19.556 160.039 20.987C160.039 22.4191 158.881 23.6133 157.414 23.6133H157.414ZM157.428 18.6366C156.091 18.6366 155.079 19.6999 155.079 21.0019C155.079 22.3033 156.084 23.3522 157.415 23.3522C158.752 23.3522 159.765 22.2898 159.765 20.987C159.765 19.6856 158.759 18.6366 157.43 18.6366H157.428ZM158.007 21.2555L158.746 22.2895H158.123L157.458 21.3409H156.887V22.2895H156.365V19.5486H157.588C158.224 19.5486 158.643 19.8744 158.643 20.423C158.646 20.8723 158.385 21.1469 158.01 21.2555H158.007V21.2555ZM157.566 20.0189H156.886V20.8858H157.566C157.905 20.8858 158.108 20.7199 158.108 20.4519C158.108 20.1699 157.904 20.0189 157.566 20.0189H157.566V20.0189Z" fill="#2EBD59"/>
</g>
<defs>
<clipPath id="clip0_186_455">
<rect width="160.039" height="48" fill="white"/>
</clipPath>
</defs>
</svg>
