<svg width="826" height="635" viewBox="0 0 826 635" fill="none" xmlns="http://www.w3.org/2000/svg">
<g clip-path="url(#clip0_277_53613)">
<path d="M107 0.500004C81.4 0.500004 75.6667 21.1667 76 31.5L76 596C76 601.2 77.3333 606.167 78 608H-1V621L0 623.5C4.8 632.3 52 635.167 75 635.5H969.5C1037.1 635.5 1060 627.5 1063 623.5V607.5H984L986 599V32C986 6 967.667 0.166671 958.5 0.500004H107Z" fill="white"/>
<path d="M77.9258 607.775C76.758 604.481 76.3189 601.077 76.3189 597.6C76.3189 595.336 76.3189 593.07 76.3189 590.806C76.3189 586.481 76.3189 582.155 76.3189 577.831C76.3189 571.664 76.3189 565.497 76.3189 559.328C76.3189 551.538 76.3189 543.747 76.3189 535.956C76.3189 526.718 76.3189 517.481 76.3189 508.243C76.3189 497.855 76.3189 487.467 76.3189 477.081C76.3189 465.726 76.3189 454.371 76.3189 443.015C76.3189 430.857 76.3189 418.701 76.3189 406.544C76.3189 393.907 76.3189 381.27 76.3189 368.633C76.3189 355.684 76.3189 342.736 76.3189 329.787C76.3189 316.745 76.3189 303.705 76.3189 290.663C76.3189 277.692 76.3189 264.723 76.3189 251.753C76.3189 239.183 76.3189 226.611 76.3189 214.041C76.3189 202.033 76.3189 190.027 76.3189 178.018C76.3189 166.793 76.3189 155.566 76.3189 144.341C76.3189 134.073 76.3189 123.807 76.3189 113.539C76.3189 104.537 76.3189 95.5346 76.3189 86.5324C76.3189 78.9675 76.3189 71.4027 76.3189 63.8379C76.3189 57.9084 76.3189 51.9775 76.3189 46.048C76.3189 42.022 76.3189 37.9959 76.3189 33.9699C76.3189 32.0375 76.3144 30.1052 76.3189 28.1714C76.3281 23.8712 77.1772 19.6579 79.0433 15.7658C81.7752 10.0709 86.451 5.41594 92.1558 2.6979C95.993 0.870648 100.157 0.0194569 104.395 0.00270704C105.723 -0.00186109 107.049 0.00270704 108.377 0.00270704C111.171 0.00270704 113.967 0.00270704 116.762 0.00270704C120.947 0.00270704 125.131 0.00270704 129.316 0.00270704C134.757 0.00270704 140.198 0.00270704 145.639 0.00270704C152.254 0.00270704 158.868 0.00270704 165.483 0.00270704C173.208 0.00270704 180.931 0.00270704 188.656 0.00270704C197.327 0.00270704 205.997 0.00270704 214.669 0.00270704C224.218 0.00270704 233.768 0.00270704 243.318 0.00270704C253.648 0.00270704 263.978 0.00270704 274.31 0.00270704C285.323 0.00270704 296.337 0.00270704 307.351 0.00270704C319 0.00270704 330.648 0.00270704 342.297 0.00270704C354.383 0.00270704 366.471 0.00270704 378.559 0.00270704C391.034 0.00270704 403.511 0.00270704 415.986 0.00270704C428.808 0.00270704 441.628 0.00270704 454.449 0.00270704C467.409 0.00270704 480.369 0.00270704 493.328 0.00270704C506.382 0.00270704 519.435 0.00270704 532.49 0.00270704C545.54 0.00270704 558.59 0.00270704 571.64 0.00270704C584.643 0.00270704 597.645 0.00270704 610.648 0.00270704C623.396 0.00270704 636.144 0.00270704 648.891 0.00270704C661.34 0.00270704 673.791 0.00270704 686.241 0.00270704C698.295 0.00270704 710.348 0.00270704 722.402 0.00270704C734.01 0.00270704 745.617 0.00270704 757.224 0.00270704C768.189 0.00270704 779.155 0.00270704 790.119 0.00270704C800.395 0.00270704 810.668 0.00270704 820.944 0.00270704C830.469 0.00270704 839.993 0.00270704 849.518 0.00270704C858.115 0.00270704 866.71 0.00270704 875.307 0.00270704C882.919 0.00270704 890.529 0.00270704 898.141 0.00270704C904.669 0.00270704 911.199 0.00270704 917.727 0.00270704C923.075 0.00270704 928.423 0.00270704 933.771 0.00270704C937.856 0.00270704 941.94 0.00270704 946.023 0.00270704C948.709 0.00270704 951.396 0.00270704 954.083 0.00270704C955.295 0.00270704 956.507 -0.00338381 957.719 0.00270704C962.401 0.0285932 966.997 1.11429 971.126 3.3481C976.684 6.35698 981.11 11.2479 983.544 17.0769C985.049 20.6811 985.677 24.4879 985.682 28.3769C985.683 30.4768 985.682 32.575 985.682 34.6749C985.682 38.873 985.682 43.0711 985.682 47.2692C985.682 53.3113 985.682 59.3535 985.682 65.3971C985.682 73.0792 985.682 80.7613 985.682 88.4418C985.682 97.5446 985.682 106.647 985.682 115.75C985.682 126.102 985.682 136.451 985.682 146.803C985.682 158.095 985.682 169.389 985.682 180.682C985.682 192.74 985.682 204.797 985.682 216.855C985.682 229.514 985.682 242.172 985.682 254.83C985.682 267.764 985.682 280.696 985.682 293.63C985.682 306.672 985.682 319.714 985.682 332.756C985.682 345.689 985.682 358.621 985.682 371.554C985.682 384.159 985.682 396.762 985.682 409.367C985.682 421.474 985.682 433.581 985.682 445.69C985.682 456.979 985.682 468.269 985.682 479.558C985.682 489.864 985.682 500.168 985.682 510.474C985.682 519.612 985.682 528.751 985.682 537.889C985.682 545.563 985.682 553.239 985.682 560.915C985.682 566.95 985.682 572.986 985.682 579.02C985.682 583.209 985.682 587.4 985.682 591.589C985.682 593.679 985.685 595.768 985.682 597.859C985.677 601.249 985.209 604.568 984.075 607.777" stroke="#171952" stroke-width="2.75844" stroke-miterlimit="10" stroke-linecap="round" stroke-linejoin="round"/>
<path d="M530.983 635.361C529.441 635.361 527.899 635.361 526.357 635.361C521.989 635.361 517.619 635.361 513.252 635.361C506.443 635.361 499.635 635.361 492.828 635.361C483.968 635.361 475.107 635.361 466.247 635.361C455.666 635.361 445.087 635.361 434.506 635.361C422.697 635.361 410.886 635.361 399.077 635.361C386.377 635.361 373.678 635.361 360.977 635.361C347.774 635.361 334.572 635.361 321.369 635.361C308.05 635.361 294.733 635.361 281.414 635.361C268.365 635.361 255.319 635.361 242.271 635.361C229.882 635.361 217.492 635.361 205.103 635.361C193.76 635.361 182.414 635.361 171.07 635.361C161.113 635.361 151.158 635.361 141.202 635.361C133.118 635.361 125.033 635.361 116.95 635.361C111.074 635.361 105.198 635.361 99.3222 635.361C96.0401 635.361 92.758 635.361 89.4777 635.361C85.6412 635.361 81.8046 635.361 77.9699 635.301C69.0061 635.159 60.0476 634.94 51.1034 634.416C42.6869 633.924 34.2722 633.191 25.9608 631.947C18.3198 630.803 10.2474 629.291 3.47286 625.954C2.2267 625.34 1.02332 624.649 -0.069523 623.849C-0.985872 623.179 -0.793328 622.776 -0.793328 621.722C-0.793328 619.177 -0.793328 616.633 -0.793328 614.089C-0.793328 612.823 -0.793328 611.559 -0.793328 610.294C-0.793328 609.784 -1.07679 608.541 -0.793328 608.08C-0.515215 607.629 0.2282 607.815 0.99836 607.815C2.87028 607.815 4.74042 607.815 6.61234 607.815C9.69298 607.815 12.7718 607.815 15.8525 607.815C20.0741 607.815 24.2939 607.815 28.5156 607.815C33.8104 607.815 39.1053 607.815 44.4001 607.815C50.7023 607.815 57.0044 607.815 63.3065 607.815C70.5482 607.815 77.7898 607.815 85.0315 607.815C93.1449 607.815 101.258 607.815 109.372 607.815C118.336 607.815 127.299 607.815 136.263 607.815C145.922 607.815 155.583 607.815 165.242 607.815C175.572 607.815 185.903 607.815 196.232 607.815C207.166 607.815 218.098 607.815 229.032 607.815C240.501 607.815 251.969 607.815 263.438 607.815C275.375 607.815 287.313 607.815 299.25 607.815C311.589 607.815 323.928 607.815 336.266 607.815C348.938 607.815 361.612 607.815 374.284 607.815C387.223 607.815 400.163 607.815 413.102 607.815C426.305 607.815 439.507 607.815 452.71 607.815C465.981 607.815 479.252 607.815 492.525 607.815C505.86 607.815 519.197 607.815 532.532 607.815C545.866 607.815 559.199 607.815 572.533 607.815C585.797 607.815 599.06 607.815 612.324 607.815C625.451 607.815 638.577 607.815 651.704 607.815C664.626 607.815 677.549 607.815 690.471 607.815C703.121 607.815 715.772 607.815 728.422 607.815C740.734 607.815 753.046 607.815 765.358 607.815C777.321 607.815 789.283 607.815 801.244 607.815C812.673 607.815 824.102 607.815 835.534 607.815C846.423 607.815 857.312 607.815 868.201 607.815C878.483 607.815 888.762 607.815 899.043 607.815C908.649 607.815 918.255 607.815 927.86 607.815C936.722 607.815 945.586 607.815 954.449 607.815C962.501 607.815 970.554 607.815 978.607 607.815C985.783 607.815 992.958 607.815 1000.13 607.815C1006.39 607.815 1012.65 607.815 1018.91 607.815C1024.12 607.815 1029.34 607.815 1034.55 607.815C1038.69 607.815 1042.82 607.815 1046.96 607.815C1049.95 607.815 1052.94 607.815 1055.93 607.815C1057.7 607.815 1059.48 607.815 1061.25 607.815C1062.89 607.815 1062.76 607.555 1062.76 609.181C1062.76 611.685 1062.76 614.188 1062.76 616.692C1062.76 617.98 1062.76 619.268 1062.76 620.557C1062.76 621.276 1062.98 622.279 1062.76 622.976C1062.28 624.541 1058.78 625.864 1057.18 626.567C1050.07 629.706 1041.91 631.109 1034.07 632.227C1025.62 633.43 1017.07 634.075 1008.52 634.546C1000.07 635.012 991.596 635.224 983.13 635.314C979.432 635.354 975.735 635.361 972.037 635.361C968.541 635.361 965.045 635.361 961.549 635.361C955.488 635.361 949.428 635.361 943.367 635.361C935.129 635.361 926.89 635.361 918.652 635.361C908.622 635.361 898.594 635.361 888.564 635.361C877.131 635.361 865.698 635.361 854.265 635.361C841.816 635.361 829.365 635.361 816.916 635.361C803.772 635.361 790.627 635.361 777.485 635.361C764.162 635.361 750.837 635.361 737.515 635.361C724.338 635.361 711.16 635.361 697.983 635.361C685.338 635.361 672.695 635.361 660.049 635.361C648.324 635.361 636.599 635.361 624.875 635.361C614.456 635.361 604.038 635.361 593.619 635.361C584.894 635.361 576.17 635.361 567.445 635.361C560.8 635.361 554.156 635.361 547.511 635.361C543.334 635.361 539.157 635.361 534.98 635.361C533.645 635.361 532.315 635.361 530.983 635.361Z" stroke="#171952" stroke-width="2.75844" stroke-miterlimit="10" stroke-linecap="round" stroke-linejoin="round"/>
<path d="M457.321 607.777C457.703 610.423 459.233 612.897 462.353 614.121C464.432 614.937 466.746 615.101 469.027 615.11C484.028 615.161 499.031 615.11 514.032 615.11C523.382 615.11 532.733 615.11 542.083 615.11C558.351 615.11 574.618 615.11 590.886 615.11C596.88 615.11 603.059 614.447 604.494 608.771C604.578 608.442 604.641 608.11 604.689 607.777" stroke="#171952" stroke-width="2.75844" stroke-miterlimit="10" stroke-linecap="round" stroke-linejoin="round"/>
<path d="M1061.85 623.408H0.156372" stroke="#171952" stroke-width="2.75844" stroke-miterlimit="10" stroke-linecap="round" stroke-linejoin="round"/>
<mask id="mask0_277_53613" style="mask-type:alpha" maskUnits="userSpaceOnUse" x="95" y="28" width="872" height="545">
<rect x="95.626" y="28.5039" width="870.748" height="544.332" rx="0.919481" fill="#C4C4C4"/>
</mask>
<g mask="url(#mask0_277_53613)">
<rect x="95.626" y="572.836" width="544.332" height="870.748" transform="rotate(-90 95.626 572.836)" fill="#E3F0FC"/>
</g>
<rect x="95.626" y="28.5039" width="870.748" height="544.332" rx="0.919481" stroke="#171952" stroke-width="2.75844"/>
<path d="M534.218 14.2362C534.192 11.2515 530.33 9.86742 528.461 12.2282C526.658 14.5088 528.702 17.9342 531.564 17.4178C533.081 17.1437 534.217 15.7793 534.218 14.2362Z" stroke="#171952" stroke-width="2.75844" stroke-miterlimit="10" stroke-linecap="round" stroke-linejoin="round"/>
</g>
<defs>
<clipPath id="clip0_277_53613">
<rect width="826" height="635" fill="white"/>
</clipPath>
</defs>
</svg>
