<svg width="1310" height="578" viewBox="0 0 1310 578" fill="none" xmlns="http://www.w3.org/2000/svg">
<g opacity="0.6" clip-path="url(#clip0_582_7678)">
<path fill-rule="evenodd" clip-rule="evenodd" d="M1266.48 224.902C1279.25 219.988 1291.55 227.297 1304.52 221.469C1330.25 209.924 1358.31 203.556 1380.83 185.254C1385.81 181.212 1392.97 178.582 1393.15 171.411C1393.45 159.035 1401.65 154.799 1411.19 150.992C1416.17 148.998 1424.06 150.106 1424.91 142.949C1425.75 135.791 1422.85 128.8 1417.97 123.152C1415.72 120.577 1410.19 120.993 1410.17 116.854C1410.17 113.185 1403.31 107.537 1412.82 105.502C1417.91 104.422 1417.44 100.075 1413.82 97.957C1408.27 94.773 1403.28 90.6338 1396.53 89.6509C1387.97 88.2867 1380.09 84.1639 1374.09 77.9116C1344.29 48.0372 1302.64 33.8337 1260.43 33.5153C1238.96 33.3631 1217.42 31.4803 1196.41 35.6472C1157.27 43.4411 1127.04 63.2374 1112.95 103.079C1108.53 115.689 1102.33 127.611 1094.56 138.491C1090.55 144.028 1085.25 148.887 1088.33 155.02C1092.98 164.295 1088.95 176.533 1100.15 183.704C1112.89 191.886 1125.57 199.167 1140.62 202.393C1160.79 206.726 1181.84 208.636 1199.55 220.915C1204.08 224.044 1209.39 222.937 1214.22 223.02C1231.94 223.269 1249.46 228.82 1266.48 224.902Z" fill="#9CB6F2"/>
<path fill-rule="evenodd" clip-rule="evenodd" d="M1305.16 266.834C1288.51 270.904 1273.81 266.544 1259.02 268.703C1231.15 272.759 1203.02 275.002 1175.12 278.892C1164.11 280.429 1163.64 283.364 1169.34 295.629C1169.92 296.916 1171.46 298.619 1171.09 299.339C1164.43 312.103 1176.52 323.427 1173.19 336.841C1170.17 349.01 1165.73 362.369 1171.56 375.728C1172.86 378.718 1168.78 381.708 1166.65 384.574C1159.39 394.14 1161.35 401.906 1172.06 405.921C1180.38 409.022 1189.09 410.891 1197.67 413.189C1201.09 414.116 1205.6 413.618 1207.91 415.68C1229.91 435.214 1257.19 428.762 1282.62 431.587C1312.04 434.84 1338.69 423.045 1366.41 417.009C1378.61 414.351 1391.78 415.528 1402.4 406.211C1411.16 398.528 1418.26 388.505 1431.93 386.969C1438.49 386.235 1437.2 375.257 1442.03 371.519C1452.71 363.213 1453.39 349.121 1462.7 339.97C1468.96 333.81 1467.25 324.008 1462.23 318.166C1457.2 312.324 1451.72 307.285 1451.59 298.661C1451.59 294.508 1447.95 293.428 1444.05 292.653C1423.38 288.569 1403.82 279.141 1382.04 280.194C1380.67 279.997 1379.38 279.433 1378.3 278.56C1354.89 263.927 1328.62 268.426 1305.16 266.834Z" fill="#9CB6F2"/>
<path fill-rule="evenodd" clip-rule="evenodd" d="M764.057 407.125C754.234 406.35 747.63 402.39 747.908 392.035C747.991 388.436 748.56 383.217 744.661 382.705C725.779 380.213 737.114 362.59 729.941 354.284C728.082 352.124 730.399 348.58 733.16 347.362C740.235 344.22 738.099 337.866 738.82 332.508C741.165 314.899 741.04 314.511 723.559 318.415C714.139 320.547 701.777 315.287 696.089 328.646C695.229 330.667 690.706 329.421 688.361 327.441C679.912 320.312 668.536 319.758 658.963 313.861C648.044 307.133 632.603 313.224 619.284 314.235C603.065 315.453 586.986 319.44 571.086 323.205C562.715 325.201 555.082 329.521 549.068 335.664C544.032 340.745 538.871 346.393 532.6 349.383C512.247 359.074 509.528 378.455 504.978 396.964C503.59 402.501 503.174 409.021 507.669 413.105C516.978 421.564 521.848 432.86 528.577 442.938C536.721 455.162 549.637 461.627 562.415 464.437C596.517 471.94 631.035 476.993 666.024 467.621C681.064 463.593 696.699 461.876 711.947 458.526C725.821 455.452 724.627 439.962 736.42 438.01C734.408 418.407 754.206 418.144 764.057 407.125Z" fill="#9CB6F2"/>
<path fill-rule="evenodd" clip-rule="evenodd" d="M935.884 196.661C914.033 196.122 894.554 202.545 875.477 212.512C868.721 216.056 863.907 219.697 859.786 225.885C851.462 238.344 842.721 250.887 830.207 259.22C824.824 262.806 826.448 264.758 827.433 268.911C830.929 284.526 837.56 299.367 838.948 315.467C840.03 327.787 850.449 332.66 858.898 335.789C879.431 343.361 899.132 352.817 921.427 356.651C957.902 362.895 989.589 351.114 1022.25 339.153C1030.32 336.204 1026.76 323.025 1038.4 325.046C1046.85 326.528 1051.37 321.544 1052.92 313.086C1053.42 310.317 1057.5 310.414 1060.3 309.722C1069.5 307.41 1074.55 300.668 1077.81 292.293C1078.73 290.344 1079.35 288.266 1079.64 286.132C1080.12 278.338 1093.82 277.369 1090.08 269.188C1086.54 261.477 1076.98 267.596 1070.65 265.145C1067.13 263.761 1060.5 263.498 1062.62 257.587C1067.09 245.225 1056.53 237.791 1052.91 228.792C1048.33 217.593 1036.26 210.796 1022.71 211.779C1013.67 212.443 1005.66 206.74 998.219 206.753C976.534 206.795 957.319 194.211 935.884 196.661ZM870.122 289.413C858.94 282.339 859.703 275.002 869.262 267.457C869.706 274.794 879.293 281.924 870.122 289.427V289.413Z" fill="#9CB6F2"/>
<path fill-rule="evenodd" clip-rule="evenodd" d="M938.604 95.0498C933.997 89.3877 928.517 93.7345 924.119 91.9487C921.039 90.7167 919.194 86.5082 921.344 85.3869C934.205 78.742 925.063 73.7999 920.72 68.1794C919.499 66.6012 919.208 64.317 918.597 62.642C921.372 54.7511 930.418 63.8325 932.985 56.2463C928.573 51.1657 922.08 59.3057 917.529 54.502C914.213 51.0134 915.406 43.9947 909.205 42.8596C892.445 39.8001 876.31 31.051 858.843 34.941C849.839 36.9483 842.694 36.8376 834.425 32.2554C826.392 27.8116 816.098 25.2505 807.552 28.5176C794.691 33.432 782.759 32.2 769.773 30.2619C757.287 28.3792 743.76 28.8776 732.772 36.5192C726.029 41.2398 718.898 37.9036 712.169 40.077C701.251 43.5656 698.947 45.3375 703.845 55.8171C709.256 67.2657 703.845 74.589 697.088 82.2029C688.764 91.6442 678.289 100.2 687.529 115.123C689.375 118.099 686.059 123.872 687.266 127.679C689.874 135.985 676.874 137.632 680.44 145.136C682.743 149.939 694.466 146.52 691.303 157.415C690.387 160.571 695.382 161.457 697.796 161.291C700.299 161.044 702.815 161.612 704.968 162.909C707.121 164.207 708.795 166.164 709.741 168.49C718.704 187.538 735.311 185.462 751.529 183.911C768.636 182.292 785.881 181.143 802.349 175.605C819.885 169.666 838.129 167.188 856.457 165.153C868.485 163.769 879.459 159.395 886.535 150.59C895.262 139.764 907.679 133.798 916.766 123.775C921.192 118.902 928.67 117.629 923.786 106.969C920.734 100.435 933.859 99.7012 938.604 95.0498Z" fill="#9CB6F2"/>
<path fill-rule="evenodd" clip-rule="evenodd" d="M973.232 401.117C962.75 405.464 951.052 405.912 940.268 402.377C933.664 400.397 927.435 401.615 921.095 402.377C916.475 402.93 911.591 405.145 916.28 410.35C921.538 416.151 918.861 422.477 916.28 426.063C907.665 438.231 906.263 454.414 893.888 464.437C887.589 469.531 882.04 475.706 889.851 484.275C891.126 485.582 891.928 487.275 892.132 489.087C892.335 490.899 891.928 492.728 890.974 494.284C882.9 508.127 893.833 517.389 899.535 527.231C904.64 536.05 914.088 535.967 922.288 531.038C928.364 527.384 933.886 526.885 936.3 533.489C942.113 549.436 955.959 546.682 968.043 548.883C1005.17 555.652 1039.37 538.306 1075.38 536.077C1077.99 535.911 1080.53 533.696 1082.97 532.215C1106.35 518.053 1128.27 502.188 1145.56 480.593C1149.93 475.055 1154.22 469.006 1162.21 465.738C1157.28 464.354 1152.09 463.62 1147.53 461.488C1144.3 459.979 1141.51 455.3 1146.27 453.335C1156.63 449.057 1148.28 443.16 1149.04 438.107C1149.93 431.683 1135.99 427.627 1147.03 419.529C1149.96 417.369 1143.62 413.991 1140.44 414.337C1129.53 415.431 1119.63 413.133 1109.63 408.8C1098.53 403.885 1093.86 407.499 1092.1 420.775C1091.83 422.879 1091.51 425.094 1088.95 425.841C1087.9 425.902 1086.85 425.6 1085.99 424.985C1085.13 424.371 1084.51 423.481 1084.22 422.463C1082.17 415.791 1082.09 407.069 1074.26 404.882C1065.94 402.584 1057.11 404.135 1048.66 406.35C1046.37 406.945 1044.77 408.191 1044.77 410.613C1044.77 414.102 1047.54 416.552 1050.13 415.957C1054.63 414.891 1058.46 416.566 1062.7 416.732C1070.25 417.051 1073.33 420.332 1070.67 427.807C1068.43 434.092 1066.33 440.086 1074.48 444.17C1077.04 445.458 1075.25 448.06 1073.96 449.708C1072.37 451.701 1070.46 451.424 1068.82 449.583C1057.56 436.971 1041.16 431.697 1028.23 421.301C1020.49 415.085 1010.71 411.195 1001.45 407.152C996.887 405.145 990.907 401.172 986.551 407.263C982.583 412.801 977.616 419.155 985.58 425.62C987.328 427.004 988.937 428.804 987.383 430.631C984.747 433.732 981.737 431.074 979.85 429.538C971.456 422.616 968.626 413.673 973.232 401.117ZM1015.85 427.101C1016.92 427.849 1018.79 428.748 1018.7 429.178C1018.06 431.946 1021.47 435.02 1018.17 437.484C1018.13 433.926 1013.17 431.379 1015.85 427.101Z" fill="#9CB6F2"/>
<path fill-rule="evenodd" clip-rule="evenodd" d="M647.406 189.546C641.094 185.116 634.073 189.241 628.233 184.977C623.64 181.627 620.56 181.046 621.143 172.754C622.53 152.805 613.984 145.371 593.978 143.53C588.429 143.018 588.096 143.087 585.252 132.635C584.211 128.8 581.089 129.479 579.008 128.039C568.659 121.117 557.199 125.976 548.167 128.496C537.068 131.611 528.203 131.264 519.393 125.422C514.676 122.308 509.931 121.934 505.047 122.418C482.336 124.633 459.638 127.181 436.955 129.714C427.548 130.752 421.055 135.099 418.655 144.942C416.265 155.803 411.082 165.855 403.616 174.11C396.36 182.098 400.661 196.149 393.363 205.743C392.628 206.726 394.959 211.46 396.984 212.858C407.556 220.126 409.276 230.744 411.302 242.414C412.578 249.807 418.1 255.192 427.95 259.027C442.893 264.799 459.305 263.29 473.623 272.289C488.315 281.522 506.018 274.587 522.181 274.019C548.25 273.133 572.21 263.332 592.674 247.301C602.733 239.438 611.348 228.308 617.425 217.731C623.266 207.556 627.622 200.012 639.623 198.35C643.008 197.838 645.617 194.806 647.406 189.546Z" fill="#9CB6F2"/>
<path fill-rule="evenodd" clip-rule="evenodd" d="M218.706 240.019L203.445 233.554C208.051 228.28 203.362 222.203 204.943 216.776C205.762 214.007 211.034 211.114 204.541 209.134C195.024 206.227 193.858 196.26 188.073 190.183C183.91 185.753 183.009 175.591 174.199 185.642C173.699 186.251 170.175 185.005 168.649 183.842C149.767 169.653 129.622 169.154 107.383 175.245C94.0916 178.872 79.8153 182.97 65.5391 178.568C59.4485 176.685 53.3996 177.183 49.6398 181.475C42.037 190.224 32.0895 190.916 22.572 189.449C13.8315 188.064 9.55858 193.713 3.66222 197.104C1.94186 198.087 -1.04112 199.444 0.415619 201.714C6.76982 211.668 4.20314 224.03 9.40581 234.039C14.8582 244.477 17.3833 252.035 16.7868 262.764C16.7334 263.48 16.7567 264.199 16.8562 264.91C18.2436 273.548 6.00693 278.975 9.60023 286.035C12.4721 291.573 21.2126 294.244 27.2338 298.314C28.4249 299.114 29.3478 300.252 29.8835 301.581C31.8952 307.119 26.5263 314.982 34.5592 318.485C41.7984 321.636 49.7949 322.635 57.5895 321.364C90.734 315.591 123.781 309.14 156.773 302.537C162.39 301.337 167.734 299.108 172.534 295.961C176.599 293.331 184.41 291.656 179.471 283.322C178.722 282.048 179.471 278.504 180.858 277.605C194.899 267.388 198.256 246.941 218.706 240.019ZM22.1144 227.56C18.7986 227.74 18.0909 225.677 17.7995 223.698C17.1336 219.309 11.4594 215.004 17.2725 210.505C17.8769 210.185 18.5445 210.002 19.2279 209.968C19.9112 209.935 20.5934 210.052 21.2263 210.311C27.1366 212.927 26.6232 218.022 25.3885 222.936C24.9445 224.791 23.0995 226.176 22.1144 227.56ZM56.0636 240.296C54.7733 239.286 52.4701 238.386 51.7764 236.794C49.6815 231.976 54.1906 233.014 56.3549 232.641C58.5192 232.267 60.6974 232.973 60.517 235.839C60.3505 238.123 58.8383 239.535 56.0636 240.296Z" fill="#9CB6F2"/>
<path fill-rule="evenodd" clip-rule="evenodd" d="M233.44 52.4669C230.179 60.7731 236.367 69.3837 232.843 77.759C232.344 78.9219 232.191 81.3445 232.746 81.6491C248.007 90.2182 247.216 103.951 246.62 118.777C246.342 126.198 251.101 133.244 260.618 135.39C269.595 137.466 278.058 141.647 286.84 144.651C292.15 146.637 297.839 147.413 303.488 146.921C313.491 145.952 317.362 132.095 323.3 133.687C331.514 135.86 338.686 139.944 347.552 136.968C373.468 128.302 396.457 116.203 409.082 89.8999C411.676 84.4732 413.327 83.255 407.167 78.825C401.548 74.7966 410.192 71.6402 412.065 67.8471C415.325 61.2991 432.653 60.9253 421.429 47.8432C425.592 37.4743 419.334 31.4525 413.521 23.5755C397.358 1.71651 376.367 -3.51634 351.464 1.95186C342.477 3.92064 333.262 4.64268 324.077 4.09759C309.704 3.1147 309.898 9.96726 312.437 18.8963C313.824 23.8385 314.199 27.2025 309.662 29.6251C305.667 31.7155 304.113 28.0054 301.338 25.8873C294.401 20.5576 286.229 16.7367 278.627 12.196C276.046 10.6594 273.077 9.09508 270.58 10.8117C257.011 20.0176 238.282 15.6154 225.809 28.8083C224.56 37.4328 237.616 42.8595 233.218 53.1868C235.243 49.9197 238.407 43.081 241.292 48.7984C245.066 56.2739 252.211 63.1957 250.602 72.9554C235.465 75.0319 235.341 75.0458 234.3 62.8635C234.023 59.361 235.812 55.7479 233.44 52.4669ZM339.408 24.4338C344.222 21.9558 350.784 20.8482 352.394 25.6796C354.197 31.0232 352.56 37.9866 350.937 43.8286C349.868 47.594 345.387 47.9816 342.21 45.3375C339.033 42.6934 336.661 39.0664 333.636 36.1731C330.612 33.2798 326.699 30.4556 328.836 25.6658C331.403 19.9761 335.856 24.2538 339.408 24.4338ZM257.372 28.8221C260.327 38.305 262.075 47.2756 255.305 56.5092C246.536 45.739 247.175 37.0037 257.372 28.8221ZM269.178 56.98C269.664 54.4327 270.233 51.5947 273.341 50.7641C278.196 49.4628 281.526 52.1485 282.983 56.3015C284.135 59.5409 283.718 63.8324 278.973 63.8324C276.815 63.9117 274.691 63.2851 272.922 62.0481C271.154 60.8111 269.839 59.0314 269.178 56.98ZM300.658 90.9243C300.424 89.4989 300.624 88.0361 301.232 86.7255C301.841 85.4149 302.83 84.3167 304.071 83.5733C306.166 82.3274 308.233 83.4903 308.552 85.9683C308.885 88.8616 308.428 91.9349 305.431 93.3193C303.322 94.3022 301.421 93.3469 300.658 90.9243Z" fill="#9CB6F2"/>
<path fill-rule="evenodd" clip-rule="evenodd" d="M331.125 423.405C340.587 426.174 348.995 427.876 356.445 434.341C342.03 446.801 326.464 438.121 311.674 436.653C308.012 436.293 307.512 431.31 306.513 427.876C302.878 416.068 298.522 404.868 283.732 403.166C282.539 403.027 281.388 401.601 280.403 400.591C262.117 381.722 239.669 384.865 216.819 387.952C192.54 391.233 169.412 397.351 149.157 411.569C135.008 421.321 122.741 433.542 112.946 447.645C110.172 451.701 107.591 455.522 106.578 460.866C104.053 474.266 103.484 474.142 116.914 477.062C118.995 477.519 121.076 478.212 123.435 478.904C122.954 482.099 121.423 485.044 119.083 487.277C116.742 489.509 113.725 490.903 110.505 491.238C103.193 492.263 99.8911 498.16 94.2028 500.763C86.2809 504.362 86.4194 510.301 89.8324 516.6C97.5185 530.817 109.853 540.812 122.381 550.406C130.982 556.981 141.179 553.534 150.863 553.922C158.924 554.254 166.208 555.306 174.615 559.999C208.994 578.965 246.495 582.772 284.551 571.835C299.493 567.544 314.74 563.695 328.781 556.511C331.805 554.974 335.981 553.742 339.047 554.6C349.494 557.369 357.638 551.652 365.144 547C374.855 540.95 382.306 532.381 395.777 532.409C401.035 532.409 407.556 526.235 409.373 516.42C410.761 508.986 413.355 505.954 406.918 499.226C403.865 496.042 407.945 485.618 406.377 477.755C403.99 465.642 392.35 449.652 378.227 446.981C371.29 445.596 374.786 437.899 369.278 436.501C359.969 434.134 365.546 430.964 368.071 426.354C370.943 421.121 361.134 409.741 357.264 412.912C349.661 418.878 338.673 414.324 331.125 423.405Z" fill="#9CB6F2"/>
<path fill-rule="evenodd" clip-rule="evenodd" d="M430.253 454.179C428.616 463.316 421.513 468.147 414.839 475.318C424.912 478.253 433.07 482.115 438.286 474.571C444.446 465.586 430.003 462.9 430.253 454.179Z" fill="#9CB6F2"/>
</g>
<defs>
<clipPath id="clip0_582_7678">
<rect width="1466.74" height="577.899" fill="white" transform="matrix(-1 0 0 1 1466.74 0)"/>
</clipPath>
</defs>
</svg>
