<svg width="1665" height="1173" viewBox="0 0 1665 1173" fill="none" xmlns="http://www.w3.org/2000/svg">
<g opacity="0.6">
<path fill-rule="evenodd" clip-rule="evenodd" d="M907.12 695.324C903.714 678.509 907.86 662.862 905.158 647.355C904.701 644.769 903.421 638.415 908.166 635.449C913.373 632.193 913.158 626.627 912.402 621.934C911.29 614.708 914.244 612.242 920.361 609.047C926.479 605.852 912.487 600.481 919.577 595.124C920.786 594.209 922.229 591.459 922.301 591.508C935.378 599.991 935.475 582.867 943.322 580.666C946.975 579.638 952.092 575.204 952.311 572.023C953.324 557.185 967.479 552.831 974.079 542.603C978.743 535.375 987.383 533.129 994.767 530.008C1000.89 527.382 1004.53 524.811 1006.35 517.714C1009.04 507.275 1015.32 499.109 1026.57 495.16C1035.2 492.129 1044.68 489.431 1047.23 477.886C1048.18 473.572 1053.81 472.734 1058.08 471.156C1075.77 464.576 1093.65 463.594 1111.36 469.9C1130.81 476.841 1150.86 477.784 1171.11 479.664C1183.8 480.783 1195.86 485.739 1205.69 493.878C1214.51 501.137 1222.99 511.195 1236.21 511.77C1251.01 527.926 1272.22 536.592 1283.99 556.927C1293.45 573.261 1300.53 590.305 1307.96 607.402C1311.73 616.118 1313.17 625.671 1312.13 635.11C1310.6 649.465 1312.72 663.514 1312.89 677.749C1313.03 692.483 1312.63 707.286 1305.79 721.242C1299.7 733.637 1295.72 747.065 1289.72 759.517C1281.79 775.99 1272.45 791.878 1259.67 804.994C1245.61 819.348 1230.31 832.498 1215.62 846.225C1213.62 848.08 1210.4 850.292 1210.38 852.337C1210.44 863.558 1203.42 863.381 1195.72 862.066C1188.68 860.86 1181.5 857.88 1175.96 865.283C1174.6 867.084 1172.92 866.096 1171.44 865.635C1153.59 860.571 1135.59 862.763 1117.64 864.609C1103.58 866.061 1090.2 861.592 1077.01 858.753C1058.37 854.678 1039.35 851.628 1021.42 843.55C1014.94 840.628 1014.59 831.986 1007.15 832.305C999.037 832.657 994.24 827.511 988.768 822.704C970.381 806.574 954.964 788.181 941.277 767.818C930.858 752.321 922.84 735.668 913.625 719.602C909.44 712.19 907.202 703.836 907.12 695.324Z" fill="#CBD5E1"/>
<path fill-rule="evenodd" clip-rule="evenodd" d="M1442.06 157.436C1449.36 173.685 1446.49 190.651 1445.25 207.469C1445.05 210.067 1443.95 214.166 1440.03 215.414C1434.53 217.163 1433.14 220.08 1436.69 225.281C1439.9 229.927 1435.62 233.923 1433.79 237.451C1430.53 243.819 1426.44 249.728 1421.64 255.029C1404.91 273.146 1391.15 295.038 1367.05 304.374C1347.13 312.091 1326.17 316.625 1304.89 320.047C1278.72 324.228 1254.55 317.178 1229.98 311.063C1216.69 307.744 1209.18 296.89 1205.22 285.878C1201.24 274.66 1194.11 266.367 1186.33 259.328C1166.58 241.472 1158.89 218.381 1152.41 193.891C1148.84 180.547 1150.1 167.971 1152.77 154.939C1154.3 147.522 1156.75 140.476 1155.09 132.232C1153.79 125.943 1157.9 119.377 1162.12 114.129C1168.75 105.895 1175.24 97.6294 1178.97 87.6334C1179.39 86.3467 1180.08 85.1685 1181.01 84.1845C1181.93 83.2005 1183.06 82.4354 1184.32 81.945C1196.83 76.2722 1205.97 65.4898 1218.73 59.6817C1225.68 56.5206 1233.31 55.5086 1240.14 51.272C1244.67 48.4455 1242.83 42.2051 1250.53 40.7221C1271.01 36.7584 1289.93 29.5064 1312.3 34.9832C1329.16 39.116 1345.44 44.5132 1362.05 49.1752C1373.08 52.273 1379.08 61.0474 1386.62 67.7951C1405.87 85.0262 1426.54 101.329 1435.34 127.37C1437.4 133.471 1442.02 138.583 1437.26 145.826C1433.77 151.125 1444.8 152.003 1442.53 157.919C1438.13 159.403 1436.9 153.148 1432.43 153.961C1432.68 158.376 1430.61 164.278 1437.32 165.074C1440.28 165.404 1441.09 160.497 1442.06 157.436Z" fill="#CBD5E1"/>
<path fill-rule="evenodd" clip-rule="evenodd" d="M1507.11 612.066C1483.92 608.5 1458.07 607.599 1439.35 585.229C1432.82 577.405 1423.01 572.002 1414.1 566.487C1403.48 559.904 1398.58 551.436 1401.04 538.933C1403.02 528.857 1400.52 519.139 1396.41 510.207C1393.55 503.998 1392.16 497.572 1390.91 491.139C1389.05 481.484 1389.64 472.73 1395.52 463.136C1406.86 444.624 1418.72 426.598 1434.25 411.552C1446.33 399.815 1458.04 386.466 1477.1 385.643C1478.22 385.526 1479.3 385.178 1480.28 384.621C1481.26 384.063 1482.12 383.309 1482.79 382.407C1494.91 362.53 1512.73 369.258 1529 373.339C1536.81 375.306 1544.72 378.361 1552.47 381.232C1569.51 387.543 1580.66 400.205 1590.03 414.878C1590.61 415.771 1589.73 418.481 1592.19 416.539C1592.85 416.012 1592.44 414.293 1593.02 413.461C1593.47 412.832 1595.14 412.198 1595.51 412.483C1598.03 414.564 1601.76 416.47 1602.55 419.172C1605.69 429.901 1617.8 432.985 1621.64 443.635C1626.26 456.472 1625.75 471.034 1634.69 482.361C1636.96 485.245 1634.5 487.303 1633.26 489.719C1628.96 497.992 1624.63 506.34 1630.3 515.776C1632.05 518.623 1630.26 521.146 1628.76 523.415C1621.88 533.876 1617.81 546.127 1608.32 554.93C1605.72 557.352 1603.69 560.306 1602.36 563.587C1601.03 566.868 1600.43 570.396 1600.61 573.925C1601.02 581.298 1597.28 584.101 1592.11 586.259C1565.52 597.363 1537.8 604.879 1507.11 612.066Z" fill="#CBD5E1"/>
<path fill-rule="evenodd" clip-rule="evenodd" d="M138.897 786.463C135.011 785.293 131.155 784.966 127.695 787.394C122.202 791.256 117.385 790.626 110.913 788.059C103.771 785.221 95.6108 787.457 90.9088 794.93C88.3307 799.042 84.9626 798.854 82.9244 796.069C76.276 786.926 66.8273 783.075 57.0759 778.826C46.2488 774.104 43.4925 765.899 46.1628 753.949C49.2397 740.12 55.4402 728.525 68.3884 722.424C74.1043 719.722 76.8847 716.146 77.8946 710.053C79.8144 698.955 86.8348 692.282 97.4374 691.892C104.649 691.63 110.733 686.139 118.405 688.875C128.561 692.516 137.624 697.19 142.657 707.646C150.336 723.595 155.396 739.556 146.304 756.578C145.654 758.109 145.37 759.779 145.476 761.451C145.468 766.645 146.686 770.68 138.359 772.072C132.842 772.96 142.197 780.077 138.897 786.463ZM101.318 746.333C95.7859 748.006 93.4014 750.685 94.1117 759.618C97.0506 753.529 101.085 752.078 101.318 746.333Z" fill="#CBD5E1"/>
<path fill-rule="evenodd" clip-rule="evenodd" d="M1634.72 799.681C1635.45 802.418 1635.77 806.184 1633.66 807.512C1628.09 811.05 1622.85 813.412 1629.85 820.719C1631.66 822.619 1629.1 825.916 1625.59 828.118C1619.94 831.656 1614.23 834.701 1620.14 844.922C1623.82 851.269 1614.28 861.16 1606.54 864.906C1596.68 869.701 1586.58 874.333 1575.14 875.99C1560.91 878.062 1546.56 878.884 1532.36 882.994C1520.84 886.324 1507.6 885.942 1495.62 878.923C1483.89 872.111 1469.74 869.781 1459.37 860.131C1453.86 855.016 1450.55 849.409 1449.65 841.681C1447.48 823.106 1442.17 804.784 1446.48 785.812C1447.77 780.118 1443.9 775.425 1443.95 769.68C1444.23 742.811 1457.97 724.072 1479.81 710.279C1500.17 697.275 1524.3 691.349 1548.37 693.443C1558.66 694.244 1571.04 690.702 1577.99 703.734C1579.7 706.942 1586.92 707.806 1591.79 708.68C1604.88 711.04 1611.3 714.719 1616.24 724.816C1617.51 727.41 1618.23 730.15 1621.4 730.493C1627.77 731.144 1630.46 734.276 1632.56 740.52C1636.51 752.29 1645.35 762.986 1637.37 776.292L1637.84 776.109C1636.82 774.875 1635.39 772.404 1634.86 772.584C1629.78 774.347 1624.8 779.102 1625.43 783.052C1626.4 789.217 1623.56 799.326 1635.2 799.99L1634.72 799.681ZM1579.7 785.829C1575.68 787.766 1573.26 790.616 1574.39 795.574C1574.64 795.991 1575 796.336 1575.42 796.577C1575.85 796.817 1576.33 796.944 1576.82 796.945C1581.81 795.609 1580.91 791.157 1581.48 787.541C1581.54 787.254 1580.8 786.844 1579.7 785.829ZM1517.12 765.438C1518.85 768.211 1520.66 764.586 1522.63 765.221C1524.61 765.857 1525.97 764.202 1524.97 762.561C1523.84 760.722 1521.69 759.803 1519.43 761.522C1518.2 762.45 1516.48 763.114 1517.12 765.418L1517.12 765.438Z" fill="#CBD5E1"/>
<path fill-rule="evenodd" clip-rule="evenodd" d="M1637.6 776.104L1637.11 776.293C1649.18 782.727 1647.98 791.197 1633.96 799.298L1634.47 799.621C1631.44 791.455 1626.45 783.133 1637.6 776.104Z" fill="#CBD5E1"/>
<path fill-rule="evenodd" clip-rule="evenodd" d="M608.39 762.243C602.961 763.697 598.199 763.863 593.602 764.679C583.154 766.547 572.681 766.449 562.201 766.294C551.426 766.267 540.774 763.891 530.978 759.329C529.76 758.743 529.029 757.592 527.65 757.178C526.271 756.765 525.827 753.821 523.398 754.809C522.974 753.446 522.554 752.062 520.893 753.786C520.778 753.906 520.108 753.679 520.114 753.667C520.483 750.496 517.415 751.15 516.016 749.998C514.314 748.764 512.887 747.185 511.825 745.363C510.326 742.297 508.324 739.632 506.572 736.761C504.333 732.991 501.419 729.708 499.326 725.82C498.431 724.167 496.916 722.917 496.445 720.903C495.974 718.888 494.675 718.255 492.735 719.38C492.299 719.682 491.79 719.862 491.261 719.899C490.731 719.936 490.201 719.83 489.725 719.592C484.547 716.331 478.163 714.623 475.155 708.531C474.23 706.658 472.051 705.567 472.085 703.09C472.112 701.101 469.73 700.282 469.605 698.126C469.479 695.969 467.876 694.06 466.986 692.019C463.944 684.737 463.286 676.965 462.085 669.329C461.435 665.103 461.799 660.704 461.939 656.386C462.167 649.387 462.392 642.449 463.667 635.547C464.13 632.757 464.892 630.028 465.938 627.406C468.368 621.8 469.023 615.589 471.839 610.107C472.228 608.975 472.395 607.776 472.328 606.577C472.864 598.198 477.373 591.44 481.008 584.282C483.034 580.29 486.316 577.389 488.832 573.831C491.348 570.273 495.185 567.609 498.079 564.327C501.753 560.211 505.68 556.344 509.201 552.061C514.065 546.382 519.377 541.107 525.083 536.289C533.71 528.725 543.369 523.213 554.392 520.666C565.415 518.119 576.443 516.581 587.823 517.971C591.298 518.398 594.95 518.896 598.472 518.359C598.757 518.282 599.188 518.167 599.337 518.246C602.364 520.557 605.801 519.19 609.052 519.439C609.64 519.444 610.222 519.576 610.757 519.824C613.459 521.36 615.806 521.355 618.721 519.761C621.216 518.399 624.177 520.281 626.872 520.838C632.335 522.006 637.675 523.705 642.816 525.911C644.901 526.845 646.821 528.115 648.502 529.67C651.079 531.952 654.345 533.505 657.122 535.615C661.488 538.925 666.361 541.594 669.901 545.967C670.736 546.759 671.439 547.682 671.98 548.7C672.165 549.247 672.475 549.744 672.884 550.151C673.294 550.557 673.791 550.862 674.337 551.042C676.258 551.756 678.002 553.241 677.05 555.884C676.914 556.233 676.913 556.62 677.045 556.971C677.177 557.322 677.434 557.612 677.765 557.784C679.42 558.936 680.089 560.917 681.384 562.265C686.363 567.462 689.08 574.077 692.338 580.221C695.13 585.469 698.33 590.736 698.922 597.019C699.131 599.302 700.326 601.598 701.494 603.683C704.545 609.089 704.988 615.293 706.44 621.079C708.169 627.969 710.179 635.032 710.141 642.227C710.131 646.332 710.211 650.483 709.832 654.608C709.197 661.518 707.51 668.243 706.47 675.072C706.108 677.389 704.993 679.571 704.561 681.887C702.743 690.982 699.434 699.703 694.768 707.692C688.616 718.517 681.954 729.122 673.09 738.038C665.75 745.619 656.696 751.299 646.695 754.595C644.751 755.225 642.908 756.195 640.947 756.799C632.881 759.178 624.538 760.494 616.128 760.714C613.151 760.828 610.437 761.961 608.39 762.243ZM497.879 581.515C497.471 581.796 497.172 582.21 497.033 582.688C496.895 583.166 496.924 583.678 497.117 584.138C497.866 583.263 498.494 582.49 497.716 581.42C498.454 580.876 499.127 580.269 498.633 579.193C498.536 579.105 498.419 579.044 498.293 579.015C498.166 578.987 498.034 578.991 497.911 579.029C497.093 579.645 498.009 580.351 497.874 581.021C497.857 581.185 497.858 581.351 497.879 581.515ZM471.583 633.763C469.528 635.85 469.208 637.699 470.524 640.815C471.684 638.433 472.678 636.274 471.49 633.708C472.327 633.167 472.348 632.18 472.498 631.347C473.244 626.994 474.555 622.761 476.397 618.757C476.763 617.995 477.466 617.241 476.913 616.28C476.751 616.034 476.511 615.85 476.233 615.758C475.855 615.632 475.384 615.451 475.31 616.164C474.961 619.558 472.535 622.13 471.749 625.324C471.039 628.101 468.476 630.899 471.564 633.768L471.583 633.763ZM468.252 648.768C467.846 649.6 468.767 650.691 467.351 651.457C466.226 652.065 466.092 654.866 466.919 655.973C467.747 657.079 468.194 657.613 466.736 658.371C465.595 658.954 465.753 660.091 465.858 661.143C466.121 662.284 466.23 663.455 466.181 664.624C465.583 668.005 467.45 669.765 470.354 671.871C470.115 669.734 469.781 668.377 469.531 666.967C469.013 664.044 466.355 661.495 468.69 657.887C470.091 655.777 469.616 652.465 469.835 649.652C469.894 648.883 469.266 648.298 468.318 648.611C469.06 648.005 469.605 647.189 469.884 646.267C470.162 645.345 470.16 644.359 469.88 643.436C469.731 642.881 469.488 642.193 468.764 642.317C468.228 642.447 467.728 642.693 467.296 643.038C468.058 645.183 465.775 647.152 466.979 649.188C467.294 649.926 467.837 649.127 468.233 648.773L468.252 648.768ZM469.6 673.311C467.022 675.429 467.023 676.241 469.125 679.682C468.452 680.289 467.22 678.478 467.022 679.939C466.823 681.399 468.407 681.44 469.316 681.385C470.225 681.33 471.066 680.579 470.451 679.495C469.415 677.721 469.492 675.808 469.581 673.316L469.6 673.311ZM483.139 599.865C484.031 599.176 484.765 598.304 485.294 597.305C485.394 597.2 485.47 597.073 485.517 596.935C485.565 596.797 485.581 596.649 485.567 596.504C485.552 596.358 485.506 596.217 485.432 596.09C485.358 595.964 485.258 595.855 485.138 595.771C484.524 595.312 483.783 595.005 483.211 595.693C482.097 597.002 480.6 598.385 483.121 599.87L483.139 599.865ZM672.826 618.213C671.385 621.453 673.588 622.597 674.995 624.034C675.082 624.106 675.183 624.159 675.291 624.189C675.399 624.219 675.512 624.225 675.623 624.208C675.733 624.191 675.839 624.15 675.932 624.088C676.026 624.026 676.105 623.944 676.165 623.849C676.248 623.661 676.291 623.457 676.29 623.25C676.288 623.044 676.244 622.84 676.158 622.652C675.232 621.176 673.547 620.388 672.781 618.225L672.826 618.213ZM476.559 698.551C476.811 698.207 476.943 698.112 476.968 697.986C477.05 697.574 477.03 697.148 476.91 696.744C476.79 696.341 476.574 695.973 476.28 695.673C476.183 695.57 475.685 695.654 475.549 695.809C474.96 696.473 475.408 697.116 475.733 697.742C475.961 698.035 476.22 698.301 476.506 698.536L476.559 698.551ZM669.203 614.228C668.267 614.033 667.378 612.735 666.512 614.196C666.279 614.576 666.235 615.182 666.654 615.387C667.847 615.989 668.47 615.049 669.173 614.226L669.203 614.228ZM471.161 694.617C471.156 695.005 471.178 695.393 471.226 695.778C471.313 696.139 471.517 696.46 471.805 696.692C472.093 696.923 472.449 697.052 472.817 697.057C473.032 697.088 473.483 696.829 473.499 696.666C473.595 695.778 472.902 695.429 472.257 695.076C471.976 694.943 471.695 694.85 471.131 694.615L471.161 694.617ZM471.654 651.929C471.504 652.429 471.482 652.959 471.59 653.471C471.698 653.982 471.932 654.459 472.271 654.856C472.564 653.747 472.019 652.961 471.624 651.927L471.654 651.929ZM508.367 571.728C508.484 571.715 508.596 571.677 508.697 571.617C508.798 571.557 508.885 571.476 508.952 571.379C509.019 571.282 509.065 571.172 509.086 571.056C509.108 570.94 509.104 570.821 509.076 570.706C509.069 570.6 509.04 570.498 508.99 570.405C508.941 570.312 508.872 570.231 508.789 570.166C508.705 570.102 508.609 570.057 508.507 570.033C508.405 570.01 508.3 570.008 508.197 570.029C507.665 570.172 507.211 570.64 507.473 571.214C507.603 571.517 508.142 571.62 508.337 571.726L508.367 571.728ZM477.648 612.089C477.499 611.534 477.261 611.013 476.557 611.063C475.853 611.113 475.774 611.808 475.913 612.326C475.998 612.606 476.186 612.844 476.439 612.99C476.692 613.136 476.99 613.179 477.273 613.111C477.688 613.01 477.788 612.576 477.618 612.087L477.648 612.089ZM484.332 710.393C483.177 711.694 483.177 711.694 483.967 713.176L484.332 710.393ZM477.386 705.158C477.996 705.124 478.036 704.687 477.947 704.245C477.878 703.986 477.769 703.579 477.572 703.503C476.941 703.276 477.1 703.907 476.974 704.208C476.849 704.509 476.804 704.967 477.353 705.108L477.386 705.158Z" fill="#CBD5E1"/>
<path fill-rule="evenodd" clip-rule="evenodd" d="M323.18 753.177C347.996 754.353 374.139 752.44 400.325 752.548C404.858 752.567 409.539 752.921 414.001 754.981C421.857 758.719 430.188 761.339 438.755 762.765C444.035 763.6 451.329 765.001 451.665 773.348C451.807 776.803 454.906 776.811 456.735 776.617C475.214 774.626 485.737 787.052 495.534 799.257C506.799 813.281 517.159 827.881 523.633 845.31C533.059 870.689 537.804 896.406 535.948 923.348C535.796 925.669 534.848 928.093 535.315 930.238C540.254 953.426 532.984 974.28 524.097 995.025C522.331 999.149 521.865 1004.18 522.023 1008.75C522.802 1031.3 511.151 1048.02 496.956 1063.33C476.891 1084.97 452.62 1101.48 426.395 1114.06C410.064 1121.91 392.75 1127.51 374.918 1130.71C365.977 1132.31 356.97 1133.55 348.056 1135.29C346.678 1135.56 345.46 1135.98 344.262 1135.32C334.238 1129.51 324.174 1133.9 314.22 1135.26C308.171 1136.1 305.08 1130.41 300.808 1129.68C294.996 1128.69 291.529 1128.56 293.444 1121.51C293.711 1120.53 292.529 1119.27 290.714 1119.37C276.405 1120.24 272.45 1119.05 263.953 1115.69C254.174 1111.85 244.671 1108.03 235.792 1102.03C224.549 1094.48 222.832 1092.57 218.349 1075.55C217.167 1071.14 211.212 1069.98 209.821 1063.69C208.07 1055.8 202.372 1048.91 201.147 1040.13C200.693 1036.94 195.068 1031.9 193.109 1031.17C186.826 1028.79 185.648 1023.22 184.745 1019.19C183.054 1011.6 180.535 1005.27 174.858 999.884C172.23 997.391 171.663 994.178 177.136 993.757C177.47 993.693 177.775 993.527 178.011 993.281C178.246 993.035 178.4 992.722 178.451 992.384C178.502 992.046 178.448 991.7 178.296 991.393C178.145 991.087 177.902 990.835 177.603 990.672C165.416 985.056 167.535 973.141 165.497 963.119C165.128 961.343 165.445 959.561 164.251 957.848C156.423 946.555 158.647 934.226 162.641 922.874C168.106 907.388 172.738 891.977 174.055 875.461C175.307 859.614 184.867 846.977 192.245 833.623C202.805 814.512 218.095 799.56 235.349 786.816C243.107 781.096 252.385 777.248 261.181 773.135C280.595 764.065 300.027 755.059 323.18 753.177ZM187.556 976.321C187.432 969.201 179.312 976.458 177.944 971.131C178.854 974.529 176.998 978.795 181.024 981.456C183.618 979.36 185.745 977.645 187.822 975.994C187.163 979.131 187.281 982.059 190.225 984.744C190.772 981.153 190.155 978.447 187.556 976.321ZM249.782 1035.33C257.729 1027.39 245.022 1020.49 248.581 1012.78C243.966 1010.96 247.623 1005.55 244.509 1003.25C243.648 1002.64 241.393 1002.6 240.824 1003.26C238.799 1005.68 236.627 1009.87 238.199 1011.74C243.606 1017.95 242.702 1025.59 244.48 1032.59C245.316 1035.71 247.625 1035.48 250.024 1034.99C251.002 1037.69 248.754 1041.48 252.539 1043.43C253.341 1040.09 252.839 1037.27 249.782 1035.33ZM198.964 973.324C199.355 998.007 199.355 998.007 203.506 1004.61C205.601 995.751 203.224 979.455 198.964 973.324ZM175.673 964.704C181.207 962.136 173.166 956.85 178.672 955.345C183.025 954.179 181.634 951.256 180.797 949.082C179.661 946.16 180.103 940.752 174.217 942.813C169.736 944.379 168.536 948.203 171.39 951.465C174.811 955.344 173.212 960.311 175.673 964.704ZM213.707 980.909C217.498 980.426 217.765 977.434 218.592 974.962C219.045 973.617 218.595 971.754 217.165 971.94C213.986 972.368 211.052 973.815 211.521 977.834C211.657 978.962 213.001 979.953 213.707 980.909ZM241.872 832.048C242.078 833.621 243.137 834.206 244.62 834.035C246.871 833.768 247.308 832.072 247.081 830.238C246.957 829.225 247.135 827.184 245.045 828.307C243.596 829.08 241.717 829.711 241.872 832.048ZM251.667 1064.09C246.482 1069.43 251.043 1070.58 254.358 1072.34L251.667 1064.09ZM294.358 950.645C296.83 949.923 295.906 947.862 295.922 946.278C295.869 945.445 295.556 944.648 295.028 944.002C292.907 944.314 292.278 945.992 292.239 947.857C292.196 948.18 292.216 948.508 292.299 948.823C292.382 949.138 292.526 949.434 292.723 949.693C292.92 949.952 293.166 950.169 293.447 950.333C293.727 950.496 294.037 950.602 294.358 950.645ZM252.68 928.085C253.56 922.994 254.199 919.784 250.011 917.541C248.828 921.243 249.506 923.922 252.68 928.085ZM230.847 968.106C230.94 970.39 231.831 971.227 233.489 970.98C235.148 970.733 236.174 969.698 235.542 968.18C235.068 967.034 233.706 966.265 232.731 965.332C232.02 966.411 231.314 967.468 230.847 968.106ZM218.607 1055.19C218.737 1056.11 219.178 1056.95 219.854 1057.59C220.53 1058.22 221.4 1058.6 222.319 1058.66C222.739 1057.9 222.979 1057.06 223.023 1056.2C223.018 1054.06 222.048 1052.56 219.701 1052.94C219.227 1053.04 218.961 1054.43 218.625 1055.26L218.607 1055.19ZM214.781 1018.97C214.339 1017.32 213.038 1017.25 211.773 1017.29C208.774 1017.36 208.124 1019.25 208.674 1021.78C208.953 1023.07 209.616 1024.42 211.351 1023.94C213.792 1023.29 214.716 1021.43 214.749 1018.99L214.781 1018.97ZM299.639 1026.64C300.164 1025.71 301.495 1024.39 301.251 1023.48C300.959 1022.39 299.333 1020.89 298.292 1020.88C294.955 1020.9 297.134 1023.47 296.996 1024.86C296.859 1026.25 297.555 1027.35 299.639 1026.64ZM215.789 825.114C215.905 823.356 215.564 821.789 214.182 821.972C212.186 822.241 211.8 824.347 211.487 826.03C211.412 826.342 211.41 826.667 211.483 826.98C211.555 827.293 211.7 827.585 211.904 827.832C212.108 828.079 212.367 828.275 212.66 828.404C212.953 828.533 213.271 828.591 213.59 828.575C216.196 828.498 215.55 826.234 215.789 825.114ZM215.826 998.616C215.386 1001.91 211.901 1002.91 213.237 1006.22C213.422 1006.69 215.057 1007.16 215.376 1006.89C217.867 1004.92 218.539 1002.49 215.821 998.598L215.826 998.616ZM170.847 931.332C172.254 932.672 172.849 933.756 173.525 933.792C176.231 934.054 176.277 932.068 175.957 930.18C175.672 929.328 175.271 928.519 174.764 927.776C173.428 928.934 172.052 930.161 170.842 931.314L170.847 931.332Z" fill="#CBD5E1"/>
<path fill-rule="evenodd" clip-rule="evenodd" d="M1023.86 232.569C1022.57 258.315 1021.67 280.197 1020.31 302.047C1019.53 315.015 1019.54 328.253 1016.51 340.727C1010.4 365.633 1007.57 392.471 985.171 409.975C980.948 413.285 979.883 418.262 976.256 421.747C952.955 444.499 925.757 460.993 895.584 472.807C894.047 473.416 892.346 474.293 890.805 474.156C867.502 472.029 844.605 479.302 821.304 477.076C818.564 476.828 815.401 476.027 813.066 476.996C795.263 484.465 778.482 483.642 762.427 472.329C760.247 470.793 757.216 470.78 754.331 471.456C748.828 472.635 744.884 469.874 741.118 466.162C730.507 455.687 718.619 446.898 705.996 438.856C698.531 434.103 694.795 425.515 690.835 417.704C686.162 408.483 682.303 398.849 674.901 391.253C673.009 389.326 670.405 386.431 670.686 384.324C672.697 368.72 660.227 356.808 660.418 341.75C660.61 326.692 657.098 312.263 657.414 297.083C657.664 285.582 659.821 274.266 659.658 262.728C659.473 250.666 668.301 241.283 673.429 230.968C683.013 211.715 690.904 191.718 704.842 174.556C723.655 151.377 748.091 136.644 773.194 121.938C789.216 112.551 807.489 109.186 823.452 100.168C824.828 99.3971 826.978 98.6542 828.223 99.194C846.721 107.704 867.449 97.3599 885.924 106.082C888.331 107.213 891.758 108.12 894.026 107.267C910.547 101.064 920.957 110.681 932.203 120.299C949.185 134.819 964.171 151.17 979.119 167.599C981.975 170.97 985.197 174.014 988.726 176.675C1009.59 191.342 1014.09 215.352 1023.86 232.569ZM683.529 303.031L688.943 312.78C691.301 316.996 701.265 318.419 706.307 314.457C710.601 311.079 709.201 306.919 705.615 303.474C704.285 302.181 700.691 300.357 703.819 299.047C715.311 294.25 706.316 281.222 714.084 274.999C715.607 273.786 714.303 270.533 711.914 269.799C710.606 269.394 708.015 269.921 707.421 270.895C702.01 279.824 687.446 285.149 695.891 299.719C697.469 302.456 694.908 304.89 693.148 307.825C690.127 306.269 688.736 301.116 683.529 303.031ZM722.321 269.17C727.635 264.134 730.014 257.971 732.506 250.177C724.877 255.235 713.332 256.532 722.284 269.18L722.321 269.17ZM735.505 234.632C735.938 231.954 736.504 230.438 736.34 228.981C736.033 226.04 739.991 222.908 736.088 220.264C735.466 219.851 733.858 220.233 733.085 220.794C729.309 223.503 732.193 226.637 732.838 229.556C733.124 230.991 734.181 232.258 735.468 234.642L735.505 234.632ZM715.763 366.033C714.593 358.622 714.593 358.622 710.26 352.393C711.456 360.12 711.456 360.12 715.726 366.043L715.763 366.033ZM732.785 392.88C731.96 387.82 738.646 384.713 732.322 380.735C731.26 380.038 728.559 380.261 727.852 381.108C723.518 386.245 728.314 388.591 732.765 392.914L732.785 392.88ZM706.551 342.659C708.138 342.42 709.92 341.952 709.334 339.95C708.621 337.511 707.765 334.717 704.535 334.366C702.517 334.17 701.738 335.773 701.793 337.446C701.843 340.495 703.253 342.492 706.485 342.706L706.551 342.659ZM695.91 244.662C695.104 246.681 694.458 248.761 693.98 250.882C693.778 252.182 695.031 252.789 696.363 252.442C698.473 251.877 698.776 250.441 698.124 248.633C697.587 247.216 697.878 245.293 695.844 244.709L695.91 244.662ZM692.956 344.044C692.379 346.034 691.66 347.13 691.875 348.005C692.403 350.16 691.566 354.958 694.58 353.591C697.595 352.223 695.912 347.924 692.89 344.091L692.956 344.044Z" fill="#CBD5E1"/>
<path fill-rule="evenodd" clip-rule="evenodd" d="M768.863 769.467C789.275 767.999 811.96 766.9 834.584 771.34C837.44 771.908 840.346 772.256 842.009 774.389C850.191 784.853 862.156 787.713 873.923 791.041C890.785 795.81 901.828 807.117 909.572 822.44C916.036 835.261 923.246 847.566 922.726 862.871C922.511 869.409 922.287 875.911 921.966 882.419C921.012 901.574 915.211 920.141 917.472 939.809C918.847 951.8 910.49 962.812 907.429 974.579C901.607 996.887 883.77 1009.98 867.592 1024.06C857.753 1032.63 846.867 1040.11 836.45 1047.76C812.873 1065.08 787.102 1077.78 756.282 1062.9C751.481 1060.58 745.07 1058.52 737.517 1061.01C729.029 1063.83 722.741 1055 718.013 1048.25C714.966 1043.69 710.856 1039.94 706.041 1037.33C681.484 1024.07 667.642 1003.34 662.994 975.758C661.027 963.867 653.045 954.002 651.437 941.47C647.167 908.322 653.328 876.973 666.749 847.245C674.601 829.837 683.475 813.124 698.23 799.093C716.17 782.084 736.007 772.857 759.832 770.365C762.136 770.193 764.358 769.973 768.863 769.467ZM698.54 830.891C694.064 835.687 689.538 840.447 687.874 847.117C687.466 848.787 687.194 850.708 689.091 851.404C690.465 851.906 693.409 851.848 693.562 851.392C695.661 844.546 704.417 838.989 697.955 830.357C701.548 831.291 704.824 831.223 705.236 826.558C705.337 825.286 703.881 822.752 703.018 822.687C698.417 822.359 697.857 825.661 698.083 829.295C698.172 829.856 698.329 830.405 698.55 830.928L698.54 830.891ZM746.722 1007.04C755.375 999.702 757.71 1008.3 760.731 1011.91C764.372 1016.25 758.001 1022.45 761.875 1028.25C762.861 1017.58 768.973 1012.36 778.746 1011.14C777.95 1008.39 777.392 1006.86 777.077 1005.25C776.367 1001.65 773.89 999.483 771.079 997.539C769.459 996.412 766.497 995.339 769.798 993.2C771.941 991.805 775.873 992.056 774.494 988.049C773.262 984.516 769.618 987.024 767.25 986.038C764.881 985.052 763.73 983.325 764.166 980.877C764.769 977.406 768.024 972.453 760.97 972.842C755.772 973.148 756.11 977.859 756.525 981.937C756.706 983.716 759.242 986.06 757.759 986.546C752.21 987.193 755.5 981.49 749.99 982.136C752.806 990.224 751.291 997.704 746.751 1007.07L746.722 1007.04ZM661.287 946.122C663.089 948.959 663.813 953.863 668.074 953.986C671.349 954.096 673.881 949.97 673.303 947.042C672.655 943.669 670.433 939.779 665.676 940.263C662.646 940.591 661.079 942.592 661.315 946.154L661.287 946.122ZM717.038 865.395C710.728 869.22 710.898 874.479 712.084 879.931C712.19 880.328 714.277 880.776 715.122 880.481C722.235 878.002 716.741 872.064 718.32 868.015C718.46 867.731 717.898 867.101 717.066 865.427L717.038 865.395ZM782.312 982.733C782.857 983.928 783.724 984.947 784.815 985.673C785.907 986.399 787.179 986.803 788.486 986.839C791.753 987.07 793.334 984.236 792.933 981.419C792.532 978.602 790.654 976.032 787.429 976.62C784.56 977.141 783.128 979.797 782.312 982.733ZM835.2 929.705C838.121 928.458 840.239 926.201 840.121 923.446C839.946 918.83 835.793 919.182 832.704 919.249C830.51 919.284 827.912 921.037 828.897 923.391C829.944 926.124 831.267 929.593 835.173 929.712L835.2 929.705ZM815.157 922.825C818.518 923.149 821.675 928.804 824.936 923.949C825.744 922.744 824.721 918.592 823.649 918.188C819.902 916.831 818.477 921.787 815.129 922.832L815.157 922.825ZM835.569 962.308C837.839 962.599 837.915 960.899 838.086 959.371C838.256 957.843 838.496 955.764 836.723 955.458C835.876 955.31 834.217 957.118 833.743 958.43C833.501 959.181 833.546 959.997 833.87 960.717C834.194 961.438 834.774 962.012 835.495 962.328L835.569 962.308ZM793.916 1010.74C796.163 1010.13 798.304 1009.1 798.111 1006.43C797.976 1004.57 796.033 1003.92 794.48 1004.44C792.565 1005.07 789.844 1005.48 790.241 1008.47C790.414 1010.29 792.038 1010.92 793.842 1010.75L793.916 1010.74ZM745.674 1037.99C749.793 1038.02 750.617 1036.84 750.347 1034.88C750.123 1033.2 749.384 1031.28 747.626 1031.33C747.1 1031.3 746.575 1031.4 746.09 1031.6C745.605 1031.81 745.172 1032.12 744.823 1032.51C744.473 1032.91 744.216 1033.38 744.071 1033.88C743.925 1034.39 743.894 1034.93 743.981 1035.45C744.236 1036.45 744.803 1037.35 745.601 1038.01L745.674 1037.99Z" fill="#CBD5E1"/>
<path fill-rule="evenodd" clip-rule="evenodd" d="M352.539 591.864C343.022 601.669 333.678 611.643 323.926 621.236C313.669 631.288 304.692 643.442 288.634 644.986C285.292 645.322 283.079 647.005 280.77 649.655C263.335 669.73 239.696 666.178 217.595 663.736C208.801 662.774 202.533 650.72 191.268 651.471C176.262 630.222 152.356 637.453 132.201 634.165C116.938 631.667 101.169 631.681 89.1731 620.896C70.1484 603.808 48.0515 587.915 48.9921 558.212C49.8114 532.203 38.9439 508.197 37.7351 482.289C36.8796 463.866 37.8124 448.557 50.7814 434.568C68.0379 415.955 82.6359 395.384 101.411 377.63C125.608 354.752 153.583 341.935 183.979 335.184C227.795 325.408 272.846 323.88 314.954 342.961C338.894 353.805 360.946 368.796 376.064 391.86C384.656 405.043 394.09 417.658 404.308 429.627C415.994 443.185 417.367 461.666 427.975 475.601C428.489 476.241 428.85 476.991 429.029 477.793C429.208 478.594 429.202 479.426 429.01 480.225C428.818 481.024 428.445 481.769 427.921 482.402C427.396 483.036 426.734 483.541 425.984 483.88C417.992 487.376 421.496 492.818 422.897 498.048C424.207 502.94 425.033 509.689 421.159 511.747C403.354 521.23 408.227 544.664 391.678 555.862C377.305 565.603 366.554 580.677 354.216 593.387L352.539 591.864ZM123.833 415.18C117.447 413.367 115.385 418.259 113.065 422.336C111.444 425.166 110.409 428.938 113.21 431.132C115.685 433.031 119.95 433.498 122.305 431.091C125.463 427.869 129.86 424.57 127.696 418.769C140.639 406.996 158.644 401.562 171.168 385.876C154.716 386.682 144.38 403.598 133.682 401.143C111.855 396.164 125.869 410.04 123.833 415.18ZM119.512 537.009C93.6941 544.074 93.6941 544.074 98.2164 559.777C105.186 552.206 115.369 548.447 119.512 537.009ZM167.547 365.976C175.788 369.206 183.248 363.467 190.982 364.841C196.555 365.821 194.918 362.284 194.588 359.398C194.291 356.895 193.194 354.195 190.576 355.181C182.78 358.124 172.543 356.106 167.547 365.976ZM192.099 589.283C193.443 586.959 195.235 583.74 192.755 583.07C188.515 581.928 183.714 582.36 179.203 582.774C178.598 582.828 177.249 587.666 178.103 588.576C182.439 593.236 187.448 592.443 192.099 589.283ZM215.47 486.107C218.506 487.198 221.597 487.871 224.562 486.017C226.685 484.692 227.977 482.392 225.445 480.872C222.625 479.193 219.181 480.027 216.604 482.082C215.713 482.831 215.801 484.771 215.47 486.107ZM190.615 382.335C192.235 386.142 194.616 383.687 195.924 382.404C197.484 380.887 199.348 378.375 199.12 376.531C198.836 374.153 195.723 373.691 193.541 374.394C189.543 375.691 190.381 379.187 190.605 382.337L190.615 382.335Z" fill="#CBD5E1"/>
</g>
</svg>
