<svg width="842" height="822" viewBox="0 0 842 822" fill="none" xmlns="http://www.w3.org/2000/svg">
<path opacity="0.6" fill-rule="evenodd" clip-rule="evenodd" d="M618.014 -115.399C608.185 -118.12 598.603 -115.331 589.013 -113.857C587.152 -113.572 584.022 -114.76 583.479 -113.936C580.146 -109.01 589.958 -98.8971 575.81 -97.4933C566.593 -96.5955 561.941 -104.533 554.252 -105.1C551.707 -105.294 548.777 -103.493 546.369 -102.029C515.498 -83.2987 503.827 -83.5967 476.004 -80.5768C427.273 -75.2737 376.879 -71.9599 336.696 -37.6063C333.798 -35.1001 330.436 -33.1858 326.801 -31.9723C275.499 -13.9252 227.089 10.2001 179.054 35.6359C154.588 48.588 127.848 57.9267 103.558 71.4714C44.7015 104.255 -19.6901 125.219 -78.3175 158.58C-105.372 173.972 -135.676 183.838 -162.116 200.084C-184.445 213.826 -207.29 227.748 -227.515 244.186C-244.192 257.665 -261.394 270.116 -279.009 282.077C-295.9 293.618 -303.672 309.627 -306.14 329.066C-306.88 334.88 -308.635 341.199 -300.861 343.775C-289.782 347.411 -292.992 354.248 -295.102 362.56C-299.778 381.219 -299.157 381.364 -278.282 387.662C-270.621 389.98 -263.275 392.702 -260.12 401.136C-254.309 416.608 -242.44 427.339 -229.495 436.152C-216.551 444.965 -213.036 458.723 -205.359 470.485C-193.421 488.761 -177.438 504.414 -163.09 521.117C-160.542 524.087 -155.903 526.322 -155.143 529.598C-148.108 560.089 -124.699 556.565 -102.237 555.687C-66.3214 554.238 -34.0555 538.122 0.295257 530.346C2.94555 529.76 4.78516 527.692 5.28145 524.208C7.73763 507.047 8.58038 506.455 23.4474 507.643C43.0057 509.196 67.5715 495.206 74.7587 477.927C75.6549 475.77 74.7486 472.177 73.407 469.962C71.6258 466.764 68.1873 468.511 65.4062 469.139C58.7589 470.662 56.44 475.914 53.973 481.508C50.775 488.753 44.8186 490.935 36.0168 488.563C38.8514 473.494 43.2403 459.416 39.6811 443.196C36.5228 428.748 46.4561 414.405 56.058 402.043C59.8564 397.15 63.14 397.423 68.4323 398.036C83.0361 399.694 90.8914 408.701 97.3174 422.204C88.6375 434.145 71.7236 435.263 61.3479 447.565C74.0152 452.419 82.3121 448.457 92.4529 441.105C101.218 434.689 114.081 433.969 126.792 430.235C124.729 441.207 114.611 446.966 119.453 457.099C128.748 457.754 130.191 445.363 140.72 445.161C151.25 444.959 146.656 430.897 151.871 424.477C128.173 406.076 153.673 407.22 161.24 402.53C172.622 395.469 187.269 395.46 197.108 383.855C203.477 376.349 213.244 381.007 222.063 382.94C251.09 389.364 272.635 372.497 294.295 357.333C297.858 354.841 301.695 348.468 296.021 344.983C288.505 340.406 284.433 334.893 292.66 329.865C298.333 326.399 310.681 324.033 312.463 334.459C315.363 351.491 323.542 346.321 333.069 342.242C352.987 333.696 375.43 330.542 392.825 317.384C404.679 308.277 417.07 299.888 429.931 292.265C448.649 281.317 466.915 276.147 487.199 272.384C506.89 268.721 524.094 259.983 536.035 242.296C540.206 236.106 547.445 229.081 554.182 227.968C589.412 222.158 606.404 192.465 630.834 172.473C648.641 157.95 658.717 136.222 678.555 123.546C684.245 119.916 685.931 112.116 684.34 104.746C681.715 92.6404 685.601 89.371 698.849 88.622C730.424 86.8275 735.767 82.1324 752.383 50.4083C757.608 40.407 761.154 31.1267 771.898 23.8066C790.314 11.2624 789.918 3.54787 775.953 -14.5189C770.574 -21.4067 758.045 -26.706 773.753 -35.6091C774.483 -36.0157 775.411 -37.4227 775.196 -37.9474C770.495 -49.7098 757.155 -54.9413 753.025 -67.1748C745.996 -64.4261 735.419 -76.6299 731.228 -62.002C728.669 -53.1944 725.488 -60.6771 724.115 -62.2294C720.328 -66.5356 714.573 -69.0857 713.056 -75.5764C711.752 -80.9896 705.931 -85.2673 702.048 -82.9054C681.336 -70.2483 669.78 -88.6133 656.166 -96.4697C646.196 -102.212 633.107 -110.454 645.888 -126.275C631.005 -129.542 624.772 -121.819 617.753 -115.453C608.267 -113.239 614.577 -92.4123 597.11 -98.7674C600.216 -109.722 608.931 -112.765 618.014 -115.399ZM-145.752 266.649C-157.902 265.742 -171.807 261.962 -171.148 282.805C-171.008 287.515 -181.593 294.762 -193.77 298.153C-189.993 285.551 -191.933 276.778 -198.155 268.626C-204.03 260.848 -202.458 252.759 -192.411 250.555C-182.579 248.409 -178.297 240.452 -171.619 235.106C-163.585 228.651 -155.379 228.93 -146.895 233.06C-137.432 237.643 -143.724 244.677 -144.526 250.879C-145.145 255.583 -145.298 260.349 -145.752 266.649ZM321.565 306.414C330.509 295.999 340.714 290.591 351.488 286.232C355.546 284.601 359.318 287.135 361.398 290.427C362.697 292.481 363.477 297.066 362.31 298.1C355.824 303.845 349.319 310.415 341.55 313.607C336.078 315.857 328.249 314.37 321.565 306.414ZM-233.905 394.315C-232.757 395.656 -231.604 396.978 -230.527 398.358C-228.817 400.598 -229.061 401.654 -230.462 400.578C-231.737 399.355 -232.798 397.928 -233.601 396.356C-233.847 395.714 -233.966 395.03 -233.952 394.341L-233.905 394.315Z" fill="#CBD5E1"/>
<path opacity="0.6" fill-rule="evenodd" clip-rule="evenodd" d="M406.236 460.777C409.469 463.233 411.434 465.582 405.425 466.681C387.931 469.884 386.856 469.993 388.95 487.398C389.89 495.114 388.722 497.224 381.937 499.676C378.041 501.092 375.275 506.125 372.421 509.843C368.062 515.512 364.009 518.965 355.526 516.695C345.845 514.099 336.888 518.251 332.557 527.814C323.744 547.288 304.917 548.998 287.859 553.907C284.777 554.811 279.315 552.687 278.227 554.273C267.344 569.902 247.569 570.704 234.155 581.405C224.08 589.408 215.146 598.259 201.559 599.656C198.078 600.017 195.584 602.255 193.62 605.274C189.06 612.406 184.938 608.376 184.489 603.364C183.899 596.877 180.849 596.829 176.854 598.517C172.858 600.205 169.881 603.465 174.23 607.775C178.579 612.086 176.561 613.784 172.411 616.741C159.815 625.754 145.216 629.82 131.618 635.768C127.68 630.308 134.164 627.916 133.109 622.524C121.443 625.183 112.451 630.216 109.115 642.574C106.859 650.946 100.336 654.986 94.0872 660.332C82.9999 669.844 70.6269 677.262 59.0912 685.948C43.5582 697.649 39.5316 698.038 25.6468 684.247C23.3372 681.945 21.9758 678.686 20.1503 675.816C14.7172 679.129 23.1221 682.46 20.1648 685.733C9.20357 676.783 9.20851 676.792 1.32958 688.739C-0.114812 690.93 -1.33393 694.491 -3.24422 694.946C-17.4942 698.351 -28.4039 707.345 -40.6507 714.454C-52.2824 721.208 -61.9902 730.107 -73.2148 737.077C-80.9787 741.891 -81.1951 750.515 -82.0432 758.605C-83.9477 776.814 -85.337 777.839 -103.64 776.242C-106.718 775.972 -112.048 775.222 -111.804 779.415C-111.009 793.717 -122.727 801.775 -127.149 813.362C-128.332 816.496 -130.164 819.407 -129.542 822.97C-122.13 828.145 -115.804 823.689 -109.326 820.643C-104.503 833.12 -104.503 833.12 -121.653 840.137C-106.646 849.035 -108.858 864.761 -104.944 877.924C-103.497 882.774 -104.51 891.578 -114.185 887.854C-118.509 886.185 -121.299 887.248 -122.017 890.423C-123.711 897.788 -113.781 898.428 -113.08 898.013C-104.932 893.2 -94.2825 896.357 -86.9678 889.448C-85.6266 888.187 -83.4017 887.868 -80.9415 886.857C-77.4077 895.089 -85.1385 898.869 -87.4204 904.278C-90.3776 911.306 -87.9311 915.205 -81.94 916.52C-68.9656 919.387 -54.711 923.071 -42.6699 918.361C-32.0895 914.225 -24.0112 916.733 -15.9318 920.21C0.291906 927.257 15.2269 925.575 30.4815 917.987C60.4667 902.944 90.5303 888.048 120.672 873.3C132.117 867.69 143.662 862.24 155.398 857.282C164.812 853.306 173.173 847.955 181.432 841.991C195.521 831.752 212.515 826.986 227.505 817.979C251.052 803.823 277.834 795.709 301.994 783.125C335.678 765.559 371.45 752.128 403.721 731.533C418.054 722.354 435.165 717.607 450.21 708.892C487.177 687.392 526.454 670.191 563.295 648.295C596.793 628.357 627.657 603.99 663.601 588.059C666.068 586.952 668.368 585.506 670.434 583.762C677.384 577.894 678.013 571.17 670.29 567.603C659.576 562.701 652.275 556.566 651.649 544.286C635.414 535.822 636.622 517.307 628.593 504.116C622.627 494.285 613.072 488.031 604.268 481.515C592.268 472.653 591.642 473.396 600.655 462.456C601.847 460.991 604.038 460.225 602.84 457.472C595.916 453.496 585.566 462.466 579.907 451.985C583.861 445.609 589.559 451.547 594.495 450.281C601.973 448.364 606.218 446.394 600.423 438.608C599.434 437.282 602.709 433.377 597.015 434.635C582.978 437.67 567.174 435.004 556.848 448.78C555.856 450.11 553.316 450.269 551.736 450.887C545.812 447.226 544.595 441.136 541.584 433.521C537.111 440.509 533.687 449.962 524.228 441.992C520.23 451.143 506.39 448.998 503.827 459.694C503.068 462.903 503.279 466.349 502.469 469.551C501.801 472.171 500.114 474.271 496.775 473.918C493.932 473.6 492.34 472.394 490.933 469.567C486.237 459.805 482.239 457.284 473.814 459.968C465.765 462.49 457.497 463.46 449.963 469.032C440.602 475.956 434.623 472.41 430.937 460.878C430.116 458.31 429.547 455.53 428.107 453.33C424.006 447.04 418.59 447.509 413.051 454.194C410.899 456.768 408.458 459.037 406.144 461.45L406.236 460.777ZM-50.2544 740.384C-51.1502 728.219 -40.7081 723.921 -34.2898 717.141C-32.1871 714.93 -28.5837 710.22 -24.5298 715.352C-21.4309 719.306 -19.9166 724.299 -24.2955 727.874C-31.7533 733.989 -38.2726 742.691 -50.2544 740.384ZM605.193 605.739C612.035 594.419 619.433 593.646 629.897 595.567C624.096 606.524 616.16 606.053 605.193 605.739ZM316.517 578.042C317.862 581.358 319.123 584.866 316.059 587.326C311.295 591.175 307.499 588.35 304.319 584.465C301.865 581.455 301.891 577.961 304.674 575.598C309.401 571.553 313.039 575.339 316.517 578.042ZM354.332 528.864C354.452 527.685 354.178 525.948 354.845 525.493C355.172 525.207 355.569 525.016 355.996 524.939C356.423 524.861 356.863 524.901 357.27 525.054C357.676 525.206 358.033 525.466 358.304 525.806C358.574 526.145 358.748 526.552 358.806 526.982C359.039 527.809 358.263 529.676 357.693 529.79C356.646 530.014 355.475 529.22 354.332 528.864Z" fill="#CBD5E1"/>
</svg>
