<svg width="808" height="1043" viewBox="0 0 808 1043" fill="none" xmlns="http://www.w3.org/2000/svg">
<path opacity="0.6" fill-rule="evenodd" clip-rule="evenodd" d="M613.189 72.1437C604.618 69.771 596.263 72.2034 587.9 73.4887C586.277 73.7372 583.548 72.7011 583.074 73.4201C580.167 77.7157 588.724 86.5339 576.386 87.758C568.349 88.5409 564.292 81.6196 557.588 81.1249C555.369 80.9557 552.814 82.5262 550.714 83.8029C523.793 100.136 513.616 99.8761 489.354 102.509C446.86 107.134 402.915 110.024 367.874 139.981C365.347 142.166 362.416 143.835 359.246 144.894C314.51 160.631 272.295 181.669 230.408 203.849C209.073 215.144 185.755 223.287 164.574 235.098C113.25 263.686 57.0993 281.967 5.97511 311.059C-17.6173 324.481 -44.0424 333.084 -67.0986 347.251C-86.5699 359.234 -106.491 371.375 -124.128 385.709C-138.67 397.462 -153.671 408.321 -169.032 418.75C-183.761 428.815 -190.538 442.774 -192.69 459.725C-193.336 464.796 -194.866 470.306 -188.087 472.552C-178.426 475.723 -181.225 481.685 -183.065 488.934C-187.143 505.204 -186.601 505.33 -168.397 510.823C-161.717 512.844 -155.311 515.218 -152.56 522.572C-147.493 536.064 -137.143 545.422 -125.855 553.107C-114.567 560.792 -111.502 572.79 -104.807 583.046C-94.3976 598.983 -80.4595 612.633 -67.9486 627.198C-65.726 629.788 -61.6814 631.737 -61.0186 634.593C-54.8836 661.182 -34.4701 658.109 -14.8834 657.344C16.4359 656.08 44.5724 642.027 74.5269 635.246C76.838 634.735 78.4422 632.931 78.8749 629.893C81.0168 614.928 81.7517 614.412 94.716 615.448C111.771 616.803 133.193 604.603 139.46 589.535C140.242 587.655 139.452 584.521 138.282 582.59C136.729 579.801 133.73 581.324 131.305 581.872C125.508 583.2 123.486 587.78 121.335 592.658C118.546 598.976 113.352 600.879 105.677 598.81C108.149 585.67 111.976 573.393 108.872 559.249C106.118 546.65 114.78 534.143 123.153 523.363C126.465 519.096 129.329 519.335 133.944 519.869C146.679 521.314 153.528 529.169 159.132 540.944C151.563 551.356 136.814 552.331 127.766 563.059C138.812 567.292 146.047 563.837 154.89 557.426C162.533 551.831 173.75 551.204 184.835 547.947C183.035 557.515 174.212 562.536 178.435 571.373C186.54 571.944 187.798 561.139 196.98 560.963C206.162 560.787 202.156 548.524 206.704 542.926C186.038 526.88 208.275 527.878 214.873 523.788C224.799 517.63 237.572 517.622 246.152 507.503C251.705 500.957 260.222 505.019 267.912 506.705C293.224 512.306 312.012 497.599 330.9 484.375C334.007 482.202 337.353 476.645 332.406 473.606C325.852 469.614 322.3 464.807 329.475 460.423C334.421 457.4 345.189 455.337 346.743 464.429C349.272 479.281 356.404 474.773 364.712 471.216C382.08 463.763 401.651 461.013 416.82 449.539C427.157 441.597 437.962 434.282 449.177 427.635C465.5 418.088 481.428 413.579 499.116 410.298C516.287 407.104 531.289 399.484 541.702 384.061C545.34 378.663 551.652 372.537 557.526 371.567C588.248 366.5 603.065 340.607 624.369 323.173C639.897 310.509 648.683 291.562 665.982 280.508C670.944 277.343 672.414 270.542 671.027 264.114C668.738 253.558 672.126 250.707 683.679 250.054C711.213 248.489 715.872 244.395 730.361 216.731C734.918 208.01 738.01 199.917 747.379 193.534C763.438 182.595 763.093 175.868 750.915 160.113C746.225 154.107 735.299 149.486 748.997 141.722C749.633 141.368 750.443 140.141 750.255 139.683C746.156 129.426 734.523 124.864 730.921 114.196C724.792 116.593 715.569 105.951 711.914 118.707C709.683 126.388 706.909 119.862 705.711 118.509C702.409 114.754 697.391 112.53 696.067 106.87C694.931 102.15 689.854 98.4193 686.469 100.479C668.408 111.516 658.331 95.5015 646.458 88.6506C637.765 83.6428 626.351 76.4562 637.496 62.66C624.517 59.8113 619.083 66.5458 612.961 72.0966C604.689 74.0275 610.192 92.1887 594.96 86.647C597.669 77.0948 605.269 74.4407 613.189 72.1437ZM-52.8293 405.297C-63.424 404.506 -75.5497 401.21 -74.9749 419.385C-74.8524 423.493 -84.0828 429.812 -94.7017 432.769C-91.4079 421.78 -93.0996 414.13 -98.5254 407.021C-103.648 400.238 -102.278 393.185 -93.517 391.263C-84.943 389.391 -81.2086 382.453 -75.3859 377.791C-68.3801 372.162 -61.2244 372.406 -53.8254 376.007C-45.5741 380.003 -51.0608 386.137 -51.7603 391.546C-52.3002 395.647 -52.4328 399.803 -52.8293 405.297ZM354.68 439.973C362.479 430.891 371.378 426.175 380.774 422.373C384.312 420.951 387.601 423.161 389.416 426.032C390.548 427.823 391.228 431.821 390.21 432.722C384.555 437.733 378.882 443.462 372.107 446.245C367.336 448.207 360.508 446.911 354.68 439.973ZM-129.7 516.624C-128.699 517.793 -127.694 518.946 -126.755 520.15C-125.263 522.103 -125.476 523.024 -126.698 522.085C-127.81 521.019 -128.735 519.775 -129.435 518.404C-129.649 517.844 -129.753 517.247 -129.741 516.647L-129.7 516.624Z" fill="#9CB6F2"/>
<path opacity="0.6" fill-rule="evenodd" clip-rule="evenodd" d="M428.514 574.58C431.333 576.722 433.047 578.771 427.807 579.729C412.552 582.522 411.615 582.617 413.441 597.794C414.26 604.523 413.242 606.362 407.325 608.501C403.928 609.736 401.515 614.125 399.027 617.367C395.226 622.31 391.692 625.322 384.294 623.342C375.852 621.078 368.041 624.699 364.265 633.038C356.58 650.02 340.162 651.511 325.288 655.791C322.6 656.579 317.837 654.727 316.888 656.111C307.398 669.74 290.153 670.439 278.457 679.77C269.671 686.749 261.88 694.467 250.032 695.686C246.997 696 244.822 697.952 243.11 700.584C239.133 706.804 235.539 703.289 235.147 698.919C234.633 693.262 231.973 693.221 228.488 694.692C225.004 696.164 222.409 699.007 226.201 702.766C229.993 706.524 228.233 708.005 224.615 710.584C213.631 718.443 200.9 721.989 189.042 727.176C185.608 722.414 191.262 720.329 190.342 715.627C180.17 717.946 172.328 722.335 169.419 733.111C167.452 740.411 161.764 743.934 156.315 748.596C146.646 756.891 135.857 763.359 125.797 770.933C112.252 781.137 108.741 781.477 96.6334 769.45C94.6194 767.443 93.4322 764.601 91.8403 762.098C87.1026 764.988 94.4317 767.892 91.853 770.747C82.2946 762.942 82.2989 762.95 75.4283 773.367C74.1688 775.278 73.1056 778.384 71.4398 778.78C59.0136 781.749 49.5002 789.592 38.8207 795.791C28.6776 801.681 20.2123 809.441 10.4241 815.519C3.65393 819.717 3.46519 827.237 2.7256 834.292C1.06487 850.171 -0.146587 851.064 -16.1069 849.672C-18.7916 849.436 -23.4395 848.782 -23.2267 852.439C-22.5332 864.91 -32.7517 871.937 -36.6076 882.041C-37.6387 884.774 -39.237 887.312 -38.6942 890.42C-32.2306 894.933 -26.7141 891.046 -21.0651 888.39C-16.8597 899.271 -16.8596 899.271 -31.8148 905.39C-18.7283 913.148 -20.6572 926.862 -17.2444 938.34C-15.9827 942.57 -16.8655 950.247 -25.3024 947C-29.0731 945.544 -31.5059 946.472 -32.1319 949.24C-33.6091 955.662 -24.9504 956.22 -24.3388 955.859C-17.2342 951.662 -7.94727 954.414 -1.5687 948.39C-0.399159 947.29 1.54096 947.012 3.68637 946.13C6.76785 953.309 0.0264831 956.605 -1.96337 961.321C-4.54213 967.451 -2.40871 970.851 2.81562 971.997C14.1296 974.497 26.5598 977.709 37.0599 973.602C46.2862 969.996 53.3306 972.183 60.376 975.214C74.5234 981.36 87.547 979.893 100.849 973.276C126.997 960.158 153.213 947.169 179.497 934.308C189.477 929.416 199.545 924.664 209.778 920.34C217.988 916.873 225.279 912.207 232.481 907.006C244.767 898.078 259.586 893.922 272.657 886.067C293.191 873.723 316.546 866.648 337.614 855.674C366.986 840.356 398.18 828.644 426.321 810.685C438.82 802.681 453.741 798.541 466.861 790.941C499.096 772.193 533.346 757.193 565.473 738.099C594.683 720.713 621.597 699.465 652.942 685.572C655.093 684.608 657.098 683.347 658.9 681.826C664.961 676.709 665.509 670.845 658.774 667.735C649.431 663.46 643.065 658.111 642.519 647.402C628.362 640.021 629.415 623.876 622.414 612.373C617.212 603.8 608.879 598.346 601.202 592.664C590.738 584.936 590.192 585.584 598.052 576.044C599.091 574.767 601.001 574.099 599.956 571.698C593.919 568.231 584.893 576.053 579.959 566.913C583.407 561.353 588.376 566.532 592.68 565.428C599.201 563.756 602.903 562.038 597.849 555.248C596.986 554.092 599.842 550.687 594.877 551.784C582.636 554.431 568.856 552.106 559.851 564.119C558.986 565.279 556.771 565.418 555.393 565.956C550.228 562.764 549.166 557.453 546.541 550.812C542.639 556.906 539.654 565.149 531.406 558.199C527.92 566.179 515.851 564.309 513.615 573.636C512.954 576.434 513.138 579.439 512.431 582.231C511.849 584.516 510.378 586.347 507.466 586.04C504.987 585.762 503.599 584.711 502.371 582.245C498.276 573.733 494.79 571.535 487.444 573.875C480.425 576.074 473.215 576.92 466.645 581.779C458.482 587.817 453.268 584.724 450.054 574.669C449.338 572.429 448.842 570.004 447.586 568.087C444.01 562.602 439.287 563.011 434.457 568.84C432.581 571.084 430.452 573.063 428.435 575.167L428.514 574.58ZM30.4461 818.403C29.6649 807.794 38.7707 804.047 44.3675 798.135C46.2011 796.206 49.3433 792.099 52.8784 796.575C55.5807 800.023 56.9012 804.376 53.0828 807.494C46.5794 812.826 40.8944 820.415 30.4461 818.403ZM602.009 700.99C607.975 691.119 614.426 690.445 623.551 692.12C618.492 701.674 611.572 701.263 602.009 700.99ZM350.277 676.837C351.451 679.73 352.55 682.788 349.878 684.933C345.724 688.29 342.414 685.827 339.641 682.439C337.501 679.814 337.523 676.767 339.95 674.706C344.072 671.179 347.245 674.48 350.277 676.837ZM383.253 633.953C383.358 632.925 383.119 631.411 383.7 631.014C383.985 630.765 384.332 630.598 384.704 630.53C385.077 630.463 385.461 630.497 385.815 630.631C386.169 630.764 386.481 630.991 386.716 631.287C386.952 631.583 387.104 631.937 387.154 632.312C387.358 633.033 386.681 634.662 386.184 634.761C385.271 634.957 384.25 634.264 383.253 633.953Z" fill="#9CB6F2"/>
</svg>
