<svg width="475" height="857" viewBox="0 0 475 857" fill="none" xmlns="http://www.w3.org/2000/svg">
<g opacity="0.6">
<path fill-rule="evenodd" clip-rule="evenodd" d="M101.447 574.414C98.6094 573.56 95.7933 573.321 93.2661 575.094C89.2542 577.915 85.7354 577.455 81.0084 575.58C75.7923 573.507 69.8323 575.141 66.3981 580.598C64.5151 583.601 62.0551 583.464 60.5665 581.43C55.7106 574.752 48.8095 571.94 41.6873 568.836C33.7794 565.387 31.7663 559.395 33.7166 550.667C35.9639 540.566 40.4926 532.098 49.9497 527.642C54.1244 525.668 56.1552 523.057 56.8928 518.607C58.295 510.501 63.4225 505.627 71.1664 505.342C76.4335 505.151 80.8772 501.14 86.4808 503.138C93.8984 505.798 100.518 509.212 104.194 516.848C109.802 528.497 113.498 540.154 106.857 552.587C106.382 553.705 106.175 554.925 106.253 556.146C106.247 559.94 107.137 562.887 101.054 563.903C97.0249 564.552 103.858 569.75 101.447 574.414ZM74.0005 545.104C69.9602 546.326 68.2186 548.283 68.7374 554.808C70.8839 550.36 73.8309 549.3 74.0005 545.104Z" fill="#9CB6F2"/>
<path fill-rule="evenodd" clip-rule="evenodd" d="M444.354 556.724C440.389 557.787 436.912 557.908 433.554 558.504C425.923 559.868 418.273 559.797 410.619 559.683C402.749 559.664 394.969 557.928 387.815 554.596C386.925 554.169 386.391 553.327 385.384 553.025C384.377 552.723 384.052 550.574 382.279 551.295C381.969 550.299 381.662 549.289 380.449 550.548C380.365 550.635 379.875 550.47 379.88 550.461C380.15 548.145 377.909 548.622 376.887 547.781C375.644 546.88 374.601 545.727 373.826 544.396C372.731 542.156 371.269 540.21 369.989 538.114C368.354 535.36 366.226 532.962 364.696 530.122C364.043 528.914 362.937 528.002 362.593 526.531C362.249 525.059 361.299 524.597 359.883 525.418C359.564 525.639 359.192 525.77 358.806 525.798C358.419 525.825 358.032 525.747 357.685 525.573C353.902 523.192 349.24 521.944 347.042 517.495C346.367 516.127 344.775 515.33 344.8 513.521C344.82 512.068 343.081 511.47 342.989 509.895C342.897 508.32 341.727 506.925 341.076 505.435C338.854 500.116 338.374 494.44 337.497 488.862C337.022 485.776 337.288 482.563 337.39 479.409C337.557 474.297 337.721 469.23 338.653 464.189C338.991 462.151 339.547 460.158 340.311 458.243C342.085 454.148 342.564 449.612 344.621 445.608C344.905 444.781 345.027 443.905 344.978 443.03C345.37 436.91 348.663 431.974 351.318 426.746C352.798 423.83 355.195 421.711 357.032 419.113C358.87 416.514 361.672 414.569 363.786 412.171C366.469 409.165 369.337 406.341 371.909 403.212C375.462 399.064 379.341 395.212 383.509 391.693C389.81 386.168 396.865 382.143 404.915 380.282C412.966 378.422 421.021 377.299 429.333 378.314C431.871 378.626 434.539 378.99 437.111 378.597C437.319 378.542 437.633 378.457 437.742 378.515C439.953 380.203 442.463 379.204 444.838 379.386C445.268 379.39 445.692 379.486 446.083 379.667C448.057 380.789 449.771 380.786 451.9 379.622C453.722 378.627 455.885 380.001 457.853 380.408C461.843 381.261 465.744 382.502 469.499 384.113C471.021 384.795 472.424 385.723 473.651 386.859C475.534 388.526 477.919 389.66 479.947 391.201C483.136 393.618 486.695 395.567 489.281 398.761C489.891 399.34 490.404 400.014 490.799 400.758C490.935 401.158 491.161 401.52 491.46 401.817C491.759 402.114 492.122 402.337 492.521 402.468C493.924 402.99 495.198 404.074 494.502 406.005C494.403 406.26 494.402 406.543 494.498 406.799C494.595 407.055 494.782 407.267 495.025 407.392C496.233 408.234 496.722 409.681 497.667 410.665C501.305 414.461 503.288 419.293 505.668 423.78C507.707 427.613 510.044 431.46 510.477 436.049C510.63 437.716 511.503 439.393 512.356 440.916C514.584 444.865 514.908 449.396 515.968 453.621C517.23 458.654 518.699 463.812 518.671 469.068C518.664 472.066 518.722 475.098 518.446 478.111C517.982 483.157 516.75 488.069 515.99 493.057C515.726 494.749 514.911 496.343 514.596 498.034C513.268 504.677 510.851 511.047 507.443 516.881C502.95 524.788 498.084 532.534 491.61 539.046C486.249 544.583 479.636 548.731 472.332 551.139C470.912 551.599 469.565 552.307 468.133 552.749C462.242 554.486 456.149 555.447 450.006 555.608C447.832 555.691 445.85 556.519 444.354 556.724ZM363.64 424.725C363.342 424.93 363.124 425.233 363.022 425.582C362.921 425.931 362.943 426.305 363.083 426.641C363.63 426.002 364.089 425.437 363.521 424.656C364.06 424.258 364.552 423.815 364.19 423.029C364.12 422.965 364.034 422.92 363.942 422.899C363.849 422.878 363.753 422.882 363.663 422.91C363.066 423.359 363.735 423.875 363.636 424.364C363.624 424.484 363.625 424.605 363.64 424.725ZM344.434 462.886C342.933 464.41 342.699 465.761 343.66 468.037C344.508 466.297 345.234 464.72 344.366 462.846C344.977 462.45 344.993 461.73 345.102 461.121C345.647 457.942 346.604 454.85 347.95 451.925C348.217 451.369 348.73 450.819 348.327 450.116C348.208 449.937 348.033 449.803 347.83 449.736C347.554 449.643 347.21 449.511 347.156 450.032C346.901 452.511 345.129 454.39 344.555 456.722C344.036 458.75 342.165 460.794 344.42 462.889L344.434 462.886ZM342.001 473.845C341.704 474.453 342.377 475.25 341.343 475.809C340.521 476.253 340.424 478.299 341.028 479.107C341.632 479.915 341.959 480.305 340.894 480.859C340.061 481.285 340.175 482.115 340.252 482.884C340.445 483.717 340.524 484.572 340.488 485.426C340.052 487.896 341.415 489.181 343.536 490.719C343.362 489.158 343.118 488.167 342.935 487.137C342.557 485.002 340.615 483.141 342.321 480.505C343.344 478.964 342.997 476.546 343.157 474.49C343.201 473.929 342.742 473.502 342.049 473.731C342.591 473.288 342.99 472.692 343.193 472.018C343.396 471.345 343.395 470.625 343.19 469.951C343.081 469.545 342.903 469.043 342.375 469.134C341.984 469.229 341.618 469.408 341.303 469.66C341.859 471.226 340.192 472.665 341.071 474.152C341.302 474.691 341.698 474.107 341.987 473.848L342.001 473.845ZM342.985 491.771C341.103 493.318 341.104 493.911 342.638 496.424C342.147 496.867 341.247 495.545 341.102 496.611C340.957 497.678 342.114 497.708 342.778 497.668C343.442 497.628 344.056 497.079 343.607 496.288C342.851 494.992 342.907 493.594 342.972 491.775L342.985 491.771ZM352.874 438.127C353.525 437.624 354.062 436.987 354.448 436.258C354.521 436.181 354.577 436.089 354.611 435.987C354.646 435.886 354.658 435.779 354.647 435.672C354.636 435.566 354.603 435.463 354.549 435.371C354.495 435.278 354.422 435.199 354.334 435.137C353.885 434.802 353.344 434.578 352.926 435.08C352.113 436.037 351.02 437.046 352.861 438.131L352.874 438.127ZM491.417 451.528C490.365 453.895 491.974 454.73 493.002 455.78C493.065 455.832 493.138 455.871 493.217 455.893C493.296 455.915 493.379 455.92 493.46 455.907C493.54 455.894 493.618 455.864 493.686 455.819C493.754 455.774 493.812 455.715 493.856 455.645C493.917 455.507 493.948 455.358 493.947 455.208C493.946 455.057 493.913 454.908 493.851 454.77C493.174 453.692 491.944 453.117 491.384 451.537L491.417 451.528ZM348.068 510.206C348.252 509.954 348.348 509.885 348.367 509.793C348.427 509.492 348.412 509.18 348.325 508.886C348.237 508.591 348.079 508.323 347.864 508.104C347.794 508.028 347.43 508.09 347.331 508.203C346.901 508.687 347.228 509.157 347.465 509.615C347.631 509.828 347.821 510.023 348.03 510.195L348.068 510.206ZM488.771 448.618C488.087 448.476 487.438 447.528 486.805 448.595C486.635 448.872 486.603 449.315 486.909 449.465C487.781 449.904 488.236 449.218 488.749 448.617L488.771 448.618ZM344.126 507.332C344.122 507.615 344.138 507.899 344.173 508.18C344.237 508.444 344.386 508.678 344.596 508.848C344.806 509.017 345.067 509.11 345.335 509.114C345.492 509.137 345.822 508.948 345.833 508.829C345.903 508.18 345.397 507.925 344.926 507.667C344.721 507.571 344.516 507.502 344.104 507.331L344.126 507.332ZM344.486 476.154C344.376 476.519 344.36 476.906 344.439 477.28C344.518 477.654 344.689 478.002 344.937 478.292C345.15 477.481 344.752 476.908 344.464 476.153L344.486 476.154ZM371.3 417.577C371.385 417.567 371.468 417.54 371.541 417.496C371.615 417.452 371.678 417.393 371.727 417.322C371.776 417.251 371.81 417.171 371.825 417.086C371.841 417.001 371.838 416.914 371.818 416.83C371.813 416.753 371.792 416.678 371.755 416.611C371.719 416.543 371.669 416.483 371.608 416.436C371.547 416.39 371.477 416.356 371.403 416.339C371.328 416.322 371.251 416.321 371.176 416.336C370.788 416.44 370.456 416.783 370.647 417.202C370.742 417.422 371.136 417.498 371.278 417.576L371.3 417.577ZM348.863 447.056C348.755 446.65 348.581 446.27 348.067 446.306C347.553 446.343 347.495 446.85 347.596 447.229C347.658 447.434 347.796 447.607 347.981 447.714C348.165 447.82 348.383 447.852 348.59 447.802C348.893 447.728 348.966 447.412 348.842 447.054L348.863 447.056ZM353.745 518.855C352.902 519.804 352.902 519.804 353.479 520.888L353.745 518.855ZM348.672 515.031C349.118 515.006 349.147 514.687 349.082 514.364C349.031 514.175 348.952 513.878 348.808 513.822C348.347 513.656 348.463 514.117 348.372 514.337C348.28 514.557 348.247 514.892 348.648 514.994L348.672 515.031Z" fill="#9CB6F2"/>
<path fill-rule="evenodd" clip-rule="evenodd" d="M236.044 550.103C254.168 550.962 273.263 549.564 292.388 549.643C295.699 549.657 299.118 549.916 302.377 551.421C308.115 554.151 314.2 556.064 320.457 557.106C324.314 557.716 329.641 558.739 329.886 564.835C329.989 567.359 332.253 567.365 333.589 567.223C347.086 565.769 354.771 574.844 361.927 583.759C370.154 594.001 377.722 604.665 382.449 617.395C389.335 635.931 392.8 654.714 391.445 674.392C391.333 676.087 390.641 677.858 390.982 679.424C394.589 696.36 389.28 711.591 382.789 726.743C381.499 729.755 381.159 733.428 381.274 736.77C381.843 753.238 373.333 765.449 362.965 776.63C348.311 792.434 330.584 804.492 311.429 813.682C299.502 819.417 286.856 823.508 273.832 825.847C267.302 827.013 260.723 827.918 254.213 829.186C253.206 829.384 252.316 829.695 251.441 829.208C244.12 824.965 236.77 828.174 229.5 829.171C225.082 829.778 222.824 825.626 219.703 825.093C215.459 824.371 212.927 824.271 214.325 819.125C214.52 818.41 213.657 817.488 212.331 817.562C201.88 818.2 198.992 817.331 192.786 814.872C185.643 812.072 178.703 809.276 172.218 804.895C164.006 799.384 162.752 797.99 159.477 785.556C158.614 782.335 154.265 781.489 153.249 776.897C151.97 771.135 147.808 766.103 146.913 759.69C146.582 757.358 142.474 753.673 141.043 753.141C136.454 751.401 135.594 747.336 134.934 744.393C133.699 738.85 131.859 734.226 127.712 730.292C125.793 728.471 125.379 726.124 129.377 725.817C129.62 725.77 129.843 725.649 130.015 725.469C130.187 725.29 130.3 725.061 130.337 724.814C130.374 724.567 130.335 724.315 130.224 724.091C130.113 723.867 129.936 723.683 129.718 723.564C120.817 719.462 122.364 710.759 120.875 703.44C120.606 702.142 120.837 700.841 119.965 699.59C114.248 691.342 115.872 682.337 118.79 674.046C122.781 662.735 126.164 651.479 127.126 639.416C128.04 627.842 135.023 618.612 140.412 608.859C148.124 594.901 159.292 583.98 171.894 574.672C177.56 570.495 184.337 567.684 190.761 564.68C204.941 558.055 219.133 551.478 236.044 550.103ZM136.987 713.083C136.896 707.882 130.966 713.182 129.966 709.292C130.631 711.773 129.276 714.889 132.216 716.833C134.111 715.302 135.665 714.05 137.181 712.843C136.7 715.134 136.786 717.273 138.936 719.234C139.336 716.612 138.885 714.635 136.987 713.083V713.083ZM182.435 756.183C188.24 750.383 178.959 745.345 181.558 739.712C178.188 738.381 180.858 734.429 178.584 732.754C177.955 732.303 176.309 732.276 175.893 732.755C174.414 734.527 172.828 737.583 173.975 738.955C177.925 743.489 177.264 749.064 178.563 754.179C179.174 756.459 180.86 756.288 182.612 755.934C183.326 757.905 181.684 760.672 184.449 762.094C185.035 759.659 184.668 757.596 182.435 756.183V756.183ZM145.319 710.893C145.605 728.921 145.605 728.921 148.636 733.744C150.166 727.273 148.43 715.371 145.319 710.893V710.893ZM128.308 704.598C132.35 702.722 126.477 698.861 130.499 697.762C133.678 696.91 132.662 694.775 132.05 693.188C131.221 691.053 131.544 687.104 127.244 688.609C123.972 689.752 123.096 692.546 125.18 694.928C127.678 697.761 126.51 701.389 128.308 704.598V704.598ZM156.087 716.433C158.856 716.08 159.051 713.895 159.655 712.09C159.986 711.107 159.657 709.747 158.613 709.883C156.291 710.195 154.148 711.252 154.491 714.187C154.59 715.011 155.571 715.735 156.087 716.433V716.433ZM176.658 607.708C176.809 608.857 177.582 609.284 178.665 609.16C180.309 608.964 180.629 607.726 180.463 606.386C180.372 605.647 180.502 604.156 178.976 604.976C177.917 605.541 176.545 606.002 176.658 607.708V607.708ZM183.813 777.19C180.025 781.088 183.356 781.925 185.778 783.215L183.813 777.19ZM214.993 694.329C216.798 693.802 216.123 692.296 216.135 691.14C216.097 690.531 215.868 689.949 215.482 689.477C213.933 689.705 213.474 690.93 213.445 692.293C213.413 692.529 213.428 692.768 213.489 692.998C213.55 693.228 213.655 693.444 213.799 693.634C213.943 693.823 214.122 693.982 214.327 694.101C214.532 694.22 214.758 694.298 214.993 694.329V694.329ZM184.552 677.852C185.195 674.133 185.662 671.789 182.603 670.15C181.738 672.854 182.234 674.811 184.552 677.852V677.852ZM168.606 707.082C168.674 708.751 169.324 709.362 170.536 709.181C171.747 709.001 172.497 708.245 172.035 707.136C171.689 706.299 170.694 705.737 169.982 705.056C169.462 705.844 168.946 706.616 168.606 707.082ZM159.666 770.687C159.761 771.357 160.083 771.975 160.576 772.436C161.07 772.897 161.706 773.173 162.377 773.219C162.683 772.668 162.859 772.054 162.891 771.423C162.888 769.86 162.179 768.767 160.465 769.046C160.119 769.118 159.924 770.128 159.679 770.734L159.666 770.687ZM156.872 744.23C156.549 743.026 155.598 742.978 154.674 743.002C152.484 743.056 152.01 744.437 152.411 746.282C152.615 747.23 153.099 748.21 154.366 747.863C156.149 747.385 156.824 746.03 156.848 744.25L156.872 744.23ZM218.85 749.835C219.233 749.155 220.205 748.189 220.027 747.523C219.814 746.729 218.626 745.635 217.866 745.63C215.429 745.642 217.02 747.521 216.92 748.536C216.819 749.55 217.327 750.351 218.85 749.835ZM157.607 602.644C157.693 601.36 157.443 600.216 156.434 600.349C154.976 600.545 154.694 602.084 154.465 603.313C154.411 603.541 154.41 603.778 154.463 604.007C154.516 604.235 154.621 604.449 154.77 604.629C154.919 604.81 155.108 604.953 155.322 605.047C155.536 605.141 155.769 605.184 156.001 605.172C157.905 605.116 157.433 603.462 157.607 602.644ZM157.634 729.366C157.313 731.773 154.768 732.505 155.744 734.918C155.879 735.263 157.073 735.606 157.306 735.407C159.125 733.968 159.616 732.193 157.631 729.352L157.634 729.366ZM124.783 680.224C125.811 681.202 126.245 681.994 126.739 682.02C128.715 682.211 128.749 680.761 128.516 679.382C128.307 678.759 128.014 678.168 127.644 677.626C126.668 678.472 125.663 679.368 124.779 680.21L124.783 680.224Z" fill="#9CB6F2"/>
<path fill-rule="evenodd" clip-rule="evenodd" d="M747.804 169.863C746.863 188.667 746.207 204.65 745.214 220.608C744.644 230.08 744.65 239.748 742.432 248.859C737.975 267.05 735.905 286.651 719.546 299.436C716.461 301.854 715.684 305.489 713.035 308.034C696.017 324.652 676.151 336.699 654.114 345.327C652.991 345.772 651.749 346.413 650.624 346.313C633.603 344.759 616.88 350.071 599.862 348.445C597.861 348.264 595.55 347.679 593.845 348.387C580.842 353.842 568.585 353.241 556.859 344.978C555.267 343.856 553.053 343.847 550.946 344.34C546.927 345.202 544.046 343.185 541.296 340.474C533.546 332.823 524.863 326.404 515.644 320.53C510.191 317.059 507.462 310.787 504.57 305.081C501.157 298.347 498.338 291.31 492.932 285.762C491.55 284.354 489.649 282.24 489.854 280.701C491.322 269.304 482.215 260.605 482.354 249.606C482.494 238.608 479.929 228.07 480.16 216.983C480.342 208.582 481.918 200.318 481.799 191.891C481.664 183.081 488.112 176.228 491.857 168.694C498.857 154.631 504.62 140.026 514.8 127.492C528.541 110.562 546.389 99.8015 564.723 89.0608C576.425 82.2049 589.772 79.7469 601.43 73.1605C602.435 72.5973 604.006 72.0547 604.915 72.449C618.425 78.6643 633.565 71.1094 647.059 77.4795C648.816 78.3061 651.32 78.9686 652.976 78.3456C665.042 73.8149 672.646 80.8387 680.859 87.8637C693.263 98.4688 704.208 110.411 715.126 122.41C717.212 124.872 719.565 127.096 722.143 129.039C737.382 139.752 740.666 157.288 747.804 169.863ZM499.234 221.327L503.188 228.447C504.91 231.527 512.188 232.566 515.87 229.672C519.007 227.205 517.984 224.167 515.365 221.65C514.394 220.706 511.768 219.373 514.053 218.417C522.447 214.914 515.877 205.398 521.55 200.853C522.663 199.967 521.71 197.591 519.966 197.055C519.011 196.759 517.118 197.144 516.684 197.855C512.732 204.377 502.095 208.266 508.263 218.908C509.416 220.907 507.544 222.685 506.26 224.828C504.053 223.692 503.037 219.928 499.234 221.327ZM527.567 196.595C531.448 192.917 533.185 188.416 535.005 182.724C529.434 186.417 521.002 187.365 527.54 196.602L527.567 196.595ZM537.196 171.37C537.512 169.414 537.926 168.307 537.806 167.242C537.582 165.094 540.472 162.807 537.622 160.876C537.168 160.574 535.993 160.853 535.428 161.263C532.671 163.242 534.777 165.53 535.248 167.662C535.457 168.71 536.229 169.636 537.169 171.377L537.196 171.37ZM522.777 267.342C521.922 261.929 521.922 261.929 518.758 257.379C519.631 263.024 519.631 263.024 522.75 267.349L522.777 267.342ZM535.209 286.95C534.607 283.255 539.49 280.986 534.871 278.08C534.096 277.571 532.122 277.734 531.606 278.353C528.441 282.104 531.943 283.818 535.194 286.976L535.209 286.95ZM516.049 250.27C517.208 250.096 518.509 249.754 518.081 248.292C517.561 246.51 516.935 244.47 514.576 244.213C513.102 244.07 512.533 245.241 512.573 246.463C512.61 248.69 513.64 250.148 516 250.304L516.049 250.27ZM508.277 178.696C507.688 180.17 507.216 181.689 506.867 183.238C506.719 184.188 507.635 184.631 508.608 184.378C510.148 183.965 510.37 182.916 509.894 181.596C509.502 180.561 509.714 179.156 508.229 178.73L508.277 178.696ZM506.119 251.282C505.697 252.735 505.172 253.536 505.329 254.175C505.715 255.749 505.104 259.253 507.305 258.254C509.507 257.256 508.278 254.116 506.071 251.316L506.119 251.282Z" fill="#9CB6F2"/>
<path fill-rule="evenodd" clip-rule="evenodd" d="M561.56 562.001C576.468 560.929 593.036 560.126 609.561 563.369C611.647 563.784 613.769 564.038 614.984 565.596C620.96 573.238 629.699 575.327 638.293 577.758C650.609 581.241 658.674 589.5 664.33 600.691C669.051 610.055 674.318 619.042 673.938 630.221C673.781 634.996 673.617 639.745 673.383 644.498C672.686 658.489 668.449 672.05 670.1 686.414C671.104 695.173 665.001 703.216 662.765 711.81C658.513 728.103 645.485 737.669 633.669 747.95C626.483 754.205 618.532 759.67 610.924 765.259C593.703 777.911 574.881 787.183 552.37 776.315C548.864 774.621 544.182 773.119 538.665 774.936C532.466 776.994 527.873 770.547 524.42 765.62C522.195 762.287 519.193 759.549 515.676 757.645C497.74 747.954 487.63 732.818 484.236 712.671C482.799 703.986 476.969 696.781 475.795 687.628C472.675 663.417 477.176 640.52 486.978 618.808C492.713 606.094 499.194 593.887 509.971 583.639C523.074 571.216 537.562 564.477 554.964 562.657C556.646 562.531 558.269 562.37 561.56 562.001ZM510.198 606.864C506.928 610.367 503.622 613.843 502.407 618.715C502.109 619.934 501.91 621.337 503.296 621.846C504.299 622.212 506.45 622.17 506.562 621.837C508.094 616.837 514.49 612.778 509.77 606.473C512.394 607.156 514.787 607.106 515.088 603.699C515.162 602.77 514.099 600.919 513.468 600.871C510.108 600.632 509.698 603.043 509.864 605.698C509.928 606.108 510.043 606.509 510.205 606.891L510.198 606.864ZM545.389 735.518C551.709 730.159 553.414 736.442 555.62 739.076C558.279 742.246 553.626 746.776 556.456 751.011C557.176 743.22 561.64 739.404 568.778 738.517C568.196 736.508 567.789 735.39 567.559 734.21C567.041 731.578 565.232 729.999 563.178 728.58C561.995 727.757 559.832 726.972 562.242 725.41C563.808 724.392 566.679 724.575 565.672 721.648C564.773 719.068 562.111 720.899 560.381 720.179C558.652 719.459 557.811 718.198 558.129 716.41C558.57 713.874 560.947 710.257 555.795 710.541C551.998 710.764 552.245 714.205 552.548 717.184C552.681 718.483 554.533 720.195 553.45 720.55C549.397 721.023 551.8 716.857 547.776 717.33C549.832 723.237 548.725 728.7 545.409 735.542L545.389 735.518ZM482.989 691.026C484.305 693.098 484.834 696.679 487.946 696.769C490.338 696.85 492.187 693.836 491.765 691.698C491.292 689.234 489.668 686.393 486.194 686.746C483.982 686.986 482.836 688.447 483.009 691.049L482.989 691.026ZM523.708 632.064C519.099 634.858 519.224 638.699 520.089 642.681C520.167 642.971 521.691 643.299 522.308 643.083C527.504 641.272 523.491 636.935 524.644 633.978C524.747 633.77 524.336 633.31 523.728 632.088L523.708 632.064ZM571.383 717.765C571.78 718.638 572.414 719.382 573.211 719.912C574.008 720.443 574.937 720.738 575.892 720.764C578.278 720.933 579.433 718.863 579.14 716.805C578.847 714.748 577.475 712.871 575.12 713.3C573.025 713.681 571.979 715.621 571.383 717.765ZM610.011 679.035C612.144 678.124 613.691 676.476 613.605 674.464C613.477 671.092 610.444 671.349 608.187 671.398C606.585 671.423 604.688 672.704 605.407 674.423C606.172 676.419 607.138 678.953 609.991 679.04L610.011 679.035ZM595.372 674.01C597.827 674.247 600.133 678.377 602.514 674.831C603.105 673.951 602.357 670.919 601.574 670.623C598.838 669.632 597.797 673.252 595.351 674.015L595.372 674.01ZM610.28 702.847C611.938 703.06 611.994 701.818 612.118 700.702C612.243 699.587 612.418 698.068 611.123 697.845C610.505 697.736 609.293 699.057 608.947 700.015C608.77 700.564 608.803 701.159 609.039 701.685C609.276 702.212 609.699 702.631 610.227 702.862L610.28 702.847ZM579.858 738.218C581.499 737.778 583.063 737.02 582.922 735.073C582.823 733.714 581.404 733.243 580.27 733.619C578.871 734.08 576.884 734.382 577.173 736.563C577.3 737.893 578.486 738.354 579.804 738.232L579.858 738.218ZM544.623 758.122C547.631 758.145 548.233 757.284 548.036 755.851C547.873 754.624 547.332 753.225 546.049 753.259C545.665 753.24 545.281 753.308 544.927 753.458C544.573 753.608 544.257 753.835 544.001 754.123C543.746 754.411 543.558 754.754 543.452 755.124C543.346 755.495 543.323 755.886 543.386 756.267C543.573 757 543.987 757.655 544.569 758.136L544.623 758.122Z" fill="#9CB6F2"/>
<path fill-rule="evenodd" clip-rule="evenodd" d="M257.487 432.283C250.536 439.445 243.711 446.73 236.589 453.736C229.097 461.078 222.541 469.955 210.812 471.083C208.371 471.328 206.754 472.557 205.068 474.493C192.334 489.155 175.069 486.561 158.927 484.778C152.504 484.075 147.926 475.271 139.698 475.819C128.738 460.3 111.278 465.581 96.557 463.179C85.4097 461.355 73.8919 461.365 65.1304 453.488C51.2352 441.007 35.0962 429.399 35.7832 407.705C36.3816 388.709 28.4442 371.175 27.5613 352.253C26.9365 338.797 27.6178 327.615 37.09 317.398C49.6938 303.804 60.3558 288.779 74.0687 275.812C91.7417 259.103 112.174 249.742 134.375 244.811C166.376 237.67 199.281 236.554 230.035 250.491C247.521 258.411 263.627 269.36 274.669 286.205C280.944 295.834 287.835 305.048 295.298 313.79C303.833 323.692 304.836 337.19 312.583 347.368C312.959 347.836 313.222 348.383 313.353 348.969C313.484 349.554 313.48 350.162 313.339 350.746C313.199 351.329 312.927 351.873 312.544 352.336C312.161 352.798 311.677 353.167 311.129 353.415C305.292 355.968 307.851 359.943 308.875 363.763C309.832 367.335 310.434 372.265 307.605 373.768C294.601 380.695 298.16 397.81 286.073 405.989C275.575 413.104 267.723 424.113 258.712 433.396L257.487 432.283ZM90.4456 303.238C85.7813 301.914 84.2751 305.486 82.5807 308.464C81.3964 310.531 80.6407 313.286 82.6863 314.889C84.4943 316.276 87.6095 316.617 89.329 314.859C91.636 312.505 94.8474 310.096 93.2667 305.859C102.72 297.26 115.871 293.292 125.018 281.835C113.002 282.424 105.452 294.778 97.639 292.986C81.6965 289.349 91.932 299.484 90.4456 303.238ZM87.2896 392.219C68.4325 397.379 68.4325 397.379 71.7355 408.848C76.8256 403.319 84.2634 400.573 87.2896 392.219ZM122.373 267.3C128.392 269.66 133.841 265.468 139.489 266.471C143.559 267.187 142.364 264.604 142.123 262.496C141.906 260.668 141.105 258.696 139.193 259.416C133.499 261.566 126.022 260.092 122.373 267.3V267.3ZM140.305 430.398C141.287 428.701 142.596 426.35 140.784 425.86C137.688 425.027 134.181 425.342 130.886 425.644C130.444 425.684 129.459 429.218 130.083 429.882C133.25 433.286 136.908 432.707 140.305 430.398ZM157.375 355.041C159.592 355.838 161.85 356.33 164.015 354.975C165.566 354.008 166.509 352.328 164.66 351.217C162.601 349.991 160.085 350.601 158.203 352.102C157.553 352.649 157.616 354.066 157.375 355.041V355.041ZM139.221 279.248C140.404 282.029 142.143 280.236 143.099 279.299C144.238 278.191 145.6 276.356 145.433 275.01C145.226 273.273 142.952 272.936 141.359 273.449C138.438 274.396 139.05 276.95 139.214 279.25L139.221 279.248Z" fill="#9CB6F2"/>
</g>
</svg>
