<svg width="648" height="709" viewBox="0 0 648 709" fill="none" xmlns="http://www.w3.org/2000/svg">
<g opacity="0.6">
<path fill-rule="evenodd" clip-rule="evenodd" d="M547.713 420.208C545.656 410.055 548.16 400.607 546.528 391.244C546.252 389.683 545.479 385.846 548.344 384.056C551.488 382.089 551.359 378.728 550.902 375.895C550.231 371.532 552.014 370.043 555.708 368.114C559.401 366.185 550.954 362.942 555.234 359.707C555.964 359.155 556.836 357.494 556.879 357.524C564.775 362.646 564.833 352.307 569.571 350.978C571.777 350.357 574.867 347.68 574.999 345.759C575.611 336.8 584.157 334.171 588.142 327.995C590.958 323.631 596.175 322.275 600.634 320.391C604.33 318.805 606.53 317.253 607.629 312.968C609.249 306.665 613.046 301.734 619.838 299.35C625.046 297.52 630.771 295.891 632.308 288.92C632.885 286.315 636.283 285.809 638.863 284.856C649.54 280.883 660.34 280.291 671.033 284.098C682.777 288.289 694.879 288.858 707.109 289.993C714.772 290.669 722.053 293.662 727.988 298.576C733.313 302.958 738.434 309.032 746.414 309.379C755.349 319.134 768.155 324.366 775.264 336.644C780.979 346.507 785.249 356.798 789.734 367.121C792.015 372.384 792.884 378.151 792.254 383.851C791.333 392.518 792.609 401.001 792.712 409.596C792.801 418.492 792.557 427.43 788.428 435.856C784.752 443.341 782.347 451.449 778.721 458.967C773.938 468.913 768.295 478.506 760.579 486.425C752.09 495.093 742.855 503.032 733.981 511.321C732.775 512.441 730.831 513.776 730.818 515.011C730.855 521.786 726.615 521.679 721.967 520.885C717.715 520.157 713.379 518.358 710.034 522.828C709.216 523.915 708.202 523.318 707.31 523.04C696.527 519.983 685.662 521.306 674.824 522.421C666.335 523.298 658.253 520.599 650.292 518.885C639.035 516.424 627.553 514.583 616.728 509.705C612.815 507.941 612.603 502.723 608.112 502.916C603.212 503.129 600.315 500.021 597.011 497.119C585.91 487.38 576.6 476.274 568.336 463.979C562.046 454.622 557.205 444.567 551.64 434.866C549.114 430.391 547.762 425.347 547.713 420.208Z" fill="#E9A89A"/>
<path fill-rule="evenodd" clip-rule="evenodd" d="M83.8651 475.236C81.5189 474.53 79.1909 474.332 77.1017 475.798C73.7851 478.131 70.8762 477.75 66.9684 476.2C62.6563 474.486 57.7293 475.837 54.8903 480.348C53.3336 482.831 51.3 482.718 50.0693 481.036C46.055 475.516 40.35 473.191 34.4622 470.625C27.9248 467.774 26.2606 462.82 27.8729 455.605C29.7307 447.255 33.4745 440.254 41.2925 436.57C44.7438 434.939 46.4226 432.78 47.0324 429.101C48.1915 422.4 52.4304 418.371 58.8321 418.135C63.1864 417.977 66.8599 414.661 71.4923 416.313C77.6244 418.512 83.0963 421.334 86.1353 427.647C90.7721 437.277 93.827 446.914 88.3373 457.192C87.9448 458.116 87.7736 459.125 87.8376 460.134C87.8329 463.271 88.5684 465.707 83.5401 466.547C80.209 467.083 85.8575 471.38 83.8651 475.236ZM61.1751 451.006C57.835 452.016 56.3953 453.634 56.8241 459.028C58.5986 455.351 61.0348 454.475 61.1751 451.006Z" fill="#E9A89A"/>
<path fill-rule="evenodd" clip-rule="evenodd" d="M367.341 460.612C364.064 461.491 361.189 461.591 358.413 462.083C352.104 463.211 345.781 463.152 339.453 463.058C332.947 463.042 326.516 461.608 320.601 458.853C319.865 458.5 319.424 457.804 318.591 457.554C317.759 457.305 317.491 455.528 316.024 456.124C315.768 455.301 315.515 454.465 314.512 455.506C314.442 455.578 314.037 455.442 314.041 455.434C314.264 453.52 312.412 453.914 311.567 453.219C310.539 452.474 309.677 451.521 309.037 450.421C308.131 448.569 306.923 446.96 305.865 445.227C304.513 442.95 302.754 440.968 301.489 438.62C300.949 437.622 300.035 436.868 299.75 435.652C299.466 434.435 298.681 434.053 297.51 434.732C297.247 434.915 296.939 435.023 296.62 435.045C296.3 435.068 295.98 435.004 295.693 434.86C292.566 432.891 288.711 431.86 286.895 428.182C286.337 427.051 285.021 426.392 285.042 424.896C285.058 423.695 283.62 423.201 283.544 421.899C283.468 420.597 282.501 419.444 281.963 418.212C280.126 413.815 279.729 409.122 279.004 404.512C278.611 401.96 278.831 399.304 278.916 396.697C279.053 392.471 279.189 388.282 279.959 384.114C280.239 382.43 280.698 380.782 281.33 379.199C282.797 375.814 283.193 372.064 284.893 368.754C285.128 368.07 285.229 367.346 285.188 366.622C285.512 361.563 288.235 357.483 290.429 353.161C291.653 350.751 293.634 348.999 295.153 346.851C296.673 344.702 298.989 343.094 300.737 341.112C302.955 338.627 305.326 336.292 307.452 333.706C310.389 330.277 313.596 327.092 317.042 324.183C322.251 319.616 328.082 316.288 334.738 314.75C341.394 313.212 348.052 312.283 354.923 313.123C357.022 313.38 359.227 313.681 361.354 313.357C361.525 313.311 361.785 313.241 361.875 313.289C363.703 314.684 365.778 313.859 367.741 314.009C368.097 314.012 368.448 314.092 368.771 314.242C370.402 315.169 371.82 315.166 373.579 314.204C375.086 313.381 376.874 314.518 378.501 314.854C381.8 315.559 385.024 316.585 388.128 317.917C389.387 318.481 390.546 319.247 391.561 320.186C393.117 321.565 395.089 322.502 396.766 323.776C399.402 325.775 402.344 327.386 404.482 330.026C404.986 330.504 405.41 331.062 405.737 331.677C405.849 332.007 406.036 332.307 406.283 332.553C406.53 332.798 406.83 332.982 407.16 333.09C408.32 333.522 409.373 334.418 408.798 336.015C408.716 336.225 408.715 336.459 408.795 336.671C408.875 336.883 409.03 337.058 409.23 337.161C410.229 337.857 410.633 339.053 411.415 339.867C414.422 343.005 416.062 346.999 418.029 350.709C419.714 353.877 421.647 357.058 422.004 360.851C422.13 362.23 422.852 363.616 423.557 364.875C425.399 368.139 425.667 371.885 426.544 375.378C427.587 379.539 428.801 383.803 428.778 388.148C428.772 390.627 428.821 393.133 428.592 395.623C428.208 399.795 427.19 403.856 426.562 407.979C426.343 409.378 425.67 410.696 425.409 412.094C424.312 417.586 422.313 422.851 419.496 427.675C415.782 434.211 411.759 440.614 406.407 445.998C401.975 450.575 396.508 454.004 390.47 455.995C389.296 456.375 388.183 456.96 386.999 457.326C382.129 458.762 377.092 459.557 372.014 459.689C370.216 459.758 368.578 460.443 367.341 460.612ZM300.616 351.49C300.37 351.66 300.189 351.91 300.105 352.198C300.022 352.487 300.039 352.796 300.156 353.074C300.608 352.546 300.987 352.079 300.517 351.433C300.963 351.104 301.37 350.738 301.071 350.088C301.013 350.035 300.942 349.998 300.866 349.981C300.789 349.964 300.71 349.966 300.635 349.989C300.141 350.361 300.695 350.787 300.613 351.192C300.603 351.291 300.603 351.391 300.616 351.49ZM284.738 383.037C283.498 384.297 283.304 385.414 284.099 387.295C284.8 385.857 285.4 384.553 284.682 383.004C285.188 382.677 285.2 382.081 285.291 381.578C285.741 378.95 286.533 376.394 287.646 373.976C287.866 373.516 288.291 373.062 287.957 372.481C287.859 372.332 287.714 372.222 287.546 372.166C287.318 372.089 287.034 371.98 286.989 372.411C286.778 374.46 285.313 376.013 284.839 377.942C284.41 379.618 282.863 381.308 284.727 383.04L284.738 383.037ZM282.727 392.097C282.482 392.599 283.038 393.258 282.183 393.721C281.504 394.088 281.423 395.779 281.923 396.447C282.422 397.115 282.693 397.438 281.812 397.895C281.123 398.247 281.218 398.934 281.282 399.569C281.441 400.258 281.507 400.965 281.477 401.671C281.116 403.712 282.243 404.775 283.996 406.046C283.852 404.756 283.651 403.937 283.5 403.086C283.187 401.32 281.582 399.782 282.992 397.603C283.838 396.329 283.551 394.33 283.683 392.631C283.719 392.166 283.34 391.813 282.767 392.002C283.215 391.636 283.545 391.143 283.713 390.587C283.88 390.03 283.88 389.435 283.71 388.877C283.62 388.542 283.473 388.127 283.037 388.202C282.713 388.281 282.411 388.429 282.15 388.637C282.61 389.932 281.232 391.121 281.959 392.351C282.149 392.796 282.477 392.314 282.716 392.1L282.727 392.097ZM283.541 406.916C281.985 408.195 281.986 408.685 283.254 410.763C282.848 411.129 282.104 410.036 281.984 410.918C281.865 411.799 282.821 411.824 283.37 411.791C283.919 411.758 284.426 411.305 284.055 410.65C283.43 409.579 283.476 408.424 283.53 406.919L283.541 406.916ZM291.716 362.57C292.254 362.154 292.698 361.627 293.017 361.024C293.078 360.96 293.124 360.884 293.152 360.801C293.181 360.717 293.191 360.628 293.182 360.54C293.173 360.452 293.145 360.367 293.1 360.291C293.056 360.214 292.995 360.149 292.923 360.098C292.552 359.82 292.105 359.635 291.759 360.051C291.087 360.841 290.183 361.676 291.705 362.573L291.716 362.57ZM406.248 373.648C405.378 375.605 406.708 376.295 407.558 377.163C407.61 377.206 407.671 377.238 407.736 377.256C407.801 377.275 407.87 377.278 407.936 377.268C408.003 377.257 408.067 377.233 408.123 377.195C408.18 377.158 408.228 377.109 408.264 377.051C408.314 376.938 408.34 376.814 408.339 376.69C408.338 376.565 408.311 376.442 408.26 376.328C407.701 375.437 406.683 374.962 406.22 373.655L406.248 373.648ZM287.743 422.156C287.895 421.948 287.975 421.891 287.99 421.815C288.04 421.566 288.028 421.308 287.955 421.065C287.883 420.821 287.752 420.599 287.574 420.418C287.516 420.356 287.215 420.407 287.133 420.5C286.778 420.901 287.048 421.289 287.244 421.667C287.382 421.844 287.538 422.005 287.711 422.147L287.743 422.156ZM404.06 371.242C403.495 371.125 402.958 370.341 402.435 371.223C402.295 371.452 402.268 371.818 402.521 371.942C403.242 372.305 403.618 371.738 404.042 371.241L404.06 371.242ZM284.484 419.78C284.481 420.015 284.494 420.249 284.523 420.482C284.576 420.699 284.699 420.893 284.873 421.033C285.047 421.173 285.262 421.25 285.484 421.254C285.614 421.273 285.886 421.116 285.895 421.018C285.953 420.481 285.535 420.27 285.146 420.058C284.976 419.977 284.806 419.921 284.466 419.779L284.484 419.78ZM284.782 394.006C284.691 394.307 284.678 394.628 284.743 394.937C284.808 395.246 284.949 395.533 285.154 395.773C285.331 395.103 285.002 394.629 284.764 394.005L284.782 394.006ZM306.949 345.581C307.019 345.573 307.087 345.55 307.148 345.514C307.209 345.478 307.261 345.429 307.302 345.37C307.342 345.312 307.37 345.245 307.383 345.175C307.396 345.105 307.394 345.033 307.377 344.964C307.373 344.9 307.355 344.838 307.325 344.782C307.295 344.726 307.253 344.677 307.203 344.638C307.153 344.599 307.095 344.572 307.033 344.558C306.972 344.543 306.908 344.542 306.846 344.555C306.525 344.641 306.251 344.924 306.409 345.271C306.487 345.453 306.812 345.516 306.931 345.58L306.949 345.581ZM288.4 369.95C288.311 369.615 288.167 369.301 287.742 369.331C287.317 369.361 287.269 369.781 287.353 370.094C287.404 370.263 287.518 370.406 287.671 370.495C287.823 370.583 288.003 370.609 288.174 370.568C288.425 370.506 288.485 370.245 288.382 369.949L288.4 369.95ZM292.436 429.306C291.739 430.091 291.739 430.091 292.216 430.986L292.436 429.306ZM288.242 426.145C288.611 426.124 288.635 425.86 288.581 425.594C288.539 425.437 288.474 425.192 288.354 425.146C287.973 425.008 288.07 425.39 287.994 425.571C287.918 425.753 287.891 426.03 288.222 426.115L288.242 426.145Z" fill="#E9A89A"/>
<path fill-rule="evenodd" clip-rule="evenodd" d="M195.134 455.139C210.118 455.849 225.903 454.693 241.714 454.759C244.451 454.77 247.277 454.984 249.972 456.228C254.715 458.485 259.745 460.067 264.917 460.928C268.106 461.432 272.51 462.278 272.712 467.317C272.798 469.404 274.669 469.409 275.774 469.291C286.931 468.089 293.285 475.592 299.201 482.962C306.002 491.429 312.258 500.245 316.166 510.768C321.858 526.092 324.723 541.619 323.602 557.887C323.51 559.288 322.938 560.752 323.22 562.047C326.202 576.047 321.813 588.639 316.447 601.165C315.38 603.655 315.099 606.691 315.194 609.454C315.665 623.067 308.63 633.162 300.059 642.406C287.944 655.471 273.289 665.439 257.455 673.036C247.594 677.777 237.14 681.159 226.374 683.092C220.975 684.056 215.536 684.805 210.154 685.853C209.323 686.017 208.587 686.274 207.863 685.871C201.811 682.363 195.735 685.016 189.725 685.84C186.072 686.342 184.206 682.91 181.626 682.469C178.117 681.872 176.024 681.79 177.18 677.536C177.341 676.945 176.628 676.182 175.532 676.244C166.892 676.771 164.504 676.053 159.373 674.02C153.469 671.705 147.731 669.394 142.37 665.772C135.581 661.216 134.545 660.064 131.838 649.784C131.124 647.122 127.529 646.423 126.689 642.626C125.632 637.863 122.191 633.703 121.451 628.402C121.177 626.473 117.781 623.427 116.598 622.988C112.805 621.549 112.093 618.189 111.548 615.755C110.527 611.173 109.006 607.351 105.578 604.098C103.991 602.593 103.649 600.653 106.954 600.399C107.155 600.361 107.34 600.26 107.482 600.112C107.624 599.963 107.717 599.774 107.748 599.57C107.779 599.366 107.746 599.157 107.655 598.972C107.563 598.787 107.417 598.635 107.236 598.536C99.8775 595.146 101.157 587.951 99.9261 581.9C99.7038 580.828 99.8948 579.752 99.1739 578.717C94.4474 571.899 95.7902 564.455 98.2021 557.601C101.502 548.25 104.298 538.945 105.094 528.973C105.849 519.404 111.622 511.774 116.077 503.711C122.452 492.172 131.685 483.145 142.102 475.45C146.786 471.996 152.389 469.673 157.7 467.189C169.422 461.713 181.155 456.275 195.134 455.139ZM113.246 589.872C113.171 585.572 108.268 589.954 107.441 586.738C107.991 588.789 106.871 591.365 109.301 592.972C110.867 591.707 112.152 590.671 113.406 589.674C113.008 591.568 113.079 593.336 114.857 594.957C115.187 592.789 114.814 591.155 113.246 589.872ZM150.817 625.502C155.615 620.707 147.943 616.543 150.092 611.886C147.306 610.786 149.513 607.519 147.633 606.134C147.113 605.761 145.752 605.738 145.408 606.134C144.186 607.6 142.874 610.126 143.823 611.26C147.088 615.009 146.542 619.617 147.616 623.846C148.121 625.73 149.515 625.589 150.963 625.296C151.553 626.926 150.196 629.214 152.481 630.389C152.966 628.376 152.663 626.67 150.817 625.502ZM120.134 588.062C120.37 602.965 120.37 602.965 122.876 606.953C124.141 601.603 122.705 591.764 120.134 588.062ZM106.07 582.857C109.412 581.307 104.557 578.115 107.882 577.206C110.51 576.502 109.67 574.737 109.164 573.425C108.478 571.661 108.746 568.395 105.191 569.64C102.486 570.585 101.762 572.894 103.484 574.863C105.55 577.206 104.584 580.205 106.07 582.857ZM129.035 592.642C131.324 592.35 131.485 590.543 131.985 589.051C132.258 588.239 131.986 587.114 131.123 587.226C129.204 587.484 127.432 588.358 127.715 590.785C127.797 591.466 128.609 592.065 129.035 592.642ZM146.041 502.76C146.166 503.71 146.805 504.063 147.7 503.96C149.059 503.799 149.323 502.775 149.186 501.667C149.111 501.056 149.219 499.824 147.957 500.501C147.082 500.968 145.947 501.35 146.041 502.76ZM151.955 642.869C148.825 646.091 151.578 646.783 153.58 647.849L151.955 642.869ZM177.732 574.368C179.225 573.932 178.666 572.688 178.676 571.732C178.644 571.229 178.455 570.748 178.136 570.357C176.855 570.546 176.476 571.559 176.452 572.685C176.426 572.88 176.438 573.078 176.489 573.268C176.539 573.459 176.626 573.637 176.745 573.794C176.864 573.95 177.012 574.081 177.181 574.18C177.351 574.279 177.538 574.343 177.732 574.368ZM152.567 560.747C153.098 557.673 153.484 555.735 150.956 554.38C150.241 556.615 150.651 558.233 152.567 560.747ZM139.385 584.911C139.44 586.291 139.978 586.796 140.98 586.647C141.981 586.498 142.601 585.873 142.219 584.956C141.933 584.264 141.11 583.8 140.522 583.236C140.092 583.888 139.666 584.526 139.385 584.911ZM131.994 637.493C132.073 638.047 132.338 638.557 132.746 638.939C133.155 639.32 133.68 639.548 134.235 639.585C134.488 639.131 134.634 638.623 134.66 638.101C134.657 636.809 134.072 635.906 132.654 636.136C132.368 636.195 132.207 637.031 132.004 637.532L131.994 637.493ZM129.684 615.621C129.417 614.626 128.631 614.586 127.867 614.606C126.057 614.65 125.664 615.792 125.996 617.318C126.165 618.101 126.565 618.911 127.613 618.624C129.087 618.229 129.645 617.109 129.665 615.638L129.684 615.621ZM180.92 620.254C181.237 619.693 182.041 618.894 181.893 618.343C181.718 617.687 180.736 616.783 180.107 616.778C178.092 616.788 179.408 618.342 179.325 619.18C179.242 620.019 179.662 620.681 180.92 620.254ZM130.292 498.574C130.363 497.512 130.157 496.566 129.322 496.677C128.117 496.839 127.884 498.111 127.695 499.127C127.649 499.315 127.649 499.511 127.692 499.7C127.736 499.889 127.823 500.065 127.947 500.215C128.07 500.364 128.226 500.482 128.403 500.56C128.58 500.638 128.772 500.673 128.964 500.663C130.538 500.617 130.148 499.25 130.292 498.574ZM130.314 603.333C130.049 605.323 127.945 605.928 128.751 607.923C128.863 608.208 129.85 608.492 130.043 608.327C131.547 607.138 131.953 605.671 130.311 603.322L130.314 603.333ZM103.156 562.708C104.006 563.517 104.365 564.171 104.773 564.193C106.407 564.351 106.435 563.152 106.242 562.012C106.07 561.497 105.828 561.009 105.522 560.561C104.715 561.259 103.884 562 103.153 562.697L103.156 562.708Z" fill="#E9A89A"/>
<path fill-rule="evenodd" clip-rule="evenodd" d="M618.201 140.799C617.423 156.344 616.88 169.557 616.059 182.749C615.588 190.579 615.593 198.572 613.76 206.104C610.074 221.142 608.363 237.346 594.84 247.915C592.29 249.914 591.647 252.919 589.457 255.023C575.388 268.761 558.966 278.72 540.748 285.853C539.82 286.22 538.793 286.75 537.863 286.668C523.792 285.383 509.967 289.775 495.898 288.43C494.244 288.281 492.334 287.797 490.924 288.382C480.175 292.892 470.042 292.395 460.349 285.564C459.032 284.637 457.202 284.629 455.46 285.037C452.138 285.749 449.756 284.082 447.482 281.841C441.076 275.516 433.897 270.209 426.276 265.354C421.769 262.484 419.513 257.299 417.122 252.582C414.3 247.015 411.97 241.198 407.501 236.611C406.359 235.448 404.786 233.7 404.956 232.428C406.17 223.006 398.641 215.814 398.756 206.722C398.872 197.63 396.751 188.918 396.942 179.752C397.093 172.808 398.396 165.975 398.297 159.009C398.186 151.726 403.516 146.061 406.612 139.832C412.399 128.207 417.163 116.133 425.579 105.771C436.938 91.776 451.693 82.88 466.85 74.0008C476.523 68.3331 487.557 66.3011 497.195 60.8562C498.026 60.3907 499.324 59.9421 500.076 60.268C511.244 65.4061 523.76 59.1606 534.915 64.4267C536.368 65.11 538.438 65.6577 539.807 65.1427C549.782 61.3972 556.068 67.2037 562.858 73.0112C573.112 81.7783 582.16 91.6505 591.186 101.57C592.91 103.606 594.856 105.444 596.986 107.05C609.584 115.906 612.299 130.403 618.201 140.799ZM412.711 183.344L415.979 189.23C417.403 191.776 423.419 192.635 426.464 190.243C429.056 188.203 428.211 185.691 426.046 183.611C425.243 182.83 423.073 181.729 424.962 180.938C431.9 178.042 426.469 170.175 431.159 166.418C432.079 165.685 431.291 163.721 429.849 163.278C429.06 163.033 427.495 163.352 427.136 163.94C423.869 169.331 415.075 172.547 420.174 181.344C421.128 182.997 419.581 184.466 418.519 186.238C416.694 185.299 415.855 182.187 412.711 183.344ZM436.133 162.898C439.342 159.858 440.778 156.136 442.282 151.431C437.676 154.484 430.706 155.268 436.111 162.904L436.133 162.898ZM444.093 142.044C444.354 140.428 444.697 139.512 444.597 138.632C444.412 136.857 446.802 134.966 444.445 133.369C444.07 133.12 443.099 133.351 442.632 133.689C440.352 135.325 442.094 137.217 442.483 138.98C442.656 139.846 443.294 140.611 444.071 142.05L444.093 142.044ZM432.173 221.384C431.467 216.909 431.467 216.909 428.85 213.148C429.573 217.814 429.573 217.814 432.151 221.39L432.173 221.384ZM442.451 237.593C441.953 234.539 445.99 232.663 442.171 230.261C441.53 229.84 439.899 229.975 439.472 230.486C436.855 233.587 439.751 235.004 442.439 237.614L442.451 237.593ZM426.611 207.27C427.569 207.126 428.645 206.844 428.291 205.635C427.861 204.162 427.344 202.475 425.394 202.263C424.175 202.145 423.705 203.113 423.738 204.123C423.768 205.964 424.62 207.17 426.571 207.299L426.611 207.27ZM420.186 148.101C419.699 149.32 419.309 150.576 419.021 151.856C418.899 152.641 419.655 153.008 420.46 152.798C421.733 152.457 421.916 151.59 421.523 150.498C421.199 149.643 421.374 148.482 420.146 148.129L420.186 148.101ZM418.402 208.107C418.054 209.308 417.62 209.97 417.749 210.498C418.068 211.799 417.563 214.697 419.383 213.871C421.203 213.045 420.187 210.449 418.363 208.135L418.402 208.107Z" fill="#E9A89A"/>
<path fill-rule="evenodd" clip-rule="evenodd" d="M464.235 464.974C476.559 464.088 490.256 463.424 503.916 466.105C505.641 466.448 507.395 466.658 508.399 467.946C513.34 474.264 520.564 475.991 527.669 478C537.85 480.88 544.518 487.707 549.194 496.959C553.096 504.7 557.45 512.13 557.136 521.371C557.006 525.319 556.871 529.244 556.677 533.174C556.101 544.74 552.598 555.95 553.964 567.825C554.793 575.066 549.748 581.715 547.899 588.82C544.384 602.289 533.615 610.197 523.846 618.696C517.906 623.867 511.333 628.385 505.043 633.005C490.807 643.465 475.247 651.13 456.638 642.145C453.739 640.745 449.868 639.503 445.308 641.005C440.183 642.707 436.386 637.377 433.532 633.304C431.692 630.549 429.21 628.285 426.303 626.71C411.475 618.699 403.118 606.186 400.312 589.532C399.124 582.351 394.304 576.395 393.334 568.829C390.755 548.814 394.475 529.885 402.578 511.936C407.32 501.425 412.678 491.334 421.587 482.862C432.418 472.593 444.396 467.021 458.782 465.517C460.173 465.412 461.514 465.28 464.235 464.974ZM421.774 502.062C419.071 504.958 416.338 507.831 415.334 511.859C415.087 512.867 414.923 514.027 416.069 514.447C416.898 514.75 418.676 514.715 418.768 514.44C420.035 510.307 425.322 506.951 421.421 501.739C423.59 502.303 425.568 502.262 425.817 499.446C425.878 498.678 424.999 497.147 424.478 497.108C421.7 496.91 421.361 498.904 421.498 501.098C421.551 501.437 421.646 501.768 421.78 502.084L421.774 502.062ZM450.866 608.419C456.091 603.989 457.5 609.182 459.325 611.36C461.523 613.981 457.676 617.726 460.015 621.227C460.611 614.786 464.301 611.631 470.201 610.898C469.721 609.237 469.384 608.313 469.194 607.338C468.766 605.162 467.27 603.856 465.572 602.683C464.594 602.002 462.806 601.354 464.799 600.063C466.093 599.221 468.467 599.372 467.634 596.952C466.891 594.819 464.69 596.334 463.26 595.738C461.83 595.143 461.135 594.101 461.398 592.622C461.763 590.526 463.728 587.536 459.469 587.77C456.33 587.955 456.534 590.8 456.785 593.262C456.894 594.336 458.425 595.751 457.53 596.045C454.18 596.436 456.166 592.992 452.839 593.383C454.54 598.266 453.624 602.782 450.883 608.438L450.866 608.419ZM399.281 571.637C400.369 573.35 400.806 576.311 403.379 576.385C405.356 576.452 406.885 573.961 406.536 572.193C406.145 570.156 404.803 567.807 401.931 568.1C400.102 568.298 399.155 569.506 399.298 571.657L399.281 571.637ZM432.943 522.895C429.133 525.204 429.236 528.38 429.952 531.672C430.016 531.911 431.276 532.182 431.786 532.004C436.081 530.507 432.763 526.922 433.717 524.477C433.802 524.305 433.462 523.925 432.96 522.914L432.943 522.895ZM472.355 593.743C472.684 594.465 473.207 595.08 473.866 595.518C474.525 595.956 475.293 596.2 476.083 596.222C478.055 596.361 479.01 594.65 478.768 592.949C478.526 591.248 477.392 589.697 475.445 590.052C473.712 590.367 472.848 591.97 472.355 593.743ZM504.288 561.725C506.052 560.972 507.331 559.609 507.26 557.946C507.154 555.159 504.646 555.371 502.781 555.412C501.457 555.432 499.888 556.491 500.483 557.913C501.115 559.563 501.913 561.657 504.272 561.729L504.288 561.725ZM492.186 557.571C494.216 557.766 496.122 561.181 498.091 558.249C498.579 557.522 497.961 555.015 497.314 554.771C495.052 553.951 494.191 556.944 492.17 557.575L492.186 557.571ZM504.511 581.41C505.882 581.586 505.927 580.559 506.031 579.637C506.134 578.715 506.278 577.459 505.208 577.275C504.697 577.185 503.695 578.276 503.409 579.069C503.262 579.522 503.29 580.015 503.485 580.45C503.681 580.885 504.031 581.232 504.467 581.422L504.511 581.41ZM479.361 610.65C480.718 610.287 482.011 609.66 481.894 608.051C481.813 606.927 480.64 606.538 479.702 606.849C478.545 607.23 476.903 607.479 477.142 609.282C477.247 610.382 478.228 610.763 479.317 610.662L479.361 610.65ZM450.233 627.105C452.72 627.125 453.218 626.412 453.055 625.227C452.92 624.214 452.473 623.057 451.412 623.085C451.094 623.069 450.777 623.126 450.484 623.249C450.192 623.373 449.93 623.561 449.719 623.799C449.508 624.038 449.353 624.32 449.265 624.627C449.177 624.934 449.159 625.256 449.211 625.571C449.365 626.177 449.707 626.719 450.189 627.117L450.233 627.105Z" fill="#E9A89A"/>
<path fill-rule="evenodd" clip-rule="evenodd" d="M212.861 357.738C207.115 363.659 201.473 369.681 195.585 375.473C189.392 381.543 183.972 388.881 174.276 389.813C172.258 390.016 170.921 391.032 169.527 392.633C159 404.754 144.728 402.609 131.383 401.135C126.073 400.554 122.288 393.275 115.487 393.729C106.426 380.899 91.9921 385.265 79.8226 383.28C70.6072 381.772 61.0856 381.78 53.8426 375.268C42.3556 364.95 29.0137 355.354 29.5817 337.42C30.0763 321.716 23.5146 307.221 22.7847 291.578C22.2682 280.454 22.8314 271.211 30.662 262.764C41.0814 251.526 49.8956 239.105 61.2318 228.386C75.8418 214.572 92.7328 206.833 111.086 202.757C137.541 196.854 164.743 195.931 190.168 207.453C204.622 214 217.937 223.052 227.066 236.978C232.253 244.937 237.949 252.554 244.119 259.781C251.175 267.967 252.004 279.126 258.409 287.54C258.719 287.927 258.937 288.379 259.045 288.863C259.154 289.347 259.15 289.85 259.034 290.332C258.918 290.814 258.693 291.264 258.376 291.646C258.06 292.029 257.66 292.334 257.207 292.538C252.381 294.649 254.497 297.936 255.343 301.093C256.134 304.047 256.632 308.122 254.294 309.365C243.543 315.091 246.485 329.239 236.493 336.001C227.815 341.883 221.323 350.984 213.874 358.658L212.861 357.738ZM74.7703 251.058C70.9145 249.963 69.6693 252.917 68.2686 255.379C67.2895 257.087 66.6648 259.365 68.3558 260.69C69.8505 261.837 72.4258 262.119 73.8473 260.665C75.7544 258.719 78.4093 256.728 77.1026 253.225C84.9176 246.116 95.7889 242.836 103.351 233.365C93.4171 233.851 87.1763 244.065 80.717 242.583C67.5376 239.576 75.9991 247.955 74.7703 251.058ZM72.1613 324.617C56.5724 328.883 56.5724 328.883 59.3029 338.365C63.5109 333.793 69.6596 331.524 72.1613 324.617ZM101.164 221.349C106.14 223.299 110.645 219.834 115.314 220.663C118.679 221.255 117.691 219.12 117.491 217.377C117.312 215.866 116.65 214.236 115.069 214.831C110.362 216.608 104.181 215.389 101.164 221.349ZM115.988 356.18C116.8 354.777 117.882 352.833 116.385 352.429C113.825 351.739 110.926 352 108.202 352.25C107.837 352.283 107.022 355.204 107.538 355.753C110.156 358.567 113.181 358.088 115.988 356.18ZM130.1 293.883C131.933 294.542 133.8 294.949 135.59 293.829C136.871 293.029 137.651 291.64 136.123 290.722C134.42 289.708 132.34 290.212 130.785 291.453C130.247 291.905 130.3 293.077 130.1 293.883ZM115.092 231.226C116.07 233.525 117.508 232.043 118.298 231.268C119.24 230.352 120.366 228.835 120.228 227.722C120.057 226.286 118.177 226.008 116.86 226.432C114.445 227.215 114.951 229.326 115.087 231.228L115.092 231.226Z" fill="#E9A89A"/>
</g>
</svg>
