<svg width="836" height="709" viewBox="0 0 836 709" fill="none" xmlns="http://www.w3.org/2000/svg">
<g opacity="0.6">
<path fill-rule="evenodd" clip-rule="evenodd" d="M377.713 420.208C375.656 410.055 378.16 400.607 376.528 391.244C376.252 389.683 375.479 385.846 378.344 384.056C381.488 382.089 381.359 378.728 380.902 375.895C380.231 371.532 382.014 370.043 385.708 368.114C389.401 366.185 380.954 362.942 385.234 359.707C385.964 359.155 386.836 357.494 386.879 357.524C394.775 362.646 394.833 352.307 399.571 350.978C401.777 350.357 404.867 347.68 404.999 345.759C405.611 336.8 414.157 334.171 418.142 327.995C420.958 323.631 426.175 322.275 430.634 320.391C434.33 318.805 436.53 317.253 437.629 312.968C439.249 306.665 443.046 301.734 449.838 299.35C455.046 297.52 460.771 295.891 462.308 288.92C462.885 286.315 466.283 285.809 468.863 284.856C479.54 280.883 490.34 280.291 501.033 284.098C512.777 288.289 524.879 288.858 537.109 289.993C544.772 290.669 552.053 293.662 557.988 298.576C563.313 302.958 568.434 309.032 576.414 309.379C585.349 319.134 598.155 324.366 605.264 336.644C610.979 346.507 615.249 356.798 619.734 367.121C622.015 372.384 622.884 378.151 622.254 383.851C621.333 392.518 622.609 401.001 622.712 409.596C622.801 418.492 622.557 427.43 618.428 435.856C614.752 443.341 612.347 451.449 608.721 458.967C603.938 468.913 598.295 478.506 590.579 486.425C582.09 495.093 572.855 503.032 563.981 511.321C562.775 512.441 560.831 513.776 560.818 515.011C560.855 521.786 556.615 521.679 551.967 520.885C547.715 520.157 543.379 518.358 540.034 522.828C539.216 523.915 538.202 523.318 537.31 523.04C526.527 519.983 515.662 521.306 504.824 522.421C496.335 523.298 488.253 520.599 480.292 518.885C469.035 516.424 457.553 514.583 446.728 509.705C442.815 507.941 442.603 502.723 438.112 502.916C433.212 503.129 430.315 500.021 427.011 497.119C415.91 487.38 406.6 476.274 398.336 463.979C392.046 454.622 387.205 444.567 381.64 434.866C379.114 430.391 377.762 425.347 377.713 420.208Z" fill="#62CBBF"/>
<path fill-rule="evenodd" clip-rule="evenodd" d="M700.705 95.4345C705.111 105.245 703.383 115.489 702.631 125.644C702.512 127.213 701.848 129.687 699.478 130.441C696.159 131.497 695.321 133.258 697.466 136.399C699.403 139.204 696.82 141.617 695.714 143.747C693.744 147.592 691.277 151.16 688.378 154.36C678.273 165.299 669.964 178.517 655.417 184.154C643.386 188.814 630.734 191.551 617.884 193.617C602.082 196.142 587.491 191.886 572.654 188.193C564.627 186.189 560.092 179.636 557.706 172.987C555.299 166.213 550.994 161.206 546.3 156.956C534.375 146.175 529.727 132.233 525.818 117.446C523.659 109.389 524.421 101.795 526.034 93.9268C526.956 89.4483 528.435 85.1942 527.433 80.2162C526.652 76.4192 529.133 72.4545 531.68 69.2856C535.68 64.3143 539.599 59.3235 541.857 53.288C542.106 52.5111 542.525 51.7997 543.083 51.2055C543.642 50.6114 544.325 50.1494 545.084 49.8533C552.64 46.4281 558.154 39.9178 565.86 36.4109C570.059 34.5023 574.665 33.8912 578.785 31.3332C581.522 29.6266 580.412 25.8586 585.06 24.9632C597.425 22.5699 608.849 18.1913 622.357 21.4981C632.535 23.9935 642.368 27.2523 652.395 30.0671C659.059 31.9376 662.677 37.2355 667.229 41.3097C678.858 51.7137 691.337 61.5573 696.647 77.2808C697.894 80.9644 700.683 84.0512 697.807 88.4242C695.702 91.6235 702.362 92.1536 700.99 95.726C698.333 96.622 697.588 92.8453 694.893 93.3359C695.044 96.0017 693.795 99.5651 697.846 100.046C699.63 100.245 700.122 97.2823 700.705 95.4345Z" fill="#62CBBF"/>
<path fill-rule="evenodd" clip-rule="evenodd" d="M739.981 369.937C725.979 367.784 710.375 367.24 699.072 353.733C695.126 349.009 689.206 345.747 683.826 342.416C677.413 338.442 674.456 333.329 675.939 325.78C677.132 319.696 675.625 313.828 673.14 308.435C671.417 304.686 670.579 300.806 669.824 296.922C668.701 291.093 669.056 285.807 672.603 280.014C679.45 268.837 686.613 257.953 695.988 248.868C703.283 241.781 710.353 233.721 721.862 233.224C722.539 233.154 723.194 232.943 723.785 232.607C724.377 232.27 724.891 231.815 725.296 231.27C732.618 219.269 743.376 223.331 753.2 225.795C757.916 226.983 762.689 228.828 767.373 230.561C777.66 234.372 784.391 242.017 790.052 250.876C790.398 251.415 789.868 253.051 791.355 251.879C791.751 251.561 791.502 250.523 791.855 250.021C792.128 249.641 793.137 249.258 793.355 249.43C794.88 250.687 797.132 251.837 797.611 253.469C799.507 259.947 806.817 261.809 809.134 268.24C811.924 275.99 811.618 284.783 817.016 291.622C818.386 293.363 816.9 294.606 816.15 296.065C813.554 301.06 810.941 306.1 814.363 311.798C815.418 313.517 814.34 315.04 813.436 316.41C809.28 322.727 806.823 330.123 801.092 335.439C799.524 336.901 798.296 338.685 797.492 340.666C796.689 342.647 796.329 344.777 796.439 346.908C796.686 351.359 794.424 353.052 791.302 354.355C775.252 361.059 758.514 365.597 739.981 369.937Z" fill="#62CBBF"/>
<path fill-rule="evenodd" clip-rule="evenodd" d="M817.03 483.217C817.473 484.87 817.669 487.143 816.395 487.945C813.028 490.082 809.864 491.508 814.09 495.92C815.186 497.067 813.639 499.058 811.52 500.387C808.11 502.523 804.663 504.362 808.229 510.533C810.452 514.366 804.692 520.338 800.019 522.599C794.062 525.495 787.965 528.291 781.058 529.292C772.467 530.543 763.805 531.039 755.226 533.521C748.273 535.532 740.277 535.301 733.042 531.063C725.961 526.95 717.417 525.543 711.156 519.716C707.829 516.628 705.834 513.242 705.289 508.576C703.976 497.361 700.773 486.299 703.377 474.843C704.154 471.405 701.816 468.571 701.85 465.103C702.017 448.88 710.31 437.565 723.498 429.237C735.794 421.385 750.365 417.807 764.894 419.071C771.11 419.555 778.585 417.416 782.78 425.285C783.814 427.222 788.169 427.744 791.114 428.271C799.018 429.696 802.89 431.918 805.874 438.014C806.641 439.58 807.078 441.235 808.993 441.442C812.835 441.835 814.46 443.726 815.728 447.496C818.116 454.603 823.452 461.061 818.633 469.095L818.914 468.984C818.302 468.239 817.436 466.747 817.118 466.856C814.049 467.92 811.046 470.792 811.422 473.177C812.007 476.899 810.294 483.003 817.325 483.404L817.03 483.217ZM783.811 474.854C781.386 476.023 779.922 477.744 780.604 480.737C780.756 480.989 780.972 481.198 781.229 481.343C781.487 481.488 781.779 481.564 782.076 481.565C785.088 480.758 784.542 478.071 784.889 475.887C784.92 475.714 784.477 475.466 783.811 474.854ZM746.025 462.542C747.071 464.216 748.165 462.027 749.356 462.411C750.547 462.794 751.367 461.795 750.767 460.805C750.087 459.694 748.784 459.139 747.424 460.177C746.677 460.737 745.643 461.138 746.027 462.529L746.025 462.542Z" fill="#62CBBF"/>
<path fill-rule="evenodd" clip-rule="evenodd" d="M818.771 468.982L818.477 469.096C825.766 472.981 825.037 478.095 816.576 482.986L816.884 483.181C815.051 478.25 812.037 473.226 818.771 468.982Z" fill="#62CBBF"/>
<path fill-rule="evenodd" clip-rule="evenodd" d="M197.341 460.612C194.064 461.491 191.189 461.591 188.413 462.083C182.104 463.211 175.781 463.152 169.453 463.058C162.947 463.042 156.516 461.608 150.601 458.853C149.865 458.5 149.424 457.804 148.591 457.554C147.759 457.305 147.491 455.528 146.024 456.124C145.768 455.301 145.515 454.465 144.512 455.506C144.442 455.578 144.037 455.442 144.041 455.434C144.264 453.52 142.412 453.914 141.567 453.219C140.539 452.474 139.677 451.521 139.037 450.421C138.131 448.569 136.923 446.96 135.865 445.227C134.513 442.95 132.754 440.968 131.489 438.62C130.949 437.622 130.035 436.868 129.75 435.652C129.466 434.435 128.681 434.053 127.51 434.732C127.247 434.915 126.939 435.023 126.62 435.045C126.3 435.068 125.98 435.004 125.693 434.86C122.566 432.891 118.711 431.86 116.895 428.182C116.337 427.051 115.021 426.392 115.042 424.896C115.058 423.695 113.62 423.201 113.544 421.899C113.468 420.597 112.501 419.444 111.963 418.212C110.126 413.815 109.729 409.122 109.004 404.512C108.611 401.96 108.831 399.304 108.916 396.697C109.053 392.471 109.189 388.282 109.959 384.114C110.239 382.43 110.698 380.782 111.33 379.199C112.797 375.814 113.193 372.064 114.893 368.754C115.128 368.07 115.229 367.346 115.188 366.622C115.512 361.563 118.235 357.483 120.429 353.161C121.653 350.751 123.634 348.999 125.153 346.851C126.673 344.702 128.989 343.094 130.737 341.112C132.955 338.627 135.326 336.292 137.452 333.706C140.389 330.277 143.596 327.092 147.042 324.183C152.251 319.616 158.082 316.288 164.738 314.75C171.394 313.212 178.052 312.283 184.923 313.123C187.022 313.38 189.227 313.681 191.354 313.357C191.525 313.311 191.785 313.241 191.875 313.289C193.703 314.684 195.778 313.859 197.741 314.009C198.097 314.012 198.448 314.092 198.771 314.242C200.402 315.169 201.82 315.166 203.579 314.204C205.086 313.381 206.874 314.518 208.501 314.854C211.8 315.559 215.024 316.585 218.128 317.917C219.387 318.481 220.546 319.247 221.561 320.186C223.117 321.565 225.089 322.502 226.766 323.776C229.402 325.775 232.344 327.386 234.482 330.026C234.986 330.504 235.41 331.062 235.737 331.677C235.849 332.007 236.036 332.307 236.283 332.553C236.53 332.798 236.83 332.982 237.16 333.09C238.32 333.522 239.373 334.418 238.798 336.015C238.716 336.225 238.715 336.459 238.795 336.671C238.875 336.883 239.03 337.058 239.23 337.161C240.229 337.857 240.633 339.053 241.415 339.867C244.422 343.005 246.062 346.999 248.029 350.709C249.714 353.877 251.647 357.058 252.004 360.851C252.13 362.23 252.852 363.616 253.557 364.875C255.399 368.139 255.667 371.885 256.544 375.378C257.587 379.539 258.801 383.803 258.778 388.148C258.772 390.627 258.821 393.133 258.592 395.623C258.208 399.795 257.19 403.856 256.562 407.979C256.343 409.378 255.67 410.696 255.409 412.094C254.312 417.586 252.313 422.851 249.496 427.675C245.782 434.211 241.759 440.614 236.407 445.998C231.975 450.575 226.508 454.004 220.47 455.995C219.296 456.375 218.183 456.96 216.999 457.326C212.129 458.762 207.092 459.557 202.014 459.689C200.216 459.758 198.578 460.443 197.341 460.612ZM130.616 351.49C130.37 351.66 130.189 351.91 130.105 352.198C130.022 352.487 130.039 352.796 130.156 353.074C130.608 352.546 130.987 352.079 130.517 351.433C130.963 351.104 131.37 350.738 131.071 350.088C131.013 350.035 130.942 349.998 130.866 349.981C130.789 349.964 130.71 349.966 130.635 349.989C130.141 350.361 130.695 350.787 130.613 351.192C130.603 351.291 130.603 351.391 130.616 351.49ZM114.738 383.037C113.498 384.297 113.304 385.414 114.099 387.295C114.8 385.857 115.4 384.553 114.682 383.004C115.188 382.677 115.2 382.081 115.291 381.578C115.741 378.95 116.533 376.394 117.646 373.976C117.866 373.516 118.291 373.062 117.957 372.481C117.859 372.332 117.714 372.222 117.546 372.166C117.318 372.089 117.034 371.98 116.989 372.411C116.778 374.46 115.313 376.013 114.839 377.942C114.41 379.618 112.863 381.308 114.727 383.04L114.738 383.037ZM112.727 392.097C112.482 392.599 113.038 393.258 112.183 393.721C111.504 394.088 111.423 395.779 111.923 396.447C112.422 397.115 112.693 397.438 111.812 397.895C111.123 398.247 111.218 398.934 111.282 399.569C111.441 400.258 111.507 400.965 111.477 401.671C111.116 403.712 112.243 404.775 113.996 406.046C113.852 404.756 113.651 403.937 113.5 403.086C113.187 401.32 111.582 399.782 112.992 397.603C113.838 396.329 113.551 394.33 113.683 392.631C113.719 392.166 113.34 391.813 112.767 392.002C113.215 391.636 113.545 391.143 113.713 390.587C113.88 390.03 113.88 389.435 113.71 388.877C113.62 388.542 113.473 388.127 113.037 388.202C112.713 388.281 112.411 388.429 112.15 388.637C112.61 389.932 111.232 391.121 111.959 392.351C112.149 392.796 112.477 392.314 112.716 392.1L112.727 392.097ZM113.541 406.916C111.985 408.195 111.986 408.685 113.254 410.763C112.848 411.129 112.104 410.036 111.984 410.918C111.865 411.799 112.821 411.824 113.37 411.791C113.919 411.758 114.426 411.305 114.055 410.65C113.43 409.579 113.476 408.424 113.53 406.919L113.541 406.916ZM121.716 362.57C122.254 362.154 122.698 361.627 123.017 361.024C123.078 360.96 123.124 360.884 123.152 360.801C123.181 360.717 123.191 360.628 123.182 360.54C123.173 360.452 123.145 360.367 123.1 360.291C123.056 360.214 122.995 360.149 122.923 360.098C122.552 359.82 122.105 359.635 121.759 360.051C121.087 360.841 120.183 361.676 121.705 362.573L121.716 362.57ZM236.248 373.648C235.378 375.605 236.708 376.295 237.558 377.163C237.61 377.206 237.671 377.238 237.736 377.256C237.801 377.275 237.87 377.278 237.936 377.268C238.003 377.257 238.067 377.233 238.123 377.195C238.18 377.158 238.228 377.109 238.264 377.051C238.314 376.938 238.34 376.814 238.339 376.69C238.338 376.565 238.311 376.442 238.26 376.328C237.701 375.437 236.683 374.962 236.22 373.655L236.248 373.648ZM117.743 422.156C117.895 421.948 117.975 421.891 117.99 421.815C118.04 421.566 118.028 421.308 117.955 421.065C117.883 420.821 117.752 420.599 117.574 420.418C117.516 420.356 117.215 420.407 117.133 420.5C116.778 420.901 117.048 421.289 117.244 421.667C117.382 421.844 117.538 422.005 117.711 422.147L117.743 422.156ZM234.06 371.242C233.495 371.125 232.958 370.341 232.435 371.223C232.295 371.452 232.268 371.818 232.521 371.942C233.242 372.305 233.618 371.738 234.042 371.241L234.06 371.242ZM114.484 419.78C114.481 420.015 114.494 420.249 114.523 420.482C114.576 420.699 114.699 420.893 114.873 421.033C115.047 421.173 115.262 421.25 115.484 421.254C115.614 421.273 115.886 421.116 115.895 421.018C115.953 420.481 115.535 420.27 115.146 420.058C114.976 419.977 114.806 419.921 114.466 419.779L114.484 419.78ZM114.782 394.006C114.691 394.307 114.678 394.628 114.743 394.937C114.808 395.246 114.949 395.533 115.154 395.773C115.331 395.103 115.002 394.629 114.764 394.005L114.782 394.006ZM136.949 345.581C137.019 345.573 137.087 345.55 137.148 345.514C137.209 345.478 137.261 345.429 137.302 345.37C137.342 345.312 137.37 345.245 137.383 345.175C137.396 345.105 137.394 345.033 137.377 344.964C137.373 344.9 137.355 344.838 137.325 344.782C137.295 344.726 137.253 344.677 137.203 344.638C137.153 344.599 137.095 344.572 137.033 344.558C136.972 344.543 136.908 344.542 136.846 344.555C136.525 344.641 136.251 344.924 136.409 345.271C136.487 345.453 136.812 345.516 136.931 345.58L136.949 345.581ZM118.4 369.95C118.311 369.615 118.167 369.301 117.742 369.331C117.317 369.361 117.269 369.781 117.353 370.094C117.404 370.263 117.518 370.406 117.671 370.495C117.823 370.583 118.003 370.609 118.174 370.568C118.425 370.506 118.485 370.245 118.382 369.949L118.4 369.95ZM122.436 429.306C121.739 430.091 121.739 430.091 122.216 430.986L122.436 429.306ZM118.242 426.145C118.611 426.124 118.635 425.86 118.581 425.594C118.539 425.437 118.474 425.192 118.354 425.146C117.973 425.008 118.07 425.39 117.994 425.571C117.918 425.753 117.891 426.03 118.222 426.115L118.242 426.145Z" fill="#62CBBF"/>
<path fill-rule="evenodd" clip-rule="evenodd" d="M25.1343 455.139C40.1177 455.849 55.9031 454.693 71.7138 454.759C74.4506 454.77 77.2772 454.984 79.9715 456.228C84.7147 458.485 89.745 460.067 94.9175 460.928C98.1059 461.432 102.51 462.278 102.712 467.317C102.798 469.404 104.669 469.409 105.774 469.291C116.931 468.089 123.285 475.592 129.201 482.962C136.002 491.429 142.258 500.245 146.166 510.768C151.858 526.092 154.723 541.619 153.602 557.887C153.51 559.288 152.938 560.752 153.22 562.047C156.202 576.047 151.813 588.639 146.447 601.165C145.38 603.655 145.099 606.691 145.194 609.454C145.665 623.067 138.63 633.162 130.059 642.406C117.944 655.471 103.289 665.439 87.4548 673.036C77.5944 677.777 67.1402 681.159 56.3736 683.092C50.975 684.056 45.5363 684.805 40.1545 685.853C39.3225 686.017 38.5866 686.274 37.8634 685.871C31.8109 682.363 25.7347 685.016 19.7246 685.84C16.0721 686.342 14.2056 682.91 11.6259 682.469C8.11681 681.872 6.02369 681.79 7.17974 677.536C7.34083 676.945 6.62768 676.182 5.53166 676.244C-3.10816 676.771 -5.49598 676.053 -10.6267 674.02C-16.5309 671.705 -22.2687 669.394 -27.6298 665.772C-34.4187 661.216 -35.4553 660.064 -38.1622 649.784C-38.8757 647.122 -42.4713 646.423 -43.3111 642.626C-44.3684 637.863 -47.8087 633.703 -48.5486 628.402C-48.8227 626.473 -52.2188 623.427 -53.4018 622.988C-57.1955 621.549 -57.9065 618.189 -58.4521 615.755C-59.4728 611.173 -60.9941 607.351 -64.4218 604.098C-66.0085 602.593 -66.3508 600.653 -63.046 600.399C-62.8445 600.361 -62.6601 600.26 -62.5179 600.112C-62.3758 599.963 -62.2829 599.774 -62.2521 599.57C-62.2212 599.366 -62.2538 599.157 -62.3455 598.972C-62.4371 598.787 -62.5834 598.635 -62.7642 598.536C-70.1225 595.146 -68.843 587.951 -70.0739 581.9C-70.2962 580.828 -70.1052 579.752 -70.8261 578.717C-75.5526 571.899 -74.2098 564.455 -71.7979 557.601C-68.4985 548.25 -65.7018 538.945 -64.9063 528.973C-64.1506 519.404 -58.3783 511.774 -53.9233 503.711C-47.5476 492.172 -38.3154 483.145 -27.8977 475.45C-23.2136 471.996 -17.6112 469.673 -12.3002 467.189C-0.578042 461.713 11.1545 456.275 25.1343 455.139ZM-56.7543 589.872C-56.8294 585.572 -61.7322 589.954 -62.5585 586.738C-62.0089 588.789 -63.1293 591.365 -60.6988 592.972C-59.1325 591.707 -57.8478 590.671 -56.5943 589.674C-56.9921 591.568 -56.9207 593.336 -55.1432 594.957C-54.8128 592.789 -55.1855 591.155 -56.7543 589.872ZM-19.1829 625.502C-14.3848 620.707 -22.057 616.543 -19.9083 611.886C-22.6943 610.786 -20.4868 607.519 -22.3668 606.134C-22.8868 605.761 -24.2479 605.738 -24.5916 606.134C-25.8143 607.6 -27.1256 610.126 -26.1768 611.26C-22.912 615.009 -23.4581 619.617 -22.3842 623.846C-21.8793 625.73 -20.4852 625.589 -19.0369 625.296C-18.4466 626.926 -19.8039 629.214 -17.5186 630.389C-17.0342 628.376 -17.3374 626.67 -19.1829 625.502ZM-49.8663 588.062C-49.6305 602.965 -49.6305 602.965 -47.1241 606.953C-45.8593 601.603 -47.2945 591.764 -49.8663 588.062ZM-63.9297 582.857C-60.5878 581.307 -65.443 578.115 -62.1184 577.206C-59.4905 576.502 -60.3303 574.737 -60.8357 573.425C-61.5216 571.661 -61.2544 568.395 -64.8086 569.64C-67.514 570.585 -68.2384 572.894 -66.5155 574.863C-64.45 577.206 -65.4156 580.205 -63.9297 582.857ZM-40.9645 592.642C-38.6758 592.35 -38.5149 590.543 -38.0153 589.051C-37.7418 588.239 -38.0136 587.114 -38.877 587.226C-40.7961 587.484 -42.5679 588.358 -42.2846 590.785C-42.2027 591.466 -41.3913 592.065 -40.9645 592.642ZM-23.9587 502.76C-23.8344 503.71 -23.1954 504.063 -22.2999 503.96C-20.9408 503.799 -20.6767 502.775 -20.8136 501.667C-20.8887 501.056 -20.781 499.824 -22.0432 500.501C-22.9182 500.968 -24.0527 501.35 -23.9587 502.76ZM-18.0445 642.869C-21.1753 646.091 -18.4218 646.783 -16.42 647.849L-18.0445 642.869ZM7.73176 574.368C9.2245 573.932 8.66618 572.688 8.6763 571.732C8.64426 571.229 8.45531 570.748 8.13636 570.357C6.85542 570.546 6.47608 571.559 6.45245 572.685C6.42612 572.88 6.43836 573.078 6.48852 573.268C6.53866 573.459 6.62573 573.637 6.74464 573.794C6.86357 573.95 7.01204 574.081 7.18146 574.18C7.35088 574.279 7.53788 574.343 7.73176 574.368ZM-17.4333 560.747C-16.9018 557.673 -16.5159 555.735 -19.0444 554.38C-19.7592 556.615 -19.3493 558.233 -17.4333 560.747ZM-30.6155 584.911C-30.5596 586.291 -30.0218 586.796 -29.0203 586.647C-28.0188 586.498 -27.3992 585.873 -27.7809 584.956C-28.0669 584.264 -28.8897 583.8 -29.4784 583.236C-29.9075 583.888 -30.3341 584.526 -30.6155 584.911ZM-38.006 637.493C-37.9275 638.047 -37.6617 638.557 -37.2535 638.939C-36.8453 639.32 -36.3196 639.548 -35.7648 639.585C-35.5116 639.131 -35.3663 638.623 -35.3399 638.101C-35.3429 636.809 -35.9283 635.906 -37.3457 636.136C-37.6318 636.195 -37.7926 637.031 -37.9956 637.532L-38.006 637.493ZM-40.3163 615.621C-40.5829 614.626 -41.3687 614.586 -42.1326 614.606C-43.9433 614.65 -44.3356 615.792 -44.0037 617.318C-43.8353 618.101 -43.4348 618.911 -42.3873 618.624C-40.9132 618.229 -40.3554 617.109 -40.3354 615.638L-40.3163 615.621ZM10.9203 620.254C11.2373 619.693 12.0409 618.894 11.8934 618.343C11.7176 617.687 10.7356 616.783 10.1072 616.778C8.09201 616.788 9.40781 618.342 9.32479 619.18C9.24176 620.019 9.6618 620.681 10.9203 620.254ZM-39.708 498.574C-39.6374 497.512 -39.8435 496.566 -40.6778 496.677C-41.8829 496.839 -42.1161 498.111 -42.3054 499.127C-42.3507 499.315 -42.3514 499.511 -42.3077 499.7C-42.2639 499.889 -42.1769 500.065 -42.0535 500.215C-41.9301 500.364 -41.7738 500.482 -41.597 500.56C-41.4203 500.638 -41.2281 500.673 -41.0357 500.663C-39.4622 500.617 -39.8523 499.25 -39.708 498.574ZM-39.6856 603.333C-39.9513 605.323 -42.0554 605.928 -41.2488 607.923C-41.1367 608.208 -40.1495 608.492 -39.957 608.327C-38.4531 607.138 -38.0475 605.671 -39.6886 603.322L-39.6856 603.333ZM-66.8436 562.708C-65.9937 563.517 -65.6349 564.171 -65.2267 564.193C-63.5926 564.351 -63.5648 563.152 -63.7578 562.012C-63.9301 561.497 -64.1724 561.009 -64.478 560.561C-65.2849 561.259 -66.116 562 -66.8466 562.697L-66.8436 562.708Z" fill="#62CBBF"/>
<path fill-rule="evenodd" clip-rule="evenodd" d="M448.201 140.799C447.423 156.344 446.88 169.557 446.059 182.749C445.588 190.579 445.593 198.572 443.76 206.104C440.074 221.142 438.363 237.346 424.84 247.915C422.29 249.914 421.647 252.919 419.457 255.023C405.388 268.761 388.966 278.72 370.748 285.853C369.82 286.22 368.793 286.75 367.863 286.668C353.792 285.383 339.967 289.775 325.898 288.43C324.244 288.281 322.334 287.797 320.924 288.382C310.175 292.892 300.042 292.395 290.349 285.564C289.032 284.637 287.202 284.629 285.46 285.037C282.138 285.749 279.756 284.082 277.482 281.841C271.076 275.516 263.897 270.209 256.276 265.354C251.769 262.484 249.513 257.299 247.122 252.582C244.3 247.015 241.97 241.198 237.501 236.611C236.359 235.448 234.786 233.7 234.956 232.428C236.17 223.006 228.641 215.814 228.756 206.722C228.872 197.63 226.751 188.918 226.942 179.752C227.093 172.808 228.396 165.975 228.297 159.009C228.186 151.726 233.516 146.061 236.612 139.832C242.399 128.207 247.163 116.133 255.579 105.771C266.938 91.776 281.693 82.88 296.85 74.0008C306.523 68.3331 317.557 66.3011 327.195 60.8562C328.026 60.3907 329.324 59.9421 330.076 60.268C341.244 65.4061 353.76 59.1606 364.915 64.4267C366.368 65.11 368.438 65.6577 369.807 65.1427C379.782 61.3972 386.068 67.2037 392.858 73.0112C403.112 81.7783 412.16 91.6505 421.186 101.57C422.91 103.606 424.856 105.444 426.986 107.05C439.584 115.906 442.299 130.403 448.201 140.799ZM242.711 183.344L245.979 189.23C247.403 191.776 253.419 192.635 256.464 190.243C259.056 188.203 258.211 185.691 256.046 183.611C255.243 182.83 253.073 181.729 254.962 180.938C261.9 178.042 256.469 170.175 261.159 166.418C262.079 165.685 261.291 163.721 259.849 163.278C259.06 163.033 257.495 163.352 257.136 163.94C253.869 169.331 245.075 172.547 250.174 181.344C251.128 182.997 249.581 184.466 248.519 186.238C246.694 185.299 245.855 182.187 242.711 183.344ZM266.133 162.898C269.342 159.858 270.778 156.136 272.282 151.431C267.676 154.484 260.706 155.268 266.111 162.904L266.133 162.898ZM274.093 142.044C274.354 140.428 274.697 139.512 274.597 138.632C274.412 136.857 276.802 134.966 274.445 133.369C274.07 133.12 273.099 133.351 272.632 133.689C270.352 135.325 272.094 137.217 272.483 138.98C272.656 139.846 273.294 140.611 274.071 142.05L274.093 142.044ZM262.173 221.384C261.467 216.909 261.467 216.909 258.85 213.148C259.573 217.814 259.573 217.814 262.151 221.39L262.173 221.384ZM272.451 237.593C271.953 234.539 275.99 232.663 272.171 230.261C271.53 229.84 269.899 229.975 269.472 230.486C266.855 233.587 269.751 235.004 272.439 237.614L272.451 237.593ZM256.611 207.27C257.569 207.126 258.645 206.844 258.291 205.635C257.861 204.162 257.344 202.475 255.394 202.263C254.175 202.145 253.705 203.113 253.738 204.123C253.768 205.964 254.62 207.17 256.571 207.299L256.611 207.27ZM250.186 148.101C249.699 149.32 249.309 150.576 249.021 151.856C248.899 152.641 249.655 153.008 250.46 152.798C251.733 152.457 251.916 151.59 251.523 150.498C251.199 149.643 251.374 148.482 250.146 148.129L250.186 148.101ZM248.402 208.107C248.054 209.308 247.62 209.97 247.749 210.498C248.068 211.799 247.563 214.697 249.383 213.871C251.203 213.045 250.187 210.449 248.363 208.135L248.402 208.107Z" fill="#62CBBF"/>
<path fill-rule="evenodd" clip-rule="evenodd" d="M294.235 464.974C306.559 464.088 320.256 463.424 333.916 466.105C335.641 466.448 337.395 466.658 338.399 467.946C343.34 474.264 350.564 475.991 357.669 478C367.85 480.88 374.518 487.707 379.194 496.959C383.096 504.7 387.45 512.13 387.136 521.371C387.006 525.319 386.871 529.244 386.677 533.174C386.101 544.74 382.598 555.95 383.964 567.825C384.793 575.066 379.748 581.715 377.899 588.82C374.384 602.289 363.615 610.197 353.846 618.696C347.906 623.867 341.333 628.385 335.043 633.005C320.807 643.465 305.247 651.13 286.638 642.145C283.739 640.745 279.868 639.503 275.308 641.005C270.183 642.707 266.386 637.377 263.532 633.304C261.692 630.549 259.21 628.285 256.303 626.71C241.475 618.699 233.118 606.186 230.312 589.532C229.124 582.351 224.304 576.395 223.334 568.829C220.755 548.814 224.475 529.885 232.578 511.936C237.32 501.425 242.678 491.334 251.587 482.862C262.418 472.593 274.396 467.021 288.782 465.517C290.173 465.412 291.514 465.28 294.235 464.974ZM251.774 502.062C249.071 504.958 246.338 507.831 245.334 511.859C245.087 512.867 244.923 514.027 246.069 514.447C246.898 514.75 248.676 514.715 248.768 514.44C250.035 510.307 255.322 506.951 251.421 501.739C253.59 502.303 255.568 502.262 255.817 499.446C255.878 498.678 254.999 497.147 254.478 497.108C251.7 496.91 251.361 498.904 251.498 501.098C251.551 501.437 251.646 501.768 251.78 502.084L251.774 502.062ZM280.866 608.419C286.091 603.989 287.5 609.182 289.325 611.36C291.523 613.981 287.676 617.726 290.015 621.227C290.611 614.786 294.301 611.631 300.201 610.898C299.721 609.237 299.384 608.313 299.194 607.338C298.766 605.162 297.27 603.856 295.572 602.683C294.594 602.002 292.806 601.354 294.799 600.063C296.093 599.221 298.467 599.372 297.634 596.952C296.891 594.819 294.69 596.334 293.26 595.738C291.83 595.143 291.135 594.101 291.398 592.622C291.763 590.526 293.728 587.536 289.469 587.77C286.33 587.955 286.534 590.8 286.785 593.262C286.894 594.336 288.425 595.751 287.53 596.045C284.18 596.436 286.166 592.992 282.839 593.383C284.54 598.266 283.624 602.782 280.883 608.438L280.866 608.419ZM229.281 571.637C230.369 573.35 230.806 576.311 233.379 576.385C235.356 576.452 236.885 573.961 236.536 572.193C236.145 570.156 234.803 567.807 231.931 568.1C230.102 568.298 229.155 569.506 229.298 571.657L229.281 571.637ZM262.943 522.895C259.133 525.204 259.236 528.38 259.952 531.672C260.016 531.911 261.276 532.182 261.786 532.004C266.081 530.507 262.763 526.922 263.717 524.477C263.802 524.305 263.462 523.925 262.96 522.914L262.943 522.895ZM302.355 593.743C302.684 594.465 303.207 595.08 303.866 595.518C304.525 595.956 305.293 596.2 306.083 596.222C308.055 596.361 309.01 594.65 308.768 592.949C308.526 591.248 307.392 589.697 305.445 590.052C303.712 590.367 302.848 591.97 302.355 593.743ZM334.288 561.725C336.052 560.972 337.331 559.609 337.26 557.946C337.154 555.159 334.646 555.371 332.781 555.412C331.457 555.432 329.888 556.491 330.483 557.913C331.115 559.563 331.913 561.657 334.272 561.729L334.288 561.725ZM322.186 557.571C324.216 557.766 326.122 561.181 328.091 558.249C328.579 557.522 327.961 555.015 327.314 554.771C325.052 553.951 324.191 556.944 322.17 557.575L322.186 557.571ZM334.511 581.41C335.882 581.586 335.927 580.559 336.031 579.637C336.134 578.715 336.278 577.459 335.208 577.275C334.697 577.185 333.695 578.276 333.409 579.069C333.262 579.522 333.29 580.015 333.485 580.45C333.681 580.885 334.031 581.232 334.467 581.422L334.511 581.41ZM309.361 610.65C310.718 610.287 312.011 609.66 311.894 608.051C311.813 606.927 310.64 606.538 309.702 606.849C308.545 607.23 306.903 607.479 307.142 609.282C307.247 610.382 308.228 610.763 309.317 610.662L309.361 610.65ZM280.233 627.105C282.72 627.125 283.218 626.412 283.055 625.227C282.92 624.214 282.473 623.057 281.412 623.085C281.094 623.069 280.777 623.126 280.484 623.249C280.192 623.373 279.93 623.561 279.719 623.799C279.508 624.038 279.353 624.32 279.265 624.627C279.177 624.934 279.159 625.256 279.211 625.571C279.365 626.177 279.707 626.719 280.189 627.117L280.233 627.105Z" fill="#62CBBF"/>
<path fill-rule="evenodd" clip-rule="evenodd" d="M42.8614 357.738C37.1148 363.659 31.4729 369.681 25.5851 375.473C19.3917 381.543 13.9716 388.881 4.27604 389.813C2.25819 390.016 0.921447 391.032 -0.472523 392.633C-10.9998 404.754 -25.2724 402.609 -38.6173 401.135C-43.9267 400.554 -47.7116 393.275 -54.5133 393.729C-63.5738 380.899 -78.0079 385.265 -90.1774 383.28C-99.3928 381.772 -108.914 381.78 -116.157 375.268C-127.644 364.95 -140.986 355.354 -140.418 337.42C-139.924 321.716 -146.485 307.221 -147.215 291.578C-147.732 280.454 -147.169 271.211 -139.338 262.764C-128.919 251.526 -120.104 239.105 -108.768 228.386C-94.1582 214.572 -77.2672 206.833 -58.9139 202.757C-32.4586 196.854 -5.25661 195.931 20.1675 207.453C34.6223 214 47.9372 223.052 57.0657 236.978C62.2531 244.937 67.9493 252.554 74.1189 259.781C81.1752 267.967 82.0039 279.126 88.4087 287.54C88.7193 287.927 88.937 288.379 89.0454 288.863C89.1537 289.347 89.1497 289.85 89.0338 290.332C88.9178 290.814 88.6928 291.264 88.3762 291.646C88.0595 292.029 87.6596 292.334 87.2068 292.538C82.3812 294.649 84.4967 297.936 85.3428 301.093C86.1342 304.047 86.6323 308.122 84.2935 309.365C73.543 315.091 76.4851 329.239 66.4929 336.001C57.8148 341.883 51.3234 350.984 43.8738 358.658L42.8614 357.738ZM-95.2297 251.058C-99.0855 249.963 -100.331 252.917 -101.731 255.379C-102.71 257.087 -103.335 259.365 -101.644 260.69C-100.149 261.837 -97.5742 262.119 -96.1527 260.665C-94.2456 258.719 -91.5907 256.728 -92.8974 253.225C-85.0824 246.116 -74.2111 242.836 -66.6491 233.365C-76.5829 233.851 -82.8237 244.065 -89.283 242.583C-102.462 239.576 -94.0009 247.955 -95.2297 251.058ZM-97.8387 324.617C-113.428 328.883 -113.428 328.883 -110.697 338.365C-106.489 333.793 -100.34 331.524 -97.8387 324.617ZM-68.8356 221.349C-63.8598 223.299 -59.3555 219.834 -54.686 220.663C-51.3211 221.255 -52.309 219.12 -52.5088 217.377C-52.688 215.866 -53.3505 214.236 -54.9307 214.831C-59.638 216.608 -65.8189 215.389 -68.8356 221.349ZM-54.0116 356.18C-53.2 354.777 -52.1176 352.833 -53.6155 352.429C-56.1752 351.739 -59.074 352 -61.7978 352.25C-62.1631 352.283 -62.9775 355.204 -62.4622 355.753C-59.8439 358.567 -56.8194 358.088 -54.0116 356.18ZM-39.9001 293.883C-38.067 294.542 -36.2005 294.949 -34.4105 293.829C-33.1286 293.029 -32.3487 291.64 -33.8773 290.722C-35.5798 289.708 -37.6596 290.212 -39.2152 291.453C-39.7531 291.905 -39.7005 293.077 -39.9001 293.883ZM-54.9076 231.226C-53.9295 233.525 -52.4919 232.043 -51.702 231.268C-50.76 230.352 -49.6345 228.835 -49.7724 227.722C-49.9434 226.286 -51.8231 226.008 -53.1405 226.432C-55.555 227.215 -55.0488 229.326 -54.9132 231.228L-54.9076 231.226Z" fill="#62CBBF"/>
</g>
</svg>
