<svg width="619" height="655" viewBox="0 0 619 655" fill="none" xmlns="http://www.w3.org/2000/svg">
<g opacity="0.6" clip-path="url(#clip0_551_6813)">
<path fill-rule="evenodd" clip-rule="evenodd" d="M346.455 503.194C342.961 508.65 338.707 508.607 334.991 503.922C333.112 501.558 331.824 499.489 328.456 499.7C323.642 500.028 318.797 500.133 313.983 500.386C313.677 500.386 313.413 500.935 313.118 501.199C311.397 502.75 315.102 509.821 308.99 506.254C305.422 504.143 308.093 498.751 310.162 496.566C316.791 489.548 309.549 490.171 306.288 488.482L306.604 488.641C302.382 481.422 295.509 479.438 287.444 479.681C293.715 476.842 300.26 480.462 306.256 477.571C306.129 471.798 299.046 473.096 297.557 468.706C296.122 464.485 293.271 466.279 290.769 467.587C289.418 468.294 287.676 469.149 288.584 471.123C289.851 473.877 293.271 471.397 295.425 474.109C293.176 476.03 290.611 475.734 288.035 475.439C285.164 475.101 285.291 469.36 280.445 471.714C278.714 472.558 275.484 470.321 272.982 469.497C275.663 468.083 278.26 466.659 281.976 464.675C275.251 464.833 275.251 464.833 273.087 469.561C270.29 472.526 267.281 467.017 264.283 469.835C262.879 471.154 260.863 471.65 260.187 473.888C258.984 477.856 258.435 478.183 256.957 476.41C252.407 470.975 245.682 470.912 239.739 469.023C233.616 467.049 227.958 470.321 222.12 471.323C217.317 472.157 224.411 474.067 221.825 475.935C214.657 481.095 207.32 477.961 203.087 466.69C199.635 470.848 196.574 474.341 190.197 472.516C186.693 471.46 181.699 474.204 178.68 477.866L169.422 480.167C177.688 481.897 178.712 486.688 176.928 492.83L177.076 492.567C176.178 491.342 174.352 491.268 173.909 492.039C170.742 498.012 166.382 500.007 159.942 497.379C159.277 497.115 157.937 498.508 156.775 499.183C159.942 504.46 164.513 506.412 170.34 504.893C174.806 503.742 177.54 506.191 182.153 509.05C178.195 509.736 175.661 509.641 173.645 510.612C168.451 513.135 164.059 514.981 159.541 508.839C158.01 506.729 153.482 504.217 150.199 508.438C154.01 503.394 147.106 499.996 147.401 497.685C150.42 490.941 156.205 500.249 157.842 491.828C152.236 492.799 146.23 488.134 141.732 494.93C129.846 495.068 127.196 498.824 131.989 508.766L132.348 508.438C128.948 507.869 123.153 507.689 123.016 505.41C122.636 499.204 116.893 500.608 114.444 497.643C109.514 491.67 106.347 498.519 102.515 499.985C99.8756 501.041 97.8383 500.882 96.2548 498.508C94.8719 496.397 96.1387 494.846 97.3105 493.126C98.4822 491.406 99.6751 489.96 101.808 489.485C105.713 488.63 107.023 484.747 109.493 482.341C111.256 480.631 110.844 477.148 108.733 474.785C103.201 479.839 100.087 471.102 95.2097 472.421C93.0984 470.574 91.2405 467.535 88.8758 467.144C83.7031 466.226 81.4862 463.82 81.9612 457.646C82.4046 465.403 76.113 463.978 73.3366 466.511C69.7896 469.677 64.5641 471.661 62.7061 477.064C69.7262 478.119 75.6168 483.67 83.3019 481.845C83.4497 483.005 84.1149 484.863 83.6504 485.2C80.4834 487.522 75.7541 488.546 78.1505 494.382C78.7838 495.922 76.7357 495.437 75.8172 495.796C67.5198 499.479 58.1351 497.822 49.7215 501.072C48.6659 501.473 46.2908 500.017 46.4809 498.371C46.6075 497.315 48.5921 496.492 50.8617 494.614C43.1766 495.258 36.7583 496.661 29.8543 496.819C37.8984 497.79 43.8311 502.096 49.3628 507.045C45.573 505.895 42.807 507.51 38.8694 511.931C43.662 509.916 47.0929 510.074 49.162 506.813C52.5929 507.615 55.496 512.311 58.7474 504.618C61.0699 499.194 68.2483 503.447 73.5266 505.674C78.2664 507.636 77.3798 511.34 75.258 512.069C69.0191 514.179 68.5649 521.366 63.1388 524.078C61.5574 524.954 60.2361 526.232 59.309 527.784C58.3819 529.335 57.8821 531.104 57.8606 532.911C60.278 534.927 63.2551 533.692 65.8836 534.283C71.5314 535.539 67.0343 537.766 66.1053 539.56C58.8529 538.504 53.2157 543.053 47.0401 545.416C41.3589 547.491 35.2724 548.214 29.2631 547.527C23.3092 547.031 26.096 539.085 20.7122 538.821C16.8063 538.589 12.552 540.045 9.33223 536.415C8.27657 535.222 6.91491 534.304 5.77481 533.101C4.40246 531.708 2.37547 530.431 3.26222 528.078C4.47622 524.838 7.90709 529.196 9.59614 526.125C9.18443 521.904 -4.53893 521.588 5.23641 513.683C4.95178 513.111 4.59719 512.575 4.18076 512.09C2.74507 510.338 -1.81527 511.203 0.306596 506.433C2.25955 502.064 5.21524 501.684 9.13171 502.328C9.72408 502.514 10.3656 502.463 10.9209 502.185C11.4762 501.908 11.902 501.425 12.1087 500.84C10.428 499.913 8.6857 499.102 6.89386 498.413C3.57911 497.358 3.36793 495.11 2.09059 492.081C-0.675223 485.549 4.32848 480.684 3.05114 474.785C1.47822 467.577 4.10682 460.548 5.98589 453.499C7.79522 446.932 10.2713 440.567 13.3755 434.503C16.2468 428.752 17.218 422.051 20.1527 416.331C26.4866 403.931 33.5385 391.869 40.3897 379.722C48.8877 364.663 56.3088 348.823 66.3375 334.85C77.0735 319.886 85.6876 303.434 98.0071 289.567C100.393 286.886 101.818 283.351 104.109 280.544C107.212 276.745 107.54 273.072 103.813 269.875C97.9438 264.841 99.6961 258.931 101.934 253.401C104.594 246.806 106.072 240.104 101.808 234.247C98.6406 229.889 105.249 227.916 102.568 223.314C99.4006 217.837 106.547 218.27 109.44 216.223C117.885 210.26 124.219 202.082 131.228 194.652C135.757 189.829 139.135 183.55 145.353 180.933C149.111 179.35 143.168 172.047 150.632 173.799C155.192 174.855 155.403 169.388 158.158 167.362C162.381 164.259 166.804 163.921 171.428 163.267C168.947 164.924 165.495 165.99 167.11 170.179C167.206 170.314 167.333 170.425 167.48 170.502C167.626 170.579 167.789 170.62 167.955 170.623C172.758 169.852 170.319 165.737 171.354 163.236C172.547 158.36 171.122 151.627 176.178 149.221C183.821 145.612 190.673 138.584 200.617 141.338C200.743 138.478 194.684 135.185 201.767 132.674C205.642 131.302 208.914 132.568 212.44 132.378C214.066 132.304 216.863 132.062 216.578 131.154C213.411 121.192 221.55 125.223 224.886 124.822C230.302 124.221 232.782 120.443 234.862 116.781C241.09 105.816 252.65 99.5158 258.868 88.4984C259.349 87.5857 260.007 86.7775 260.803 86.1204C261.598 85.4633 262.516 84.9704 263.504 84.6702C264.491 84.3699 265.529 84.2682 266.556 84.371C267.583 84.4738 268.579 84.7791 269.488 85.2692C272.655 86.7677 276.486 86.7572 279.917 87.7597C284.995 89.2582 287.951 88.3612 291.889 83.6968C297.79 76.7212 304.187 69.9777 310.32 63.1076L316.981 58.4537C326.229 52.4595 336.173 49.1247 346.635 54.2324C354.098 57.9049 359.63 55.0767 363.979 50.1906C371.833 41.3788 382.126 35.6168 390.624 27.6281C393.157 25.2431 397.581 24.3566 401.18 23.0058C411.325 19.1645 423.697 17.6448 428.131 4.73831C429.482 0.791447 441.453 -1.51972 446.879 1.27686C450.099 2.94425 452.569 2.83874 455.895 1.95227C470.22 -1.84685 481.452 3.88357 492.209 13.107C501.71 21.2118 507.748 31.6383 514.895 41.3683C518.147 45.79 518.189 51.2881 519.033 56.4591C519.487 59.2346 519.118 62.0207 520.089 64.8278C522.665 71.9301 524.512 72.6055 529.727 67.35C535.364 61.6619 540.653 55.6254 546.343 50.0006C548.855 47.3676 551.739 45.117 554.904 43.3206C563.835 38.5611 569.683 38.7722 577.516 44.6608C581.085 47.3519 577.295 49.7474 577.728 52.3118C578.372 56.1637 578.551 59.9311 583.46 55.2666C585.73 53.156 587.872 53.8842 589.72 55.9632C591.314 57.7677 591.061 60.7437 594.291 62.295C597.025 54.9079 605.565 53.3776 609.904 47.0774C610.896 45.6316 614.243 44.3336 614.559 48.9453C614.781 52.2484 616.259 50.0007 617.336 49.1459C621.058 46.0645 624.934 43.1727 628.948 40.4817C632.115 38.5083 635.483 33.6328 639.505 40.5662C640.729 42.6768 644.857 40.5661 646.704 38.2233C652.785 30.5512 661.853 32.6935 669.591 32.0603C672.504 31.8176 676.98 31.29 679.345 32.3559C687.389 35.9756 690.862 32.4719 692.794 25.6018C693.765 22.1404 695.19 21.6866 698.737 21.7394C706.644 21.8449 714.794 22.1088 721.529 17.6238C724.2 18.4997 723.165 20.4942 723.693 21.845C724.749 24.536 723.904 29.6331 728.844 27.9974C732.824 26.6783 731.294 22.6364 730.27 19.5549C729.805 18.1619 727.926 17.4443 728.274 15.5869C732.571 12.6426 736.804 17.8558 741.744 15.2703C744.827 13.6557 746.59 18.9533 747.762 21.6022C749.355 25.5892 752.167 28.9721 755.795 31.2689C760.651 34.4981 762.72 32.7779 765.961 27.2586C767.017 33.5905 763.501 38.2972 766.563 42.4974C769.73 42.8667 771.567 40.1969 774.048 38.9938C776.961 37.5691 779.928 35.6801 782.187 40.1018C784.71 45.0618 786.251 37.643 788.658 39.4898C791.065 41.3366 790.505 44.9457 793.366 46.2859C794.865 46.9824 795.9 46.3704 797.472 45.6633C806.319 41.6426 810.204 43.4999 814.268 52.871C816.305 57.5883 823.769 59.1291 824.244 55.3089C825.5 45.9272 829.966 52.9134 831.37 53.7682C836.352 56.8075 836.89 62.2106 837.218 67.656C837.798 77.4281 837.946 77.6287 848.007 76.0035C851.955 75.3598 855.818 76.2885 859.851 75.3704C864.496 74.315 867.547 78.8845 866.185 83.6334C863.335 93.7222 866.185 97.4369 876.309 96.8248C879.877 96.6032 883.561 96.7088 886.971 95.8434C889.884 95.0317 892.936 94.8471 895.926 95.3018C898.916 95.7566 901.775 96.8405 904.315 98.4817C908.452 101.158 913.405 102.28 918.292 101.648C926.336 100.592 931.435 104.022 934.222 111.388C927.772 115.609 928.416 120.886 928.458 127.735C928.532 139.238 937.748 145.253 940.883 154.582C941.939 157.748 943.628 160.703 938.011 161.146C937.251 161.199 937.135 164.66 938.254 166.644C944.017 176.531 946.82 187.863 946.33 199.295C953.635 199.802 953.635 199.802 960.539 193.829C964.002 196.045 964.065 200.762 967 203.327C973.175 208.603 973.239 208.54 970.494 214.334C973.439 216.149 976.385 216.74 980.206 214.007C976.174 208.656 974.516 202.81 979.478 196.267C981.684 198.251 979.066 203.781 984.45 203.285C989.654 202.81 988.503 208.498 990.879 210.946C993.423 213.574 990.784 218.333 993.845 221.13C990.91 218.935 987.511 226.48 984.65 220.634C982.634 216.529 981.145 217.405 979.245 221.119C977.525 224.496 975.952 227.747 975.751 232.728C979.72 229.984 982.687 227.251 987.891 229.097C990.615 230.068 995.45 226.438 993.549 220.972C999.662 229.309 999.187 231.261 990.287 233.794C987.669 234.543 982.898 233.298 982.729 235.904C982.455 241.761 975.551 244.431 977.05 251.122C978.105 255.997 977.662 261.675 972.743 265.231C972.231 265.564 971.747 265.938 971.296 266.35C965.501 266.529 962.851 270.73 960.571 275.088C957.763 280.365 961.468 280.861 965.353 280.998C962.914 285.166 961.046 289.905 955.778 292.026C955.335 290.295 955.071 289.546 954.944 288.765C954.786 287.709 955.504 286.348 954.184 285.514C954.121 296.068 954.121 296.068 962.798 297.756C963.988 297.876 965.14 298.235 966.187 298.811C968.731 300.542 971.993 301.724 973.577 298.949C975.16 296.173 976.997 292.722 974.052 288.902C970.357 284.121 973.693 276.924 979.467 276.238C989.717 274.961 989.802 274.94 986.698 266.128C985.643 263.163 984.091 260.398 982.761 257.538C989.834 259.058 986.72 253.813 986.012 251.755C983.901 245.592 987.944 247.703 990.657 247.798L990.393 247.639C994.996 251.249 999.577 254.319 1003.7 247.027C1007.45 252.715 1009.22 258.245 1008.85 264.967C1008.66 268.471 1008.04 271.732 1006.08 273.716C1002.91 276.882 1000.47 279.067 1002.32 284.48C1004.34 290.422 996.759 289.989 994.373 293.26L994.732 293.123C987.754 290.664 987.416 290.886 984.714 299.529V299.286C981.832 302.452 976.173 303.381 978.929 310.578C980.702 315.169 972.5 320.076 966.641 320.002C958.396 319.886 964.889 325.669 963.812 328.518C964.115 328.764 964.48 328.921 964.867 328.972C965.216 328.972 965.554 328.603 965.923 328.392H965.86C968.393 335.315 962.323 341.055 963.4 348.073C963.991 351.904 958.819 344.063 957.995 349.466C957.647 351.746 959.23 354.479 957.151 356.157C956.211 356.906 953.899 361.592 952.601 356.157C952.009 353.666 948.916 355.281 948.146 353.276C951.746 351.45 955.356 349.73 955.535 344.834C955.609 343.166 955.725 341.53 953.889 340.908C951.777 340.201 949.814 340.823 949.043 343.018C947.97 346.319 947.685 349.824 948.209 353.255C940.756 362.267 931.562 369.665 924.499 379.078C922.209 382.128 918.524 384.26 915.22 386.392C911.916 388.523 908.569 389.325 909.329 394.834C910.026 399.773 905.793 404.142 901.37 403.625C896.672 403.087 894.772 405.736 892.186 407.783C889.599 409.83 887.657 410.484 885.366 407.245C884.638 406.189 886.559 402.221 882.769 404.174C880.932 405.134 879.602 407.223 880.658 409.281C881.481 410.864 883.382 411.888 885.683 413.956C880.405 416.858 874.694 419.096 873.838 425.976C873.596 428.003 871.252 430.947 869.384 431.369C862.342 432.984 862.311 443.041 854.33 443.22C852.557 443.22 852.926 444.835 853.665 445.901C855.428 448.455 856.04 449.172 851.765 449.848C846.877 450.618 846.339 453.013 849.136 458.174C850.751 461.171 847.954 459.905 847.489 460.759C841.535 456.538 835.951 461.139 829.258 460.633C831.792 463.187 835.592 461.424 835.972 464.77C836.331 467.82 833.534 467.081 831.749 467.64C829.723 468.284 828.076 469.656 828.424 471.977C829.395 478.394 827.77 482.256 820.285 481.475C819.356 481.37 818.005 482.531 817.308 483.375C810.974 491.564 804.292 499.342 795.34 504.829C796.121 513.462 786.525 510.106 783.612 514.886C782.155 517.271 780.571 517.451 782.989 520.912C786.673 526.189 782.683 529.165 777.088 529.861C776.94 529.861 776.813 530.547 776.782 530.916C776.697 531.814 777.214 532.299 778.238 532.383H778.302C771.968 531.581 767.978 534.304 766.12 540.33L754.37 550.999C752.987 551.748 750.464 552.392 750.39 553.257C749.461 563.705 738.651 565.594 733.848 572.728C729.162 579.713 723.293 585.827 716.504 590.795C714.255 592.42 712.06 594.246 712.281 597.697C712.492 600.44 710.824 601.253 708.47 599.86C706.929 598.942 705.303 598.193 704.406 600.113C703.509 602.034 705.029 602.783 706.803 603.1C707.309 603.184 707.71 603.849 708.175 604.25C703.329 604.05 701.345 610.192 696.351 609.611C694.346 609.379 692.129 609.347 693.184 606.118C693.818 604.282 694.504 602.256 691.749 600.324C688.529 604.218 684.993 607.986 682.09 612.207C680.474 614.561 676.716 617.874 683.62 619.594C685.731 620.122 684.254 623.742 681.15 624.417C675.091 625.736 678.595 629.24 680.042 631.382C681.889 634.115 684.75 636.975 686.882 631.382C688.117 628.132 689.669 629.43 691.295 630.865C694.567 633.767 697.375 635.551 701.64 631.519C704.121 629.156 706.264 632.796 706 634.875C705.662 637.482 703.741 642.03 702.485 642.041C695.285 642.041 694.916 650.716 688.972 651.971C687.811 652.214 680.527 652.52 679.809 651.496C677.107 647.824 673.834 649.502 671.143 651C666.434 653.628 662.001 653.111 657.419 651.064C657.514 650.399 657.514 649.724 657.419 649.059C664.724 647.655 669.464 639.825 677.962 640.954C679.018 641.091 680.823 636.891 678.701 636.11C671.058 633.282 666.761 624.058 657.25 625.061C656.015 622.855 649.67 623.235 654.315 617.79C655.856 615.985 654.199 610.202 649.385 610.793C640.476 611.848 642.249 607.395 644.266 602.351C644.857 600.863 645.205 599.259 645.786 597.76C648.34 591.143 646.651 600.356 647.992 598.351C648.551 598.928 649.263 599.334 650.044 599.521C650.826 599.708 651.645 599.668 652.405 599.406C653.914 598.857 653.46 597.38 653.46 596.24C653.281 592.631 654.051 588.399 652.405 585.571C651.283 583.732 650.797 581.575 651.025 579.433C651.252 577.291 652.178 575.283 653.661 573.72C658.622 568.771 653.017 568.148 651.645 565.795C654.284 566.164 657.609 568.18 659.129 564.845C660.111 562.734 658.073 560.307 656.025 558.777C654.463 557.595 652.859 556.445 651.296 555.284C650.241 554.988 648.942 554.967 648.129 554.344C646.599 553.194 645.089 550.841 643.284 552.751C642.122 553.986 642.798 556.497 643.854 558.27C647.021 558.977 648.203 554.629 651.36 555.315C649.248 559.051 651.655 562.513 652.014 566.101C649.396 568.401 645.796 560.908 643.03 567.314C642.027 569.636 638.079 565.858 634.184 568.243C627.924 572.105 619.595 572.528 611.899 571.652C605.312 570.913 598.661 570.195 593.9 564.264C592.106 562.017 588.295 561.415 592.021 557.584C592.982 556.603 591.24 554.555 589.636 554.123C581.19 551.843 574.856 544.118 565.303 544.372C564.068 544.372 561.903 544.921 561.471 541.269C569.694 543.137 577.115 541.702 583.344 536.13C584.019 537.565 584.758 538.969 585.328 540.446C586.141 542.557 584.22 545.723 587.44 546.683C590.659 547.643 592.475 546.176 594.016 543.116C595.558 540.056 598.64 538.568 602.198 540.414C604.415 541.575 606.167 541.311 606.853 538.895C607.539 536.478 605.882 535.032 603.591 535.233C596.814 535.834 589.868 534.304 583.228 536.489C585.339 532.858 587.587 529.745 592.602 530.294C596.18 530.695 599.886 530.98 603.982 528.658C602.504 523.814 599.537 522.791 594.481 522.527C588.559 522.221 587.651 519.087 592.444 515.467C596.265 512.565 594.344 511.013 592.771 508.734C592.074 507.679 591.071 506.623 589.836 507.267C589.365 507.574 588.967 507.979 588.668 508.454C588.369 508.93 588.177 509.464 588.105 510.021C588.02 511.858 589.752 514.475 586.88 514.981C584.769 515.351 586.099 512.311 585.149 511.467C584.421 510.823 582.383 510.496 581.824 511.003C574.888 517.335 573.473 511.52 570.76 506.402C584.6 508.681 584.6 508.681 586.162 500.724L585.909 501.115C586.87 498.276 591.768 494.139 583.671 494.266L585.128 489.126L593.045 480.156C590.005 478.394 587.302 479.935 584.463 480.895C575.711 483.881 575.69 483.829 573.505 474.879C578.625 476.589 580.145 469.782 584.959 470.732C580.135 469.012 575.553 467.862 573.505 474.025C567.235 473.951 560.89 476.294 554.377 473.465C558.42 470.922 562.167 469.075 567.044 469.782C570.211 470.236 569.05 467.271 568.955 465.456C571.774 465.825 574.561 466.384 577.4 466.511C578.405 466.507 579.391 466.249 580.268 465.759C581.145 465.27 581.884 464.567 582.415 463.714C582.985 462.902 582.415 462.269 581.75 461.699C579.184 459.588 578.583 462.617 577.052 463.271C574.43 464.207 571.741 464.944 569.008 465.477C567.836 465.371 566.58 463.947 565.503 465.677V465.593C564.448 462.627 565.556 459.145 563.329 456.454C564.595 457.689 566.496 458.417 567.351 456.855C568.206 455.293 566.179 453.794 564.859 453.562C562.611 453.182 562.357 454.618 563.466 456.348C559.243 458.807 554.947 461.002 549.742 459.176C548.338 458.691 548.138 458.818 545.319 462.796C544.443 464.01 543.641 463.852 542.659 463.704C540.463 463.377 538.222 463.828 536.325 464.981C536.325 467.904 540.273 467.26 539.133 471.123C533.221 468.326 529.062 471.904 524.787 475.713C527.616 477.982 530.297 480.251 533.116 482.33C534.963 483.702 534.551 485.253 533.316 486.351C532.081 487.448 532.134 491.184 529.315 489.147C523.098 484.641 519.561 493.854 513.966 491.817C509.638 498.687 502.523 494.846 496.759 496.186C495.777 496.418 494.204 494.825 493.434 495.184C481.072 501.051 467.475 502.634 454.617 506.708C453.921 506.919 453.741 508.818 453.33 509.874V509.789C448.674 502.719 445.686 501.083 438.973 504.755C435.056 506.866 431.203 507.499 427.149 508.502C422.283 509.715 421.871 508.987 423.212 504.143C424.267 500.386 418.271 504.143 417.363 500.671C419.728 495.078 424.954 498.212 428.796 497.083C431.235 496.376 434.075 494.529 431.815 492.039C429.556 489.548 434.106 484.926 428.353 484.493C421.132 483.955 423.792 488.261 425.038 492.377C417.648 490.129 410.945 487.227 403.925 492.218C402.035 493.569 397.961 493.622 395.818 492.503C389.674 489.337 384.733 489.337 379.191 493.991C376.774 496.017 372.942 494.529 370.06 490.097C381.609 489.802 390.507 480.346 402.299 484.061C404.136 484.641 406.427 484.398 406.342 483.491C405.72 477.043 415.506 477.001 414.08 469.772C408.992 468.358 403.123 468.579 398.393 465.392C396.208 463.915 393.115 462.554 395.796 458.839C397.317 456.728 395.796 451.536 401.022 453.562C404.854 455.019 409.161 449.341 412.845 455.251C416.118 460.464 417.068 459.852 421.143 458.016C424.732 456.38 427.899 451.504 433.019 455.747C433.642 456.253 437.642 453.805 435.827 450.861C434.539 448.75 430.696 448.191 434.022 444.275C435.151 442.925 431.023 440.962 429.978 442.408C426.125 447.779 422.367 444.465 418.366 443.136C412.866 441.321 407.651 440.793 405.128 447.8C404.727 448.855 403.798 450.407 402.626 449.679C399.987 448.053 398.974 443.347 394.181 447.631C389.959 451.452 384.754 454.639 383.625 460.295C382.305 466.828 378.346 468.738 371.442 469.107L381.281 471.123C377.196 474.816 371.622 472.779 368.782 476.399C366.523 479.28 356.748 474.067 361.023 483.66C354.478 484.04 349.506 491.279 342.085 487.955C337.862 486.055 333.83 486.309 328.731 489.475C340.216 491.416 350.699 492.081 360.918 495.806C355.397 497.917 346.867 493.559 346.318 503.7L346.455 503.194ZM651.254 366.003C652.357 365.767 653.438 365.435 654.484 365.011C655.719 364.42 657.567 363.681 655.762 362.014C655.213 361.507 653.048 361.676 652.721 362.193C652.003 363.375 651.972 364.979 651.666 366.415C648.731 365.876 645.68 367.47 642.798 365.971C637.942 368.874 631.651 365.001 627.048 369.412C625.433 370.963 623.986 372.947 625.992 374.329C630.817 377.728 636 375.153 640.877 373.907C645.754 372.662 642.524 368.631 642.84 365.929C647.147 373.074 647.147 373.074 651.254 366.003V366.003ZM319.779 483.048C319.826 483.54 319.974 484.018 320.212 484.451C320.45 484.885 320.774 485.265 321.165 485.569C321.555 485.873 322.003 486.095 322.482 486.22C322.96 486.346 323.459 486.372 323.949 486.298C325.458 486.055 327.939 486.488 328.425 483.723C325.437 481.75 322.46 482.393 319.483 483.375C320.201 479.027 317.372 480.135 315.039 480.515C313.74 480.726 312.632 481.57 313.455 482.963C314.849 485.369 316.77 484.346 318.597 483.417C318.977 483.263 319.368 483.14 319.768 483.048H319.779ZM493.518 479.787C492.304 478.869 491.228 477.549 489.866 477.096C487.839 476.431 486.203 476.895 486.108 479.744C486.002 483.153 487.86 482.098 489.686 481.707C491.164 481.37 492.853 481.443 493.223 479.46C496.39 479.375 499.694 479.649 500.855 475.238C497.255 475.133 493.033 473.465 493.508 479.787H493.518ZM753.853 390.001C751.741 390.444 748.575 388.798 747.973 392.185C747.466 395.151 750.654 394.127 752.196 394.95C753.737 395.773 755.12 397.895 757.421 396.28C758.033 392.924 754.191 392.185 753.494 389.621C755.204 389.304 758.297 390.433 757.516 387.173C757.062 385.252 753.98 384.228 752.438 385.431C750.053 387.246 754.877 387.901 753.842 390.001H753.853ZM954.005 305.038C952.801 302.748 951.893 300.131 948.41 300.764C948.41 297.745 949.465 294.548 946.488 291.772C944.725 295.761 941.39 298.727 940.883 303.149C937.98 307.169 934.549 304.299 931.192 304.099C929.693 304.014 927.761 305.091 927.867 306.906C927.962 308.436 929.746 310.283 931.034 309.766C935.615 307.961 941.411 310.04 945.053 305.397H945.697L945.823 304.774C948.695 305.038 951.577 305.893 954.427 304.658C952.843 306.473 951.133 308.193 949.729 310.145C949.557 310.396 949.446 310.683 949.407 310.985C949.368 311.286 949.402 311.593 949.505 311.878C949.608 312.164 949.778 312.421 950.001 312.628C950.224 312.835 950.492 312.986 950.785 313.069C953.635 313.734 956.549 313.406 957.816 310.283C959.177 306.916 957.868 304.943 953.973 305.038H954.005ZM680.443 568.538C680.369 565.562 683.884 567.768 684.518 565.71C685.151 563.652 689.331 563.399 687.537 560.191C687.083 559.399 685.584 558.946 684.507 558.798C681.498 558.397 679.978 560.339 679.672 562.903C679.45 564.76 680.116 566.734 680.39 568.591C678.648 565.088 676.347 562.259 671.945 563.536C670.826 563.842 666.878 562.164 669.126 566.248C670.034 567.916 669.126 571.831 672.831 570.216C675.344 569.108 677.392 566.818 680.432 568.538H680.443ZM935.668 315.264H932.374C926.104 314.757 923.18 319.337 919.833 323.39C917.722 325.912 918.841 327.526 920.889 329.352C923.845 332.022 925.703 331.463 927.223 327.896C927.624 326.956 928.87 326.366 929.735 325.627L932.723 327.305C935.742 326.64 938.983 327.178 941.78 325.447C943.353 324.477 943.997 321.912 942.994 321.743C931.868 319.918 944.535 316.372 942.266 313.966C939.753 312.784 937.906 315.105 935.657 315.306L935.668 315.264ZM592.739 291.677L603.876 279.784C600.044 278.592 596.909 281.726 596.064 281.515C588.59 279.541 589.73 283.098 591.504 287.583C592.084 289.029 592.56 290.527 593.014 291.952C588.284 289.303 583.745 287.963 579.29 293.957C583.323 294.39 586.384 294.369 589.414 295.392C592.443 296.416 592.042 293.345 592.739 291.677ZM621.442 238.806C625.274 237.15 628.283 241.624 632.168 241.096C631.914 237.445 632.073 234.184 627.702 235.693C625.513 236.613 623.395 237.696 621.368 238.933C623.575 234.712 621.97 229.435 626.647 225.499C613.979 225.657 613.388 226.491 618.497 235.145C619.373 236.446 620.359 237.671 621.442 238.806V238.806ZM113.99 454.47C116.724 453.763 119.764 453.573 122.129 452.233C125.528 450.301 125.38 446.428 123.829 443.663C122.393 441.131 119.606 442.861 117.347 443.727C111.678 445.953 113.641 450.512 113.969 454.512C110.443 452.401 107.308 447.842 102.135 452.264C105.935 456.306 110.379 452.739 113.979 454.47H113.99ZM124.388 247.038C132.685 245.107 131.281 237.171 134.343 231.957C130.224 235.518 126.455 239.465 123.089 243.745C121.812 245.339 122.72 246.658 124.715 247.069C123.364 249.106 119.722 249.961 121.348 253.929C124.43 252.335 125.422 250.161 124.377 247.038H124.388ZM605.185 250.52C595.684 247.513 596.128 255.797 591.462 261.242C603.422 258.076 603.422 258.076 604.773 250.183C606.061 248.959 607.941 248.072 606.463 245.655C606.051 244.969 605.871 243.798 605.544 244.157C604.881 244.858 604.435 245.737 604.259 246.686C604.083 247.635 604.184 248.615 604.552 249.507C604.73 249.864 604.942 250.204 605.185 250.52V250.52ZM873.321 381.833C867.663 381.506 865.161 386.434 861.456 389.22C860.263 390.117 861.16 392.597 862.828 393.135C865.995 394.19 867.927 391.985 869.975 389.843C872.287 387.426 877.164 386.276 873.078 381.569C875.264 381.717 878.05 383.342 878.779 379.701C878.725 379.138 878.525 378.599 878.199 378.136C877.874 377.674 877.433 377.304 876.921 377.063C873.247 376.546 873.553 379.448 873.29 381.78L873.321 381.833ZM669.147 338.048C663.943 334.882 660.512 338.481 656.384 340.876C652.077 343.367 654.273 346.638 653.597 349.319C661.293 348.58 665.083 343.187 668.915 337.837C669.876 335.104 677.909 337.731 673.908 331.241C674.626 326.724 678.564 327.727 681.425 326.83C689.31 324.329 691.242 321.036 689.68 313.427C688.888 309.533 686.639 306.853 683.272 309.839C679.904 312.826 676.262 312.056 671.322 312.098C679.503 316.435 679.334 316.319 674.837 320.54C672.726 322.514 670.044 323.273 669.158 327.41C667.585 334.681 671.09 331.843 674.077 331.167C672.8 333.679 666.698 332.835 669.115 337.995L669.147 338.048ZM585.55 404.532C590.617 407.973 594.871 412.669 600.994 414.463C594.439 415.835 588.105 419.191 581.222 414.547C576.788 411.561 572.439 415.276 571.52 418.674C569.905 424.636 577.421 419.813 578.635 422.979C575.342 429.132 568.016 429.375 562.326 434.208L575.754 434.968L575.49 434.672C568.765 438.735 561.851 441.12 554.683 435.865C550.714 432.963 548.908 436.245 546.586 438.229C543.166 441.131 546.079 443.22 547.705 445.236C549.985 448.075 552.022 450.966 551.674 456.95C558.451 447.747 565.704 447.842 573.157 450.006C576.661 451.061 577.865 449.32 580.546 447.42C590.047 440.561 593.214 440.033 603.771 439.115C602.894 436.857 600.319 436.139 600.182 432.783C599.939 426.726 607.349 428.562 608.289 424.193C605.565 422.821 603.095 426.092 600.899 423.138C601.807 420.489 604.446 420.636 606.505 419.613C612.037 416.858 606.927 416.078 605.344 414.674C597.954 400.069 596.275 398.918 583.618 399.646C583.618 401.62 587.06 401.926 586.025 404.522C585.561 407.266 582.32 405.028 581.496 407.129C584.146 407.709 586.68 411.888 589.171 409.165C590.828 407.234 587.44 405.577 585.55 404.459V404.532ZM759.363 265.295C756.956 262.129 754.307 260.018 750.243 262.846C746.178 265.675 746.368 269.442 748.437 273.4C746.506 273.473 744.426 272.344 742.621 274.012C753.251 278.708 753.177 278.602 768.263 268.735C772.485 265.981 772.39 262.604 771.82 258.182C766.119 258.794 761.844 260.43 759.363 265.295ZM575.099 256.852C581.074 254.035 584.399 248.547 588.432 243.735C592.19 239.239 597.088 235.63 598.989 229.741C603.813 229.509 608.321 228.401 612.322 225.298C609.461 223.684 606.061 225.699 603.528 222.555C601.48 220.011 599.168 222.998 597.658 224.317C594.565 227.019 599.094 228.021 599.379 230.068C596.022 229.878 591.99 230.67 590.427 232.865C585.793 239.292 579.871 239.197 573.062 237.287C577.611 240.748 581.359 243.724 576.387 249.117C574.17 251.523 575.226 254.393 575.469 257.19C567.023 260.947 566.844 261.137 565.968 269.97C572.819 268.26 572.946 261.854 575.099 256.852ZM870.682 262.424C865.309 261.939 867.515 269.727 862.638 269.811C862.342 269.811 853.137 279.309 852.894 279.668C851.67 281.42 848.387 283.066 851.934 285.282C854.816 287.097 857.708 288.343 859.323 283.024C859.893 281.093 863.936 278.718 866.058 279.014C873.004 279.964 871.727 275.32 871.674 271.722C871.458 268.53 871.028 265.357 870.386 262.224C873.142 261.907 876.837 262.097 875.665 257.844C874.715 254.288 870.893 256.113 869.574 256.958C866.607 258.815 868.75 260.862 870.64 262.435L870.682 262.424ZM639.863 504.513C637.171 495.426 628.441 492.482 623.722 485.707C622.667 484.135 619.911 483.301 618.444 485.232C615.024 489.675 611.382 489.242 606.895 487.121C606.156 486.783 602.388 486.826 602.24 490.488C601.955 497.632 603.697 500.059 610.432 498.529C621.136 496.102 630.943 496.851 639.821 504.523L639.863 504.513ZM672.135 451.24C669.601 449.552 645.68 448.739 643.706 449.13C640.824 449.636 637.71 449.932 638.333 454.016C638.934 457.878 638.512 462.701 643.928 463.514C646.229 463.873 649.744 465.055 648.668 459.641C648.193 457.277 649.079 450.987 652.721 452.644C659.921 455.947 665.326 447.22 672.114 451.251L672.135 451.24ZM687.357 333.964C694.504 334.713 698.473 334.101 700.848 327.569C702.706 322.44 707.805 318.831 712.978 316.087C717.341 313.891 720.961 310.459 723.387 306.22C724.358 304.457 723.978 303.054 722.331 302.188C721.453 301.697 720.458 301.452 719.452 301.481C718.446 301.51 717.467 301.812 716.618 302.353C715.77 302.895 715.084 303.656 714.635 304.556C714.185 305.457 713.988 306.462 714.065 307.465C714.065 310.04 713.738 311.591 711.468 311.401C707.246 311.063 705.135 315.105 701.725 315.622C696.985 316.287 699.877 320.994 698.558 321.606C693.28 323.981 692.097 329.5 687.315 333.974L687.357 333.964ZM467.486 404.406C460.54 413.123 454.459 420.352 446.425 425.417C446.13 425.607 446.098 426.145 445.866 426.472C444.81 428.045 444.81 429.638 446.552 430.409C447.471 430.841 449.519 430.778 449.877 430.208C454.026 423.465 460.719 423.961 468.774 424.341C463.094 417.882 470.484 412.711 467.444 404.416L467.486 404.406ZM543.725 319.116C547.43 320.171 550.386 320.741 551.833 318.778C554.461 315.2 557.512 315.317 561.333 315.612C566.865 316.034 572.397 316.14 574.835 309.048C575.543 306.937 578.857 305.808 582.003 303.465C578.836 302.969 576.788 300.595 574.751 303.571C572.639 306.737 568.765 307.634 566.306 310.283C563.139 313.755 559.507 311.739 558.842 309.322C557.343 303.93 555.084 305.502 553.405 308.267C550.839 312.434 547.546 316.109 543.683 319.116H543.725ZM40.3263 516.596C38.5106 515.129 36.3781 516.976 35.5336 519.266C34.2246 522.865 37.6449 523.371 39.7562 523.16C43.8733 522.759 44.1899 527.846 47.5997 527.941C50.1227 528.014 53.8177 530.473 54.6727 526.358C55.2533 523.561 55.2427 519.53 50.904 518.506C47.7793 517.799 44.6228 517.377 40.2841 516.607L40.3263 516.596ZM903.734 343.525C899.227 345.551 895.944 348.664 895.437 353.867C895.004 358.299 899.311 361.634 902.299 358.785C905.719 355.503 911.388 353.909 912.855 348.232C907.788 346.49 907.313 355.249 901.518 351.155C904.199 349.266 906.163 346.807 903.692 343.557L903.734 343.525ZM500.665 483.765C508.751 483.406 515.444 484.166 522.211 482.562C521.852 481.723 521.593 480.845 521.44 479.945C521.25 475.418 517.862 473.814 514.389 473.033C510.409 472.157 509.554 476.726 509.226 478.52C508.245 483.639 503.948 480.283 500.623 483.797L500.665 483.765ZM252.228 113.794C262.13 113.288 262.203 103.822 267.809 100.265C269.614 99.1148 271.831 98.0384 270.037 95.9595C268.242 93.8805 266.046 94.9041 263.871 96.6876C258.414 101.141 253.948 106.048 252.185 113.826L252.228 113.794ZM266.025 428.488C275.104 430.863 283.084 426.282 291.572 425.955C292.469 425.955 293.609 424.573 294.137 423.56C295.055 421.808 295.699 419.75 294.042 418.03C292.68 416.605 291.002 417.08 289.819 418.251C283.063 424.784 273.752 424.784 265.983 428.52L266.025 428.488ZM834.294 301.429C826.165 303.687 823.019 309.987 818.459 316.403C828.551 316.055 835.107 313.406 834.251 301.46L834.294 301.429ZM833.449 421.28C838.062 418.674 844.892 420.14 846.867 413.408C847.764 410.358 846.719 408.627 843.478 409.419C837.703 410.864 833.724 414.231 833.407 421.312L833.449 421.28ZM252.418 459.05C261.158 467.313 265.181 467.492 271.082 460.527C271.937 459.472 272.781 458.638 271.799 457.625C271.06 456.855 269.012 456.011 268.801 456.264C264.357 461.403 258.297 458.818 252.375 459.082L252.418 459.05ZM488.272 393.41C483.764 394.19 477.715 391.109 475.762 395.267C472.236 402.654 466.852 394.032 462.873 399.15C467.919 399.15 471.212 405.05 476.459 402.464C480.787 400.375 484.324 396.523 488.229 393.441L488.272 393.41ZM921.522 334.523C919.844 337.109 914.492 337.89 915.632 339.019C920.403 343.768 919.305 348.833 918.651 354.3C918.292 357.223 921.279 356.927 922.874 356.948C925.481 356.948 926.42 355.197 924.847 352.97C920.973 347.546 921.712 341.277 921.48 334.555L921.522 334.523ZM634.849 483.491C638.016 482.963 642.365 483.67 641.89 478.067C641.721 476.009 640.835 474.014 638.216 474.447C634.606 475.048 630.658 476.04 629.771 479.998C629.032 483.121 631.999 483.575 634.849 483.491ZM426.643 428.277C430.095 434.925 437.78 430.789 440.24 436.656C440.313 436.846 441.812 436.656 442.435 436.319C443.491 435.717 444.546 434.356 443.311 433.511C440.788 431.738 441.759 428.024 439.553 426.652C437.347 425.28 435.077 427.253 432.839 428.119C431.224 428.731 429.176 428.256 426.643 428.277ZM255.131 452.802C251.964 450.808 253.589 445.415 248.892 445.109C243.994 444.856 249.071 451.135 244.901 452.021C242.611 452.507 243.107 453.942 245.165 455.821C247.509 453.256 251.372 455.114 255.131 452.802ZM45.784 533.344C40.0095 527.339 34.0136 525.672 27.458 532.774C33.9291 534.483 39.7773 531.233 45.784 533.344ZM625.654 502.318C620.302 508.206 614.433 504.101 608.521 504.059C611.118 513.462 618.529 506.296 622.941 509.209C624.187 510.053 625.665 506.169 625.665 502.328L625.654 502.318ZM625.654 417.998C627.892 415.054 617.209 412.088 626.763 410.516C627.818 410.337 629.508 410.326 629.191 408.733C629.064 408.11 627.459 407.582 626.446 407.361C622.35 406.506 618.898 407.92 618.486 412.141C618.011 416.605 621.738 417.692 625.665 418.009L625.654 417.998ZM544.844 288.585C552.466 290.2 553.775 283.784 558.937 281.283C550.217 281.789 550.207 281.779 544.802 288.596L544.844 288.585ZM646.989 497.685C648.868 489.791 647.939 488.641 646.63 489.696C643.347 492.366 638.755 485.728 637.478 490.667C636.422 494.888 642.756 492.778 644.403 495.521C644.878 496.408 645.986 496.914 646.947 497.695L646.989 497.685ZM626.488 537.649C621.21 537.449 616.343 535.539 610.02 534.125C617.357 542.335 617.357 542.335 626.446 537.66L626.488 537.649ZM729.752 391.341C734.471 388.418 738.25 387.711 741.006 383.796C734.028 380.598 732.465 385.094 729.71 391.352L729.752 391.341ZM842.38 391.141C843.995 391.206 845.612 391.185 847.225 391.077C852.757 390.465 853.559 389.178 847.743 387.004C847.405 386.877 847.31 385.748 847.32 385.083C847.32 384.028 851.163 384.228 848.439 382.149C848.069 382.027 847.674 382.002 847.292 382.076C846.909 382.15 846.552 382.32 846.254 382.571C844.175 385.011 842.818 387.982 842.338 391.151L842.38 391.141ZM459.79 487.343C463.042 487.343 465.923 487.902 465.976 484.451C465.976 481.802 463.527 481.855 461.564 481.591C459.969 481.461 458.387 481.199 456.834 480.81C456.573 480.688 456.285 480.633 455.997 480.651C455.71 480.669 455.431 480.76 455.188 480.915C454.944 481.07 454.744 481.284 454.606 481.537C454.467 481.789 454.395 482.073 454.396 482.362C454.258 483.417 454.396 485.222 455.124 485.644C456.588 486.403 458.142 486.977 459.748 487.353L459.79 487.343ZM589.255 270.139C588.569 267.817 587.018 268.028 585.413 268.165C581.76 268.492 581.074 270.561 581.686 273.822C582.045 275.711 582.742 276.914 584.663 276.143C585.898 275.657 586.976 274.841 587.778 273.784C588.581 272.726 589.077 271.469 589.213 270.149L589.255 270.139ZM599.094 336.18C594.935 335.979 590.142 333.267 585.92 338.438C591.198 340.496 595.368 340.802 599.052 336.191L599.094 336.18ZM771.102 348.738L773.055 350.49C776.423 346.997 783.274 346.839 783.242 337.499L771.102 348.738ZM126.637 472.494C124.673 472.663 123.406 473.94 123.702 475.481C124.198 478.003 126.067 479.259 128.832 478.964C130.616 478.763 132.2 477.739 131.841 476.199C131.218 473.74 128.684 473.128 126.594 472.505L126.637 472.494ZM490.837 421.702C494.542 424.056 498.427 426.705 503.748 422.61C499.596 421.103 495.104 420.792 490.784 421.713L490.837 421.702ZM323.843 447.864L307.903 449.056C313.445 454.195 317.488 454.28 323.843 447.864ZM64.1525 458.533C58.2936 457.594 63.0967 455.092 63.2128 453.161C63.2656 451.547 61.8828 451.832 61.0067 452.644C58.2831 455.166 58.8953 458.892 62.284 460.031C62.8857 460.179 64.617 460.527 64.1313 458.522L64.1525 458.533ZM672.293 219.853C669.411 217.183 667.427 217.658 665.495 218.017C663.774 218.354 662.328 219.304 662.623 221.183C663.193 224.897 665.452 222.618 667.025 222.132C668.812 221.458 670.563 220.694 672.272 219.843L672.293 219.853ZM503.009 458.934C497.868 453.868 495.376 457.277 490.203 461.044L503.009 458.934ZM886.211 255.86C885.725 250.447 885.419 247.08 885.039 242.859C879.528 247.407 880.162 250.816 886.179 255.85L886.211 255.86ZM884.004 370.077C884.933 366.362 890.338 365.929 889.409 360.895C889.21 360.576 888.934 360.311 888.605 360.127C888.277 359.942 887.907 359.844 887.53 359.84C883.413 361.328 881.703 364.441 882.094 368.726C882.072 368.926 882.664 369.137 883.973 370.066L884.004 370.077ZM613.936 514.654L604.51 518.738C609.471 522.675 612.575 520.543 613.905 514.675L613.936 514.654ZM872.688 405.493C874.324 404.585 877.502 404.617 877.776 401.05C877.892 399.425 876.435 399.636 875.242 399.583C872.287 399.478 869.669 399.921 869.352 403.498C869.257 404.891 870.703 405.218 872.688 405.493ZM718.995 536.774C723.714 530.684 723.714 530.684 715.311 528.331L718.995 536.774ZM740.372 535.454C738.345 531.233 735.432 530.589 733.31 529.049C731.874 527.993 730.354 529.281 729.53 530.79C728.475 532.742 729.615 533.84 731.304 534.188C733.901 534.737 736.508 534.948 740.404 535.454H740.372ZM569.905 414.262C570.306 412.004 569.335 410.991 567.467 410.696C564.933 410.294 563.772 411.561 563.571 413.956C563.413 415.782 564.12 417.186 565.968 417.481C568.586 417.903 569.304 415.898 569.937 414.262H569.905ZM610.02 565.837C613.826 567.196 618.002 567.094 621.738 565.552C617.462 560.845 613.947 561.616 610.041 565.837H610.02ZM616.175 284.934L614.148 282.823C610.717 285.694 607.296 288.585 601.849 293.155C610.316 292.501 612.902 288.227 616.164 284.934H616.175ZM430.369 419.856C426.949 419.317 423.476 417.471 419.96 420.151C423.391 423.855 426.896 422.082 430.369 419.856ZM762.393 493.442C760.461 492.588 759.68 493.442 758.73 494.16C755.658 496.355 755.078 498.93 757.748 498.835C761.475 498.687 761.633 495.922 762.372 493.442H762.393ZM867.167 410.759C867.631 409.102 866.385 408.648 865.277 408.469C862.585 408.015 860.769 409.303 859.893 411.783C859.471 412.954 859.777 414.231 861.361 414.009C863.641 413.682 866.037 413.313 867.146 410.759H867.167ZM782.799 213.764C787.359 216.413 790.379 217.215 796.237 213.985C790.727 215.178 788.689 211.389 782.778 213.764H782.799ZM701.957 298.368C696.932 296.891 694.42 299.951 690.788 301.26C695.707 303.919 700.099 306.505 701.936 298.368H701.957ZM651.592 476.251C649.723 476.251 648.425 476.959 648.657 478.9C648.701 479.677 649.01 480.415 649.533 480.991C650.055 481.567 650.76 481.947 651.528 482.066C654.115 482.288 652.521 479.776 653.407 478.679C655.287 476.357 652.785 476.621 651.571 476.251H651.592ZM804.313 317.754C804.577 315.928 804.313 314.514 802.149 314.588C799.985 314.662 799.837 316.351 799.447 317.881C798.919 319.991 800.016 320.646 801.832 320.73C804.07 320.846 804.334 319.379 804.292 317.754H804.313ZM607.719 514.348C605.28 510.127 602.504 509.072 599.178 509.62C598.809 509.62 598.271 512.027 598.661 512.955C600.466 517.134 603.75 515.097 607.719 514.348ZM134.343 449.974C134.265 449.149 133.873 448.386 133.249 447.842C132.624 447.298 131.814 447.015 130.986 447.051C129.107 447.051 128.716 448.972 128.114 450.217C127.513 451.462 128.716 452.475 129.888 452.454C131.757 452.486 133.731 452.169 134.343 449.974ZM174.553 458.849C172.6 457.161 171.386 456.232 170.33 455.124C169.084 453.826 168.377 451.557 165.126 453.362C167.511 455.694 168.567 459.229 174.553 458.881V458.849ZM312.041 468.98C312.121 468.699 312.139 468.403 312.091 468.113C312.043 467.824 311.932 467.549 311.766 467.308C311.599 467.067 311.382 466.866 311.128 466.719C310.874 466.572 310.591 466.483 310.299 466.458C308.272 465.92 306.499 466.458 305.549 468.442C304.725 470.183 306.256 470.363 307.259 470.458C309.022 470.637 311.08 471.302 312.041 468.97V468.98ZM233.817 138.953C232.687 137.781 235.78 134.478 231.853 134.985C228.792 135.365 228.803 138.394 228.064 140.557C227.684 141.686 228.222 143.353 229.763 142.604C231.304 141.855 235.675 143.565 233.817 138.985V138.953ZM175.513 475.006C171.153 471.165 167.934 471.091 164.418 473.56C167.902 472.727 170.372 476.769 175.513 475.038V475.006ZM421.122 476.98C423.845 476.98 424.426 475.344 424.415 473.74C424.405 472.136 423.55 470.088 421.67 470.405C418.398 470.954 421.67 472.684 421.364 473.824C421.058 474.964 418.546 476.283 421.122 477.011V476.98ZM453.425 475.513C453.118 474.225 452.369 473.265 450.997 473.402C449.339 473.624 447.682 474.626 447.502 476.157C447.302 477.961 448.98 478.869 450.669 478.689C451.061 478.675 451.445 478.581 451.799 478.413C452.153 478.245 452.468 478.006 452.726 477.712C452.985 477.417 453.18 477.073 453.3 476.7C453.42 476.328 453.462 475.934 453.425 475.544V475.513ZM935.341 285.557C937.579 285.557 939.173 290.052 942.097 285.842C939.785 285.166 937.906 283.604 935.341 285.588V285.557ZM164.577 484.609C166.688 488.63 169.686 488.978 173.803 487.269C171.459 483.132 168.567 482.689 164.577 484.641V484.609ZM446.436 485.939C445.032 485.19 443.47 484.219 441.791 483.501C441.538 483.354 441.251 483.277 440.958 483.276C440.666 483.276 440.378 483.353 440.125 483.5C439.872 483.647 439.662 483.858 439.517 484.113C439.372 484.367 439.297 484.655 439.3 484.947C439.416 487.396 441.865 487.575 443.522 488.293C444.62 488.81 445.708 488.071 446.394 485.971L446.436 485.939ZM611.276 382.519C607.613 384.693 604.298 386.149 606.082 390.718C606.853 387.626 612.047 388.017 611.234 382.54L611.276 382.519ZM611.276 258.889C609.883 259.079 607.782 258.794 608.194 261.105C608.399 262.063 608.889 262.937 609.599 263.613C610.309 264.289 611.206 264.735 612.174 264.894C612.649 264.989 613.683 263.427 614.137 262.477C615.457 259.628 613.303 259.301 611.245 258.963L611.276 258.889ZM540.97 296.775C544.717 295.835 546.755 294.316 547.304 290.221C544.886 292.247 541.698 292.047 540.938 296.796L540.97 296.775ZM626.721 523.012C624.208 523.92 621.622 520.406 618.898 523.835C621.664 525.608 624.219 526.938 626.721 523.012ZM664.091 602.994C667.173 601.105 668.567 598.541 668.672 594.193C663.816 596.494 664.925 600.345 664.091 602.994ZM777.5 501.463C776.666 503.763 775.325 506.507 777.879 507.731C779.442 508.481 782.356 507.805 783.496 504.681L777.5 501.463ZM28.1652 502.655C24.1642 501.231 21.6202 501.484 18.981 504.481C22.6864 505.178 25.2093 504.85 28.1652 502.655ZM841.124 334.945C841.912 334.968 842.687 334.742 843.34 334.301C843.994 333.86 844.492 333.226 844.766 332.486C845.241 331.357 844.037 330.312 842.897 330.08C841.029 329.679 840.1 331.083 839.551 332.539C839.076 333.827 839.804 334.66 841.124 334.945ZM896.144 340.686C893.305 339.736 892.893 341.15 892.07 341.879C890.507 343.272 889.23 345.583 892.006 346.015C895.194 346.554 895.384 343.061 896.144 340.686ZM558.61 265.474C558.335 264.567 557.649 264.545 556.784 264.366C554.904 263.976 553.004 262.825 551.695 265.189C551.463 265.611 552.054 267.004 552.118 266.994C553.986 266.719 555.834 266.339 557.67 265.938C558 265.82 558.315 265.664 558.61 265.474V265.474ZM648.34 360.568C648.161 357.761 646.725 356.104 643.854 356.157C642.798 356.157 641.257 356.537 641.911 358.268C642.661 360.241 644.498 361.17 646.218 362.13C647.939 363.09 647.95 361.529 648.351 360.568H648.34ZM475.899 373.749C474.126 373.675 472.458 374.287 473.081 376.25C473.368 377.016 473.913 377.657 474.622 378.066C475.33 378.474 476.159 378.623 476.965 378.487C478.528 378.202 480.365 377.168 480.038 375.554C479.71 373.939 477.441 374.108 475.91 373.749H475.899ZM727.979 376.398C728.718 377.327 728.897 377.77 729.214 377.907C731.009 378.72 732.75 380.281 734.851 379.353C735.121 379.231 735.358 379.047 735.544 378.816C735.73 378.586 735.859 378.314 735.92 378.025C735.982 377.735 735.975 377.435 735.899 377.149C735.823 376.863 735.681 376.598 735.485 376.377C733.869 374.847 731.674 375.522 729.678 375.712C729.095 375.886 728.529 376.116 727.989 376.398H727.979ZM840.849 394.222C843.214 396.502 844.206 398.939 846.961 398.443C847.27 398.276 847.53 398.032 847.715 397.734C847.9 397.436 848.004 397.095 848.017 396.744C847.278 393.642 844.766 394.148 840.86 394.222H840.849ZM614.866 399.499C613.81 398.011 612.205 397.968 610.643 398.211C609.587 398.359 607.972 398.475 608.848 400.322C609.136 400.931 609.611 401.432 610.204 401.753C610.796 402.074 611.476 402.197 612.143 402.105C612.811 402.013 613.432 401.711 613.916 401.242C614.399 400.774 614.721 400.163 614.834 399.499H614.866ZM216.884 437.806C215.776 436.392 214.118 436.456 212.609 436.403C210.856 436.35 210.804 437.606 211.553 438.661C212.609 440.181 214.256 439.843 215.776 439.368C216.831 439.094 217.201 438.619 216.895 437.817L216.884 437.806ZM261.781 452.201C261.84 452.595 261.972 452.975 262.172 453.32C262.82 454.07 263.68 454.607 264.639 454.86C265.598 455.112 266.611 455.068 267.545 454.734C268.601 454.428 270.311 453.678 269.255 452.475C268.4 451.515 266.426 451.42 264.917 451.188C263.787 451.03 262.52 450.935 261.792 452.211L261.781 452.201ZM467.116 454.512C469.006 454.364 470.22 453.721 470.114 452.401C469.924 450.164 468.003 450.607 466.567 450.839C465.343 451.051 464.203 452.032 464.741 453.235C465.09 454.037 466.599 454.269 467.127 454.523L467.116 454.512ZM331.306 465.804C331.185 465.957 331.109 466.141 331.086 466.335C331.063 466.528 331.094 466.725 331.176 466.902C331.258 467.079 331.388 467.23 331.551 467.338C331.714 467.446 331.903 467.507 332.098 467.513C333.682 467.819 335.265 467.809 336.321 466.226C337.165 464.907 336.564 464.115 335.202 463.852C334.426 463.658 333.607 463.749 332.893 464.107C332.178 464.465 331.616 465.067 331.306 465.804V465.804ZM767.661 467.914C767.08 466.025 766.13 464.358 764.093 463.82C763.311 463.63 761.126 463.356 762.953 465.202C764.23 466.5 763.903 469.17 766.384 469.286C766.785 469.265 767.217 468.368 767.661 467.914V467.914ZM475.847 474.046C479.014 473.983 482.265 474.046 485.02 471.038C480.671 469.065 478.338 471.787 475.847 474.014V474.046ZM775.261 231.25C775.81 230.269 775.536 229.456 774.47 229.488C773.404 229.52 771.809 229.689 771.303 230.396C770.511 231.451 771.408 232.675 772.675 233.044C774.079 233.414 774.755 232.358 775.261 231.219V231.25ZM476.079 495.954C478.306 495.954 479.573 494.814 479.742 493.284C479.89 492.081 478.201 491.627 477.261 492.092C475.952 492.757 474.263 493.748 473.904 494.941C473.545 496.133 475.456 495.87 476.079 495.954ZM509.416 492.113C508.963 491.285 508.221 490.651 507.333 490.333C506.444 490.014 505.469 490.031 504.592 490.382C504.196 490.727 503.892 491.166 503.708 491.658C503.524 492.149 503.465 492.679 503.536 493.2C503.989 493.835 504.642 494.3 505.39 494.52C506.139 494.74 506.939 494.702 507.664 494.413C508.593 494.128 510.092 494.002 509.416 492.113V492.113ZM448.642 494.973C446.151 494.171 445.085 491.522 442.309 492.377C441.253 492.693 441.253 493.432 441.939 494.234C443.628 496.302 445.602 496.798 448.642 494.973V494.973ZM454.111 496.893C453.835 496.885 453.56 496.938 453.307 497.048C453.054 497.158 452.828 497.323 452.647 497.531C452.465 497.739 452.331 497.985 452.256 498.25C452.181 498.516 452.165 498.795 452.21 499.067C452.266 499.419 452.402 499.752 452.607 500.043C452.812 500.334 453.081 500.574 453.393 500.745C454.522 501.115 455.663 500.745 455.779 499.31C455.869 498.77 455.745 498.215 455.434 497.764C455.123 497.313 454.648 497.001 454.111 496.893V496.893ZM668.767 493.654C667.817 494.35 666.55 494.814 666.139 495.68C665.178 497.727 667.194 497.094 667.954 497.136C669.073 497.136 670.33 496.798 670.245 495.331C670.224 494.804 669.401 494.297 668.767 493.654V493.654ZM798.613 94.1548C798 93.0995 797.198 92.2765 795.995 93.3318C795.231 94.1053 794.525 94.9342 793.883 95.8117C794.893 96.111 795.935 96.2847 796.987 96.3288C798.095 96.2549 799.067 95.6428 798.613 94.1548ZM618.096 527.74C617.346 527.93 616.111 527.951 615.985 528.373C615.436 529.851 616.861 530.241 617.832 530.558C618.392 530.748 619.637 530.494 619.722 530.188C619.975 528.954 619.616 527.877 618.043 527.74H618.096ZM655.287 186.874C657.313 187.033 657.493 185.65 657.398 184.627C657.208 183.524 656.852 182.457 656.342 181.461C655.656 182.305 654.579 183.065 654.389 184.004C654.199 184.943 654.928 185.988 655.223 186.864L655.287 186.874ZM685.531 194.663C683.304 193.913 682.522 193.365 681.942 193.512C680.348 193.945 678.595 194.789 678.405 196.457C678.268 197.765 679.904 198.092 680.992 197.586C682.543 196.697 684.042 195.717 685.478 194.652L685.531 194.663ZM668.64 199.032L665.737 196.404C665.653 197.069 665.273 197.913 665.547 198.346C666.164 199.28 666.947 200.092 667.859 200.741C668.377 201.142 668.809 200.572 668.598 199.021L668.64 199.032ZM515.296 202.314C514.98 201.607 514.684 200.33 514.346 200.319C513.556 200.228 512.756 200.381 512.056 200.759C511.355 201.136 510.788 201.719 510.43 202.43C510.25 202.852 510.958 204.087 511.486 204.329C513.438 205.142 514.251 203.464 515.254 202.303L515.296 202.314ZM609.556 216.877C609.611 216.584 609.606 216.283 609.541 215.993C609.476 215.702 609.353 215.427 609.178 215.186C609.003 214.945 608.78 214.742 608.524 214.59C608.268 214.438 607.983 214.34 607.687 214.302C606.294 214.302 604.393 214.809 603.633 215.801C602.525 217.246 604.32 217.616 605.386 217.837C606.843 218.143 608.405 218.365 609.513 216.866L609.556 216.877ZM542.722 218.988C544.063 220.887 545.509 222.512 548.085 221.33C548.231 221.031 548.307 220.703 548.307 220.37C548.307 220.037 548.231 219.709 548.085 219.41C546.491 217.806 544.601 217.911 542.68 218.935L542.722 218.988ZM685.13 221.098C684.898 220.423 684.792 219.262 684.412 219.157C682.427 218.618 681.773 220.381 680.907 221.605C680.042 222.829 680.358 223.715 681.836 223.905C683.726 224 684.233 222.238 685.088 220.972L685.13 221.098ZM791.751 222.439C791.434 221.784 791.286 220.898 790.769 220.528C790.561 220.333 790.307 220.193 790.031 220.12C789.755 220.047 789.465 220.044 789.188 220.111C788.91 220.178 788.654 220.313 788.441 220.504C788.229 220.694 788.068 220.935 787.972 221.204C787.925 221.546 787.966 221.894 788.092 222.215C788.218 222.536 788.423 222.82 788.689 223.04C789.192 223.279 789.761 223.34 790.303 223.211C790.844 223.083 791.325 222.773 791.666 222.333L791.751 222.439ZM473.25 236.031C470.262 235.978 467.707 234.1 465.153 237.793C467.971 238.5 470.484 239.577 473.165 235.925L473.25 236.031ZM482.613 244.663C483.775 244.442 484.946 244.167 484.418 242.553C484.263 242.016 483.913 241.556 483.436 241.264C482.96 240.971 482.392 240.866 481.843 240.97C480.608 241.128 479.615 241.793 479.974 243.186C480.206 244.305 481.368 244.558 482.529 244.558L482.613 244.663ZM643.854 248.325C643.115 247.703 642.545 246.89 642.154 246.964C641.142 247.253 640.165 247.653 639.241 248.156C639.684 248.589 640.17 249.412 640.55 249.36C641.659 249.089 642.737 248.707 643.769 248.22L643.854 248.325ZM658.844 579.313L655.857 577.203C655.614 577.899 654.97 578.996 655.181 579.186C656.188 580.226 657.389 581.058 658.717 581.635C659.361 581.814 659.72 580.833 658.76 579.208L658.844 579.313ZM756.566 258.224C757.22 257.886 758.857 257.507 758.962 256.884C759.031 256.518 759.024 256.142 758.939 255.779C758.855 255.416 758.696 255.075 758.473 254.778C758.249 254.48 757.966 254.232 757.641 254.049C757.317 253.867 756.958 253.754 756.587 253.718C756.057 253.717 755.535 253.846 755.066 254.092C754.597 254.339 754.195 254.696 753.895 255.132C753.336 256.778 754.455 257.802 756.566 258.224ZM994.088 259.068C995.429 258.762 997.445 259.364 997.371 256.958C997.371 256.504 996.146 255.607 995.692 255.734C994.267 256.092 992.61 256.409 992.103 258.14C992.738 258.504 993.401 258.815 994.088 259.068V259.068ZM628.051 268.756C629.507 268.619 630.025 267.469 630.405 266.35C630.869 264.999 630.246 264.071 628.79 264.239C628.174 264.249 627.58 264.472 627.11 264.87C626.641 265.269 626.324 265.818 626.214 266.424C626.147 266.702 626.144 266.991 626.205 267.27C626.266 267.549 626.389 267.811 626.566 268.036C626.743 268.26 626.968 268.442 627.225 268.567C627.483 268.691 627.765 268.756 628.051 268.756V268.756ZM779.146 306.177C780.371 306.241 781.49 306.082 781.806 304.7C782.028 303.708 781.522 303.138 780.677 303.486C779.674 303.976 778.707 304.537 777.785 305.164L779.146 306.177ZM685.742 644.331C681.667 643.666 679.292 643.487 676.526 645.65C679.894 646.737 682.227 646.737 685.742 644.331V644.331ZM510.124 341.277C509.733 340.042 508.846 339.166 507.632 339.525C506.65 339.852 505.394 340.844 505.246 341.71C505.13 342.385 506.429 343.82 507.273 344.031C509.1 344.316 509.638 342.638 510.124 341.277ZM667.247 360.378C668.025 360.244 668.732 359.842 669.246 359.243C669.76 358.645 670.05 357.885 670.066 357.096C670.066 356.452 669.496 355.323 669.01 355.207C667.142 354.796 666.181 356.03 665.843 357.708C665.685 358.241 665.744 358.815 666.007 359.306C666.27 359.796 666.715 360.162 667.247 360.326V360.378ZM645.078 386.761C645.934 386.223 646.707 385.562 647.369 384.798C647.486 384.638 647.548 384.445 647.548 384.247C647.547 384.049 647.483 383.857 647.365 383.698C647.247 383.539 647.082 383.421 646.893 383.363C646.703 383.305 646.501 383.308 646.314 383.373C645.057 383.553 643.146 383.11 643.22 385.241C643.21 385.664 644.234 386.107 645.026 386.729L645.078 386.761ZM592.686 393.526C593.016 394.126 593.563 394.576 594.215 394.784C594.868 394.992 595.575 394.942 596.191 394.644C597.479 394.085 599.115 393.156 598.862 391.573C598.693 390.592 597.057 390.254 595.99 390.93C594.826 391.723 593.706 392.579 592.633 393.494L592.686 393.526ZM457.563 398.971C458.257 398.772 458.941 398.536 459.611 398.264C459.157 396.322 457.035 397.145 455.969 396.153C455.114 395.341 454.375 395.467 454.375 396.565C454.301 398.559 455.789 398.96 457.489 398.939L457.563 398.971ZM444.335 404.923C445.824 407.034 447.502 407.297 449.001 406.865C450.5 406.432 452.833 407.213 452.876 404.427C450.057 403.435 447.428 402.907 444.261 404.891L444.335 404.923ZM724.083 409.302C723.366 407.498 722.225 408.617 721.413 409.07C720.56 409.686 719.778 410.394 719.08 411.181C720.104 411.515 721.17 411.703 722.247 411.74C722.529 411.706 722.801 411.613 723.045 411.467C723.288 411.32 723.498 411.124 723.661 410.891C723.823 410.658 723.934 410.393 723.987 410.114C724.04 409.835 724.033 409.547 723.967 409.271L724.083 409.302ZM308.821 414.241C308.072 413.429 307.765 412.732 307.301 412.658C305.77 412.395 304.134 412.489 303.332 414.03C303.036 414.537 303.332 415.381 303.416 416.078L308.821 414.241ZM502.006 412.437C500.991 412.014 499.927 411.723 498.839 411.571C498.047 411.571 495.915 411.086 497.118 413.091C497.53 413.798 499.229 413.893 500.359 413.935C500.676 413.925 501.172 413.038 501.911 412.405L502.006 412.437ZM439.627 415.254C437.315 413.26 435.404 414.199 433.483 414.442C432.227 414.621 432.079 415.497 433.198 415.856C434.239 416.204 435.341 416.328 436.433 416.219C437.525 416.109 438.581 415.77 439.532 415.223L439.627 415.254ZM651.877 414.896C650.621 414.896 649.438 414.969 649.037 416.331C649.592 416.732 650.245 416.977 650.927 417.038C651.982 416.954 653.861 416.658 653.967 416.151C654.231 414.431 652.563 415.149 651.782 414.864L651.877 414.896ZM371.643 439.79C370.774 438.871 369.816 438.04 368.782 437.31C368.531 437.166 368.249 437.083 367.959 437.067C367.67 437.051 367.381 437.103 367.115 437.219C366.849 437.335 366.615 437.512 366.429 437.735C366.244 437.958 366.114 438.221 366.048 438.503C365.457 440.128 366.724 440.529 367.885 440.529C369.127 440.383 370.353 440.125 371.548 439.759L371.643 439.79ZM200.849 451.029C202.147 451.473 203.192 451.093 203.034 450.206C202.969 449.38 202.589 448.61 201.972 448.056C201.355 447.502 200.548 447.206 199.719 447.23C198.969 447.401 198.255 447.701 197.608 448.117L200.849 451.029ZM331.528 455.641C332.637 455.103 334.948 456.38 334.473 453.668C334.378 453.108 333.323 452.201 332.932 452.306C331.833 452.514 330.831 453.069 330.071 453.889C328.667 455.789 330.842 455.103 331.528 455.588V455.641ZM827.685 452.855C827.685 450.628 825.785 450.85 824.349 450.681C823.23 450.544 821.562 451.061 822.027 452.169C822.783 453.489 824.001 454.482 825.447 454.955C826.608 455.335 827.411 454.132 827.696 452.802L827.685 452.855ZM592.158 460.823C590.659 459.767 589.794 459.029 588.823 458.49C587.482 457.731 585.138 455.388 585.423 459.176C585.634 461.646 588.421 462.163 592.169 460.77L592.158 460.823ZM476.037 464.073C478.591 464.706 480.872 465.128 482.993 463.725C480.671 461.329 478.222 462.395 476.058 464.02L476.037 464.073ZM596.381 466.184C595.832 465.793 595.051 464.949 594.766 465.128C593.71 465.656 592.401 466.342 592.116 467.239C591.662 468.727 593.299 468.147 593.964 468.189C594.259 468.225 594.559 468.201 594.845 468.117C595.131 468.033 595.397 467.891 595.625 467.7C595.854 467.509 596.041 467.273 596.174 467.007C596.308 466.74 596.386 466.449 596.402 466.152L596.381 466.184ZM158.074 474.341C157.113 474.985 156.1 475.302 156.036 475.755C155.772 477.571 157.092 478.33 158.591 478.763C159.721 479.101 161.114 478.573 160.766 477.455C160.418 476.336 159.003 475.302 158.095 474.31L158.074 474.341Z" fill="#E3F0FC"/>
<path fill-rule="evenodd" clip-rule="evenodd" d="M116.449 568.686C112.733 570.079 112.733 570.079 108.215 576.073C106.568 578.258 98.049 579.092 96.2755 577.129C96.0441 576.938 95.8559 576.701 95.7235 576.432C95.591 576.163 95.5172 575.869 95.5072 575.57C95.4972 575.27 95.5512 574.972 95.6655 574.695C95.7797 574.418 95.9516 574.168 96.1699 573.963C97.9328 572.316 99.8541 570.86 101.723 569.309C100.297 566.491 97.9328 566.861 95.642 566.776C89.9732 566.544 82.7631 568.486 83.5548 558.629C77.5587 558.038 78.0337 548.994 70.2746 549.437C63.9407 549.796 63.1069 546.482 66.1788 539C73.9484 546.535 80.3353 547.517 88.9916 542.05C85.3918 540.636 82.5414 543.105 79.5856 542.778C77.1787 542.525 75.6374 541.121 76.6297 538.842C78.2871 535.085 81.7286 533.175 85.6556 532.763C87.9991 532.521 90.9339 530.41 92.5385 534.768C94.502 540.288 97.8167 542.989 103.897 538.821C105.291 537.871 108.437 539.486 110.77 539.876C112.079 547.042 112.079 547.042 122.846 545.638C117.663 545.976 116.607 537.892 110.442 540.224C109.524 535.444 111.35 528.616 102.557 529.671C106.262 524.574 103.612 521.461 99.8015 518.316C96.0434 521.82 102.831 525.387 98.5662 528.226L83.9773 526.463C85.4868 520.617 88.1997 516.754 97.5423 519.53C92.7074 514.464 90.1528 511.562 87.3447 508.977C86.2891 507.921 82.6894 508.977 85.2968 505.6C86.4053 504.164 86.3523 501.779 89.3609 502.719C92.7918 503.774 97.0673 503.331 99.7909 505.241C105.861 509.462 115.51 510.581 115.309 521.071L108.869 524.637C112.279 529.418 115.203 531.961 120.482 526.959C122.878 524.732 127.227 525.756 124.989 530.421C122.266 536.066 127.364 539.254 127.892 543.791C128.114 545.628 130.985 545.417 132.03 544.783C136.432 542.113 130.605 543.327 130.901 542.145C131.957 538.061 135.947 539.623 138.459 538.399C140.972 537.175 141.236 538.399 140.571 541.195C139.61 545.015 143.569 545.543 146.081 546.102C148.984 546.757 148.868 548.424 148.583 550.503C148.361 552.213 147.612 553.585 145.733 553.806C144.128 553.996 142.207 553.458 140.961 554.165C136.887 556.508 133.888 547.147 129.244 553.595C126.172 557.88 120.798 553.595 116.723 555.115C115.255 555.777 113.843 556.557 112.501 557.447C114.253 554.197 113.926 551.516 109.682 553.015C107.423 553.796 106.051 557.078 104.246 559.262C108.299 562.207 110.178 558.429 112.765 557.152C114.749 562.428 110.991 564.961 106.568 567.641C110.442 570.185 113.282 571.937 116.671 568.697L116.449 568.686Z" fill="#E3F0FC"/>
<path fill-rule="evenodd" clip-rule="evenodd" d="M130.5 592.737C133.435 591.122 139.8 593.402 137.594 585.962C137.077 584.231 140.286 582.321 141.986 582.796C145.026 583.714 148.731 588.368 147.169 580.115C146.324 575.693 150.462 577.044 151.898 577.846C156.543 580.453 161.916 582.068 167.173 588.009C153.26 585.719 142.988 595.428 130.5 592.737Z" fill="#E3F0FC"/>
<path fill-rule="evenodd" clip-rule="evenodd" d="M144.371 511.858C145.427 514.918 146.26 517.694 150.525 517.968C154.442 518.232 158.253 520.079 162.137 520.416C166.022 520.754 161.884 524.131 164.544 525.629C166.656 526.811 163.563 527.74 162.38 527.888C159.921 528.131 157.63 528.204 156.532 531.054C156.015 532.383 154.917 532.51 154.146 531.17C150.61 525.091 142.27 521.999 142.967 513.229C143.155 513.259 143.348 513.244 143.53 513.186C143.711 513.129 143.877 513.029 144.013 512.896C144.15 512.762 144.253 512.599 144.315 512.419C144.377 512.239 144.396 512.047 144.371 511.858Z" fill="#E3F0FC"/>
<path fill-rule="evenodd" clip-rule="evenodd" d="M297.958 504.291C287.296 512.913 285.871 513.145 277.024 506.856C274.596 505.125 274.522 505.906 272.992 507.805C271.208 509.99 271.356 506.581 270.479 505.885C269.36 505.009 269.498 503.774 270.965 503.32C272.618 502.699 274.381 502.425 276.145 502.516C277.909 502.607 279.635 503.06 281.215 503.848C288.214 507.077 288.362 506.739 297.958 504.291Z" fill="#E3F0FC"/>
<path fill-rule="evenodd" clip-rule="evenodd" d="M569.06 530.252C568.722 527.086 565.967 525.07 563.413 520.754C570.908 522.2 576.344 518.643 584.315 521.355C579.501 522.411 581.464 529.967 574.486 526.632C572.576 525.703 571.562 530.241 568.744 530.019L569.06 530.252Z" fill="#E3F0FC"/>
<path fill-rule="evenodd" clip-rule="evenodd" d="M585.244 488.947L583.787 494.086C583.787 497.653 578.34 494.709 578.509 498.476L579.131 498.181C574.381 496.313 575.204 490.794 572.143 486.994C574.951 487.501 577.812 493.801 580.324 486.994C581.084 484.873 586.078 481.866 585.244 488.947Z" fill="#E3F0FC"/>
<path fill-rule="evenodd" clip-rule="evenodd" d="M453.487 509.684C452.723 509.462 451.929 509.355 451.133 509.367C442.255 510.866 442.255 510.876 441.632 520.385C437.199 520.606 434.971 514.116 429.809 516.818C437.03 511.108 444.947 509.209 453.53 509.599L453.487 509.684Z" fill="#E3F0FC"/>
<path fill-rule="evenodd" clip-rule="evenodd" d="M448.315 607.342C450.479 602.657 453.678 603.269 456.232 603.733C460.349 604.493 463.4 604.873 463.622 599.206C463.706 597.243 466.018 597.654 467.486 598.33C467.867 598.447 468.22 598.642 468.522 598.903C468.824 599.163 469.069 599.484 469.24 599.844C469.412 600.204 469.507 600.596 469.52 600.995C469.532 601.394 469.461 601.791 469.312 602.161C468.256 605.728 465.153 608.134 462.345 607.374C457.89 606.16 453.709 607.965 448.315 607.342Z" fill="#E3F0FC"/>
<path fill-rule="evenodd" clip-rule="evenodd" d="M500.918 581.487C502.218 580.583 503.596 579.795 505.035 579.134C508.044 578.078 511.971 576.686 513.86 579.567C515.887 582.637 513.681 586.014 510.419 589.275C511.886 579.873 503.156 585.434 500.971 581.529V581.93L500.918 581.487Z" fill="#E3F0FC"/>
<path fill-rule="evenodd" clip-rule="evenodd" d="M291.498 571.071C293.852 567.346 297.747 566.945 301.547 566.618C303.733 566.428 305.612 567.462 305.327 569.974C305.094 572.084 306.171 575.092 302.498 575.482C301.358 575.598 299.953 575.999 299.436 574.564C298.982 573.33 302.117 572.285 300.154 571.103C298.602 570.153 297.599 572.053 296.428 573.108C293.166 576.073 292.881 572.517 291.814 570.765L291.498 571.071Z" fill="#E3F0FC"/>
<path fill-rule="evenodd" clip-rule="evenodd" d="M177.012 492.767C179.176 491.86 182.797 491.437 183.261 489.992C186.745 479.217 190.904 487.417 195.137 489.443C189.627 494.055 183.768 495.057 177.191 492.44C177.107 492.503 177.012 492.767 177.012 492.767Z" fill="#E3F0FC"/>
<path fill-rule="evenodd" clip-rule="evenodd" d="M407.63 511.457C400.673 510.475 393.695 509.515 386.749 508.449C386.063 508.343 385.493 507.541 384.543 506.813C386.38 502.233 390.18 503.077 393.79 503.436V503.51C397.623 507.383 404.347 506.497 407.334 511.763L407.63 511.457Z" fill="#E3F0FC"/>
<path fill-rule="evenodd" clip-rule="evenodd" d="M501.002 581.888V581.487C500.886 582.289 500.802 583.081 500.654 583.862C500.105 586.753 501.562 590.415 497.286 591.84C492.198 593.56 494.795 586.795 491.396 586.563C490.931 586.563 490.52 585.508 489.907 584.748L501.277 581.677L501.002 581.888Z" fill="#E3F0FC"/>
<path fill-rule="evenodd" clip-rule="evenodd" d="M568.744 530.02C569.966 530.965 571.242 531.839 572.565 532.637C573.526 533.154 575.088 532.985 574.497 534.747C574.085 535.95 572.914 537.111 571.868 536.552C567.941 534.441 563.212 533.777 559.412 530.294C563.054 528.637 566.062 530.4 569.06 530.294L568.744 530.02Z" fill="#E3F0FC"/>
<path fill-rule="evenodd" clip-rule="evenodd" d="M179.123 574.997C176.832 579.714 172.283 579.44 170.794 582.88C170.193 576.042 170.192 576.042 179.123 574.997Z" fill="#E3F0FC"/>
<path fill-rule="evenodd" clip-rule="evenodd" d="M317.192 58.3799L310.531 63.0337C305.01 57.7572 310.964 55.0239 312.495 51.0665C315.947 52.9344 316.802 55.52 317.192 58.3799Z" fill="#E3F0FC"/>
<path fill-rule="evenodd" clip-rule="evenodd" d="M140.181 496.883C139.298 501.79 139.966 506.851 142.091 511.362L132.01 511.995C132.168 510.792 132.316 509.589 132.474 508.375L132.115 508.702C134.205 504.354 135.842 499.69 140.181 496.883Z" fill="#E3F0FC"/>
<path fill-rule="evenodd" clip-rule="evenodd" d="M114.887 520.68C116.185 519.751 117.737 519.034 118.698 517.841C119.88 516.396 116.027 512.829 120.408 512.649C123.986 512.501 125.053 515.192 124.894 518.453C124.904 519.252 124.971 520.049 125.095 520.838C121.685 521.25 118.201 526.379 114.887 520.68Z" fill="#E3F0FC"/>
<path fill-rule="evenodd" clip-rule="evenodd" d="M393.791 503.436C398.119 504.101 401.18 501.779 404.516 499.458C404.994 499.087 405.548 498.826 406.138 498.692C406.728 498.559 407.34 498.555 407.932 498.683C408.523 498.811 409.08 499.066 409.562 499.432C410.044 499.797 410.44 500.263 410.723 500.798C410.906 501.316 410.975 501.867 410.924 502.413C410.873 502.96 410.704 503.489 410.428 503.964C409.161 505.863 407.261 506.074 405.308 504.819C401.697 502.476 397.718 503.025 393.77 503.457L393.791 503.436Z" fill="#E3F0FC"/>
<path fill-rule="evenodd" clip-rule="evenodd" d="M408.675 524.469C404.526 525.038 400.547 526.389 396.947 523.909C396.134 523.361 394.107 523.73 395.047 521.936C395.399 521.494 395.843 521.134 396.348 520.879C396.852 520.624 397.406 520.48 397.971 520.458C402.035 520.3 404.093 525.851 408.675 524.469Z" fill="#E3F0FC"/>
<path fill-rule="evenodd" clip-rule="evenodd" d="M164.429 564.317C163.004 566.48 161.663 565.953 161.03 565.119C158.591 561.953 153.64 567.43 151.993 562.397C152.02 562.027 152.141 561.67 152.344 561.36C152.547 561.05 152.826 560.796 153.154 560.624C157.672 559.727 161.579 560.624 164.429 564.317Z" fill="#E3F0FC"/>
<path fill-rule="evenodd" clip-rule="evenodd" d="M478.454 596.662C477.515 596.29 476.595 595.871 475.698 595.407C476.437 592.304 470.895 592.41 472.437 589.149C472.77 588.695 473.213 588.333 473.725 588.097C474.236 587.861 474.799 587.758 475.361 587.798C479.678 589.096 478.38 592.494 478.454 596.662Z" fill="#E3F0FC"/>
<path fill-rule="evenodd" clip-rule="evenodd" d="M124.704 520.68C128.716 519.836 127.28 515.055 130.035 513.293C130.088 514.053 129.835 515.108 130.246 515.509C132.199 517.493 134.775 519.488 132.094 522.326C129.117 525.45 126.752 523.118 124.704 520.68Z" fill="#E3F0FC"/>
<path fill-rule="evenodd" clip-rule="evenodd" d="M489.823 558.861C487.501 560.36 485.896 558.639 484.482 557.468C483.352 556.539 479.742 558.196 481.167 554.534C481.435 553.786 481.898 553.123 482.507 552.614C484.619 551.073 486.392 552.023 487.29 554.017C488.05 555.695 490.256 556.656 489.823 558.861Z" fill="#E3F0FC"/>
<path fill-rule="evenodd" clip-rule="evenodd" d="M501.002 581.888L501.245 581.719C496.115 577.783 501.055 572.042 498.775 567.599C501.011 571.843 501.755 576.716 500.886 581.434L501.002 581.888Z" fill="#E3F0FC"/>
<path fill-rule="evenodd" clip-rule="evenodd" d="M306.287 488.493C302.37 493.115 297.156 493.654 289.396 494.223C295.73 488.567 300.935 487.955 306.604 488.63L306.287 488.493Z" fill="#E3F0FC"/>
<path fill-rule="evenodd" clip-rule="evenodd" d="M218.436 575.757C214.456 577.287 211.775 579.619 209.305 576.59C208.534 575.641 208.354 572.77 208.935 572.369C212.64 569.995 215.132 572.39 218.436 575.757Z" fill="#E3F0FC"/>
<path fill-rule="evenodd" clip-rule="evenodd" d="M233.563 550.64C231.895 553.405 229.161 553.806 226.321 553.954C224.78 554.017 222.785 554.218 224.115 551.601C224.685 550.482 223.799 547.517 225.952 548.519C228.454 549.691 231.716 547.643 233.563 550.64Z" fill="#E3F0FC"/>
<path fill-rule="evenodd" clip-rule="evenodd" d="M316.95 536.299C316.168 536.024 314.279 535.022 316.063 534.695C321.457 533.724 315.113 528.574 318.681 528.014C320.887 527.666 321.563 530.294 321.679 532.331C321.879 535.571 319.726 536.278 316.95 536.299Z" fill="#E3F0FC"/>
<path fill-rule="evenodd" clip-rule="evenodd" d="M377.723 593.286C372.888 594.278 367.674 597.507 364.137 590.964C369.014 589.835 373.036 593.655 377.776 593.475L377.723 593.286Z" fill="#E3F0FC"/>
<path fill-rule="evenodd" clip-rule="evenodd" d="M247.044 481.633L237.047 479.438C241.776 476.03 243.518 479.713 247.044 481.633Z" fill="#E3F0FC"/>
<path fill-rule="evenodd" clip-rule="evenodd" d="M184.76 521.873C183.583 522.273 182.359 522.518 181.118 522.601C179.397 522.474 177.022 522.938 177.191 519.931C177.176 519.543 177.26 519.158 177.434 518.812C179.134 516.385 180.823 518.474 182.353 519.044C183.24 519.382 183.768 520.68 184.76 521.873Z" fill="#E3F0FC"/>
<path fill-rule="evenodd" clip-rule="evenodd" d="M324.803 519.329C327.886 512.997 332.14 513.916 336.848 514.897C333.554 518.453 329.406 517.82 324.803 519.329Z" fill="#E3F0FC"/>
<path fill-rule="evenodd" clip-rule="evenodd" d="M214.012 519.625C210.17 521.535 206.327 523.846 199.582 521.261L214.012 519.625Z" fill="#E3F0FC"/>
<path fill-rule="evenodd" clip-rule="evenodd" d="M468.626 519.319C469.396 521.556 475.023 520.195 472.627 524.838C470.621 528.722 467.771 525.461 466.863 524.743C463.59 522.168 467.918 521.155 468.647 519.308L468.626 519.319Z" fill="#E3F0FC"/>
<path fill-rule="evenodd" clip-rule="evenodd" d="M409.699 590.331C411.81 592.705 415.178 590.922 417.426 592.737C418.482 595.291 413.879 594.193 414.829 597.021C415.885 600.187 413.9 600.652 412.106 598.741C409.994 596.472 408.295 593.581 409.762 590.098L409.699 590.331Z" fill="#E3F0FC"/>
<path fill-rule="evenodd" clip-rule="evenodd" d="M538.193 493.738C538.446 493.96 538.816 494.139 538.943 494.434C539.703 496.197 540.42 497.97 541.138 499.711C540.505 499.943 539.671 500.534 539.27 500.323C537.391 499.268 536.229 497.896 537.454 495.606C537.735 494.997 537.982 494.374 538.193 493.738Z" fill="#E3F0FC"/>
<path fill-rule="evenodd" clip-rule="evenodd" d="M417.099 557.753C420.192 555.22 423.18 553.395 427.994 553.532C425.091 559.98 420.678 558.196 417.099 557.753Z" fill="#E3F0FC"/>
<path fill-rule="evenodd" clip-rule="evenodd" d="M178.701 477.803C184.106 477.433 189.965 474.025 195.518 481.074C188.92 481.074 184.233 476.716 178.722 477.792L178.701 477.803Z" fill="#E3F0FC"/>
<path fill-rule="evenodd" clip-rule="evenodd" d="M543.988 481.475C544.199 479.649 543.746 477.359 546.585 477.254C546.923 477.254 547.768 478.658 547.641 478.879C546.818 480.072 547.25 483.269 544.21 481.327L543.988 481.475Z" fill="#E3F0FC"/>
<path fill-rule="evenodd" clip-rule="evenodd" d="M230.85 482.119C230.206 482.534 229.524 482.887 228.813 483.174C226.153 483.987 223.376 484.958 221.423 481.908C221.191 481.528 221.782 480.198 222.352 479.797C225.92 477.476 229.013 477.412 230.85 482.119Z" fill="#E3F0FC"/>
<path fill-rule="evenodd" clip-rule="evenodd" d="M495.978 513.229C501.256 514.96 499.619 519.72 501.773 522.094C498.215 520.596 496.875 517.715 495.978 513.229Z" fill="#E3F0FC"/>
<path fill-rule="evenodd" clip-rule="evenodd" d="M543.989 481.475L544.189 481.306C545.836 481.686 546.987 482.573 546.649 484.472C546.206 486.783 544.464 486.108 543.113 485.654C541.128 484.989 539.682 483.681 540.822 481.433C541.022 480.979 542.891 481.422 543.989 481.475Z" fill="#E3F0FC"/>
<path fill-rule="evenodd" clip-rule="evenodd" d="M431.889 547.664C432.256 546.978 432.665 546.316 433.114 545.68C434.074 544.477 431.625 541.079 435.225 541.871C436.397 542.134 433.514 546.493 437.653 546.356C436.692 548.234 435.088 546.356 433.863 546.989C433.118 547.233 432.344 547.378 431.562 547.422L431.889 547.664Z" fill="#E3F0FC"/>
<path fill-rule="evenodd" clip-rule="evenodd" d="M377.776 593.497C378.108 594.882 378.306 596.295 378.367 597.718C378.294 599.375 376.478 599.512 376.256 598.499C376.034 597.486 377.312 595.871 377.776 594.51C377.843 594.108 377.843 593.698 377.776 593.296V593.497Z" fill="#E3F0FC"/>
<path fill-rule="evenodd" clip-rule="evenodd" d="M407.313 511.763C411.103 512.934 415.315 512.712 418.925 515.319C413.14 519.329 410.543 514.992 407.64 511.457L407.313 511.763Z" fill="#E3F0FC"/>
<path fill-rule="evenodd" clip-rule="evenodd" d="M404.653 586.669C400.04 586.447 396.883 587.893 393.854 583.999C397.538 584.621 400.441 583.186 404.653 586.669Z" fill="#E3F0FC"/>
<path fill-rule="evenodd" clip-rule="evenodd" d="M530.846 573.667C530.49 574.176 530.091 574.652 529.653 575.092C528.359 574.369 527.13 573.535 525.98 572.601C525.167 571.936 525.409 570.807 526.243 570.913C528.07 571.166 530.044 571.535 530.846 573.667Z" fill="#E3F0FC"/>
<path fill-rule="evenodd" clip-rule="evenodd" d="M586.278 500.545C584.336 501.6 582.657 503.521 580.082 502.898C578.815 502.603 576.598 503.806 576.524 501.632C576.524 500.503 578.202 499.331 579.131 498.181L578.509 498.476C581.327 498.329 584.494 497.126 586.025 500.935L586.278 500.545Z" fill="#E3F0FC"/>
<path fill-rule="evenodd" clip-rule="evenodd" d="M224.991 502.37C220.505 503.426 217.834 503.795 215.364 501.843C218.837 500.175 218.837 500.175 224.991 502.37Z" fill="#E3F0FC"/>
<path fill-rule="evenodd" clip-rule="evenodd" d="M459.452 594.13C458.502 594.541 457.499 595.016 456.465 595.407C456.101 595.572 455.695 595.62 455.304 595.544C454.132 595.227 454.248 594.985 455.715 594.974C457.32 594.974 457.225 592.177 459.199 592.863C459.357 592.916 459.336 593.496 459.452 594.13Z" fill="#E3F0FC"/>
<path fill-rule="evenodd" clip-rule="evenodd" d="M468.225 586.521C467.296 584.896 466.219 583.745 466.008 582.447C465.981 582.172 466.033 581.894 466.158 581.646C466.282 581.399 466.473 581.191 466.71 581.047C466.947 580.902 467.219 580.828 467.496 580.831C467.773 580.834 468.044 580.915 468.277 581.065C469.185 581.508 470.325 582.584 470.388 583.418C470.452 584.252 469.217 585.17 468.225 586.521Z" fill="#E3F0FC"/>
<path fill-rule="evenodd" clip-rule="evenodd" d="M214.276 586.247C212.704 586.152 211.109 586.352 211.352 584.875C211.458 584.189 213.179 583.482 214.245 583.302C215.311 583.123 216.757 583.84 216.673 585.044C216.631 585.561 214.857 585.972 214.276 586.247Z" fill="#E3F0FC"/>
<path fill-rule="evenodd" clip-rule="evenodd" d="M414.671 576.253C411.842 577.656 408.939 578.532 408.337 577.308C407.186 575.198 409.646 575.461 411.018 575.482C412.251 575.66 413.471 575.917 414.671 576.253V576.253Z" fill="#E3F0FC"/>
<path fill-rule="evenodd" clip-rule="evenodd" d="M291.814 570.765L284.741 570.174C287.581 566.808 289.513 569.003 291.487 571.071L291.814 570.765Z" fill="#E3F0FC"/>
<path fill-rule="evenodd" clip-rule="evenodd" d="M246.78 560.339C244.151 562.09 241.501 560.17 238.641 560.718C239.872 560.022 241.251 559.624 242.665 559.558C244.079 559.492 245.488 559.759 246.78 560.339V560.339Z" fill="#E3F0FC"/>
<path fill-rule="evenodd" clip-rule="evenodd" d="M431.53 547.422C432.058 548.023 432.86 548.551 433.082 549.258C433.494 550.609 436.713 549.997 435.267 552.234C434.929 552.751 432.807 552.656 431.899 552.139C429.566 550.82 429.514 549.163 431.899 547.685L431.53 547.422Z" fill="#E3F0FC"/>
<path fill-rule="evenodd" clip-rule="evenodd" d="M262.974 484.483C265.898 483.269 269.175 483.216 272.137 484.335C268.505 485.992 265.813 485.401 262.974 484.483Z" fill="#E3F0FC"/>
<path fill-rule="evenodd" clip-rule="evenodd" d="M210.677 486.741C212.503 486.878 213.485 488.092 214.277 489.548C213.622 489.96 212.911 490.273 212.165 490.477C210.392 490.72 208.798 490.35 208.935 488.113C209.009 487.628 210.075 487.206 210.677 486.741Z" fill="#E3F0FC"/>
<path fill-rule="evenodd" clip-rule="evenodd" d="M480.702 512.691C480.677 512.97 480.588 513.24 480.444 513.48C480.3 513.721 480.103 513.926 479.869 514.08C479.635 514.234 479.369 514.333 479.091 514.37C478.813 514.408 478.531 514.382 478.264 514.295C477.522 514.127 476.857 513.715 476.376 513.127C475.894 512.538 475.622 511.805 475.604 511.045C475.54 509.568 476.881 509.219 477.894 509.578C478.621 509.755 479.277 510.147 479.778 510.702C480.279 511.258 480.601 511.951 480.702 512.691V512.691Z" fill="#E3F0FC"/>
<path fill-rule="evenodd" clip-rule="evenodd" d="M346.455 503.194V503.552C349.326 499.426 352.303 502.223 358.014 503.552C352.335 503.869 349.348 505.019 346.455 503.194Z" fill="#E3F0FC"/>
<path fill-rule="evenodd" clip-rule="evenodd" d="M284.688 80.689L286.272 81.8394C284.741 83.5807 283.411 85.7229 280.592 85.2058C279.537 85.0158 279.305 84.2455 279.737 83.3696C280.782 81.3328 282.577 80.7735 284.688 80.689Z" fill="#E3F0FC"/>
<path fill-rule="evenodd" clip-rule="evenodd" d="M235.833 489.464C235.833 491.1 236.466 489.401 234.872 489.643C234.218 489.738 232.898 489.306 232.898 489.105C232.898 487.48 232.117 489.358 233.722 489.105C234.44 489.111 235.153 489.232 235.833 489.464V489.464Z" fill="#E3F0FC"/>
<path fill-rule="evenodd" clip-rule="evenodd" d="M510.598 502.392C510.472 503.563 510.598 505.135 509.205 505.357C507.653 505.61 507.241 504.365 507.685 502.993C508.054 501.938 508.392 500.007 508.994 499.901C510.598 499.627 510.482 501.241 510.598 502.392Z" fill="#E3F0FC"/>
<path fill-rule="evenodd" clip-rule="evenodd" d="M561.27 502.74C561.386 503.932 561.27 505.082 559.792 505.198C559.18 505.251 558.515 504.766 557.871 504.534C558.429 503.542 559.095 502.615 559.855 501.769C560.52 501.188 561.164 501.684 561.27 502.74Z" fill="#E3F0FC"/>
<path fill-rule="evenodd" clip-rule="evenodd" d="M468.647 519.308C465.343 520.511 461.975 522.221 458.09 517.43C462.397 517.968 465.332 520.395 468.647 519.319V519.308Z" fill="#E3F0FC"/>
<path fill-rule="evenodd" clip-rule="evenodd" d="M549.457 519.108C549.717 519.021 549.993 518.997 550.264 519.038C550.535 519.078 550.792 519.183 551.015 519.343C551.238 519.502 551.419 519.713 551.545 519.956C551.67 520.2 551.736 520.469 551.737 520.743C551.811 521.016 551.816 521.303 551.75 521.578C551.685 521.853 551.552 522.107 551.363 522.317C551.174 522.527 550.935 522.686 550.668 522.78C550.402 522.874 550.116 522.899 549.837 522.854C549.488 522.821 549.152 522.709 548.854 522.526C548.556 522.343 548.303 522.094 548.116 521.799C548.014 521.535 547.968 521.253 547.982 520.97C547.995 520.688 548.067 520.411 548.193 520.158C548.319 519.905 548.497 519.68 548.714 519.5C548.932 519.319 549.185 519.185 549.457 519.108V519.108Z" fill="#E3F0FC"/>
<path fill-rule="evenodd" clip-rule="evenodd" d="M266.827 539.465L267.756 539.76C267.068 540.068 266.363 540.336 265.645 540.562C265.36 540.636 264.98 540.372 264.652 540.267L266.827 539.465Z" fill="#E3F0FC"/>
<path fill-rule="evenodd" clip-rule="evenodd" d="M158.918 546.725C159.066 548.129 158.348 549.078 157.039 548.91C156.51 548.855 155.997 548.692 155.534 548.431C155.071 548.169 154.667 547.815 154.347 547.39C153.544 545.786 155.107 545.543 156.184 545.374C156.726 545.225 157.304 545.28 157.808 545.529C158.313 545.778 158.707 546.204 158.918 546.725V546.725Z" fill="#E3F0FC"/>
<path fill-rule="evenodd" clip-rule="evenodd" d="M267.798 546.324C266.104 546.456 264.403 546.456 262.71 546.324C261.58 546.134 261.538 545.269 262.647 544.921C263.722 544.69 264.828 544.643 265.919 544.783C266.341 544.783 266.742 545.364 267.798 546.324Z" fill="#E3F0FC"/>
<path fill-rule="evenodd" clip-rule="evenodd" d="M420.118 550.229L417.933 549.173C418.844 548.741 419.805 548.422 420.794 548.224C421.396 548.171 422.061 548.793 422.694 549.121L420.118 550.229Z" fill="#E3F0FC"/>
<path fill-rule="evenodd" clip-rule="evenodd" d="M184.971 558.745C184.349 559.505 183.916 560.476 183.399 560.56C181.71 560.824 182.005 559.378 182.121 558.45C182.216 557.69 181.066 555.917 183.092 556.339C183.863 556.561 184.401 557.954 184.971 558.745Z" fill="#E3F0FC"/>
<path fill-rule="evenodd" clip-rule="evenodd" d="M193.184 558.049C193.849 559.041 194.873 559.906 194.979 560.866C195.03 561.154 194.996 561.45 194.882 561.72C194.768 561.989 194.578 562.219 194.335 562.382C194.092 562.545 193.808 562.634 193.515 562.639C193.223 562.643 192.936 562.563 192.688 562.407C191.949 561.953 191.749 560.444 191.633 559.357C191.538 559.051 192.488 558.597 193.184 558.049Z" fill="#E3F0FC"/>
<path fill-rule="evenodd" clip-rule="evenodd" d="M511.538 554.724C511.796 554.674 512.061 554.68 512.317 554.74C512.572 554.8 512.812 554.913 513.021 555.073C513.229 555.232 513.402 555.434 513.526 555.665C513.651 555.896 513.725 556.151 513.744 556.413C513.924 557.658 513.238 558.629 511.876 558.428C511.518 558.335 511.183 558.171 510.889 557.946C510.596 557.721 510.35 557.44 510.166 557.12C509.48 555.864 510.303 555.157 511.538 554.724Z" fill="#E3F0FC"/>
<path fill-rule="evenodd" clip-rule="evenodd" d="M319.525 561.901C318.87 561.753 317.762 561.774 317.635 561.415C317.521 561.162 317.47 560.886 317.488 560.609C317.506 560.332 317.592 560.064 317.738 559.828C317.884 559.593 318.086 559.396 318.325 559.257C318.565 559.118 318.836 559.04 319.113 559.03C319.757 558.924 320.908 559.241 321.119 559.695C321.795 561.077 320.581 561.478 319.525 561.901Z" fill="#E3F0FC"/>
<path fill-rule="evenodd" clip-rule="evenodd" d="M116.703 568.792C117.416 568.539 118.088 568.183 118.698 567.736C120.091 566.354 121.4 564.792 123.617 565.626C123.955 565.752 124.208 567.135 123.944 567.736C122.889 570.068 120.714 569.15 118.877 569.066C118.096 569.066 117.315 568.929 116.491 568.834L116.703 568.792Z" fill="#E3F0FC"/>
<path fill-rule="evenodd" clip-rule="evenodd" d="M409.762 590.046C407.651 592.494 405.54 595.016 401.845 592.072C403.956 588.906 407.123 591.323 409.646 590.352C409.696 590.254 409.735 590.152 409.762 590.046V590.046Z" fill="#E3F0FC"/>
<path fill-rule="evenodd" clip-rule="evenodd" d="M565.629 465.466C564.921 465.295 564.194 465.21 563.465 465.213C562.04 465.371 560.583 466.563 559.243 465.213C559 464.97 559.454 464.052 559.58 463.44C560.868 464.02 562.125 464.675 563.455 465.149C564.181 465.321 564.925 465.406 565.672 465.403L565.629 465.466Z" fill="#E3F0FC"/>
<path fill-rule="evenodd" clip-rule="evenodd" d="M398.234 476.357L395.859 476.083C395.833 476.133 395.812 476.186 395.796 476.241L398.15 476.6C398.15 476.6 398.213 476.431 398.234 476.357Z" fill="#E3F0FC"/>
<path fill-rule="evenodd" clip-rule="evenodd" d="M204.459 481.633C204.376 482.259 204.078 482.836 203.616 483.266C203.153 483.696 202.556 483.95 201.925 483.987C201.635 484.028 201.338 484.003 201.059 483.913C200.779 483.823 200.524 483.671 200.312 483.467C200.1 483.264 199.938 483.015 199.837 482.739C199.736 482.463 199.699 482.168 199.73 481.876C199.782 480.652 200.468 479.354 201.841 479.702C202.854 479.924 203.656 481.021 204.459 481.633Z" fill="#E3F0FC"/>
<path fill-rule="evenodd" clip-rule="evenodd" d="M565.693 479.111C566.748 479.882 568.575 480.504 569.177 481.729C569.937 483.259 568.121 483.428 567.223 483.037C565.843 482.268 564.539 481.371 563.328 480.357L565.693 479.111Z" fill="#E3F0FC"/>
<path fill-rule="evenodd" clip-rule="evenodd" d="M83.0588 482.14C84.2728 478.847 82.5838 476.864 79.7441 475.365C84.9168 473.18 89.9206 471.144 95.5789 471.988C92.8237 477.18 89.6461 481.781 83.0588 482.14Z" fill="#E3F0FC"/>
<path fill-rule="evenodd" clip-rule="evenodd" d="M568.522 440.35L580.398 440.972C575.056 446.228 571.763 444.022 568.522 440.35Z" fill="#E3F0FC"/>
<path fill-rule="evenodd" clip-rule="evenodd" d="M575.721 434.894C579.944 430.208 583.333 433.195 589.033 436.941C582.921 435.886 579.195 435.253 575.468 434.598C575.458 434.598 575.721 434.894 575.721 434.894Z" fill="#E3F0FC"/>
</g>
<defs>
<clipPath id="clip0_551_6813">
<rect width="1015" height="655" fill="white"/>
</clipPath>
</defs>
</svg>
