<svg width="925" height="546" viewBox="0 0 925 546" fill="none" xmlns="http://www.w3.org/2000/svg">
<g opacity="0.6" clip-path="url(#clip0_551_6186)">
<path fill-rule="evenodd" clip-rule="evenodd" d="M204.563 384.652C213.825 383.92 220.052 380.179 219.791 370.396C219.712 366.995 219.176 362.064 222.852 361.58C240.656 359.226 229.968 342.576 236.731 334.728C238.484 332.688 236.3 329.34 233.697 328.189C227.025 325.219 229.039 319.216 228.359 314.154C226.148 297.517 226.266 297.151 242.749 300.84C251.631 302.854 263.287 297.884 268.651 310.505C269.462 312.415 273.726 311.238 275.937 309.367C283.904 302.631 294.631 302.108 303.658 296.536C313.953 290.18 328.513 295.935 341.071 296.89C356.364 298.04 371.526 301.807 386.517 305.365C394.41 307.251 401.608 311.332 407.278 317.136C412.027 321.937 416.893 327.273 422.806 330.098C441.997 339.254 444.561 357.565 448.852 375.052C450.16 380.284 450.552 386.444 446.314 390.303C437.536 398.294 432.944 408.967 426.6 418.489C418.921 430.038 406.742 436.146 394.693 438.801C362.538 445.89 329.991 450.664 296.999 441.809C282.818 438.003 268.075 436.381 253.698 433.216C240.617 430.312 241.742 415.677 230.622 413.833C232.519 395.312 213.852 395.064 204.563 384.652Z" fill="#BFAFE9"/>
<path fill-rule="evenodd" clip-rule="evenodd" d="M42.5458 185.806C63.1495 185.296 81.5162 191.365 99.5035 200.782C105.874 204.13 110.414 207.57 114.299 213.417C122.148 225.188 130.389 237.038 142.189 244.912C147.265 248.3 145.734 250.144 144.806 254.068C141.509 268.821 135.256 282.842 133.948 298.054C132.927 309.694 123.103 314.298 115.136 317.254C95.7753 324.409 77.1992 333.342 56.1769 336.965C21.785 342.864 -8.09353 331.733 -38.8879 320.432C-46.5015 317.647 -43.1395 305.195 -54.1151 307.105C-62.0818 308.504 -66.3464 303.795 -67.8116 295.804C-68.2825 293.188 -72.1286 293.28 -74.7711 292.626C-83.4443 290.441 -88.2061 284.072 -91.2803 276.159C-92.1476 274.317 -92.7298 272.355 -93.007 270.338C-93.4518 262.975 -106.377 262.059 -102.844 254.329C-99.5086 247.044 -90.4953 252.825 -84.5301 250.51C-81.2073 249.202 -74.9542 248.953 -76.9557 243.369C-81.168 231.689 -71.2128 224.665 -67.7985 216.163C-63.4815 205.582 -52.1006 199.16 -39.3197 200.089C-30.8035 200.717 -23.2422 195.328 -16.2304 195.341C4.2163 195.38 22.3346 183.491 42.5458 185.806ZM104.553 273.438C115.097 266.755 114.378 259.822 105.364 252.694C104.946 259.626 95.9062 266.362 104.553 273.451V273.438Z" fill="#BFAFE9"/>
<path fill-rule="evenodd" clip-rule="evenodd" d="M39.9824 89.8032C44.3256 84.4537 49.4929 88.5606 53.6398 86.8734C56.544 85.7093 58.2838 81.7332 56.2562 80.6737C44.1294 74.3956 52.7502 69.7263 56.8448 64.416C57.996 62.925 58.2707 60.7669 58.8463 59.1843C56.23 51.729 47.7007 60.3091 45.2806 53.1416C49.4406 48.3415 55.5628 56.0321 59.8537 51.4936C62.9802 48.1976 61.8552 41.5663 67.7027 40.4938C83.5054 37.6033 98.7195 29.3371 115.189 33.0124C123.679 34.9089 130.417 34.8042 138.213 30.475C145.788 26.2765 155.494 23.8568 163.553 26.9435C175.679 31.5867 186.93 30.4226 199.174 28.5915C210.948 26.8127 223.702 27.2836 234.063 34.5034C240.421 38.9635 247.145 35.8114 253.489 37.8649C263.785 41.1609 265.956 42.835 261.338 52.7361C256.237 63.5528 261.338 70.4718 267.709 77.6655C275.558 86.5857 285.435 94.6688 276.723 108.768C274.983 111.58 278.109 117.034 276.971 120.631C274.512 128.479 286.769 130.035 283.407 137.125C281.236 141.663 270.182 138.432 273.164 148.726C274.028 151.708 269.318 152.545 267.042 152.388C264.682 152.155 262.31 152.691 260.28 153.917C258.25 155.143 256.671 156.992 255.779 159.189C247.328 177.187 231.669 175.225 216.377 173.76C200.247 172.23 183.986 171.144 168.458 165.912C151.923 160.301 134.72 157.96 117.439 156.037C106.098 154.729 95.7499 150.596 89.0782 142.278C80.8498 132.05 69.1417 126.412 60.5732 116.943C56.4001 112.339 49.349 111.136 53.9538 101.065C56.8318 94.8911 44.4564 94.1979 39.9824 89.8032Z" fill="#BFAFE9"/>
<path fill-rule="evenodd" clip-rule="evenodd" d="M7.32971 378.976C17.2131 383.084 28.2433 383.506 38.4119 380.166C44.6388 378.296 50.5124 379.447 56.4908 380.166C60.847 380.689 65.4519 382.782 61.0303 387.7C56.0723 393.18 58.5971 399.158 61.0303 402.545C69.154 414.042 70.4753 429.332 82.1442 438.801C88.0833 443.614 93.3159 449.448 85.9509 457.544C84.7488 458.779 83.9922 460.378 83.8003 462.091C83.6085 463.803 83.9923 465.53 84.8913 467C92.5049 480.08 82.1964 488.83 76.8198 498.129C72.0058 506.461 63.0971 506.382 55.3658 501.726C49.636 498.273 44.4295 497.802 42.1533 504.041C36.672 519.109 23.6164 516.506 12.2223 518.586C-22.7844 524.981 -55.0309 508.593 -88.9911 506.487C-91.4504 506.33 -93.8443 504.237 -96.1467 502.838C-118.189 489.458 -138.859 474.469 -155.158 454.065C-159.279 448.833 -163.321 443.117 -170.856 440.031C-166.212 438.723 -161.32 438.029 -157.016 436.015C-153.968 434.59 -151.339 430.169 -155.826 428.311C-165.598 424.27 -157.722 418.698 -158.442 413.924C-159.279 407.855 -146.132 404.023 -156.545 396.372C-159.305 394.331 -153.327 391.14 -150.331 391.467C-140.049 392.5 -130.709 390.329 -121.277 386.235C-110.811 381.592 -106.416 385.006 -104.754 397.549C-104.493 399.537 -104.192 401.629 -101.785 402.336C-100.789 402.393 -99.8028 402.108 -98.9913 401.527C-98.1797 400.947 -97.5914 400.106 -97.3241 399.144C-95.388 392.84 -95.3095 384.6 -87.9314 382.534C-80.0823 380.362 -71.7624 381.827 -63.7956 383.92C-61.6372 384.482 -60.1196 385.66 -60.1196 387.948C-60.1196 391.244 -62.7359 393.56 -65.1822 392.997C-69.4207 391.99 -73.0313 393.573 -77.0343 393.73C-84.1508 394.03 -87.0549 397.13 -84.5432 404.193C-82.4371 410.131 -80.4487 415.794 -88.1407 419.653C-90.5477 420.869 -88.8602 423.328 -87.6436 424.885C-86.1523 426.768 -84.3471 426.507 -82.8034 424.767C-72.1811 412.852 -56.7184 407.868 -44.5263 398.046C-37.2267 392.173 -28.004 388.498 -19.2785 384.679C-14.9746 382.782 -9.33638 379.028 -5.22872 384.783C-1.48734 390.015 3.19585 396.018 -4.31306 402.127C-5.96136 403.434 -7.47874 405.135 -6.01359 406.861C-3.52806 409.791 -0.689417 407.28 1.0897 405.828C9.00414 399.288 11.6728 390.839 7.32971 378.976ZM-32.8573 403.526C-33.8646 404.232 -35.6307 405.082 -35.5391 405.488C-34.9374 408.104 -38.1555 411.007 -35.042 413.336C-35.0028 409.974 -30.3325 407.568 -32.8573 403.526V403.526Z" fill="#BFAFE9"/>
<path fill-rule="evenodd" clip-rule="evenodd" d="M314.555 179.083C320.507 174.898 327.126 178.796 332.634 174.767C336.964 171.602 339.868 171.052 339.318 163.218C338.01 144.37 346.069 137.347 364.932 135.607C370.165 135.123 370.479 135.189 373.161 125.314C374.142 121.691 377.085 122.332 379.048 120.971C388.807 114.432 399.612 119.023 408.128 121.403C418.594 124.346 426.953 124.019 435.26 118.499C439.708 115.557 444.182 115.203 448.786 115.661C470.201 117.754 491.603 120.161 512.992 122.554C521.861 123.535 527.983 127.642 530.246 136.941C532.5 147.203 537.387 156.7 544.427 164.5C551.269 172.047 547.213 185.322 554.094 194.386C554.788 195.315 552.59 199.788 550.68 201.109C540.712 207.976 539.09 218.008 537.18 229.034C535.976 236.018 530.77 241.106 521.482 244.729C507.393 250.183 491.917 248.757 478.417 257.259C464.563 265.983 447.871 259.43 432.63 258.894C408.05 258.057 385.458 248.797 366.162 233.651C356.678 226.221 348.554 215.706 342.824 205.713C337.317 196.1 333.209 188.971 321.894 187.402C318.702 186.918 316.242 184.053 314.555 179.083Z" fill="#BFAFE9"/>
<path fill-rule="evenodd" clip-rule="evenodd" d="M718.779 226.771L733.169 220.663C728.826 215.68 733.248 209.938 731.756 204.811C730.984 202.195 726.013 199.461 732.136 197.591C741.11 194.844 742.209 185.427 747.664 179.685C751.588 175.5 752.439 165.899 760.746 175.395C761.217 175.97 764.539 174.793 765.978 173.695C783.783 160.288 802.777 159.817 823.747 165.572C836.279 168.999 849.741 172.871 863.202 168.711C868.945 166.933 874.648 167.403 878.193 171.458C885.362 179.724 894.742 180.378 903.716 178.992C911.957 177.684 915.986 183.02 921.546 186.225C923.168 187.153 925.981 188.435 924.607 190.58C918.616 199.984 921.036 211.664 916.13 221.121C910.989 230.982 908.608 238.124 909.171 248.26C909.221 248.936 909.199 249.616 909.105 250.288C907.797 258.449 919.335 263.576 915.947 270.247C913.239 275.479 904.998 278.003 899.32 281.848C898.197 282.604 897.327 283.679 896.822 284.935C894.925 290.167 899.987 297.596 892.413 300.905C885.587 303.882 878.047 304.827 870.698 303.625C839.445 298.171 808.285 292.076 777.176 285.837C771.881 284.704 766.841 282.598 762.315 279.625C758.482 277.14 751.117 275.557 755.774 267.683C756.481 266.48 755.774 263.132 754.466 262.281C741.228 252.629 738.062 233.311 718.779 226.771ZM904.147 214.999C907.274 215.169 907.941 213.221 908.216 211.35C908.844 207.204 914.194 203.136 908.713 198.886C908.143 198.583 907.514 198.41 906.869 198.379C906.225 198.347 905.582 198.457 904.985 198.702C899.412 201.174 899.896 205.988 901.06 210.631C901.479 212.383 903.219 213.691 904.147 214.999ZM872.136 227.032C873.353 226.078 875.525 225.227 876.179 223.723C878.154 219.172 873.903 220.153 871.862 219.799C869.821 219.446 867.767 220.113 867.937 222.821C868.094 224.979 869.52 226.313 872.136 227.032Z" fill="#BFAFE9"/>
<path fill-rule="evenodd" clip-rule="evenodd" d="M704.887 49.571C707.961 57.4186 702.127 65.554 705.45 73.467C705.921 74.5657 706.065 76.8546 705.541 77.1423C691.151 85.2385 691.897 98.2133 692.46 112.221C692.721 119.232 688.234 125.889 679.26 127.917C670.796 129.879 662.816 133.829 654.536 136.667C649.528 138.543 644.165 139.276 638.838 138.812C629.406 137.896 625.756 124.804 620.157 126.308C612.412 128.361 605.649 132.22 597.29 129.408C572.853 121.22 551.177 109.789 539.272 84.9377C536.826 79.8106 535.269 78.6596 541.078 74.4742C546.376 70.6681 538.226 67.686 536.46 64.1022C533.386 57.9156 517.047 57.5625 527.63 45.2024C523.705 35.406 529.605 29.7165 535.086 22.2743C550.327 1.62189 570.119 -3.32212 593.601 1.84424C602.074 3.70435 610.764 4.38654 619.424 3.87154C632.977 2.9429 632.794 9.41721 630.4 17.8534C629.092 22.5228 628.738 25.7011 633.016 27.99C636.784 29.965 638.249 26.4597 640.865 24.4585C647.406 19.4229 655.111 15.813 662.28 11.523C664.713 10.0711 667.513 8.59317 669.867 10.215C682.661 18.9128 700.322 14.7536 712.082 27.2183C713.259 35.3667 700.949 40.4938 705.096 50.2511C703.186 47.1643 700.204 40.7031 697.483 46.1049C693.924 53.1678 687.187 59.7075 688.705 68.9285C702.977 70.8904 703.095 70.9035 704.076 59.3936C704.338 56.0846 702.65 52.6708 704.887 49.571ZM604.969 23.0852C600.429 20.744 594.242 19.6976 592.724 24.2623C591.024 29.3109 592.567 35.89 594.098 41.4095C595.105 44.9671 599.331 45.3332 602.326 42.8351C605.322 40.3369 607.559 36.9101 610.411 34.1765C613.263 31.4429 616.952 28.7747 614.937 24.2492C612.517 18.8736 608.318 22.9152 604.969 23.0852ZM682.321 27.2313C679.535 36.1907 677.886 44.6662 684.27 53.3902C692.538 43.2144 691.936 34.9613 682.321 27.2313V27.2313ZM671.189 53.8349C670.731 51.4283 670.194 48.7469 667.264 47.9622C662.686 46.7327 659.546 49.2701 658.172 53.1939C657.086 56.2545 657.479 60.3091 661.953 60.3091C663.988 60.384 665.991 59.792 667.659 58.6233C669.326 57.4545 670.565 55.7731 671.189 53.8349V53.8349ZM641.506 85.9056C641.727 84.5588 641.538 83.1768 640.965 81.9385C640.391 80.7003 639.458 79.6628 638.288 78.9604C636.313 77.7832 634.363 78.8819 634.063 81.2231C633.749 83.9567 634.18 86.8604 637.006 88.1684C638.994 89.097 640.786 88.1945 641.506 85.9056Z" fill="#BFAFE9"/>
<path fill-rule="evenodd" clip-rule="evenodd" d="M612.779 400.034C603.857 402.65 595.93 404.259 588.905 410.367C602.497 422.138 617.174 413.937 631.119 412.551C634.573 412.211 635.044 407.502 635.986 404.259C639.413 393.102 643.521 382.521 657.466 380.912C658.591 380.781 659.677 379.434 660.606 378.479C677.847 360.652 699.014 363.621 720.559 366.537C743.452 369.637 765.26 375.418 784.359 388.851C797.7 398.065 809.266 409.612 818.502 422.936C821.118 426.768 823.552 430.378 824.507 435.427C826.888 448.088 827.424 447.97 814.761 450.73C812.799 451.161 810.836 451.815 808.612 452.469C809.065 455.488 810.509 458.271 812.716 460.38C814.923 462.489 817.768 463.806 820.804 464.123C827.699 465.091 830.812 470.663 836.175 473.122C843.645 476.522 843.515 482.133 840.296 488.085C833.049 501.517 821.419 510.96 809.606 520.024C801.496 526.237 791.881 522.98 782.75 523.347C775.149 523.66 768.281 524.655 760.354 529.088C727.937 547.007 692.577 550.604 656.694 540.271C642.605 536.217 628.228 532.581 614.99 525.792C612.138 524.341 608.2 523.176 605.309 523.987C595.459 526.603 587.78 521.202 580.702 516.807C571.545 511.091 564.52 502.995 551.818 503.021C546.86 503.021 540.712 497.188 538.998 487.914C537.69 480.891 535.243 478.026 541.313 471.67C544.191 468.662 540.345 458.813 541.823 451.384C544.074 439.939 555.049 424.832 568.366 422.308C574.907 421 571.611 413.728 576.804 412.407C585.582 410.17 580.323 407.175 577.942 402.82C575.234 397.876 584.483 387.125 588.133 390.12C595.302 395.757 605.662 391.454 612.779 400.034Z" fill="#BFAFE9"/>
<path fill-rule="evenodd" clip-rule="evenodd" d="M519.309 429.109C520.853 437.742 527.551 442.306 533.843 449.082C524.346 451.854 516.654 455.504 511.735 448.375C505.927 439.887 519.545 437.349 519.309 429.109Z" fill="#BFAFE9"/>
</g>
<defs>
<clipPath id="clip0_551_6186">
<rect width="1383" height="546" fill="white" transform="translate(-458)"/>
</clipPath>
</defs>
</svg>
