<svg width="1583" height="1115" viewBox="0 0 1583 1115" fill="none" xmlns="http://www.w3.org/2000/svg">
<g opacity="0.6">
<path fill-rule="evenodd" clip-rule="evenodd" d="M862.424 660.938C859.187 644.954 863.128 630.081 860.56 615.341C860.126 612.883 858.909 606.843 863.419 604.024C868.369 600.928 868.164 595.638 867.446 591.177C866.389 584.308 869.197 581.964 875.011 578.927C880.826 575.89 867.527 570.785 874.266 565.693C875.415 564.823 876.787 562.209 876.856 562.256C889.286 570.319 889.377 554.042 896.836 551.95C900.309 550.973 905.173 546.758 905.381 543.735C906.344 529.631 919.799 525.492 926.073 515.769C930.506 508.899 938.719 506.764 945.738 503.797C951.558 501.301 955.02 498.857 956.751 492.112C959.301 482.188 965.278 474.427 975.97 470.672C984.17 467.792 993.183 465.227 995.602 454.253C996.51 450.153 1001.86 449.355 1005.92 447.855C1022.73 441.601 1039.73 440.668 1056.57 446.661C1075.06 453.26 1094.11 454.155 1113.36 455.943C1125.43 457.006 1136.89 461.718 1146.23 469.454C1154.61 476.354 1162.68 485.914 1175.24 486.461C1189.31 501.818 1209.47 510.056 1220.66 529.385C1229.65 544.911 1236.38 561.113 1243.44 577.363C1247.03 585.649 1248.4 594.729 1247.4 603.702C1245.95 617.347 1247.96 630.701 1248.13 644.232C1248.27 658.237 1247.88 672.308 1241.38 685.574C1235.59 697.356 1231.81 710.12 1226.1 721.957C1218.57 737.614 1209.69 752.717 1197.54 765.184C1184.17 778.828 1169.64 791.327 1155.66 804.377C1153.77 806.14 1150.71 808.242 1150.69 810.185C1150.74 820.852 1144.07 820.683 1136.75 819.433C1130.06 818.287 1123.23 815.454 1117.97 822.492C1116.68 824.203 1115.08 823.264 1113.68 822.826C1096.7 818.013 1079.6 820.097 1062.53 821.851C1049.17 823.232 1036.45 818.983 1023.91 816.284C1006.19 812.411 988.116 809.512 971.074 801.833C964.915 799.056 964.581 790.841 957.511 791.144C949.796 791.479 945.237 786.588 940.035 782.018C922.558 766.686 907.902 749.203 894.892 729.847C884.989 715.116 877.368 699.286 868.608 684.015C864.63 676.969 862.502 669.028 862.424 660.938Z" fill="#F9EFF1"/>
<path fill-rule="evenodd" clip-rule="evenodd" d="M1370.91 149.651C1377.85 165.096 1375.12 181.223 1373.94 197.209C1373.75 199.679 1372.71 203.575 1368.98 204.761C1363.75 206.423 1362.43 209.196 1365.81 214.141C1368.86 218.556 1364.79 222.355 1363.05 225.709C1359.95 231.761 1356.07 237.378 1351.5 242.417C1335.59 259.638 1322.51 280.447 1299.61 289.321C1280.67 296.657 1260.75 300.966 1240.52 304.219C1215.65 308.194 1192.68 301.493 1169.32 295.68C1156.68 292.525 1149.54 282.208 1145.79 271.741C1142 261.077 1135.22 253.194 1127.83 246.504C1109.06 229.531 1101.74 207.582 1095.59 184.302C1092.19 171.619 1093.39 159.665 1095.93 147.277C1097.38 140.227 1099.7 133.529 1098.13 125.693C1096.9 119.715 1100.8 113.473 1104.81 108.485C1111.11 100.658 1117.28 92.8013 1120.84 83.2996C1121.23 82.0766 1121.89 80.9566 1122.77 80.0213C1123.64 79.0859 1124.72 78.3587 1125.92 77.8925C1137.81 72.5003 1146.49 62.251 1158.62 56.7302C1165.23 53.7255 1172.49 52.7635 1178.97 48.7364C1183.28 46.0497 1181.53 40.1179 1188.85 38.7083C1208.32 34.9405 1226.3 28.0472 1247.57 33.2532C1263.59 37.1816 1279.07 42.3119 1294.86 46.7433C1305.35 49.6879 1311.04 58.0283 1318.21 64.4424C1336.51 80.8213 1356.16 96.318 1364.52 121.071C1366.48 126.87 1370.87 131.73 1366.35 138.614C1363.03 143.651 1373.52 144.485 1371.36 150.109C1367.17 151.52 1366 145.574 1361.76 146.347C1362 150.544 1360.03 156.153 1366.41 156.911C1369.22 157.224 1369.99 152.559 1370.91 149.651Z" fill="#D1EFF2"/>
<path fill-rule="evenodd" clip-rule="evenodd" d="M1432.74 581.797C1410.7 578.407 1386.13 577.551 1368.34 556.288C1362.13 548.85 1352.81 543.715 1344.34 538.472C1334.24 532.215 1329.59 524.165 1331.92 512.281C1333.8 502.703 1331.43 493.466 1327.51 484.975C1324.8 479.073 1323.48 472.965 1322.29 466.85C1320.53 457.673 1321.08 449.352 1326.67 440.232C1337.45 422.636 1348.72 405.501 1363.48 391.199C1374.97 380.042 1386.1 367.354 1404.22 366.571C1405.28 366.46 1406.31 366.129 1407.24 365.6C1408.18 365.07 1408.99 364.353 1409.62 363.495C1421.15 344.602 1438.09 350.997 1453.55 354.876C1460.98 356.745 1468.49 359.65 1475.86 362.378C1492.06 368.378 1502.66 380.413 1511.57 394.361C1512.11 395.209 1511.28 397.785 1513.62 395.94C1514.24 395.438 1513.85 393.805 1514.41 393.014C1514.84 392.416 1516.42 391.814 1516.77 392.084C1519.17 394.062 1522.71 395.874 1523.47 398.442C1526.45 408.641 1537.96 411.573 1541.61 421.696C1546 433.898 1545.52 447.74 1554.02 458.507C1556.17 461.248 1553.83 463.204 1552.65 465.501C1548.57 473.364 1544.45 481.3 1549.84 490.269C1551.5 492.976 1549.8 495.373 1548.38 497.531C1541.84 507.474 1537.97 519.119 1528.95 527.487C1526.48 529.789 1524.55 532.597 1523.28 535.716C1522.02 538.834 1521.45 542.188 1521.62 545.543C1522.01 552.55 1518.45 555.215 1513.54 557.267C1488.27 567.821 1461.92 574.965 1432.74 581.797Z" fill="#E3F0FC"/>
<path fill-rule="evenodd" clip-rule="evenodd" d="M132.193 747.569C128.499 746.457 124.834 746.146 121.545 748.454C116.324 752.126 111.745 751.527 105.593 749.086C98.8041 746.389 91.0475 748.515 86.5781 755.617C84.1275 759.526 80.9259 759.347 78.9885 756.7C72.6689 748.009 63.6874 744.349 54.4183 740.31C44.1266 735.821 41.5066 728.022 44.0449 716.664C46.9696 703.518 52.8635 692.496 65.1713 686.698C70.6045 684.129 73.2475 680.73 74.2075 674.939C76.0323 664.389 82.7055 658.046 92.7837 657.675C99.6386 657.427 105.422 652.207 112.715 654.807C122.368 658.268 130.983 662.712 135.767 672.65C143.067 687.811 147.876 702.982 139.234 719.162C138.616 720.617 138.346 722.205 138.447 723.795C138.439 728.732 139.597 732.567 131.681 733.89C126.437 734.734 135.329 741.499 132.193 747.569ZM96.4722 709.424C91.214 711.014 88.9474 713.561 89.6225 722.052C92.4161 716.264 96.2514 714.885 96.4722 709.424Z" fill="#FBFAF6"/>
<path fill-rule="evenodd" clip-rule="evenodd" d="M1554.04 760.134C1554.74 762.736 1555.04 766.315 1553.04 767.577C1547.74 770.941 1542.76 773.186 1549.41 780.132C1551.14 781.937 1548.7 785.072 1545.36 787.165C1540 790.527 1534.57 793.422 1540.18 803.137C1543.68 809.171 1534.61 818.572 1527.26 822.133C1517.88 826.691 1508.28 831.094 1497.41 832.669C1483.88 834.638 1470.25 835.42 1456.74 839.327C1445.79 842.492 1433.21 842.129 1421.82 835.457C1410.67 828.982 1397.22 826.767 1387.36 817.594C1382.12 812.732 1378.98 807.402 1378.13 800.056C1376.06 782.401 1371.02 764.985 1375.12 746.95C1376.34 741.538 1372.66 737.077 1372.71 731.616C1372.97 706.076 1386.03 688.264 1406.79 675.153C1426.15 662.792 1449.09 657.16 1471.96 659.15C1481.75 659.911 1493.52 656.544 1500.12 668.931C1501.75 671.981 1508.6 672.803 1513.24 673.633C1525.68 675.876 1531.78 679.374 1536.48 688.971C1537.68 691.437 1538.37 694.041 1541.39 694.367C1547.43 694.986 1549.99 697.963 1551.99 703.898C1555.75 715.086 1564.15 725.254 1556.56 737.902L1557 737.727C1556.04 736.554 1554.68 734.205 1554.18 734.376C1549.35 736.052 1544.62 740.572 1545.21 744.327C1546.13 750.187 1543.43 759.796 1554.5 760.428L1554.04 760.134ZM1501.74 746.967C1497.92 748.808 1495.62 751.517 1496.69 756.23C1496.93 756.627 1497.27 756.955 1497.68 757.183C1498.08 757.411 1498.54 757.532 1499.01 757.533C1503.75 756.263 1502.89 752.032 1503.44 748.594C1503.49 748.321 1502.79 747.932 1501.74 746.967ZM1442.26 727.585C1443.9 730.22 1445.62 726.775 1447.5 727.378C1449.37 727.982 1450.67 726.409 1449.72 724.85C1448.65 723.101 1446.6 722.228 1444.46 723.862C1443.28 724.744 1441.65 725.375 1442.26 727.565L1442.26 727.585Z" fill="#F9F0D1"/>
<path fill-rule="evenodd" clip-rule="evenodd" d="M1556.78 737.723L1556.32 737.902C1567.79 744.018 1566.64 752.07 1553.32 759.77L1553.81 760.077C1550.92 752.315 1546.18 744.404 1556.78 737.723Z" fill="#FBFAF6"/>
<path fill-rule="evenodd" clip-rule="evenodd" d="M581.677 724.346C576.517 725.729 571.991 725.886 567.621 726.662C557.689 728.437 547.734 728.345 537.773 728.197C527.53 728.172 517.405 725.913 508.094 721.576C506.936 721.02 506.241 719.925 504.93 719.532C503.62 719.139 503.197 716.341 500.889 717.28C500.485 715.984 500.086 714.669 498.507 716.307C498.398 716.421 497.761 716.206 497.767 716.195C498.118 713.18 495.202 713.802 493.871 712.707C492.254 711.534 490.897 710.033 489.888 708.302C488.462 705.386 486.56 702.853 484.895 700.125C482.766 696.541 479.997 693.421 478.007 689.724C477.156 688.153 475.716 686.965 475.269 685.051C474.821 683.136 473.585 682.534 471.742 683.603C471.327 683.891 470.843 684.061 470.34 684.096C469.837 684.132 469.333 684.031 468.881 683.804C463.959 680.705 457.89 679.081 455.031 673.291C454.152 671.51 452.08 670.473 452.113 668.119C452.139 666.228 449.875 665.45 449.755 663.4C449.636 661.35 448.113 659.535 447.266 657.595C444.374 650.674 443.749 643.286 442.608 636.027C441.989 632.011 442.336 627.829 442.469 623.724C442.686 617.072 442.899 610.477 444.112 603.916C444.552 601.264 445.276 598.67 446.27 596.178C448.579 590.849 449.202 584.945 451.879 579.734C452.249 578.658 452.407 577.518 452.344 576.379C452.854 568.414 457.14 561.99 460.595 555.186C462.521 551.392 465.64 548.634 468.032 545.252C470.423 541.87 474.071 539.338 476.822 536.218C480.314 532.305 484.047 528.63 487.393 524.558C492.017 519.16 497.066 514.147 502.49 509.567C510.691 502.377 519.872 497.138 530.349 494.716C540.827 492.295 551.31 490.833 562.127 492.155C565.431 492.56 568.902 493.034 572.25 492.523C572.52 492.451 572.93 492.341 573.072 492.416C575.949 494.612 579.216 493.313 582.306 493.55C582.866 493.555 583.418 493.68 583.927 493.916C586.495 495.376 588.727 495.371 591.497 493.856C593.869 492.561 596.684 494.351 599.245 494.88C604.438 495.99 609.514 497.605 614.401 499.702C616.382 500.59 618.208 501.797 619.805 503.275C622.255 505.445 625.36 506.921 627.999 508.926C632.15 512.072 636.781 514.609 640.146 518.766C640.94 519.518 641.608 520.396 642.122 521.364C642.299 521.884 642.593 522.356 642.982 522.743C643.371 523.129 643.844 523.419 644.363 523.59C646.189 524.268 647.847 525.68 646.942 528.193C646.813 528.524 646.811 528.893 646.937 529.226C647.062 529.56 647.307 529.835 647.622 529.998C649.195 531.094 649.83 532.977 651.061 534.258C655.795 539.198 658.376 545.486 661.473 551.326C664.127 556.314 667.169 561.321 667.732 567.293C667.931 569.463 669.067 571.646 670.177 573.628C673.077 578.767 673.499 584.664 674.879 590.163C676.521 596.713 678.432 603.426 678.397 610.265C678.387 614.168 678.463 618.114 678.103 622.035C677.499 628.602 675.896 634.995 674.907 641.487C674.563 643.689 673.502 645.763 673.093 647.964C671.365 656.61 668.218 664.899 663.783 672.493C657.936 682.783 651.604 692.864 643.178 701.339C636.2 708.545 627.594 713.943 618.088 717.077C616.24 717.675 614.488 718.597 612.624 719.172C604.957 721.433 597.027 722.684 589.032 722.893C586.203 723.001 583.623 724.079 581.677 724.346ZM476.631 552.556C476.244 552.823 475.96 553.217 475.828 553.671C475.696 554.125 475.724 554.612 475.907 555.049C476.619 554.218 477.216 553.483 476.476 552.466C477.178 551.948 477.818 551.372 477.348 550.349C477.256 550.265 477.145 550.207 477.024 550.18C476.904 550.153 476.779 550.157 476.661 550.193C475.884 550.778 476.755 551.449 476.627 552.087C476.61 552.243 476.612 552.4 476.631 552.556ZM451.636 602.22C449.682 604.204 449.378 605.962 450.629 608.924C451.732 606.659 452.677 604.607 451.547 602.168C452.343 601.654 452.363 600.716 452.506 599.924C453.215 595.786 454.461 591.762 456.212 587.956C456.56 587.232 457.228 586.516 456.702 585.601C456.548 585.368 456.32 585.193 456.056 585.106C455.697 584.985 455.249 584.813 455.178 585.492C454.847 588.717 452.541 591.163 451.794 594.199C451.118 596.838 448.683 599.497 451.618 602.225L451.636 602.22ZM448.469 616.483C448.084 617.274 448.959 618.311 447.613 619.039C446.544 619.618 446.417 622.28 447.203 623.332C447.989 624.383 448.415 624.891 447.029 625.611C445.944 626.165 446.094 627.246 446.194 628.246C446.444 629.331 446.548 630.444 446.501 631.555C445.933 634.769 447.707 636.441 450.467 638.443C450.241 636.413 449.923 635.122 449.686 633.782C449.193 631.003 446.666 628.581 448.886 625.151C450.217 623.146 449.766 619.998 449.974 617.323C450.031 616.592 449.433 616.036 448.532 616.334C449.238 615.758 449.756 614.982 450.021 614.106C450.285 613.229 450.284 612.292 450.017 611.415C449.876 610.887 449.644 610.233 448.957 610.352C448.447 610.475 447.971 610.709 447.561 611.036C448.285 613.075 446.115 614.947 447.259 616.882C447.559 617.584 448.075 616.824 448.452 616.488L448.469 616.483ZM449.751 639.813C447.3 641.826 447.302 642.598 449.299 645.868C448.66 646.445 447.489 644.724 447.3 646.112C447.111 647.5 448.617 647.54 449.481 647.487C450.345 647.435 451.144 646.721 450.56 645.691C449.575 644.005 449.648 642.186 449.733 639.817L449.751 639.813ZM462.621 569.998C463.468 569.344 464.166 568.515 464.669 567.565C464.764 567.465 464.836 567.345 464.881 567.213C464.926 567.082 464.942 566.942 464.928 566.803C464.914 566.665 464.87 566.531 464.8 566.411C464.73 566.291 464.634 566.187 464.521 566.107C463.937 565.67 463.232 565.379 462.688 566.033C461.63 567.277 460.207 568.591 462.603 570.003L462.621 569.998ZM642.927 587.439C641.557 590.519 643.651 591.606 644.989 592.972C645.071 593.041 645.167 593.091 645.269 593.12C645.372 593.148 645.48 593.154 645.585 593.138C645.69 593.121 645.79 593.082 645.879 593.023C645.968 592.965 646.044 592.887 646.1 592.797C646.18 592.618 646.22 592.424 646.219 592.227C646.218 592.031 646.175 591.837 646.094 591.658C645.214 590.255 643.612 589.507 642.883 587.451L642.927 587.439ZM456.366 663.805C456.605 663.477 456.731 663.387 456.755 663.267C456.833 662.876 456.814 662.47 456.7 662.087C456.586 661.703 456.38 661.354 456.1 661.069C456.008 660.971 455.535 661.051 455.406 661.198C454.846 661.829 455.272 662.44 455.581 663.035C455.797 663.313 456.044 663.567 456.315 663.79L456.366 663.805ZM639.483 583.652C638.593 583.466 637.748 582.232 636.925 583.621C636.704 583.982 636.662 584.558 637.06 584.753C638.194 585.325 638.786 584.432 639.455 583.65L639.483 583.652ZM451.235 660.064C451.23 660.433 451.251 660.802 451.297 661.169C451.379 661.511 451.573 661.817 451.847 662.037C452.121 662.257 452.459 662.379 452.809 662.384C453.013 662.414 453.442 662.167 453.457 662.012C453.548 661.168 452.889 660.836 452.277 660.501C452.009 660.375 451.742 660.286 451.206 660.063L451.235 660.064ZM451.704 619.488C451.561 619.963 451.54 620.467 451.642 620.953C451.745 621.44 451.968 621.893 452.29 622.27C452.568 621.216 452.051 620.469 451.675 619.486L451.704 619.488ZM486.601 543.253C486.712 543.241 486.819 543.205 486.915 543.148C487.01 543.091 487.093 543.013 487.157 542.921C487.22 542.83 487.264 542.725 487.284 542.614C487.305 542.504 487.301 542.391 487.275 542.281C487.268 542.181 487.24 542.084 487.193 541.995C487.146 541.907 487.081 541.83 487.002 541.769C486.922 541.708 486.831 541.665 486.734 541.642C486.637 541.62 486.537 541.618 486.439 541.638C485.934 541.774 485.502 542.219 485.751 542.765C485.875 543.052 486.387 543.15 486.572 543.251L486.601 543.253ZM457.401 581.618C457.259 581.091 457.033 580.595 456.364 580.643C455.695 580.69 455.62 581.351 455.751 581.843C455.832 582.11 456.011 582.336 456.252 582.475C456.492 582.613 456.776 582.654 457.044 582.59C457.439 582.493 457.534 582.081 457.372 581.616L457.401 581.618ZM463.754 675.061C462.656 676.297 462.656 676.297 463.407 677.706L463.754 675.061ZM457.152 670.085C457.732 670.052 457.77 669.636 457.685 669.216C457.619 668.97 457.516 668.584 457.328 668.511C456.728 668.295 456.88 668.895 456.761 669.182C456.641 669.468 456.599 669.903 457.12 670.037L457.152 670.085Z" fill="#E3F0FC"/>
<path fill-rule="evenodd" clip-rule="evenodd" d="M307.048 715.754C330.636 716.872 355.487 715.053 380.377 715.155C384.686 715.173 389.136 715.51 393.378 717.469C400.845 721.021 408.764 723.512 416.907 724.868C421.926 725.661 428.86 726.992 429.178 734.927C429.313 738.211 432.259 738.219 433.998 738.034C451.563 736.142 461.566 747.953 470.878 759.555C481.586 772.885 491.434 786.763 497.587 803.33C506.548 827.454 511.058 851.899 509.294 877.509C509.149 879.715 508.248 882.02 508.692 884.058C513.387 906.099 506.476 925.922 498.029 945.641C496.35 949.561 495.907 954.342 496.057 958.691C496.797 980.122 485.723 996.015 472.23 1010.57C453.157 1031.13 430.086 1046.83 405.158 1058.79C389.635 1066.25 373.177 1071.58 356.228 1074.62C347.729 1076.14 339.166 1077.31 330.694 1078.97C329.384 1079.22 328.226 1079.63 327.087 1078.99C317.559 1073.47 307.993 1077.65 298.531 1078.95C292.781 1079.74 289.843 1074.33 285.782 1073.64C280.257 1072.7 276.962 1072.57 278.782 1065.87C279.036 1064.94 277.913 1063.74 276.188 1063.84C262.586 1064.67 258.827 1063.54 250.75 1060.34C241.455 1056.69 232.422 1053.05 223.982 1047.35C213.294 1040.18 211.662 1038.37 207.401 1022.18C206.277 1017.99 200.617 1016.89 199.295 1010.91C197.63 1003.42 192.214 996.866 191.05 988.52C190.618 985.484 185.271 980.689 183.409 979.997C177.437 977.733 176.317 972.442 175.459 968.611C173.852 961.397 171.457 955.379 166.061 950.26C163.562 947.89 163.024 944.836 168.226 944.436C168.544 944.375 168.834 944.217 169.058 943.983C169.281 943.75 169.428 943.452 169.476 943.131C169.525 942.809 169.474 942.481 169.329 942.189C169.185 941.898 168.955 941.658 168.67 941.503C157.086 936.165 159.1 924.839 157.162 915.313C156.812 913.625 157.113 911.931 155.978 910.303C148.537 899.568 150.651 887.849 154.448 877.058C159.643 862.338 164.045 847.689 165.298 831.99C166.487 816.926 175.575 804.915 182.588 792.221C192.625 774.055 207.16 759.843 223.56 747.729C230.934 742.292 239.754 738.635 248.115 734.725C266.569 726.103 285.04 717.543 307.048 715.754ZM178.131 927.863C178.013 921.094 170.295 927.993 168.994 922.929C169.859 926.158 168.095 930.214 171.922 932.744C174.387 930.751 176.41 929.121 178.383 927.551C177.757 930.533 177.869 933.317 180.668 935.869C181.188 932.456 180.601 929.883 178.131 927.863ZM237.28 983.956C244.833 976.407 232.755 969.851 236.138 962.52C231.752 960.787 235.227 955.644 232.267 953.464C231.449 952.877 229.306 952.841 228.765 953.465C226.84 955.772 224.775 959.749 226.269 961.534C231.409 967.435 230.549 974.691 232.24 981.348C233.035 984.314 235.23 984.092 237.509 983.631C238.439 986.196 236.302 989.798 239.9 991.648C240.662 988.48 240.185 985.794 237.28 983.956ZM188.975 925.013C189.346 948.475 189.346 948.475 193.292 954.753C195.283 946.331 193.024 930.841 188.975 925.013ZM166.835 916.82C172.096 914.379 164.453 909.354 169.687 907.924C173.824 906.815 172.502 904.037 171.706 901.971C170.626 899.193 171.047 894.053 165.451 896.012C161.192 897.5 160.052 901.135 162.764 904.235C166.016 907.922 164.496 912.644 166.835 916.82ZM202.989 932.223C206.592 931.764 206.845 928.92 207.632 926.571C208.063 925.292 207.635 923.521 206.275 923.698C203.254 924.104 200.465 925.48 200.911 929.3C201.04 930.372 202.317 931.315 202.989 932.223ZM229.761 790.724C229.957 792.219 230.963 792.775 232.373 792.613C234.512 792.359 234.928 790.746 234.712 789.003C234.594 788.041 234.764 786.101 232.777 787.168C231.399 787.903 229.613 788.503 229.761 790.724ZM239.072 1011.3C234.143 1016.37 238.478 1017.46 241.629 1019.14L239.072 1011.3ZM279.651 903.456C282.001 902.77 281.122 900.81 281.138 899.305C281.088 898.513 280.79 897.756 280.288 897.141C278.272 897.438 277.674 899.033 277.637 900.806C277.596 901.113 277.615 901.425 277.694 901.724C277.773 902.024 277.91 902.305 278.097 902.551C278.284 902.797 278.518 903.004 278.785 903.159C279.052 903.314 279.346 903.415 279.651 903.456ZM240.034 882.011C240.871 877.172 241.478 874.121 237.498 871.989C236.372 875.508 237.018 878.055 240.034 882.011ZM219.281 920.054C219.37 922.225 220.216 923.02 221.793 922.786C223.369 922.551 224.345 921.567 223.744 920.124C223.294 919.035 221.998 918.303 221.071 917.417C220.396 918.442 219.724 919.447 219.281 920.054ZM207.647 1002.83C207.77 1003.7 208.189 1004.51 208.831 1005.11C209.474 1005.71 210.301 1006.07 211.175 1006.13C211.573 1005.41 211.802 1004.61 211.844 1003.79C211.839 1001.76 210.918 1000.33 208.686 1000.7C208.236 1000.79 207.983 1002.1 207.663 1002.89L207.647 1002.83ZM204.009 968.399C203.59 966.832 202.353 966.77 201.15 966.801C198.3 966.871 197.682 968.669 198.204 971.07C198.47 972.303 199.1 973.579 200.749 973.127C203.07 972.506 203.948 970.741 203.979 968.426L204.009 968.399ZM284.671 975.694C285.17 974.81 286.435 973.551 286.203 972.685C285.926 971.652 284.38 970.228 283.391 970.221C280.218 970.237 282.29 972.683 282.159 974.003C282.028 975.323 282.69 976.365 284.671 975.694ZM204.967 784.133C205.078 782.462 204.754 780.973 203.44 781.147C201.543 781.402 201.176 783.404 200.878 785.003C200.807 785.3 200.806 785.609 200.875 785.907C200.943 786.204 201.08 786.481 201.275 786.716C201.469 786.951 201.715 787.138 201.993 787.26C202.271 787.383 202.574 787.438 202.877 787.422C205.354 787.35 204.74 785.197 204.967 784.133ZM205.002 949.055C204.584 952.187 201.272 953.14 202.542 956.28C202.718 956.73 204.272 957.176 204.575 956.917C206.943 955.044 207.581 952.735 204.998 949.037L205.002 949.055ZM162.248 885.099C163.586 886.372 164.151 887.403 164.793 887.437C167.366 887.685 167.41 885.798 167.106 884.003C166.835 883.193 166.453 882.424 165.972 881.718C164.702 882.818 163.393 883.985 162.243 885.081L162.248 885.099Z" fill="#FAEFE4"/>
<path fill-rule="evenodd" clip-rule="evenodd" d="M973.393 221.067C972.168 245.54 971.314 266.341 970.022 287.109C969.279 299.436 969.288 312.02 966.401 323.876C960.6 347.551 957.906 373.061 936.617 389.7C932.602 392.847 931.59 397.578 928.142 400.89C905.994 422.517 880.14 438.195 851.46 449.425C849.999 450.003 848.382 450.838 846.918 450.708C824.767 448.685 803.001 455.599 780.853 453.482C778.249 453.247 775.242 452.486 773.023 453.407C756.1 460.507 740.149 459.724 724.888 448.97C722.815 447.51 719.935 447.499 717.192 448.14C711.962 449.262 708.213 446.637 704.633 443.109C694.547 433.151 683.246 424.797 671.248 417.153C664.152 412.635 660.601 404.472 656.836 397.047C652.395 388.282 648.726 379.124 641.691 371.904C639.892 370.072 637.417 367.321 637.684 365.318C639.595 350.485 627.742 339.163 627.924 324.849C628.106 310.536 624.767 296.821 625.068 282.391C625.305 271.459 627.356 260.703 627.201 249.735C627.025 238.27 635.417 229.351 640.292 219.546C649.401 201.244 656.902 182.236 670.151 165.924C688.033 143.891 711.261 129.886 735.123 115.908C750.352 106.985 767.722 103.786 782.895 95.2145C784.203 94.4816 786.247 93.7754 787.43 94.2885C805.013 102.377 824.716 92.5451 842.278 100.835C844.565 101.911 847.823 102.773 849.979 101.963C865.683 96.0662 875.578 105.207 886.268 114.35C902.41 128.152 916.655 143.694 930.864 159.31C933.579 162.515 936.641 165.408 939.995 167.938C959.828 181.88 964.103 204.702 973.393 221.067ZM649.892 288.045L655.038 297.311C657.279 301.32 666.751 302.672 671.543 298.906C675.625 295.695 674.295 291.741 670.885 288.466C669.622 287.237 666.205 285.503 669.178 284.258C680.102 279.699 671.552 267.314 678.935 261.399C680.383 260.246 679.143 257.154 676.873 256.456C675.63 256.071 673.167 256.572 672.602 257.498C667.459 265.985 653.615 271.048 661.642 284.897C663.143 287.499 660.708 289.812 659.035 292.602C656.163 291.123 654.842 286.225 649.892 288.045ZM686.765 255.858C691.817 251.071 694.078 245.213 696.446 237.805C689.195 242.612 678.221 243.846 686.73 255.868L686.765 255.858ZM699.297 223.028C699.708 220.483 700.247 219.042 700.091 217.657C699.8 214.861 703.561 211.885 699.851 209.371C699.26 208.979 697.732 209.342 696.997 209.875C693.408 212.45 696.149 215.429 696.762 218.203C697.034 219.567 698.039 220.772 699.262 223.038L699.297 223.028ZM680.531 347.931C679.419 340.887 679.419 340.887 675.301 334.966C676.438 342.311 676.438 342.311 680.497 347.941L680.531 347.931ZM696.712 373.45C695.927 368.641 702.283 365.688 696.272 361.906C695.263 361.244 692.694 361.456 692.023 362.261C687.903 367.144 692.462 369.374 696.692 373.483L696.712 373.45ZM671.775 325.713C673.284 325.486 674.977 325.042 674.421 323.138C673.743 320.82 672.929 318.164 669.859 317.83C667.941 317.644 667.2 319.168 667.252 320.758C667.3 323.656 668.641 325.555 671.713 325.758L671.775 325.713ZM661.661 232.563C660.894 234.482 660.28 236.459 659.826 238.475C659.634 239.711 660.825 240.288 662.091 239.958C664.096 239.42 664.385 238.056 663.765 236.337C663.255 234.99 663.531 233.162 661.598 232.607L661.661 232.563ZM658.853 327.03C658.304 328.922 657.62 329.963 657.825 330.795C658.327 332.843 657.531 337.404 660.396 336.104C663.262 334.805 661.662 330.718 658.79 327.075L658.853 327.03Z" fill="#EFEFFA"/>
<path fill-rule="evenodd" clip-rule="evenodd" d="M731.006 731.414C750.409 730.018 771.971 728.974 793.477 733.194C796.192 733.735 798.953 734.065 800.534 736.093C808.311 746.039 819.685 748.757 830.87 751.921C846.898 756.454 857.395 767.202 864.756 781.768C870.9 793.954 877.754 805.651 877.259 820.198C877.056 826.414 876.842 832.594 876.537 838.78C875.631 856.988 870.116 874.637 872.266 893.332C873.572 904.73 865.629 915.198 862.719 926.383C857.185 947.587 840.23 960.037 824.852 973.418C815.5 981.558 805.153 988.669 795.25 995.943C772.839 1012.41 748.342 1024.48 719.046 1010.33C714.483 1008.13 708.389 1006.17 701.21 1008.54C693.142 1011.22 687.164 1002.83 682.67 996.414C679.774 992.076 675.868 988.513 671.291 986.034C647.948 973.422 634.79 953.723 630.373 927.504C628.503 916.2 620.915 906.823 619.387 894.911C615.328 863.402 621.185 833.603 633.941 805.345C641.405 788.799 649.841 772.912 663.866 759.575C680.918 743.408 699.774 734.636 722.421 732.268C724.611 732.104 726.723 731.895 731.006 731.414ZM664.161 789.801C659.905 794.359 655.603 798.884 654.022 805.224C653.634 806.812 653.375 808.637 655.179 809.299C656.484 809.776 659.283 809.721 659.429 809.288C661.423 802.78 669.747 797.498 663.604 789.293C667.02 790.181 670.133 790.116 670.525 785.682C670.621 784.473 669.238 782.064 668.417 782.002C664.044 781.69 663.511 784.829 663.726 788.283C663.81 788.817 663.959 789.338 664.17 789.836L664.161 789.801ZM709.96 957.238C718.185 950.263 720.404 958.44 723.276 961.868C726.737 965.993 720.681 971.889 724.363 977.401C725.301 967.261 731.11 962.295 740.399 961.14C739.643 958.525 739.113 957.071 738.814 955.535C738.139 952.11 735.784 950.055 733.112 948.207C731.572 947.136 728.757 946.116 731.894 944.082C733.932 942.757 737.669 942.995 736.358 939.186C735.187 935.828 731.723 938.212 729.472 937.275C727.221 936.338 726.127 934.696 726.541 932.369C727.114 929.069 730.208 924.362 723.503 924.731C718.562 925.022 718.884 929.5 719.277 933.376C719.45 935.067 721.86 937.295 720.451 937.757C715.177 938.372 718.304 932.952 713.066 933.566C715.743 941.254 714.302 948.364 709.987 957.268L709.96 957.238ZM628.75 899.333C630.463 902.029 631.151 906.691 635.201 906.808C638.314 906.913 640.721 902.99 640.171 900.207C639.555 897.001 637.443 893.304 632.921 893.764C630.042 894.075 628.552 895.977 628.777 899.363L628.75 899.333ZM681.743 822.598C675.745 826.233 675.907 831.233 677.034 836.416C677.135 836.792 679.119 837.219 679.922 836.938C686.684 834.581 681.461 828.937 682.962 825.088C683.096 824.818 682.561 824.219 681.77 822.628L681.743 822.598ZM743.79 934.133C744.307 935.269 745.132 936.238 746.169 936.928C747.207 937.618 748.416 938.002 749.658 938.036C752.764 938.256 754.266 935.562 753.885 932.884C753.504 930.206 751.719 927.764 748.654 928.322C745.927 928.818 744.566 931.343 743.79 934.133ZM794.062 883.727C796.838 882.542 798.852 880.397 798.74 877.779C798.573 873.391 794.625 873.725 791.689 873.789C789.604 873.822 787.135 875.488 788.071 877.726C789.066 880.324 790.323 883.621 794.036 883.735L794.062 883.727ZM775.01 877.188C778.205 877.496 781.206 882.871 784.306 878.256C785.074 877.111 784.101 873.165 783.082 872.78C779.521 871.49 778.166 876.201 774.984 877.195L775.01 877.188ZM794.413 914.718C796.571 914.995 796.643 913.379 796.805 911.927C796.967 910.475 797.195 908.498 795.509 908.208C794.705 908.066 793.128 909.785 792.677 911.032C792.447 911.746 792.49 912.521 792.798 913.206C793.106 913.891 793.657 914.437 794.343 914.737L794.413 914.718ZM754.819 960.751C756.956 960.178 758.991 959.192 758.807 956.658C758.679 954.889 756.832 954.276 755.356 954.766C753.535 955.366 750.949 955.759 751.326 958.597C751.491 960.328 753.035 960.928 754.749 960.769L754.819 960.751ZM708.963 986.655C712.878 986.686 713.662 985.565 713.405 983.699C713.193 982.103 712.49 980.282 710.819 980.326C710.319 980.302 709.82 980.391 709.359 980.585C708.898 980.78 708.487 981.076 708.154 981.451C707.822 981.826 707.578 982.271 707.439 982.754C707.301 983.237 707.272 983.745 707.354 984.241C707.597 985.195 708.136 986.047 708.894 986.674L708.963 986.655Z" fill="#FBFAF6"/>
<path fill-rule="evenodd" clip-rule="evenodd" d="M335.27 562.594C326.223 571.914 317.341 581.395 308.072 590.513C298.322 600.069 289.789 611.621 274.525 613.089C271.349 613.408 269.244 615.008 267.05 617.528C250.477 636.61 228.008 633.233 206.999 630.912C198.64 629.998 192.682 618.539 181.974 619.253C167.71 599.056 144.987 605.928 125.828 602.803C111.321 600.429 96.3308 600.442 84.9283 590.191C66.8444 573.947 45.8403 558.84 46.7344 530.606C47.5132 505.884 37.1831 483.064 36.0341 458.438C35.2209 440.926 36.1076 426.374 48.4352 413.077C64.8383 395.384 78.7144 375.83 96.5609 358.955C119.561 337.208 146.153 325.025 175.046 318.608C216.694 309.315 259.518 307.862 299.543 326C322.299 336.308 343.261 350.558 357.632 372.481C365.798 385.012 374.766 397.003 384.478 408.381C395.587 421.268 396.892 438.835 406.975 452.081C407.464 452.69 407.807 453.402 407.977 454.164C408.148 454.926 408.141 455.717 407.959 456.477C407.776 457.236 407.422 457.944 406.924 458.546C406.425 459.148 405.795 459.628 405.083 459.95C397.486 463.274 400.816 468.447 402.148 473.418C403.394 478.067 404.178 484.483 400.496 486.44C383.572 495.454 388.203 517.728 372.473 528.373C358.811 537.632 348.592 551.96 336.864 564.042L335.27 562.594ZM117.875 394.648C111.804 392.924 109.844 397.574 107.639 401.45C106.098 404.14 105.114 407.725 107.776 409.811C110.129 411.616 114.184 412.06 116.421 409.772C119.424 406.709 123.603 403.573 121.546 398.059C133.849 386.868 150.964 381.704 162.869 366.793C147.23 367.559 137.405 383.638 127.236 381.305C106.488 376.572 119.809 389.762 117.875 394.648ZM113.767 510.452C89.2257 517.168 89.2257 517.168 93.5244 532.094C100.149 524.897 109.829 521.324 113.767 510.452ZM159.426 347.877C167.26 350.948 174.351 345.492 181.702 346.798C186.999 347.73 185.444 344.367 185.13 341.624C184.848 339.246 183.805 336.679 181.317 337.616C173.906 340.414 164.176 338.495 159.426 347.877ZM182.764 560.141C184.041 557.932 185.745 554.872 183.387 554.235C179.358 553.149 174.794 553.56 170.506 553.954C169.931 554.005 168.649 558.604 169.46 559.469C173.582 563.898 178.344 563.145 182.764 560.141ZM204.979 462.067C207.865 463.104 210.804 463.744 213.622 461.981C215.64 460.722 216.867 458.536 214.461 457.091C211.781 455.495 208.507 456.288 206.058 458.241C205.211 458.953 205.294 460.798 204.979 462.067ZM181.353 363.427C182.893 367.045 185.156 364.713 186.4 363.493C187.883 362.051 189.655 359.663 189.438 357.911C189.168 355.65 186.209 355.211 184.135 355.879C180.334 357.112 181.131 360.435 181.344 363.429L181.353 363.427Z" fill="#F9EFF1"/>
</g>
</svg>
