<svg width="1110" height="467" viewBox="0 0 1110 467" fill="none" xmlns="http://www.w3.org/2000/svg">
<g opacity="0.6" clip-path="url(#clip0_555_5724)">
<path fill-rule="evenodd" clip-rule="evenodd" d="M85.925 181.744C75.6042 177.772 65.6535 183.679 55.1644 178.969C34.3656 169.639 11.671 164.493 -6.53636 149.704C-10.5637 146.437 -16.3524 144.312 -16.4982 138.517C-16.745 128.516 -23.3751 125.093 -31.082 122.016C-35.1094 120.405 -41.4925 121.3 -42.1768 115.517C-42.8611 109.733 -40.5165 104.084 -36.5677 99.5193C-34.7503 97.4385 -30.2742 97.7741 -30.263 94.4292C-30.263 91.4647 -24.71 86.9004 -32.4057 85.2559C-36.5228 84.3833 -36.1414 80.8706 -33.2134 79.159C-28.7261 76.586 -24.6875 73.2411 -19.2354 72.4468C-12.3091 71.3444 -5.93444 68.0128 -1.08414 62.9603C23.0128 38.8188 56.6901 27.341 90.8162 27.0837C108.182 26.9606 125.593 25.4392 142.589 28.8064C174.236 35.1047 198.68 51.1021 210.067 83.2982C213.648 93.4883 218.656 103.122 224.942 111.914C228.185 116.389 232.47 120.316 229.979 125.272C226.221 132.767 229.475 142.656 220.421 148.451C210.123 155.063 199.869 160.947 187.698 163.553C171.386 167.055 154.368 168.599 140.042 178.522C136.385 181.05 132.088 180.155 128.184 180.222C113.859 180.423 99.6899 184.909 85.925 181.744Z" fill="#E3F0FC"/>
<path fill-rule="evenodd" clip-rule="evenodd" d="M54.6483 215.629C68.1103 218.918 80.0017 215.394 91.9604 217.139C114.498 220.417 137.238 222.229 159.798 225.373C168.705 226.614 169.086 228.986 164.476 238.898C164.004 239.938 162.759 241.314 163.062 241.896C168.447 252.21 158.665 261.361 161.357 272.201C163.803 282.035 167.392 292.83 162.681 303.626C161.626 306.042 164.924 308.458 166.652 310.774C172.519 318.504 170.937 324.78 162.277 328.024C155.546 330.53 148.501 332.04 141.568 333.897C138.797 334.647 135.151 334.244 133.289 335.911C115.496 351.696 93.4412 346.483 72.8781 348.765C49.084 351.394 27.5336 341.863 5.11939 336.985C-4.74151 334.837 -15.3876 335.788 -23.9809 328.259C-31.0596 322.05 -36.8034 313.951 -47.8535 312.709C-53.1597 312.116 -52.1165 303.245 -56.0204 300.225C-64.6585 293.512 -65.2081 282.124 -72.7356 274.73C-77.7951 269.751 -76.4153 261.831 -72.3542 257.11C-68.2932 252.389 -63.8621 248.317 -63.7499 241.348C-63.7499 237.992 -60.8106 237.119 -57.6583 236.493C-40.943 233.192 -25.1252 225.574 -7.51244 226.424C-6.40497 226.266 -5.36165 225.809 -4.49464 225.104C14.4419 213.28 35.6781 216.915 54.6483 215.629Z" fill="#E3F0FC"/>
<path fill-rule="evenodd" clip-rule="evenodd" d="M492.185 328.998C500.128 328.371 505.468 325.172 505.243 316.804C505.176 313.895 504.716 309.678 507.868 309.264C523.136 307.25 513.971 293.009 519.771 286.297C521.274 284.552 519.401 281.688 517.168 280.703C511.447 278.164 513.174 273.029 512.591 268.7C510.695 254.47 510.796 254.157 524.931 257.311C532.548 259.034 542.544 254.783 547.144 265.579C547.839 267.212 551.496 266.205 553.392 264.605C560.224 258.844 569.423 258.397 577.164 253.631C585.993 248.194 598.479 253.116 609.248 253.933C622.362 254.917 635.364 258.139 648.221 261.182C654.989 262.795 661.161 266.286 666.024 271.25C670.096 275.356 674.269 279.92 679.34 282.337C695.797 290.168 697.996 305.829 701.676 320.786C702.798 325.261 703.134 330.53 699.5 333.83C691.972 340.666 688.034 349.794 682.593 357.938C676.008 367.816 665.564 373.041 655.232 375.311C627.657 381.375 599.746 385.458 571.454 377.885C559.293 374.629 546.65 373.242 534.321 370.535C523.103 368.051 524.068 355.533 514.532 353.956C516.159 338.115 500.15 337.902 492.185 328.998Z" fill="#E3F0FC"/>
<path fill-rule="evenodd" clip-rule="evenodd" d="M353.246 158.922C370.915 158.486 386.666 163.677 402.091 171.731C407.554 174.595 411.447 177.537 414.779 182.538C421.51 192.606 428.577 202.741 438.696 209.476C443.049 212.373 441.736 213.951 440.94 217.307C438.113 229.926 432.751 241.918 431.629 254.929C430.754 264.885 422.329 268.823 415.497 271.351C398.894 277.47 382.964 285.111 364.936 288.21C335.443 293.255 309.82 283.735 283.412 274.069C276.883 271.687 279.766 261.037 270.354 262.67C263.522 263.867 259.865 259.84 258.609 253.004C258.205 250.767 254.907 250.845 252.641 250.286C245.203 248.418 241.119 242.97 238.483 236.202C237.739 234.627 237.24 232.948 237.002 231.223C236.621 224.925 225.537 224.142 228.566 217.531C231.427 211.299 239.156 216.244 244.272 214.264C247.121 213.145 252.484 212.933 250.767 208.156C247.155 198.166 255.692 192.159 258.62 184.887C262.322 175.837 272.082 170.344 283.042 171.138C290.345 171.675 296.829 167.066 302.842 167.077C320.377 167.111 335.914 156.942 353.246 158.922ZM406.421 233.875C415.463 228.158 414.846 222.229 407.117 216.132C406.758 222.061 399.006 227.823 406.421 233.886V233.875Z" fill="#E3F0FC"/>
<path fill-rule="evenodd" clip-rule="evenodd" d="M351.047 76.8097C354.772 72.2343 359.203 75.7469 362.759 74.3038C365.25 73.3082 366.742 69.9073 365.003 69.0012C354.604 63.6314 361.996 59.6377 365.508 55.0958C366.495 53.8205 366.731 51.9746 367.224 50.621C364.981 44.2444 357.666 51.5831 355.591 45.4526C359.158 41.347 364.408 47.9249 368.088 44.0431C370.769 41.224 369.804 35.5522 374.819 34.6349C388.371 32.1625 401.418 25.0923 415.542 28.2359C422.822 29.858 428.6 29.7685 435.286 26.0656C441.781 22.4746 450.105 20.405 457.016 23.0451C467.415 27.0165 477.063 26.0208 487.563 24.4547C497.66 22.9332 508.598 23.336 517.482 29.5112C522.935 33.326 528.701 30.6299 534.142 32.3863C542.97 35.2054 544.833 36.6373 540.873 45.1058C536.497 54.3575 540.873 60.2754 546.336 66.4282C553.067 74.0577 561.537 80.9713 554.065 93.0309C552.573 95.4361 555.254 100.101 554.278 103.177C552.169 109.89 562.681 111.221 559.798 117.284C557.936 121.166 548.456 118.403 551.014 127.207C551.754 129.758 547.716 130.474 545.764 130.339C543.74 130.14 541.706 130.598 539.965 131.647C538.224 132.695 536.87 134.277 536.105 136.157C528.858 151.55 515.429 149.872 502.315 148.619C488.483 147.31 474.539 146.381 461.223 141.907C447.043 137.107 432.291 135.105 417.471 133.461C407.745 132.342 398.871 128.807 393.15 121.692C386.093 112.944 376.053 108.122 368.705 100.023C365.126 96.0849 359.08 95.0557 363.029 86.4417C365.497 81.1615 354.884 80.5686 351.047 76.8097Z" fill="#E3F0FC"/>
<path fill-rule="evenodd" clip-rule="evenodd" d="M323.047 324.142C331.522 327.656 340.981 328.017 349.702 325.16C355.041 323.561 360.078 324.545 365.205 325.16C368.941 325.608 372.89 327.398 369.098 331.604C364.846 336.291 367.011 341.404 369.098 344.301C376.065 354.135 377.198 367.212 387.204 375.312C392.298 379.428 396.785 384.418 390.469 391.342C389.438 392.398 388.789 393.767 388.625 395.231C388.46 396.696 388.789 398.173 389.56 399.431C396.089 410.618 387.249 418.102 382.639 426.056C378.51 433.182 370.87 433.115 364.24 429.132C359.327 426.179 354.862 425.776 352.91 431.112C348.209 444 337.014 441.773 327.242 443.552C297.222 449.022 269.569 435.005 240.446 433.204C238.337 433.07 236.284 431.28 234.31 430.083C215.407 418.639 197.682 405.818 183.704 388.367C180.17 383.892 176.704 379.003 170.242 376.363C174.225 375.245 178.42 374.652 182.111 372.929C184.725 371.709 186.98 367.928 183.132 366.34C174.752 362.883 181.505 358.117 180.888 354.034C180.17 348.843 191.445 345.565 182.515 339.021C180.148 337.276 185.275 334.546 187.844 334.826C196.661 335.71 204.671 333.853 212.76 330.351C221.734 326.38 225.504 329.3 226.928 340.028C227.153 341.728 227.411 343.518 229.475 344.122C230.329 344.171 231.175 343.927 231.871 343.431C232.567 342.934 233.071 342.215 233.3 341.393C234.961 336.001 235.028 328.953 241.355 327.185C248.086 325.328 255.221 326.581 262.053 328.371C263.904 328.852 265.205 329.859 265.205 331.817C265.205 334.636 262.962 336.616 260.864 336.135C257.229 335.273 254.133 336.627 250.7 336.761C244.597 337.019 242.107 339.67 244.261 345.711C246.067 350.79 247.772 355.634 241.176 358.934C239.111 359.974 240.559 362.077 241.602 363.409C242.881 365.02 244.429 364.796 245.753 363.308C254.862 353.117 268.122 348.854 278.577 340.453C284.837 335.43 292.746 332.286 300.229 329.02C303.92 327.398 308.755 324.187 312.277 329.109C315.486 333.584 319.502 338.719 313.062 343.943C311.649 345.062 310.348 346.516 311.604 347.993C313.736 350.499 316.17 348.351 317.696 347.109C324.483 341.516 326.771 334.289 323.047 324.142ZM288.584 345.14C287.72 345.744 286.206 346.472 286.284 346.818C286.8 349.056 284.041 351.539 286.711 353.531C286.744 350.656 290.749 348.597 288.584 345.14Z" fill="#E3F0FC"/>
<path fill-rule="evenodd" clip-rule="evenodd" d="M586.509 153.172C591.613 149.592 597.29 152.926 602.013 149.48C605.726 146.773 608.216 146.303 607.745 139.602C606.623 123.482 613.534 117.474 629.711 115.986C634.198 115.573 634.467 115.629 636.767 107.182C637.608 104.084 640.132 104.632 641.815 103.468C650.184 97.8748 659.45 101.801 666.753 103.837C675.728 106.355 682.897 106.075 690.02 101.354C693.834 98.8368 697.671 98.5348 701.62 98.9264C719.984 100.716 738.338 102.775 756.68 104.822C764.286 105.661 769.536 109.174 771.476 117.128C773.409 125.904 777.6 134.028 783.637 140.699C789.504 147.153 786.027 158.508 791.927 166.261C792.522 167.055 790.637 170.881 788.999 172.011C780.451 177.884 779.06 186.464 777.422 195.895C776.39 201.869 771.925 206.221 763.96 209.319C751.878 213.984 738.607 212.765 727.029 220.037C715.149 227.498 700.835 221.894 687.765 221.435C666.686 220.719 647.312 212.799 630.765 199.844C622.632 193.49 615.665 184.496 610.752 175.949C606.029 167.726 602.506 161.629 592.802 160.287C590.065 159.873 587.956 157.423 586.509 153.172Z" fill="#E3F0FC"/>
<path fill-rule="evenodd" clip-rule="evenodd" d="M933.155 193.96L945.495 188.735C941.77 184.473 945.562 179.562 944.283 175.177C943.621 172.939 939.358 170.601 944.609 169.002C952.304 166.652 953.247 158.598 957.925 153.687C961.29 150.107 962.02 141.895 969.143 150.017C969.547 150.509 972.397 149.503 973.631 148.563C988.899 137.096 1005.19 136.694 1023.17 141.616C1033.92 144.547 1045.46 147.858 1057.01 144.301C1061.93 142.779 1066.82 143.182 1069.86 146.65C1076.01 153.72 1084.05 154.279 1091.75 153.094C1098.82 151.975 1102.27 156.539 1107.04 159.28C1108.43 160.074 1110.84 161.171 1109.66 163.005C1104.53 171.049 1106.6 181.039 1102.39 189.127C1097.99 197.562 1095.94 203.67 1096.43 212.34C1096.47 212.918 1096.45 213.499 1096.37 214.074C1095.25 221.054 1105.14 225.44 1102.24 231.145C1099.92 235.62 1092.85 237.779 1087.98 241.068C1087.02 241.714 1086.27 242.634 1085.84 243.708C1084.21 248.183 1088.55 254.537 1082.06 257.367C1076.2 259.914 1069.74 260.722 1063.43 259.694C1036.63 255.029 1009.91 249.816 983.233 244.48C978.692 243.511 974.371 241.709 970.489 239.166C967.202 237.041 960.886 235.687 964.88 228.953C965.486 227.923 964.88 225.059 963.758 224.332C952.405 216.076 949.691 199.553 933.155 193.96ZM1092.12 183.891C1094.8 184.037 1095.37 182.37 1095.61 180.77C1096.15 177.224 1100.73 173.745 1096.03 170.109C1095.54 169.851 1095 169.703 1094.45 169.675C1093.9 169.648 1093.35 169.743 1092.84 169.952C1088.06 172.067 1088.47 176.184 1089.47 180.155C1089.83 181.654 1091.32 182.773 1092.12 183.891ZM1064.67 194.183C1065.71 193.367 1067.57 192.64 1068.13 191.353C1069.83 187.46 1066.18 188.299 1064.43 187.997C1062.68 187.695 1060.92 188.265 1061.07 190.581C1061.2 192.427 1062.42 193.568 1064.67 194.183Z" fill="#E3F0FC"/>
<path fill-rule="evenodd" clip-rule="evenodd" d="M921.241 42.3986C923.877 49.1108 918.873 56.0691 921.723 62.8372C922.127 63.7769 922.25 65.7346 921.801 65.9807C909.461 72.9054 910.101 84.0029 910.583 95.9842C910.807 101.98 906.96 107.675 899.264 109.409C892.006 111.087 885.162 114.465 878.061 116.893C873.767 118.498 869.168 119.124 864.599 118.727C856.511 117.944 853.381 106.746 848.579 108.033C841.938 109.789 836.138 113.089 828.97 110.684C808.014 103.681 789.425 93.9034 779.217 72.6482C777.119 68.2629 775.784 67.2784 780.765 63.6986C785.308 60.4432 778.319 57.8926 776.805 54.8273C774.168 49.5359 760.157 49.2338 769.232 38.6622C765.867 30.2831 770.926 25.4168 775.627 19.0514C788.696 1.38721 805.669 -2.84146 825.806 1.5774C833.073 3.16837 840.525 3.75185 847.951 3.31136C859.573 2.51709 859.416 8.05464 857.363 15.2702C856.242 19.264 855.939 21.9824 859.607 23.9401C862.838 25.6294 864.094 22.6312 866.338 20.9196C871.947 16.6127 878.555 13.525 884.702 9.85571C886.789 8.61396 889.19 7.34983 891.209 8.73702C902.181 16.1763 917.325 12.6189 927.411 23.2801C928.42 30.2496 917.864 34.6348 921.42 42.9803C919.782 40.3402 917.224 34.8138 914.891 39.4341C911.839 45.475 906.062 51.0685 907.363 58.9553C919.603 60.6334 919.703 60.6446 920.545 50.8001C920.769 47.9698 919.322 45.0499 921.241 42.3986ZM835.555 19.745C831.662 17.7426 826.356 16.8476 825.055 20.7518C823.596 25.07 824.92 30.6971 826.233 35.418C827.096 38.4608 830.72 38.774 833.289 36.6373C835.858 34.5006 837.776 31.5696 840.222 29.2316C842.667 26.8935 845.831 24.6113 844.103 20.7406C842.028 16.1428 838.427 19.5996 835.555 19.745ZM901.889 23.2913C899.499 30.9543 898.086 38.2035 903.56 45.6652C910.65 36.9617 910.134 29.9028 901.889 23.2913ZM892.342 46.0456C891.95 43.9872 891.49 41.6938 888.977 41.0226C885.05 39.971 882.358 42.1413 881.18 45.4974C880.249 48.1151 880.585 51.5831 884.422 51.5831C886.167 51.6471 887.885 51.1408 889.315 50.1412C890.745 49.1415 891.808 47.7033 892.342 46.0456ZM866.888 73.476C867.077 72.3241 866.915 71.1421 866.423 70.083C865.931 69.0238 865.132 68.1365 864.128 67.5357C862.434 66.5289 860.762 67.4686 860.504 69.471C860.235 71.8091 860.605 74.2927 863.029 75.4114C864.734 76.2057 866.271 75.4337 866.888 73.476Z" fill="#E3F0FC"/>
<path fill-rule="evenodd" clip-rule="evenodd" d="M842.253 342.153C834.602 344.391 827.804 345.767 821.779 350.991C833.435 361.059 846.022 354.045 857.981 352.859C860.942 352.569 861.346 348.541 862.154 345.767C865.093 336.224 868.616 327.174 880.575 325.798C881.539 325.686 882.47 324.534 883.267 323.717C898.053 308.469 916.204 311.009 934.681 313.504C954.313 316.155 973.014 321.1 989.392 332.589C1000.83 340.469 1010.75 350.346 1018.67 361.742C1020.92 365.02 1023 368.107 1023.82 372.425C1025.86 383.254 1026.32 383.154 1015.46 385.514C1013.78 385.883 1012.1 386.443 1010.19 387.002C1010.58 389.584 1011.82 391.964 1013.71 393.768C1015.6 395.572 1018.04 396.698 1020.65 396.97C1026.56 397.797 1029.23 402.563 1033.83 404.666C1040.23 407.575 1040.12 412.374 1037.36 417.464C1031.15 428.953 1021.17 437.03 1011.04 444.783C1004.09 450.096 995.843 447.311 988.012 447.624C981.495 447.893 975.605 448.743 968.807 452.535C941.008 467.861 910.685 470.938 879.913 462.1C867.831 458.632 855.502 455.522 844.149 449.716C841.703 448.474 838.326 447.479 835.847 448.172C827.4 450.41 820.815 445.789 814.746 442.031C806.893 437.142 800.868 430.217 789.975 430.24C785.724 430.24 780.451 425.25 778.982 417.319C777.86 411.311 775.762 408.861 780.967 403.424C783.435 400.851 780.137 392.428 781.405 386.073C783.334 376.285 792.746 363.364 804.167 361.205C809.776 360.086 806.949 353.866 811.403 352.736C818.93 350.823 814.42 348.262 812.379 344.536C810.056 340.308 817.988 331.112 821.117 333.674C827.265 338.495 836.15 334.815 842.253 342.153Z" fill="#E3F0FC"/>
<path fill-rule="evenodd" clip-rule="evenodd" d="M762.098 367.022C763.421 374.405 769.165 378.31 774.561 384.105C766.417 386.476 759.82 389.597 755.602 383.501C750.621 376.24 762.3 374.07 762.098 367.022Z" fill="#E3F0FC"/>
</g>
<defs>
<clipPath id="clip0_555_5724">
<rect width="1186" height="467" fill="white" transform="translate(-76)"/>
</clipPath>
</defs>
</svg>
