<svg width="751" height="348" viewBox="0 0 751 348" fill="none" xmlns="http://www.w3.org/2000/svg">
<g opacity="0.6" clip-path="url(#clip0_558_8604)">
<path fill-rule="evenodd" clip-rule="evenodd" d="M-10.5804 135.432C-18.2558 132.473 -25.6559 136.874 -33.4564 133.365C-48.924 126.412 -65.8014 122.578 -79.3418 111.557C-82.3368 109.123 -86.6417 107.539 -86.7502 103.221C-86.9337 95.7679 -91.8643 93.217 -97.5958 90.9245C-100.591 89.7241 -105.338 90.391 -105.847 86.0811C-106.356 81.7712 -104.612 77.5614 -101.675 74.1602C-100.324 72.6096 -96.995 72.8597 -96.9867 70.3671C-96.9867 68.158 -92.8571 64.7568 -98.5802 63.5313C-101.642 62.8811 -101.358 60.2635 -99.1809 58.988C-95.8437 57.0707 -92.8404 54.5781 -88.7858 53.9862C-83.6348 53.1647 -78.8941 50.6821 -75.2871 46.917C-57.3668 28.9272 -32.3218 20.3742 -6.94299 20.1824C5.97165 20.0907 18.9197 18.957 31.559 21.4662C55.094 26.1596 73.273 38.0805 81.7409 62.0725C84.4043 69.666 88.1287 76.8451 92.8035 83.3968C95.2146 86.7313 98.4015 89.6574 96.5494 93.3503C93.7546 98.9357 96.174 106.305 89.4413 110.623C81.7826 115.55 74.1573 119.935 65.1053 121.877C52.9749 124.487 40.3189 125.637 29.6652 133.031C26.9454 134.915 23.7502 134.248 20.8469 134.298C10.1932 134.448 -0.343834 137.791 -10.5804 135.432Z" fill="#E3F0FC"/>
<path fill-rule="evenodd" clip-rule="evenodd" d="M-33.8396 160.683C-23.8282 163.133 -14.9848 160.508 -6.09142 161.808C10.6693 164.251 27.5801 165.601 44.3574 167.944C50.9816 168.869 51.2653 170.636 47.8364 178.022C47.486 178.797 46.56 179.823 46.7852 180.256C50.7898 187.942 43.5148 194.762 45.5171 202.839C47.3358 210.167 50.0056 218.212 46.5016 226.256C45.7174 228.057 48.1701 229.857 49.4549 231.583C53.8182 237.343 52.6419 242.02 46.2013 244.438C41.1956 246.305 35.9562 247.43 30.8004 248.814C28.7397 249.373 26.0283 249.073 24.6434 250.315C11.4117 262.077 -4.99019 258.193 -20.2825 259.893C-37.9776 261.852 -54.0041 254.75 -70.673 251.115C-78.0064 249.515 -85.9236 250.223 -92.3142 244.613C-97.5785 239.986 -101.85 233.951 -110.068 233.025C-114.014 232.583 -113.238 225.973 -116.141 223.722C-122.565 218.72 -122.974 210.234 -128.572 204.723C-132.335 201.014 -131.308 195.112 -128.288 191.594C-125.268 188.076 -121.973 185.041 -121.889 179.848C-121.889 177.347 -119.704 176.697 -117.359 176.23C-104.929 173.771 -93.1652 168.094 -80.067 168.727C-79.2434 168.609 -78.4675 168.269 -77.8228 167.744C-63.7401 158.932 -47.9473 161.641 -33.8396 160.683Z" fill="#E3F0FC"/>
<path fill-rule="evenodd" clip-rule="evenodd" d="M291.546 245.163C297.453 244.696 301.424 242.312 301.257 236.076C301.207 233.909 300.865 230.766 303.209 230.458C314.564 228.957 307.748 218.345 312.061 213.343C313.179 212.043 311.786 209.909 310.125 209.175C305.87 207.283 307.155 203.456 306.721 200.23C305.311 189.626 305.387 189.393 315.898 191.744C321.563 193.027 328.997 189.86 332.417 197.904C332.934 199.121 335.654 198.371 337.064 197.179C342.145 192.886 348.986 192.552 354.743 189.001C361.308 184.95 370.594 188.618 378.603 189.226C388.356 189.96 398.025 192.361 407.586 194.628C412.619 195.83 417.21 198.431 420.826 202.131C423.854 205.19 426.958 208.591 430.729 210.392C442.968 216.227 444.603 227.898 447.339 239.044C448.173 242.379 448.424 246.305 445.721 248.764C440.123 253.858 437.194 260.66 433.148 266.729C428.251 274.09 420.484 277.983 412.8 279.675C392.293 284.194 371.537 287.236 350.496 281.593C341.453 279.167 332.05 278.133 322.881 276.116C314.539 274.265 315.256 264.937 308.165 263.761C309.374 251.957 297.469 251.799 291.546 245.163Z" fill="#E3F0FC"/>
<path fill-rule="evenodd" clip-rule="evenodd" d="M188.221 118.426C201.36 118.101 213.074 121.969 224.545 127.971C228.608 130.105 231.503 132.298 233.981 136.024C238.986 143.527 244.242 151.079 251.767 156.098C255.004 158.257 254.028 159.432 253.436 161.933C251.334 171.337 247.346 180.273 246.512 189.968C245.861 197.388 239.595 200.322 234.515 202.206C222.167 206.766 210.321 212.46 196.914 214.769C174.98 218.529 155.926 211.434 136.287 204.232C131.431 202.456 133.575 194.52 126.576 195.737C121.495 196.629 118.775 193.628 117.841 188.534C117.54 186.867 115.088 186.925 113.402 186.509C107.871 185.117 104.834 181.057 102.874 176.013C102.321 174.84 101.949 173.589 101.773 172.304C101.489 167.61 93.2462 167.027 95.4988 162.1C97.6262 157.457 103.374 161.141 107.179 159.666C109.298 158.832 113.286 158.674 112.009 155.114C109.323 147.67 115.672 143.193 117.849 137.775C120.602 131.03 127.86 126.937 136.011 127.529C141.442 127.929 146.265 124.495 150.736 124.503C163.776 124.528 175.331 116.95 188.221 118.426ZM227.765 174.279C234.49 170.019 234.031 165.601 228.283 161.058C228.016 165.476 222.251 169.769 227.765 174.288V174.279Z" fill="#E3F0FC"/>
<path fill-rule="evenodd" clip-rule="evenodd" d="M186.585 57.2374C189.355 53.8278 192.65 56.4454 195.295 55.37C197.147 54.628 198.257 52.0938 196.963 51.4186C189.23 47.4171 194.728 44.4411 197.339 41.0565C198.073 40.1062 198.248 38.7307 198.615 37.722C196.947 32.9703 191.507 38.4389 189.964 33.8706C192.617 30.8112 196.521 35.7129 199.258 32.8202C201.252 30.7195 200.534 26.493 204.263 25.8094C214.341 23.967 224.044 18.6985 234.548 21.041C239.962 22.2497 244.259 22.183 249.231 19.4237C254.062 16.7478 260.252 15.2055 265.391 17.1729C273.125 20.1323 280.3 19.3904 288.108 18.2233C295.617 17.0895 303.751 17.3897 310.359 21.9913C314.413 24.834 318.702 22.825 322.748 24.1338C329.314 26.2345 330.698 27.3016 327.753 33.6122C324.5 40.5063 327.753 44.9162 331.816 49.5012C336.822 55.1866 343.121 60.3385 337.565 69.325C336.455 71.1173 338.449 74.5935 337.723 76.886C336.155 81.8878 343.972 82.8799 341.828 87.3982C340.443 90.2909 333.393 88.2318 335.295 94.7925C335.846 96.6932 332.843 97.2267 331.391 97.1267C329.886 96.9779 328.373 97.3197 327.078 98.101C325.784 98.8823 324.777 100.061 324.208 101.462C318.818 112.932 308.832 111.682 299.079 110.748C288.793 109.773 278.423 109.081 268.52 105.746C257.974 102.17 247.004 100.678 235.983 99.4525C228.75 98.6189 222.15 95.9846 217.895 90.6827C212.648 84.1637 205.181 80.5707 199.717 74.5352C197.055 71.6008 192.558 70.8339 195.495 64.4149C197.331 60.4802 189.438 60.0384 186.585 57.2374Z" fill="#E3F0FC"/>
<path fill-rule="evenodd" clip-rule="evenodd" d="M165.761 241.545C172.064 244.163 179.099 244.432 185.584 242.304C189.555 241.111 193.301 241.845 197.113 242.304C199.892 242.637 202.828 243.971 200.008 247.105C196.846 250.598 198.457 254.408 200.008 256.567C205.189 263.895 206.032 273.64 213.474 279.675C217.261 282.743 220.598 286.461 215.901 291.621C215.135 292.408 214.652 293.428 214.53 294.519C214.408 295.61 214.652 296.712 215.226 297.648C220.081 305.985 213.507 311.562 210.078 317.489C207.008 322.799 201.327 322.749 196.396 319.781C192.742 317.581 189.421 317.28 187.97 321.257C184.474 330.86 176.148 329.201 168.881 330.527C146.556 334.603 125.991 324.158 104.333 322.816C102.765 322.716 101.238 321.382 99.7697 320.49C85.7121 311.962 72.5305 302.408 62.1354 289.404C59.5074 286.069 56.9295 282.426 52.124 280.459C55.0857 279.625 58.2059 279.183 60.9507 277.9C62.8945 276.991 64.5715 274.173 61.7099 272.99C55.4778 270.414 60.5002 266.862 60.0413 263.82C59.5074 259.952 67.8919 257.509 61.251 252.632C59.4907 251.332 63.3033 249.298 65.2138 249.506C71.7713 250.165 77.7281 248.781 83.7432 246.172C90.4175 243.212 93.2207 245.388 94.2802 253.383C94.447 254.65 94.6388 255.983 96.1739 256.434C96.8093 256.47 97.4381 256.288 97.9556 255.918C98.4732 255.548 98.8484 255.012 99.0188 254.4C100.254 250.381 100.304 245.13 105.009 243.812C110.015 242.429 115.321 243.362 120.401 244.696C121.778 245.055 122.746 245.805 122.746 247.264C122.746 249.364 121.077 250.84 119.517 250.481C116.814 249.84 114.511 250.848 111.959 250.948C107.42 251.14 105.568 253.116 107.17 257.617C108.513 261.402 109.781 265.012 104.875 267.471C103.34 268.246 104.417 269.813 105.193 270.805C106.144 272.006 107.295 271.839 108.279 270.73C115.054 263.136 124.915 259.96 132.69 253.699C137.346 249.956 143.227 247.614 148.792 245.18C151.537 243.971 155.132 241.578 157.752 245.246C160.138 248.581 163.125 252.407 158.336 256.3C157.285 257.134 156.317 258.218 157.252 259.318C158.837 261.185 160.647 259.585 161.782 258.659C166.829 254.491 168.531 249.106 165.761 241.545ZM140.132 257.192C139.49 257.642 138.363 258.184 138.422 258.443C138.806 260.11 136.753 261.961 138.739 263.444C138.764 261.302 141.742 259.768 140.132 257.192Z" fill="#E3F0FC"/>
<path fill-rule="evenodd" clip-rule="evenodd" d="M361.691 114.141C365.487 111.474 369.709 113.958 373.221 111.39C375.983 109.373 377.835 109.023 377.484 104.029C376.65 92.0166 381.789 87.54 393.82 86.4312C397.157 86.1228 397.357 86.1645 399.067 79.8705C399.693 77.5614 401.57 77.9699 402.821 77.1029C409.045 72.9347 415.936 75.8608 421.367 77.378C428.042 79.2537 433.373 79.0452 438.67 75.5273C441.507 73.6516 444.36 73.4266 447.297 73.7183C460.954 75.0521 474.603 76.586 488.243 78.1116C493.9 78.7368 497.804 81.3544 499.247 87.2816C500.685 93.8217 503.802 99.8751 508.291 104.846C512.654 109.656 510.068 118.118 514.456 123.895C514.899 124.487 513.497 127.338 512.279 128.18C505.922 132.556 504.887 138.95 503.669 145.978C502.902 150.429 499.581 153.672 493.658 155.981C484.673 159.457 474.803 158.549 466.193 163.967C457.358 169.528 446.713 165.351 436.994 165.009C421.317 164.476 406.909 158.574 394.604 148.92C388.555 144.185 383.374 137.483 379.72 131.114C376.208 124.987 373.588 120.443 366.372 119.443C364.336 119.135 362.768 117.309 361.691 114.141Z" fill="#E3F0FC"/>
<path fill-rule="evenodd" clip-rule="evenodd" d="M619.484 144.535L628.661 140.642C625.892 137.466 628.711 133.807 627.76 130.539C627.268 128.872 624.098 127.129 628.002 125.937C633.726 124.186 634.426 118.184 637.905 114.525C640.408 111.857 640.95 105.738 646.248 111.79C646.548 112.157 648.668 111.407 649.585 110.707C660.94 102.162 673.053 101.862 686.427 105.53C694.419 107.714 703.004 110.181 711.589 107.53C715.251 106.397 718.889 106.697 721.15 109.281C725.722 114.55 731.703 114.966 737.427 114.083C742.683 113.249 745.252 116.65 748.798 118.693C749.832 119.285 751.626 120.102 750.75 121.469C746.929 127.463 748.472 134.907 745.344 140.934C742.065 147.22 740.547 151.771 740.906 158.232C740.938 158.663 740.924 159.096 740.864 159.524C740.029 164.726 747.388 167.994 745.227 172.245C743.5 175.58 738.244 177.189 734.623 179.64C733.907 180.121 733.352 180.807 733.03 181.607C731.82 184.942 735.049 189.677 730.218 191.786C725.865 193.683 721.057 194.285 716.369 193.52C696.438 190.043 676.566 186.159 656.727 182.182C653.349 181.46 650.136 180.117 647.249 178.223C644.805 176.639 640.108 175.63 643.078 170.612C643.528 169.845 643.078 167.71 642.244 167.169C633.801 161.016 631.782 148.704 619.484 144.535ZM737.702 137.033C739.696 137.141 740.121 135.899 740.296 134.707C740.697 132.064 744.109 129.472 740.613 126.762C740.25 126.57 739.848 126.459 739.438 126.439C739.027 126.419 738.616 126.49 738.236 126.646C734.682 128.221 734.991 131.289 735.733 134.248C736 135.365 737.109 136.199 737.702 137.033ZM717.287 144.702C718.063 144.094 719.448 143.552 719.865 142.593C721.125 139.692 718.413 140.317 717.112 140.092C715.81 139.867 714.501 140.292 714.609 142.018C714.709 143.393 715.618 144.244 717.287 144.702Z" fill="#E3F0FC"/>
<path fill-rule="evenodd" clip-rule="evenodd" d="M610.624 31.5946C612.584 36.5963 608.863 41.7815 610.983 46.825C611.283 47.5252 611.375 48.9841 611.041 49.1675C601.864 54.3277 602.339 62.5973 602.698 71.5255C602.865 75.9938 600.003 80.237 594.28 81.5291C588.882 82.7796 583.793 85.2971 578.512 87.1061C575.319 88.3021 571.899 88.7692 568.501 88.4733C562.486 87.8898 560.158 79.5451 556.587 80.5038C551.649 81.8126 547.335 84.2718 542.004 82.4795C526.42 77.2609 512.596 69.975 505.004 54.136C503.444 50.8681 502.451 50.1345 506.155 47.4669C509.534 45.041 504.337 43.1404 503.21 40.8562C501.25 36.9131 490.83 36.688 497.579 28.8102C495.076 22.5663 498.839 18.94 502.334 14.1966C512.054 1.03358 524.676 -2.11755 539.652 1.1753C545.056 2.36086 550.597 2.79566 556.12 2.46742C564.763 1.87554 564.647 6.00202 563.12 11.379C562.286 14.355 562.06 16.3808 564.789 17.8396C567.191 19.0984 568.126 16.8643 569.794 15.5888C573.965 12.3793 578.879 10.0785 583.451 7.34415C585.003 6.41882 586.788 5.47681 588.29 6.51052C596.449 12.0542 607.712 9.40322 615.212 17.3477C615.963 22.5413 608.113 25.8091 610.757 32.028C609.539 30.0606 607.637 25.9425 605.902 29.3854C603.632 33.887 599.336 38.0552 600.304 43.9323C609.406 45.1828 609.481 45.1911 610.106 37.8551C610.273 35.7461 609.197 33.5703 610.624 31.5946ZM546.902 14.7135C544.007 13.2213 540.06 12.5543 539.093 15.4637C538.008 18.6815 538.993 22.8748 539.969 26.3927C540.611 28.6602 543.306 28.8936 545.216 27.3013C547.127 25.7091 548.553 23.525 550.372 21.7827C552.191 20.0404 554.544 18.3398 553.259 15.4554C551.715 12.0292 549.037 14.6051 546.902 14.7135ZM596.233 17.3561C594.456 23.0665 593.404 28.4684 597.476 34.0287C602.748 27.5431 602.364 22.2829 596.233 17.3561ZM589.133 34.3122C588.841 32.7783 588.499 31.0693 586.63 30.5691C583.71 29.7855 581.708 31.4028 580.832 33.9037C580.139 35.8544 580.39 38.4386 583.243 38.4386C584.54 38.4864 585.818 38.1091 586.882 37.3641C587.945 36.6192 588.735 35.5475 589.133 34.3122ZM570.203 54.7528C570.344 53.8945 570.224 53.0137 569.858 52.2244C569.492 51.4352 568.897 50.7739 568.151 50.3263C566.891 49.576 565.648 50.2762 565.456 51.7684C565.256 53.5107 565.531 55.3614 567.333 56.1951C568.601 56.7869 569.744 56.2117 570.203 54.7528Z" fill="#E3F0FC"/>
<path fill-rule="evenodd" clip-rule="evenodd" d="M551.882 254.966C546.193 256.634 541.137 257.659 536.657 261.552C545.325 269.055 554.685 263.828 563.579 262.944C565.781 262.728 566.082 259.727 566.682 257.659C568.868 250.548 571.488 243.804 580.381 242.779C581.099 242.695 581.791 241.837 582.384 241.228C593.379 229.866 606.878 231.758 620.619 233.617C635.219 235.593 649.126 239.278 661.306 247.839C669.814 253.711 677.191 261.071 683.081 269.563C684.75 272.006 686.301 274.307 686.91 277.525C688.429 285.594 688.771 285.519 680.695 287.278C679.444 287.553 678.192 287.97 676.774 288.387C677.063 290.311 677.984 292.084 679.391 293.429C680.798 294.773 682.613 295.612 684.549 295.814C688.946 296.431 690.932 299.983 694.352 301.55C699.116 303.717 699.033 307.294 696.98 311.087C692.358 319.648 684.941 325.667 677.408 331.444C672.235 335.404 666.104 333.328 660.28 333.561C655.433 333.761 651.053 334.395 645.997 337.221C625.324 348.642 602.773 350.934 579.889 344.348C570.904 341.764 561.735 339.447 553.292 335.12C551.474 334.195 548.962 333.453 547.119 333.97C540.836 335.637 535.939 332.194 531.426 329.393C525.586 325.75 521.106 320.59 513.005 320.607C509.843 320.607 505.922 316.889 504.829 310.978C503.995 306.502 502.435 304.676 506.306 300.625C508.141 298.707 505.688 292.43 506.631 287.695C508.066 280.401 515.066 270.772 523.559 269.163C527.73 268.33 525.628 263.695 528.94 262.853C534.538 261.427 531.184 259.518 529.666 256.742C527.939 253.591 533.837 246.739 536.164 248.648C540.736 252.241 547.344 249.498 551.882 254.966Z" fill="#E3F0FC"/>
<path fill-rule="evenodd" clip-rule="evenodd" d="M492.273 273.498C493.258 279 497.529 281.909 501.542 286.228C495.485 287.995 490.58 290.321 487.443 285.778C483.738 280.367 492.423 278.75 492.273 273.498Z" fill="#E3F0FC"/>
</g>
<defs>
<clipPath id="clip0_558_8604">
<rect width="882" height="348" fill="white" transform="translate(-131)"/>
</clipPath>
</defs>
</svg>
