<svg width="474" height="857" viewBox="0 0 474 857" fill="none" xmlns="http://www.w3.org/2000/svg">
<g opacity="0.6">
<path fill-rule="evenodd" clip-rule="evenodd" d="M-79.461 507.849C-81.9483 495.567 -78.9203 484.139 -80.8934 472.813C-81.2273 470.924 -82.1623 466.283 -78.6968 464.117C-74.8937 461.739 -75.0505 457.674 -75.6029 454.246C-76.4146 448.968 -74.2573 447.167 -69.7894 444.834C-65.3215 442.5 -75.5404 438.577 -70.3621 434.665C-69.4794 433.997 -68.4252 431.988 -68.3724 432.024C-58.8216 438.219 -58.7509 425.713 -53.0197 424.105C-50.3515 423.354 -46.6138 420.116 -46.4544 417.793C-45.714 406.955 -35.3755 403.775 -30.5552 396.304C-27.1491 391.025 -20.8384 389.385 -15.445 387.105C-10.9732 385.188 -8.31296 383.31 -6.98299 378.127C-5.02325 370.502 -0.430506 364.538 7.78496 361.653C14.0856 359.44 21.0109 357.469 22.8692 349.037C23.5672 345.886 27.6785 345.274 30.7986 344.121C43.7145 339.315 56.779 338.599 69.713 343.204C83.9193 348.274 98.5584 348.962 113.352 350.335C122.622 351.153 131.43 354.773 138.609 360.717C145.051 366.019 151.244 373.365 160.898 373.785C171.706 385.585 187.197 391.915 195.796 406.766C202.709 418.697 207.874 431.145 213.3 443.632C216.059 449.999 217.11 456.975 216.348 463.87C215.234 474.354 216.778 484.615 216.902 495.012C217.01 505.773 216.714 516.585 211.72 526.778C207.274 535.832 204.363 545.639 199.978 554.734C194.192 566.765 187.366 578.37 178.032 587.949C167.764 598.433 156.593 608.037 145.858 618.063C144.399 619.418 142.048 621.034 142.032 622.527C142.076 630.723 136.948 630.593 131.325 629.633C126.183 628.752 120.937 626.575 116.891 631.983C115.902 633.298 114.675 632.576 113.595 632.24C100.553 628.541 87.4093 630.142 74.2986 631.49C64.0306 632.551 54.2536 629.287 44.6235 627.213C31.0068 624.237 17.1175 622.009 4.02308 616.109C-0.709461 613.975 -0.965998 607.663 -6.39854 607.896C-12.3266 608.154 -15.83 604.395 -19.8267 600.884C-33.2559 589.103 -44.5168 575.669 -54.5134 560.796C-62.123 549.477 -67.9789 537.315 -74.7098 525.58C-77.7662 520.167 -79.401 514.065 -79.461 507.849Z" fill="#9CB6F2"/>
<path fill-rule="evenodd" clip-rule="evenodd" d="M311.246 114.988C316.576 126.856 314.485 139.247 313.576 151.53C313.432 153.428 312.629 156.422 309.762 157.334C305.747 158.611 304.734 160.741 307.328 164.54C309.671 167.933 306.547 170.852 305.209 173.429C302.825 178.079 299.842 182.396 296.335 186.267C284.111 199.5 274.06 215.489 256.463 222.308C241.911 227.944 226.606 231.255 211.062 233.755C191.948 236.809 174.297 231.66 156.35 227.193C146.64 224.769 141.154 216.842 138.268 208.799C135.356 200.605 130.149 194.548 124.471 189.408C110.046 176.366 104.423 159.501 99.6947 141.614C97.0832 131.868 98.0052 122.682 99.9561 113.164C101.071 107.747 102.86 102.601 101.648 96.5791C100.704 91.9861 103.705 87.1902 106.785 83.3569C111.624 77.3434 116.365 71.3063 119.096 64.0054C119.397 63.0656 119.904 62.2051 120.579 61.4864C121.255 60.7677 122.082 60.2089 123 59.8507C132.14 55.7075 138.81 47.8322 148.131 43.5901C153.211 41.2814 158.782 40.5422 163.766 37.4479C167.077 35.3835 165.733 30.8256 171.357 29.7425C186.314 26.8475 200.133 21.5508 216.472 25.5509C228.785 28.5694 240.679 32.5114 252.809 35.9164C260.869 38.179 265.246 44.5876 270.752 49.516C284.818 62.1012 299.914 74.0084 306.337 93.0283C307.846 97.4842 311.219 101.218 307.741 106.508C305.194 110.378 313.25 111.019 311.591 115.34C308.377 116.424 307.475 111.856 304.215 112.449C304.398 115.674 302.887 119.984 307.788 120.567C309.945 120.807 310.54 117.223 311.246 114.988Z" fill="#9CB6F2"/>
<path fill-rule="evenodd" clip-rule="evenodd" d="M358.756 447.039C341.818 444.434 322.943 443.776 309.27 427.438C304.497 421.723 297.336 417.777 290.829 413.749C283.07 408.941 279.494 402.756 281.288 393.624C282.731 386.265 280.908 379.167 277.902 372.643C275.817 368.108 274.804 363.415 273.89 358.716C272.533 351.665 272.962 345.271 277.252 338.263C285.534 324.743 294.199 311.577 305.539 300.588C314.364 292.015 322.916 282.266 336.838 281.664C337.657 281.579 338.449 281.325 339.165 280.918C339.88 280.511 340.503 279.96 340.993 279.301C349.849 264.784 362.862 269.698 374.746 272.678C380.451 274.114 386.225 276.346 391.891 278.443C404.334 283.052 412.477 292.3 419.324 303.017C419.743 303.669 419.102 305.648 420.9 304.231C421.379 303.845 421.079 302.59 421.505 301.983C421.835 301.523 423.055 301.06 423.32 301.268C425.165 302.788 427.888 304.18 428.468 306.153C430.761 313.99 439.604 316.242 442.407 324.021C445.782 333.396 445.411 344.033 451.941 352.305C453.598 354.412 451.801 355.915 450.894 357.679C447.753 363.721 444.592 369.819 448.732 376.711C450.008 378.79 448.705 380.633 447.61 382.29C442.584 389.931 439.611 398.878 432.678 405.308C430.782 407.077 429.296 409.235 428.324 411.631C427.352 414.027 426.917 416.604 427.05 419.182C427.35 424.566 424.613 426.614 420.837 428.19C401.421 436.3 381.174 441.789 358.756 447.039Z" fill="#9CB6F2"/>
<path fill-rule="evenodd" clip-rule="evenodd" d="M451.958 584.068C452.494 586.068 452.732 588.818 451.191 589.788C447.117 592.372 443.29 594.097 448.402 599.434C449.728 600.822 447.857 603.23 445.293 604.838C441.169 607.422 436.998 609.647 441.313 617.111C444.002 621.747 437.034 628.971 431.381 631.707C424.175 635.209 416.8 638.592 408.445 639.802C398.053 641.316 387.574 641.917 377.197 644.919C368.786 647.351 359.114 647.071 350.363 641.945C341.797 636.97 331.462 635.268 323.888 628.22C319.864 624.484 317.45 620.388 316.791 614.744C315.203 601.178 311.328 587.796 314.479 573.938C315.418 569.78 312.591 566.352 312.631 562.156C312.833 542.532 322.864 528.845 338.818 518.771C353.692 509.273 371.317 504.946 388.892 506.475C396.412 507.06 405.454 504.473 410.528 513.991C411.778 516.334 417.046 516.965 420.609 517.603C430.17 519.327 434.854 522.014 438.464 529.389C439.391 531.283 439.92 533.284 442.237 533.535C446.885 534.011 448.85 536.298 450.383 540.858C453.272 549.455 459.727 557.267 453.898 566.986L454.238 566.852C453.497 565.95 452.449 564.146 452.065 564.277C448.353 565.565 444.72 569.038 445.174 571.923C445.882 576.426 443.81 583.809 452.315 584.294L451.958 584.068ZM411.775 573.951C408.842 575.366 407.071 577.448 407.896 581.069C408.08 581.374 408.34 581.626 408.652 581.801C408.964 581.977 409.317 582.069 409.676 582.07C413.32 581.094 412.659 577.843 413.079 575.202C413.117 574.992 412.581 574.693 411.775 573.951ZM366.067 559.058C367.333 561.083 368.656 558.436 370.096 558.9C371.537 559.364 372.53 558.155 371.804 556.957C370.981 555.613 369.405 554.943 367.76 556.198C366.856 556.876 365.605 557.361 366.07 559.043L366.067 559.058Z" fill="#9CB6F2"/>
<path fill-rule="evenodd" clip-rule="evenodd" d="M454.065 566.849L453.709 566.986C462.525 571.686 461.644 577.872 451.409 583.789L451.782 584.025C449.564 578.06 445.918 571.982 454.065 566.849Z" fill="#9CB6F2"/>
<path fill-rule="evenodd" clip-rule="evenodd" d="M5.80427 169.863C4.8632 188.667 4.2069 204.65 3.21383 220.608C2.64354 230.08 2.65 239.748 0.432291 248.859C-4.02547 267.05 -6.09536 286.651 -22.4537 299.436C-25.5386 301.854 -26.3162 305.489 -28.9651 308.034C-45.9833 324.652 -65.8486 336.699 -87.8859 345.327C-89.0088 345.772 -90.2512 346.413 -91.3763 346.313C-108.397 344.759 -125.12 350.071 -142.138 348.445C-144.139 348.264 -146.45 347.679 -148.155 348.387C-161.158 353.842 -173.415 353.241 -185.141 344.978C-186.733 343.856 -188.947 343.847 -191.054 344.34C-195.073 345.202 -197.954 343.185 -200.704 340.474C-208.454 332.823 -217.137 326.404 -226.356 320.53C-231.809 317.059 -234.538 310.787 -237.43 305.081C-240.843 298.347 -243.662 291.31 -249.068 285.762C-250.45 284.354 -252.351 282.24 -252.146 280.701C-250.678 269.304 -259.785 260.605 -259.646 249.606C-259.506 238.608 -262.071 228.07 -261.84 216.983C-261.658 208.582 -260.082 200.318 -260.201 191.891C-260.336 183.081 -253.888 176.228 -250.143 168.694C-243.143 154.631 -237.38 140.026 -227.2 127.492C-213.459 110.562 -195.611 99.8015 -177.277 89.0608C-165.575 82.2049 -152.228 79.7469 -140.57 73.1605C-139.565 72.5973 -137.994 72.0547 -137.085 72.449C-123.575 78.6643 -108.435 71.1094 -94.9414 77.4795C-93.1837 78.3061 -90.6804 78.9686 -89.024 78.3456C-76.9577 73.8149 -69.3544 80.8387 -61.1406 87.8637C-48.7372 98.4688 -37.7918 110.411 -26.874 122.41C-24.788 124.872 -22.4347 127.096 -19.8575 129.039C-4.61848 139.752 -1.3339 157.288 5.80427 169.863ZM-242.766 221.327L-238.812 228.447C-237.09 231.527 -229.812 232.566 -226.13 229.672C-222.993 227.205 -224.016 224.167 -226.635 221.65C-227.606 220.706 -230.232 219.373 -227.947 218.417C-219.553 214.914 -226.123 205.398 -220.45 200.853C-219.337 199.967 -220.29 197.591 -222.034 197.055C-222.989 196.759 -224.882 197.144 -225.316 197.855C-229.268 204.377 -239.905 208.266 -233.737 218.908C-232.584 220.907 -234.456 222.685 -235.74 224.828C-237.947 223.692 -238.963 219.928 -242.766 221.327ZM-214.433 196.595C-210.552 192.917 -208.815 188.416 -206.995 182.724C-212.566 186.417 -220.998 187.365 -214.46 196.602L-214.433 196.595ZM-204.804 171.37C-204.488 169.414 -204.074 168.307 -204.194 167.242C-204.418 165.094 -201.528 162.807 -204.378 160.876C-204.832 160.574 -206.007 160.853 -206.572 161.263C-209.329 163.242 -207.223 165.53 -206.752 167.662C-206.543 168.71 -205.771 169.636 -204.831 171.377L-204.804 171.37ZM-219.223 267.342C-220.078 261.929 -220.078 261.929 -223.242 257.379C-222.369 263.024 -222.369 263.024 -219.25 267.349L-219.223 267.342ZM-206.791 286.95C-207.393 283.255 -202.51 280.986 -207.129 278.08C-207.904 277.571 -209.878 277.734 -210.394 278.353C-213.559 282.104 -210.057 283.818 -206.806 286.976L-206.791 286.95ZM-225.951 250.27C-224.792 250.096 -223.491 249.754 -223.919 248.292C-224.439 246.51 -225.065 244.47 -227.424 244.213C-228.898 244.07 -229.467 245.241 -229.427 246.463C-229.39 248.69 -228.36 250.148 -226 250.304L-225.951 250.27ZM-233.723 178.696C-234.312 180.17 -234.784 181.689 -235.133 183.238C-235.281 184.188 -234.365 184.631 -233.392 184.378C-231.852 183.965 -231.63 182.916 -232.106 181.596C-232.498 180.561 -232.286 179.156 -233.771 178.73L-233.723 178.696ZM-235.881 251.282C-236.303 252.735 -236.828 253.536 -236.671 254.175C-236.285 255.749 -236.896 259.253 -234.695 258.254C-232.493 257.256 -233.722 254.116 -235.929 251.316L-235.881 251.282Z" fill="#9CB6F2"/>
</g>
</svg>
