<svg width="716" height="348" viewBox="0 0 716 348" fill="none" xmlns="http://www.w3.org/2000/svg">
<g opacity="0.6" clip-path="url(#clip0_564_6099)">
<path fill-rule="evenodd" clip-rule="evenodd" d="M120.42 135.432C112.744 132.473 105.344 136.874 97.5436 133.365C82.076 126.412 65.1986 122.578 51.6582 111.557C48.6632 109.123 44.3583 107.539 44.2498 103.221C44.0663 95.7679 39.1357 93.217 33.4042 90.9245C30.4091 89.7241 25.6622 90.391 25.1533 86.0811C24.6443 81.7712 26.388 77.5614 29.3246 74.1602C30.6762 72.6096 34.005 72.8597 34.0133 70.3671C34.0133 68.158 38.1429 64.7568 32.4198 63.5313C29.358 62.8811 29.6417 60.2635 31.8191 58.988C35.1563 57.0707 38.1596 54.5781 42.2142 53.9862C47.3652 53.1647 52.1059 50.6821 55.7129 46.917C73.6332 28.9272 98.6782 20.3742 124.057 20.1824C136.972 20.0907 149.92 18.957 162.559 21.4662C186.094 26.1596 204.273 38.0805 212.741 62.0725C215.404 69.666 219.129 76.8451 223.803 83.3968C226.215 86.7313 229.401 89.6574 227.549 93.3503C224.755 98.9357 227.174 106.305 220.441 110.623C212.783 115.55 205.157 119.935 196.105 121.877C183.975 124.487 171.319 125.637 160.665 133.031C157.945 134.915 154.75 134.248 151.847 134.298C141.193 134.448 130.656 137.791 120.42 135.432Z" fill="#E3F0FC"/>
<path fill-rule="evenodd" clip-rule="evenodd" d="M97.1604 160.683C107.172 163.133 116.015 160.508 124.909 161.808C141.669 164.251 158.58 165.601 175.357 167.944C181.982 168.869 182.265 170.636 178.836 178.022C178.486 178.797 177.56 179.823 177.785 180.256C181.79 187.942 174.515 194.762 176.517 202.839C178.336 210.167 181.006 218.212 177.502 226.256C176.717 228.057 179.17 229.857 180.455 231.583C184.818 237.343 183.642 242.02 177.201 244.438C172.196 246.305 166.956 247.43 161.8 248.814C159.74 249.373 157.028 249.073 155.643 250.315C142.412 262.077 126.01 258.193 110.717 259.893C93.0224 261.852 76.9959 254.75 60.327 251.115C52.9936 249.515 45.0764 250.223 38.6858 244.613C33.4215 239.986 29.15 233.951 20.9323 233.025C16.9862 232.583 17.762 225.973 14.8587 223.722C8.43476 218.72 8.02605 210.234 2.42803 204.723C-1.33457 201.014 -0.308433 195.112 2.71166 191.594C5.73175 188.076 9.02709 185.041 9.11052 179.848C9.11052 177.347 11.2964 176.697 13.6407 176.23C26.0715 173.771 37.8348 168.094 50.933 168.727C51.7566 168.609 52.5325 168.269 53.1772 167.744C67.2599 158.932 83.0527 161.641 97.1604 160.683Z" fill="#E3F0FC"/>
<path fill-rule="evenodd" clip-rule="evenodd" d="M422.546 245.163C428.453 244.696 432.424 242.312 432.257 236.076C432.207 233.909 431.865 230.766 434.209 230.458C445.564 228.957 438.748 218.345 443.061 213.343C444.179 212.043 442.786 209.909 441.125 209.175C436.87 207.283 438.155 203.456 437.721 200.23C436.311 189.626 436.387 189.393 446.898 191.744C452.563 193.027 459.997 189.86 463.417 197.904C463.934 199.121 466.654 198.371 468.064 197.179C473.145 192.886 479.986 192.552 485.743 189.001C492.308 184.95 501.594 188.618 509.603 189.226C519.356 189.96 529.025 192.361 538.586 194.628C543.619 195.83 548.21 198.431 551.826 202.131C554.854 205.19 557.958 208.591 561.729 210.392C573.968 216.227 575.603 227.898 578.339 239.044C579.173 242.379 579.424 246.305 576.721 248.764C571.123 253.858 568.194 260.66 564.148 266.729C559.251 274.09 551.484 277.983 543.8 279.675C523.293 284.194 502.537 287.236 481.496 281.593C472.453 279.167 463.05 278.133 453.881 276.116C445.539 274.265 446.256 264.937 439.165 263.761C440.374 251.957 428.469 251.799 422.546 245.163Z" fill="#E3F0FC"/>
<path fill-rule="evenodd" clip-rule="evenodd" d="M319.221 118.426C332.36 118.101 344.074 121.969 355.545 127.971C359.608 130.105 362.503 132.298 364.981 136.024C369.986 143.527 375.242 151.079 382.767 156.098C386.004 158.257 385.028 159.432 384.436 161.933C382.334 171.337 378.346 180.273 377.512 189.968C376.861 197.388 370.595 200.322 365.515 202.206C353.167 206.766 341.321 212.46 327.914 214.769C305.98 218.529 286.926 211.434 267.287 204.232C262.431 202.456 264.575 194.52 257.576 195.737C252.495 196.629 249.775 193.628 248.841 188.534C248.54 186.867 246.088 186.925 244.402 186.509C238.871 185.117 235.834 181.057 233.874 176.013C233.321 174.84 232.949 173.589 232.773 172.304C232.489 167.61 224.246 167.027 226.499 162.1C228.626 157.457 234.374 161.141 238.179 159.666C240.298 158.832 244.286 158.674 243.009 155.114C240.323 147.67 246.672 143.193 248.849 137.775C251.602 131.03 258.86 126.937 267.011 127.529C272.442 127.929 277.265 124.495 281.736 124.503C294.776 124.528 306.331 116.95 319.221 118.426ZM358.765 174.279C365.49 170.019 365.031 165.601 359.283 161.058C359.016 165.476 353.251 169.769 358.765 174.288V174.279Z" fill="#E3F0FC"/>
<path fill-rule="evenodd" clip-rule="evenodd" d="M317.585 57.2374C320.355 53.8278 323.65 56.4454 326.295 55.37C328.147 54.628 329.257 52.0938 327.963 51.4186C320.23 47.4171 325.728 44.4411 328.339 41.0565C329.073 40.1062 329.248 38.7307 329.615 37.722C327.947 32.9703 322.507 38.4389 320.964 33.8706C323.617 30.8112 327.521 35.7129 330.258 32.8202C332.252 30.7195 331.534 26.493 335.263 25.8094C345.341 23.967 355.044 18.6985 365.548 21.041C370.962 22.2497 375.259 22.183 380.231 19.4237C385.062 16.7478 391.252 15.2055 396.391 17.1729C404.125 20.1323 411.3 19.3904 419.108 18.2233C426.617 17.0895 434.751 17.3897 441.359 21.9913C445.413 24.834 449.702 22.825 453.748 24.1338C460.314 26.2345 461.698 27.3016 458.753 33.6122C455.5 40.5063 458.753 44.9162 462.816 49.5012C467.822 55.1866 474.121 60.3385 468.565 69.325C467.455 71.1173 469.449 74.5935 468.723 76.886C467.155 81.8878 474.972 82.8799 472.828 87.3982C471.443 90.2909 464.393 88.2318 466.295 94.7925C466.846 96.6932 463.843 97.2267 462.391 97.1267C460.886 96.9779 459.373 97.3197 458.078 98.101C456.784 98.8823 455.777 100.061 455.208 101.462C449.818 112.932 439.832 111.682 430.079 110.748C419.793 109.773 409.423 109.081 399.52 105.746C388.974 102.17 378.004 100.678 366.983 99.4525C359.75 98.6189 353.15 95.9846 348.895 90.6827C343.648 84.1637 336.181 80.5707 330.717 74.5352C328.055 71.6008 323.558 70.8339 326.495 64.4149C328.331 60.4802 320.438 60.0384 317.585 57.2374Z" fill="#E3F0FC"/>
<path fill-rule="evenodd" clip-rule="evenodd" d="M296.761 241.545C303.064 244.163 310.099 244.432 316.584 242.304C320.555 241.111 324.301 241.845 328.113 242.304C330.892 242.637 333.828 243.971 331.008 247.105C327.846 250.598 329.457 254.408 331.008 256.567C336.189 263.895 337.032 273.64 344.474 279.675C348.261 282.743 351.598 286.461 346.901 291.621C346.135 292.408 345.652 293.428 345.53 294.519C345.408 295.61 345.652 296.712 346.226 297.648C351.081 305.985 344.507 311.562 341.078 317.489C338.008 322.799 332.327 322.749 327.396 319.781C323.742 317.581 320.421 317.28 318.97 321.257C315.474 330.86 307.148 329.201 299.881 330.527C277.556 334.603 256.991 324.158 235.333 322.816C233.765 322.716 232.238 321.382 230.77 320.49C216.712 311.962 203.531 302.408 193.135 289.404C190.507 286.069 187.929 282.426 183.124 280.459C186.086 279.625 189.206 279.183 191.951 277.9C193.895 276.991 195.571 274.173 192.71 272.99C186.478 270.414 191.5 266.862 191.041 263.82C190.507 259.952 198.892 257.509 192.251 252.632C190.491 251.332 194.303 249.298 196.214 249.506C202.771 250.165 208.728 248.781 214.743 246.172C221.417 243.212 224.221 245.388 225.28 253.383C225.447 254.65 225.639 255.983 227.174 256.434C227.809 256.47 228.438 256.288 228.956 255.918C229.473 255.548 229.848 255.012 230.019 254.4C231.254 250.381 231.304 245.13 236.009 243.812C241.015 242.429 246.321 243.362 251.401 244.696C252.778 245.055 253.746 245.805 253.746 247.264C253.746 249.364 252.077 250.84 250.517 250.481C247.814 249.84 245.511 250.848 242.959 250.948C238.42 251.14 236.568 253.116 238.17 257.617C239.513 261.402 240.781 265.012 235.875 267.471C234.34 268.246 235.417 269.813 236.193 270.805C237.144 272.006 238.295 271.839 239.279 270.73C246.054 263.136 255.915 259.96 263.69 253.699C268.346 249.956 274.227 247.614 279.792 245.18C282.537 243.971 286.132 241.578 288.752 245.246C291.138 248.581 294.125 252.407 289.336 256.3C288.285 257.134 287.317 258.218 288.252 259.318C289.837 261.185 291.647 259.585 292.782 258.659C297.829 254.491 299.531 249.106 296.761 241.545ZM271.132 257.192C270.49 257.642 269.363 258.184 269.422 258.443C269.806 260.11 267.753 261.961 269.739 263.444C269.764 261.302 272.742 259.768 271.132 257.192Z" fill="#E3F0FC"/>
<path fill-rule="evenodd" clip-rule="evenodd" d="M492.691 114.141C496.487 111.474 500.709 113.958 504.221 111.39C506.983 109.373 508.835 109.023 508.484 104.029C507.65 92.0166 512.789 87.54 524.82 86.4312C528.157 86.1228 528.357 86.1645 530.067 79.8705C530.693 77.5614 532.57 77.9699 533.821 77.1029C540.045 72.9347 546.936 75.8608 552.367 77.378C559.042 79.2537 564.373 79.0452 569.67 75.5273C572.507 73.6516 575.36 73.4266 578.297 73.7183C591.954 75.0521 605.603 76.586 619.243 78.1116C624.9 78.7368 628.804 81.3544 630.247 87.2816C631.685 93.8217 634.802 99.8751 639.291 104.846C643.654 109.656 641.068 118.118 645.456 123.895C645.899 124.487 644.497 127.338 643.279 128.18C636.922 132.556 635.887 138.95 634.669 145.978C633.902 150.429 630.581 153.672 624.658 155.981C615.673 159.457 605.803 158.549 597.193 163.967C588.358 169.528 577.713 165.351 567.994 165.009C552.317 164.476 537.909 158.574 525.604 148.92C519.555 144.185 514.374 137.483 510.72 131.114C507.208 124.987 504.588 120.443 497.372 119.443C495.336 119.135 493.768 117.309 492.691 114.141Z" fill="#E3F0FC"/>
<path fill-rule="evenodd" clip-rule="evenodd" d="M741.624 31.5946C743.584 36.5963 739.863 41.7815 741.983 46.825C742.283 47.5252 742.375 48.9841 742.041 49.1675C732.864 54.3277 733.339 62.5973 733.698 71.5255C733.865 75.9938 731.003 80.237 725.28 81.5291C719.882 82.7796 714.793 85.2971 709.512 87.1061C706.319 88.3021 702.899 88.7692 699.501 88.4733C693.486 87.8898 691.158 79.5451 687.587 80.5038C682.649 81.8126 678.335 84.2718 673.004 82.4795C657.42 77.2609 643.596 69.975 636.004 54.136C634.444 50.8681 633.451 50.1345 637.155 47.4669C640.534 45.041 635.337 43.1404 634.21 40.8562C632.25 36.9131 621.83 36.688 628.579 28.8102C626.076 22.5663 629.839 18.94 633.334 14.1966C643.054 1.03358 655.676 -2.11755 670.652 1.1753C676.056 2.36086 681.597 2.79566 687.12 2.46742C695.763 1.87554 695.647 6.00202 694.12 11.379C693.286 14.355 693.06 16.3808 695.789 17.8396C698.191 19.0984 699.126 16.8643 700.794 15.5888C704.965 12.3793 709.879 10.0785 714.451 7.34415C716.003 6.41882 717.788 5.47681 719.29 6.51052C727.449 12.0542 738.712 9.40322 746.212 17.3477C746.963 22.5413 739.113 25.8091 741.757 32.028C740.539 30.0606 738.637 25.9425 736.902 29.3854C734.632 33.887 730.336 38.0552 731.304 43.9323C740.406 45.1828 740.481 45.1911 741.106 37.8551C741.273 35.7461 740.197 33.5703 741.624 31.5946ZM677.902 14.7135C675.007 13.2213 671.06 12.5543 670.093 15.4637C669.008 18.6815 669.993 22.8748 670.969 26.3927C671.611 28.6602 674.306 28.8936 676.216 27.3013C678.127 25.7091 679.553 23.525 681.372 21.7827C683.191 20.0404 685.544 18.3398 684.259 15.4554C682.715 12.0292 680.037 14.6051 677.902 14.7135ZM727.233 17.3561C725.456 23.0665 724.404 28.4684 728.476 34.0287C733.748 27.5431 733.364 22.2829 727.233 17.3561ZM720.133 34.3122C719.841 32.7783 719.499 31.0693 717.63 30.5691C714.71 29.7855 712.708 31.4028 711.832 33.9037C711.139 35.8544 711.39 38.4386 714.243 38.4386C715.54 38.4864 716.818 38.1091 717.882 37.3641C718.945 36.6192 719.735 35.5475 720.133 34.3122ZM701.203 54.7528C701.344 53.8945 701.224 53.0137 700.858 52.2244C700.492 51.4352 699.897 50.7739 699.151 50.3263C697.891 49.576 696.648 50.2762 696.456 51.7684C696.256 53.5107 696.531 55.3614 698.333 56.1951C699.601 56.7869 700.744 56.2117 701.203 54.7528Z" fill="#E3F0FC"/>
<path fill-rule="evenodd" clip-rule="evenodd" d="M682.882 254.966C677.193 256.634 672.137 257.659 667.657 261.552C676.325 269.055 685.685 263.828 694.579 262.944C696.781 262.728 697.082 259.727 697.682 257.659C699.868 250.548 702.488 243.804 711.381 242.779C712.099 242.695 712.791 241.837 713.384 241.228C724.379 229.866 737.878 231.758 751.619 233.617C766.219 235.593 780.126 239.278 792.306 247.839C800.814 253.711 808.191 261.071 814.081 269.563C815.75 272.006 817.301 274.307 817.91 277.525C819.429 285.594 819.771 285.519 811.695 287.278C810.444 287.553 809.192 287.97 807.774 288.387C808.063 290.311 808.984 292.084 810.391 293.429C811.798 294.773 813.613 295.612 815.549 295.814C819.946 296.431 821.932 299.983 825.352 301.55C830.116 303.717 830.033 307.294 827.98 311.087C823.358 319.648 815.941 325.667 808.408 331.444C803.235 335.404 797.104 333.328 791.28 333.561C786.433 333.761 782.053 334.395 776.997 337.221C756.324 348.642 733.773 350.934 710.889 344.348C701.904 341.764 692.735 339.447 684.292 335.12C682.474 334.195 679.962 333.453 678.119 333.97C671.836 335.637 666.939 332.194 662.426 329.393C656.586 325.75 652.106 320.59 644.005 320.607C640.843 320.607 636.922 316.889 635.829 310.978C634.995 306.502 633.435 304.676 637.306 300.625C639.141 298.707 636.688 292.43 637.631 287.695C639.066 280.401 646.066 270.772 654.559 269.163C658.73 268.33 656.628 263.695 659.94 262.853C665.538 261.427 662.184 259.518 660.666 256.742C658.939 253.591 664.837 246.739 667.164 248.648C671.736 252.241 678.344 249.498 682.882 254.966Z" fill="#E3F0FC"/>
<path fill-rule="evenodd" clip-rule="evenodd" d="M623.273 273.498C624.258 279 628.529 281.909 632.542 286.228C626.485 287.995 621.58 290.321 618.443 285.778C614.738 280.367 623.423 278.75 623.273 273.498Z" fill="#E3F0FC"/>
</g>
<defs>
<clipPath id="clip0_564_6099">
<rect width="882" height="348" fill="white"/>
</clipPath>
</defs>
</svg>
