<svg width="735" height="655" viewBox="0 0 735 655" fill="none" xmlns="http://www.w3.org/2000/svg">
<g opacity="0.6" clip-path="url(#clip0_555_5765)">
<path fill-rule="evenodd" clip-rule="evenodd" d="M346.455 151.806C342.961 146.35 338.707 146.393 334.991 151.078C333.112 153.442 331.824 155.511 328.456 155.3C323.642 154.972 318.797 154.867 313.983 154.614C313.677 154.614 313.413 154.065 313.118 153.801C311.397 152.25 315.102 145.179 308.99 148.746C305.422 150.857 308.093 156.249 310.162 158.434C316.791 165.452 309.549 164.829 306.288 166.518L306.604 166.359C302.382 173.578 295.509 175.562 287.444 175.319C293.715 178.158 300.26 174.538 306.256 177.429C306.129 183.202 299.046 181.904 297.557 186.294C296.122 190.515 293.271 188.721 290.769 187.413C289.418 186.706 287.676 185.851 288.584 183.877C289.851 181.123 293.271 183.603 295.425 180.891C293.176 178.97 290.611 179.266 288.035 179.561C285.164 179.899 285.291 185.64 280.445 183.286C278.714 182.442 275.484 184.679 272.982 185.503C275.663 186.917 278.26 188.341 281.976 190.325C275.251 190.167 275.251 190.167 273.087 185.439C270.29 182.474 267.281 187.983 264.283 185.165C262.879 183.846 260.863 183.35 260.187 181.112C258.984 177.144 258.435 176.817 256.957 178.59C252.407 184.025 245.682 184.088 239.739 185.977C233.616 187.951 227.958 184.679 222.12 183.677C217.317 182.843 224.411 180.933 221.825 179.065C214.657 173.905 207.32 177.039 203.087 188.31C199.635 184.152 196.574 180.659 190.197 182.484C186.693 183.54 181.699 180.796 178.68 177.134L169.422 174.833C177.688 173.103 178.712 168.312 176.928 162.17L177.076 162.433C176.178 163.658 174.352 163.732 173.909 162.961C170.742 156.988 166.382 154.993 159.942 157.621C159.277 157.885 157.937 156.492 156.775 155.817C159.942 150.54 164.513 148.588 170.34 150.107C174.806 151.258 177.54 148.809 182.153 145.95C178.195 145.264 175.661 145.359 173.645 144.388C168.451 141.865 164.059 140.019 159.541 146.161C158.01 148.271 153.482 150.783 150.199 146.562C154.01 151.606 147.106 155.004 147.401 157.315C150.42 164.059 156.205 154.751 157.842 163.172C152.236 162.201 146.23 166.866 141.732 160.07C129.846 159.932 127.196 156.176 131.989 146.234L132.348 146.562C128.948 147.131 123.153 147.311 123.016 149.59C122.636 155.796 116.893 154.392 114.444 157.357C109.514 163.33 106.347 156.481 102.515 155.015C99.8756 153.959 97.8383 154.118 96.2548 156.492C94.8719 158.603 96.1387 160.154 97.3105 161.874C98.4822 163.594 99.6751 165.04 101.808 165.515C105.713 166.37 107.023 170.253 109.493 172.659C111.256 174.369 110.844 177.852 108.733 180.215C103.201 175.16 100.087 183.898 95.2097 182.579C93.0984 184.426 91.2405 187.465 88.8758 187.856C83.7031 188.774 81.4862 191.18 81.9612 197.354C82.4046 189.597 76.113 191.022 73.3366 188.489C69.7896 185.323 64.5641 183.339 62.7061 177.936C69.7262 176.881 75.6168 171.33 83.3019 173.155C83.4497 171.995 84.1149 170.137 83.6504 169.8C80.4834 167.478 75.7541 166.454 78.1505 160.618C78.7838 159.078 76.7357 159.563 75.8172 159.204C67.5198 155.521 58.1351 157.178 49.7215 153.928C48.6659 153.527 46.2908 154.983 46.4809 156.629C46.6075 157.685 48.5921 158.508 50.8617 160.386C43.1766 159.742 36.7583 158.339 29.8543 158.181C37.8984 157.21 43.8312 152.904 49.3628 147.955C45.573 149.105 42.807 147.49 38.8694 143.069C43.662 145.084 47.0929 144.926 49.162 148.187C52.5929 147.385 55.496 142.689 58.7474 150.382C61.0699 155.806 68.2483 151.553 73.5266 149.326C78.2664 147.364 77.3798 143.66 75.258 142.931C69.0191 140.821 68.5649 133.634 63.1388 130.922C61.5574 130.046 60.2361 128.768 59.309 127.216C58.3819 125.665 57.8821 123.896 57.8606 122.089C60.278 120.073 63.2551 121.308 65.8836 120.717C71.5314 119.461 67.0343 117.234 66.1053 115.44C58.853 116.496 53.2157 111.947 47.0401 109.584C41.3589 107.509 35.2724 106.786 29.2631 107.473C23.3092 107.969 26.096 115.915 20.7122 116.179C16.8063 116.411 12.552 114.955 9.33223 118.585C8.27657 119.778 6.91491 120.696 5.77481 121.899C4.40246 123.292 2.37547 124.569 3.26222 126.922C4.47622 130.162 7.90709 125.804 9.59614 128.875C9.18443 133.096 -4.53893 133.412 5.23641 141.317C4.95178 141.889 4.59719 142.425 4.18076 142.91C2.74507 144.662 -1.81527 143.797 0.306596 148.567C2.25955 152.936 5.21524 153.316 9.13171 152.672C9.72408 152.486 10.3656 152.537 10.9209 152.815C11.4762 153.092 11.902 153.575 12.1087 154.16C10.4281 155.087 8.6857 155.898 6.89386 156.587C3.57911 157.642 3.36793 159.89 2.09059 162.919C-0.675223 169.451 4.32848 174.316 3.05114 180.215C1.47822 187.423 4.10682 194.452 5.98589 201.501C7.79522 208.068 10.2713 214.433 13.3755 220.497C16.2468 226.248 17.218 232.949 20.1527 238.669C26.4866 251.069 33.5385 263.131 40.3897 275.278C48.8877 290.337 56.3088 306.177 66.3375 320.15C77.0735 335.114 85.6876 351.566 98.0071 365.433C100.393 368.114 101.818 371.649 104.109 374.456C107.212 378.255 107.54 381.928 103.813 385.125C97.9438 390.159 99.6961 396.069 101.934 401.599C104.594 408.194 106.072 414.896 101.808 420.753C98.6406 425.111 105.249 427.084 102.568 431.686C99.4006 437.163 106.547 436.73 109.44 438.777C117.885 444.74 124.219 452.918 131.228 460.348C135.757 465.171 139.135 471.45 145.353 474.067C149.111 475.65 143.168 482.953 150.632 481.201C155.192 480.145 155.403 485.612 158.158 487.638C162.381 490.741 166.804 491.079 171.428 491.733C168.947 490.076 165.495 489.01 167.11 484.821C167.206 484.686 167.333 484.575 167.48 484.498C167.626 484.421 167.789 484.38 167.955 484.377C172.758 485.148 170.319 489.263 171.354 491.764C172.547 496.64 171.122 503.373 176.178 505.779C183.821 509.388 190.673 516.416 200.617 513.662C200.743 516.522 194.684 519.815 201.767 522.326C205.642 523.698 208.914 522.432 212.44 522.622C214.066 522.696 216.863 522.938 216.578 523.846C213.411 533.808 221.55 529.777 224.886 530.178C230.302 530.779 232.782 534.557 234.862 538.219C241.09 549.184 252.65 555.484 258.868 566.502C259.349 567.414 260.007 568.222 260.803 568.88C261.598 569.537 262.516 570.03 263.504 570.33C264.491 570.63 265.529 570.732 266.556 570.629C267.583 570.526 268.579 570.221 269.488 569.731C272.655 568.232 276.486 568.243 279.917 567.24C284.995 565.742 287.951 566.639 291.889 571.303C297.79 578.279 304.187 585.022 310.32 591.892L316.981 596.546C326.229 602.54 336.173 605.875 346.635 600.768C354.098 597.095 359.63 599.923 363.979 604.809C371.833 613.621 382.126 619.383 390.624 627.372C393.157 629.757 397.581 630.643 401.18 631.994C411.325 635.836 423.697 637.355 428.131 650.262C429.482 654.209 441.453 656.52 446.879 653.723C450.099 652.056 452.569 652.161 455.895 653.048C470.22 656.847 481.452 651.116 492.209 641.893C501.71 633.788 507.749 623.362 514.895 613.632C518.147 609.21 518.189 603.712 519.033 598.541C519.487 595.765 519.118 592.979 520.089 590.172C522.665 583.07 524.512 582.395 529.727 587.65C535.364 593.338 540.653 599.375 546.343 604.999C548.855 607.632 551.739 609.883 554.904 611.679C563.835 616.439 569.683 616.228 577.516 610.339C581.085 607.648 577.295 605.253 577.728 602.688C578.372 598.836 578.551 595.069 583.46 599.733C585.73 601.844 587.872 601.116 589.72 599.037C591.314 597.232 591.061 594.256 594.291 592.705C597.025 600.092 605.565 601.622 609.904 607.923C610.896 609.368 614.243 610.666 614.559 606.055C614.781 602.752 616.259 604.999 617.336 605.854C621.058 608.935 624.934 611.827 628.948 614.518C632.115 616.492 635.483 621.367 639.505 614.434C640.729 612.323 644.857 614.434 646.704 616.777C652.785 624.449 661.853 622.306 669.591 622.94C672.504 623.182 676.98 623.71 679.345 622.644C687.389 619.024 690.862 622.528 692.794 629.398C693.765 632.86 695.19 633.313 698.737 633.261C706.644 633.155 714.794 632.891 721.529 637.376C724.2 636.5 723.165 634.506 723.693 633.155C724.749 630.464 723.904 625.367 728.844 627.003C732.824 628.322 731.294 632.364 730.27 635.445C729.805 636.838 727.926 637.556 728.274 639.413C732.571 642.357 736.804 637.144 741.744 639.73C744.827 641.344 746.59 636.047 747.762 633.398C749.355 629.411 752.167 626.028 755.795 623.731C760.651 620.502 762.72 622.222 765.961 627.741C767.017 621.41 763.502 616.703 766.563 612.503C769.73 612.133 771.567 614.803 774.048 616.006C776.961 617.431 779.927 619.32 782.187 614.898C784.71 609.938 786.251 617.357 788.658 615.51C791.065 613.663 790.505 610.054 793.366 608.714C794.865 608.018 795.9 608.63 797.472 609.337C806.319 613.357 810.204 611.5 814.268 602.129C816.305 597.412 823.769 595.871 824.244 599.691C825.5 609.073 829.966 602.087 831.37 601.232C836.352 598.193 836.89 592.789 837.218 587.344C837.798 577.572 837.946 577.371 848.007 578.996C851.955 579.64 855.818 578.712 859.851 579.63C864.496 580.685 867.547 576.116 866.185 571.367C863.335 561.278 866.185 557.563 876.309 558.175C879.877 558.397 883.561 558.291 886.971 559.157C889.884 559.968 892.936 560.153 895.926 559.698C898.916 559.243 901.775 558.16 904.315 556.518C908.452 553.842 913.405 552.72 918.292 553.352C926.336 554.408 931.435 550.978 934.222 543.612C927.772 539.391 928.416 534.114 928.458 527.265C928.532 515.762 937.748 509.747 940.883 500.418C941.939 497.252 943.628 494.297 938.011 493.854C937.251 493.801 937.135 490.34 938.254 488.356C944.017 478.469 946.82 467.137 946.33 455.704C953.635 455.198 953.635 455.198 960.539 461.171C964.002 458.955 964.065 454.238 967 451.673C973.175 446.397 973.239 446.46 970.494 440.666C973.439 438.851 976.385 438.26 980.206 440.993C976.174 446.344 974.516 452.19 979.478 458.733C981.684 456.749 979.066 451.219 984.45 451.715C989.654 452.19 988.503 446.502 990.879 444.054C993.423 441.426 990.784 436.667 993.845 433.87C990.91 436.065 987.511 428.52 984.65 434.366C982.634 438.471 981.146 437.595 979.245 433.881C977.525 430.504 975.952 427.253 975.751 422.272C979.72 425.016 982.687 427.749 987.891 425.903C990.615 424.932 995.45 428.562 993.549 434.028C999.662 425.691 999.187 423.739 990.287 421.206C987.669 420.457 982.898 421.702 982.729 419.096C982.455 413.239 975.551 410.569 977.05 403.878C978.105 399.003 977.662 393.325 972.743 389.769C972.231 389.436 971.747 389.062 971.296 388.65C965.501 388.471 962.851 384.27 960.571 379.912C957.763 374.635 961.468 374.139 965.353 374.002C962.914 369.834 961.046 365.095 955.778 362.974C955.335 364.705 955.071 365.454 954.944 366.235C954.786 367.29 955.504 368.652 954.184 369.486C954.121 358.932 954.121 358.932 962.798 357.244C963.988 357.124 965.14 356.765 966.187 356.189C968.731 354.458 971.993 353.276 973.577 356.051C975.16 358.827 976.997 362.278 974.052 366.098C970.357 370.879 973.693 378.076 979.467 378.762C989.717 380.039 989.802 380.06 986.698 388.872C985.643 391.837 984.091 394.602 982.761 397.462C989.834 395.942 986.719 401.187 986.012 403.245C983.901 409.408 987.944 407.297 990.657 407.202L990.393 407.361C994.996 403.751 999.577 400.681 1003.7 407.973C1007.45 402.285 1009.22 396.755 1008.85 390.033C1008.66 386.529 1008.04 383.268 1006.08 381.284C1002.91 378.118 1000.47 375.933 1002.32 370.52C1004.34 364.578 996.759 365.011 994.373 361.74L994.732 361.877C987.754 364.336 987.416 364.114 984.714 355.471V355.714C981.832 352.548 976.173 351.619 978.929 344.422C980.702 339.831 972.5 334.924 966.641 334.998C958.396 335.114 964.889 329.331 963.812 326.482C964.115 326.236 964.48 326.079 964.867 326.028C965.216 326.028 965.554 326.397 965.923 326.608H965.86C968.393 319.685 962.323 313.945 963.4 306.927C963.991 303.096 958.819 310.937 957.995 305.534C957.647 303.254 959.23 300.521 957.151 298.843C956.211 298.094 953.899 293.408 952.601 298.843C952.009 301.334 948.916 299.719 948.146 301.724C951.746 303.55 955.356 305.27 955.535 310.167C955.609 311.834 955.725 313.47 953.888 314.092C951.777 314.799 949.814 314.177 949.043 311.982C947.97 308.681 947.685 305.176 948.209 301.745C940.756 292.733 931.562 285.335 924.499 275.922C922.208 272.872 918.524 270.74 915.22 268.608C911.916 266.477 908.569 265.675 909.329 260.166C910.026 255.227 905.793 250.858 901.37 251.375C896.672 251.913 894.772 249.264 892.186 247.217C889.599 245.17 887.657 244.516 885.366 247.755C884.638 248.811 886.559 252.779 882.769 250.826C880.932 249.866 879.602 247.777 880.658 245.719C881.481 244.136 883.382 243.112 885.683 241.044C880.405 238.142 874.694 235.904 873.839 229.024C873.596 226.997 871.252 224.053 869.384 223.631C862.342 222.016 862.311 211.959 854.33 211.78C852.557 211.78 852.926 210.165 853.665 209.099C855.428 206.545 856.04 205.828 851.765 205.152C846.877 204.382 846.339 201.987 849.136 196.826C850.751 193.829 847.954 195.095 847.489 194.241C841.535 198.462 835.951 193.861 829.258 194.367C831.792 191.813 835.592 193.576 835.972 190.23C836.331 187.18 833.534 187.919 831.749 187.36C829.723 186.716 828.076 185.344 828.424 183.023C829.395 176.606 827.77 172.744 820.285 173.525C819.356 173.63 818.005 172.469 817.308 171.625C810.974 163.436 804.292 155.658 795.34 150.171C796.121 141.538 786.525 144.894 783.612 140.114C782.155 137.729 780.571 137.549 782.989 134.088C786.673 128.811 782.683 125.835 777.088 125.139C776.94 125.139 776.813 124.453 776.782 124.083C776.697 123.186 777.214 122.701 778.238 122.617H778.302C771.968 123.419 767.978 120.696 766.12 114.67L754.37 104.001C752.987 103.252 750.464 102.608 750.39 101.742C749.461 91.2949 738.651 89.406 733.848 82.2721C729.162 75.2868 723.293 69.1728 716.504 64.2051C714.255 62.58 712.06 60.7542 712.281 57.3033C712.492 54.5596 710.824 53.7469 708.47 55.14C706.929 56.058 705.303 56.8073 704.406 54.8867C703.509 52.966 705.029 52.2168 706.802 51.9002C707.309 51.8157 707.71 51.1509 708.175 50.7499C703.329 50.9504 701.345 44.8085 696.351 45.3889C694.346 45.621 692.129 45.6528 693.184 48.882C693.818 50.7183 694.504 52.7444 691.749 54.6757C688.529 50.7816 684.993 47.0141 682.089 42.7928C680.474 40.4395 676.716 37.1258 683.62 35.4056C685.731 34.878 684.254 31.2582 681.15 30.5828C675.091 29.2637 678.595 25.7601 680.042 23.6178C681.889 20.8845 684.75 18.0247 686.882 23.6178C688.117 26.8682 689.669 25.5701 691.295 24.1349C694.567 21.2328 697.375 19.4493 701.64 23.4806C704.121 25.8445 706.264 22.2037 706 20.1248C705.662 17.5181 703.741 12.9697 702.485 12.9592C695.285 12.9592 694.916 4.28448 688.972 3.02863C687.811 2.78595 680.527 2.47998 679.809 3.5036C677.107 7.17609 673.834 5.49811 671.143 3.99957C666.434 1.37189 662.001 1.88892 657.419 3.93622C657.514 4.6012 657.514 5.27631 657.419 5.94135C664.724 7.34491 669.464 15.1754 677.962 14.0461C679.018 13.909 680.823 18.1091 678.701 18.89C671.058 21.7183 666.761 30.9417 657.25 29.9391C656.015 32.1447 649.67 31.7648 654.315 37.2102C655.856 39.0148 654.199 44.7979 649.385 44.2069C640.476 43.1516 642.249 47.605 644.266 52.6494C644.857 54.1374 645.205 55.7415 645.786 57.24C648.34 63.8568 646.651 54.644 647.992 56.6491C648.551 56.0716 649.263 55.6655 650.044 55.4786C650.826 55.2917 651.645 55.3317 652.405 55.5938C653.914 56.1425 653.46 57.62 653.46 58.7597C653.281 62.3689 654.052 66.6006 652.405 69.4289C651.283 71.2679 650.797 73.425 651.025 75.5671C651.252 77.7092 652.178 79.717 653.661 81.28C658.622 86.2294 653.017 86.8521 651.645 89.2054C654.284 88.8361 657.609 86.8204 659.129 90.1552C660.111 92.2658 658.073 94.6931 656.026 96.2233C654.463 97.4052 652.859 98.5554 651.296 99.7162C650.241 100.012 648.942 100.033 648.129 100.656C646.599 101.806 645.089 104.159 643.284 102.249C642.122 101.014 642.798 98.5027 643.854 96.7298C647.021 96.0227 648.203 100.371 651.36 99.6847C649.248 95.9489 651.655 92.4874 652.014 88.8994C649.396 86.5988 645.796 94.0916 643.03 87.6859C642.027 85.3641 638.079 89.1422 634.184 86.7571C627.924 82.8947 619.595 82.4725 611.899 83.3484C605.312 84.0871 598.661 84.8047 593.9 90.7355C592.106 92.9834 588.295 93.585 592.021 97.4158C592.982 98.3972 591.24 100.445 589.636 100.877C581.19 103.157 574.856 110.882 565.303 110.628C564.068 110.628 561.903 110.079 561.471 113.731C569.694 111.863 577.115 113.298 583.344 118.87C584.019 117.435 584.758 116.031 585.328 114.554C586.141 112.443 584.22 109.277 587.44 108.317C590.659 107.357 592.475 108.824 594.016 111.884C595.558 114.944 598.64 116.432 602.198 114.586C604.415 113.425 606.167 113.689 606.853 116.105C607.539 118.522 605.882 119.968 603.591 119.767C596.814 119.166 589.868 120.696 583.228 118.511C585.339 122.142 587.587 125.255 592.602 124.706C596.18 124.305 599.886 124.02 603.982 126.342C602.504 131.186 599.537 132.209 594.481 132.473C588.559 132.779 587.651 135.913 592.444 139.533C596.265 142.435 594.344 143.987 592.771 146.266C592.074 147.321 591.071 148.377 589.836 147.733C589.365 147.426 588.967 147.021 588.668 146.546C588.369 146.07 588.177 145.536 588.105 144.979C588.02 143.142 589.752 140.525 586.88 140.019C584.769 139.649 586.099 142.689 585.149 143.533C584.421 144.177 582.383 144.504 581.824 143.997C574.888 137.665 573.473 143.48 570.76 148.598C584.6 146.319 584.6 146.319 586.162 154.276L585.909 153.885C586.87 156.724 591.768 160.861 583.671 160.734L585.128 165.874L593.045 174.844C590.005 176.606 587.302 175.065 584.463 174.105C575.711 171.119 575.69 171.171 573.505 180.121C578.625 178.411 580.145 185.218 584.959 184.268C580.135 185.988 575.553 187.138 573.505 180.975C567.235 181.049 560.89 178.706 554.377 181.535C558.42 184.078 562.167 185.925 567.044 185.218C570.211 184.764 569.05 187.729 568.955 189.544C571.774 189.175 574.561 188.616 577.4 188.489C578.405 188.493 579.391 188.751 580.268 189.241C581.145 189.73 581.884 190.433 582.415 191.286C582.985 192.098 582.415 192.731 581.75 193.301C579.184 195.412 578.583 192.383 577.052 191.729C574.43 190.793 571.741 190.056 569.008 189.523C567.836 189.629 566.58 191.053 565.503 189.323V189.407C564.448 192.373 565.556 195.855 563.328 198.546C564.595 197.311 566.496 196.583 567.351 198.145C568.206 199.707 566.179 201.206 564.859 201.438C562.611 201.818 562.357 200.382 563.466 198.652C559.243 196.193 554.947 193.998 549.742 195.824C548.338 196.309 548.138 196.182 545.319 192.204C544.443 190.99 543.641 191.148 542.659 191.296C540.463 191.623 538.222 191.172 536.325 190.019C536.325 187.096 540.273 187.74 539.133 183.877C533.221 186.674 529.062 183.096 524.787 179.287C527.616 177.018 530.297 174.749 533.116 172.67C534.963 171.298 534.551 169.747 533.316 168.649C532.081 167.552 532.134 163.816 529.315 165.853C523.098 170.359 519.561 161.146 513.966 163.183C509.638 156.313 502.523 160.154 496.759 158.814C495.777 158.582 494.204 160.175 493.434 159.816C481.072 153.949 467.475 152.366 454.617 148.292C453.921 148.081 453.741 146.182 453.329 145.126V145.211C448.674 152.281 445.686 153.917 438.973 150.245C435.056 148.134 431.203 147.501 427.149 146.498C422.283 145.285 421.871 146.013 423.212 150.857C424.267 154.614 418.271 150.857 417.363 154.329C419.728 159.922 424.954 156.788 428.796 157.917C431.235 158.624 434.075 160.471 431.815 162.961C429.556 165.452 434.106 170.074 428.353 170.507C421.132 171.045 423.792 166.739 425.038 162.623C417.648 164.871 410.945 167.773 403.925 162.782C402.035 161.431 397.961 161.378 395.818 162.497C389.674 165.663 384.733 165.663 379.191 161.009C376.774 158.983 372.942 160.471 370.06 164.903C381.609 165.198 390.507 174.654 402.299 170.939C404.136 170.359 406.427 170.602 406.342 171.509C405.72 177.957 415.506 177.999 414.08 185.228C408.992 186.642 403.123 186.421 398.393 189.608C396.208 191.085 393.115 192.447 395.796 196.161C397.317 198.272 395.796 203.464 401.022 201.438C404.854 199.981 409.161 205.659 412.845 199.749C416.118 194.536 417.068 195.148 421.143 196.984C424.732 198.62 427.899 203.496 433.019 199.253C433.642 198.747 437.642 201.195 435.827 204.139C434.539 206.25 430.696 206.809 434.022 210.725C435.151 212.075 431.023 214.038 429.978 212.592C426.125 207.221 422.367 210.535 418.366 211.864C412.866 213.679 407.651 214.207 405.128 207.2C404.727 206.145 403.798 204.593 402.626 205.321C399.987 206.947 398.974 211.653 394.181 207.369C389.959 203.548 384.754 200.361 383.625 194.705C382.305 188.172 378.346 186.262 371.442 185.893L381.281 183.877C377.196 180.184 371.622 182.221 368.782 178.601C366.523 175.72 356.748 180.933 361.023 171.34C354.478 170.96 349.506 163.721 342.085 167.045C337.862 168.945 333.83 168.691 328.731 165.525C340.216 163.584 350.699 162.919 360.918 159.194C355.397 157.083 346.867 161.441 346.318 151.3L346.455 151.806ZM651.254 288.997C652.357 289.233 653.438 289.565 654.484 289.989C655.719 290.58 657.567 291.319 655.762 292.986C655.213 293.493 653.048 293.324 652.721 292.807C652.003 291.625 651.972 290.021 651.666 288.585C648.731 289.124 645.68 287.53 642.798 289.029C637.942 286.126 631.651 289.999 627.048 285.588C625.433 284.037 623.986 282.053 625.992 280.671C630.817 277.272 636 279.847 640.877 281.093C645.754 282.338 642.524 286.369 642.84 289.071C647.147 281.926 647.147 281.926 651.254 288.997ZM319.779 171.952C319.826 171.46 319.974 170.982 320.212 170.549C320.45 170.115 320.774 169.735 321.165 169.431C321.555 169.127 322.003 168.905 322.482 168.78C322.96 168.654 323.459 168.628 323.949 168.702C325.458 168.945 327.939 168.512 328.425 171.277C325.437 173.25 322.46 172.607 319.483 171.625C320.201 175.973 317.372 174.865 315.039 174.485C313.74 174.274 312.632 173.43 313.455 172.037C314.849 169.631 316.77 170.654 318.597 171.583C318.977 171.737 319.368 171.86 319.768 171.952H319.779ZM493.518 175.213C492.304 176.131 491.228 177.451 489.866 177.904C487.839 178.569 486.203 178.105 486.108 175.256C486.002 171.847 487.86 172.902 489.686 173.293C491.164 173.63 492.853 173.557 493.223 175.54C496.39 175.625 499.694 175.351 500.855 179.762C497.255 179.867 493.033 181.535 493.508 175.213H493.518ZM753.853 264.999C751.741 264.556 748.575 266.202 747.973 262.815C747.466 259.849 750.654 260.873 752.196 260.05C753.737 259.227 755.12 257.105 757.421 258.72C758.033 262.076 754.191 262.815 753.494 265.379C755.204 265.696 758.297 264.566 757.516 267.827C757.062 269.748 753.98 270.772 752.438 269.569C750.053 267.754 754.877 267.099 753.842 264.999H753.853ZM954.005 349.962C952.801 352.252 951.893 354.87 948.41 354.236C948.41 357.254 949.465 360.452 946.488 363.228C944.725 359.238 941.39 356.273 940.883 351.851C937.98 347.831 934.549 350.701 931.192 350.901C929.693 350.986 927.761 349.909 927.867 348.094C927.962 346.564 929.746 344.717 931.034 345.234C935.615 347.039 941.411 344.96 945.053 349.603H945.697L945.823 350.226C948.695 349.962 951.577 349.107 954.427 350.342C952.843 348.527 951.133 346.807 949.729 344.855C949.557 344.604 949.446 344.317 949.407 344.015C949.368 343.714 949.402 343.407 949.505 343.122C949.608 342.836 949.778 342.579 950.001 342.372C950.224 342.165 950.492 342.014 950.785 341.931C953.635 341.267 956.549 341.594 957.815 344.717C959.177 348.084 957.868 350.057 953.973 349.962H954.005ZM680.443 86.4616C680.369 89.4376 683.884 87.2319 684.518 89.2898C685.151 91.3477 689.331 91.601 687.537 94.8092C687.083 95.6006 685.584 96.0544 684.507 96.2021C681.498 96.6031 679.978 94.6614 679.672 92.0969C679.45 90.2396 680.116 88.2662 680.39 86.4088C678.648 89.9124 676.347 92.7407 671.945 91.4638C670.826 91.1578 666.878 92.8356 669.126 88.7516C670.034 87.0842 669.126 83.1691 672.831 84.7837C675.344 85.8918 677.392 88.1818 680.432 86.4616H680.443ZM935.668 339.736H932.374C926.104 340.243 923.18 335.663 919.833 331.61C917.722 329.088 918.841 327.474 920.889 325.648C923.845 322.978 925.703 323.537 927.223 327.104C927.624 328.044 928.87 328.634 929.735 329.373L932.723 327.695C935.742 328.36 938.983 327.822 941.78 329.553C943.353 330.523 943.997 333.088 942.994 333.257C931.868 335.082 944.535 338.628 942.266 341.034C939.753 342.216 937.906 339.895 935.657 339.694L935.668 339.736ZM592.739 363.323L603.876 375.216C600.044 376.408 596.909 373.274 596.064 373.485C588.59 375.459 589.73 371.902 591.504 367.417C592.084 365.971 592.56 364.473 593.014 363.048C588.284 365.697 583.745 367.037 579.29 361.043C583.323 360.61 586.384 360.631 589.414 359.608C592.443 358.584 592.042 361.655 592.739 363.323ZM621.442 416.194C625.274 417.85 628.283 413.376 632.168 413.904C631.914 417.555 632.073 420.816 627.702 419.307C625.513 418.387 623.395 417.304 621.368 416.067C623.575 420.288 621.97 425.565 626.647 429.501C613.979 429.343 613.388 428.509 618.497 419.855C619.373 418.554 620.359 417.329 621.442 416.194ZM113.99 200.53C116.724 201.237 119.764 201.427 122.129 202.767C125.528 204.699 125.38 208.572 123.829 211.337C122.393 213.869 119.606 212.139 117.347 211.273C111.678 209.047 113.641 204.488 113.969 200.488C110.443 202.599 107.308 207.158 102.135 202.736C105.935 198.694 110.379 202.261 113.979 200.53H113.99ZM124.388 407.962C132.685 409.893 131.281 417.829 134.343 423.043C130.224 419.482 126.455 415.535 123.089 411.255C121.812 409.661 122.72 408.342 124.715 407.931C123.364 405.894 119.722 405.039 121.348 401.071C124.43 402.665 125.422 404.839 124.377 407.962H124.388ZM605.185 404.48C595.684 407.487 596.128 399.203 591.462 393.758C603.422 396.924 603.422 396.924 604.773 404.817C606.061 406.041 607.941 406.928 606.463 409.345C606.051 410.031 605.871 411.202 605.544 410.843C604.881 410.142 604.435 409.263 604.259 408.314C604.083 407.365 604.184 406.385 604.552 405.493C604.73 405.136 604.942 404.796 605.185 404.48ZM873.321 273.167C867.663 273.494 865.161 268.566 861.456 265.78C860.263 264.883 861.16 262.403 862.828 261.865C865.995 260.81 867.927 263.015 869.975 265.157C872.286 267.574 877.164 268.724 873.078 273.431C875.264 273.283 878.05 271.658 878.779 275.299C878.725 275.862 878.525 276.401 878.199 276.864C877.874 277.326 877.433 277.696 876.921 277.937C873.247 278.454 873.553 275.552 873.29 273.22L873.321 273.167ZM669.147 316.952C663.943 320.118 660.512 316.519 656.385 314.124C652.077 311.633 654.273 308.362 653.597 305.681C661.293 306.42 665.083 311.813 668.915 317.163C669.876 319.896 677.909 317.269 673.908 323.759C674.626 328.276 678.564 327.273 681.425 328.17C689.31 330.671 691.242 333.964 689.68 341.573C688.888 345.467 686.639 348.147 683.272 345.161C679.904 342.174 676.262 342.944 671.322 342.902C679.503 338.565 679.334 338.681 674.837 334.46C672.726 332.486 670.044 331.727 669.158 327.59C667.585 320.319 671.09 323.157 674.077 323.833C672.8 321.321 666.698 322.165 669.115 317.005L669.147 316.952ZM585.55 250.468C590.617 247.027 594.871 242.331 600.994 240.537C594.439 239.165 588.105 235.809 581.222 240.453C576.788 243.439 572.439 239.724 571.52 236.326C569.905 230.364 577.422 235.187 578.635 232.021C575.342 225.868 568.016 225.625 562.326 220.792L575.754 220.032L575.49 220.328C568.765 216.265 561.851 213.88 554.683 219.135C550.714 222.037 548.908 218.755 546.586 216.771C543.166 213.869 546.079 211.78 547.705 209.764C549.985 206.925 552.022 204.034 551.674 198.05C558.451 207.253 565.704 207.158 573.157 204.994C576.661 203.939 577.865 205.68 580.546 207.58C590.047 214.439 593.214 214.967 603.771 215.885C602.894 218.143 600.319 218.861 600.182 222.217C599.939 228.274 607.349 226.438 608.289 230.807C605.565 232.179 603.095 228.908 600.899 231.862C601.807 234.511 604.446 234.363 606.505 235.387C612.036 238.142 606.927 238.922 605.344 240.326C597.954 254.931 596.275 256.082 583.618 255.354C583.618 253.38 587.06 253.074 586.025 250.478C585.561 247.734 582.32 249.971 581.496 247.871C584.146 247.291 586.68 243.112 589.171 245.835C590.828 247.766 587.44 249.423 585.55 250.541V250.468ZM759.363 389.705C756.956 392.871 754.307 394.982 750.243 392.154C746.178 389.325 746.368 385.558 748.437 381.6C746.506 381.527 744.426 382.656 742.621 380.988C753.251 376.292 753.177 376.398 768.263 386.265C772.485 389.019 772.39 392.396 771.82 396.818C766.12 396.206 761.844 394.57 759.363 389.705ZM575.099 398.148C581.074 400.965 584.399 406.453 588.432 411.265C592.19 415.761 597.088 419.37 598.989 425.259C603.813 425.491 608.321 426.599 612.322 429.702C609.461 431.316 606.061 429.301 603.528 432.445C601.48 434.989 599.168 432.002 597.658 430.683C594.565 427.981 599.094 426.979 599.379 424.932C596.022 425.122 591.99 424.33 590.427 422.135C585.793 415.708 579.871 415.803 573.062 417.713C577.611 414.252 581.359 411.276 576.387 405.883C574.17 403.477 575.226 400.607 575.469 397.81C567.023 394.053 566.844 393.863 565.968 385.03C572.819 386.74 572.946 393.146 575.099 398.148ZM870.682 392.576C865.309 393.061 867.515 385.273 862.638 385.189C862.342 385.189 853.137 375.691 852.894 375.332C851.67 373.58 848.387 371.934 851.934 369.718C854.816 367.903 857.708 366.657 859.323 371.976C859.893 373.907 863.936 376.282 866.058 375.986C873.004 375.036 871.727 379.68 871.674 383.279C871.458 386.47 871.028 389.643 870.386 392.776C873.142 393.093 876.837 392.903 875.665 397.156C874.715 400.712 870.893 398.887 869.574 398.042C866.607 396.185 868.75 394.138 870.64 392.565L870.682 392.576ZM639.863 150.487C637.171 159.574 628.441 162.518 623.722 169.293C622.667 170.865 619.911 171.699 618.444 169.768C615.024 165.325 611.382 165.758 606.895 167.879C606.156 168.217 602.388 168.174 602.24 164.512C601.955 157.368 603.697 154.941 610.432 156.471C621.136 158.898 630.943 158.149 639.821 150.477L639.863 150.487ZM672.135 203.759C669.601 205.448 645.68 206.261 643.706 205.87C640.824 205.364 637.71 205.068 638.333 200.984C638.934 197.122 638.512 192.299 643.928 191.486C646.229 191.127 649.744 189.945 648.668 195.359C648.193 197.723 649.079 204.013 652.721 202.356C659.921 199.053 665.326 207.78 672.114 203.749L672.135 203.759ZM687.357 321.036C694.504 320.287 698.473 320.899 700.848 327.431C702.706 332.56 707.805 336.169 712.978 338.913C717.341 341.109 720.961 344.541 723.387 348.78C724.358 350.543 723.978 351.946 722.331 352.812C721.453 353.303 720.458 353.548 719.452 353.519C718.446 353.49 717.467 353.188 716.618 352.647C715.77 352.105 715.084 351.344 714.635 350.444C714.185 349.543 713.988 348.538 714.065 347.535C714.065 344.96 713.738 343.409 711.468 343.599C707.246 343.937 705.135 339.895 701.725 339.378C696.985 338.713 699.877 334.006 698.558 333.394C693.28 331.019 692.097 325.5 687.315 321.026L687.357 321.036ZM467.486 250.594C460.54 241.877 454.459 234.648 446.425 229.583C446.13 229.393 446.098 228.855 445.866 228.528C444.81 226.955 444.81 225.362 446.552 224.591C447.471 224.159 449.519 224.222 449.878 224.792C454.026 231.535 460.719 231.039 468.774 230.659C463.094 237.118 470.484 242.289 467.444 250.584L467.486 250.594ZM543.725 335.884C547.43 334.829 550.386 334.259 551.833 336.222C554.461 339.8 557.512 339.684 561.333 339.388C566.865 338.966 572.397 338.86 574.835 345.952C575.543 348.063 578.857 349.192 582.003 351.535C578.836 352.031 576.788 354.405 574.751 351.429C572.639 348.263 568.765 347.366 566.306 344.717C563.139 341.245 559.507 343.261 558.842 345.678C557.343 351.07 555.084 349.498 553.405 346.733C550.839 342.566 547.546 338.891 543.683 335.884H543.725ZM40.3263 138.404C38.5106 139.871 36.3781 138.024 35.5336 135.734C34.2246 132.135 37.6449 131.629 39.7562 131.84C43.8733 132.241 44.1899 127.154 47.5997 127.059C50.1227 126.986 53.8177 124.527 54.6727 128.642C55.2533 131.439 55.2427 135.47 50.904 136.494C47.7793 137.201 44.6228 137.623 40.284 138.393L40.3263 138.404ZM903.734 311.475C899.227 309.449 895.944 306.336 895.437 301.133C895.004 296.701 899.311 293.366 902.299 296.215C905.719 299.497 911.388 301.091 912.855 306.768C907.788 308.51 907.313 299.751 901.518 303.845C904.199 305.734 906.163 308.193 903.692 311.443L903.734 311.475ZM500.665 171.235C508.751 171.594 515.444 170.834 522.211 172.438C521.852 173.277 521.593 174.155 521.44 175.055C521.25 179.582 517.862 181.186 514.389 181.967C510.409 182.843 509.554 178.274 509.226 176.48C508.245 171.361 503.948 174.717 500.623 171.203L500.665 171.235ZM252.228 541.206C262.13 541.712 262.203 551.178 267.809 554.735C269.614 555.885 271.831 556.962 270.037 559.041C268.242 561.119 266.046 560.096 263.871 558.312C258.414 553.859 253.948 548.952 252.185 541.174L252.228 541.206ZM266.025 226.512C275.104 224.138 283.084 228.718 291.572 229.045C292.469 229.045 293.609 230.427 294.137 231.44C295.055 233.192 295.699 235.25 294.042 236.97C292.68 238.395 291.002 237.92 289.819 236.749C283.063 230.216 273.752 230.216 265.983 226.48L266.025 226.512ZM834.294 353.571C826.165 351.313 823.019 345.013 818.459 338.597C828.551 338.945 835.107 341.594 834.252 353.54L834.294 353.571ZM833.449 233.72C838.062 236.326 844.892 234.859 846.867 241.592C847.764 244.642 846.719 246.373 843.478 245.582C837.703 244.136 833.724 240.769 833.407 233.688L833.449 233.72ZM252.418 195.95C261.158 187.687 265.181 187.508 271.082 194.473C271.937 195.528 272.781 196.362 271.799 197.375C271.06 198.145 269.012 198.99 268.801 198.736C264.357 193.597 258.297 196.182 252.375 195.918L252.418 195.95ZM488.272 261.59C483.764 260.81 477.715 263.891 475.762 259.733C472.236 252.346 466.852 260.968 462.873 255.85C467.919 255.85 471.212 249.95 476.459 252.536C480.787 254.625 484.324 258.477 488.229 261.559L488.272 261.59ZM921.522 320.477C919.844 317.891 914.492 317.11 915.632 315.981C920.403 311.232 919.305 306.167 918.651 300.7C918.292 297.777 921.279 298.073 922.874 298.052C925.481 298.052 926.42 299.803 924.847 302.03C920.973 307.454 921.712 313.723 921.48 320.445L921.522 320.477ZM634.849 171.509C638.016 172.037 642.365 171.33 641.89 176.933C641.721 178.991 640.835 180.986 638.216 180.553C634.606 179.952 630.658 178.96 629.771 175.002C629.032 171.879 631.999 171.425 634.849 171.509ZM426.643 226.723C430.095 220.075 437.78 224.211 440.24 218.344C440.313 218.154 441.812 218.344 442.435 218.681C443.491 219.283 444.546 220.644 443.311 221.489C440.788 223.262 441.759 226.976 439.553 228.348C437.347 229.72 435.077 227.747 432.839 226.881C431.224 226.269 429.176 226.744 426.643 226.723ZM255.131 202.198C251.964 204.192 253.589 209.585 248.892 209.891C243.994 210.144 249.071 203.865 244.901 202.979C242.611 202.493 243.107 201.058 245.165 199.179C247.509 201.744 251.372 199.886 255.131 202.198ZM45.784 121.656C40.0095 127.661 34.0136 129.328 27.458 122.226C33.9291 120.517 39.7773 123.767 45.784 121.656ZM625.654 152.682C620.302 146.794 614.433 150.899 608.521 150.941C611.118 141.538 618.529 148.704 622.941 145.791C624.187 144.947 625.665 148.831 625.665 152.672L625.654 152.682ZM625.654 237.002C627.892 239.946 617.209 242.912 626.763 244.484C627.818 244.663 629.508 244.674 629.191 246.267C629.064 246.89 627.459 247.418 626.446 247.639C622.35 248.494 618.898 247.08 618.486 242.859C618.011 238.395 621.738 237.308 625.665 236.991L625.654 237.002ZM544.844 366.415C552.466 364.8 553.775 371.216 558.937 373.717C550.217 373.211 550.207 373.221 544.802 366.404L544.844 366.415ZM646.989 157.315C648.868 165.209 647.939 166.359 646.63 165.304C643.347 162.634 638.755 169.272 637.478 164.333C636.422 160.112 642.756 162.222 644.403 159.479C644.878 158.592 645.986 158.086 646.947 157.305L646.989 157.315ZM626.488 117.351C621.21 117.551 616.343 119.461 610.02 120.875C617.357 112.665 617.357 112.665 626.446 117.34L626.488 117.351ZM729.752 263.659C734.471 266.582 738.25 267.289 741.006 271.204C734.028 274.402 732.465 269.906 729.71 263.648L729.752 263.659ZM842.38 263.859C843.995 263.794 845.612 263.815 847.225 263.923C852.757 264.535 853.559 265.822 847.743 267.996C847.405 268.123 847.31 269.252 847.32 269.917C847.32 270.972 851.163 270.772 848.439 272.851C848.069 272.973 847.674 272.998 847.292 272.924C846.909 272.85 846.552 272.68 846.254 272.429C844.175 269.989 842.818 267.018 842.338 263.849L842.38 263.859ZM459.79 167.657C463.042 167.657 465.923 167.098 465.976 170.549C465.976 173.198 463.527 173.145 461.564 173.409C459.969 173.539 458.387 173.801 456.834 174.19C456.573 174.312 456.285 174.367 455.997 174.349C455.71 174.331 455.431 174.24 455.188 174.085C454.944 173.93 454.744 173.716 454.605 173.464C454.467 173.211 454.395 172.927 454.396 172.638C454.258 171.583 454.396 169.778 455.124 169.356C456.588 168.597 458.142 168.023 459.748 167.647L459.79 167.657ZM589.255 384.861C588.569 387.183 587.018 386.972 585.413 386.835C581.76 386.508 581.074 384.439 581.686 381.178C582.045 379.289 582.742 378.086 584.663 378.857C585.898 379.343 586.976 380.159 587.778 381.216C588.581 382.274 589.077 383.531 589.213 384.851L589.255 384.861ZM599.094 318.82C594.935 319.021 590.142 321.733 585.92 316.562C591.198 314.504 595.368 314.198 599.052 318.809L599.094 318.82ZM771.102 306.262L773.055 304.51C776.423 308.003 783.274 308.161 783.242 317.501L771.102 306.262ZM126.637 182.506C124.673 182.337 123.406 181.06 123.702 179.519C124.198 176.997 126.067 175.741 128.832 176.036C130.616 176.237 132.2 177.261 131.841 178.801C131.218 181.26 128.684 181.872 126.594 182.495L126.637 182.506ZM490.837 233.298C494.542 230.944 498.427 228.296 503.747 232.39C499.596 233.897 495.104 234.208 490.784 233.287L490.837 233.298ZM323.843 207.136L307.903 205.944C313.445 200.805 317.488 200.72 323.843 207.136ZM64.1525 196.467C58.2936 197.406 63.0967 199.908 63.2128 201.839C63.2656 203.453 61.8829 203.168 61.0067 202.356C58.2831 199.834 58.8953 196.108 62.284 194.969C62.8857 194.821 64.617 194.473 64.1313 196.478L64.1525 196.467ZM672.293 435.147C669.411 437.817 667.427 437.342 665.495 436.983C663.774 436.646 662.328 435.696 662.623 433.817C663.193 430.103 665.452 432.382 667.025 432.868C668.812 433.542 670.563 434.306 672.272 435.158L672.293 435.147ZM503.009 196.066C497.868 201.132 495.376 197.723 490.203 193.956L503.009 196.066ZM886.211 399.14C885.725 404.553 885.419 407.92 885.039 412.141C879.528 407.593 880.162 404.184 886.179 399.15L886.211 399.14ZM884.004 284.923C884.933 288.638 890.338 289.071 889.409 294.105C889.21 294.424 888.934 294.689 888.605 294.873C888.277 295.058 887.907 295.156 887.53 295.16C883.413 293.672 881.703 290.559 882.094 286.274C882.072 286.074 882.664 285.863 883.973 284.934L884.004 284.923ZM613.936 140.346L604.51 136.262C609.471 132.325 612.575 134.457 613.905 140.325L613.936 140.346ZM872.688 249.507C874.324 250.415 877.502 250.383 877.776 253.95C877.892 255.575 876.435 255.364 875.242 255.417C872.286 255.522 869.669 255.079 869.352 251.502C869.257 250.109 870.703 249.782 872.688 249.507ZM718.995 118.226C723.714 124.316 723.714 124.316 715.311 126.669L718.995 118.226ZM740.372 119.546C738.345 123.767 735.432 124.411 733.31 125.951C731.874 127.007 730.354 125.719 729.531 124.21C728.475 122.258 729.615 121.16 731.304 120.812C733.901 120.263 736.508 120.052 740.404 119.546H740.372ZM569.905 240.738C570.306 242.996 569.335 244.009 567.467 244.304C564.933 244.706 563.772 243.439 563.571 241.044C563.413 239.218 564.12 237.814 565.968 237.519C568.586 237.097 569.304 239.102 569.937 240.738H569.905ZM610.02 89.1631C613.826 87.8043 618.002 87.9059 621.738 89.4481C617.462 94.1548 613.947 93.3844 610.041 89.1631H610.02ZM616.175 370.066L614.148 372.177C610.717 369.306 607.296 366.415 601.849 361.845C610.316 362.499 612.902 366.773 616.164 370.066H616.175ZM430.369 235.144C426.949 235.683 423.476 237.529 419.96 234.849C423.391 231.145 426.896 232.918 430.369 235.144ZM762.393 161.558C760.461 162.412 759.68 161.558 758.73 160.84C755.658 158.645 755.078 156.07 757.748 156.165C761.475 156.313 761.633 159.078 762.372 161.558H762.393ZM867.167 244.241C867.631 245.898 866.385 246.352 865.277 246.531C862.585 246.985 860.769 245.697 859.893 243.217C859.471 242.046 859.777 240.769 861.361 240.991C863.641 241.318 866.037 241.687 867.146 244.241H867.167ZM782.799 441.236C787.359 438.587 790.379 437.785 796.237 441.015C790.727 439.822 788.69 443.611 782.778 441.236H782.799ZM701.957 356.632C696.932 358.109 694.419 355.049 690.788 353.74C695.707 351.081 700.099 348.495 701.936 356.632H701.957ZM651.592 178.749C649.723 178.749 648.425 178.041 648.657 176.1C648.701 175.323 649.01 174.585 649.533 174.009C650.055 173.433 650.76 173.053 651.528 172.934C654.115 172.712 652.521 175.224 653.407 176.321C655.287 178.643 652.785 178.379 651.571 178.749H651.592ZM804.313 337.246C804.577 339.072 804.313 340.486 802.149 340.412C799.985 340.338 799.837 338.649 799.447 337.119C798.919 335.009 800.016 334.354 801.832 334.27C804.07 334.154 804.334 335.621 804.292 337.246H804.313ZM607.719 140.652C605.28 144.873 602.504 145.928 599.178 145.38C598.809 145.38 598.271 142.973 598.661 142.045C600.466 137.866 603.75 139.903 607.719 140.652ZM134.343 205.026C134.265 205.85 133.873 206.614 133.249 207.158C132.624 207.702 131.814 207.985 130.986 207.949C129.107 207.949 128.716 206.028 128.114 204.783C127.513 203.538 128.716 202.525 129.888 202.546C131.757 202.514 133.731 202.831 134.343 205.026ZM174.553 196.151C172.6 197.839 171.386 198.768 170.33 199.876C169.084 201.174 168.377 203.443 165.126 201.638C167.511 199.306 168.567 195.771 174.553 196.119V196.151ZM312.041 186.02C312.121 186.301 312.139 186.597 312.091 186.887C312.043 187.176 311.932 187.451 311.766 187.692C311.599 187.933 311.382 188.134 311.128 188.281C310.874 188.428 310.591 188.517 310.299 188.542C308.272 189.08 306.499 188.542 305.549 186.558C304.725 184.817 306.256 184.637 307.259 184.542C309.022 184.363 311.08 183.698 312.041 186.03V186.02ZM233.817 516.047C232.687 517.219 235.78 520.522 231.853 520.015C228.792 519.635 228.803 516.606 228.064 514.443C227.684 513.314 228.222 511.647 229.763 512.396C231.304 513.145 235.675 511.435 233.817 516.015V516.047ZM175.513 179.994C171.153 183.835 167.934 183.909 164.418 181.44C167.902 182.273 170.372 178.231 175.513 179.962V179.994ZM421.122 178.02C423.845 178.02 424.426 179.656 424.415 181.26C424.405 182.864 423.55 184.912 421.67 184.595C418.398 184.046 421.67 182.316 421.364 181.176C421.058 180.036 418.546 178.717 421.122 177.989V178.02ZM453.425 179.487C453.118 180.775 452.369 181.735 450.997 181.598C449.339 181.376 447.682 180.374 447.502 178.844C447.302 177.039 448.98 176.131 450.669 176.311C451.061 176.325 451.445 176.419 451.799 176.587C452.153 176.755 452.468 176.994 452.726 177.288C452.984 177.583 453.18 177.927 453.3 178.3C453.42 178.672 453.462 179.066 453.425 179.456V179.487ZM935.341 369.443C937.579 369.443 939.173 364.948 942.097 369.158C939.785 369.834 937.906 371.396 935.341 369.412V369.443ZM164.577 170.391C166.688 166.37 169.686 166.022 173.803 167.731C171.459 171.868 168.567 172.311 164.577 170.359V170.391ZM446.436 169.061C445.032 169.81 443.47 170.781 441.791 171.499C441.538 171.646 441.251 171.723 440.958 171.724C440.666 171.724 440.378 171.647 440.125 171.5C439.872 171.353 439.662 171.142 439.517 170.887C439.372 170.633 439.297 170.345 439.3 170.053C439.416 167.604 441.865 167.425 443.522 166.707C444.62 166.19 445.708 166.929 446.394 169.029L446.436 169.061ZM611.276 272.481C607.613 270.307 604.298 268.851 606.082 264.282C606.853 267.374 612.047 266.983 611.234 272.46L611.276 272.481ZM611.276 396.111C609.883 395.921 607.782 396.206 608.194 393.895C608.399 392.937 608.889 392.063 609.599 391.387C610.309 390.711 611.206 390.265 612.174 390.106C612.649 390.011 613.683 391.573 614.137 392.523C615.457 395.372 613.303 395.699 611.245 396.037L611.276 396.111ZM540.97 358.225C544.717 359.165 546.755 360.684 547.304 364.779C544.886 362.753 541.698 362.953 540.938 358.204L540.97 358.225ZM626.721 131.988C624.208 131.08 621.622 134.594 618.898 131.165C621.664 129.392 624.219 128.062 626.721 131.988ZM664.091 52.0057C667.173 53.8947 668.567 56.459 668.672 60.8069C663.816 58.5063 664.924 54.6545 664.091 52.0057ZM777.5 153.537C776.666 151.237 775.325 148.493 777.879 147.269C779.442 146.519 782.356 147.195 783.496 150.319L777.5 153.537ZM28.1652 152.345C24.1642 153.769 21.6202 153.516 18.981 150.519C22.6864 149.822 25.2093 150.15 28.1652 152.345ZM841.124 320.055C841.912 320.032 842.687 320.258 843.34 320.699C843.994 321.14 844.492 321.774 844.766 322.514C845.241 323.643 844.037 324.688 842.897 324.92C841.029 325.321 840.1 323.917 839.551 322.461C839.076 321.173 839.804 320.34 841.124 320.055ZM896.144 314.314C893.305 315.264 892.893 313.85 892.07 313.121C890.507 311.728 889.23 309.417 892.006 308.985C895.194 308.446 895.384 311.939 896.144 314.314ZM558.61 389.526C558.335 390.433 557.649 390.455 556.784 390.634C554.904 391.024 553.004 392.175 551.695 389.811C551.463 389.389 552.054 387.996 552.118 388.006C553.986 388.281 555.833 388.661 557.67 389.062C558 389.18 558.315 389.336 558.61 389.526ZM648.34 294.432C648.161 297.239 646.725 298.896 643.854 298.843C642.798 298.843 641.257 298.463 641.911 296.732C642.661 294.759 644.498 293.83 646.218 292.87C647.939 291.91 647.95 293.471 648.351 294.432H648.34ZM475.899 281.251C474.126 281.325 472.458 280.713 473.081 278.75C473.368 277.984 473.913 277.343 474.622 276.935C475.33 276.526 476.159 276.377 476.965 276.513C478.528 276.798 480.365 277.832 480.038 279.446C479.71 281.061 477.441 280.892 475.91 281.251H475.899ZM727.979 278.602C728.718 277.673 728.897 277.23 729.214 277.093C731.009 276.28 732.75 274.719 734.851 275.647C735.121 275.769 735.358 275.953 735.544 276.184C735.73 276.414 735.859 276.686 735.92 276.975C735.982 277.265 735.975 277.565 735.899 277.851C735.823 278.137 735.681 278.402 735.484 278.623C733.869 280.153 731.674 279.478 729.678 279.288C729.095 279.114 728.529 278.884 727.989 278.602H727.979ZM840.849 260.778C843.214 258.498 844.206 256.061 846.961 256.557C847.27 256.724 847.53 256.968 847.715 257.266C847.9 257.564 848.004 257.905 848.017 258.256C847.278 261.358 844.766 260.852 840.86 260.778H840.849ZM614.866 255.501C613.81 256.989 612.205 257.032 610.643 256.789C609.587 256.641 607.972 256.525 608.848 254.678C609.136 254.069 609.611 253.568 610.204 253.247C610.796 252.926 611.476 252.803 612.143 252.895C612.811 252.987 613.432 253.289 613.916 253.758C614.399 254.226 614.721 254.837 614.834 255.501H614.866ZM216.884 217.194C215.776 218.608 214.118 218.544 212.609 218.597C210.856 218.65 210.804 217.394 211.553 216.339C212.609 214.819 214.256 215.157 215.776 215.632C216.831 215.906 217.201 216.381 216.895 217.183L216.884 217.194ZM261.781 202.799C261.84 202.405 261.972 202.025 262.172 201.68C262.82 200.93 263.68 200.393 264.639 200.14C265.598 199.888 266.611 199.932 267.545 200.266C268.601 200.572 270.311 201.322 269.255 202.525C268.4 203.485 266.426 203.58 264.917 203.812C263.787 203.97 262.52 204.065 261.792 202.789L261.781 202.799ZM467.116 200.488C469.006 200.636 470.22 201.279 470.114 202.599C469.924 204.836 468.003 204.393 466.567 204.161C465.343 203.949 464.203 202.968 464.741 201.765C465.09 200.963 466.599 200.731 467.127 200.477L467.116 200.488ZM331.306 189.196C331.185 189.043 331.109 188.859 331.086 188.665C331.063 188.472 331.094 188.275 331.176 188.098C331.258 187.921 331.388 187.77 331.551 187.662C331.714 187.554 331.903 187.493 332.098 187.487C333.682 187.181 335.265 187.191 336.321 188.774C337.165 190.093 336.564 190.885 335.202 191.148C334.426 191.342 333.607 191.251 332.893 190.893C332.178 190.535 331.616 189.933 331.306 189.196ZM767.661 187.086C767.08 188.975 766.13 190.642 764.093 191.18C763.311 191.37 761.126 191.644 762.953 189.798C764.23 188.5 763.903 185.83 766.383 185.714C766.785 185.735 767.217 186.632 767.661 187.086ZM475.847 180.954C479.014 181.017 482.265 180.954 485.02 183.962C480.671 185.935 478.338 183.213 475.847 180.986V180.954ZM775.261 423.75C775.81 424.731 775.536 425.544 774.47 425.512C773.404 425.48 771.809 425.311 771.303 424.604C770.511 423.549 771.408 422.325 772.675 421.956C774.079 421.586 774.755 422.642 775.261 423.781V423.75ZM476.079 159.046C478.306 159.046 479.573 160.186 479.742 161.716C479.89 162.919 478.201 163.373 477.261 162.908C475.952 162.243 474.263 161.252 473.904 160.059C473.545 158.867 475.456 159.13 476.079 159.046ZM509.416 162.887C508.963 163.715 508.221 164.349 507.332 164.667C506.444 164.986 505.469 164.969 504.592 164.618C504.196 164.273 503.892 163.834 503.708 163.342C503.524 162.851 503.465 162.321 503.536 161.8C503.989 161.165 504.642 160.7 505.39 160.48C506.139 160.26 506.939 160.298 507.664 160.587C508.593 160.872 510.092 160.998 509.416 162.887ZM448.642 160.027C446.151 160.829 445.085 163.478 442.309 162.623C441.253 162.307 441.253 161.568 441.939 160.766C443.628 158.698 445.602 158.202 448.642 160.027ZM454.111 158.107C453.835 158.115 453.56 158.062 453.307 157.952C453.054 157.842 452.828 157.677 452.647 157.469C452.465 157.261 452.331 157.015 452.256 156.75C452.181 156.484 452.165 156.205 452.21 155.933C452.266 155.581 452.402 155.248 452.607 154.957C452.812 154.666 453.081 154.426 453.393 154.255C454.522 153.885 455.663 154.255 455.779 155.69C455.869 156.23 455.745 156.785 455.434 157.236C455.123 157.687 454.648 157.999 454.111 158.107ZM668.767 161.346C667.817 160.65 666.55 160.186 666.139 159.32C665.178 157.273 667.194 157.906 667.954 157.864C669.073 157.864 670.33 158.202 670.245 159.669C670.224 160.196 669.401 160.703 668.767 161.346ZM798.613 560.845C798 561.9 797.198 562.724 795.995 561.668C795.231 560.895 794.525 560.066 793.883 559.188C794.893 558.889 795.935 558.715 796.987 558.671C798.095 558.745 799.067 559.357 798.613 560.845ZM618.096 127.26C617.346 127.07 616.111 127.049 615.985 126.627C615.436 125.149 616.861 124.759 617.832 124.442C618.392 124.252 619.637 124.506 619.722 124.812C619.975 126.046 619.616 127.123 618.043 127.26H618.096ZM655.287 468.126C657.313 467.967 657.493 469.35 657.398 470.373C657.208 471.476 656.852 472.543 656.342 473.539C655.656 472.695 654.579 471.935 654.389 470.996C654.199 470.057 654.928 469.012 655.223 468.136L655.287 468.126ZM685.531 460.337C683.304 461.087 682.522 461.635 681.942 461.488C680.348 461.055 678.595 460.211 678.405 458.543C678.268 457.235 679.904 456.908 680.992 457.414C682.543 458.303 684.042 459.283 685.478 460.348L685.531 460.337ZM668.641 455.968L665.737 458.596C665.653 457.931 665.273 457.087 665.547 456.654C666.164 455.72 666.947 454.908 667.859 454.259C668.377 453.858 668.809 454.428 668.598 455.979L668.641 455.968ZM515.296 452.686C514.98 453.393 514.684 454.67 514.346 454.681C513.556 454.772 512.756 454.619 512.056 454.241C511.355 453.864 510.788 453.281 510.43 452.57C510.25 452.148 510.958 450.913 511.486 450.671C513.438 449.858 514.251 451.536 515.254 452.697L515.296 452.686ZM609.556 438.123C609.611 438.416 609.606 438.717 609.541 439.007C609.476 439.298 609.353 439.573 609.178 439.814C609.003 440.055 608.78 440.258 608.524 440.41C608.268 440.562 607.983 440.66 607.687 440.698C606.294 440.698 604.393 440.191 603.633 439.199C602.525 437.754 604.32 437.384 605.386 437.163C606.843 436.857 608.405 436.635 609.513 438.134L609.556 438.123ZM542.722 436.012C544.063 434.113 545.509 432.488 548.085 433.67C548.231 433.969 548.307 434.297 548.307 434.63C548.307 434.963 548.231 435.291 548.085 435.59C546.491 437.194 544.601 437.089 542.68 436.065L542.722 436.012ZM685.13 433.902C684.898 434.577 684.792 435.738 684.412 435.843C682.427 436.382 681.773 434.619 680.907 433.395C680.042 432.171 680.358 431.285 681.836 431.095C683.726 431 684.233 432.762 685.088 434.028L685.13 433.902ZM791.751 432.561C791.434 433.216 791.286 434.102 790.769 434.472C790.561 434.667 790.307 434.807 790.031 434.88C789.755 434.953 789.465 434.956 789.188 434.889C788.91 434.822 788.654 434.687 788.441 434.496C788.229 434.306 788.068 434.065 787.972 433.796C787.925 433.454 787.966 433.106 788.092 432.785C788.218 432.464 788.423 432.18 788.689 431.96C789.192 431.721 789.761 431.66 790.303 431.789C790.844 431.917 791.325 432.227 791.666 432.667L791.751 432.561ZM473.25 418.969C470.262 419.022 467.707 420.9 465.153 417.207C467.971 416.5 470.484 415.423 473.165 419.075L473.25 418.969ZM482.613 410.337C483.775 410.558 484.946 410.833 484.418 412.447C484.263 412.984 483.913 413.443 483.436 413.736C482.96 414.029 482.392 414.134 481.843 414.03C480.608 413.872 479.615 413.207 479.974 411.814C480.206 410.695 481.368 410.442 482.529 410.442L482.613 410.337ZM643.854 406.675C643.115 407.297 642.545 408.11 642.154 408.036C641.142 407.747 640.165 407.347 639.241 406.844C639.684 406.411 640.17 405.588 640.55 405.64C641.659 405.911 642.737 406.293 643.769 406.78L643.854 406.675ZM658.844 75.6868L655.857 77.7974C655.614 77.101 654.97 76.0035 655.181 75.8136C656.188 74.7736 657.389 73.9417 658.717 73.3652C659.361 73.1858 659.72 74.1672 658.76 75.7924L658.844 75.6868ZM756.566 396.776C757.22 397.114 758.857 397.493 758.962 398.116C759.031 398.482 759.024 398.858 758.939 399.221C758.855 399.584 758.696 399.925 758.473 400.222C758.249 400.52 757.966 400.768 757.641 400.951C757.317 401.133 756.958 401.246 756.587 401.282C756.057 401.283 755.535 401.154 755.066 400.908C754.597 400.661 754.195 400.304 753.895 399.868C753.336 398.222 754.455 397.198 756.566 396.776ZM994.088 395.932C995.429 396.238 997.445 395.636 997.371 398.042C997.371 398.496 996.146 399.393 995.692 399.266C994.267 398.908 992.61 398.591 992.103 396.86C992.738 396.496 993.401 396.185 994.088 395.932ZM628.051 386.244C629.507 386.381 630.025 387.531 630.405 388.65C630.869 390.001 630.246 390.929 628.79 390.761C628.174 390.751 627.58 390.528 627.11 390.13C626.641 389.731 626.324 389.182 626.214 388.576C626.147 388.298 626.144 388.009 626.205 387.73C626.266 387.451 626.389 387.189 626.566 386.964C626.743 386.74 626.968 386.558 627.225 386.433C627.483 386.309 627.765 386.244 628.051 386.244ZM779.146 348.823C780.371 348.759 781.49 348.918 781.806 350.3C782.028 351.292 781.522 351.862 780.677 351.514C779.674 351.024 778.707 350.463 777.785 349.836L779.146 348.823ZM685.742 10.6691C681.667 11.3339 679.292 11.5134 676.526 9.34998C679.894 8.263 682.227 8.263 685.742 10.6691ZM510.124 313.723C509.733 314.958 508.846 315.834 507.632 315.475C506.65 315.148 505.394 314.156 505.246 313.29C505.13 312.615 506.429 311.18 507.273 310.969C509.1 310.684 509.638 312.362 510.124 313.723ZM667.247 294.622C668.025 294.756 668.732 295.158 669.246 295.757C669.76 296.355 670.05 297.115 670.066 297.904C670.066 298.548 669.496 299.677 669.01 299.793C667.142 300.204 666.181 298.97 665.843 297.292C665.685 296.759 665.744 296.185 666.007 295.694C666.27 295.204 666.715 294.838 667.247 294.674V294.622ZM645.078 268.239C645.935 268.777 646.707 269.438 647.369 270.202C647.486 270.362 647.548 270.555 647.548 270.753C647.547 270.951 647.483 271.143 647.365 271.302C647.247 271.461 647.082 271.579 646.893 271.637C646.703 271.695 646.501 271.692 646.314 271.626C645.057 271.447 643.146 271.89 643.22 269.759C643.21 269.336 644.234 268.893 645.026 268.271L645.078 268.239ZM592.686 261.474C593.016 260.874 593.563 260.424 594.215 260.216C594.868 260.008 595.575 260.058 596.191 260.356C597.479 260.915 599.115 261.844 598.862 263.427C598.693 264.408 597.057 264.746 595.99 264.07C594.826 263.277 593.706 262.421 592.633 261.506L592.686 261.474ZM457.563 256.029C458.257 256.228 458.941 256.464 459.611 256.736C459.157 258.678 457.035 257.855 455.969 258.847C455.114 259.659 454.375 259.533 454.375 258.435C454.301 256.441 455.789 256.04 457.489 256.061L457.563 256.029ZM444.335 250.077C445.824 247.966 447.502 247.703 449.001 248.135C450.5 248.568 452.833 247.787 452.876 250.573C450.057 251.565 447.428 252.093 444.261 250.109L444.335 250.077ZM724.083 245.698C723.366 247.502 722.225 246.383 721.413 245.93C720.56 245.314 719.778 244.606 719.08 243.819C720.104 243.486 721.17 243.297 722.247 243.26C722.529 243.294 722.801 243.387 723.044 243.533C723.288 243.68 723.498 243.876 723.661 244.109C723.823 244.342 723.934 244.607 723.987 244.886C724.04 245.165 724.033 245.453 723.967 245.729L724.083 245.698ZM308.821 240.759C308.072 241.571 307.765 242.268 307.301 242.342C305.77 242.605 304.134 242.511 303.332 240.97C303.036 240.463 303.332 239.619 303.416 238.922L308.821 240.759ZM502.006 242.563C500.991 242.986 499.927 243.277 498.839 243.429C498.047 243.429 495.915 243.914 497.118 241.909C497.53 241.202 499.229 241.107 500.359 241.065C500.676 241.075 501.172 241.962 501.911 242.595L502.006 242.563ZM439.627 239.746C437.315 241.74 435.404 240.801 433.483 240.558C432.227 240.379 432.079 239.503 433.198 239.144C434.239 238.796 435.341 238.672 436.433 238.781C437.525 238.891 438.581 239.23 439.532 239.777L439.627 239.746ZM651.877 240.104C650.621 240.104 649.438 240.031 649.037 238.669C649.592 238.268 650.245 238.023 650.927 237.962C651.982 238.046 653.861 238.342 653.967 238.849C654.231 240.569 652.563 239.851 651.782 240.136L651.877 240.104ZM371.643 215.21C370.774 216.129 369.816 216.96 368.782 217.69C368.531 217.834 368.249 217.917 367.959 217.933C367.67 217.949 367.381 217.897 367.115 217.781C366.849 217.665 366.615 217.488 366.429 217.265C366.244 217.042 366.114 216.779 366.048 216.497C365.457 214.872 366.724 214.471 367.885 214.471C369.127 214.617 370.353 214.875 371.548 215.241L371.643 215.21ZM200.849 203.971C202.147 203.527 203.192 203.907 203.034 204.794C202.969 205.62 202.589 206.39 201.972 206.944C201.355 207.498 200.548 207.794 199.719 207.77C198.969 207.599 198.255 207.299 197.608 206.883L200.849 203.971ZM331.528 199.359C332.637 199.897 334.948 198.62 334.473 201.332C334.378 201.892 333.323 202.799 332.932 202.694C331.833 202.486 330.831 201.931 330.071 201.111C328.667 199.211 330.842 199.897 331.528 199.412V199.359ZM827.685 202.145C827.685 204.372 825.785 204.15 824.349 204.319C823.23 204.456 821.562 203.939 822.027 202.831C822.783 201.511 824.001 200.518 825.447 200.045C826.608 199.665 827.411 200.868 827.696 202.198L827.685 202.145ZM592.158 194.177C590.659 195.233 589.794 195.971 588.823 196.51C587.482 197.269 585.138 199.612 585.423 195.824C585.634 193.354 588.421 192.837 592.169 194.23L592.158 194.177ZM476.037 190.927C478.591 190.294 480.872 189.872 482.993 191.275C480.671 193.671 478.222 192.605 476.058 190.98L476.037 190.927ZM596.381 188.816C595.832 189.207 595.051 190.051 594.766 189.872C593.71 189.344 592.401 188.658 592.116 187.761C591.662 186.273 593.299 186.853 593.964 186.811C594.259 186.775 594.559 186.799 594.845 186.883C595.131 186.967 595.396 187.109 595.625 187.3C595.854 187.491 596.041 187.727 596.174 187.993C596.308 188.26 596.386 188.551 596.402 188.848L596.381 188.816ZM158.074 180.659C157.113 180.015 156.1 179.698 156.036 179.245C155.772 177.429 157.092 176.67 158.591 176.237C159.721 175.899 161.114 176.427 160.766 177.545C160.418 178.664 159.003 179.698 158.095 180.69L158.074 180.659Z" fill="#9CB6F2"/>
<path fill-rule="evenodd" clip-rule="evenodd" d="M116.449 86.3139C112.734 84.9209 112.734 84.9209 108.216 78.9267C106.569 76.7422 98.0495 75.9085 96.276 77.8714C96.0446 78.0619 95.8564 78.2994 95.724 78.5682C95.5915 78.837 95.5177 79.131 95.5077 79.4305C95.4977 79.73 95.5517 80.0282 95.666 80.3052C95.7802 80.5823 95.9521 80.8319 96.1703 81.0373C97.9333 82.6836 99.8546 84.14 101.723 85.6913C100.298 88.509 97.9333 88.1395 95.6425 88.224C89.9737 88.4561 82.7636 86.5144 83.5553 96.3711C77.5592 96.962 78.0342 106.006 70.2751 105.563C63.9412 105.204 63.1074 108.518 66.1793 116C73.9489 108.465 80.3357 107.483 88.9921 112.95C85.3923 114.364 82.5419 111.895 79.5861 112.222C77.1792 112.475 75.6379 113.879 76.6302 116.158C78.2876 119.915 81.729 121.825 85.6561 122.237C87.9996 122.48 90.9344 124.59 92.539 120.232C94.5025 114.712 97.8172 112.011 103.898 116.179C105.291 117.129 108.437 115.514 110.77 115.124C112.079 107.958 112.079 107.958 122.847 109.362C117.663 109.024 116.608 117.108 110.443 114.776C109.524 119.556 111.351 126.384 102.557 125.329C106.262 130.426 103.613 133.539 99.802 136.684C96.0439 133.18 102.832 129.613 98.5667 126.775L83.9778 128.537C85.4873 134.383 88.2002 138.246 97.5427 135.47C92.7078 140.536 90.1533 143.438 87.3452 146.023C86.2896 147.079 82.6899 146.024 85.2973 149.401C86.4058 150.836 86.3528 153.221 89.3614 152.282C92.7923 151.226 97.0678 151.669 99.7914 149.759C105.861 145.538 115.51 144.419 115.309 133.93L108.87 130.363C112.28 125.582 115.204 123.039 120.482 128.041C122.878 130.268 127.228 129.244 124.99 124.58C122.266 118.934 127.365 115.747 127.893 111.209C128.114 109.372 130.986 109.584 132.031 110.217C136.433 112.887 130.606 111.673 130.901 112.855C131.957 116.939 135.947 115.377 138.46 116.601C140.972 117.825 141.236 116.601 140.571 113.805C139.611 109.985 143.569 109.457 146.082 108.898C148.985 108.243 148.869 106.576 148.584 104.497C148.362 102.787 147.613 101.415 145.733 101.194C144.129 101.004 142.208 101.542 140.962 100.835C136.887 98.4922 133.889 107.853 129.244 101.405C126.172 97.1204 120.799 101.405 116.724 99.8852C115.255 99.2234 113.843 98.4435 112.501 97.553C114.254 100.803 113.926 103.484 109.683 101.985C107.424 101.204 106.051 97.9223 104.246 95.7378C108.3 92.7935 110.179 96.5715 112.765 97.8484C114.75 92.5718 110.992 90.0391 106.569 87.3587C110.443 84.8153 113.283 83.0635 116.671 86.3033L116.449 86.3139Z" fill="#9CB6F2"/>
<path fill-rule="evenodd" clip-rule="evenodd" d="M130.5 62.2633C133.435 63.8779 139.8 61.5985 137.594 69.0384C137.077 70.7691 140.286 72.6792 141.986 72.2043C145.026 71.2862 148.731 66.6323 147.169 74.8849C146.324 79.3066 150.462 77.9557 151.898 77.1537C156.543 74.5471 161.916 72.9324 167.173 66.991C153.26 69.2811 142.988 59.5722 130.5 62.2633Z" fill="#9CB6F2"/>
<path fill-rule="evenodd" clip-rule="evenodd" d="M144.371 143.142C145.427 140.082 146.26 137.306 150.525 137.032C154.442 136.768 158.253 134.921 162.137 134.584C166.022 134.246 161.884 130.869 164.544 129.371C166.656 128.189 163.563 127.26 162.38 127.112C159.921 126.869 157.63 126.796 156.532 123.946C156.015 122.617 154.917 122.49 154.146 123.83C150.61 129.909 142.27 133.001 142.967 141.771C143.155 141.741 143.348 141.756 143.53 141.814C143.711 141.871 143.877 141.971 144.013 142.104C144.15 142.238 144.253 142.401 144.315 142.581C144.377 142.761 144.396 142.953 144.371 143.142Z" fill="#9CB6F2"/>
<path fill-rule="evenodd" clip-rule="evenodd" d="M297.958 150.709C287.296 142.087 285.871 141.855 277.024 148.144C274.596 149.875 274.522 149.094 272.992 147.195C271.208 145.01 271.356 148.419 270.479 149.115C269.36 149.991 269.498 151.226 270.965 151.68C272.618 152.301 274.381 152.575 276.145 152.484C277.909 152.393 279.635 151.94 281.215 151.152C288.214 147.923 288.362 148.261 297.958 150.709Z" fill="#9CB6F2"/>
<path fill-rule="evenodd" clip-rule="evenodd" d="M657.746 19.5232C658.136 15.0487 661.377 10.5637 657.63 6.12083C657.725 5.45584 657.725 4.78071 657.63 4.11572C656.764 -0.749254 652.626 -1.16076 651.422 2.06848C650.367 4.74896 647.886 6.97567 648.034 10.3843C648.224 14.7955 652.594 12.6427 654.061 14.8694C655.149 16.5157 656.511 17.9824 657.746 19.5232Z" fill="#9CB6F2"/>
<path fill-rule="evenodd" clip-rule="evenodd" d="M569.06 124.748C568.722 127.914 565.967 129.93 563.413 134.246C570.908 132.8 576.344 136.357 584.315 133.645C579.501 132.589 581.464 125.033 574.486 128.368C572.576 129.297 571.562 124.759 568.744 124.981L569.06 124.748Z" fill="#9CB6F2"/>
<path fill-rule="evenodd" clip-rule="evenodd" d="M585.244 166.053L583.787 160.914C583.787 157.347 578.34 160.291 578.509 156.524L579.131 156.819C574.381 158.687 575.204 164.206 572.143 168.005C574.951 167.499 577.812 161.199 580.324 168.005C581.084 170.127 586.078 173.134 585.244 166.053Z" fill="#9CB6F2"/>
<path fill-rule="evenodd" clip-rule="evenodd" d="M453.487 145.316C452.723 145.538 451.929 145.645 451.133 145.633C442.255 144.134 442.255 144.124 441.632 134.615C437.199 134.394 434.971 140.884 429.809 138.182C437.03 143.892 444.947 145.791 453.53 145.401L453.487 145.316Z" fill="#9CB6F2"/>
<path fill-rule="evenodd" clip-rule="evenodd" d="M448.315 47.6578C450.479 52.3434 453.678 51.7314 456.232 51.267C460.349 50.5072 463.4 50.1272 463.622 55.7943C463.706 57.7572 466.018 57.3457 467.486 56.6703C467.867 56.5531 468.22 56.3579 468.522 56.0973C468.824 55.8366 469.069 55.516 469.24 55.1558C469.412 54.7957 469.507 54.4039 469.52 54.0052C469.532 53.6064 469.461 53.2095 469.312 52.8395C468.256 49.2725 465.153 46.8663 462.345 47.6261C457.89 48.8397 453.709 47.0352 448.315 47.6578Z" fill="#9CB6F2"/>
<path fill-rule="evenodd" clip-rule="evenodd" d="M500.918 73.5129C502.218 74.4174 503.596 75.2049 505.035 75.8662C508.044 76.9215 511.971 78.3145 513.86 75.4335C515.887 72.3625 513.681 68.9855 510.419 65.7246C511.886 75.1275 503.156 69.5659 500.971 73.4706V73.0696L500.918 73.5129Z" fill="#9CB6F2"/>
<path fill-rule="evenodd" clip-rule="evenodd" d="M717.327 45.7582C718.868 41.1676 725.561 36.5981 717.411 32.0392C718.14 39.954 718.14 39.9541 709.389 41.442C710.075 46.4126 713.147 46.8663 717.137 45.6633L717.327 45.7582Z" fill="#9CB6F2"/>
<path fill-rule="evenodd" clip-rule="evenodd" d="M291.498 83.9289C293.852 87.6542 297.747 88.0552 301.547 88.3823C303.733 88.5723 305.612 87.5381 305.327 85.0265C305.094 82.9159 306.171 79.9081 302.498 79.5177C301.358 79.4016 299.953 79.0006 299.436 80.4358C298.982 81.6705 302.117 82.7153 300.154 83.8972C298.602 84.847 297.599 82.9474 296.428 81.8921C293.166 78.9267 292.881 82.4832 291.814 84.235L291.498 83.9289Z" fill="#9CB6F2"/>
<path fill-rule="evenodd" clip-rule="evenodd" d="M177.012 162.233C179.176 163.14 182.797 163.562 183.261 165.008C186.745 175.783 190.904 167.583 195.137 165.557C189.627 160.945 183.768 159.943 177.191 162.56C177.107 162.497 177.012 162.233 177.012 162.233Z" fill="#9CB6F2"/>
<path fill-rule="evenodd" clip-rule="evenodd" d="M407.63 143.543C400.673 144.525 393.695 145.485 386.749 146.551C386.063 146.657 385.493 147.459 384.543 148.187C386.38 152.767 390.18 151.923 393.79 151.564V151.49C397.623 147.617 404.347 148.503 407.334 143.237L407.63 143.543Z" fill="#9CB6F2"/>
<path fill-rule="evenodd" clip-rule="evenodd" d="M501.002 73.1119V73.5129C500.886 72.7109 500.802 71.9194 500.654 71.1385C500.105 68.2469 501.562 64.5849 497.286 63.1603C492.198 61.4401 494.795 68.2047 491.396 68.4368C490.931 68.4368 490.52 69.4922 489.907 70.2521L501.277 73.3229L501.002 73.1119Z" fill="#9CB6F2"/>
<path fill-rule="evenodd" clip-rule="evenodd" d="M568.744 124.98C569.966 124.035 571.242 123.161 572.565 122.363C573.526 121.846 575.088 122.015 574.497 120.253C574.085 119.05 572.914 117.889 571.868 118.448C567.941 120.559 563.212 121.223 559.412 124.706C563.054 126.363 566.062 124.6 569.06 124.706L568.744 124.98Z" fill="#9CB6F2"/>
<path fill-rule="evenodd" clip-rule="evenodd" d="M179.124 80.0032C176.833 75.2859 172.283 75.5604 170.795 72.1201C170.193 78.9585 170.193 78.9584 179.124 80.0032Z" fill="#9CB6F2"/>
<path fill-rule="evenodd" clip-rule="evenodd" d="M317.192 596.62L310.531 591.966C305.01 597.243 310.964 599.976 312.495 603.933C315.947 602.066 316.802 599.48 317.192 596.62Z" fill="#9CB6F2"/>
<path fill-rule="evenodd" clip-rule="evenodd" d="M657.777 30.4562C659.889 26.6993 660.754 22.9424 657.777 19.1854L647.728 21.9609C654.589 22.6997 650.251 31.6065 657.777 30.4562Z" fill="#9CB6F2"/>
<path fill-rule="evenodd" clip-rule="evenodd" d="M140.181 158.117C139.298 153.21 139.966 148.149 142.091 143.638L132.01 143.005C132.168 144.208 132.316 145.411 132.474 146.625L132.115 146.298C134.205 150.646 135.842 155.31 140.181 158.117Z" fill="#9CB6F2"/>
<path fill-rule="evenodd" clip-rule="evenodd" d="M114.887 134.32C116.185 135.249 117.737 135.966 118.698 137.159C119.88 138.604 116.027 142.171 120.408 142.351C123.986 142.499 125.053 139.808 124.894 136.547C124.904 135.748 124.971 134.951 125.095 134.162C121.685 133.75 118.201 128.621 114.887 134.32Z" fill="#9CB6F2"/>
<path fill-rule="evenodd" clip-rule="evenodd" d="M393.791 151.564C398.119 150.899 401.18 153.221 404.516 155.542C404.994 155.913 405.548 156.174 406.138 156.308C406.728 156.441 407.34 156.445 407.932 156.317C408.523 156.189 409.08 155.934 409.562 155.568C410.044 155.203 410.44 154.737 410.723 154.202C410.906 153.684 410.975 153.133 410.924 152.587C410.873 152.04 410.704 151.511 410.428 151.036C409.161 149.137 407.261 148.926 405.308 150.181C401.697 152.524 397.718 151.975 393.77 151.543L393.791 151.564Z" fill="#9CB6F2"/>
<path fill-rule="evenodd" clip-rule="evenodd" d="M408.675 130.531C404.526 129.962 400.547 128.611 396.947 131.091C396.134 131.639 394.107 131.27 395.047 133.064C395.399 133.506 395.843 133.866 396.348 134.121C396.852 134.376 397.406 134.52 397.971 134.542C402.035 134.7 404.093 129.149 408.675 130.531Z" fill="#9CB6F2"/>
<path fill-rule="evenodd" clip-rule="evenodd" d="M164.429 90.683C163.004 88.5196 161.663 89.0473 161.03 89.881C158.591 93.0469 153.64 87.5698 151.993 92.6036C152.02 92.9733 152.141 93.3301 152.344 93.6402C152.547 93.9504 152.826 94.2038 153.154 94.3766C157.672 95.2736 161.579 94.3766 164.429 90.683Z" fill="#9CB6F2"/>
<path fill-rule="evenodd" clip-rule="evenodd" d="M478.454 58.3374C477.515 58.7095 476.595 59.1286 475.698 59.5932C476.437 62.6958 470.895 62.5903 472.437 65.8512C472.77 66.3049 473.213 66.6666 473.725 66.9028C474.236 67.139 474.799 67.242 475.361 67.202C479.678 65.904 478.38 62.5059 478.454 58.3374Z" fill="#9CB6F2"/>
<path fill-rule="evenodd" clip-rule="evenodd" d="M124.704 134.32C128.716 135.164 127.28 139.945 130.035 141.707C130.088 140.947 129.835 139.892 130.246 139.491C132.199 137.507 134.775 135.512 132.094 132.674C129.117 129.55 126.752 131.882 124.704 134.32Z" fill="#9CB6F2"/>
<path fill-rule="evenodd" clip-rule="evenodd" d="M489.823 96.1389C487.501 94.6404 485.896 96.3606 484.482 97.532C483.352 98.4606 479.742 96.8038 481.167 100.466C481.435 101.214 481.898 101.877 482.507 102.386C484.619 103.927 486.392 102.977 487.29 100.983C488.05 99.3049 490.256 98.3445 489.823 96.1389Z" fill="#9CB6F2"/>
<path fill-rule="evenodd" clip-rule="evenodd" d="M501.002 73.1119L501.245 73.2808C496.115 77.2171 501.055 82.958 498.775 87.4009C501.011 83.1565 501.755 78.2837 500.886 73.5658L501.002 73.1119Z" fill="#9CB6F2"/>
<path fill-rule="evenodd" clip-rule="evenodd" d="M306.287 166.507C302.37 161.885 297.156 161.347 289.396 160.777C295.73 166.433 300.935 167.045 306.604 166.37L306.287 166.507Z" fill="#9CB6F2"/>
<path fill-rule="evenodd" clip-rule="evenodd" d="M218.436 79.2433C214.456 77.7131 211.775 75.3808 209.305 78.4096C208.534 79.3594 208.354 82.2298 208.935 82.6309C212.64 85.0053 215.132 82.6098 218.436 79.2433Z" fill="#9CB6F2"/>
<path fill-rule="evenodd" clip-rule="evenodd" d="M734.154 62.9388C732.454 68.532 736.149 69.5767 742.008 71.624C739.496 66.6746 740.213 61.7041 733.869 63.2449L734.154 62.9388Z" fill="#9CB6F2"/>
<path fill-rule="evenodd" clip-rule="evenodd" d="M233.563 104.36C231.895 101.595 229.161 101.194 226.321 101.046C224.78 100.983 222.785 100.782 224.115 103.399C224.685 104.518 223.799 107.483 225.952 106.481C228.454 105.309 231.716 107.357 233.563 104.36Z" fill="#9CB6F2"/>
<path fill-rule="evenodd" clip-rule="evenodd" d="M316.95 118.701C316.168 118.976 314.279 119.978 316.063 120.305C321.457 121.276 315.113 126.426 318.681 126.986C320.887 127.334 321.563 124.706 321.679 122.669C321.879 119.429 319.726 118.722 316.95 118.701Z" fill="#9CB6F2"/>
<path fill-rule="evenodd" clip-rule="evenodd" d="M377.723 61.7145C372.888 60.7225 367.674 57.4933 364.137 64.0362C369.014 65.1654 373.036 61.3452 377.776 61.5246L377.723 61.7145Z" fill="#9CB6F2"/>
<path fill-rule="evenodd" clip-rule="evenodd" d="M247.044 173.367L237.047 175.562C241.776 178.97 243.518 175.287 247.044 173.367Z" fill="#9CB6F2"/>
<path fill-rule="evenodd" clip-rule="evenodd" d="M184.76 133.127C183.583 132.727 182.359 132.482 181.118 132.399C179.397 132.526 177.022 132.062 177.191 135.069C177.176 135.457 177.26 135.842 177.434 136.188C179.134 138.615 180.823 136.526 182.353 135.956C183.24 135.618 183.768 134.32 184.76 133.127Z" fill="#9CB6F2"/>
<path fill-rule="evenodd" clip-rule="evenodd" d="M324.803 135.671C327.886 142.003 332.14 141.085 336.848 140.103C333.554 136.547 329.406 137.18 324.803 135.671Z" fill="#9CB6F2"/>
<path fill-rule="evenodd" clip-rule="evenodd" d="M214.012 135.375C210.17 133.465 206.327 131.154 199.582 133.739L214.012 135.375Z" fill="#9CB6F2"/>
<path fill-rule="evenodd" clip-rule="evenodd" d="M468.626 135.681C469.396 133.444 475.023 134.805 472.627 130.162C470.621 126.278 467.771 129.539 466.863 130.257C463.59 132.832 467.918 133.845 468.647 135.692L468.626 135.681Z" fill="#9CB6F2"/>
<path fill-rule="evenodd" clip-rule="evenodd" d="M409.699 64.6695C411.81 62.295 415.178 64.0785 417.426 62.2633C418.482 59.7094 413.879 60.807 414.829 57.9788C415.885 54.8128 413.9 54.3484 412.106 56.2586C409.994 58.5275 408.295 61.419 409.762 64.9016L409.699 64.6695Z" fill="#9CB6F2"/>
<path fill-rule="evenodd" clip-rule="evenodd" d="M734.154 62.9388L733.869 63.2449C733.478 59.0236 730.702 56.2587 727.83 53.6099C726.532 59.0658 730.871 60.6488 734.154 62.9388Z" fill="#9CB6F2"/>
<path fill-rule="evenodd" clip-rule="evenodd" d="M717.327 45.7583L717.137 45.6317C719.248 54.6757 720.029 55.2456 727.852 53.6416C723.46 54.4014 722.732 50.8343 722.352 48.1327C721.729 44.1015 719.396 45.6739 717.327 45.7583Z" fill="#9CB6F2"/>
<path fill-rule="evenodd" clip-rule="evenodd" d="M538.193 161.262C538.446 161.04 538.816 160.861 538.943 160.566C539.703 158.803 540.42 157.03 541.138 155.289C540.505 155.057 539.671 154.466 539.27 154.677C537.391 155.732 536.229 157.104 537.454 159.394C537.735 160.003 537.982 160.626 538.193 161.262Z" fill="#9CB6F2"/>
<path fill-rule="evenodd" clip-rule="evenodd" d="M417.099 97.2468C420.192 99.7796 423.18 101.605 427.994 101.468C425.091 95.02 420.678 96.8035 417.099 97.2468Z" fill="#9CB6F2"/>
<path fill-rule="evenodd" clip-rule="evenodd" d="M178.701 177.197C184.106 177.567 189.965 180.975 195.518 173.926C188.92 173.926 184.233 178.284 178.722 177.208L178.701 177.197Z" fill="#9CB6F2"/>
<path fill-rule="evenodd" clip-rule="evenodd" d="M543.988 173.525C544.199 175.351 543.746 177.641 546.585 177.746C546.923 177.746 547.768 176.342 547.641 176.121C546.818 174.928 547.25 171.731 544.21 173.673L543.988 173.525Z" fill="#9CB6F2"/>
<path fill-rule="evenodd" clip-rule="evenodd" d="M230.85 172.881C230.206 172.466 229.524 172.113 228.813 171.826C226.153 171.013 223.376 170.042 221.423 173.092C221.191 173.472 221.782 174.802 222.352 175.203C225.92 177.524 229.013 177.588 230.85 172.881Z" fill="#9CB6F2"/>
<path fill-rule="evenodd" clip-rule="evenodd" d="M495.978 141.771C501.256 140.04 499.619 135.28 501.773 132.906C498.215 134.404 496.875 137.285 495.978 141.771Z" fill="#9CB6F2"/>
<path fill-rule="evenodd" clip-rule="evenodd" d="M543.989 173.525L544.189 173.694C545.836 173.314 546.987 172.427 546.649 170.528C546.206 168.217 544.464 168.892 543.113 169.346C541.128 170.011 539.682 171.319 540.822 173.567C541.022 174.021 542.891 173.578 543.989 173.525Z" fill="#9CB6F2"/>
<path fill-rule="evenodd" clip-rule="evenodd" d="M431.889 107.336C432.256 108.022 432.665 108.684 433.114 109.32C434.074 110.523 431.625 113.921 435.225 113.129C436.397 112.866 433.514 108.507 437.653 108.644C436.692 106.766 435.088 108.644 433.863 108.011C433.118 107.767 432.344 107.622 431.562 107.578L431.889 107.336Z" fill="#9CB6F2"/>
<path fill-rule="evenodd" clip-rule="evenodd" d="M377.776 61.5034C378.108 60.1185 378.306 58.7049 378.367 57.2822C378.294 55.6253 376.478 55.4882 376.256 56.5013C376.034 57.5144 377.312 59.129 377.776 60.4904C377.843 60.8921 377.843 61.3021 377.776 61.7039V61.5034Z" fill="#9CB6F2"/>
<path fill-rule="evenodd" clip-rule="evenodd" d="M407.313 143.237C411.103 142.066 415.315 142.288 418.925 139.681C413.14 135.671 410.543 140.008 407.64 143.543L407.313 143.237Z" fill="#9CB6F2"/>
<path fill-rule="evenodd" clip-rule="evenodd" d="M404.653 68.3313C400.04 68.553 396.883 67.1073 393.854 71.0012C397.538 70.3786 400.441 71.8138 404.653 68.3313Z" fill="#9CB6F2"/>
<path fill-rule="evenodd" clip-rule="evenodd" d="M530.846 81.333C530.49 80.8246 530.091 80.3478 529.653 79.9083C528.359 80.6314 527.13 81.4648 525.98 82.3989C525.167 83.0637 525.409 84.1929 526.243 84.0873C528.07 83.8341 530.044 83.4647 530.846 81.333Z" fill="#9CB6F2"/>
<path fill-rule="evenodd" clip-rule="evenodd" d="M586.278 154.455C584.336 153.4 582.657 151.479 580.082 152.102C578.815 152.397 576.598 151.194 576.524 153.368C576.524 154.497 578.202 155.669 579.131 156.819L578.509 156.524C581.327 156.671 584.494 157.874 586.025 154.065L586.278 154.455Z" fill="#9CB6F2"/>
<path fill-rule="evenodd" clip-rule="evenodd" d="M224.991 152.63C220.505 151.574 217.834 151.205 215.364 153.157C218.837 154.825 218.837 154.825 224.991 152.63Z" fill="#9CB6F2"/>
<path fill-rule="evenodd" clip-rule="evenodd" d="M712.809 29.0739C713.516 26.7944 712.207 26.4144 711.151 26.0978C710.411 25.8043 709.592 25.7799 708.835 26.0287C708.079 26.2775 707.434 26.7837 707.013 27.4592C706.866 27.7149 706.776 27.9995 706.75 28.2935C706.725 28.5874 706.763 28.8834 706.864 29.1608C706.964 29.4382 707.125 29.6903 707.333 29.8995C707.541 30.1087 707.792 30.2699 708.069 30.3719C709.959 30.8468 711.89 30.4669 712.809 29.0739Z" fill="#9CB6F2"/>
<path fill-rule="evenodd" clip-rule="evenodd" d="M459.452 60.8705C458.502 60.4589 457.499 59.9839 456.465 59.5934C456.101 59.4282 455.695 59.3804 455.304 59.4564C454.132 59.773 454.248 60.0156 455.715 60.0262C457.32 60.0262 457.225 62.8228 459.199 62.1368C459.357 62.084 459.336 61.5037 459.452 60.8705Z" fill="#9CB6F2"/>
<path fill-rule="evenodd" clip-rule="evenodd" d="M468.225 68.4792C467.296 70.1044 466.219 71.2546 466.008 72.5527C465.981 72.8285 466.033 73.1061 466.158 73.3538C466.282 73.6015 466.473 73.8093 466.71 73.9534C466.947 74.0976 467.219 74.1723 467.496 74.1691C467.773 74.1658 468.044 74.0848 468.277 73.9352C469.185 73.4919 470.325 72.4156 470.388 71.5819C470.452 70.7482 469.217 69.83 468.225 68.4792Z" fill="#9CB6F2"/>
<path fill-rule="evenodd" clip-rule="evenodd" d="M214.276 68.7534C212.704 68.8483 211.109 68.6479 211.352 70.1253C211.458 70.8113 213.179 71.5184 214.245 71.6978C215.311 71.8772 216.757 71.1595 216.673 69.9564C216.631 69.4393 214.857 69.0277 214.276 68.7534Z" fill="#9CB6F2"/>
<path fill-rule="evenodd" clip-rule="evenodd" d="M414.671 78.7472C411.842 77.3436 408.939 76.4677 408.337 77.6919C407.186 79.8025 409.646 79.5386 411.018 79.5175C412.251 79.3401 413.471 79.0828 414.671 78.7472Z" fill="#9CB6F2"/>
<path fill-rule="evenodd" clip-rule="evenodd" d="M291.814 84.235L284.741 84.8259C287.581 88.1924 289.513 85.9974 291.487 83.929L291.814 84.235Z" fill="#9CB6F2"/>
<path fill-rule="evenodd" clip-rule="evenodd" d="M246.78 94.6615C244.151 92.9097 241.501 94.8303 238.641 94.2816C239.872 94.9784 241.251 95.3758 242.665 95.4418C244.079 95.5078 245.488 95.2405 246.78 94.6615Z" fill="#9CB6F2"/>
<path fill-rule="evenodd" clip-rule="evenodd" d="M431.53 107.578C432.058 106.977 432.86 106.449 433.082 105.742C433.494 104.391 436.713 105.003 435.267 102.766C434.929 102.249 432.807 102.344 431.899 102.861C429.566 104.18 429.514 105.837 431.899 107.315L431.53 107.578Z" fill="#9CB6F2"/>
<path fill-rule="evenodd" clip-rule="evenodd" d="M262.974 170.517C265.898 171.731 269.175 171.784 272.137 170.665C268.505 169.008 265.813 169.599 262.974 170.517Z" fill="#9CB6F2"/>
<path fill-rule="evenodd" clip-rule="evenodd" d="M210.677 168.259C212.503 168.122 213.485 166.908 214.277 165.452C213.622 165.04 212.911 164.727 212.165 164.523C210.392 164.28 208.798 164.65 208.935 166.887C209.009 167.372 210.075 167.794 210.677 168.259Z" fill="#9CB6F2"/>
<path fill-rule="evenodd" clip-rule="evenodd" d="M480.702 142.309C480.677 142.03 480.588 141.76 480.444 141.52C480.3 141.279 480.103 141.074 479.869 140.92C479.635 140.766 479.369 140.667 479.091 140.63C478.813 140.592 478.531 140.618 478.264 140.705C477.522 140.873 476.857 141.285 476.376 141.873C475.894 142.462 475.622 143.195 475.604 143.955C475.54 145.432 476.881 145.781 477.894 145.422C478.621 145.245 479.277 144.853 479.778 144.298C480.279 143.742 480.601 143.049 480.702 142.309Z" fill="#9CB6F2"/>
<path fill-rule="evenodd" clip-rule="evenodd" d="M346.455 151.806V151.448C349.326 155.574 352.303 152.777 358.014 151.448C352.335 151.131 349.348 149.981 346.455 151.806Z" fill="#9CB6F2"/>
<path fill-rule="evenodd" clip-rule="evenodd" d="M284.688 574.311L286.272 573.161C284.741 571.419 283.411 569.277 280.592 569.794C279.537 569.984 279.305 570.754 279.737 571.63C280.782 573.667 282.577 574.226 284.688 574.311Z" fill="#9CB6F2"/>
<path fill-rule="evenodd" clip-rule="evenodd" d="M235.833 165.536C235.833 163.9 236.466 165.599 234.872 165.357C234.218 165.262 232.898 165.694 232.898 165.895C232.898 167.52 232.117 165.642 233.722 165.895C234.44 165.889 235.153 165.768 235.833 165.536Z" fill="#9CB6F2"/>
<path fill-rule="evenodd" clip-rule="evenodd" d="M510.598 152.608C510.472 151.437 510.598 149.865 509.205 149.643C507.653 149.39 507.241 150.635 507.685 152.007C508.054 153.062 508.392 154.993 508.994 155.099C510.598 155.373 510.482 153.759 510.598 152.608Z" fill="#9CB6F2"/>
<path fill-rule="evenodd" clip-rule="evenodd" d="M561.27 152.26C561.386 151.068 561.27 149.918 559.792 149.802C559.18 149.749 558.515 150.234 557.871 150.466C558.429 151.458 559.095 152.385 559.855 153.231C560.52 153.812 561.164 153.316 561.27 152.26Z" fill="#9CB6F2"/>
<path fill-rule="evenodd" clip-rule="evenodd" d="M468.647 135.692C465.343 134.489 461.975 132.779 458.09 137.57C462.397 137.032 465.332 134.605 468.647 135.681V135.692Z" fill="#9CB6F2"/>
<path fill-rule="evenodd" clip-rule="evenodd" d="M549.457 135.892C549.717 135.979 549.993 136.003 550.264 135.962C550.535 135.922 550.792 135.817 551.015 135.657C551.238 135.498 551.419 135.287 551.545 135.044C551.67 134.8 551.736 134.531 551.737 134.257C551.811 133.984 551.816 133.697 551.75 133.422C551.685 133.147 551.552 132.893 551.363 132.683C551.174 132.473 550.935 132.314 550.668 132.22C550.402 132.126 550.116 132.101 549.837 132.146C549.488 132.179 549.152 132.291 548.854 132.474C548.556 132.657 548.303 132.906 548.116 133.201C548.014 133.465 547.968 133.747 547.982 134.03C547.995 134.312 548.067 134.589 548.193 134.842C548.319 135.095 548.497 135.32 548.714 135.5C548.932 135.681 549.185 135.815 549.457 135.892Z" fill="#9CB6F2"/>
<path fill-rule="evenodd" clip-rule="evenodd" d="M266.827 115.535L267.756 115.24C267.068 114.932 266.363 114.664 265.645 114.438C265.36 114.364 264.98 114.628 264.652 114.733L266.827 115.535Z" fill="#9CB6F2"/>
<path fill-rule="evenodd" clip-rule="evenodd" d="M158.918 108.275C159.066 106.871 158.348 105.922 157.039 106.09C156.51 106.145 155.997 106.308 155.534 106.569C155.071 106.831 154.667 107.185 154.347 107.61C153.544 109.214 155.107 109.457 156.184 109.626C156.726 109.775 157.304 109.72 157.808 109.471C158.313 109.222 158.707 108.796 158.918 108.275Z" fill="#9CB6F2"/>
<path fill-rule="evenodd" clip-rule="evenodd" d="M267.798 108.676C266.104 108.544 264.403 108.544 262.71 108.676C261.58 108.866 261.538 109.731 262.647 110.079C263.722 110.31 264.828 110.357 265.919 110.217C266.341 110.217 266.742 109.636 267.798 108.676Z" fill="#9CB6F2"/>
<path fill-rule="evenodd" clip-rule="evenodd" d="M420.118 104.771L417.933 105.827C418.844 106.259 419.805 106.578 420.794 106.776C421.396 106.829 422.061 106.207 422.694 105.879L420.118 104.771Z" fill="#9CB6F2"/>
<path fill-rule="evenodd" clip-rule="evenodd" d="M184.971 96.2549C184.349 95.4951 183.916 94.5241 183.399 94.4397C181.71 94.1758 182.005 95.6216 182.121 96.5503C182.216 97.3101 181.066 99.083 183.092 98.6609C183.863 98.4393 184.401 97.0464 184.971 96.2549Z" fill="#9CB6F2"/>
<path fill-rule="evenodd" clip-rule="evenodd" d="M193.184 96.9514C193.849 95.9594 194.873 95.0942 194.979 94.1338C195.03 93.846 194.996 93.5495 194.882 93.2804C194.768 93.0113 194.578 92.7812 194.335 92.618C194.092 92.4548 193.808 92.3656 193.515 92.3611C193.223 92.3567 192.936 92.4372 192.688 92.593C191.949 93.0468 191.749 94.5559 191.633 95.6429C191.538 95.9489 192.488 96.4027 193.184 96.9514Z" fill="#9CB6F2"/>
<path fill-rule="evenodd" clip-rule="evenodd" d="M511.538 100.276C511.796 100.326 512.061 100.32 512.317 100.26C512.572 100.2 512.812 100.087 513.021 99.9271C513.229 99.7676 513.402 99.5656 513.526 99.3346C513.651 99.1037 513.725 98.849 513.744 98.5872C513.924 97.342 513.238 96.3711 511.876 96.5716C511.518 96.6654 511.183 96.8293 510.889 97.054C510.596 97.2787 510.35 97.5595 510.166 97.8801C509.48 99.1359 510.303 99.843 511.538 100.276Z" fill="#9CB6F2"/>
<path fill-rule="evenodd" clip-rule="evenodd" d="M319.525 93.0994C318.87 93.2472 317.762 93.2262 317.635 93.585C317.521 93.8375 317.47 94.1144 317.488 94.3911C317.506 94.6679 317.592 94.9359 317.738 95.1717C317.884 95.4074 318.086 95.6036 318.325 95.7429C318.565 95.8821 318.836 95.9601 319.113 95.97C319.757 96.0755 320.908 95.7589 321.119 95.3051C321.795 93.9227 320.581 93.5216 319.525 93.0994Z" fill="#9CB6F2"/>
<path fill-rule="evenodd" clip-rule="evenodd" d="M116.703 86.2084C117.416 86.461 118.088 86.8165 118.698 87.2638C120.091 88.6462 121.4 90.2081 123.617 89.3744C123.955 89.2477 124.208 87.8653 123.944 87.2638C122.889 84.9315 120.714 85.8496 118.877 85.9341C118.096 85.9341 117.315 86.0712 116.491 86.1662L116.703 86.2084Z" fill="#9CB6F2"/>
<path fill-rule="evenodd" clip-rule="evenodd" d="M409.762 64.9543C407.651 62.506 405.54 59.9838 401.845 62.9281C403.956 66.094 407.123 63.6774 409.646 64.6483C409.696 64.7457 409.735 64.8484 409.762 64.9543Z" fill="#9CB6F2"/>
<path fill-rule="evenodd" clip-rule="evenodd" d="M565.629 189.534C564.921 189.705 564.194 189.79 563.465 189.787C562.04 189.629 560.583 188.437 559.243 189.787C559 190.03 559.454 190.948 559.58 191.56C560.868 190.98 562.125 190.325 563.455 189.851C564.181 189.679 564.925 189.594 565.672 189.597L565.629 189.534Z" fill="#9CB6F2"/>
<path fill-rule="evenodd" clip-rule="evenodd" d="M398.234 178.643L395.859 178.917C395.833 178.867 395.812 178.814 395.796 178.759L398.15 178.4C398.15 178.4 398.213 178.569 398.234 178.643Z" fill="#9CB6F2"/>
<path fill-rule="evenodd" clip-rule="evenodd" d="M204.459 173.367C204.376 172.741 204.078 172.164 203.616 171.734C203.153 171.304 202.556 171.05 201.925 171.013C201.635 170.972 201.338 170.997 201.059 171.087C200.779 171.177 200.524 171.329 200.312 171.533C200.1 171.736 199.938 171.985 199.837 172.261C199.736 172.537 199.699 172.832 199.73 173.124C199.782 174.348 200.468 175.646 201.841 175.298C202.854 175.076 203.656 173.979 204.459 173.367Z" fill="#9CB6F2"/>
<path fill-rule="evenodd" clip-rule="evenodd" d="M565.693 175.889C566.748 175.118 568.575 174.496 569.177 173.271C569.937 171.741 568.121 171.572 567.223 171.963C565.843 172.732 564.539 173.629 563.328 174.643L565.693 175.889Z" fill="#9CB6F2"/>
<path fill-rule="evenodd" clip-rule="evenodd" d="M83.0588 172.86C84.2728 176.153 82.5838 178.136 79.7441 179.635C84.9168 181.82 89.9206 183.856 95.5789 183.012C92.8237 177.82 89.6461 173.219 83.0588 172.86Z" fill="#9CB6F2"/>
<path fill-rule="evenodd" clip-rule="evenodd" d="M568.522 214.65L580.398 214.028C575.056 208.772 571.763 210.978 568.522 214.65Z" fill="#9CB6F2"/>
<path fill-rule="evenodd" clip-rule="evenodd" d="M575.721 220.106C579.944 224.792 583.333 221.805 589.033 218.059C582.921 219.114 579.195 219.747 575.468 220.402C575.458 220.402 575.721 220.106 575.721 220.106Z" fill="#9CB6F2"/>
</g>
<defs>
<clipPath id="clip0_555_5765">
<rect width="735" height="655" fill="white" transform="matrix(1 0 0 -1 0 655)"/>
</clipPath>
</defs>
</svg>
