<svg width="1149" height="749" viewBox="0 0 1149 749" fill="none" xmlns="http://www.w3.org/2000/svg">
<g opacity="0.6" clip-path="url(#clip0_551_7918)">
<path fill-rule="evenodd" clip-rule="evenodd" d="M990.275 527.664C977.545 526.659 968.985 521.528 969.345 508.107C969.453 503.442 970.19 496.678 965.137 496.014C940.665 492.784 955.355 469.944 946.059 459.178C943.65 456.379 946.652 451.786 950.231 450.207C959.401 446.134 956.632 437.899 957.567 430.955C960.606 408.133 960.444 407.63 937.788 412.69C925.578 415.453 909.557 408.635 902.184 425.949C901.069 428.569 895.208 426.954 892.169 424.388C881.218 415.148 866.473 414.431 854.066 406.787C839.914 398.067 819.901 405.962 802.639 407.272C781.619 408.85 760.778 414.018 740.171 418.898C729.322 421.485 719.429 427.084 711.635 435.046C705.107 441.631 698.418 448.951 690.291 452.827C663.912 465.387 660.388 490.506 654.49 514.494C652.691 521.671 652.152 530.122 657.978 535.415C670.043 546.378 676.355 561.019 685.076 574.081C695.631 589.924 712.372 598.303 728.933 601.945C773.131 611.67 817.869 618.219 863.218 606.072C882.71 600.851 902.976 598.626 922.737 594.284C940.719 590.3 939.172 570.223 954.456 567.693C951.849 542.287 977.509 541.946 990.275 527.664Z" fill="#BFAFE9"/>
<path fill-rule="evenodd" clip-rule="evenodd" d="M1212.97 254.888C1184.65 254.188 1159.41 262.513 1134.68 275.432C1125.93 280.025 1119.69 284.744 1114.35 292.764C1103.56 308.912 1092.23 325.168 1076.01 335.969C1069.03 340.616 1071.14 343.146 1072.41 348.529C1076.95 368.767 1085.54 388.001 1087.34 408.868C1088.74 424.837 1102.25 431.153 1113.2 435.208C1139.81 445.022 1165.34 457.277 1194.24 462.247C1241.51 470.339 1282.58 455.07 1324.91 439.568C1335.37 435.746 1330.75 418.665 1345.84 421.284C1356.79 423.204 1362.65 416.745 1364.67 405.782C1365.31 402.194 1370.6 402.319 1374.23 401.422C1386.15 398.426 1392.7 389.688 1396.93 378.833C1398.12 376.307 1398.92 373.615 1399.3 370.849C1399.91 360.747 1417.68 359.491 1412.82 348.887C1408.24 338.894 1395.85 346.824 1387.65 343.648C1383.08 341.854 1374.48 341.513 1377.24 333.852C1383.03 317.829 1369.34 308.194 1364.65 296.532C1358.71 282.017 1343.07 273.207 1325.5 274.481C1313.8 275.342 1303.4 267.95 1293.77 267.968C1265.66 268.022 1240.76 251.712 1212.97 254.888ZM1127.74 375.101C1113.25 365.932 1114.24 356.423 1126.63 346.645C1127.2 356.154 1139.63 365.394 1127.74 375.119V375.101Z" fill="#BFAFE9"/>
<path fill-rule="evenodd" clip-rule="evenodd" d="M1216.5 123.192C1210.53 115.853 1203.43 121.487 1197.73 119.173C1193.74 117.576 1191.34 112.121 1194.13 110.668C1210.8 102.056 1198.95 95.6502 1193.32 88.3657C1191.74 86.3202 1191.36 83.3598 1190.57 81.1888C1194.17 70.9617 1205.89 82.7318 1209.22 72.8994C1203.5 66.3146 1195.08 76.8647 1189.19 70.6387C1184.89 66.1172 1186.43 57.0206 1178.4 55.5493C1156.68 51.584 1135.76 40.2445 1113.12 45.2863C1101.45 47.8879 1092.19 47.7443 1081.48 41.8055C1071.07 36.046 1057.72 32.7266 1046.65 36.961C1029.98 43.3305 1014.51 41.7337 997.683 39.2218C981.5 36.7816 963.968 37.4276 949.727 47.3317C940.988 53.45 931.745 49.1259 923.024 51.9429C908.873 56.4643 905.888 58.7609 912.235 72.3432C919.248 87.1815 912.235 96.6729 903.478 106.541C892.689 118.778 879.113 129.866 891.089 149.208C893.481 153.066 889.183 160.547 890.748 165.481C894.128 176.247 877.279 178.382 881.901 188.107C884.885 194.333 900.08 189.901 895.98 204.022C894.793 208.112 901.267 209.261 904.395 209.045C907.639 208.725 910.9 209.461 913.691 211.143C916.481 212.824 918.651 215.361 919.877 218.375C931.493 243.064 953.017 240.373 974.038 238.363C996.209 236.264 1018.56 234.775 1039.9 227.598C1062.63 219.9 1086.28 216.689 1110.03 214.051C1125.62 212.257 1139.84 206.587 1149.02 195.176C1160.33 181.145 1176.42 173.412 1188.2 160.422C1193.93 154.106 1203.63 152.455 1197.3 138.64C1193.34 130.171 1210.35 129.22 1216.5 123.192Z" fill="#BFAFE9"/>
<path fill-rule="evenodd" clip-rule="evenodd" d="M1261.38 519.877C1247.8 525.512 1232.63 526.092 1218.66 521.51C1210.1 518.944 1202.02 520.523 1193.81 521.51C1187.82 522.228 1181.49 525.098 1187.57 531.845C1194.38 539.362 1190.91 547.562 1187.57 552.209C1176.4 567.98 1174.58 588.955 1158.55 601.945C1150.38 608.548 1143.19 616.55 1153.31 627.656C1154.96 629.35 1156 631.544 1156.27 633.893C1156.53 636.242 1156 638.612 1154.77 640.629C1144.3 658.571 1158.47 670.574 1165.86 683.331C1172.48 694.76 1184.73 694.653 1195.35 688.265C1203.23 683.529 1210.39 682.883 1213.51 691.441C1221.05 712.111 1238.99 708.54 1254.66 711.393C1302.77 720.167 1347.1 697.685 1393.78 694.796C1397.16 694.581 1400.45 691.71 1403.61 689.79C1433.91 671.435 1462.32 650.874 1484.73 622.884C1490.39 615.707 1495.95 607.866 1506.31 603.632C1499.92 601.838 1493.2 600.887 1487.28 598.123C1483.09 596.168 1479.48 590.103 1485.65 587.555C1499.08 582.011 1488.25 574.368 1489.24 567.819C1490.39 559.494 1472.32 554.237 1486.64 543.74C1490.43 540.941 1482.21 536.563 1478.09 537.012C1463.96 538.429 1451.12 535.451 1438.16 529.835C1423.77 523.466 1417.73 528.149 1415.45 545.355C1415.09 548.082 1414.67 550.953 1411.36 551.922C1410 552.001 1408.64 551.609 1407.52 550.813C1406.41 550.016 1405.6 548.863 1405.23 547.544C1402.57 538.896 1402.46 527.592 1392.32 524.758C1381.53 521.779 1370.1 523.789 1359.15 526.659C1356.18 527.431 1354.09 529.046 1354.09 532.186C1354.09 536.707 1357.69 539.883 1361.05 539.111C1366.88 537.73 1371.84 539.901 1377.34 540.116C1387.13 540.529 1391.12 544.781 1387.66 554.47C1384.77 562.616 1382.04 570.385 1392.61 575.678C1395.92 577.346 1393.6 580.719 1391.93 582.855C1389.88 585.438 1387.4 585.079 1385.27 582.693C1370.67 566.348 1349.42 559.512 1332.66 546.037C1322.63 537.981 1309.95 532.939 1297.96 527.7C1292.04 525.098 1284.29 519.949 1278.64 527.844C1273.5 535.02 1267.06 543.256 1277.38 551.635C1279.65 553.429 1281.74 555.762 1279.72 558.13C1276.31 562.149 1272.4 558.704 1269.96 556.713C1259.08 547.742 1255.41 536.151 1261.38 519.877ZM1316.62 553.555C1318 554.524 1320.43 555.69 1320.31 556.246C1319.48 559.835 1323.9 563.818 1319.62 567.012C1319.57 562.4 1313.15 559.099 1316.62 553.555Z" fill="#BFAFE9"/>
<path fill-rule="evenodd" clip-rule="evenodd" d="M839.087 245.666C830.905 239.924 821.807 245.271 814.236 239.745C808.285 235.403 804.293 234.649 805.048 223.902C806.846 198.047 795.77 188.412 769.84 186.025C762.648 185.362 762.216 185.451 758.53 171.905C757.181 166.935 753.135 167.814 750.438 165.948C737.024 156.977 722.171 163.275 710.465 166.54C696.08 170.577 684.59 170.129 673.172 162.557C667.058 158.52 660.908 158.036 654.579 158.663C625.143 161.534 595.725 164.836 566.326 168.119C554.134 169.465 545.719 175.099 542.608 187.856C539.51 201.932 532.793 214.961 523.116 225.66C513.712 236.013 519.286 254.224 509.828 266.658C508.875 267.932 511.896 274.068 514.521 275.88C528.223 285.3 530.453 299.062 533.078 314.187C534.732 323.768 541.889 330.748 554.656 335.718C574.022 343.2 595.294 341.244 613.851 352.907C632.893 364.874 655.838 355.885 676.786 355.149C710.573 354.001 741.627 341.298 768.15 320.521C781.186 310.33 792.353 295.904 800.229 282.196C807.799 269.009 813.445 259.23 828.999 257.077C833.387 256.413 836.767 252.484 839.087 245.666Z" fill="#BFAFE9"/>
<path fill-rule="evenodd" clip-rule="evenodd" d="M283.46 311.083L263.68 302.704C269.65 295.868 263.573 287.991 265.622 280.958C266.683 277.37 273.516 273.62 265.101 271.054C252.766 267.286 251.255 254.368 243.757 246.491C238.362 240.749 237.194 227.58 225.775 240.606C225.128 241.395 220.561 239.78 218.583 238.273C194.11 219.882 168.001 219.237 139.177 227.131C121.95 231.832 103.447 237.143 84.9443 231.437C77.0504 228.997 69.2106 229.643 64.3376 235.205C54.4837 246.545 41.591 247.442 29.2557 245.54C17.9274 243.746 12.3893 251.066 4.74719 255.462C2.51749 256.736 -1.34866 258.494 0.539368 261.437C8.7749 274.337 5.44827 290.36 12.1913 303.332C19.2581 316.86 22.5308 326.657 21.7576 340.562C21.6884 341.49 21.7186 342.422 21.8476 343.343C23.6458 354.539 7.78613 361.573 12.4433 370.723C16.1655 377.9 27.4937 381.363 35.2977 386.638C36.8414 387.675 38.0377 389.15 38.732 390.872C41.3393 398.049 34.3807 408.24 44.792 412.78C54.1745 416.864 64.5386 418.16 74.6409 416.512C117.599 409.03 160.431 400.669 203.19 392.11C210.47 390.556 217.396 387.666 223.618 383.588C228.886 380.179 239.01 378.008 232.608 367.207C231.637 365.556 232.608 360.963 234.406 359.796C252.604 346.555 256.955 320.054 283.46 311.083ZM28.6626 294.935C24.3651 295.168 23.4478 292.495 23.0702 289.929C22.2071 284.241 14.8529 278.661 22.3871 272.83C23.1705 272.416 24.0358 272.178 24.9215 272.135C25.8072 272.091 26.6913 272.243 27.5116 272.579C35.1717 275.97 34.5064 282.573 32.906 288.942C32.3306 291.347 29.9393 293.141 28.6626 294.935ZM72.6632 311.442C70.991 310.132 68.0059 308.966 67.1068 306.902C64.3916 300.659 70.2357 302.004 73.0408 301.52C75.8459 301.035 78.669 301.95 78.4352 305.664C78.2195 308.625 76.2595 310.455 72.6632 311.442Z" fill="#BFAFE9"/>
<path fill-rule="evenodd" clip-rule="evenodd" d="M302.556 68.0013C298.33 78.7666 306.35 89.9266 301.783 100.782C301.136 102.289 300.938 105.429 301.657 105.823C321.437 116.93 320.412 134.729 319.638 153.945C319.279 163.562 325.447 172.694 337.782 175.475C349.416 178.167 360.384 183.585 371.767 187.479C378.649 190.053 386.022 191.058 393.344 190.421C406.309 189.165 411.326 171.205 419.022 173.269C429.667 176.085 438.964 181.378 450.454 177.521C484.043 166.289 513.838 150.607 530.201 116.517C533.564 109.484 535.704 107.905 527.72 102.163C520.437 96.9421 531.64 92.8513 534.067 87.9351C538.293 79.4484 560.752 78.9639 546.205 62.0085C551.599 48.5697 543.49 40.7649 535.955 30.5558C515.007 2.22491 487.801 -4.55726 455.524 2.52994C443.877 5.08162 431.933 6.01744 420.029 5.31097C401.4 4.03706 401.652 12.9185 404.943 24.4913C406.741 30.8966 407.226 35.2566 401.346 38.3965C396.168 41.1058 394.154 36.2972 390.558 33.5521C381.567 26.6443 370.976 21.6922 361.122 15.8071C357.777 13.8156 353.929 11.7881 350.692 14.0129C333.107 25.9445 308.832 20.2389 292.666 37.3379C291.048 48.5159 307.969 55.5492 302.269 68.9342C304.894 64.6998 308.994 55.8364 312.734 63.2465C317.625 72.9353 326.885 81.9065 324.799 94.5558C305.182 97.2471 305.02 97.2651 303.671 81.4759C303.312 76.9365 305.631 72.2536 302.556 68.0013ZM439.899 31.6682C446.138 28.4565 454.643 27.021 456.729 33.2829C459.067 40.2086 456.945 49.2337 454.841 56.8053C453.457 61.6856 447.649 62.1879 443.531 58.7609C439.413 55.334 436.338 50.6331 432.418 46.8832C428.498 43.1332 423.428 39.473 426.197 33.2649C429.523 25.8907 435.295 31.4349 439.899 31.6682ZM333.574 37.3558C337.404 49.6463 339.67 61.2729 330.895 73.2404C319.531 59.2813 320.358 47.9597 333.574 37.3558ZM348.876 73.8504C349.506 70.5491 350.243 66.8708 354.271 65.7943C360.564 64.1077 364.88 67.5885 366.768 72.9712C368.261 77.1697 367.721 82.7318 361.571 82.7318C358.774 82.8345 356.02 82.0224 353.729 80.4191C351.437 78.8158 349.733 76.5092 348.876 73.8504ZM389.677 117.845C389.373 115.997 389.632 114.102 390.421 112.403C391.209 110.704 392.491 109.281 394.1 108.317C396.815 106.703 399.494 108.21 399.908 111.421C400.339 115.171 399.746 119.155 395.862 120.949C393.129 122.223 390.666 120.985 389.677 117.845Z" fill="#BFAFE9"/>
<path fill-rule="evenodd" clip-rule="evenodd" d="M429.164 548.764C441.427 552.353 452.324 554.56 461.98 562.939C443.297 579.087 423.122 567.837 403.954 565.935C399.207 565.469 398.559 559.009 397.265 554.56C392.554 539.255 386.907 524.74 367.739 522.533C366.192 522.353 364.7 520.505 363.423 519.195C339.724 494.74 310.63 498.813 281.014 502.814C249.547 507.067 219.572 514.997 193.319 533.424C174.981 546.063 159.083 561.903 146.387 580.181C142.791 585.438 139.446 590.39 138.134 597.316C134.861 614.684 134.124 614.523 151.53 618.309C154.227 618.901 156.925 619.798 159.981 620.695C159.358 624.836 157.374 628.653 154.341 631.547C151.307 634.441 147.396 636.247 143.223 636.681C133.746 638.009 129.467 645.653 122.094 649.026C111.827 653.691 112.006 661.388 116.43 669.552C126.392 687.978 142.378 700.933 158.615 713.367C169.763 721.889 182.979 717.422 195.53 717.924C205.978 718.355 215.418 719.718 226.315 725.801C270.873 750.382 319.477 755.316 368.8 741.141C388.166 735.579 407.928 730.591 426.125 721.279C430.045 719.288 435.457 717.691 439.431 718.803C452.971 722.392 463.526 714.981 473.254 708.953C485.841 701.112 495.497 690.006 512.957 690.042C519.772 690.042 528.223 682.04 530.579 669.318C532.377 659.683 535.74 655.754 527.396 647.034C523.44 642.907 528.727 629.397 526.695 619.206C523.602 603.506 508.516 582.783 490.211 579.32C481.22 577.526 485.751 567.55 478.613 565.738C466.547 562.67 473.776 558.561 477.048 552.586C480.77 545.804 468.058 531.055 463.041 535.164C453.187 542.897 438.945 536.994 429.164 548.764Z" fill="#BFAFE9"/>
<path fill-rule="evenodd" clip-rule="evenodd" d="M557.64 588.65C555.519 600.492 546.312 606.754 537.663 616.048C550.718 619.852 561.291 624.858 568.052 615.079C576.036 603.435 557.317 599.954 557.64 588.65Z" fill="#BFAFE9"/>
</g>
<defs>
<clipPath id="clip0_551_7918">
<rect width="1901" height="749" fill="white" transform="matrix(-1 0 0 1 1901 0)"/>
</clipPath>
</defs>
</svg>
