<svg width="375" height="525" viewBox="0 0 375 525" fill="none" xmlns="http://www.w3.org/2000/svg">
<path opacity="0.6" fill-rule="evenodd" clip-rule="evenodd" d="M96.8418 48.515C101.102 47.3355 105.256 48.5447 109.413 49.1836C110.22 49.3072 111.577 48.7921 111.812 49.1495C113.257 51.2849 109.004 55.6685 115.137 56.277C119.132 56.6662 121.149 53.2256 124.482 52.9796C125.585 52.8955 126.855 53.6762 127.899 54.3109C141.281 62.4302 146.34 62.301 158.401 63.6101C179.525 65.9089 201.37 67.3454 218.789 82.2372C220.046 83.3236 221.503 84.1534 223.078 84.6795C245.317 92.5026 266.302 102.961 287.125 113.987C297.73 119.601 309.322 123.649 319.851 129.521C345.365 143.732 373.278 152.82 398.692 167.281C410.42 173.954 423.556 178.23 435.017 185.273C444.697 191.23 454.6 197.265 463.367 204.39C470.596 210.233 478.053 215.631 485.689 220.815C493.011 225.819 496.38 232.758 497.45 241.184C497.771 243.705 498.531 246.444 495.161 247.561C490.359 249.137 491.75 252.101 492.665 255.704C494.692 263.792 494.423 263.855 485.374 266.585C482.053 267.59 478.869 268.77 477.501 272.426C474.982 279.133 469.837 283.785 464.225 287.605C458.614 291.425 457.091 297.389 453.763 302.488C448.588 310.41 441.659 317.196 435.44 324.436C434.335 325.723 432.324 326.693 431.995 328.112C428.945 341.33 418.798 339.802 409.061 339.422C393.492 338.793 379.505 331.808 364.614 328.437C363.466 328.183 362.668 327.286 362.453 325.776C361.388 318.337 361.023 318.08 354.578 318.595C346.1 319.269 335.451 313.204 332.336 305.714C331.947 304.779 332.34 303.221 332.921 302.261C333.694 300.875 335.184 301.632 336.39 301.904C339.271 302.565 340.276 304.841 341.346 307.266C342.732 310.407 345.314 311.353 349.13 310.325C347.901 303.792 345.998 297.689 347.541 290.658C348.91 284.395 344.604 278.178 340.442 272.819C338.796 270.698 337.372 270.817 335.078 271.082C328.747 271.801 325.342 275.705 322.557 281.559C326.319 286.735 333.651 287.219 338.149 292.552C332.658 294.656 329.061 292.939 324.665 289.752C320.866 286.971 315.29 286.659 309.78 285.04C310.674 289.796 315.06 292.292 312.961 296.685C308.932 296.969 308.307 291.598 303.742 291.51C299.178 291.423 301.169 285.327 298.908 282.544C309.181 274.568 298.127 275.064 294.847 273.03C289.913 269.969 283.564 269.965 279.299 264.935C276.538 261.681 272.304 263.7 268.481 264.538C255.899 267.323 246.559 260.012 237.17 253.438C235.625 252.358 233.962 249.595 236.421 248.084C239.679 246.1 241.445 243.711 237.878 241.531C235.419 240.028 230.067 239.003 229.294 243.522C228.037 250.905 224.491 248.665 220.361 246.896C211.728 243.192 201.999 241.824 194.458 236.121C189.32 232.173 183.948 228.536 178.373 225.232C170.259 220.486 162.341 218.245 153.548 216.614C145.012 215.026 137.555 211.238 132.378 203.571C130.57 200.888 127.433 197.843 124.512 197.36C109.241 194.841 101.875 181.97 91.2844 173.304C83.5654 167.008 79.1974 157.589 70.5981 152.094C68.1316 150.521 67.4006 147.14 68.0905 143.945C69.2282 138.697 67.5439 137.28 61.801 136.955C48.1138 136.178 45.7977 134.142 38.5949 120.39C36.3296 116.055 34.7927 112.032 30.135 108.859C22.1523 103.421 22.3236 100.077 28.3774 92.2453C30.7091 89.2595 36.1403 86.9623 29.3309 83.1029C29.0145 82.9267 28.6123 82.3168 28.7056 82.0893C30.7433 76.9905 36.526 74.7227 38.3165 69.4196C41.3635 70.6112 45.9482 65.321 47.7649 71.662C48.8742 75.48 50.2532 72.2363 50.8487 71.5634C52.4901 69.6968 54.9847 68.5913 55.6426 65.7777C56.2075 63.4311 58.7311 61.5768 60.414 62.6007C69.3924 68.0874 74.4018 60.1263 80.3036 56.7207C84.6253 54.2313 90.2991 50.6588 84.7589 43.8006C91.2106 42.3845 93.9122 45.7323 96.9551 48.4916C101.067 49.4515 98.3318 58.4795 105.904 55.7247C104.557 50.9762 100.779 49.6569 96.8418 48.515ZM427.924 214.128C433.191 213.735 439.218 212.096 438.933 221.131C438.872 223.173 443.46 226.314 448.739 227.784C447.102 222.321 447.943 218.519 450.64 214.985C453.186 211.613 452.505 208.107 448.15 207.151C443.888 206.221 442.032 202.772 439.137 200.454C435.654 197.656 432.097 197.777 428.419 199.567C424.317 201.554 427.045 204.603 427.393 207.292C427.661 209.331 427.727 211.397 427.924 214.128ZM225.348 231.365C221.471 226.851 217.048 224.506 212.377 222.617C210.618 221.909 208.983 223.008 208.081 224.435C207.518 225.326 207.18 227.313 207.686 227.761C210.498 230.252 213.317 233.1 216.685 234.483C219.057 235.459 222.451 234.814 225.348 231.365ZM466.137 269.469C465.639 270.05 465.14 270.624 464.673 271.222C463.931 272.193 464.037 272.651 464.645 272.184C465.197 271.654 465.657 271.036 466.005 270.354C466.112 270.075 466.163 269.779 466.157 269.481L466.137 269.469Z" fill="#E3F0FC"/>
<path opacity="0.6" fill-rule="evenodd" clip-rule="evenodd" d="M183.964 291.68C182.563 292.745 181.711 293.764 184.315 294.24C191.899 295.628 192.365 295.675 191.457 303.22C191.05 306.565 191.556 307.48 194.497 308.542C196.186 309.157 197.385 311.338 198.622 312.95C200.512 315.407 202.269 316.904 205.946 315.92C210.143 314.795 214.026 316.595 215.903 320.74C219.723 329.182 227.884 329.923 235.279 332.051C236.615 332.443 238.982 331.522 239.454 332.21C244.172 338.985 252.744 339.332 258.559 343.971C262.926 347.44 266.799 351.277 272.689 351.883C274.197 352.039 275.279 353.009 276.13 354.318C278.107 357.41 279.893 355.663 280.088 353.49C280.344 350.678 281.666 350.657 283.398 351.389C285.13 352.12 286.42 353.534 284.535 355.402C282.65 357.271 283.525 358.007 285.324 359.289C290.784 363.196 297.112 364.958 303.007 367.537C304.714 365.17 301.903 364.133 302.361 361.796C307.418 362.948 311.316 365.13 312.762 370.487C313.74 374.116 316.567 375.867 319.276 378.185C324.082 382.308 329.446 385.524 334.446 389.289C341.18 394.361 342.925 394.53 348.944 388.551C349.945 387.554 350.535 386.141 351.327 384.897C353.682 386.333 350.039 387.777 351.32 389.196C356.072 385.316 356.07 385.32 359.485 390.499C360.111 391.449 360.64 392.992 361.468 393.189C367.645 394.665 372.374 398.564 377.683 401.646C382.725 404.574 386.934 408.431 391.799 411.453C395.165 413.54 395.259 417.278 395.626 420.785C396.452 428.678 397.054 429.122 404.988 428.43C406.323 428.313 408.633 427.988 408.527 429.806C408.183 436.005 413.262 439.498 415.179 444.521C415.692 445.88 416.486 447.141 416.216 448.686C413.003 450.93 410.261 448.998 407.453 447.677C405.362 453.086 405.362 453.086 412.797 456.128C406.291 459.985 407.25 466.802 405.554 472.508C404.926 474.61 405.365 478.427 409.559 476.813C411.434 476.089 412.643 476.55 412.954 477.926C413.689 481.119 409.384 481.396 409.08 481.216C405.548 479.13 400.932 480.498 397.761 477.504C397.18 476.957 396.215 476.819 395.149 476.38C393.617 479.949 396.968 481.587 397.957 483.932C399.239 486.979 398.179 488.669 395.582 489.239C389.957 490.481 383.778 492.078 378.558 490.037C373.972 488.244 370.47 489.331 366.968 490.838C359.935 493.893 353.461 493.164 346.848 489.875C333.85 483.354 320.818 476.896 307.752 470.503C302.791 468.072 297.786 465.709 292.699 463.56C288.618 461.836 284.994 459.517 281.413 456.932C275.306 452.493 267.939 450.427 261.441 446.523C251.234 440.386 239.624 436.869 229.151 431.414C214.55 423.799 199.043 417.977 185.054 409.05C178.841 405.071 171.424 403.013 164.902 399.235C148.877 389.915 131.851 382.458 115.881 372.967C101.36 364.324 87.9811 353.761 72.3996 346.855C71.3302 346.376 70.3333 345.749 69.4375 344.993C66.4248 342.449 66.1521 339.534 69.5002 337.988C74.1447 335.863 77.3095 333.204 77.5806 327.881C84.6186 324.212 84.0947 316.185 87.575 310.467C90.1613 306.206 94.3033 303.495 98.1199 300.67C103.322 296.828 103.593 297.151 99.6859 292.408C99.1693 291.773 98.2194 291.441 98.739 290.248C101.74 288.524 106.227 292.412 108.68 287.869C106.966 285.105 104.496 287.68 102.356 287.131C99.1147 286.3 97.2743 285.446 99.7864 282.07C100.215 281.496 98.7958 279.803 101.264 280.348C107.349 281.664 114.199 280.508 118.675 286.48C119.106 287.056 120.207 287.126 120.892 287.393C123.459 285.806 123.987 283.166 125.292 279.865C127.232 282.895 128.716 286.992 132.816 283.537C134.549 287.504 140.548 286.574 141.66 291.211C141.988 292.602 141.897 294.096 142.248 295.484C142.538 296.62 143.269 297.53 144.717 297.377C145.949 297.239 146.639 296.716 147.249 295.491C149.285 291.259 151.018 290.166 154.67 291.33C158.159 292.423 161.743 292.844 165.009 295.259C169.067 298.26 171.658 296.723 173.256 291.724C173.612 290.611 173.859 289.406 174.483 288.452C176.261 285.726 178.609 285.929 181.01 288.827C181.942 289.943 183.001 290.926 184.004 291.972L183.964 291.68ZM381.846 412.886C382.235 407.613 377.708 405.75 374.926 402.811C374.014 401.852 372.452 399.81 370.695 402.035C369.352 403.749 368.695 405.913 370.593 407.463C373.826 410.114 376.652 413.886 381.846 412.886ZM97.7186 354.52C94.753 349.612 91.546 349.278 87.0101 350.11C89.5247 354.86 92.9646 354.655 97.7186 354.52ZM222.856 342.513C222.273 343.951 221.726 345.471 223.055 346.538C225.12 348.206 226.765 346.982 228.144 345.298C229.207 343.993 229.196 342.478 227.99 341.454C225.941 339.701 224.363 341.341 222.856 342.513ZM206.463 321.195C206.411 320.684 206.53 319.931 206.241 319.734C206.1 319.61 205.927 319.527 205.742 319.494C205.557 319.46 205.366 319.477 205.19 319.543C205.014 319.61 204.859 319.722 204.742 319.869C204.625 320.017 204.549 320.193 204.524 320.379C204.423 320.738 204.76 321.547 205.007 321.597C205.46 321.694 205.968 321.349 206.463 321.195Z" fill="#E3F0FC"/>
</svg>
