<svg width="1258" height="499" viewBox="0 0 1258 499" fill="none" xmlns="http://www.w3.org/2000/svg">
<g opacity="0.6" clip-path="url(#clip0_551_7904)">
<path fill-rule="evenodd" clip-rule="evenodd" d="M-89.0124 165.895C-102.588 160.665 -115.677 168.444 -129.473 162.242C-156.831 149.955 -186.682 143.178 -210.631 123.702C-215.929 119.4 -223.543 116.601 -223.734 108.97C-224.059 95.7989 -232.78 91.2908 -242.917 87.2395C-248.215 85.118 -256.611 86.2966 -257.511 78.68C-258.411 71.0634 -255.327 63.6236 -250.133 57.6128C-247.742 54.8726 -241.855 55.3146 -241.84 50.9096C-241.84 47.0056 -234.536 40.9948 -244.658 38.8291C-250.074 37.68 -249.572 33.054 -245.721 30.8C-239.818 27.4116 -234.506 23.0066 -227.335 21.9606C-218.224 20.5088 -209.839 16.1214 -203.46 9.46765C-171.764 -22.3247 -127.466 -37.44 -82.5789 -37.7789C-59.7366 -37.9409 -36.8353 -39.9445 -14.4801 -35.5101C27.1465 -27.2158 59.2998 -6.14861 74.2771 36.251C78.9879 49.6705 85.5752 62.3578 93.8435 73.9361C98.108 79.8291 103.745 85.0001 100.469 91.5265C95.5257 101.397 99.8049 114.421 87.8968 122.052C74.3508 130.759 60.8638 138.508 44.8536 141.941C23.3984 146.552 1.01367 148.585 -17.8297 161.652C-22.6401 164.982 -28.2916 163.803 -33.4267 163.892C-52.27 164.157 -70.9069 170.064 -89.0124 165.895Z" fill="#E0B36E"/>
<path fill-rule="evenodd" clip-rule="evenodd" d="M-130.153 210.519C-112.446 214.851 -96.8044 210.21 -81.0746 212.508C-51.4298 216.825 -21.5195 219.211 8.15472 223.351C19.871 224.986 20.3727 228.11 14.308 241.162C13.6883 242.533 12.0504 244.345 12.4488 245.111C19.5316 258.694 6.6644 270.745 10.2058 285.021C13.4226 297.97 18.1446 312.187 11.9471 326.404C10.5601 329.586 14.8982 332.768 17.1706 335.818C24.888 345.998 22.8075 354.262 11.4159 358.535C2.56235 361.835 -6.70453 363.824 -15.8237 366.269C-19.4684 367.256 -24.2641 366.726 -26.7136 368.921C-50.1166 389.708 -79.1268 382.843 -106.174 385.849C-137.472 389.311 -165.818 376.759 -195.301 370.335C-208.271 367.507 -222.274 368.759 -233.577 358.844C-242.888 350.668 -250.444 340.002 -264.978 338.366C-271.958 337.585 -270.585 325.903 -275.721 321.925C-287.083 313.086 -287.806 298.088 -297.707 288.35C-304.362 281.794 -302.547 271.364 -297.205 265.147C-291.863 258.93 -286.035 253.567 -285.887 244.389C-285.887 239.969 -282.021 238.82 -277.875 237.995C-255.888 233.649 -235.083 223.616 -211.916 224.736C-210.459 224.527 -209.087 223.926 -207.946 222.998C-183.038 207.426 -155.105 212.214 -130.153 210.519Z" fill="#E0B36E"/>
<path fill-rule="evenodd" clip-rule="evenodd" d="M445.359 359.816C455.807 358.991 462.83 354.778 462.535 343.758C462.447 339.928 461.842 334.374 465.988 333.829C486.071 331.177 474.015 312.423 481.644 303.583C483.622 301.285 481.157 297.514 478.221 296.217C470.695 292.873 472.968 286.111 472.2 280.409C469.707 261.67 469.839 261.257 488.432 265.412C498.451 267.681 511.599 262.082 517.649 276.299C518.564 278.45 523.374 277.124 525.868 275.017C534.854 267.43 546.954 266.841 557.136 260.565C568.749 253.405 585.172 259.887 599.338 260.963C616.587 262.259 633.69 266.502 650.6 270.509C659.503 272.634 667.622 277.23 674.018 283.768C679.374 289.175 684.863 295.186 691.533 298.368C713.18 308.681 716.072 329.306 720.912 349.003C722.388 354.896 722.831 361.835 718.05 366.181C708.148 375.182 702.969 387.204 695.812 397.929C687.15 410.937 673.413 417.818 659.822 420.808C623.552 428.793 586.84 434.17 549.625 424.197C533.63 419.91 516.999 418.083 500.783 414.517C486.027 411.247 487.296 394.762 474.753 392.684C476.893 371.823 455.836 371.543 445.359 359.816Z" fill="#E0B36E"/>
<path fill-rule="evenodd" clip-rule="evenodd" d="M262.606 135.841C285.847 135.267 306.564 142.102 326.854 152.71C334.04 156.481 339.16 160.356 343.543 166.941C352.396 180.2 361.692 193.548 375.002 202.417C380.728 206.232 379.001 208.309 377.953 212.729C374.235 229.347 367.182 245.14 365.706 262.274C364.555 275.386 353.473 280.571 344.487 283.901C322.648 291.959 301.695 302.022 277.982 306.102C239.189 312.747 205.486 300.209 170.751 287.481C162.163 284.343 165.955 270.318 153.575 272.469C144.588 274.045 139.778 268.741 138.125 259.74C137.594 256.793 133.256 256.897 130.275 256.16C120.492 253.7 115.121 246.525 111.653 237.612C110.675 235.538 110.018 233.327 109.705 231.056C109.203 222.762 94.6246 221.731 98.6087 213.024C102.371 204.818 112.538 211.33 119.267 208.722C123.015 207.249 130.068 206.969 127.811 200.678C123.059 187.522 134.289 179.611 138.14 170.035C143.009 158.117 155.847 150.883 170.263 151.929C179.87 152.636 188.399 146.566 196.308 146.581C219.371 146.625 239.808 133.234 262.606 135.841ZM332.55 234.548C344.443 227.019 343.631 219.211 333.464 211.182C332.992 218.99 322.796 226.577 332.55 234.562V234.548Z" fill="#E0B36E"/>
<path fill-rule="evenodd" clip-rule="evenodd" d="M259.715 27.7062C264.614 21.6807 270.443 26.3066 275.12 24.4061C278.396 23.0949 280.359 18.6163 278.071 17.423C264.393 10.3515 274.117 5.09208 278.735 -0.889233C280.034 -2.56871 280.344 -4.99955 280.993 -6.78215C278.042 -15.1796 268.421 -5.51517 265.691 -13.5885C270.383 -18.9952 277.289 -10.3326 282.129 -15.4448C285.656 -19.1573 284.387 -26.6265 290.983 -27.8346C308.808 -31.0904 325.969 -40.4013 344.547 -36.2615C354.124 -34.1253 361.723 -34.2432 370.518 -39.1196C379.061 -43.8486 390.01 -46.5741 399.1 -43.0973C412.779 -37.8674 425.469 -39.1785 439.28 -41.241C452.561 -43.2446 466.948 -42.7142 478.635 -34.582C485.806 -29.5583 493.39 -33.1088 500.547 -30.7958C512.16 -27.0833 514.61 -25.1975 509.401 -14.0452C503.646 -1.86155 509.401 5.93183 516.587 14.0346C525.44 24.082 536.581 33.1866 526.754 49.0681C524.791 52.2355 528.318 58.3788 527.034 62.4302C524.26 71.2696 538.086 73.0228 534.294 81.0077C531.844 86.1198 519.376 82.4809 522.74 94.0752C523.714 97.4342 518.402 98.377 515.834 98.2003C513.172 97.9374 510.496 98.5414 508.206 99.9222C505.917 101.303 504.135 103.386 503.129 105.861C493.597 126.133 475.934 123.923 458.684 122.273C440.49 120.549 422.149 119.326 404.633 113.433C385.982 107.113 366.578 104.476 347.085 102.311C334.292 100.837 322.62 96.182 315.094 86.8122C305.813 75.2915 292.606 68.9419 282.941 58.2757C278.234 53.09 270.28 51.7346 275.474 40.3907C278.721 33.4371 264.761 32.6563 259.715 27.7062Z" fill="#E0B36E"/>
<path fill-rule="evenodd" clip-rule="evenodd" d="M222.884 353.423C234.032 358.05 246.474 358.525 257.944 354.763C264.968 352.657 271.593 353.953 278.336 354.763C283.25 355.353 288.444 357.71 283.457 363.249C277.864 369.422 280.712 376.155 283.457 379.97C292.62 392.92 294.111 410.142 307.273 420.808C313.972 426.23 319.874 432.8 311.567 441.919C310.211 443.31 309.358 445.112 309.141 447.041C308.925 448.969 309.358 450.915 310.372 452.571C318.96 467.303 307.332 477.159 301.267 487.634C295.837 497.018 285.788 496.93 277.067 491.685C270.604 487.796 264.731 487.266 262.164 494.293C255.981 511.265 241.255 508.333 228.402 510.675C188.915 517.879 152.542 499.42 114.235 497.048C111.461 496.871 108.761 494.514 106.164 492.937C81.3001 477.866 57.9857 460.983 39.5997 438.001C34.9516 432.108 30.392 425.67 21.8926 422.193C27.1309 420.72 32.6496 419.939 37.5043 417.67C40.9425 416.064 43.9085 411.085 38.8472 408.993C27.8245 404.441 36.7076 398.165 35.896 392.787C34.9516 385.951 49.7813 381.635 38.0355 373.017C34.922 370.718 41.6655 367.124 45.0446 367.492C56.6428 368.656 67.1787 366.21 77.8177 361.599C89.6225 356.369 94.5805 360.214 96.4545 374.342C96.7496 376.582 97.0889 378.939 99.804 379.734C100.928 379.799 102.04 379.478 102.955 378.824C103.871 378.17 104.534 377.223 104.836 376.14C107.02 369.039 107.108 359.758 115.431 357.43C124.284 354.984 133.669 356.634 142.655 358.991C145.09 359.625 146.802 360.951 146.802 363.529C146.802 367.241 143.851 369.849 141.091 369.216C136.31 368.081 132.238 369.864 127.722 370.041C119.695 370.38 116.419 373.871 119.252 381.827C121.628 388.515 123.871 394.894 115.195 399.24C112.479 400.61 114.383 403.38 115.755 405.133C117.437 407.254 119.474 406.96 121.215 405C133.197 391.579 150.638 385.966 164.391 374.902C172.625 368.288 183.028 364.148 192.87 359.846C197.725 357.71 204.084 353.482 208.718 359.964C212.938 365.857 218.221 372.619 209.751 379.499C207.891 380.972 206.18 382.887 207.833 384.832C210.636 388.132 213.838 385.303 215.845 383.668C224.772 376.302 227.783 366.785 222.884 353.423ZM177.553 381.075C176.417 381.871 174.425 382.828 174.528 383.285C175.207 386.231 171.577 389.502 175.089 392.124C175.133 388.338 180.401 385.627 177.553 381.075Z" fill="#E0B36E"/>
<path fill-rule="evenodd" clip-rule="evenodd" d="M569.428 128.269C576.142 123.555 583.608 127.945 589.821 123.407C594.705 119.842 597.981 119.223 597.361 110.399C595.885 89.1693 604.975 81.2581 626.253 79.2987C632.155 78.7536 632.51 78.8273 635.535 67.7044C636.641 63.6236 639.961 64.3454 642.175 62.8133C653.183 55.4471 665.371 60.6182 674.977 63.2995C686.782 66.6142 696.211 66.2459 705.581 60.0288C710.598 56.7141 715.645 56.3163 720.839 56.832C744.994 59.1891 769.135 61.8999 793.261 64.5959C803.266 65.7008 810.171 70.3268 812.724 80.8014C815.266 92.3594 820.779 103.057 828.72 111.842C836.437 120.343 831.863 135.296 839.624 145.506C840.406 146.552 837.927 151.59 835.773 153.078C824.529 160.813 822.699 172.112 820.545 184.532C819.187 192.399 813.315 198.129 802.838 202.21C786.946 208.354 769.489 206.748 754.261 216.324C738.634 226.15 719.806 218.769 702.615 218.165C674.889 217.223 649.405 206.792 627.64 189.732C616.942 181.364 607.778 169.519 601.315 158.264C595.103 147.436 590.47 139.407 577.706 137.639C574.105 137.094 571.331 133.867 569.428 128.269Z" fill="#E0B36E"/>
<path fill-rule="evenodd" clip-rule="evenodd" d="M1025.39 181.983L1041.62 175.103C1036.72 169.49 1041.71 163.022 1040.02 157.247C1039.15 154.301 1033.55 151.222 1040.45 149.115C1050.58 146.021 1051.81 135.414 1057.97 128.947C1062.39 124.232 1063.35 113.419 1072.72 124.114C1073.26 124.763 1077 123.437 1078.63 122.199C1098.71 107.099 1120.13 106.568 1143.79 113.05C1157.92 116.91 1173.11 121.271 1188.29 116.586C1194.77 114.583 1201.2 115.113 1205.2 119.68C1213.29 128.991 1223.87 129.727 1233.99 128.166C1243.29 126.692 1247.83 132.703 1254.1 136.313C1255.93 137.359 1259.11 138.803 1257.56 141.219C1250.8 151.811 1253.53 164.967 1248 175.619C1242.2 186.727 1239.51 194.771 1240.15 206.188C1240.2 206.95 1240.18 207.715 1240.07 208.472C1238.6 217.664 1251.61 223.44 1247.79 230.953C1244.73 236.846 1235.44 239.689 1229.03 244.021C1227.77 244.872 1226.79 246.083 1226.22 247.497C1224.08 253.39 1229.79 261.758 1221.24 265.486C1213.54 268.839 1205.04 269.903 1196.75 268.55C1161.5 262.407 1126.35 255.541 1091.26 248.514C1085.28 247.238 1079.6 244.865 1074.49 241.516C1070.17 238.717 1061.86 236.934 1067.12 228.066C1067.91 226.71 1067.12 222.939 1065.64 221.981C1050.71 211.109 1047.14 189.349 1025.39 181.983ZM1234.48 168.724C1238.01 168.915 1238.76 166.72 1239.07 164.614C1239.78 159.943 1245.81 155.362 1239.63 150.574C1238.99 150.233 1238.28 150.038 1237.55 150.003C1236.82 149.967 1236.1 150.091 1235.42 150.367C1229.14 153.152 1229.68 158.573 1231 163.803C1231.47 165.777 1233.43 167.251 1234.48 168.724ZM1198.37 182.278C1199.74 181.202 1202.19 180.244 1202.93 178.55C1205.16 173.423 1200.36 174.528 1198.06 174.131C1195.76 173.733 1193.44 174.484 1193.63 177.534C1193.81 179.965 1195.42 181.467 1198.37 182.278Z" fill="#E0B36E"/>
<path fill-rule="evenodd" clip-rule="evenodd" d="M1009.72 -17.6103C1013.18 -8.77097 1006.6 0.392464 1010.35 9.30551C1010.88 10.543 1011.04 13.1212 1010.45 13.4453C994.223 22.5646 995.064 37.179 995.698 52.9573C995.993 60.8539 990.932 68.3526 980.809 70.6361C971.262 72.8459 962.261 77.2951 952.921 80.492C947.273 82.6055 941.223 83.4311 935.214 82.9081C924.575 81.8769 920.457 67.1298 914.142 68.8241C905.406 71.137 897.778 75.483 888.348 72.3156C860.784 63.0932 836.334 50.2171 822.906 22.2258C820.146 16.4507 818.391 15.1543 824.942 10.4399C830.918 6.15282 821.725 2.79387 819.733 -1.24278C816.266 -8.21116 797.835 -8.60895 809.773 -22.531C805.346 -33.5655 812.001 -39.974 818.184 -48.3567C835.375 -71.619 857.7 -77.1878 884.187 -71.3685C893.745 -69.2733 903.547 -68.5049 913.316 -69.085C928.603 -70.131 928.396 -62.8385 925.696 -53.3362C924.22 -48.0767 923.822 -44.4968 928.647 -41.9186C932.897 -39.6941 934.549 -43.6423 937.5 -45.8964C944.878 -51.5683 953.57 -55.6345 961.656 -60.4667C964.401 -62.1019 967.559 -63.7667 970.215 -61.9399C984.646 -52.1429 1004.57 -56.8278 1017.83 -42.7879C1019.16 -33.6097 1005.27 -27.8346 1009.95 -16.8443C1007.8 -20.3212 1004.43 -27.5989 1001.36 -21.5144C997.351 -13.559 989.751 -6.19283 991.463 4.19344C1007.56 6.40329 1007.69 6.41805 1008.8 -6.54637C1009.1 -10.2736 1007.19 -14.1188 1009.72 -17.6103ZM897.01 -47.4433C891.89 -50.0803 884.91 -51.259 883.199 -46.1174C881.28 -40.4307 883.022 -33.0203 884.748 -26.8033C885.884 -22.7961 890.65 -22.3837 894.029 -25.1975C897.409 -28.0114 899.932 -31.8712 903.149 -34.9503C906.366 -38.0293 910.527 -41.0348 908.254 -46.1322C905.524 -52.1871 900.788 -47.6348 897.01 -47.4433ZM984.262 -42.7731C981.119 -32.6815 979.26 -23.135 986.461 -13.3085C995.787 -24.7703 995.108 -34.0664 984.262 -42.7731ZM971.705 -12.8076C971.189 -15.5183 970.584 -18.5385 967.278 -19.4225C962.114 -20.8073 958.572 -17.9493 957.023 -13.5296C955.798 -10.0822 956.241 -5.51518 961.287 -5.51518C963.583 -5.43085 965.843 -6.09763 967.723 -7.41409C969.604 -8.73055 971.002 -10.6245 971.705 -12.8076ZM938.223 23.3159C938.473 21.799 938.26 20.2424 937.613 18.8476C936.966 17.4528 935.914 16.2842 934.594 15.4931C932.365 14.1672 930.167 15.4047 929.827 18.0418C929.473 21.1208 929.96 24.3915 933.148 25.8647C935.39 26.9107 937.412 25.8941 938.223 23.3159Z" fill="#E0B36E"/>
<path fill-rule="evenodd" clip-rule="evenodd" d="M905.82 377.142C895.757 380.088 886.814 381.9 878.89 388.78C894.222 402.039 910.778 392.802 926.508 391.24C930.403 390.857 930.935 385.554 931.997 381.9C935.863 369.334 940.497 357.415 956.227 355.603C957.496 355.456 958.72 353.938 959.768 352.863C979.216 332.783 1003.09 336.127 1027.39 339.412C1053.22 342.904 1077.82 349.415 1099.36 364.545C1114.41 374.924 1127.45 387.93 1137.87 402.938C1140.82 407.254 1143.57 411.321 1144.65 417.007C1147.33 431.268 1147.94 431.135 1133.65 434.244C1131.44 434.73 1129.23 435.467 1126.72 436.203C1127.23 439.604 1128.86 442.738 1131.35 445.114C1133.83 447.49 1137.04 448.973 1140.47 449.33C1148.25 450.42 1151.76 456.696 1157.81 459.466C1166.23 463.296 1166.09 469.616 1162.46 476.32C1154.28 491.45 1141.16 502.086 1127.84 512.296C1118.69 519.294 1107.84 515.625 1097.54 516.038C1088.97 516.391 1081.22 517.511 1072.28 522.505C1035.72 542.688 995.831 546.74 955.356 535.101C939.464 530.534 923.247 526.439 908.314 518.793C905.097 517.157 900.655 515.846 897.394 516.76C886.283 519.706 877.621 513.622 869.638 508.672C859.309 502.234 851.385 493.114 837.057 493.144C831.465 493.144 824.529 486.573 822.596 476.128C821.121 468.217 818.362 464.99 825.208 457.83C828.455 454.442 824.116 443.349 825.784 434.981C828.322 422.09 840.702 405.074 855.724 402.231C863.102 400.758 859.383 392.566 865.241 391.078C875.142 388.559 869.211 385.185 866.525 380.28C863.471 374.711 873.903 362.601 878.02 365.975C886.106 372.324 897.793 367.477 905.82 377.142Z" fill="#E0B36E"/>
<path fill-rule="evenodd" clip-rule="evenodd" d="M800.388 409.891C802.129 419.615 809.684 424.756 816.782 432.388C806.069 435.511 797.393 439.621 791.844 431.592C785.293 422.031 800.654 419.173 800.388 409.891Z" fill="#E0B36E"/>
</g>
<defs>
<clipPath id="clip0_551_7904">
<rect width="1560" height="615" fill="white" transform="translate(-302 -73.4458)"/>
</clipPath>
</defs>
</svg>
