<svg width="1920" height="528" viewBox="0 0 1920 528" fill="none" xmlns="http://www.w3.org/2000/svg">
<rect x="1955" y="868.739" width="1920" height="846" transform="rotate(180 1955 868.739)" fill="#F2DAA3"/>
<path fill-rule="evenodd" clip-rule="evenodd" d="M1818.09 1331.17C1820.46 1331.29 1822.75 1331.54 1825.03 1331.78C1830.06 1332.32 1835 1332.86 1840.39 1332.03C1840.91 1331.96 1841.57 1332.11 1842.26 1332.27C1842.78 1332.39 1843.31 1332.51 1843.82 1332.55C1845.83 1332.74 1847.9 1332.84 1849.97 1332.82C1861.23 1332.75 1872.48 1333.18 1883.51 1334.08C1888.97 1334.39 1894.35 1334.88 1899.73 1335.37L1899.75 1335.37C1904.97 1335.85 1910.21 1336.32 1915.51 1336.64C1921.3 1337 1926.88 1337.77 1931.98 1338.9C1936.2 1339.79 1940.28 1340.79 1944.35 1341.79L1944.35 1341.79L1944.36 1341.8C1951.39 1343.53 1958.42 1345.26 1966.21 1346.4C1966.75 1346.52 1967.19 1346.7 1967.5 1346.91C1967.81 1347.12 1967.98 1347.35 1968 1347.6C1967.8 1348.22 1966.91 1349.13 1965.82 1349.28C1962.72 1349.63 1959.55 1349.89 1956.34 1350.04C1955.99 1351.16 1955.65 1352.3 1955.2 1353.81L1952.56 1353.69C1946.82 1353.43 1941.43 1353.18 1936.05 1352.96C1921.46 1352.36 1906.93 1351.78 1892.34 1351.22C1890.83 1351.16 1889.31 1351.1 1887.79 1351.04C1882.72 1350.84 1877.61 1350.64 1872.49 1350.5C1864.31 1350.27 1856.02 1350.08 1847.69 1349.96C1841.07 1350.14 1834.43 1350.08 1827.84 1349.79C1817.51 1348.83 1807.05 1348.59 1796.6 1348.36C1790.9 1348.23 1785.19 1348.1 1779.52 1347.85L1778.54 1347.81C1778.04 1347.78 1777.54 1347.76 1777.04 1347.74L1777.03 1347.74L1777.03 1347.74L1777.03 1347.74L1777.02 1347.74C1772.89 1347.56 1768.76 1347.38 1764.63 1347.27C1750.86 1346.9 1737.02 1346.92 1723.2 1346.93L1722.91 1346.93L1722.91 1346.93L1722.9 1346.93C1720.14 1346.94 1717.38 1346.94 1714.62 1346.94C1696.39 1346.95 1678.33 1347.87 1660.28 1348.78L1660.27 1348.78L1660.21 1348.79C1654.62 1349.07 1649.02 1349.36 1643.43 1349.61L1641.32 1349.71L1638.81 1349.82C1627.01 1350.36 1615.24 1350.89 1603.39 1351.18C1590.22 1351.5 1577.05 1351.74 1563.87 1351.98L1563.82 1351.98L1563.76 1351.99L1563.75 1351.99L1563.75 1351.99L1563.75 1351.99L1563.75 1351.99C1549.8 1352.24 1535.85 1352.5 1521.92 1352.85C1506.45 1353.23 1490.99 1353.74 1475.54 1354.25L1475.46 1354.25C1466.76 1354.54 1458.05 1354.83 1449.33 1355.09C1444.42 1355.24 1439.5 1355.35 1434.57 1355.45L1434.56 1355.45C1430.34 1355.54 1426.11 1355.63 1421.9 1355.75C1413.71 1355.98 1405.38 1356.25 1397.09 1356.55C1395.58 1356.6 1394.08 1356.7 1392.59 1356.8L1392.58 1356.8C1390.35 1356.94 1388.13 1357.09 1385.88 1357.09C1381.33 1357.16 1376.78 1357.24 1372.23 1357.31L1372.22 1357.31L1372.22 1357.31L1372.22 1357.31L1372.22 1357.31L1372.21 1357.31C1357.98 1357.56 1343.76 1357.8 1329.52 1357.8C1326.79 1357.8 1324.09 1357.89 1321.4 1357.98L1321.4 1357.98L1321.4 1357.98L1321.39 1357.98L1321.39 1357.98L1321.39 1357.98C1318.01 1358.1 1314.63 1358.22 1311.21 1358.13C1307.39 1357.97 1303.86 1358.02 1299.95 1358.08C1298.78 1358.1 1297.58 1358.12 1296.33 1358.13C1294.08 1358.16 1291.83 1358.2 1289.58 1358.25L1289.57 1358.25L1289.57 1358.25L1289.56 1358.25L1289.56 1358.25L1289.56 1358.25C1286.36 1358.32 1283.17 1358.39 1280 1358.39C1276.57 1358.39 1273.15 1358.37 1269.71 1358.35L1269.64 1358.35L1269.61 1358.35L1269.59 1358.35C1262.69 1358.32 1255.78 1358.28 1248.85 1358.39C1243.04 1358.49 1237.19 1358.47 1231.32 1358.45L1231.31 1358.45L1231.3 1358.45L1231.29 1358.45L1231.28 1358.45L1231.27 1358.45C1223.91 1358.43 1216.52 1358.4 1209.16 1358.62C1201.47 1358.85 1193.75 1358.96 1186.04 1359.07L1186.04 1359.07L1186.04 1359.07L1186.03 1359.07L1186.03 1359.07L1186.03 1359.07C1177.77 1359.18 1169.51 1359.3 1161.28 1359.57C1157.17 1359.48 1153.05 1359.54 1148.97 1359.74C1143.03 1360.25 1136.93 1360.43 1130.86 1360.26C1122.13 1360.24 1113.4 1360.42 1104.72 1360.81C1096.52 1361.36 1088.22 1361.61 1079.91 1361.56C1066.82 1361.44 1053.72 1361.59 1040.67 1362.01C1039.09 1362.03 1037.43 1361.92 1035.78 1361.81L1035.78 1361.81L1035.78 1361.81L1035.78 1361.81L1035.78 1361.81L1035.77 1361.81C1033.16 1361.64 1030.59 1361.48 1028.46 1361.83C1022.97 1362.74 1017.41 1362.68 1011.87 1362.62L1011.86 1362.62L1011.86 1362.62L1011.86 1362.62L1011.85 1362.62L1011.85 1362.62C1008.79 1362.59 1005.74 1362.55 1002.71 1362.68C990.968 1363.2 979.144 1363.38 967.319 1363.55C963.255 1363.62 959.191 1363.68 955.13 1363.75C951.065 1363.81 947.003 1363.93 942.943 1364.04C932.487 1364.35 922.042 1364.65 911.57 1363.96C909.952 1363.77 908.226 1363.77 906.609 1363.96C899.827 1365.31 892.767 1365.12 885.808 1364.93L885.77 1364.93C884.442 1364.89 883.119 1364.86 881.802 1364.83C871.908 1364.65 862.075 1364.96 852.243 1365.26L852.237 1365.26L852.231 1365.26L852.225 1365.26L852.219 1365.26L852.213 1365.26L852.211 1365.26L852.21 1365.26L852.208 1365.26L852.206 1365.26L852.204 1365.26C842.079 1365.57 831.956 1365.88 821.768 1365.67C811.053 1365.44 800.233 1365.36 789.38 1365.28L789.378 1365.28L789.376 1365.28L789.373 1365.28L789.371 1365.28L789.343 1365.28L789.293 1365.28C781.933 1365.22 774.559 1365.17 767.193 1365.07C757.634 1364.94 748.124 1364.67 738.665 1364.25C730.572 1363.78 722.387 1363.58 714.204 1363.65C710.951 1363.73 707.726 1363.48 704.513 1363.23L704.512 1363.23C699.2 1362.81 693.922 1362.4 688.605 1363.5C688.397 1363.52 688.18 1363.52 687.973 1363.5C687.87 1363.49 687.771 1363.47 687.677 1363.45C687.583 1363.43 687.494 1363.41 687.413 1363.38C684.393 1362.35 681.098 1362.49 677.774 1362.63L677.758 1362.63C676.61 1362.67 675.459 1362.72 674.314 1362.72C666.499 1362.81 658.711 1362.33 651.344 1361.31C650.596 1361.18 649.821 1361 649.02 1360.8L649.015 1360.8C646.148 1360.11 642.957 1359.34 639.585 1360.96C639.44 1361.03 638.778 1360.89 638.034 1360.74C637.497 1360.63 636.917 1360.51 636.459 1360.46C635.519 1360.35 634.544 1360.2 633.567 1360.04C631.242 1359.68 628.903 1359.31 626.982 1359.53C624.98 1359.9 622.75 1360.03 620.558 1359.91C618.366 1359.79 616.306 1359.43 614.63 1358.87C613.934 1358.6 612.686 1358.69 611.446 1358.78L611.445 1358.78L611.258 1358.79L611.017 1358.81C610.836 1358.82 610.656 1358.83 610.48 1358.84C610.416 1358.85 610.353 1358.85 610.291 1358.85C610.19 1358.86 610.091 1358.86 609.994 1358.86C609.883 1358.87 609.774 1358.87 609.668 1358.87L593.592 1358.87C592.147 1358.87 590.69 1358.79 589.239 1358.7L589.234 1358.7C587.797 1358.62 586.367 1358.54 584.961 1358.54C569.49 1358.77 553.998 1358.46 538.67 1357.61C534.157 1357.36 529.621 1357.33 525.078 1357.3C520.083 1357.27 515.08 1357.24 510.091 1356.91C503.844 1356.79 497.586 1356.79 491.338 1356.91C487.752 1356.83 484.165 1356.68 480.579 1356.52L480.57 1356.52C475.428 1356.3 470.286 1356.08 465.143 1356.08C460.21 1356.12 455.396 1355.48 451.548 1354.28C449.163 1354.79 446.583 1355.15 443.907 1355.34C442.006 1355.33 440.095 1355.33 438.18 1355.33C429.699 1355.33 421.143 1355.33 413.049 1354.12C412.642 1354.06 412.204 1353.98 411.758 1353.9L411.757 1353.9C410.626 1353.68 409.45 1353.46 408.632 1353.58C403.365 1354.4 397.967 1354.15 392.571 1353.9L392.567 1353.9L392.553 1353.9L392.552 1353.9L392.55 1353.9L392.549 1353.9C390.532 1353.81 388.514 1353.72 386.504 1353.68C374.515 1353.44 362.58 1352.88 350.781 1352.01C348.205 1351.82 345.528 1351.77 342.845 1351.72C336.487 1351.6 330.097 1351.49 324.933 1349.42C324.387 1349.13 323.196 1349.01 322.651 1349.13C319.563 1349.69 316.501 1349.42 313.42 1349.14L313.419 1349.14C310.36 1348.86 307.283 1348.59 304.145 1349.13C301.7 1349.36 299.148 1349.36 296.703 1349.13C292.327 1348.96 288.027 1348.58 283.719 1348.2L283.717 1348.2L283.716 1348.2L283.714 1348.2L283.712 1348.2L283.71 1348.2C277.52 1347.66 271.315 1347.11 264.851 1347.19C259.458 1346.99 254.126 1346.6 248.925 1346.01C242.95 1345.67 236.961 1345.31 230.965 1344.95L230.943 1344.94C220.415 1344.31 209.863 1343.68 199.311 1343.12C187.304 1342.48 175.397 1341.79 163.44 1341.01C155.541 1340.7 147.753 1340.05 140.22 1339.08C131.068 1337.92 121.645 1337.12 112.089 1336.69C109.645 1336.52 107.139 1336.52 104.695 1336.69C91.9446 1337.32 79.0008 1336.86 66.741 1335.36C64.7009 1335.08 62.6996 1334.72 60.6908 1334.35C55.1774 1333.33 49.6088 1332.31 43.0267 1333.19C42.5098 1333.26 41.8066 1333.08 41.077 1332.9C40.6161 1332.79 40.1447 1332.67 39.7029 1332.61C36.9942 1332.22 34.2856 1331.83 31.5768 1331.44C24.3627 1330.4 17.1486 1329.36 9.93438 1328.4C6.13689 1327.91 2.26812 1327.51 -1.59748 1327.12C-4.19612 1326.85 -6.79316 1326.59 -9.36616 1326.29C-11.1743 1326.1 -12.6972 1325.73 -12.2132 1324.95L-13.0001 1324.93L-10.8072 68.6682C-7.98144 63.2561 -2.47826 58.2859 5.52405 53.7242C5.48316 52.991 5.47938 52.2638 5.63489 52.1592C5.94691 51.9495 6.38795 51.7736 6.91883 51.6476C8.15296 51.467 9.36817 51.2715 10.5674 51.0636C23.3989 44.7776 41.256 39.3113 63.6194 34.567C63.5389 33.7429 63.4514 32.9177 63.3571 32.0923C64.8661 32.0343 66.3805 31.9742 67.8988 31.914L68.6444 31.8844C69.0542 32.3606 69.4541 32.83 69.8395 33.2891C72.9148 32.677 76.0685 32.0774 79.2996 31.4902C75.7372 31.6049 72.1802 31.7442 68.6444 31.8844C67.8033 30.9068 66.9213 29.9003 66.0402 28.8951L66.0383 28.8931L66.0376 28.8925C61.0557 23.2091 56.1088 17.5657 58.8286 17.4091C61.9365 17.1547 66.1238 16.7432 70.7874 16.2848L70.7914 16.2844L70.7925 16.2843C82.6721 15.1168 97.6395 13.6458 105.728 13.6932C107.8 13.7084 109.867 13.6172 111.878 13.422C112.385 13.3809 112.918 13.2592 113.432 13.1419C114.127 12.9831 114.788 12.8323 115.302 12.8991C120.699 13.7288 125.639 13.1973 130.666 12.6565C133.031 12.402 135.416 12.1454 137.877 12.0276C138.445 11.9997 139.014 11.9712 139.584 11.9426L139.59 11.9423C149.27 11.4569 159.19 10.9595 168.935 12.8797L175.335 10.1876C179.665 10.2009 183.991 10.0973 188.284 9.87765C191.118 9.78855 193.966 9.97491 196.571 10.42C197.474 10.5081 198.406 10.3233 199.377 10.1306C200.966 9.81528 202.66 9.47906 204.508 10.2845C205.152 10.5557 207.535 10.2846 208.824 10.0909C214.172 9.10579 220.176 8.8008 225.991 9.21921C229.357 9.62293 232.588 10.1821 235.615 10.8848L240.974 8.36716L240.98 8.36716C244.302 8.36716 248.022 8.36716 251.692 8.67686C255.23 9.00759 258.919 9.00759 262.458 8.67686C265.361 8.35487 268.659 8.701 271.973 9.04878C273.642 9.22396 275.316 9.39955 276.944 9.49038C277.466 9.49038 278.085 9.25297 278.698 9.01755L278.699 9.0173C278.962 8.91658 279.223 8.81624 279.476 8.73502L289.149 10.8654L294.559 8.21206C298.62 8.49226 302.63 8.87411 306.565 9.3549C309.861 10.062 313.682 10.3015 317.379 10.0327C319.65 9.8626 321.995 9.97342 324.089 10.3463C523.788 2.72488 792.917 5.39648 1077.5 8.22145C1257.72 10.0105 1444.13 11.861 1623.03 11.1977C1623.48 11.159 1623.92 11.1191 1624.36 11.0782C1627.84 10.7531 1631.47 10.6909 1635.1 10.6287C1639.04 10.5612 1642.97 10.4938 1646.69 10.0906C1653.8 9.32546 1660.95 9.21161 1668.11 9.09777C1671.64 9.04161 1675.17 8.98545 1678.69 8.85109C1679.56 8.82033 1680.43 8.7909 1681.3 8.76141L1681.31 8.76125C1683.73 8.67938 1686.17 8.59683 1688.61 8.48299C1690.61 8.237 1692.68 8.08107 1694.76 8.01819C1703.7 8.33011 1712.53 7.91155 1721.38 7.49228C1727.92 7.18265 1734.46 6.87264 1741.05 6.85618C1744.83 6.85618 1748.61 6.59328 1752.42 6.32868C1756.27 6.06065 1760.16 5.79087 1764.08 5.79087C1766.37 4.99065 1768.87 5.13321 1771.42 5.27833C1773 5.36852 1774.6 5.4597 1776.18 5.32607C1781.73 4.87918 1787.36 4.60859 1793 4.33777L1793 4.33776C1796.9 4.15085 1800.79 3.96382 1804.66 3.71866C1811.21 3.30365 1817.74 2.80533 1824.6 2.28134L1824.6 2.28131L1824.6 2.28129L1824.6 2.28104C1827.67 2.04708 1830.8 1.80799 1834.03 1.5689L1841.72 4.43524C1844.56 4.5513 1847.42 4.5513 1850.25 4.43523C1854.95 4.05959 1859.58 3.63195 1864.19 3.20561L1864.19 3.20561C1869.33 2.73073 1874.45 2.25746 1879.63 1.85945C1885.74 1.37303 1891.95 1.08785 1898.18 1.00715C1899.56 1.00715 1900.99 1.43532 1902.43 1.8679C1903.11 2.07271 1903.8 2.27851 1904.48 2.44032C1913.3 1.07087 1922.6 0.247484 1932.07 4.71178e-06C1926.56 1.41168 1920.44 2.42226 1914.01 2.98267C1904.11 3.69186 1894.28 4.61266 1884.43 5.5344L1884.43 5.53441L1884.43 5.53443C1881.64 5.79575 1878.85 6.05714 1876.05 6.31381C1874.24 6.47839 1872.49 6.73399 1870.03 7.09144L1870.03 7.09146L1870.03 7.0915L1870.03 7.09162L1870.03 7.09172C1868.73 7.28104 1867.24 7.49893 1865.44 7.74698C1868.21 7.97378 1871.04 8.10355 1873.87 8.13447C1875.51 8.07487 1877.13 7.94784 1878.76 7.82091C1880.83 7.65914 1882.9 7.49751 1884.98 7.47581C1887.18 7.55937 1889.38 7.67481 1891.55 7.82182C1905.73 7.48889 1919.8 7.12847 1933.75 6.73901C1935.92 6.54625 1938.07 6.33349 1940.21 6.10079L1941.4 6.10079L1967.44 5.36481C1968.12 5.86603 1968.13 6.23552 1967.74 6.51133L1967.74 1326.94L1818.09 1331.17ZM24.1241 1326.05C36.223 1327.05 48.6192 1327.43 60.9932 1327.17L24.1241 1326.05ZM351.377 1340.94C348.936 1341.66 347.942 1341.95 347.01 1341.82C346.371 1341.73 345.761 1341.43 344.734 1340.94L344.73 1340.94L351.377 1340.94ZM303.747 1338.92L303.747 1339.29L299.183 1339.29L299.183 1338.8L303.747 1338.92ZM337.586 1341.01L338.826 1341.01L337.683 1341.38L337.586 1341.01ZM280.43 1337.97L280.43 1338.17L279.735 1338.17L280.43 1337.97Z" fill="#F2DAA3"/>
<g clip-path="url(#clip0_277_26611)">
<path d="M-9.45316 83.2052C-9.45316 81.719 -9.90435 79.1973 -10.2653 76.7204C-12.8373 59.4719 -5.4824 47.628 9.72377 39.972C12.0615 38.9805 14.1215 37.4346 15.7251 35.4685C23.802 23.1289 36.9776 20.7868 49.7471 18.3549C62.8052 16.1921 76.2138 18.3587 87.9206 24.5242C103.398 31.9099 118.017 40.4672 125.598 56.6348C131.96 70.1454 138.864 83.6555 135.299 100.048C134.197 106.05 131.656 111.696 127.892 116.503C124.128 121.311 119.253 125.137 113.685 127.655C108.874 129.772 104.559 132.869 101.016 136.746C97.4727 140.624 94.7797 145.197 93.1095 150.173C84.3558 173.862 63.4193 181.697 40.0009 172.24C28.5105 167.711 18.8364 159.528 12.4762 148.957C1.80223 132.723 -5.68543 114.613 -9.58866 95.5899C-10.0878 93.5467 -10.4346 91.4699 -10.6264 89.3756C-10.4403 87.2853 -10.0472 85.2181 -9.45316 83.2052Z" fill="#F2DAA3"/>
</g>
<defs>
<clipPath id="clip0_277_26611">
<rect width="158.614" height="147.008" fill="white" transform="translate(136.201 17.4089) rotate(90)"/>
</clipPath>
</defs>
</svg>
