<svg width="673" height="1024" viewBox="0 0 673 1024" fill="none" xmlns="http://www.w3.org/2000/svg">
<path fill-rule="evenodd" clip-rule="evenodd" d="M688.185 77.5003C688.248 76.2781 688.376 75.0914 688.503 73.9138L688.503 73.9125C688.783 71.3138 689.057 68.7601 688.628 65.9695C688.594 65.7041 688.672 65.3626 688.754 65.0033L688.754 65.0028C688.815 64.737 688.877 64.4615 688.899 64.1998C689 63.16 689.047 62.0913 689.039 61.02C689.005 55.1964 689.223 49.3805 689.69 43.6803C689.852 40.8599 690.104 38.0792 690.357 35.298L690.357 35.2935L690.357 35.2922C690.603 32.5868 690.849 29.8808 691.011 27.1372C691.202 24.1436 691.599 21.2596 692.183 18.6208C692.642 16.4388 693.16 14.3326 693.678 12.2265C694.573 8.58899 695.468 4.95152 696.058 0.923027C696.123 0.648586 696.214 0.42054 696.322 0.25925C696.431 0.097959 696.553 0.00890894 696.679 0C696.999 0.102598 697.469 0.564137 697.55 1.12842C697.731 2.73214 697.861 4.37078 697.94 6.02785C698.521 6.2074 699.112 6.3869 699.893 6.61774L699.83 7.98242L699.829 7.99823C699.693 10.9607 699.565 13.7392 699.452 16.518C699.141 24.059 698.841 31.5744 698.551 39.1153C698.522 39.865 698.492 40.6172 698.462 41.3714L698.461 41.4154L698.458 41.4678C698.355 44.088 698.25 46.7315 698.18 49.375C698.06 53.6072 697.96 57.8906 697.9 62.1997C697.991 65.6196 697.961 69.0536 697.81 72.4595C697.318 77.8019 697.194 83.2084 697.071 88.61C697.003 91.559 696.936 94.5065 696.809 97.4413C696.796 97.726 696.784 98.0106 696.772 98.2953L696.753 98.7303C696.66 100.866 696.567 103.001 696.508 105.136C696.317 112.256 696.326 119.412 696.334 126.559V126.56V126.561V126.562V126.563V126.564C696.336 128.04 696.338 129.516 696.338 130.991C696.346 140.419 696.819 149.758 697.292 159.087L697.292 159.09L697.294 159.12C697.44 162.013 697.587 164.905 697.72 167.798C697.756 168.594 697.792 169.39 697.828 170.185C698.104 176.284 698.38 182.37 698.531 188.497C698.696 195.312 698.821 202.133 698.947 208.954V208.956V208.957V208.959V208.96V208.962C699.079 216.181 699.212 223.4 699.392 230.613C699.59 238.612 699.854 246.602 700.118 254.594C700.267 259.107 700.416 263.621 700.553 268.139C700.629 270.672 700.683 273.213 700.738 275.753L700.738 275.757L700.739 275.762L700.739 275.766L700.739 275.771L700.739 275.775C700.786 277.959 700.834 280.143 700.894 282.322C701.014 286.554 701.154 290.863 701.304 295.147C701.332 295.93 701.383 296.705 701.434 297.479C701.509 298.63 701.585 299.778 701.585 300.944C701.621 303.298 701.661 305.65 701.702 308.002V308.003V308.005V308.007V308.008V308.01C701.828 315.367 701.955 322.717 701.955 330.082C701.951 331.491 701.999 332.885 702.048 334.278C702.109 336.028 702.17 337.775 702.125 339.546C702.04 341.522 702.068 343.345 702.099 345.368C702.105 345.739 702.111 346.118 702.116 346.505L702.119 346.742C702.122 346.906 702.123 347.073 702.125 347.241C702.138 348.403 702.162 349.566 702.186 350.727L702.186 350.734C702.221 352.388 702.255 354.038 702.255 355.68C702.255 357.465 702.247 359.25 702.238 361.036V361.038V361.045C702.22 364.619 702.202 368.197 702.255 371.787C702.309 374.788 702.299 377.814 702.289 380.85V380.854V380.859V380.863V380.868V380.872C702.277 384.679 702.264 388.501 702.376 392.306C702.496 396.282 702.552 400.269 702.607 404.257V404.258V404.259V404.26V404.261V404.262C702.667 408.532 702.726 412.802 702.866 417.059C702.82 419.182 702.851 421.311 702.956 423.42C703.219 426.492 703.31 429.644 703.227 432.782C703.215 437.298 703.308 441.812 703.507 446.299C703.792 450.534 703.922 454.827 703.898 459.124C703.834 465.892 703.911 472.664 704.128 479.412C704.139 480.226 704.083 481.087 704.028 481.941C703.94 483.29 703.854 484.621 704.038 485.721C704.508 488.561 704.477 491.434 704.445 494.297V494.298V494.3V494.302V494.304C704.428 495.886 704.41 497.465 704.478 499.034C704.746 505.105 704.837 511.217 704.928 517.33C704.959 519.431 704.991 521.532 705.029 523.632C705.06 525.734 705.12 527.833 705.181 529.932C705.337 535.338 705.492 540.738 705.139 546.151C705.04 546.988 705.04 547.88 705.139 548.716C705.836 552.222 705.737 555.872 705.64 559.47C705.621 560.163 705.602 560.853 705.59 561.541C705.496 566.661 705.653 571.749 705.809 576.838C705.971 582.073 706.132 587.309 706.02 592.577C705.901 598.118 705.86 603.714 705.819 609.327L705.818 609.34C705.79 613.153 705.762 616.974 705.71 620.791C705.643 625.733 705.503 630.649 705.289 635.54C705.043 639.724 704.939 643.955 704.979 648.185C705.02 649.867 704.89 651.534 704.76 653.195C704.545 655.941 704.331 658.67 704.899 661.419C704.909 661.527 704.908 661.639 704.898 661.746C704.887 661.853 704.867 661.953 704.839 662.036C704.303 663.597 704.375 665.3 704.448 667.019L704.448 667.022C704.473 667.617 704.498 668.214 704.498 668.807C704.543 672.848 704.295 676.874 703.767 680.683C703.702 681.069 703.605 681.47 703.505 681.884L703.505 681.887C703.148 683.369 702.75 685.018 703.587 686.762C703.622 686.836 703.552 687.179 703.474 687.563L703.474 687.564C703.417 687.841 703.356 688.141 703.327 688.378C703.27 688.864 703.191 689.368 703.112 689.873C702.923 691.075 702.733 692.284 702.846 693.277C703.036 694.312 703.105 695.465 703.045 696.598C702.984 697.732 702.797 698.796 702.506 699.663C702.365 700.023 702.412 700.668 702.459 701.309V701.31L702.46 701.314L702.46 701.319C702.465 701.388 702.47 701.457 702.475 701.526C702.478 701.571 702.481 701.616 702.484 701.66L702.49 701.756C702.493 701.809 702.496 701.862 702.498 701.914C702.499 701.944 702.5 701.974 702.502 702.003C702.504 702.08 702.506 702.155 702.506 702.228V710.539C702.506 711.286 702.463 712.039 702.42 712.789C702.378 713.533 702.335 714.273 702.335 715.001C702.456 722.999 702.295 731.009 701.855 738.932C701.726 741.266 701.711 743.611 701.696 745.959C701.679 748.542 701.662 751.128 701.494 753.707C701.429 756.937 701.429 760.172 701.494 763.402C701.453 765.256 701.373 767.11 701.293 768.964L701.293 768.969C701.179 771.627 701.064 774.286 701.064 776.944C701.086 779.495 700.756 781.983 700.133 783.973C700.397 785.206 700.583 786.54 700.683 787.923C700.676 788.906 700.676 789.894 700.676 790.884C700.675 795.268 700.673 799.691 700.053 803.876C700.045 803.929 700.036 803.983 700.027 804.038C700 804.201 699.967 804.371 699.935 804.543C699.823 805.128 699.708 805.736 699.772 806.159C700.195 808.883 700.066 811.674 699.938 814.464V814.465V814.465C699.89 815.511 699.841 816.557 699.822 817.599C699.697 823.797 699.409 829.967 698.961 836.067C698.86 837.399 698.835 838.783 698.81 840.17C698.75 843.457 698.69 846.76 697.62 849.43C697.469 849.712 697.409 850.328 697.469 850.61C697.761 852.206 697.619 853.789 697.475 855.383C697.333 856.964 697.19 858.555 697.469 860.177C697.59 861.441 697.59 862.76 697.469 864.024C697.383 866.286 697.187 868.51 696.991 870.737C696.709 873.938 696.427 877.148 696.468 880.491C696.366 883.279 696.162 886.036 695.857 888.724C695.679 891.814 695.494 894.909 695.307 898.01C694.98 903.456 694.653 908.915 694.366 914.374C694.035 920.581 693.675 926.737 693.274 932.918C693.114 937.002 692.778 941.028 692.273 944.923C691.676 949.654 691.263 954.525 691.041 959.466C690.951 960.729 690.951 962.025 691.041 963.288C691.363 969.88 691.127 976.572 690.35 982.91C690.209 983.964 690.018 984.999 689.828 986.037C689.303 988.888 688.774 991.767 689.229 995.169C689.266 995.437 689.175 995.8 689.081 996.177L689.079 996.185L689.076 996.195L689.06 996.259C689.051 996.295 689.042 996.33 689.034 996.366L689.019 996.427C689.012 996.457 689.005 996.486 688.999 996.515C688.97 996.642 688.945 996.767 688.929 996.888C688.729 998.288 688.527 999.688 688.326 1001.09C687.788 1004.82 687.251 1008.55 686.756 1012.28C686.499 1014.24 686.295 1016.24 686.091 1018.24C685.954 1019.58 685.818 1020.93 685.665 1022.26C685.563 1023.19 685.375 1023.98 684.972 1023.73L684.96 1024.13L35.4999 1023C32.702 1021.54 30.1325 1018.69 27.7743 1014.56C27.3952 1014.58 27.0191 1014.58 26.9651 1014.5C26.8566 1014.34 26.7657 1014.11 26.7006 1013.84C26.6071 1013.2 26.5061 1012.57 26.3985 1011.95C23.1489 1005.32 20.323 996.084 17.8704 984.523C17.4443 984.565 17.0176 984.61 16.5909 984.659C16.5609 983.879 16.5298 983.096 16.4987 982.311L16.4834 981.926C16.7297 981.714 16.9724 981.507 17.2097 981.308C16.8932 979.718 16.5832 978.087 16.2796 976.416C16.3389 978.258 16.4109 980.097 16.4834 981.926C15.9776 982.361 15.4568 982.817 14.9367 983.273C11.9985 985.849 9.08095 988.406 9 987C8.86852 985.394 8.65591 983.231 8.41911 980.821L8.41899 980.82L8.41863 980.816L8.41851 980.815C7.81494 974.673 7.05447 966.936 7.07897 962.754C7.08682 961.683 7.03967 960.614 6.93878 959.574C6.9175 959.313 6.8546 959.037 6.79393 958.771C6.71187 958.412 6.63389 958.07 6.66842 957.805C7.09735 955.014 6.8226 952.46 6.54301 949.862C6.41143 948.639 6.27879 947.406 6.21791 946.134C6.20339 945.839 6.18859 945.544 6.17377 945.248C5.92285 940.244 5.66571 935.115 6.6584 930.078L5.26664 926.769C5.27351 924.53 5.21995 922.294 5.10641 920.075C5.06034 918.609 5.15669 917.137 5.38679 915.79C5.43236 915.323 5.33679 914.842 5.23718 914.34C5.07417 913.518 4.90035 912.643 5.31675 911.687C5.45693 911.354 5.31678 910.122 5.21665 909.455C4.70738 906.691 4.5497 903.587 4.76602 900.581C4.97473 898.84 5.26378 897.17 5.62708 895.605L4.32552 892.835V892.832C4.32552 891.114 4.32552 889.191 4.48563 887.294C4.65661 885.465 4.65661 883.558 4.48563 881.728C4.31917 880.227 4.49811 878.522 4.67791 876.809C4.76847 875.946 4.85925 875.081 4.9062 874.239C4.9062 873.969 4.78347 873.649 4.66176 873.332C4.60965 873.196 4.55772 873.061 4.5157 872.93L5.61705 867.929L4.24534 865.133C4.3902 863.033 4.58761 860.96 4.83617 858.926C5.20171 857.222 5.32552 855.246 5.18658 853.335C5.09863 852.161 5.15594 850.949 5.34876 849.866C1.40867 746.626 2.78985 607.492 4.25031 460.371C5.1752 367.201 6.13189 270.828 5.78902 178.34C5.76896 178.111 5.74834 177.882 5.72715 177.653C5.5591 175.857 5.52692 173.979 5.49478 172.103C5.4599 170.067 5.42507 168.033 5.21662 166.111C4.82104 162.435 4.76218 158.736 4.70333 155.038C4.6743 153.213 4.64526 151.388 4.5758 149.566C4.55989 149.118 4.54466 148.667 4.5294 148.216L4.52936 148.215C4.48703 146.962 4.44436 145.699 4.3855 144.437C4.25833 143.403 4.17772 142.337 4.14521 141.257C4.30647 136.639 4.09008 132.072 3.87333 127.497C3.71326 124.119 3.55299 120.736 3.54448 117.326C3.54448 115.376 3.40857 113.42 3.27178 111.452C3.13321 109.457 2.99374 107.45 2.99374 105.424C2.58004 104.238 2.65375 102.944 2.72877 101.627C2.7754 100.809 2.82253 99.9817 2.75345 99.1657C2.52242 96.2975 2.38253 93.3847 2.24252 90.4694L2.24251 90.4693C2.14588 88.4573 2.0492 86.4441 1.92245 84.4436C1.7079 81.0572 1.45028 77.6829 1.17938 74.1347L1.17937 74.1345L1.17921 74.1325L1.17913 74.1314L1.17911 74.1311L1.17899 74.1296C1.05812 72.5464 0.934597 70.9285 0.811076 69.2593L2.29291 65.2829C2.35292 63.8164 2.35292 62.3385 2.29291 60.872C2.09871 58.4452 1.87763 56.0526 1.65723 53.6673L1.65722 53.6673C1.41172 51.0104 1.16705 48.3625 0.961288 45.6865C0.709822 42.5261 0.562389 39.3178 0.520672 36.0943C0.520672 35.3806 0.742027 34.6432 0.965658 33.8983C1.07154 33.5456 1.17794 33.1911 1.26159 32.8367C0.553613 28.2804 0.127941 23.4686 0 18.5755C0.729804 21.4236 1.25225 24.5872 1.54197 27.9123C1.90861 33.028 2.38464 38.1127 2.86116 43.2025L2.86117 43.2026L2.86117 43.2027L2.86118 43.2028L2.86119 43.2029C2.99628 44.6458 3.13141 46.0892 3.2641 47.5338C3.34918 48.4727 3.48132 49.3789 3.66611 50.6461C3.76402 51.3176 3.87671 52.0904 4.00502 53.0231C4.12226 51.5878 4.18935 50.128 4.20534 48.6622C4.17452 47.8164 4.10886 46.9758 4.04324 46.1357C3.9596 45.065 3.87605 43.9953 3.86482 42.9174C3.90803 41.7797 3.96773 40.6466 4.04376 39.5205C3.87165 32.1934 3.68534 24.9203 3.48401 17.7053C3.38434 16.5875 3.27431 15.475 3.15397 14.3687V13.7538L2.77349 0.28783C3.03253 -0.0614267 3.22351 -0.067228 3.36608 0.133728H686L688.185 77.5003ZM685.541 1004.94C686.058 998.687 686.253 992.278 686.118 985.881L685.541 1004.94ZM693.234 835.759C693.608 837.021 693.76 837.535 693.691 838.016C693.643 838.347 693.491 838.663 693.234 839.195V835.759ZM692.193 860.382H692.383V862.742H692.133L692.193 860.382ZM693.274 842.889V842.247L693.464 842.839L693.274 842.889ZM691.702 872.437H691.802V872.796L691.702 872.437Z" fill="#9CE6E1"/>
</svg>
