<svg width="555" height="1024" viewBox="0 0 555 1024" fill="none" xmlns="http://www.w3.org/2000/svg">
<rect width="555" height="1024" fill="#F6D3C7"/>
<g opacity="0.6" clip-path="url(#clip0_676_6373)">
<path fill-rule="evenodd" clip-rule="evenodd" d="M164.977 156.687C159.051 154.4 153.337 157.802 147.315 155.089C135.372 149.715 122.341 146.751 111.886 138.232C109.574 136.35 106.25 135.126 106.166 131.788C106.024 126.027 102.217 124.056 97.7919 122.283C95.4794 121.356 91.8143 121.871 91.4213 118.54C91.0284 115.208 92.3747 111.954 94.6421 109.325C95.6856 108.126 98.2558 108.32 98.2622 106.393C98.2622 104.685 101.451 102.056 97.0319 101.109C94.6678 100.606 94.8869 98.5829 96.5681 97.597C99.1447 96.1149 101.464 94.1882 104.594 93.7306C108.571 93.0956 112.232 91.1766 115.017 88.2662C128.853 74.3603 148.191 67.7489 167.786 67.6007C177.757 67.5298 187.755 66.6534 197.514 68.593C215.685 72.2209 229.721 81.4357 236.259 99.9812C238.316 105.851 241.191 111.4 244.801 116.465C246.663 119.042 249.123 121.304 247.693 124.159C245.535 128.476 247.403 134.172 242.205 137.51C236.292 141.319 230.404 144.708 223.415 146.21C214.049 148.227 204.277 149.116 196.051 154.832C193.951 156.288 191.484 155.772 189.243 155.811C181.017 155.927 172.881 158.511 164.977 156.687Z" fill="#E0B36E"/>
<path fill-rule="evenodd" clip-rule="evenodd" d="M147.018 176.206C154.748 178.1 161.576 176.07 168.443 177.076C181.384 178.964 194.441 180.008 207.395 181.818C212.509 182.534 212.728 183.9 210.081 189.609C209.81 190.208 209.095 191.001 209.269 191.336C212.361 197.277 206.744 202.548 208.29 208.793C209.694 214.457 211.756 220.675 209.05 226.893C208.445 228.285 210.338 229.677 211.33 231.011C214.699 235.464 213.791 239.079 208.818 240.948C204.953 242.391 200.908 243.261 196.927 244.331C195.336 244.762 193.243 244.53 192.173 245.49C181.957 254.583 169.293 251.58 157.486 252.895C143.823 254.409 131.449 248.919 118.579 246.109C112.917 244.872 106.804 245.42 101.869 241.083C97.8047 237.506 94.5066 232.841 88.1617 232.126C85.1148 231.784 85.7139 226.674 83.4722 224.934C78.5122 221.068 78.1967 214.508 73.8744 210.249C70.9693 207.381 71.7615 202.819 74.0934 200.1C76.4252 197.38 78.9696 195.035 79.034 191.02C79.034 189.087 80.7217 188.585 82.5318 188.224C92.1297 186.323 101.212 181.934 111.325 182.424C111.961 182.333 112.56 182.07 113.058 181.664C123.932 174.853 136.125 176.947 147.018 176.206Z" fill="#E0B36E"/>
<path fill-rule="evenodd" clip-rule="evenodd" d="M398.252 241.508C402.813 241.147 405.879 239.304 405.75 234.484C405.711 232.809 405.447 230.38 407.257 230.141C416.024 228.981 410.761 220.778 414.092 216.912C414.955 215.907 413.879 214.257 412.597 213.69C409.312 212.227 410.304 209.27 409.969 206.776C408.88 198.579 408.938 198.399 417.055 200.216C421.429 201.208 427.168 198.76 429.809 204.978C430.208 205.919 432.308 205.339 433.397 204.417C437.32 201.099 442.602 200.841 447.047 198.096C452.116 194.964 459.286 197.799 465.469 198.27C473 198.837 480.465 200.693 487.847 202.446C491.734 203.375 495.278 205.385 498.07 208.245C500.408 210.61 502.805 213.239 505.716 214.631C515.166 219.142 516.429 228.163 518.541 236.778C519.186 239.356 519.379 242.391 517.292 244.292C512.969 248.229 510.708 253.487 507.584 258.179C503.803 263.869 497.806 266.878 491.873 268.186C476.04 271.679 460.014 274.031 443.768 269.668C436.785 267.793 429.526 266.994 422.446 265.434C416.005 264.004 416.559 256.793 411.084 255.885C412.018 246.76 402.825 246.638 398.252 241.508Z" fill="#E0B36E"/>
<path fill-rule="evenodd" clip-rule="evenodd" d="M318.472 143.542C328.617 143.291 337.661 146.281 346.518 150.92C349.656 152.57 351.891 154.264 353.804 157.145C357.669 162.944 361.727 168.783 367.537 172.662C370.037 174.331 369.283 175.239 368.826 177.172C367.202 184.441 364.123 191.349 363.479 198.843C362.977 204.578 358.139 206.847 354.216 208.303C344.683 211.828 335.536 216.229 325.184 218.014C308.249 220.92 293.537 215.436 278.373 209.869C274.624 208.496 276.28 202.362 270.875 203.302C266.953 203.992 264.853 201.672 264.131 197.735C263.899 196.446 262.005 196.491 260.704 196.169C256.434 195.093 254.089 191.955 252.575 188.056C252.148 187.149 251.861 186.182 251.725 185.189C251.506 181.561 245.142 181.11 246.881 177.301C248.523 173.712 252.962 176.56 255.899 175.42C257.535 174.775 260.614 174.653 259.629 171.901C257.554 166.147 262.456 162.687 264.138 158.498C266.263 153.285 271.867 150.121 278.161 150.579C282.354 150.888 286.078 148.233 289.53 148.239C299.598 148.259 308.52 142.401 318.472 143.542ZM349.005 186.716C354.197 183.423 353.843 180.008 349.404 176.496C349.198 179.911 344.747 183.23 349.005 186.722V186.716Z" fill="#E0B36E"/>
<path fill-rule="evenodd" clip-rule="evenodd" d="M317.211 96.2437C319.35 93.6082 321.894 95.6315 323.936 94.8003C325.366 94.2268 326.223 92.2678 325.224 91.7459C319.253 88.6528 323.498 86.3523 325.514 83.7361C326.081 83.0015 326.216 81.9383 326.5 81.1586C325.211 77.4856 321.011 81.7127 319.82 78.1815C321.868 75.8166 324.883 79.6056 326.996 77.3696C328.535 75.7457 327.981 72.4787 330.861 71.9503C338.642 70.5262 346.134 66.4536 354.243 68.2643C358.424 69.1987 361.741 69.1472 365.581 67.0142C369.31 64.9457 374.09 63.7536 378.058 65.2744C384.029 67.562 389.569 66.9885 395.598 66.0863C401.396 65.2099 407.676 65.4419 412.778 68.999C415.908 71.1963 419.219 69.6434 422.343 70.655C427.413 72.2789 428.482 73.1037 426.208 77.9817C423.696 83.3108 426.208 86.7196 429.345 90.2638C433.21 94.6585 438.074 98.6408 433.784 105.587C432.927 106.973 434.466 109.66 433.906 111.432C432.695 115.298 438.731 116.065 437.075 119.558C436.006 121.794 430.563 120.202 432.031 125.273C432.457 126.743 430.138 127.155 429.017 127.078C427.855 126.963 426.687 127.227 425.687 127.831C424.687 128.435 423.91 129.346 423.471 130.429C419.309 139.295 411.599 138.329 404.069 137.607C396.126 136.853 388.12 136.318 380.473 133.741C372.331 130.976 363.861 129.823 355.351 128.876C349.767 128.231 344.671 126.195 341.386 122.097C337.334 117.057 331.569 114.28 327.35 109.615C325.295 107.347 321.823 106.754 324.091 101.792C325.508 98.7504 319.414 98.4089 317.211 96.2437Z" fill="#E0B36E"/>
<path fill-rule="evenodd" clip-rule="evenodd" d="M301.133 238.712C305.999 240.735 311.431 240.944 316.438 239.298C319.504 238.377 322.396 238.944 325.34 239.298C327.485 239.556 329.753 240.587 327.575 243.01C325.134 245.71 326.377 248.655 327.575 250.324C331.576 255.988 332.226 263.521 337.972 268.186C340.897 270.557 343.473 273.431 339.846 277.42C339.255 278.028 338.882 278.816 338.788 279.66C338.693 280.504 338.882 281.355 339.325 282.079C343.074 288.523 337.998 292.834 335.35 297.415C332.98 301.52 328.593 301.482 324.786 299.188C321.965 297.486 319.401 297.254 318.28 300.328C315.581 307.751 309.153 306.469 303.542 307.494C286.304 310.645 270.426 302.571 253.704 301.533C252.493 301.456 251.314 300.425 250.18 299.735C239.326 293.143 229.149 285.759 221.122 275.706C219.093 273.128 217.103 270.313 213.393 268.792C215.679 268.147 218.088 267.806 220.208 266.813C221.709 266.111 223.003 263.933 220.794 263.018C215.982 261.027 219.86 258.282 219.506 255.93C219.093 252.94 225.567 251.052 220.44 247.282C219.08 246.277 222.024 244.704 223.499 244.866C228.562 245.375 233.162 244.305 237.806 242.288C242.959 240 245.124 241.682 245.942 247.862C246.071 248.841 246.219 249.872 247.404 250.22C247.894 250.249 248.38 250.108 248.78 249.822C249.179 249.536 249.469 249.122 249.6 248.648C250.554 245.542 250.593 241.483 254.226 240.464C258.09 239.395 262.187 240.116 266.11 241.147C267.173 241.425 267.92 242.004 267.92 243.132C267.92 244.756 266.632 245.897 265.427 245.62C263.34 245.123 261.562 245.903 259.591 245.98C256.087 246.129 254.657 247.656 255.894 251.136C256.931 254.061 257.91 256.851 254.122 258.752C252.937 259.351 253.768 260.563 254.367 261.33C255.102 262.258 255.99 262.129 256.751 261.272C261.981 255.401 269.595 252.946 275.599 248.107C279.193 245.214 283.734 243.403 288.031 241.521C290.15 240.587 292.926 238.737 294.949 241.573C296.791 244.15 299.097 247.108 295.4 250.117C294.588 250.762 293.841 251.599 294.562 252.45C295.786 253.893 297.184 252.656 298.06 251.941C301.957 248.719 303.271 244.556 301.133 238.712ZM281.344 250.807C280.848 251.155 279.979 251.574 280.024 251.773C280.32 253.062 278.736 254.493 280.269 255.64C280.288 253.984 282.588 252.798 281.344 250.807Z" fill="#E0B36E"/>
<path fill-rule="evenodd" clip-rule="evenodd" d="M452.412 140.23C455.343 138.168 458.602 140.088 461.314 138.103C463.447 136.544 464.877 136.273 464.606 132.413C463.962 123.128 467.93 119.667 477.219 118.81C479.795 118.572 479.95 118.604 481.27 113.739C481.753 111.954 483.203 112.27 484.169 111.599C488.974 108.377 494.295 110.639 498.489 111.812C503.642 113.262 507.758 113.101 511.848 110.382C514.038 108.932 516.241 108.758 518.509 108.983C529.054 110.014 539.592 111.2 550.124 112.379C554.491 112.862 557.506 114.886 558.62 119.467C559.73 124.523 562.137 129.202 565.603 133.045C568.972 136.763 566.975 143.303 570.363 147.769C570.705 148.226 569.623 150.43 568.682 151.081C563.774 154.464 562.975 159.407 562.034 164.839C561.442 168.28 558.878 170.786 554.305 172.571C547.367 175.259 539.747 174.556 533.099 178.745C526.277 183.043 518.058 179.814 510.554 179.55C498.45 179.138 487.325 174.576 477.824 167.114C473.154 163.453 469.154 158.273 466.332 153.349C463.62 148.613 461.598 145.101 456.026 144.328C454.454 144.09 453.243 142.678 452.412 140.23Z" fill="#E0B36E"/>
<path fill-rule="evenodd" clip-rule="evenodd" d="M644.616 76.4224C646.129 80.2887 643.256 84.2968 644.892 88.1953C645.124 88.7366 645.195 89.8643 644.938 90.006C637.852 93.9948 638.219 100.387 638.496 107.289C638.625 110.742 636.415 114.022 631.996 115.021C627.829 115.988 623.9 117.934 619.822 119.332C617.356 120.257 614.715 120.618 612.092 120.389C607.448 119.938 605.651 113.488 602.894 114.229C599.08 115.24 595.75 117.141 591.634 115.756C579.601 111.722 568.927 106.09 563.066 93.8466C561.861 91.3206 561.094 90.7536 563.954 88.6915C566.563 86.8163 562.55 85.3471 561.681 83.5815C560.167 80.5336 552.121 80.3596 557.333 74.2701C555.4 69.4436 558.305 66.6406 561.004 62.974C568.509 52.7991 578.255 50.3633 589.817 52.9086C593.99 53.8251 598.269 54.1612 602.533 53.9074C609.206 53.4499 609.116 56.6396 607.937 60.7959C607.293 63.0964 607.119 64.6623 609.226 65.79C611.081 66.763 611.802 65.036 613.09 64.0501C616.311 61.5692 620.105 59.7907 623.635 57.6771C624.833 56.9618 626.212 56.2337 627.371 57.0327C633.671 61.3179 642.367 59.2687 648.158 65.4097C648.738 69.4243 642.677 71.9503 644.719 76.7574C643.778 75.2367 642.309 72.0534 640.969 74.7147C639.217 78.1944 635.9 81.4164 636.647 85.9593C643.675 86.9259 643.733 86.9324 644.216 81.2617C644.345 79.6314 643.514 77.9496 644.616 76.4224ZM595.415 63.3735C593.18 62.22 590.133 61.7045 589.386 63.9534C588.548 66.4408 589.308 69.6821 590.062 72.4014C590.558 74.1541 592.639 74.3345 594.114 73.1037C595.589 71.873 596.69 70.1847 598.095 68.8379C599.499 67.4911 601.315 66.1766 600.323 63.947C599.132 61.2985 597.064 63.2897 595.415 63.3735ZM633.504 65.4162C632.132 69.8303 631.32 74.0059 634.464 78.304C638.535 73.2906 638.238 69.2245 633.504 65.4162ZM628.022 78.5231C627.797 77.3374 627.533 76.0164 626.09 75.6297C623.835 75.024 622.289 76.2741 621.613 78.2073C621.078 79.7152 621.271 81.7128 623.474 81.7128C624.476 81.7497 625.463 81.458 626.284 80.8822C627.105 80.3064 627.715 79.478 628.022 78.5231ZM613.406 94.3235C613.515 93.66 613.422 92.9791 613.14 92.369C612.857 91.7589 612.398 91.2478 611.822 90.9018C610.849 90.3218 609.889 90.8631 609.741 92.0165C609.586 93.3633 609.799 94.7939 611.19 95.4383C612.169 95.8958 613.052 95.4511 613.406 94.3235Z" fill="#E0B36E"/>
<path fill-rule="evenodd" clip-rule="evenodd" d="M553.235 263.411C553.995 267.664 557.293 269.913 560.392 273.251C555.715 274.617 551.927 276.415 549.505 272.903C546.645 268.721 553.351 267.471 553.235 263.411Z" fill="#E0B36E"/>
</g>
<g opacity="0.6" clip-path="url(#clip1_676_6373)">
<g filter="url(#filter0_d_676_6373)">
<path fill-rule="evenodd" clip-rule="evenodd" d="M437.454 892.194C433.96 897.65 429.706 897.607 425.99 892.922C424.111 890.558 422.823 888.489 419.455 888.7C414.641 889.028 409.796 889.133 404.982 889.386C404.676 889.386 404.412 889.935 404.117 890.199C402.396 891.75 406.101 898.821 399.989 895.254C396.421 893.143 399.092 887.751 401.161 885.566C407.79 878.548 400.549 879.171 397.287 877.482L397.603 877.641C393.381 870.422 386.508 868.438 378.443 868.681C384.714 865.842 391.259 869.462 397.255 866.571C397.128 860.798 390.045 862.096 388.556 857.706C387.121 853.485 384.27 855.279 381.768 856.587C380.417 857.294 378.675 858.149 379.583 860.123C380.85 862.877 384.27 860.397 386.424 863.109C384.175 865.03 381.61 864.734 379.034 864.439C376.163 864.101 376.29 858.36 371.444 860.714C369.713 861.558 366.483 859.321 363.981 858.497C366.662 857.083 369.259 855.659 372.975 853.675C366.25 853.833 366.25 853.833 364.086 858.561C361.289 861.526 358.28 856.017 355.282 858.835C353.878 860.154 351.862 860.65 351.186 862.888C349.983 866.856 349.434 867.183 347.956 865.41C343.406 859.975 336.681 859.912 330.738 858.023C324.615 856.049 318.957 859.321 313.119 860.323C308.316 861.157 315.41 863.067 312.824 864.935C305.656 870.095 298.319 866.961 294.086 855.69C290.634 859.848 287.573 863.341 281.196 861.516C277.692 860.46 272.698 863.204 269.679 866.866L260.421 869.167C268.687 870.897 269.711 875.688 267.927 881.83L268.075 881.567C267.177 880.342 265.351 880.268 264.908 881.039C261.741 887.012 257.381 889.007 250.941 886.379C250.276 886.115 248.936 887.508 247.775 888.183C250.941 893.46 255.512 895.412 261.339 893.893C265.805 892.742 268.539 895.191 273.152 898.05C269.194 898.736 266.66 898.641 264.644 899.612C259.45 902.135 255.058 903.981 250.54 897.839C249.009 895.729 244.481 893.217 241.198 897.438C245.009 892.394 238.105 888.996 238.4 886.685C241.419 879.941 247.204 889.249 248.841 880.828C243.235 881.799 237.229 877.134 232.731 883.93C220.845 884.068 218.195 887.824 222.988 897.766L223.347 897.438C219.947 896.869 214.152 896.689 214.015 894.41C213.635 888.204 207.892 889.608 205.443 886.643C200.513 880.67 197.346 887.519 193.514 888.985C190.875 890.041 188.837 889.882 187.254 887.508C185.871 885.397 187.138 883.846 188.309 882.126C189.481 880.406 190.674 878.96 192.807 878.485C196.712 877.63 198.022 873.747 200.492 871.341C202.255 869.631 201.843 866.148 199.732 863.785C194.2 868.84 191.086 860.102 186.209 861.421C184.097 859.574 182.239 856.535 179.875 856.144C174.702 855.226 172.485 852.82 172.96 846.646C173.404 854.403 167.112 852.978 164.336 855.511C160.789 858.677 155.563 860.661 153.705 866.064C160.725 867.119 166.616 872.67 174.301 870.845C174.449 872.005 175.114 873.863 174.649 874.2C171.482 876.522 166.753 877.546 169.149 883.382C169.783 884.922 167.735 884.437 166.816 884.796C158.519 888.479 149.134 886.822 140.721 890.072C139.665 890.473 137.29 889.017 137.48 887.371C137.607 886.315 139.591 885.492 141.861 883.614C134.176 884.258 127.757 885.661 120.853 885.819C128.897 886.79 134.83 891.096 140.362 896.045C136.572 894.895 133.806 896.51 129.868 900.931C134.661 898.916 138.092 899.074 140.161 895.813C143.592 896.615 146.495 901.311 149.746 893.618C152.069 888.194 159.247 892.447 164.526 894.674C169.265 896.636 168.379 900.34 166.257 901.069C160.018 903.179 159.564 910.366 154.138 913.078C152.556 913.954 151.235 915.232 150.308 916.784C149.381 918.335 148.881 920.104 148.86 921.911C151.277 923.927 154.254 922.692 156.883 923.283C162.53 924.539 158.033 926.766 157.104 928.56C149.852 927.504 144.215 932.053 138.039 934.416C132.358 936.491 126.271 937.214 120.262 936.527C114.308 936.031 117.095 928.085 111.711 927.821C107.805 927.589 103.551 929.045 100.331 925.415C99.2756 924.222 97.9139 923.304 96.7738 922.101C95.4015 920.708 93.3745 919.431 94.2612 917.078C95.4752 913.838 98.9061 918.196 100.595 915.125C100.183 910.904 86.4601 910.588 96.2354 902.683C95.9508 902.111 95.5962 901.575 95.1798 901.09C93.7441 899.338 89.1838 900.203 91.3056 895.433C93.2586 891.064 96.2143 890.684 100.131 891.328C100.723 891.514 101.365 891.463 101.92 891.185C102.475 890.908 102.901 890.425 103.108 889.84C101.427 888.913 99.6847 888.102 97.8929 887.413C94.5781 886.358 94.367 884.11 93.0896 881.081C90.3238 874.549 95.3275 869.684 94.0502 863.785C92.4772 856.577 95.1058 849.548 96.9849 842.499C98.7942 835.932 101.27 829.567 104.374 823.503C107.246 817.752 108.217 811.051 111.152 805.331C117.486 792.931 124.538 780.869 131.389 768.722C139.887 753.663 147.308 737.823 157.337 723.85C168.073 708.886 176.687 692.434 189.006 678.567C191.392 675.886 192.817 672.351 195.108 669.544C198.211 665.745 198.539 662.072 194.812 658.875C188.943 653.841 190.695 647.931 192.933 642.401C195.593 635.806 197.071 629.104 192.807 623.247C189.64 618.889 196.248 616.916 193.567 612.314C190.4 606.837 197.546 607.27 200.439 605.223C208.884 599.26 215.218 591.082 222.227 583.652C226.756 578.829 230.134 572.55 236.352 569.933C240.11 568.35 234.167 561.047 241.631 562.799C246.191 563.855 246.402 558.388 249.157 556.362C253.38 553.259 257.803 552.921 262.427 552.267C259.946 553.924 256.494 554.99 258.109 559.179C258.205 559.314 258.332 559.425 258.479 559.502C258.625 559.579 258.788 559.62 258.954 559.623C263.757 558.852 261.318 554.737 262.353 552.236C263.546 547.36 262.121 540.627 267.177 538.221C274.82 534.612 281.672 527.584 291.616 530.338C291.742 527.478 285.683 524.185 292.766 521.674C296.641 520.302 299.913 521.568 303.439 521.378C305.065 521.304 307.862 521.062 307.577 520.154C304.41 510.192 312.549 514.223 315.885 513.822C321.301 513.221 323.782 509.443 325.861 505.781C332.089 494.816 343.649 488.516 349.867 477.498C350.348 476.586 351.006 475.778 351.802 475.12C352.598 474.463 353.515 473.97 354.503 473.67C355.49 473.37 356.528 473.268 357.555 473.371C358.582 473.474 359.578 473.779 360.487 474.269C363.654 475.768 367.485 475.757 370.916 476.76C375.994 478.258 378.95 477.361 382.888 472.697C388.789 465.721 395.186 458.978 401.319 452.108L407.98 447.454C417.228 441.46 427.172 438.125 437.634 443.232C445.097 446.905 450.629 444.077 454.978 439.191C462.832 430.379 473.125 424.617 481.623 416.628C484.156 414.243 488.58 413.357 492.179 412.006C502.324 408.164 514.696 406.645 519.13 393.738C520.481 389.791 532.452 387.48 537.878 390.277C541.098 391.944 543.568 391.839 546.894 390.952C561.219 387.153 572.451 392.884 583.208 402.107C592.709 410.212 598.748 420.638 605.894 430.368C609.146 434.79 609.188 440.288 610.032 445.459C610.486 448.235 610.117 451.021 611.088 453.828C613.664 460.93 615.511 461.605 620.726 456.35C626.363 450.662 631.652 444.625 637.342 439.001C639.854 436.368 642.738 434.117 645.903 432.321C654.834 427.561 660.682 427.772 668.515 433.661C672.084 436.352 668.294 438.747 668.727 441.312C669.371 445.164 669.55 448.931 674.459 444.267C676.729 442.156 678.871 442.884 680.719 444.963C682.313 446.768 682.06 449.744 685.29 451.295C688.024 443.908 696.564 442.378 700.903 436.077C701.895 434.632 705.242 433.334 705.558 437.945C705.78 441.248 707.258 439.001 708.335 438.146C712.057 435.065 715.933 432.173 719.947 429.482C723.114 427.508 726.482 422.633 730.504 429.566C731.728 431.677 735.856 429.566 737.703 427.223C743.784 419.551 752.852 421.694 760.59 421.06C763.503 420.818 767.979 420.29 770.344 421.356C778.388 424.976 781.861 421.472 783.793 414.602C784.764 411.14 786.189 410.687 789.736 410.739C797.643 410.845 805.793 411.109 812.528 406.624C815.199 407.5 814.164 409.494 814.692 410.845C815.748 413.536 814.903 418.633 819.843 416.997C823.823 415.678 822.293 411.636 821.269 408.555C820.804 407.162 818.925 406.444 819.273 404.587C823.57 401.643 827.803 406.856 832.743 404.27C835.826 402.656 837.589 407.953 838.761 410.602C840.354 414.589 843.166 417.972 846.794 420.269C851.65 423.498 853.719 421.778 856.96 416.259C858.016 422.59 854.501 427.297 857.562 431.497C860.729 431.867 862.566 429.197 865.047 427.994C867.96 426.569 870.927 424.68 873.186 429.102C875.709 434.062 877.25 426.643 879.657 428.49C882.064 430.337 881.504 433.946 884.365 435.286C885.864 435.982 886.899 435.37 888.471 434.663C897.318 430.643 901.203 432.5 905.267 441.871C907.304 446.588 914.768 448.129 915.243 444.309C916.499 434.927 920.965 441.913 922.369 442.768C927.351 445.807 927.889 451.211 928.217 456.656C928.797 466.428 928.945 466.629 939.006 465.004C942.954 464.36 946.818 465.288 950.85 464.37C955.495 463.315 958.546 467.884 957.184 472.633C954.334 482.722 957.184 486.437 967.308 485.825C970.876 485.603 974.56 485.709 977.97 484.843C980.883 484.032 983.935 483.847 986.925 484.302C989.915 484.757 992.774 485.84 995.314 487.482C999.451 490.158 1004.4 491.28 1009.29 490.648C1017.34 489.592 1022.43 493.022 1025.22 500.388C1018.77 504.609 1019.41 509.886 1019.46 516.735C1019.53 528.238 1028.75 534.253 1031.88 543.582C1032.94 546.748 1034.63 549.703 1029.01 550.146C1028.25 550.199 1028.13 553.66 1029.25 555.644C1035.02 565.531 1037.82 576.863 1037.33 588.296C1044.63 588.802 1044.63 588.802 1051.54 582.829C1055 585.045 1055.06 589.762 1058 592.327C1064.17 597.603 1064.24 597.54 1061.49 603.334C1064.44 605.149 1067.38 605.74 1071.21 603.007C1067.17 597.656 1065.51 591.81 1070.48 585.267C1072.68 587.251 1070.07 592.781 1075.45 592.285C1080.65 591.81 1079.5 597.498 1081.88 599.946C1084.42 602.574 1081.78 607.333 1084.84 610.13C1081.91 607.935 1078.51 615.48 1075.65 609.634C1073.63 605.529 1072.14 606.405 1070.24 610.119C1068.52 613.496 1066.95 616.747 1066.75 621.728C1070.72 618.984 1073.69 616.251 1078.89 618.097C1081.61 619.068 1086.45 615.438 1084.55 609.972C1090.66 618.309 1090.19 620.261 1081.29 622.794C1078.67 623.543 1073.9 622.298 1073.73 624.904C1073.45 630.761 1066.55 633.431 1068.05 640.122C1069.1 644.997 1068.66 650.675 1063.74 654.231C1063.23 654.564 1062.75 654.938 1062.3 655.35C1056.5 655.529 1053.85 659.73 1051.57 664.088C1048.76 669.365 1052.47 669.861 1056.35 669.998C1053.91 674.166 1052.04 678.905 1046.78 681.026C1046.33 679.295 1046.07 678.546 1045.94 677.765C1045.78 676.71 1046.5 675.348 1045.18 674.514C1045.12 685.068 1045.12 685.068 1053.8 686.756C1054.99 686.876 1056.14 687.235 1057.19 687.811C1059.73 689.542 1062.99 690.724 1064.58 687.949C1066.16 685.173 1068 681.722 1065.05 677.902C1061.36 673.121 1064.69 665.924 1070.47 665.238C1080.72 663.961 1080.8 663.94 1077.7 655.128C1076.64 652.163 1075.09 649.398 1073.76 646.538C1080.83 648.058 1077.72 642.813 1077.01 640.755C1074.9 634.592 1078.94 636.703 1081.66 636.798L1081.39 636.639C1085.99 640.249 1090.58 643.319 1094.7 636.027C1098.45 641.715 1100.21 647.245 1099.84 653.967C1099.65 657.471 1099.04 660.732 1097.08 662.716C1093.91 665.882 1091.47 668.067 1093.32 673.48C1095.34 679.422 1087.76 678.989 1085.37 682.26L1085.73 682.123C1078.75 679.664 1078.42 679.886 1075.71 688.529V688.286C1072.83 691.452 1067.17 692.381 1069.93 699.578C1071.7 704.169 1063.5 709.076 1057.64 709.002C1049.4 708.886 1055.89 714.669 1054.81 717.518C1055.11 717.764 1055.48 717.921 1055.87 717.972C1056.21 717.972 1056.55 717.603 1056.92 717.392H1056.86C1059.39 724.315 1053.32 730.055 1054.4 737.073C1054.99 740.904 1049.82 733.063 1048.99 738.466C1048.65 740.746 1050.23 743.479 1048.15 745.157C1047.21 745.906 1044.9 750.592 1043.6 745.157C1043.01 742.666 1039.92 744.281 1039.14 742.276C1042.74 740.45 1046.35 738.73 1046.53 733.833C1046.61 732.166 1046.72 730.53 1044.89 729.908C1042.78 729.201 1040.81 729.823 1040.04 732.018C1038.97 735.319 1038.68 738.824 1039.21 742.255C1031.76 751.267 1022.56 758.665 1015.5 768.078C1013.21 771.128 1009.52 773.26 1006.22 775.392C1002.91 777.523 999.568 778.325 1000.33 783.834C1001.03 788.773 996.792 793.142 992.369 792.625C987.671 792.087 985.771 794.736 983.185 796.783C980.598 798.83 978.656 799.484 976.365 796.245C975.637 795.189 977.558 791.221 973.768 793.174C971.931 794.134 970.601 796.223 971.657 798.281C972.48 799.864 974.381 800.888 976.682 802.956C971.404 805.858 965.693 808.096 964.838 814.976C964.595 817.003 962.251 819.947 960.383 820.369C953.341 821.984 953.31 832.041 945.329 832.22C943.556 832.22 943.925 833.835 944.664 834.901C946.427 837.455 947.039 838.172 942.764 838.848C937.876 839.618 937.338 842.013 940.135 847.174C941.75 850.171 938.953 848.905 938.488 849.759C932.534 845.538 926.95 850.139 920.257 849.633C922.791 852.187 926.591 850.424 926.971 853.77C927.33 856.82 924.533 856.081 922.748 856.64C920.722 857.284 919.075 858.656 919.423 860.977C920.394 867.394 918.769 871.256 911.284 870.475C910.355 870.37 909.004 871.531 908.307 872.375C901.973 880.564 895.291 888.342 886.339 893.829C887.12 902.462 877.524 899.106 874.611 903.886C873.154 906.271 871.57 906.451 873.988 909.912C877.672 915.189 873.682 918.165 868.087 918.861C867.939 918.861 867.812 919.547 867.781 919.917C867.696 920.814 868.214 921.299 869.237 921.383H869.301C862.967 920.581 858.977 923.304 857.119 929.33L845.369 939.999C843.986 940.748 841.463 941.392 841.389 942.258C840.46 952.705 829.65 954.594 824.847 961.728C820.161 968.713 814.292 974.827 807.503 979.795C805.254 981.42 803.059 983.246 803.28 986.697C803.491 989.44 801.823 990.253 799.469 988.86C797.928 987.942 796.302 987.193 795.405 989.113C794.508 991.034 796.028 991.783 797.802 992.1C798.308 992.184 798.709 992.849 799.174 993.25C794.328 993.05 792.344 999.192 787.35 998.611C785.345 998.379 783.128 998.347 784.183 995.118C784.817 993.282 785.503 991.256 782.748 989.324C779.528 993.218 775.992 996.986 773.089 1001.21C771.473 1003.56 767.715 1006.87 774.619 1008.59C776.73 1009.12 775.253 1012.74 772.149 1013.42C766.09 1014.74 769.594 1018.24 771.041 1020.38C772.888 1023.12 775.749 1025.98 777.881 1020.38C779.116 1017.13 780.668 1018.43 782.294 1019.87C785.566 1022.77 788.374 1024.55 792.639 1020.52C795.12 1018.16 797.263 1021.8 796.999 1023.88C796.661 1026.48 794.74 1031.03 793.484 1031.04C786.284 1031.04 785.915 1039.72 779.971 1040.97C778.81 1041.21 771.526 1041.52 770.808 1040.5C768.106 1036.82 764.833 1038.5 762.142 1040C757.433 1042.63 753 1042.11 748.418 1040.06C748.513 1039.4 748.513 1038.72 748.418 1038.06C755.723 1036.66 760.463 1028.82 768.961 1029.95C770.017 1030.09 771.822 1025.89 769.7 1025.11C762.057 1022.28 757.76 1013.06 748.249 1014.06C747.014 1011.86 740.669 1012.24 745.314 1006.79C746.855 1004.99 745.198 999.202 740.384 999.793C731.475 1000.85 733.248 996.395 735.265 991.351C735.856 989.863 736.204 988.259 736.785 986.76C739.339 980.143 737.65 989.356 738.991 987.351C739.55 987.928 740.262 988.334 741.043 988.521C741.825 988.708 742.644 988.668 743.404 988.406C744.913 987.857 744.459 986.38 744.459 985.24C744.28 981.631 745.051 977.399 743.404 974.571C742.282 972.732 741.797 970.575 742.024 968.433C742.251 966.291 743.177 964.283 744.66 962.72C749.621 957.771 744.016 957.148 742.644 954.795C745.283 955.164 748.608 957.18 750.128 953.845C751.11 951.734 749.072 949.307 747.025 947.777C745.462 946.595 743.858 945.445 742.295 944.284C741.24 943.988 739.941 943.967 739.128 943.344C737.598 942.194 736.088 939.841 734.283 941.751C733.121 942.986 733.797 945.497 734.853 947.27C738.02 947.977 739.202 943.629 742.359 944.315C740.247 948.051 742.654 951.513 743.013 955.101C740.395 957.401 736.795 949.908 734.029 956.314C733.026 958.636 729.078 954.858 725.183 957.243C718.923 961.105 710.594 961.528 702.898 960.652C696.311 959.913 689.66 959.195 684.899 953.264C683.105 951.017 679.294 950.415 683.02 946.584C683.981 945.603 682.239 943.555 680.635 943.123C672.189 940.843 665.855 933.118 656.302 933.372C655.067 933.372 652.902 933.921 652.47 930.269C660.693 932.137 668.114 930.702 674.343 925.13C675.018 926.565 675.757 927.969 676.327 929.446C677.14 931.557 675.219 934.723 678.439 935.683C681.659 936.643 683.474 935.176 685.015 932.116C686.557 929.056 689.639 927.568 693.197 929.414C695.414 930.575 697.166 930.311 697.852 927.895C698.538 925.478 696.881 924.032 694.59 924.233C687.813 924.834 680.867 923.304 674.227 925.489C676.338 921.858 678.586 918.745 683.601 919.294C687.179 919.695 690.885 919.98 694.981 917.658C693.503 912.814 690.536 911.791 685.48 911.527C679.558 911.221 678.65 908.087 683.443 904.467C687.264 901.565 685.343 900.013 683.77 897.734C683.073 896.679 682.07 895.623 680.835 896.267C680.365 896.574 679.966 896.979 679.667 897.454C679.368 897.93 679.176 898.464 679.104 899.021C679.019 900.858 680.751 903.475 677.879 903.981C675.768 904.351 677.098 901.311 676.148 900.467C675.42 899.823 673.382 899.496 672.823 900.003C665.887 906.335 664.472 900.52 661.759 895.402C675.599 897.681 675.599 897.681 677.161 889.724L676.908 890.115C677.869 887.276 682.767 883.139 674.67 883.266L676.127 878.126L684.044 869.156C681.004 867.394 678.301 868.935 675.462 869.895C666.71 872.881 666.689 872.829 664.504 863.879C669.624 865.589 671.144 858.782 675.958 859.732C671.134 858.012 666.552 856.862 664.504 863.025C658.234 862.951 651.889 865.294 645.376 862.465C649.419 859.922 653.166 858.075 658.043 858.782C661.21 859.236 660.049 856.271 659.954 854.456C662.773 854.825 665.56 855.384 668.399 855.511C669.404 855.507 670.39 855.249 671.267 854.759C672.144 854.27 672.883 853.567 673.414 852.714C673.984 851.902 673.414 851.269 672.749 850.699C670.183 848.588 669.582 851.617 668.051 852.271C665.429 853.207 662.74 853.944 660.007 854.477C658.835 854.371 657.579 852.947 656.502 854.677V854.593C655.447 851.627 656.555 848.145 654.328 845.454C655.594 846.689 657.495 847.417 658.35 845.855C659.205 844.293 657.178 842.794 655.858 842.562C653.61 842.182 653.356 843.618 654.465 845.348C650.242 847.807 645.946 850.002 640.741 848.176C639.337 847.691 639.137 847.818 636.318 851.796C635.442 853.01 634.64 852.852 633.658 852.704C631.462 852.377 629.221 852.828 627.324 853.981C627.324 856.904 631.272 856.26 630.132 860.123C624.22 857.326 620.061 860.904 615.786 864.713C618.615 866.982 621.296 869.251 624.115 871.33C625.962 872.702 625.55 874.253 624.315 875.351C623.08 876.448 623.133 880.184 620.314 878.147C614.097 873.641 610.56 882.854 604.965 880.817C600.637 887.687 593.522 883.846 587.758 885.186C586.776 885.418 585.203 883.825 584.433 884.184C572.071 890.051 558.474 891.634 545.616 895.708C544.92 895.919 544.74 897.818 544.329 898.874V898.789C539.673 891.719 536.685 890.083 529.972 893.755C526.055 895.866 522.202 896.499 518.148 897.502C513.282 898.715 512.87 897.987 514.211 893.143C515.266 889.386 509.27 893.143 508.362 889.671C510.727 884.078 515.953 887.212 519.795 886.083C522.234 885.376 525.074 883.529 522.814 881.039C520.555 878.548 525.105 873.926 519.352 873.493C512.131 872.955 514.791 877.261 516.037 881.377C508.647 879.129 501.944 876.227 494.924 881.218C493.034 882.569 488.96 882.622 486.817 881.503C480.673 878.337 475.732 878.337 470.19 882.991C467.773 885.017 463.941 883.529 461.059 879.097C472.608 878.802 481.507 869.346 493.298 873.061C495.135 873.641 497.426 873.398 497.341 872.491C496.719 866.043 506.505 866.001 505.079 858.772C499.991 857.358 494.122 857.579 489.392 854.392C487.207 852.915 484.114 851.553 486.795 847.839C488.316 845.728 486.795 840.536 492.021 842.562C495.853 844.019 500.16 838.341 503.844 844.251C507.117 849.464 508.067 848.852 512.142 847.016C515.731 845.38 518.898 840.504 524.018 844.747C524.641 845.253 528.641 842.805 526.826 839.861C525.538 837.75 521.695 837.191 525.021 833.275C526.15 831.925 522.022 829.962 520.977 831.408C517.124 836.779 513.366 833.465 509.365 832.136C503.865 830.321 498.651 829.793 496.128 836.8C495.726 837.855 494.797 839.407 493.625 838.679C490.986 837.053 489.973 832.347 485.18 836.631C480.958 840.452 475.753 843.639 474.624 849.295C473.304 855.828 469.345 857.738 462.441 858.107L472.28 860.123C468.195 863.816 462.621 861.779 459.781 865.399C457.522 868.28 447.747 863.067 452.022 872.66C445.477 873.04 440.505 880.279 433.084 876.955C428.861 875.055 424.829 875.309 419.73 878.475C431.215 880.416 441.698 881.081 451.917 884.806C446.396 886.917 437.866 882.559 437.317 892.7L437.454 892.194ZM742.253 755.003C743.357 754.767 744.437 754.435 745.483 754.011C746.718 753.42 748.566 752.681 746.761 751.014C746.212 750.507 744.047 750.676 743.72 751.193C743.002 752.375 742.971 753.979 742.665 755.415C739.73 754.876 736.679 756.47 733.797 754.971C728.941 757.874 722.65 754.001 718.047 758.412C716.432 759.963 714.985 761.947 716.991 763.329C721.816 766.728 726.999 764.153 731.876 762.907C736.753 761.662 733.523 757.631 733.839 754.929C738.146 762.074 738.146 762.074 742.253 755.003ZM410.778 872.048C410.825 872.54 410.973 873.018 411.211 873.451C411.449 873.885 411.773 874.265 412.164 874.569C412.554 874.873 413.002 875.095 413.481 875.22C413.959 875.346 414.458 875.372 414.948 875.298C416.457 875.055 418.938 875.488 419.424 872.723C416.436 870.75 413.459 871.393 410.482 872.375C411.2 868.027 408.371 869.135 406.038 869.515C404.74 869.726 403.631 870.57 404.454 871.963C405.848 874.369 407.769 873.346 409.596 872.417C409.976 872.263 410.367 872.14 410.767 872.048H410.778ZM584.517 868.787C583.303 867.869 582.227 866.549 580.865 866.096C578.838 865.431 577.202 865.895 577.107 868.744C577.001 872.153 578.859 871.098 580.685 870.707C582.163 870.37 583.852 870.443 584.222 868.46C587.389 868.375 590.693 868.649 591.854 864.238C588.254 864.133 584.032 862.465 584.507 868.787H584.517ZM844.852 779.001C842.74 779.444 839.574 777.798 838.972 781.185C838.465 784.151 841.653 783.127 843.195 783.95C844.736 784.773 846.119 786.895 848.42 785.28C849.032 781.924 845.19 781.185 844.493 778.621C846.203 778.304 849.296 779.434 848.515 776.173C848.061 774.252 844.979 773.228 843.437 774.431C841.052 776.246 845.876 776.901 844.841 779.001H844.852ZM1045 694.038C1043.8 691.748 1042.89 689.13 1039.41 689.764C1039.41 686.746 1040.46 683.548 1037.49 680.772C1035.72 684.762 1032.39 687.727 1031.88 692.149C1028.98 696.169 1025.55 693.299 1022.19 693.099C1020.69 693.014 1018.76 694.091 1018.87 695.906C1018.96 697.436 1020.74 699.283 1022.03 698.766C1026.61 696.961 1032.41 699.04 1036.05 694.397H1036.7L1036.82 693.774C1039.69 694.038 1042.58 694.893 1045.43 693.658C1043.84 695.473 1042.13 697.193 1040.73 699.145C1040.56 699.396 1040.45 699.683 1040.41 699.985C1040.37 700.286 1040.4 700.593 1040.5 700.878C1040.61 701.164 1040.78 701.421 1041 701.628C1041.22 701.835 1041.49 701.986 1041.78 702.069C1044.63 702.733 1047.55 702.406 1048.81 699.283C1050.18 695.916 1048.87 693.943 1044.97 694.038H1045ZM771.442 957.538C771.368 954.562 774.883 956.768 775.517 954.71C776.15 952.652 780.33 952.399 778.536 949.191C778.082 948.399 776.583 947.946 775.506 947.798C772.497 947.397 770.977 949.339 770.671 951.903C770.449 953.76 771.115 955.734 771.389 957.591C769.647 954.088 767.346 951.259 762.944 952.536C761.825 952.842 757.877 951.164 760.125 955.248C761.033 956.916 760.125 960.831 763.83 959.216C766.343 958.108 768.391 955.818 771.431 957.538H771.442ZM1026.67 704.264H1023.37C1017.1 703.757 1014.18 708.337 1010.83 712.39C1008.72 714.912 1009.84 716.526 1011.89 718.352C1014.84 721.022 1016.7 720.463 1018.22 716.896C1018.62 715.956 1019.87 715.366 1020.73 714.627L1023.72 716.305C1026.74 715.64 1029.98 716.178 1032.78 714.447C1034.35 713.477 1035 710.912 1033.99 710.743C1022.87 708.918 1035.53 705.372 1033.26 702.966C1030.75 701.784 1028.9 704.105 1026.66 704.306L1026.67 704.264ZM683.738 680.677L694.875 668.784C691.043 667.592 687.908 670.726 687.063 670.515C679.589 668.541 680.729 672.098 682.503 676.583C683.083 678.029 683.559 679.527 684.013 680.952C679.283 678.303 674.744 676.963 670.289 682.957C674.322 683.39 677.383 683.369 680.413 684.392C683.442 685.416 683.041 682.345 683.738 680.677ZM712.441 627.806C716.273 626.15 719.282 630.624 723.167 630.096C722.913 626.445 723.072 623.184 718.701 624.693C716.512 625.613 714.394 626.696 712.367 627.933C714.574 623.712 712.969 618.435 717.646 614.499C704.978 614.657 704.387 615.491 709.496 624.145C710.372 625.446 711.358 626.671 712.441 627.806ZM204.989 843.47C207.723 842.763 210.763 842.573 213.128 841.233C216.527 839.301 216.379 835.428 214.828 832.663C213.392 830.131 210.605 831.861 208.346 832.727C202.677 834.953 204.64 839.512 204.968 843.512C201.442 841.401 198.307 836.842 193.134 841.264C196.934 845.306 201.379 841.739 204.978 843.47H204.989ZM215.387 636.038C223.684 634.107 222.28 626.171 225.342 620.957C221.223 624.518 217.454 628.465 214.088 632.745C212.811 634.339 213.719 635.658 215.714 636.069C214.363 638.106 210.721 638.961 212.347 642.929C215.429 641.335 216.421 639.161 215.376 636.038H215.387ZM696.184 639.52C686.683 636.513 687.127 644.797 682.461 650.242C694.421 647.076 694.421 647.076 695.773 639.183C697.06 637.959 698.94 637.072 697.462 634.655C697.05 633.969 696.87 632.798 696.543 633.157C695.88 633.858 695.434 634.737 695.258 635.686C695.082 636.635 695.183 637.615 695.551 638.507C695.729 638.864 695.941 639.204 696.184 639.52ZM964.32 770.833C958.662 770.506 956.16 775.434 952.455 778.22C951.262 779.117 952.159 781.597 953.827 782.135C956.994 783.19 958.926 780.985 960.974 778.843C963.286 776.426 968.163 775.276 964.077 770.569C966.263 770.717 969.049 772.342 969.778 768.701C969.724 768.138 969.524 767.599 969.198 767.136C968.873 766.674 968.432 766.304 967.92 766.063C964.246 765.546 964.552 768.448 964.289 770.78L964.32 770.833ZM760.146 727.048C754.942 723.882 751.511 727.481 747.384 729.876C743.076 732.367 745.272 735.638 744.596 738.319C752.292 737.58 756.082 732.187 759.914 726.837C760.875 724.104 768.908 726.731 764.907 720.241C765.625 715.724 769.563 716.727 772.424 715.83C780.309 713.329 782.241 710.036 780.679 702.427C779.887 698.533 777.638 695.853 774.271 698.839C770.903 701.826 767.261 701.056 762.321 701.098C770.502 705.435 770.333 705.319 765.836 709.54C763.725 711.514 761.044 712.273 760.157 716.41C758.584 723.681 762.089 720.843 765.076 720.167C763.799 722.679 757.697 721.835 760.115 726.995L760.146 727.048ZM676.549 793.532C681.616 796.973 685.87 801.669 691.993 803.463C685.438 804.835 679.104 808.191 672.221 803.547C667.787 800.561 663.438 804.276 662.519 807.674C660.904 813.636 668.421 808.813 669.635 811.979C666.341 818.132 659.015 818.375 653.325 823.208L666.753 823.968L666.489 823.672C659.764 827.735 652.85 830.12 645.682 824.865C641.713 821.963 639.907 825.245 637.585 827.229C634.165 830.131 637.078 832.22 638.704 834.236C640.984 837.075 643.021 839.966 642.673 845.95C649.45 836.747 656.703 836.842 664.156 839.006C667.661 840.061 668.864 838.32 671.545 836.42C681.046 829.561 684.213 829.033 694.77 828.115C693.893 825.857 691.318 825.139 691.181 821.783C690.938 815.726 698.348 817.562 699.288 813.193C696.564 811.821 694.094 815.092 691.898 812.138C692.806 809.489 695.445 809.637 697.504 808.613C703.036 805.858 697.926 805.078 696.343 803.674C688.953 789.069 687.274 787.918 674.617 788.646C674.617 790.62 678.059 790.926 677.024 793.522C676.56 796.266 673.319 794.029 672.495 796.129C675.145 796.709 677.679 800.888 680.17 798.165C681.827 796.234 678.439 794.577 676.549 793.459V793.532ZM850.362 654.295C847.955 651.129 845.306 649.018 841.242 651.846C837.177 654.675 837.367 658.442 839.436 662.4C837.505 662.473 835.425 661.344 833.62 663.012C844.25 667.708 844.176 667.602 859.262 657.735C863.484 654.981 863.389 651.604 862.819 647.182C857.119 647.794 852.843 649.43 850.362 654.295ZM666.098 645.852C672.073 643.035 675.398 637.547 679.431 632.735C683.189 628.239 688.087 624.63 689.988 618.741C694.812 618.509 699.32 617.401 703.321 614.298C700.46 612.684 697.06 614.699 694.527 611.555C692.479 609.011 690.167 611.998 688.657 613.317C685.564 616.019 690.093 617.021 690.378 619.068C687.021 618.878 682.989 619.67 681.426 621.865C676.792 628.292 670.87 628.197 664.061 626.287C668.61 629.748 672.358 632.724 667.386 638.117C665.169 640.523 666.225 643.393 666.468 646.19C658.022 649.947 657.843 650.137 656.967 658.97C663.818 657.26 663.945 650.854 666.098 645.852ZM961.681 651.424C956.308 650.939 958.514 658.727 953.637 658.811C953.341 658.811 944.136 668.309 943.893 668.668C942.669 670.42 939.386 672.066 942.933 674.282C945.815 676.097 948.707 677.343 950.322 672.024C950.892 670.093 954.935 667.718 957.057 668.014C964.003 668.964 962.726 664.32 962.673 660.721C962.458 657.53 962.027 654.357 961.385 651.224C964.141 650.907 967.836 651.097 966.664 646.844C965.714 643.288 961.892 645.113 960.573 645.958C957.606 647.815 959.749 649.862 961.639 651.435L961.681 651.424ZM730.862 893.513C728.17 884.426 719.44 881.482 714.721 874.707C713.666 873.135 710.911 872.301 709.443 874.232C706.023 878.675 702.381 878.242 697.894 876.121C697.155 875.783 693.387 875.826 693.239 879.488C692.954 886.632 694.696 889.059 701.431 887.529C712.135 885.102 721.942 885.851 730.82 893.523L730.862 893.513ZM763.134 840.241C760.6 838.552 736.679 837.739 734.705 838.13C731.823 838.636 728.709 838.932 729.332 843.016C729.933 846.878 729.511 851.701 734.927 852.514C737.228 852.873 740.743 854.055 739.667 848.641C739.192 846.277 740.078 839.987 743.72 841.644C750.92 844.947 756.325 836.22 763.113 840.251L763.134 840.241ZM778.356 722.964C785.503 723.713 789.472 723.101 791.847 716.569C793.705 711.44 798.804 707.831 803.977 705.087C808.34 702.891 811.96 699.459 814.386 695.22C815.357 693.457 814.977 692.054 813.33 691.188C812.452 690.697 811.457 690.452 810.451 690.481C809.445 690.51 808.466 690.812 807.617 691.353C806.769 691.895 806.083 692.656 805.634 693.556C805.184 694.457 804.987 695.462 805.064 696.465C805.064 699.04 804.737 700.591 802.467 700.401C798.245 700.063 796.134 704.105 792.724 704.622C787.984 705.287 790.876 709.994 789.557 710.606C784.279 712.981 783.096 718.5 778.314 722.974L778.356 722.964ZM558.485 793.406C551.539 802.123 545.458 809.352 537.424 814.417C537.129 814.607 537.097 815.145 536.865 815.472C535.809 817.045 535.809 818.638 537.551 819.409C538.47 819.841 540.518 819.778 540.877 819.208C545.025 812.465 551.718 812.961 559.773 813.341C554.093 806.882 561.483 801.711 558.443 793.416L558.485 793.406ZM634.724 708.116C638.429 709.171 641.385 709.741 642.832 707.778C645.46 704.2 648.511 704.316 652.332 704.612C657.864 705.034 663.396 705.14 665.834 698.048C666.542 695.937 669.856 694.808 673.002 692.465C669.835 691.969 667.787 689.595 665.75 692.571C663.638 695.737 659.764 696.634 657.305 699.283C654.138 702.755 650.506 700.739 649.841 698.322C648.342 692.93 646.083 694.502 644.404 697.267C641.838 701.434 638.545 705.109 634.682 708.116H634.724ZM131.325 905.596C129.51 904.129 127.377 905.976 126.533 908.266C125.224 911.865 128.644 912.371 130.755 912.16C134.872 911.759 135.189 916.846 138.599 916.941C141.122 917.014 144.817 919.473 145.672 915.358C146.252 912.561 146.242 908.53 141.903 907.506C138.778 906.799 135.622 906.377 131.283 905.607L131.325 905.596ZM994.733 732.525C990.226 734.551 986.943 737.664 986.436 742.867C986.003 747.299 990.31 750.634 993.298 747.785C996.718 744.503 1002.39 742.909 1003.85 737.232C998.787 735.49 998.312 744.249 992.517 740.155C995.198 738.266 997.162 735.807 994.691 732.557L994.733 732.525ZM591.664 872.765C599.75 872.406 606.443 873.166 613.21 871.562C612.851 870.723 612.592 869.845 612.439 868.945C612.249 864.418 608.861 862.814 605.388 862.033C601.408 861.157 600.553 865.726 600.225 867.52C599.244 872.639 594.947 869.283 591.622 872.797L591.664 872.765ZM343.227 502.794C353.129 502.288 353.203 492.822 358.808 489.265C360.613 488.115 362.83 487.038 361.036 484.959C359.241 482.881 357.045 483.904 354.87 485.688C349.413 490.141 344.947 495.048 343.184 502.826L343.227 502.794ZM357.024 817.488C366.103 819.862 374.083 815.282 382.571 814.955C383.468 814.955 384.608 813.573 385.136 812.56C386.054 810.808 386.698 808.75 385.041 807.03C383.679 805.605 382.001 806.08 380.819 807.251C374.062 813.784 364.751 813.784 356.982 817.52L357.024 817.488ZM925.293 690.429C917.164 692.687 914.018 698.987 909.458 705.403C919.55 705.055 926.106 702.406 925.251 690.46L925.293 690.429ZM924.448 810.28C929.061 807.674 935.891 809.141 937.866 802.408C938.763 799.358 937.718 797.627 934.477 798.418C928.703 799.864 924.723 803.231 924.406 810.312L924.448 810.28ZM343.417 848.05C352.157 856.313 356.18 856.492 362.081 849.527C362.936 848.472 363.78 847.638 362.798 846.625C362.059 845.855 360.011 845.01 359.8 845.264C355.356 850.403 349.296 847.818 343.374 848.082L343.417 848.05ZM579.271 782.41C574.763 783.19 568.714 780.109 566.761 784.267C563.235 791.654 557.851 783.032 553.872 788.15C558.918 788.15 562.211 794.05 567.458 791.464C571.786 789.375 575.323 785.523 579.228 782.441L579.271 782.41ZM1012.52 723.523C1010.84 726.109 1005.49 726.89 1006.63 728.019C1011.4 732.768 1010.3 737.833 1009.65 743.3C1009.29 746.223 1012.28 745.927 1013.87 745.948C1016.48 745.948 1017.42 744.197 1015.85 741.97C1011.97 736.546 1012.71 730.277 1012.48 723.555L1012.52 723.523ZM725.848 872.491C729.015 871.963 733.364 872.67 732.889 867.067C732.721 865.009 731.834 863.014 729.216 863.447C725.605 864.048 721.657 865.04 720.77 868.998C720.031 872.121 722.998 872.575 725.848 872.491ZM517.642 817.277C521.094 823.925 528.779 819.789 531.239 825.656C531.312 825.846 532.811 825.656 533.434 825.319C534.49 824.717 535.546 823.356 534.31 822.511C531.787 820.738 532.759 817.024 530.552 815.652C528.346 814.28 526.076 816.253 523.838 817.119C522.223 817.731 520.175 817.256 517.642 817.277ZM346.13 841.802C342.963 839.808 344.588 834.415 339.891 834.109C334.993 833.856 340.07 840.135 335.9 841.021C333.61 841.507 334.106 842.942 336.164 844.821C338.508 842.256 342.372 844.114 346.13 841.802ZM136.783 922.344C131.009 916.339 125.013 914.672 118.457 921.774C124.928 923.483 130.776 920.233 136.783 922.344ZM716.653 891.318C711.301 897.206 705.432 893.101 699.52 893.059C702.117 902.462 709.528 895.296 713.94 898.209C715.186 899.053 716.664 895.169 716.664 891.328L716.653 891.318ZM716.653 806.998C718.891 804.054 708.208 801.088 717.762 799.516C718.818 799.337 720.507 799.326 720.19 797.733C720.063 797.11 718.458 796.582 717.445 796.361C713.349 795.506 709.897 796.92 709.485 801.141C709.01 805.605 712.737 806.692 716.664 807.009L716.653 806.998ZM635.843 677.585C643.465 679.2 644.774 672.784 649.936 670.283C641.216 670.789 641.206 670.779 635.801 677.596L635.843 677.585ZM737.988 886.685C739.867 878.791 738.938 877.641 737.629 878.696C734.346 881.366 729.754 874.728 728.477 879.667C727.421 883.888 733.755 881.778 735.402 884.521C735.877 885.408 736.985 885.914 737.946 886.695L737.988 886.685ZM717.487 926.649C712.209 926.449 707.342 924.539 701.019 923.125C708.356 931.335 708.356 931.335 717.445 926.66L717.487 926.649ZM820.751 780.341C825.47 777.418 829.249 776.711 832.005 772.796C825.027 769.598 823.464 774.094 820.709 780.352L820.751 780.341ZM933.379 780.141C934.994 780.206 936.611 780.185 938.224 780.077C943.756 779.465 944.558 778.178 938.742 776.004C938.404 775.877 938.309 774.748 938.319 774.083C938.319 773.028 942.162 773.228 939.438 771.149C939.068 771.027 938.673 771.002 938.291 771.076C937.908 771.15 937.551 771.32 937.253 771.571C935.174 774.011 933.817 776.982 933.337 780.151L933.379 780.141ZM550.789 876.343C554.041 876.343 556.922 876.902 556.975 873.451C556.975 870.802 554.526 870.855 552.563 870.591C550.968 870.461 549.386 870.199 547.833 869.81C547.572 869.688 547.284 869.633 546.997 869.651C546.709 869.669 546.43 869.76 546.187 869.915C545.943 870.07 545.743 870.284 545.605 870.536C545.466 870.789 545.394 871.073 545.395 871.362C545.258 872.417 545.395 874.222 546.123 874.644C547.587 875.403 549.141 875.977 550.747 876.353L550.789 876.343ZM680.254 659.139C679.568 656.817 678.017 657.028 676.412 657.165C672.759 657.492 672.073 659.561 672.685 662.822C673.044 664.711 673.741 665.914 675.662 665.143C676.897 664.657 677.975 663.841 678.777 662.784C679.58 661.726 680.076 660.469 680.212 659.149L680.254 659.139ZM690.093 725.18C685.934 724.979 681.141 722.267 676.919 727.438C682.197 729.496 686.367 729.802 690.051 725.191L690.093 725.18ZM862.101 737.738L864.054 739.49C867.422 735.997 874.273 735.839 874.241 726.499L862.101 737.738ZM217.636 861.494C215.672 861.663 214.405 862.94 214.701 864.481C215.197 867.003 217.066 868.259 219.831 867.964C221.615 867.763 223.199 866.739 222.84 865.199C222.217 862.74 219.683 862.128 217.593 861.505L217.636 861.494ZM581.836 810.702C585.541 813.056 589.426 815.704 594.747 811.61C590.595 810.103 586.103 809.792 581.783 810.713L581.836 810.702ZM414.842 836.864L398.902 838.056C404.444 843.195 408.487 843.28 414.842 836.864ZM155.152 847.533C149.293 846.594 154.096 844.092 154.212 842.161C154.265 840.547 152.882 840.832 152.006 841.644C149.282 844.166 149.894 847.892 153.283 849.031C153.885 849.179 155.616 849.527 155.13 847.522L155.152 847.533ZM763.292 608.853C760.41 606.183 758.426 606.658 756.494 607.017C754.773 607.354 753.327 608.304 753.622 610.183C754.192 613.897 756.451 611.618 758.024 611.132C759.811 610.458 761.562 609.694 763.271 608.842L763.292 608.853ZM594.008 847.934C588.867 842.868 586.375 846.277 581.202 850.044L594.008 847.934ZM977.21 644.86C976.724 639.447 976.418 636.08 976.038 631.859C970.527 636.407 971.161 639.816 977.178 644.85L977.21 644.86ZM975.003 759.077C975.932 755.362 981.337 754.929 980.408 749.895C980.209 749.576 979.933 749.311 979.604 749.127C979.276 748.942 978.906 748.844 978.529 748.84C974.412 750.328 972.702 753.441 973.093 757.726C973.071 757.926 973.663 758.137 974.972 759.066L975.003 759.077ZM704.935 903.654L695.509 907.738C700.47 911.675 703.574 909.543 704.904 903.675L704.935 903.654ZM963.687 794.493C965.323 793.585 968.501 793.617 968.775 790.05C968.891 788.425 967.434 788.636 966.241 788.583C963.286 788.478 960.668 788.921 960.351 792.498C960.256 793.891 961.702 794.218 963.687 794.493ZM809.994 925.774C814.713 919.684 814.713 919.684 806.31 917.331L809.994 925.774ZM831.371 924.454C829.344 920.233 826.431 919.589 824.309 918.049C822.873 916.993 821.353 918.281 820.53 919.79C819.474 921.742 820.614 922.84 822.303 923.188C824.9 923.737 827.507 923.948 831.403 924.454H831.371ZM660.904 803.262C661.305 801.004 660.334 799.991 658.466 799.696C655.932 799.294 654.771 800.561 654.57 802.956C654.412 804.782 655.119 806.186 656.967 806.481C659.585 806.903 660.303 804.898 660.936 803.262H660.904ZM701.019 954.837C704.826 956.196 709.001 956.094 712.737 954.552C708.461 949.845 704.946 950.616 701.04 954.837H701.019ZM707.174 673.934L705.147 671.823C701.716 674.694 698.295 677.585 692.848 682.155C701.315 681.501 703.901 677.227 707.163 673.934H707.174ZM521.368 808.856C517.948 808.317 514.475 806.471 510.959 809.151C514.39 812.855 517.895 811.082 521.368 808.856ZM853.392 882.442C851.46 881.588 850.679 882.442 849.729 883.16C846.657 885.355 846.077 887.93 848.747 887.835C852.474 887.687 852.632 884.922 853.371 882.442H853.392ZM958.166 799.759C958.63 798.102 957.385 797.648 956.276 797.469C953.584 797.015 951.768 798.303 950.892 800.783C950.47 801.954 950.776 803.231 952.36 803.009C954.64 802.682 957.036 802.313 958.145 799.759H958.166ZM873.798 602.764C878.358 605.413 881.378 606.215 887.236 602.985C881.726 604.178 879.689 600.389 873.777 602.764H873.798ZM792.956 687.368C787.931 685.891 785.419 688.951 781.787 690.26C786.706 692.919 791.098 695.505 792.935 687.368H792.956ZM742.591 865.251C740.722 865.251 739.424 865.959 739.656 867.9C739.7 868.677 740.009 869.415 740.532 869.991C741.054 870.567 741.759 870.947 742.527 871.066C745.114 871.288 743.52 868.776 744.406 867.679C746.286 865.357 743.784 865.621 742.57 865.251H742.591ZM895.312 706.754C895.576 704.928 895.312 703.514 893.148 703.588C890.984 703.662 890.836 705.351 890.446 706.881C889.918 708.991 891.016 709.646 892.831 709.73C895.069 709.846 895.333 708.379 895.291 706.754H895.312ZM698.718 903.348C696.279 899.127 693.503 898.072 690.177 898.62C689.808 898.62 689.27 901.027 689.66 901.955C691.465 906.134 694.749 904.097 698.718 903.348ZM225.342 838.974C225.264 838.15 224.872 837.386 224.248 836.842C223.623 836.298 222.813 836.015 221.985 836.051C220.106 836.051 219.715 837.972 219.113 839.217C218.512 840.462 219.715 841.475 220.887 841.454C222.756 841.486 224.73 841.169 225.342 838.974ZM265.552 847.849C263.599 846.161 262.385 845.232 261.329 844.124C260.083 842.826 259.376 840.557 256.125 842.362C258.51 844.694 259.566 848.229 265.552 847.881V847.849ZM403.04 857.98C403.12 857.699 403.138 857.403 403.09 857.113C403.043 856.824 402.931 856.549 402.765 856.308C402.598 856.067 402.381 855.866 402.127 855.719C401.873 855.572 401.59 855.483 401.298 855.458C399.271 854.92 397.498 855.458 396.548 857.442C395.724 859.183 397.255 859.363 398.258 859.458C400.021 859.637 402.079 860.302 403.04 857.97V857.98ZM324.816 527.953C323.687 526.781 326.779 523.478 322.852 523.985C319.791 524.365 319.802 527.394 319.063 529.557C318.683 530.686 319.221 532.353 320.762 531.604C322.304 530.855 326.674 532.565 324.816 527.985V527.953ZM266.512 864.006C262.152 860.165 258.933 860.091 255.417 862.56C258.901 861.727 261.371 865.769 266.512 864.038V864.006ZM512.121 865.98C514.844 865.98 515.425 864.344 515.414 862.74C515.404 861.136 514.549 859.088 512.669 859.405C509.397 859.954 512.669 861.684 512.363 862.824C512.057 863.964 509.545 865.283 512.121 866.011V865.98ZM544.424 864.513C544.117 863.225 543.368 862.265 541.996 862.402C540.338 862.624 538.681 863.626 538.501 865.156C538.301 866.961 539.979 867.869 541.668 867.689C542.06 867.675 542.444 867.581 542.798 867.413C543.152 867.245 543.467 867.006 543.725 866.712C543.984 866.417 544.179 866.073 544.299 865.7C544.419 865.328 544.461 864.934 544.424 864.544V864.513ZM1026.34 674.557C1028.58 674.557 1030.17 679.052 1033.1 674.842C1030.78 674.166 1028.91 672.604 1026.34 674.588V674.557ZM255.576 873.609C257.687 877.63 260.685 877.978 264.802 876.269C262.459 872.132 259.566 871.689 255.576 873.641V873.609ZM537.435 874.939C536.031 874.19 534.469 873.219 532.79 872.501C532.537 872.354 532.25 872.277 531.957 872.276C531.665 872.276 531.377 872.353 531.124 872.5C530.871 872.647 530.661 872.858 530.516 873.113C530.371 873.367 530.296 873.655 530.299 873.947C530.415 876.396 532.864 876.575 534.521 877.293C535.619 877.81 536.707 877.071 537.393 874.971L537.435 874.939ZM702.275 771.519C698.612 773.693 695.297 775.149 697.081 779.718C697.852 776.626 703.046 777.017 702.233 771.54L702.275 771.519ZM702.275 647.889C700.882 648.079 698.781 647.794 699.193 650.105C699.398 651.063 699.888 651.937 700.598 652.613C701.308 653.289 702.205 653.735 703.173 653.894C703.648 653.989 704.682 652.427 705.136 651.477C706.456 648.628 704.302 648.301 702.244 647.963L702.275 647.889ZM631.969 685.775C635.716 684.835 637.754 683.316 638.303 679.221C635.885 681.247 632.697 681.047 631.937 685.796L631.969 685.775ZM717.72 912.012C715.207 912.92 712.621 909.406 709.897 912.835C712.663 914.608 715.218 915.938 717.72 912.012ZM755.09 991.994C758.172 990.105 759.566 987.541 759.671 983.193C754.815 985.494 755.924 989.345 755.09 991.994ZM868.499 890.463C867.665 892.763 866.324 895.507 868.878 896.731C870.441 897.481 873.355 896.805 874.495 893.681L868.499 890.463ZM119.164 891.655C115.163 890.231 112.619 890.484 109.98 893.481C113.685 894.178 116.208 893.85 119.164 891.655ZM932.123 723.945C932.911 723.968 933.686 723.742 934.339 723.301C934.993 722.86 935.491 722.226 935.765 721.486C936.24 720.357 935.036 719.312 933.896 719.08C932.028 718.679 931.099 720.083 930.55 721.539C930.075 722.827 930.803 723.66 932.123 723.945ZM987.143 729.686C984.304 728.736 983.892 730.15 983.069 730.879C981.506 732.272 980.229 734.583 983.005 735.015C986.193 735.554 986.383 732.061 987.143 729.686ZM649.609 654.474C649.334 653.567 648.648 653.545 647.783 653.366C645.904 652.976 644.003 651.825 642.694 654.189C642.462 654.611 643.053 656.004 643.117 655.994C644.985 655.719 646.833 655.339 648.669 654.938C648.999 654.82 649.314 654.664 649.609 654.474ZM739.339 749.568C739.16 746.761 737.724 745.104 734.853 745.157C733.797 745.157 732.256 745.537 732.91 747.268C733.66 749.241 735.497 750.17 737.217 751.13C738.938 752.09 738.949 750.529 739.35 749.568H739.339ZM566.898 762.749C565.125 762.675 563.457 763.287 564.08 765.25C564.367 766.016 564.912 766.657 565.621 767.065C566.329 767.474 567.158 767.623 567.964 767.487C569.527 767.202 571.364 766.168 571.037 764.554C570.709 762.939 568.44 763.108 566.909 762.749H566.898ZM818.978 765.398C819.717 766.327 819.896 766.77 820.213 766.907C822.008 767.72 823.749 769.281 825.85 768.353C826.12 768.231 826.357 768.047 826.543 767.816C826.729 767.586 826.858 767.314 826.919 767.025C826.981 766.735 826.974 766.435 826.898 766.149C826.822 765.863 826.68 765.598 826.484 765.377C824.868 763.847 822.673 764.522 820.677 764.712C820.094 764.886 819.528 765.116 818.988 765.398H818.978ZM931.848 783.222C934.213 785.502 935.205 787.939 937.96 787.443C938.269 787.276 938.529 787.032 938.714 786.734C938.899 786.436 939.003 786.095 939.016 785.744C938.277 782.642 935.765 783.148 931.859 783.222H931.848ZM705.865 788.499C704.809 787.011 703.204 786.968 701.642 787.211C700.586 787.359 698.971 787.475 699.847 789.322C700.135 789.931 700.61 790.432 701.203 790.753C701.795 791.074 702.475 791.197 703.142 791.105C703.81 791.013 704.431 790.711 704.915 790.242C705.398 789.774 705.72 789.163 705.833 788.499H705.865ZM307.883 826.806C306.775 825.392 305.117 825.456 303.608 825.403C301.855 825.35 301.803 826.606 302.552 827.661C303.608 829.181 305.255 828.843 306.775 828.368C307.831 828.094 308.2 827.619 307.894 826.817L307.883 826.806ZM352.78 841.201C352.839 841.595 352.971 841.975 353.171 842.32C353.819 843.07 354.679 843.607 355.638 843.86C356.597 844.112 357.61 844.068 358.544 843.734C359.6 843.428 361.31 842.678 360.254 841.475C359.399 840.515 357.425 840.42 355.916 840.188C354.786 840.03 353.519 839.935 352.791 841.211L352.78 841.201ZM558.115 843.512C560.005 843.364 561.219 842.721 561.113 841.401C560.923 839.164 559.002 839.607 557.566 839.839C556.342 840.051 555.202 841.032 555.74 842.235C556.089 843.037 557.598 843.269 558.126 843.523L558.115 843.512ZM422.305 854.804C422.184 854.957 422.108 855.141 422.085 855.335C422.062 855.528 422.093 855.725 422.175 855.902C422.257 856.079 422.387 856.23 422.55 856.338C422.713 856.446 422.902 856.507 423.097 856.513C424.681 856.819 426.264 856.809 427.32 855.226C428.164 853.907 427.563 853.115 426.201 852.852C425.426 852.658 424.606 852.749 423.892 853.107C423.177 853.465 422.615 854.067 422.305 854.804ZM858.66 856.914C858.079 855.025 857.129 853.358 855.092 852.82C854.31 852.63 852.125 852.356 853.952 854.202C855.229 855.5 854.902 858.17 857.383 858.286C857.784 858.265 858.216 857.368 858.66 856.914ZM566.846 863.046C570.013 862.983 573.264 863.046 576.019 860.038C571.67 858.065 569.337 860.787 566.846 863.014V863.046ZM866.26 620.25C866.809 619.269 866.535 618.456 865.469 618.488C864.403 618.52 862.808 618.689 862.302 619.396C861.51 620.451 862.407 621.675 863.674 622.044C865.078 622.414 865.754 621.358 866.26 620.219V620.25ZM567.078 884.954C569.305 884.954 570.572 883.814 570.741 882.284C570.889 881.081 569.2 880.627 568.26 881.092C566.951 881.757 565.262 882.748 564.903 883.941C564.544 885.133 566.455 884.87 567.078 884.954ZM600.415 881.113C599.962 880.285 599.22 879.651 598.332 879.333C597.443 879.014 596.468 879.031 595.591 879.382C595.195 879.727 594.891 880.166 594.707 880.658C594.523 881.149 594.464 881.679 594.535 882.2C594.988 882.835 595.641 883.3 596.389 883.52C597.138 883.74 597.938 883.702 598.663 883.413C599.592 883.128 601.091 883.002 600.415 881.113ZM539.641 883.973C537.15 883.171 536.084 880.522 533.308 881.377C532.252 881.693 532.252 882.432 532.938 883.234C534.627 885.302 536.601 885.798 539.641 883.973ZM545.11 885.893C544.834 885.885 544.559 885.938 544.306 886.048C544.053 886.158 543.827 886.323 543.646 886.531C543.464 886.739 543.33 886.985 543.255 887.25C543.18 887.516 543.164 887.795 543.209 888.067C543.265 888.419 543.401 888.752 543.606 889.043C543.811 889.334 544.08 889.574 544.392 889.745C545.521 890.115 546.662 889.745 546.778 888.31C546.868 887.77 546.744 887.215 546.433 886.764C546.122 886.313 545.647 886.001 545.11 885.893ZM759.766 882.654C758.816 883.35 757.549 883.814 757.138 884.68C756.177 886.727 758.193 886.094 758.953 886.136C760.072 886.136 761.329 885.798 761.244 884.331C761.223 883.804 760.4 883.297 759.766 882.654ZM889.612 483.155C888.999 482.1 888.197 481.276 886.994 482.332C886.23 483.105 885.524 483.934 884.882 484.812C885.892 485.111 886.934 485.285 887.986 485.329C889.094 485.255 890.066 484.643 889.612 483.155ZM709.095 916.74C708.345 916.93 707.11 916.951 706.984 917.373C706.435 918.851 707.86 919.241 708.831 919.558C709.391 919.748 710.636 919.494 710.721 919.188C710.974 917.954 710.615 916.877 709.042 916.74H709.095ZM746.286 575.874C748.312 576.033 748.492 574.65 748.397 573.627C748.207 572.524 747.851 571.457 747.341 570.461C746.655 571.305 745.578 572.065 745.388 573.004C745.198 573.943 745.927 574.988 746.222 575.864L746.286 575.874ZM776.53 583.663C774.303 582.913 773.521 582.365 772.941 582.512C771.347 582.945 769.594 583.789 769.404 585.457C769.267 586.765 770.903 587.092 771.991 586.586C773.542 585.697 775.041 584.717 776.477 583.652L776.53 583.663ZM759.64 588.032L756.736 585.404C756.652 586.069 756.272 586.913 756.547 587.346C757.163 588.28 757.946 589.092 758.858 589.741C759.376 590.142 759.808 589.572 759.597 588.021L759.64 588.032ZM606.295 591.314C605.979 590.607 605.683 589.33 605.345 589.319C604.555 589.228 603.755 589.381 603.055 589.759C602.354 590.136 601.787 590.719 601.429 591.43C601.249 591.852 601.957 593.087 602.485 593.329C604.438 594.142 605.25 592.464 606.253 591.303L606.295 591.314ZM700.555 605.877C700.61 605.584 700.605 605.283 700.54 604.993C700.475 604.702 700.352 604.427 700.177 604.186C700.002 603.945 699.779 603.742 699.523 603.59C699.267 603.438 698.982 603.34 698.686 603.302C697.293 603.302 695.392 603.809 694.632 604.801C693.524 606.246 695.319 606.616 696.385 606.837C697.842 607.143 699.404 607.365 700.512 605.866L700.555 605.877ZM633.721 607.988C635.062 609.887 636.508 611.512 639.084 610.33C639.23 610.031 639.306 609.703 639.306 609.37C639.306 609.037 639.23 608.709 639.084 608.41C637.49 606.806 635.6 606.911 633.679 607.935L633.721 607.988ZM776.129 610.098C775.897 609.423 775.791 608.262 775.411 608.157C773.426 607.618 772.772 609.381 771.906 610.605C771.041 611.829 771.357 612.715 772.835 612.905C774.725 613 775.232 611.238 776.087 609.972L776.129 610.098ZM882.75 611.439C882.433 610.784 882.285 609.898 881.768 609.528C881.56 609.333 881.306 609.193 881.03 609.12C880.754 609.047 880.464 609.044 880.187 609.111C879.909 609.178 879.653 609.313 879.44 609.504C879.228 609.694 879.067 609.935 878.971 610.204C878.924 610.546 878.965 610.894 879.091 611.215C879.217 611.536 879.422 611.82 879.688 612.04C880.191 612.279 880.76 612.34 881.302 612.211C881.843 612.083 882.324 611.773 882.665 611.333L882.75 611.439ZM564.249 625.031C561.261 624.978 558.706 623.1 556.152 626.793C558.97 627.5 561.483 628.577 564.164 624.925L564.249 625.031ZM573.612 633.663C574.774 633.442 575.945 633.167 575.417 631.553C575.262 631.016 574.912 630.557 574.436 630.264C573.959 629.971 573.391 629.866 572.842 629.97C571.607 630.128 570.614 630.793 570.973 632.186C571.205 633.305 572.367 633.558 573.528 633.558L573.612 633.663ZM734.853 637.325C734.114 636.703 733.544 635.89 733.153 635.964C732.141 636.253 731.164 636.653 730.24 637.156C730.683 637.589 731.169 638.412 731.549 638.36C732.658 638.089 733.736 637.707 734.768 637.22L734.853 637.325ZM749.843 968.313L746.856 966.203C746.613 966.899 745.969 967.996 746.18 968.186C747.187 969.226 748.388 970.058 749.716 970.635C750.36 970.814 750.719 969.833 749.759 968.208L749.843 968.313ZM847.565 647.224C848.219 646.886 849.856 646.507 849.961 645.884C850.03 645.518 850.023 645.142 849.938 644.779C849.854 644.416 849.695 644.075 849.472 643.778C849.248 643.48 848.965 643.232 848.64 643.049C848.316 642.867 847.957 642.754 847.586 642.718C847.056 642.717 846.534 642.846 846.065 643.092C845.596 643.339 845.194 643.696 844.894 644.132C844.335 645.778 845.454 646.802 847.565 647.224ZM1085.09 648.068C1086.43 647.762 1088.44 648.364 1088.37 645.958C1088.37 645.504 1087.15 644.607 1086.69 644.734C1085.27 645.092 1083.61 645.409 1083.1 647.14C1083.74 647.504 1084.4 647.815 1085.09 648.068ZM719.05 657.756C720.506 657.619 721.024 656.469 721.404 655.35C721.868 653.999 721.245 653.071 719.789 653.239C719.173 653.249 718.579 653.472 718.109 653.87C717.64 654.269 717.323 654.818 717.213 655.424C717.146 655.702 717.143 655.991 717.204 656.27C717.265 656.549 717.388 656.811 717.565 657.036C717.742 657.26 717.967 657.442 718.224 657.567C718.482 657.691 718.764 657.756 719.05 657.756ZM870.145 695.177C871.37 695.241 872.489 695.082 872.805 693.7C873.027 692.708 872.521 692.138 871.676 692.486C870.673 692.976 869.706 693.537 868.784 694.164L870.145 695.177ZM776.741 1033.33C772.666 1032.67 770.291 1032.49 767.525 1034.65C770.893 1035.74 773.226 1035.74 776.741 1033.33ZM601.123 730.277C600.732 729.042 599.845 728.166 598.631 728.525C597.65 728.852 596.393 729.844 596.245 730.71C596.129 731.385 597.428 732.82 598.272 733.031C600.099 733.316 600.637 731.638 601.123 730.277ZM758.246 749.378C759.024 749.244 759.731 748.842 760.245 748.243C760.76 747.645 761.049 746.885 761.065 746.096C761.065 745.452 760.495 744.323 760.009 744.207C758.141 743.796 757.18 745.03 756.842 746.708C756.684 747.241 756.743 747.815 757.006 748.306C757.269 748.796 757.714 749.162 758.246 749.326V749.378ZM736.077 775.761C736.934 775.223 737.706 774.562 738.368 773.798C738.485 773.638 738.547 773.445 738.547 773.247C738.546 773.049 738.482 772.857 738.364 772.698C738.246 772.539 738.081 772.421 737.892 772.363C737.702 772.305 737.5 772.308 737.313 772.374C736.056 772.553 734.145 772.11 734.219 774.241C734.209 774.664 735.233 775.107 736.025 775.729L736.077 775.761ZM683.685 782.526C684.015 783.126 684.562 783.576 685.214 783.784C685.867 783.992 686.574 783.942 687.19 783.644C688.478 783.085 690.114 782.156 689.861 780.573C689.692 779.592 688.056 779.254 686.989 779.93C685.825 780.723 684.705 781.579 683.633 782.494L683.685 782.526ZM548.562 787.971C549.256 787.772 549.94 787.536 550.61 787.264C550.156 785.322 548.034 786.145 546.968 785.153C546.113 784.341 545.374 784.467 545.374 785.565C545.3 787.559 546.788 787.96 548.488 787.939L548.562 787.971ZM535.334 793.923C536.823 796.034 538.501 796.297 540 795.865C541.499 795.432 543.832 796.213 543.875 793.427C541.056 792.435 538.427 791.907 535.26 793.891L535.334 793.923ZM815.082 798.302C814.365 796.498 813.224 797.617 812.412 798.07C811.559 798.686 810.777 799.394 810.079 800.181C811.103 800.514 812.169 800.703 813.246 800.74C813.528 800.706 813.8 800.613 814.044 800.467C814.287 800.32 814.497 800.124 814.66 799.891C814.822 799.658 814.933 799.393 814.986 799.114C815.039 798.835 815.032 798.547 814.966 798.271L815.082 798.302ZM399.82 803.241C399.071 802.429 398.764 801.732 398.3 801.658C396.769 801.395 395.133 801.489 394.331 803.03C394.035 803.537 394.331 804.381 394.415 805.078L399.82 803.241ZM593.005 801.437C591.991 801.014 590.926 800.723 589.838 800.571C589.046 800.571 586.914 800.086 588.117 802.091C588.529 802.798 590.228 802.893 591.358 802.935C591.675 802.925 592.171 802.038 592.91 801.405L593.005 801.437ZM530.626 804.254C528.314 802.26 526.403 803.199 524.482 803.442C523.226 803.621 523.078 804.497 524.197 804.856C525.238 805.204 526.34 805.328 527.432 805.219C528.524 805.109 529.58 804.77 530.531 804.223L530.626 804.254ZM742.876 803.896C741.62 803.896 740.437 803.969 740.036 805.331C740.591 805.732 741.244 805.977 741.926 806.038C742.981 805.954 744.86 805.658 744.966 805.151C745.23 803.431 743.562 804.149 742.781 803.864L742.876 803.896ZM462.642 828.79C461.773 827.871 460.815 827.04 459.781 826.31C459.53 826.166 459.248 826.083 458.958 826.067C458.669 826.051 458.38 826.103 458.114 826.219C457.848 826.335 457.614 826.512 457.428 826.735C457.243 826.958 457.113 827.221 457.047 827.503C456.456 829.128 457.723 829.529 458.884 829.529C460.126 829.383 461.352 829.125 462.547 828.759L462.642 828.79ZM291.848 840.029C293.146 840.473 294.191 840.093 294.033 839.206C293.968 838.38 293.588 837.61 292.971 837.056C292.354 836.502 291.547 836.206 290.718 836.23C289.968 836.401 289.254 836.701 288.607 837.117L291.848 840.029ZM422.527 844.641C423.636 844.103 425.947 845.38 425.472 842.668C425.377 842.108 424.322 841.201 423.931 841.306C422.833 841.514 421.83 842.069 421.07 842.889C419.666 844.789 421.841 844.103 422.527 844.588V844.641ZM918.684 841.855C918.684 839.628 916.784 839.85 915.348 839.681C914.229 839.544 912.561 840.061 913.026 841.169C913.782 842.489 915 843.482 916.446 843.955C917.607 844.335 918.41 843.132 918.695 841.802L918.684 841.855ZM683.157 849.823C681.658 848.767 680.793 848.029 679.822 847.49C678.481 846.731 676.137 844.388 676.422 848.176C676.633 850.646 679.42 851.163 683.168 849.77L683.157 849.823ZM567.036 853.073C569.59 853.706 571.871 854.128 573.992 852.725C571.67 850.329 569.221 851.395 567.057 853.02L567.036 853.073ZM687.38 855.184C686.831 854.793 686.05 853.949 685.765 854.128C684.709 854.656 683.4 855.342 683.115 856.239C682.661 857.727 684.298 857.147 684.963 857.189C685.258 857.225 685.558 857.201 685.844 857.117C686.13 857.033 686.396 856.891 686.624 856.7C686.853 856.509 687.04 856.273 687.173 856.007C687.307 855.74 687.385 855.449 687.401 855.152L687.38 855.184ZM249.073 863.341C248.112 863.985 247.099 864.302 247.035 864.755C246.771 866.571 248.091 867.33 249.59 867.763C250.72 868.101 252.113 867.573 251.765 866.455C251.417 865.336 250.002 864.302 249.094 863.31L249.073 863.341Z" fill="#E0B36E"/>
</g>
<path fill-rule="evenodd" clip-rule="evenodd" d="M207.448 957.686C203.733 959.079 203.733 959.079 199.215 965.073C197.568 967.258 189.049 968.091 187.275 966.129C187.044 965.938 186.855 965.701 186.723 965.432C186.591 965.163 186.517 964.869 186.507 964.569C186.497 964.27 186.551 963.972 186.665 963.695C186.779 963.418 186.951 963.168 187.169 962.963C188.932 961.316 190.854 959.86 192.722 958.309C191.297 955.491 188.932 955.86 186.642 955.776C180.973 955.544 173.763 957.486 174.554 947.629C168.558 947.038 169.033 937.994 161.274 938.437C154.94 938.796 154.106 935.482 157.178 928C164.948 935.535 171.335 936.517 179.991 931.05C176.391 929.636 173.541 932.105 170.585 931.778C168.178 931.525 166.637 930.121 167.629 927.842C169.287 924.085 172.728 922.175 176.655 921.763C178.999 921.52 181.933 919.41 183.538 923.768C185.501 929.288 188.816 931.989 194.897 927.821C196.29 926.871 199.436 928.486 201.769 928.876C203.078 936.042 203.078 936.042 213.846 934.638C208.662 934.976 207.607 926.892 201.442 929.224C200.523 924.444 202.35 917.616 193.556 918.671C197.261 913.574 194.612 910.461 190.801 907.316C187.043 910.82 193.831 914.387 189.566 917.225L174.977 915.463C176.486 909.617 179.199 905.754 188.542 908.53C183.707 903.464 181.152 900.562 178.344 897.977C177.289 896.921 173.689 897.976 176.296 894.599C177.405 893.164 177.352 890.779 180.36 891.718C183.791 892.774 188.067 892.331 190.79 894.241C196.86 898.462 206.509 899.581 206.308 910.07L199.869 913.637C203.279 918.418 206.203 920.961 211.481 915.959C213.877 913.732 218.227 914.756 215.989 919.42C213.265 925.066 218.364 928.253 218.892 932.791C219.113 934.628 221.985 934.416 223.03 933.783C227.432 931.113 221.605 932.327 221.901 931.145C222.956 927.061 226.946 928.623 229.459 927.399C231.971 926.175 232.235 927.399 231.57 930.195C230.61 934.015 234.568 934.543 237.081 935.102C239.984 935.757 239.868 937.424 239.583 939.503C239.361 941.213 238.612 942.585 236.732 942.806C235.128 942.996 233.207 942.458 231.961 943.165C227.886 945.508 224.888 936.147 220.243 942.595C217.171 946.88 211.798 942.595 207.723 944.115C206.254 944.777 204.842 945.556 203.5 946.447C205.253 943.197 204.926 940.516 200.682 942.015C198.423 942.796 197.05 946.078 195.245 948.262C199.299 951.207 201.178 947.429 203.764 946.152C205.749 951.428 201.991 953.961 197.568 956.641C201.442 959.185 204.282 960.936 207.67 957.697L207.448 957.686Z" fill="#E0B36E"/>
<path fill-rule="evenodd" clip-rule="evenodd" d="M221.5 981.737C224.435 980.122 230.8 982.402 228.594 974.962C228.077 973.231 231.286 971.321 232.986 971.796C236.026 972.714 239.731 977.368 238.169 969.115C237.324 964.693 241.462 966.044 242.898 966.846C247.543 969.453 252.916 971.068 258.173 977.009C244.26 974.719 233.988 984.428 221.5 981.737Z" fill="#E0B36E"/>
<path fill-rule="evenodd" clip-rule="evenodd" d="M235.371 900.858C236.427 903.918 237.26 906.694 241.525 906.968C245.442 907.232 249.253 909.079 253.137 909.416C257.022 909.754 252.884 913.131 255.544 914.629C257.656 915.811 254.563 916.74 253.38 916.888C250.921 917.131 248.63 917.204 247.532 920.054C247.015 921.383 245.917 921.51 245.146 920.17C241.61 914.091 233.27 910.999 233.967 902.229C234.155 902.259 234.348 902.244 234.53 902.186C234.711 902.129 234.877 902.029 235.013 901.896C235.15 901.762 235.253 901.599 235.315 901.419C235.377 901.239 235.396 901.047 235.371 900.858Z" fill="#E0B36E"/>
<path fill-rule="evenodd" clip-rule="evenodd" d="M388.958 893.291C378.296 901.913 376.871 902.145 368.024 895.856C365.596 894.125 365.522 894.906 363.992 896.805C362.208 898.99 362.356 895.581 361.479 894.885C360.36 894.009 360.498 892.774 361.965 892.32C363.618 891.699 365.381 891.425 367.145 891.516C368.909 891.607 370.635 892.06 372.215 892.848C379.214 896.077 379.362 895.739 388.958 893.291Z" fill="#E0B36E"/>
<path fill-rule="evenodd" clip-rule="evenodd" d="M544.487 898.684C543.722 898.462 542.929 898.355 542.133 898.367C533.255 899.866 533.255 899.876 532.632 909.385C528.198 909.606 525.971 903.116 520.809 905.818C528.029 900.108 535.947 898.209 544.529 898.599L544.487 898.684Z" fill="#E0B36E"/>
<path fill-rule="evenodd" clip-rule="evenodd" d="M539.314 996.342C541.479 991.657 544.677 992.269 547.232 992.733C551.349 993.493 554.4 993.873 554.621 988.206C554.706 986.243 557.018 986.654 558.485 987.33C558.866 987.447 559.22 987.642 559.522 987.903C559.824 988.163 560.068 988.484 560.24 988.844C560.412 989.204 560.507 989.596 560.519 989.995C560.531 990.394 560.46 990.791 560.311 991.161C559.256 994.728 556.152 997.134 553.344 996.374C548.889 995.16 544.709 996.965 539.314 996.342Z" fill="#E0B36E"/>
<path fill-rule="evenodd" clip-rule="evenodd" d="M382.498 960.071C384.852 956.346 388.748 955.945 392.548 955.618C394.733 955.428 396.612 956.462 396.327 958.974C396.095 961.084 397.172 964.092 393.498 964.482C392.358 964.598 390.954 964.999 390.437 963.564C389.983 962.33 393.118 961.285 391.154 960.103C389.603 959.153 388.6 961.053 387.428 962.108C384.166 965.073 383.881 961.517 382.815 959.765L382.498 960.071Z" fill="#E0B36E"/>
<path fill-rule="evenodd" clip-rule="evenodd" d="M268.012 881.767C270.176 880.86 273.797 880.438 274.261 878.992C277.745 868.217 281.904 876.417 286.137 878.443C280.627 883.055 274.768 884.057 268.191 881.44C268.107 881.503 268.012 881.767 268.012 881.767Z" fill="#E0B36E"/>
<path fill-rule="evenodd" clip-rule="evenodd" d="M498.63 900.456C491.673 899.475 484.695 898.515 477.749 897.449C477.063 897.343 476.493 896.541 475.543 895.813C477.38 891.233 481.18 892.077 484.79 892.436V892.51C488.623 896.383 495.347 895.497 498.334 900.763L498.63 900.456Z" fill="#E0B36E"/>
<path fill-rule="evenodd" clip-rule="evenodd" d="M270.124 963.997C267.833 968.714 263.283 968.44 261.795 971.88C261.193 965.042 261.193 965.042 270.124 963.997Z" fill="#E0B36E"/>
<path fill-rule="evenodd" clip-rule="evenodd" d="M408.192 447.38L401.531 452.034C396.01 446.757 401.964 444.024 403.495 440.066C406.947 441.934 407.802 444.52 408.192 447.38Z" fill="#E0B36E"/>
<path fill-rule="evenodd" clip-rule="evenodd" d="M231.181 885.883C230.298 890.79 230.966 895.851 233.091 900.362L223.01 900.995C223.168 899.792 223.316 898.589 223.474 897.375L223.115 897.702C225.205 893.354 226.842 888.69 231.181 885.883Z" fill="#E0B36E"/>
<path fill-rule="evenodd" clip-rule="evenodd" d="M205.887 909.68C207.185 908.751 208.737 908.034 209.698 906.841C210.88 905.396 207.027 901.829 211.408 901.649C214.986 901.501 216.053 904.192 215.894 907.453C215.904 908.252 215.971 909.049 216.095 909.838C212.685 910.25 209.201 915.379 205.887 909.68Z" fill="#E0B36E"/>
<path fill-rule="evenodd" clip-rule="evenodd" d="M484.791 892.436C489.119 893.101 492.18 890.779 495.516 888.458C495.994 888.087 496.548 887.826 497.138 887.692C497.728 887.559 498.34 887.555 498.932 887.683C499.523 887.811 500.08 888.066 500.562 888.432C501.044 888.797 501.44 889.263 501.723 889.798C501.906 890.316 501.975 890.867 501.924 891.413C501.873 891.96 501.704 892.489 501.428 892.964C500.161 894.863 498.261 895.074 496.308 893.819C492.697 891.476 488.718 892.025 484.77 892.457L484.791 892.436Z" fill="#E0B36E"/>
<path fill-rule="evenodd" clip-rule="evenodd" d="M499.675 913.469C495.526 914.038 491.546 915.389 487.946 912.909C487.134 912.361 485.107 912.73 486.046 910.936C486.399 910.494 486.843 910.134 487.347 909.879C487.852 909.624 488.405 909.48 488.97 909.458C493.035 909.3 495.093 914.851 499.675 913.469Z" fill="#E0B36E"/>
<path fill-rule="evenodd" clip-rule="evenodd" d="M255.428 953.317C254.003 955.48 252.662 954.953 252.029 954.119C249.59 950.953 244.639 956.43 242.992 951.396C243.019 951.027 243.14 950.67 243.343 950.36C243.546 950.05 243.825 949.796 244.153 949.623C248.671 948.726 252.578 949.623 255.428 953.317Z" fill="#E0B36E"/>
<path fill-rule="evenodd" clip-rule="evenodd" d="M215.705 909.68C219.717 908.836 218.281 904.055 221.036 902.293C221.089 903.053 220.836 904.108 221.247 904.509C223.2 906.493 225.776 908.488 223.095 911.326C220.118 914.45 217.753 912.118 215.705 909.68Z" fill="#E0B36E"/>
<path fill-rule="evenodd" clip-rule="evenodd" d="M397.287 877.493C393.37 882.115 388.156 882.653 380.396 883.223C386.73 877.567 391.935 876.955 397.604 877.63L397.287 877.493Z" fill="#E0B36E"/>
<path fill-rule="evenodd" clip-rule="evenodd" d="M309.435 964.757C305.456 966.287 302.774 968.619 300.304 965.59C299.533 964.641 299.354 961.77 299.934 961.369C303.64 958.995 306.131 961.39 309.435 964.757Z" fill="#E0B36E"/>
<path fill-rule="evenodd" clip-rule="evenodd" d="M324.564 939.64C322.896 942.405 320.162 942.806 317.322 942.954C315.781 943.017 313.786 943.218 315.116 940.601C315.686 939.482 314.799 936.517 316.953 937.519C319.454 938.691 322.716 936.643 324.564 939.64Z" fill="#E0B36E"/>
<path fill-rule="evenodd" clip-rule="evenodd" d="M407.95 925.299C407.169 925.024 405.279 924.022 407.063 923.695C412.458 922.724 406.113 917.574 409.681 917.014C411.887 916.666 412.563 919.294 412.679 921.331C412.88 924.571 410.726 925.278 407.95 925.299Z" fill="#E0B36E"/>
<path fill-rule="evenodd" clip-rule="evenodd" d="M468.723 982.286C463.888 983.278 458.673 986.507 455.137 979.964C460.014 978.835 464.036 982.655 468.776 982.475L468.723 982.286Z" fill="#E0B36E"/>
<path fill-rule="evenodd" clip-rule="evenodd" d="M338.044 870.633L328.047 868.438C332.776 865.03 334.518 868.713 338.044 870.633Z" fill="#E0B36E"/>
<path fill-rule="evenodd" clip-rule="evenodd" d="M275.761 910.873C274.584 911.273 273.36 911.518 272.119 911.601C270.398 911.474 268.023 911.938 268.192 908.931C268.177 908.543 268.261 908.158 268.435 907.812C270.135 905.385 271.824 907.474 273.354 908.044C274.241 908.382 274.769 909.68 275.761 910.873Z" fill="#E0B36E"/>
<path fill-rule="evenodd" clip-rule="evenodd" d="M415.803 908.329C418.885 901.997 423.139 902.915 427.848 903.897C424.554 907.453 420.405 906.82 415.803 908.329Z" fill="#E0B36E"/>
<path fill-rule="evenodd" clip-rule="evenodd" d="M305.013 908.625C301.17 910.535 297.328 912.846 290.582 910.261L305.013 908.625Z" fill="#E0B36E"/>
<path fill-rule="evenodd" clip-rule="evenodd" d="M559.626 908.319C560.397 910.556 566.023 909.195 563.627 913.838C561.621 917.722 558.771 914.461 557.863 913.743C554.591 911.168 558.919 910.155 559.647 908.308L559.626 908.319Z" fill="#E0B36E"/>
<path fill-rule="evenodd" clip-rule="evenodd" d="M500.698 979.331C502.81 981.705 506.177 979.922 508.426 981.737C509.481 984.291 504.879 983.193 505.829 986.021C506.884 989.187 504.9 989.652 503.105 987.741C500.994 985.472 499.294 982.581 500.762 979.098L500.698 979.331Z" fill="#E0B36E"/>
<path fill-rule="evenodd" clip-rule="evenodd" d="M508.1 946.753C511.193 944.22 514.18 942.395 518.994 942.532C516.091 948.98 511.678 947.196 508.1 946.753Z" fill="#E0B36E"/>
<path fill-rule="evenodd" clip-rule="evenodd" d="M269.701 866.803C275.106 866.433 280.965 863.025 286.518 870.074C279.92 870.074 275.233 865.716 269.722 866.792L269.701 866.803Z" fill="#E0B36E"/>
<path fill-rule="evenodd" clip-rule="evenodd" d="M321.85 871.119C321.205 871.534 320.523 871.887 319.812 872.174C317.152 872.987 314.376 873.958 312.423 870.908C312.191 870.528 312.782 869.198 313.352 868.797C316.92 866.476 320.013 866.412 321.85 871.119Z" fill="#E0B36E"/>
<path fill-rule="evenodd" clip-rule="evenodd" d="M522.888 936.664C523.255 935.978 523.664 935.316 524.113 934.68C525.073 933.477 522.624 930.079 526.224 930.871C527.396 931.134 524.514 935.493 528.652 935.356C527.691 937.234 526.087 935.356 524.862 935.989C524.117 936.233 523.343 936.378 522.561 936.422L522.888 936.664Z" fill="#E0B36E"/>
<path fill-rule="evenodd" clip-rule="evenodd" d="M468.776 982.497C469.108 983.882 469.306 985.295 469.367 986.718C469.294 988.375 467.478 988.512 467.256 987.499C467.034 986.486 468.312 984.871 468.776 983.51C468.843 983.108 468.843 982.698 468.776 982.296V982.497Z" fill="#E0B36E"/>
<path fill-rule="evenodd" clip-rule="evenodd" d="M498.312 900.763C502.102 901.934 506.314 901.712 509.925 904.319C504.14 908.329 501.543 903.992 498.64 900.457L498.312 900.763Z" fill="#E0B36E"/>
<path fill-rule="evenodd" clip-rule="evenodd" d="M495.653 975.669C491.04 975.447 487.883 976.893 484.854 972.999C488.538 973.621 491.441 972.186 495.653 975.669Z" fill="#E0B36E"/>
<path fill-rule="evenodd" clip-rule="evenodd" d="M315.991 891.37C311.504 892.426 308.834 892.795 306.363 890.843C309.836 889.175 309.836 889.175 315.991 891.37Z" fill="#E0B36E"/>
<path fill-rule="evenodd" clip-rule="evenodd" d="M550.452 983.13C549.502 983.541 548.499 984.016 547.465 984.407C547.101 984.572 546.695 984.62 546.304 984.544C545.132 984.227 545.248 983.984 546.715 983.974C548.32 983.974 548.225 981.177 550.199 981.863C550.357 981.916 550.336 982.496 550.452 983.13Z" fill="#E0B36E"/>
<path fill-rule="evenodd" clip-rule="evenodd" d="M305.277 975.247C303.704 975.152 302.11 975.352 302.353 973.875C302.458 973.189 304.179 972.482 305.245 972.302C306.311 972.123 307.758 972.84 307.673 974.044C307.631 974.561 305.858 974.972 305.277 975.247Z" fill="#E0B36E"/>
<path fill-rule="evenodd" clip-rule="evenodd" d="M505.671 965.253C502.842 966.656 499.939 967.532 499.337 966.308C498.186 964.198 500.646 964.461 502.018 964.482C503.251 964.66 504.471 964.917 505.671 965.253Z" fill="#E0B36E"/>
<path fill-rule="evenodd" clip-rule="evenodd" d="M382.815 959.765L375.742 959.174C378.582 955.808 380.514 958.003 382.488 960.071L382.815 959.765Z" fill="#E0B36E"/>
<path fill-rule="evenodd" clip-rule="evenodd" d="M337.78 949.339C335.151 951.09 332.501 949.17 329.641 949.718C330.872 949.022 332.251 948.624 333.665 948.558C335.079 948.492 336.488 948.759 337.78 949.339Z" fill="#E0B36E"/>
<path fill-rule="evenodd" clip-rule="evenodd" d="M522.529 936.422C523.057 937.023 523.859 937.551 524.081 938.258C524.493 939.609 527.712 938.997 526.266 941.234C525.928 941.751 523.806 941.656 522.898 941.139C520.566 939.82 520.513 938.163 522.898 936.685L522.529 936.422Z" fill="#E0B36E"/>
<path fill-rule="evenodd" clip-rule="evenodd" d="M353.975 873.483C356.899 872.269 360.176 872.216 363.138 873.335C359.506 874.992 356.814 874.401 353.975 873.483Z" fill="#E0B36E"/>
<path fill-rule="evenodd" clip-rule="evenodd" d="M301.676 875.741C303.502 875.878 304.484 877.092 305.276 878.548C304.621 878.96 303.91 879.273 303.164 879.477C301.391 879.72 299.797 879.35 299.934 877.113C300.008 876.628 301.074 876.206 301.676 875.741Z" fill="#E0B36E"/>
<path fill-rule="evenodd" clip-rule="evenodd" d="M437.455 892.194V892.552C440.326 888.426 443.303 891.223 449.014 892.552C443.335 892.869 440.348 894.019 437.455 892.194Z" fill="#E0B36E"/>
<path fill-rule="evenodd" clip-rule="evenodd" d="M375.688 469.689L377.272 470.839C375.741 472.581 374.411 474.723 371.592 474.206C370.537 474.016 370.305 473.245 370.737 472.37C371.782 470.333 373.577 469.773 375.688 469.689Z" fill="#E0B36E"/>
<path fill-rule="evenodd" clip-rule="evenodd" d="M326.832 878.464C326.832 880.1 327.465 878.401 325.871 878.643C325.217 878.738 323.897 878.306 323.897 878.105C323.897 876.48 323.116 878.358 324.721 878.105C325.439 878.111 326.152 878.232 326.832 878.464Z" fill="#E0B36E"/>
<path fill-rule="evenodd" clip-rule="evenodd" d="M559.646 908.308C556.342 909.511 552.975 911.221 549.09 906.43C553.397 906.968 556.332 909.395 559.646 908.319V908.308Z" fill="#E0B36E"/>
<path fill-rule="evenodd" clip-rule="evenodd" d="M357.827 928.465L358.756 928.76C358.068 929.068 357.363 929.336 356.645 929.562C356.36 929.636 355.98 929.372 355.652 929.267L357.827 928.465Z" fill="#E0B36E"/>
<path fill-rule="evenodd" clip-rule="evenodd" d="M249.919 935.725C250.067 937.129 249.349 938.078 248.04 937.91C247.511 937.855 246.998 937.692 246.535 937.431C246.072 937.169 245.668 936.815 245.348 936.39C244.545 934.786 246.108 934.543 247.185 934.374C247.727 934.225 248.305 934.28 248.809 934.529C249.313 934.778 249.708 935.204 249.919 935.725Z" fill="#E0B36E"/>
<path fill-rule="evenodd" clip-rule="evenodd" d="M358.797 935.324C357.104 935.456 355.403 935.456 353.709 935.324C352.58 935.134 352.538 934.269 353.646 933.92C354.721 933.689 355.828 933.643 356.918 933.783C357.341 933.783 357.742 934.364 358.797 935.324Z" fill="#E0B36E"/>
<path fill-rule="evenodd" clip-rule="evenodd" d="M511.119 939.229L508.934 938.173C509.845 937.741 510.805 937.422 511.794 937.224C512.396 937.171 513.061 937.793 513.695 938.121L511.119 939.229Z" fill="#E0B36E"/>
<path fill-rule="evenodd" clip-rule="evenodd" d="M275.971 947.745C275.349 948.505 274.916 949.476 274.399 949.56C272.71 949.824 273.005 948.378 273.121 947.45C273.216 946.69 272.066 944.917 274.092 945.339C274.863 945.561 275.401 946.954 275.971 947.745Z" fill="#E0B36E"/>
<path fill-rule="evenodd" clip-rule="evenodd" d="M284.185 947.049C284.85 948.041 285.874 948.906 285.98 949.866C286.031 950.154 285.997 950.45 285.883 950.72C285.769 950.989 285.579 951.219 285.336 951.382C285.093 951.545 284.809 951.634 284.516 951.639C284.224 951.643 283.937 951.563 283.689 951.407C282.95 950.953 282.75 949.444 282.634 948.357C282.539 948.051 283.489 947.597 284.185 947.049Z" fill="#E0B36E"/>
<path fill-rule="evenodd" clip-rule="evenodd" d="M410.525 950.901C409.87 950.753 408.762 950.774 408.635 950.415C408.521 950.163 408.47 949.886 408.488 949.609C408.506 949.332 408.592 949.064 408.738 948.828C408.884 948.593 409.086 948.396 409.325 948.257C409.565 948.118 409.836 948.04 410.113 948.03C410.757 947.925 411.908 948.241 412.119 948.695C412.795 950.077 411.581 950.479 410.525 950.901Z" fill="#E0B36E"/>
<path fill-rule="evenodd" clip-rule="evenodd" d="M207.704 957.792C208.417 957.539 209.089 957.183 209.699 956.736C211.092 955.354 212.401 953.792 214.618 954.626C214.956 954.752 215.209 956.135 214.945 956.736C213.89 959.068 211.715 958.15 209.878 958.066C209.097 958.066 208.316 957.929 207.492 957.834L207.704 957.792Z" fill="#E0B36E"/>
<path fill-rule="evenodd" clip-rule="evenodd" d="M500.763 979.046C498.652 981.494 496.54 984.016 492.846 981.072C494.957 977.906 498.124 980.323 500.647 979.352C500.697 979.254 500.736 979.152 500.763 979.046Z" fill="#E0B36E"/>
<path fill-rule="evenodd" clip-rule="evenodd" d="M489.235 865.357L486.86 865.083C486.834 865.133 486.813 865.186 486.797 865.241L489.151 865.6C489.151 865.6 489.214 865.431 489.235 865.357Z" fill="#E0B36E"/>
<path fill-rule="evenodd" clip-rule="evenodd" d="M295.458 870.633C295.376 871.259 295.078 871.836 294.615 872.266C294.153 872.696 293.555 872.95 292.925 872.987C292.634 873.028 292.338 873.003 292.058 872.913C291.779 872.823 291.523 872.671 291.311 872.467C291.1 872.264 290.937 872.015 290.836 871.739C290.736 871.463 290.699 871.168 290.729 870.876C290.782 869.652 291.468 868.354 292.84 868.702C293.854 868.924 294.656 870.021 295.458 870.633Z" fill="#E0B36E"/>
<path fill-rule="evenodd" clip-rule="evenodd" d="M174.059 871.14C175.273 867.847 173.584 865.864 170.744 864.365C175.917 862.18 180.921 860.144 186.579 860.988C183.824 866.18 180.646 870.781 174.059 871.14Z" fill="#E0B36E"/>
</g>
<defs>
<filter id="filter0_d_676_6373" x="86.752" y="389.045" width="1017.14" height="660.744" filterUnits="userSpaceOnUse" color-interpolation-filters="sRGB">
<feFlood flood-opacity="0" result="BackgroundImageFix"/>
<feColorMatrix in="SourceAlpha" type="matrix" values="0 0 0 0 0 0 0 0 0 0 0 0 0 0 0 0 0 0 127 0" result="hardAlpha"/>
<feOffset dy="4"/>
<feGaussianBlur stdDeviation="2"/>
<feComposite in2="hardAlpha" operator="out"/>
<feColorMatrix type="matrix" values="0 0 0 0 0 0 0 0 0 0 0 0 0 0 0 0 0 0 0.25 0"/>
<feBlend mode="normal" in2="BackgroundImageFix" result="effect1_dropShadow_676_6373"/>
<feBlend mode="normal" in="SourceGraphic" in2="effect1_dropShadow_676_6373" result="shape"/>
</filter>
<clipPath id="clip0_676_6373">
<rect width="681" height="269" fill="white" transform="translate(72 52)"/>
</clipPath>
<clipPath id="clip1_676_6373">
<rect width="1015" height="655" fill="white" transform="translate(91 389)"/>
</clipPath>
</defs>
</svg>
