<svg width="1920" height="869" viewBox="0 0 1920 869" fill="none" xmlns="http://www.w3.org/2000/svg">
<path fill-rule="evenodd" clip-rule="evenodd" d="M136.909 -462.429C134.544 -462.552 132.248 -462.799 129.97 -463.044C124.944 -463.585 120.004 -464.116 114.606 -463.287C114.092 -463.22 113.431 -463.371 112.736 -463.529C112.222 -463.647 111.689 -463.768 111.183 -463.81C109.171 -464.005 107.104 -464.096 105.032 -464.081C93.7673 -464.015 82.5175 -464.437 71.4916 -465.34C66.0331 -465.654 60.6514 -466.142 55.2687 -466.631L55.2545 -466.632C50.0252 -467.107 44.7949 -467.581 39.492 -467.896C33.7013 -468.265 28.1227 -469.033 23.0186 -470.162C18.7978 -471.05 14.7238 -472.052 10.6498 -473.055L10.6464 -473.055L10.6437 -473.056C3.60973 -474.787 -3.42449 -476.517 -11.2146 -477.657C-11.7455 -477.783 -12.1866 -477.959 -12.4986 -478.169C-12.8106 -478.379 -12.9828 -478.616 -13.0001 -478.858C-12.8016 -479.478 -11.9088 -480.388 -10.8173 -480.543C-7.71524 -480.893 -4.54559 -481.146 -1.34028 -481.298C-0.992978 -482.422 -0.645776 -483.564 -0.199249 -485.075L2.44048 -484.954C8.18224 -484.689 13.5664 -484.441 18.9511 -484.223C33.5376 -483.622 48.0748 -483.042 62.6613 -482.48C64.1733 -482.422 65.6905 -482.362 67.2118 -482.301C72.2801 -482.1 77.3935 -481.897 82.507 -481.763C90.6933 -481.531 98.9788 -481.337 107.314 -481.221C113.929 -481.397 120.572 -481.339 127.16 -481.047C137.493 -480.095 147.951 -479.856 158.4 -479.617C164.104 -479.487 169.806 -479.356 175.482 -479.11L176.464 -479.067C176.964 -479.046 177.464 -479.024 177.965 -479.002L177.968 -479.002L177.97 -479.002L177.973 -479.002L177.976 -479.002C182.106 -478.822 186.236 -478.642 190.367 -478.529C204.139 -478.16 217.98 -478.176 231.805 -478.193L232.093 -478.193L232.095 -478.193L232.097 -478.193C234.858 -478.196 237.619 -478.2 240.378 -478.2C258.612 -478.214 276.673 -479.13 294.715 -480.045L294.73 -480.046L294.789 -480.048C300.384 -480.332 305.978 -480.616 311.575 -480.872L313.676 -480.967L316.192 -481.081C327.99 -481.616 339.762 -482.15 351.612 -482.441C364.775 -482.761 377.95 -483.002 391.125 -483.244L391.184 -483.245L391.242 -483.246L391.245 -483.246L391.248 -483.246L391.251 -483.246L391.254 -483.246C405.2 -483.502 419.145 -483.759 433.078 -484.107C448.552 -484.49 464.006 -485.001 479.465 -485.511L479.539 -485.514C488.244 -485.801 496.952 -486.088 505.665 -486.353C510.577 -486.499 515.503 -486.606 520.428 -486.713L520.436 -486.713C524.662 -486.804 528.886 -486.896 533.101 -487.012C541.287 -487.244 549.622 -487.515 557.908 -487.806C559.422 -487.86 560.919 -487.958 562.414 -488.056L562.418 -488.057C564.646 -488.203 566.866 -488.348 569.122 -488.348C573.675 -488.418 578.224 -488.497 582.773 -488.575L582.775 -488.575L582.778 -488.575L582.78 -488.575L582.783 -488.575L582.786 -488.575C597.018 -488.82 611.236 -489.065 625.483 -489.065C628.209 -489.056 630.905 -489.15 633.599 -489.244L633.602 -489.244L633.605 -489.244L633.608 -489.244L633.611 -489.244L633.613 -489.244C636.994 -489.362 640.369 -489.48 643.79 -489.394C647.611 -489.23 651.138 -489.284 655.05 -489.344C656.218 -489.362 657.42 -489.381 658.674 -489.394C660.922 -489.418 663.171 -489.465 665.415 -489.512L665.43 -489.512L665.434 -489.512L665.438 -489.512L665.441 -489.512L665.445 -489.512C668.639 -489.579 671.827 -489.646 674.997 -489.646C678.426 -489.646 681.855 -489.629 685.285 -489.612L685.363 -489.611L685.394 -489.611L685.407 -489.611C692.31 -489.577 699.221 -489.543 706.154 -489.646C711.959 -489.749 717.813 -489.73 723.685 -489.711L723.694 -489.711L723.702 -489.711L723.711 -489.711L723.719 -489.711L723.728 -489.711C731.091 -489.687 738.484 -489.663 745.845 -489.878C753.534 -490.112 761.247 -490.219 768.961 -490.327L768.963 -490.327L768.965 -490.327L768.966 -490.327L768.968 -490.327L768.97 -490.327C777.23 -490.442 785.491 -490.557 793.725 -490.827C797.831 -490.739 801.95 -490.797 806.029 -491.001C811.971 -491.51 818.068 -491.686 824.137 -491.524C832.873 -491.501 841.604 -491.682 850.284 -492.067C858.476 -492.617 866.78 -492.87 875.091 -492.822C888.184 -492.699 901.282 -492.847 914.334 -493.267C915.908 -493.29 917.57 -493.182 919.218 -493.074L919.22 -493.074L919.222 -493.074L919.223 -493.074L919.225 -493.074L919.226 -493.074C921.837 -492.905 924.411 -492.737 926.539 -493.093C932.032 -494.003 937.589 -493.942 943.127 -493.882L943.137 -493.882L943.14 -493.882L943.144 -493.882L943.147 -493.882L943.151 -493.882C946.208 -493.848 949.259 -493.814 952.291 -493.945C964.032 -494.464 975.856 -494.64 987.681 -494.815C991.745 -494.876 995.809 -494.936 999.87 -495.011C1003.94 -495.07 1008 -495.187 1012.06 -495.304C1022.51 -495.606 1032.96 -495.907 1043.43 -495.224C1045.05 -495.033 1046.77 -495.033 1048.39 -495.224C1055.17 -496.571 1062.23 -496.381 1069.19 -496.192L1069.23 -496.191C1070.56 -496.155 1071.88 -496.12 1073.2 -496.095C1083.09 -495.914 1092.93 -496.217 1102.76 -496.52L1102.76 -496.52L1102.77 -496.52L1102.78 -496.52L1102.78 -496.52L1102.79 -496.52L1102.79 -496.52L1102.79 -496.52L1102.79 -496.52L1102.79 -496.52L1102.8 -496.52C1112.92 -496.832 1123.04 -497.144 1133.23 -496.928C1143.95 -496.697 1154.77 -496.618 1165.62 -496.538L1165.62 -496.538L1165.62 -496.538L1165.63 -496.538L1165.63 -496.538L1165.66 -496.538L1165.71 -496.537C1173.07 -496.483 1180.44 -496.429 1187.81 -496.327C1197.37 -496.198 1206.88 -495.927 1216.34 -495.514C1224.43 -495.038 1232.61 -494.837 1240.8 -494.914C1244.05 -494.994 1247.27 -494.741 1250.49 -494.49L1250.49 -494.49C1255.8 -494.074 1261.08 -493.661 1266.4 -494.759C1266.6 -494.778 1266.82 -494.777 1267.03 -494.757C1267.13 -494.747 1267.23 -494.732 1267.32 -494.713C1267.42 -494.694 1267.51 -494.67 1267.59 -494.643C1270.61 -493.607 1273.9 -493.746 1277.23 -493.887L1277.24 -493.887C1278.39 -493.936 1279.54 -493.984 1280.69 -493.984C1288.5 -494.071 1296.29 -493.592 1303.66 -492.57C1304.4 -492.443 1305.18 -492.256 1305.98 -492.063L1305.99 -492.062C1308.85 -491.371 1312.04 -490.602 1315.42 -492.221C1315.56 -492.289 1316.22 -492.154 1316.97 -492.002C1317.5 -491.893 1318.08 -491.775 1318.54 -491.718C1319.48 -491.609 1320.46 -491.456 1321.43 -491.303C1323.76 -490.937 1326.1 -490.57 1328.02 -490.788C1330.02 -491.156 1332.25 -491.289 1334.44 -491.172C1336.63 -491.055 1338.69 -490.693 1340.37 -490.13C1341.07 -489.858 1342.31 -489.95 1343.55 -490.04L1343.56 -490.04L1343.74 -490.054L1343.98 -490.071C1344.16 -490.083 1344.34 -490.095 1344.52 -490.105C1344.58 -490.108 1344.65 -490.111 1344.71 -490.114C1344.81 -490.119 1344.91 -490.122 1345.01 -490.125C1345.12 -490.128 1345.23 -490.13 1345.33 -490.13L1361.41 -490.13C1362.85 -490.13 1364.31 -490.047 1365.76 -489.964L1365.77 -489.964C1367.2 -489.882 1368.63 -489.8 1370.04 -489.8C1385.51 -490.034 1401 -489.722 1416.33 -488.871C1420.84 -488.622 1425.38 -488.592 1429.92 -488.563C1434.92 -488.531 1439.92 -488.498 1444.91 -488.174C1451.16 -488.048 1457.41 -488.048 1463.66 -488.174C1467.25 -488.094 1470.83 -487.94 1474.42 -487.785L1474.43 -487.784C1479.57 -487.563 1484.71 -487.341 1489.86 -487.341C1494.79 -487.383 1499.6 -486.745 1503.45 -485.54C1505.84 -486.051 1508.42 -486.411 1511.09 -486.605C1512.99 -486.591 1514.91 -486.59 1516.82 -486.59C1525.3 -486.588 1533.86 -486.586 1541.95 -485.385C1542.36 -485.325 1542.8 -485.242 1543.24 -485.157L1543.24 -485.156C1544.37 -484.941 1545.55 -484.717 1546.37 -484.843C1551.64 -485.659 1557.03 -485.411 1562.43 -485.163L1562.43 -485.163L1562.45 -485.162L1562.45 -485.162L1562.45 -485.162L1562.45 -485.162C1564.47 -485.069 1566.49 -484.976 1568.5 -484.939C1580.48 -484.696 1592.42 -484.14 1604.22 -483.274C1606.8 -483.078 1609.47 -483.03 1612.16 -482.981C1618.51 -482.865 1624.9 -482.749 1630.07 -480.679C1630.61 -480.388 1631.8 -480.272 1632.35 -480.388C1635.44 -480.952 1638.5 -480.676 1641.58 -480.399L1641.58 -480.399C1644.64 -480.124 1647.72 -479.848 1650.86 -480.388C1653.3 -480.62 1655.85 -480.62 1658.3 -480.388C1662.67 -480.221 1666.97 -479.843 1671.28 -479.463L1671.28 -479.463L1671.28 -479.463L1671.29 -479.463L1671.29 -479.463L1671.29 -479.463C1677.48 -478.918 1683.69 -478.371 1690.15 -478.451C1695.54 -478.255 1700.87 -477.859 1706.08 -477.27C1712.05 -476.926 1718.04 -476.566 1724.04 -476.206L1724.06 -476.205C1734.58 -475.573 1745.14 -474.939 1755.69 -474.384C1767.7 -473.745 1779.6 -473.048 1791.56 -472.273C1799.46 -471.963 1807.25 -471.314 1814.78 -470.337C1823.93 -469.181 1833.36 -468.383 1842.91 -467.954C1845.36 -467.78 1847.86 -467.78 1850.3 -467.954C1863.06 -468.576 1876 -468.12 1888.26 -466.618C1890.3 -466.344 1892.3 -465.976 1894.31 -465.606C1899.82 -464.593 1905.39 -463.569 1911.97 -464.449C1912.49 -464.52 1913.19 -464.344 1913.92 -464.161C1914.38 -464.046 1914.86 -463.928 1915.3 -463.868C1918.01 -463.482 1920.71 -463.092 1923.42 -462.701C1930.64 -461.662 1937.85 -460.623 1945.07 -459.665C1948.86 -459.167 1952.73 -458.773 1956.6 -458.379C1959.2 -458.114 1961.79 -457.85 1964.37 -457.554C1966.17 -457.357 1967.7 -456.993 1967.21 -456.214L1968 -456.191L1965.81 800.071C1962.98 805.483 1957.48 810.453 1949.48 815.015C1949.52 815.748 1949.52 816.476 1949.37 816.58C1949.05 816.79 1948.61 816.966 1948.08 817.092C1946.85 817.272 1945.63 817.468 1944.43 817.676C1931.6 823.962 1913.74 829.428 1891.38 834.172C1891.46 834.997 1891.55 835.822 1891.64 836.647C1890.13 836.705 1888.62 836.765 1887.1 836.825L1886.36 836.855C1885.95 836.379 1885.55 835.909 1885.16 835.45C1882.09 836.062 1878.93 836.662 1875.7 837.249C1879.26 837.135 1882.82 836.995 1886.36 836.855C1887.2 837.833 1888.08 838.839 1888.96 839.844L1888.96 839.846L1888.96 839.847C1893.94 845.53 1898.89 851.174 1896.17 851.33C1893.06 851.585 1888.88 851.996 1884.21 852.455L1884.21 852.455L1884.21 852.455C1872.33 853.623 1857.36 855.094 1849.27 855.046C1847.2 855.031 1845.13 855.122 1843.12 855.317C1842.62 855.359 1842.08 855.48 1841.57 855.598C1840.87 855.756 1840.21 855.907 1839.7 855.84C1834.3 855.011 1829.36 855.542 1824.33 856.083C1821.97 856.337 1819.58 856.594 1817.12 856.712C1816.55 856.74 1815.99 856.768 1815.42 856.797L1815.41 856.797C1805.73 857.283 1795.81 857.78 1786.07 855.86L1779.66 858.552C1775.34 858.539 1771.01 858.642 1766.72 858.862C1763.88 858.951 1761.03 858.765 1758.43 858.319C1757.53 858.231 1756.59 858.416 1755.62 858.609C1754.03 858.924 1752.34 859.26 1750.49 858.455C1749.85 858.184 1747.47 858.455 1746.18 858.649C1740.83 859.634 1734.82 859.939 1729.01 859.52C1725.64 859.116 1722.41 858.557 1719.38 857.855L1714.03 860.372L1714.02 860.372C1710.7 860.372 1706.98 860.372 1703.31 860.063C1699.77 859.732 1696.08 859.732 1692.54 860.063C1689.64 860.385 1686.34 860.038 1683.03 859.691C1681.36 859.515 1679.68 859.34 1678.06 859.249C1677.53 859.249 1676.92 859.486 1676.3 859.722L1676.3 859.722C1676.04 859.823 1675.78 859.923 1675.52 860.004L1665.85 857.874L1660.44 860.527C1656.38 860.247 1652.37 859.865 1648.43 859.384C1645.14 858.677 1641.32 858.438 1637.62 858.707C1635.35 858.877 1633 858.766 1630.91 858.393C1431.21 866.014 1162.08 863.343 877.504 860.518C697.283 858.729 510.867 856.878 331.966 857.542C331.522 857.58 331.079 857.62 330.637 857.661C327.164 857.986 323.53 858.048 319.901 858.111C315.963 858.178 312.029 858.245 308.311 858.649C301.201 859.414 294.046 859.528 286.892 859.642C283.362 859.698 279.833 859.754 276.309 859.888C275.442 859.919 274.571 859.948 273.699 859.978L273.694 859.978C271.271 860.06 268.829 860.142 266.386 860.256C264.388 860.502 262.325 860.658 260.235 860.721C251.303 860.409 242.469 860.828 233.62 861.247C227.085 861.557 220.542 861.867 213.945 861.883C210.174 861.883 206.391 862.146 202.583 862.411C198.726 862.679 194.843 862.948 190.923 862.948C188.629 863.749 186.127 863.606 183.58 863.461C181.997 863.371 180.396 863.28 178.818 863.413C173.27 863.86 167.636 864.131 161.997 864.402L161.996 864.402C158.104 864.588 154.21 864.775 150.341 865.021C143.79 865.436 137.264 865.934 130.4 866.458L130.4 866.458L130.4 866.458L130.396 866.458C127.332 866.692 124.2 866.931 120.97 867.17L113.278 864.304C110.441 864.188 107.582 864.188 104.746 864.304C100.052 864.68 95.4236 865.107 90.8097 865.534L90.8096 865.534C85.6703 866.009 80.5485 866.482 75.3721 866.88C69.259 867.366 63.0532 867.651 56.8177 867.732C55.4372 867.732 54.011 867.304 52.57 866.871C51.8878 866.667 51.2022 866.461 50.5167 866.299C41.7034 867.668 32.3956 868.492 22.931 868.739C28.4401 867.328 34.5594 866.317 40.9912 865.757C50.8867 865.047 60.722 864.127 70.5674 863.205L70.5676 863.205L70.5677 863.205C73.3589 862.944 76.1509 862.682 78.9454 862.425C80.7616 862.261 82.5144 862.005 84.9657 861.648L84.9658 861.648L84.966 861.648L84.9669 861.648L84.9676 861.648C86.2659 861.458 87.7602 861.24 89.5635 860.992C86.7871 860.765 83.9635 860.636 81.1281 860.605C79.4922 860.664 77.866 860.791 76.2411 860.918C74.17 861.08 72.1009 861.242 70.0159 861.263C67.8156 861.18 65.6241 861.064 63.4463 860.917C49.2725 861.25 35.203 861.611 21.2461 862C19.0845 862.193 16.933 862.406 14.7936 862.638L13.6041 862.638L-12.4432 863.374C-13.119 862.873 -13.13 862.504 -12.7411 862.228L-12.7411 -458.202L136.909 -462.429ZM1930.88 -457.315C1918.78 -458.315 1906.38 -458.692 1894.01 -458.431L1930.88 -457.315ZM1603.62 -472.196C1606.06 -472.919 1607.06 -473.214 1607.99 -473.079C1608.63 -472.987 1609.24 -472.693 1610.27 -472.198L1610.27 -472.196L1603.62 -472.196ZM1651.25 -470.181L1651.25 -470.55L1655.82 -470.55L1655.82 -470.065L1651.25 -470.181ZM1617.41 -472.273L1616.17 -472.273L1617.32 -472.641L1617.41 -472.273ZM1674.57 -469.232L1674.57 -469.426L1675.27 -469.426L1674.57 -469.232Z" fill="#F4D0E4"/>
<g clip-path="url(#clip0_277_64630)">
<path d="M1964.45 785.534C1964.45 787.02 1964.9 789.542 1965.27 792.019C1967.84 809.268 1960.48 821.111 1945.28 828.767C1942.94 829.759 1940.88 831.305 1939.27 833.271C1931.2 845.611 1918.02 847.953 1905.25 850.385C1892.19 852.547 1878.79 850.381 1867.08 844.215C1851.6 836.83 1836.98 828.272 1829.4 812.105C1823.04 798.594 1816.14 785.084 1819.7 768.691C1820.8 762.69 1823.34 757.044 1827.11 752.236C1830.87 747.429 1835.75 743.602 1841.31 741.084C1846.13 738.967 1850.44 735.871 1853.98 731.993C1857.53 728.116 1860.22 723.542 1861.89 718.566C1870.64 694.878 1891.58 687.042 1915 696.5C1926.49 701.029 1936.16 709.212 1942.52 719.782C1953.2 736.017 1960.69 754.127 1964.59 773.15C1965.09 775.193 1965.43 777.27 1965.63 779.364C1965.44 781.454 1965.05 783.521 1964.45 785.534Z" fill="#F4D0E4"/>
</g>
<defs>
<clipPath id="clip0_277_64630">
<rect width="158.614" height="147.008" fill="white" transform="translate(1818.8 851.331) rotate(-90)"/>
</clipPath>
</defs>
</svg>
